<svg width="88" height="88" viewBox="0 0 88 88" fill="none" xmlns="http://www.w3.org/2000/svg">
<rect width="88" height="88" rx="4" fill="#F7F3F8"/>
<path d="M38.7538 26.4562L39.643 22.1087C42.4096 24.0354 44.2375 24.0848 46.5101 23.492L47.2511 26.555C47.3005 27.6089 46.6089 29.6674 43.4471 29.4698C40.2853 29.2721 39.0008 27.3784 38.7538 26.4562Z" fill="white"/>
<path fill-rule="evenodd" clip-rule="evenodd" d="M39.5875 21.9698C39.6342 21.9511 39.6872 21.9571 39.7285 21.9859C41.0997 22.9409 42.2277 23.4231 43.2861 23.5975C44.3442 23.7719 45.3465 23.6409 46.4723 23.3472C46.5111 23.3371 46.5524 23.343 46.5869 23.3636C46.6213 23.3842 46.646 23.4178 46.6555 23.4568L47.3965 26.5198C47.3988 26.529 47.4001 26.5385 47.4006 26.548C47.4267 27.1061 47.2578 27.9255 46.6643 28.582C46.0656 29.2444 45.054 29.7201 43.4377 29.6191C40.2114 29.4175 38.8728 27.4788 38.6092 26.4949C38.6032 26.4725 38.6025 26.4489 38.6072 26.4262L39.4964 22.0787C39.5065 22.0294 39.5407 21.9885 39.5875 21.9698ZM39.7444 22.3598L38.9076 26.4508C39.1604 27.3248 40.3986 29.1293 43.4564 29.3204C45.0019 29.417 45.9171 28.9624 46.4423 28.3814C46.9677 27.8001 47.122 27.0716 47.1022 26.576L46.4003 23.6745C45.3107 23.9475 44.305 24.0687 43.2375 23.8928C42.1723 23.7173 41.0579 23.2481 39.7444 22.3598Z" fill="black"/>
<path d="M44.5753 27.42C42.2711 27.7774 40.4258 24.0939 39.7911 22.2075C42.8548 24.2844 44.6106 23.8984 46.4095 23.5028L46.4304 23.4982C46.7559 24.64 46.8796 27.0625 44.5753 27.42Z" fill="#DADADA"/>
<path d="M38.062 6.2503C35.6512 8.06833 36.0529 11.7982 36.5799 13.445C36.3509 13.4956 36.1152 13.6066 35.8883 13.809C35.2586 14.3704 34.9002 16.1803 36.2341 17.0202C36.4544 17.1589 36.8272 17.2762 37.2222 17.2901C37.4856 18.4429 38.4079 21.2194 39.7911 22.2075C41.5202 23.4426 44.188 24.6776 47.9426 22.9485C51.6973 21.2194 52.2901 17.613 51.4503 12.7221C50.6104 7.8312 48.4367 5.36105 46.1147 4.5706C43.7928 3.78015 41.0756 3.97776 38.062 6.2503Z" fill="white"/>
<path fill-rule="evenodd" clip-rule="evenodd" d="M46.0665 4.71224C43.7943 3.93874 41.1286 4.1252 38.1521 6.36976C36.9922 7.24443 36.5009 8.58452 36.3682 9.92658C36.2421 11.2019 36.4423 12.4604 36.6841 13.2749C37.0313 13.2293 37.354 13.302 37.605 13.3966C37.8884 13.5034 38.0915 13.6423 38.1539 13.6908C38.2191 13.7416 38.2309 13.8356 38.1801 13.9008C38.1294 13.9661 38.0354 13.9778 37.9701 13.9271C37.9275 13.8939 37.7504 13.7712 37.4994 13.6766C37.2486 13.5821 36.9352 13.5198 36.6122 13.5911C36.4083 13.6361 36.1957 13.7353 35.9878 13.9206C35.7129 14.1658 35.4759 14.7131 35.4744 15.3105C35.473 15.8987 35.6998 16.507 36.3138 16.8935C36.5081 17.0159 36.8543 17.1274 37.2274 17.1406C37.6484 17.1554 38.0698 17.0446 38.3436 16.7252C38.3974 16.6624 38.4918 16.6552 38.5546 16.7089C38.6173 16.7627 38.6246 16.8572 38.5708 16.9199C38.2639 17.2779 37.8285 17.4177 37.4117 17.4383C37.5577 18.0183 37.8342 18.892 38.223 19.7487C38.6573 20.706 39.2203 21.6159 39.8781 22.0857C40.7326 22.6961 41.8113 23.3007 43.1342 23.5424C44.4547 23.7836 46.0291 23.665 47.88 22.8126C49.7184 21.966 50.7756 20.6661 51.2759 18.9785C51.7788 17.282 51.7213 15.1846 51.3028 12.7474C50.4683 7.88817 48.3181 5.47874 46.0665 4.71224ZM37.1021 17.4329C37.2464 18.0273 37.5359 18.9588 37.9504 19.8724C38.3889 20.8386 38.9786 21.811 39.7041 22.3292C40.5787 22.9539 41.6985 23.5844 43.0804 23.8368C44.4647 24.0896 46.1015 23.9612 48.0052 23.0844C49.9215 22.2019 51.038 20.8341 51.5628 19.0635C52.0851 17.3017 52.0191 15.1505 51.5977 12.6968C50.7524 7.7742 48.5552 5.24332 46.1629 4.42893C43.7912 3.62153 41.0226 3.83029 37.9719 6.13082C36.7209 7.07418 36.2077 8.50805 36.0704 9.89713C35.9408 11.2068 36.143 12.495 36.3918 13.3418C36.1884 13.4091 35.9845 13.5227 35.7887 13.6973C35.4339 14.0136 35.1768 14.652 35.1752 15.3098C35.1735 15.9769 35.4344 16.6935 36.1543 17.1468C36.3778 17.2875 36.7277 17.402 37.1021 17.4329Z" fill="black"/>
<path d="M38.6925 26.4854C36.7473 26.5104 33.0801 25.8636 30.9863 28.9544C29.4152 31.2737 25.6743 36.6606 25.7492 41.5237C27.2206 42.0724 30.4626 43.6036 31.6597 45.3394C31.6597 45.4641 31.54 45.8332 31.0612 46.312C30.5823 46.7908 31.4602 49.7536 31.959 51.1751C32.5575 52.1477 35.0564 53.659 41.4607 54.6167C47.8651 55.5744 51.2618 51.9233 52.6833 49.9032C52.6833 47.5839 52.0919 40.3499 50.2892 35.4635L51.0373 37.4088C50.7979 36.6905 52.7831 34.0669 53.8056 32.8449C53.9253 31.8274 52.2095 28.9295 51.3366 27.6077C50.0797 26.2909 48.5434 26.3109 47.2965 26.7099C46.9374 29.104 44.8026 29.6028 43.7801 29.553C40.3684 29.4332 38.9668 27.4581 38.6925 26.4854Z" fill="#F7F3F8"/>
<path fill-rule="evenodd" clip-rule="evenodd" d="M37.7824 26.3185C38.1169 26.3293 38.4234 26.3393 38.6907 26.3358L38.8055 26.3344L38.8366 26.4448C39.093 27.3537 40.4376 29.2859 43.7854 29.4034L43.7875 29.4035L43.7875 29.4035C44.275 29.4273 45.0341 29.3194 45.711 28.9191C46.3817 28.5225 46.9762 27.8369 47.1486 26.6877L47.1624 26.5957L47.251 26.5674C48.53 26.1581 50.1344 26.1315 51.4449 27.5044L51.4542 27.5141L51.4616 27.5253C51.9001 28.1893 52.5503 29.249 53.0765 30.272C53.3395 30.7832 53.5731 31.2885 53.7338 31.7323C53.892 32.1691 53.9887 32.5702 53.9543 32.8624L53.9491 32.9067L53.9204 32.9409C53.4115 33.5492 52.6633 34.506 52.0731 35.3983C51.7778 35.8449 51.5249 36.2711 51.3611 36.627C51.2792 36.8052 51.2216 36.9612 51.1914 37.0906C51.1604 37.2234 51.1624 37.3105 51.1794 37.3614L51.0678 37.4015C52.3832 42.1013 52.833 47.8738 52.833 49.9032V49.9506L52.8058 49.9893C51.3686 52.0316 47.9232 55.7343 41.4387 54.7647C38.2289 54.2847 35.9905 53.665 34.4757 53.0398C32.9672 52.4173 32.1563 51.781 31.8316 51.2535L31.8232 51.2398L31.8179 51.2246C31.5673 50.5106 31.2213 49.4087 30.9976 48.4231C30.886 47.931 30.8035 47.4623 30.7801 47.0832C30.7683 46.8939 30.7709 46.7212 30.7942 46.5764C30.8168 46.4355 30.8625 46.2992 30.9555 46.2062C31.1858 45.9758 31.3262 45.7755 31.4082 45.6223C31.4688 45.509 31.4949 45.4266 31.5049 45.379C30.9185 44.5559 29.8515 43.7696 28.7319 43.1156C27.5961 42.452 26.4256 41.9356 25.697 41.6639L25.6012 41.6282L25.5996 41.526C25.5617 39.0588 26.4906 36.4706 27.6168 34.2182C28.6875 32.0768 29.9442 30.2243 30.7401 29.051C30.7823 28.9889 30.8231 28.9287 30.8626 28.8705C31.9391 27.2814 33.4221 26.6547 34.8716 26.4225C35.9014 26.2575 36.9324 26.2909 37.7824 26.3185ZM31.8069 45.3835C31.7965 45.4794 31.7537 45.6108 31.672 45.7635C31.5745 45.9457 31.4155 46.1693 31.1671 46.4178C31.1404 46.4445 31.1087 46.5056 31.0896 46.6239C31.0712 46.7383 31.0677 46.8867 31.0787 47.0647C31.1008 47.4202 31.1792 47.8708 31.2895 48.3569C31.5082 49.3207 31.847 50.4022 32.0948 51.11C32.3752 51.5538 33.113 52.1537 34.5899 52.7632C36.0752 53.3762 38.2884 53.991 41.483 54.4687C47.7665 55.4083 51.112 51.861 52.5337 49.8558C52.5258 47.4954 51.931 40.3456 50.1489 35.5153L50.4289 35.4098L50.4296 35.4117L50.9651 36.8039C50.9991 36.7078 51.041 36.6067 51.0892 36.5019C51.2623 36.1258 51.5247 35.685 51.8235 35.2332C52.4101 34.3462 53.1481 33.4001 53.6607 32.7851C53.673 32.5674 53.5997 32.2408 53.4524 31.8342C53.2978 31.4071 53.0704 30.9145 52.8103 30.4089C52.2933 29.4038 51.6535 28.3598 51.2193 27.7014C50.0464 26.4804 48.6238 26.4647 47.4296 26.8252C47.2249 28.0152 46.5867 28.7489 45.8633 29.1767C45.1278 29.6117 44.3089 29.7283 43.7739 29.7025C40.4181 29.5843 38.9431 27.6983 38.5827 26.6358C38.323 26.6361 38.0403 26.6269 37.74 26.6171C36.8984 26.5897 35.9186 26.5578 34.9189 26.718C33.6141 26.927 32.306 27.4621 31.3097 28.7617C32.1453 28.6681 33.2577 28.6525 34.3336 28.999C35.5732 29.3983 36.7581 30.2769 37.4114 32.0449L37.1307 32.1486C36.5122 30.475 35.4027 29.6578 34.2419 29.2839C33.1033 28.9172 31.9093 28.9758 31.0732 29.0931C31.0457 29.1336 31.0177 29.175 30.989 29.2172C30.1929 30.3909 28.946 32.229 27.8844 34.3521C26.7819 36.5571 25.8876 39.0539 25.8979 41.4198C26.6443 41.7049 27.7792 42.2124 28.8829 42.8572C29.9496 43.4803 31.0042 44.2413 31.644 45.065C32.6373 43.3199 34.0517 40.748 35.2072 38.4562C35.8076 37.2653 36.3369 36.1525 36.7007 35.2717C36.8828 34.831 37.0221 34.4515 37.1083 34.151C37.1514 34.0007 37.1805 33.8731 37.1953 33.7691C37.2105 33.6626 37.209 33.5921 37.1998 33.5507L37.492 33.4858C37.5127 33.5791 37.5086 33.6915 37.4916 33.8113C37.4741 33.9336 37.4413 34.0756 37.396 34.2336C37.3053 34.5496 37.1612 34.9407 36.9773 35.386C36.6092 36.2771 36.0761 37.3976 35.4744 38.5909C34.2777 40.9645 32.805 43.6358 31.8069 45.3835Z" fill="black"/>
<path d="M37.482 33.9891C37.4861 33.9429 37.4902 33.8972 37.4944 33.8521C37.5101 33.8626 37.5053 33.9095 37.482 33.9891C37.1951 37.2404 37.1951 43.2315 37.1951 45.1495C37.1951 47.0947 34.7262 52.9304 34.7262 52.9304C34.0528 52.7559 32.5864 52.1823 32.1076 51.2845C31.509 50.1622 30.686 47.2443 30.9105 46.4962C31.2347 46.147 31.7933 45.4787 31.7335 45.2991C33.612 41.8435 37.1728 35.0451 37.482 33.9891Z" fill="#DADADA"/>
<path d="M41.9833 30.6349C40.4018 30.0522 38.8161 28.0413 38.5417 26.6696C39.1403 28.0163 41.1066 29.673 43.9286 29.5875C46.3975 29.5127 47.3702 27.7171 47.3702 26.8193C47.8191 27.0437 47.0009 29.5763 46.2479 30.2608C45.4249 31.009 43.4049 31.1586 41.9833 30.6349Z" fill="#DADADA"/>
<path d="M25.2106 48.3666L26.0336 41.7079C28.6073 42.4261 30.8468 44.4013 31.6449 45.2991L30.8967 46.4962C30.6573 47.1545 31.4454 49.8629 31.8693 51.1348C32.0439 51.5089 32.8719 52.0625 33.2909 52.7808C33.8146 53.6786 34.7124 53.9779 35.3109 54.5016C35.7898 54.9206 36.5579 56.8209 36.5828 57.5691C36.4332 58.1676 35.4838 57.7712 35.3109 57.195C34.7947 55.4742 34.064 55.6987 33.6649 55.1001L34.039 56.1476C34.6874 57.3446 35.266 59.9183 32.3931 60.6366C28.8018 61.5344 27.904 56.5216 27.6796 55.3246C27.4551 54.1275 26.4077 52.4815 25.6595 51.2844C25.061 50.3268 25.1109 48.9402 25.2106 48.3666Z" fill="white"/>
<path fill-rule="evenodd" clip-rule="evenodd" d="M25.9506 41.5833C25.9869 41.5592 26.0318 41.552 26.0738 41.5637C28.6858 42.2926 30.9485 44.2904 31.7567 45.1997C31.8008 45.2493 31.8069 45.3221 31.7717 45.3784L31.0327 46.5608C31.0142 46.6197 31.0025 46.7095 31.002 46.8329C31.0015 46.9637 31.0135 47.1214 31.0365 47.3009C31.0823 47.6596 31.1703 48.0938 31.2797 48.5506C31.4975 49.4593 31.7974 50.4451 32.0083 51.0787C32.0424 51.1479 32.1113 51.2357 32.2152 51.3464C32.2987 51.4352 32.3967 51.5306 32.5044 51.6354C32.5333 51.6635 32.5629 51.6923 32.593 51.7218C32.8737 51.9962 33.1992 52.3268 33.4201 52.7054C33.6661 53.1272 34.0013 53.4115 34.358 53.6584C34.4786 53.7419 34.5984 53.8191 34.7187 53.8965C34.7785 53.9349 34.8384 53.9735 34.8984 54.0129C35.0764 54.1296 35.2518 54.251 35.4094 54.389C35.5496 54.5116 35.6977 54.7282 35.8386 54.9792C35.982 55.2344 36.1263 55.5404 36.2555 55.8551C36.5111 56.4775 36.7189 57.1611 36.7323 57.5641C36.7328 57.578 36.7313 57.5919 36.728 57.6054C36.679 57.8012 36.5572 57.9306 36.393 57.986C36.2382 58.0381 36.0641 58.0186 35.9065 57.9639C35.5949 57.8558 35.271 57.5826 35.1676 57.238C34.9165 56.4011 34.6198 56.0555 34.3514 55.8443C34.257 55.77 34.1698 55.7144 34.0796 55.6568C34.0553 55.6413 34.0307 55.6256 34.0057 55.6094L34.1761 56.0865C34.5071 56.7018 34.8238 57.6725 34.6845 58.594C34.614 59.0608 34.4259 59.5167 34.0624 59.903C33.6992 60.2891 33.1693 60.5968 32.4293 60.7818C31.4943 61.0155 30.7234 60.8656 30.095 60.4814C29.4716 60.1002 28.9999 59.4957 28.6423 58.8376C27.9443 57.5533 27.6574 56.0197 27.5404 55.3943C27.5377 55.3798 27.535 55.3657 27.5325 55.3522C27.4247 54.7775 27.1162 54.0837 26.7342 53.3756C26.3784 52.716 25.9656 52.0559 25.607 51.4828C25.5819 51.4427 25.5571 51.403 25.5326 51.3638C25.2163 50.8576 25.0752 50.2458 25.0242 49.6953C24.9733 49.146 25.0108 48.6446 25.0625 48.3446L25.8851 41.6895C25.8904 41.6463 25.9143 41.6075 25.9506 41.5833ZM26.1605 41.9006L25.3591 48.3849C25.3588 48.3874 25.3584 48.3898 25.358 48.3922C25.3104 48.6663 25.2736 49.1431 25.3222 49.6677C25.3709 50.1933 25.5042 50.7536 25.7864 51.2051C25.8112 51.2448 25.8363 51.2849 25.8617 51.3256C26.2193 51.8973 26.6371 52.5651 26.9976 53.2335C27.3825 53.9469 27.7099 54.6746 27.8266 55.297C27.8288 55.3088 27.8311 55.3209 27.8334 55.3334C27.9503 55.9578 28.2302 57.4526 28.9052 58.6947C29.249 59.3272 29.6891 59.8824 30.2511 60.226C30.8082 60.5666 31.4962 60.7066 32.3567 60.4914C33.0532 60.3173 33.5283 60.034 33.8445 59.698C34.1602 59.3624 34.3257 58.9654 34.3886 58.5493C34.5154 57.7102 34.2229 56.8011 33.9074 56.2188C33.9038 56.2121 33.9007 56.2051 33.8981 56.1979L33.524 55.1505C33.4986 55.0793 33.5302 55.0003 33.5978 54.9664C33.6653 54.9325 33.7475 54.9542 33.7894 55.0171C33.874 55.1439 33.9767 55.2293 34.1019 55.3141C34.139 55.3393 34.1803 55.3657 34.2242 55.3938C34.3212 55.4559 34.431 55.5261 34.5365 55.6091C34.8623 55.8655 35.1891 56.2681 35.4542 57.152C35.5237 57.3836 35.7609 57.5966 36.0046 57.6812C36.1246 57.7228 36.2268 57.7262 36.2975 57.7024C36.3548 57.683 36.4049 57.642 36.4323 57.5521C36.4138 57.2022 36.2277 56.5753 35.9786 55.9687C35.8529 55.6624 35.7137 55.368 35.5777 55.1257C35.4391 54.8791 35.3116 54.7011 35.2124 54.6142C35.0708 54.4903 34.9094 54.378 34.7344 54.2632C34.6787 54.2267 34.6211 54.1896 34.5624 54.1518C34.4397 54.0728 34.3122 53.9908 34.1876 53.9045C33.8149 53.6464 33.4393 53.3322 33.1616 52.8562C32.9635 52.5166 32.6655 52.2112 32.3838 51.9357C32.3552 51.9078 32.3267 51.8801 32.2985 51.8526C32.1901 51.7471 32.0856 51.6455 31.9971 51.5513C31.8872 51.4343 31.7882 51.3148 31.7337 51.1981C31.7313 51.1929 31.7292 51.1876 31.7274 51.1821C31.5144 50.5434 31.2101 49.544 30.9887 48.6203C30.8781 48.1587 30.7874 47.7128 30.7396 47.3388C30.7157 47.1519 30.7022 46.9801 30.7027 46.8318C30.7033 46.686 30.7174 46.5514 30.7561 46.445C30.7596 46.4352 30.7642 46.4257 30.7698 46.4169L31.4581 45.3157C30.6307 44.4167 28.55 42.6222 26.1605 41.9006Z" fill="black"/>
<path d="M27.9788 42.6805C27.7993 42.5009 27.1559 42.2316 26.1832 41.8575C25.884 43.8028 25.2705 47.6932 25.2106 48.5911C25.1109 50.0874 25.7425 51.5022 26.4825 52.4067C27.1558 53.2297 27.7544 55.2498 28.2781 57.4195C28.7046 59.1862 29.9241 60.1129 30.4478 60.3373C30.4478 60.3373 31.3456 60.7114 31.7945 60.5618C32.2434 60.4122 30.7471 60.3373 30.1485 59.8136C29.6981 59.4195 28.9266 57.7686 28.6522 57.0454C28.5275 55.9231 28.2033 53.7534 27.53 53.0801C26.8525 52.4026 26.1832 50.237 25.9588 49.3392C25.7222 48.3928 28.2033 42.905 27.9788 42.6805Z" fill="#DADADA"/>
<path d="M51.0226 36.9196C51.1423 36.2013 52.918 33.8271 53.7908 32.7298C54.8632 35.4731 57.0229 41.4535 57.0828 43.4286C57.1426 45.4038 57.7062 47.4438 57.9806 48.2169C58.7287 48.9651 59.1028 50.7607 59.028 51.9578C58.8036 53.0052 58.8036 53.529 57.9806 54.1275C56.9239 54.896 55.9605 54.2023 55.4368 53.7534C55.2761 53.6157 54.6463 52.9077 55.0627 51.6585C55.2872 50.9852 54.6138 50.1622 54.4642 50.3118C54.2647 51.0351 54.3145 51.3593 54.3145 51.9578C54.3145 52.6312 54.539 52.6312 54.4642 53.0052C54.4011 53.3204 54.1799 53.5439 53.6412 53.0052C53.1025 52.4666 53.0426 51.883 53.0426 51.2096C53.0426 50.5363 53.0982 49.9276 53.3419 49.4888C54.4642 47.4688 53.3419 43.6531 53.0426 42.6057C52.7434 41.5582 51.5463 38.2912 51.0226 36.9196Z" fill="white"/>
<path fill-rule="evenodd" clip-rule="evenodd" d="M53.8355 32.4332L53.9302 32.6753C54.4671 34.0489 55.2762 36.2326 55.9587 38.3208C56.2999 39.3648 56.6101 40.3866 56.8388 41.272C57.0666 42.1541 57.2168 42.9122 57.2323 43.4241C57.2908 45.3532 57.8359 47.3496 58.1107 48.1359C58.5004 48.5406 58.7814 49.1949 58.9578 49.8818C59.1389 50.5872 59.2158 51.3512 59.1773 51.9672L59.1766 51.9783L59.1743 51.9892C59.1468 52.1176 59.1224 52.2401 59.099 52.3571C59.0299 52.7037 58.9704 53.0024 58.8682 53.2652C58.7257 53.6317 58.5004 53.9345 58.0686 54.2485C57.4984 54.6632 56.9437 54.6858 56.4652 54.5402C55.9957 54.3972 55.6044 54.0942 55.3394 53.867C55.1467 53.7019 54.4798 52.934 54.9207 51.6112C55.0135 51.3328 54.9231 51.0056 54.7746 50.7522C54.7068 50.6366 54.6327 50.5467 54.5715 50.4922C54.4506 50.9793 54.4551 51.2679 54.4612 51.6598C54.4626 51.7521 54.4641 51.8501 54.4641 51.9578C54.4641 52.2729 54.5156 52.4238 54.5583 52.5434C54.5601 52.5486 54.562 52.5538 54.5639 52.5591C54.5846 52.6166 54.6078 52.6814 54.6199 52.7539C54.6338 52.8371 54.6327 52.9256 54.6109 53.0346C54.5777 53.2003 54.4888 53.4233 54.2623 53.4718C54.1526 53.4953 54.0366 53.4697 53.92 53.41C53.8036 53.3505 53.6762 53.2519 53.5354 53.1111C52.9527 52.5284 52.893 51.8923 52.893 51.2096C52.893 50.5361 52.9468 49.8919 53.2111 49.4162C53.7469 48.4517 53.7542 47.0357 53.577 45.7022C53.407 44.4226 53.0725 43.2539 52.9149 42.7031C52.9093 42.6836 52.9039 42.6648 52.8987 42.6468C52.6016 41.6068 51.4071 38.3461 50.8828 36.9729L50.8683 36.935L50.875 36.895C50.91 36.685 51.0576 36.38 51.2533 36.0413C51.4531 35.6956 51.7161 35.2935 52.0012 34.8817C52.5716 34.0577 53.2358 33.1871 53.6737 32.6367L53.8355 32.4332ZM51.1778 36.9067C51.7087 38.2998 52.888 41.52 53.1865 42.5646C53.1918 42.583 53.1973 42.6024 53.2031 42.6226C53.3611 43.1744 53.7007 44.3609 53.8737 45.6628C54.0519 47.004 54.0591 48.506 53.4727 49.5615C53.2495 49.9632 53.1923 50.5365 53.1923 51.2096C53.1923 51.8737 53.2523 52.4047 53.747 52.8994C53.8755 53.028 53.9778 53.1034 54.0563 53.1436C54.1346 53.1837 54.1789 53.1836 54.1997 53.1791C54.2343 53.1717 54.2875 53.1254 54.3174 52.9759C54.333 52.8978 54.3319 52.8461 54.3247 52.8031C54.3172 52.7582 54.3028 52.7177 54.2799 52.6538L54.2765 52.6441C54.2257 52.5018 54.1649 52.3161 54.1649 51.9578C54.1649 51.856 54.1634 51.7613 54.1619 51.6706C54.1549 51.2357 54.1493 50.8904 54.3199 50.272L54.3304 50.234L54.3583 50.206C54.4302 50.1341 54.5225 50.1374 54.5843 50.1556C54.6441 50.1732 54.7 50.2097 54.7477 50.2491C54.8452 50.3297 54.947 50.4546 55.0328 50.6009C55.2022 50.8899 55.3363 51.3109 55.2046 51.7059C54.8128 52.8815 55.4055 53.5295 55.5342 53.6398C55.7929 53.8616 56.1451 54.1299 56.5524 54.2539C56.9506 54.3751 57.406 54.3603 57.8925 54.0065C58.2837 53.722 58.4699 53.4636 58.5893 53.1568C58.6812 52.9203 58.7336 52.6578 58.8007 52.3215C58.8243 52.2033 58.8497 52.076 58.8793 51.9375C58.914 51.3582 58.8411 50.6307 58.668 49.9563C58.4926 49.2733 58.2205 48.6685 57.8747 48.3228L57.8508 48.2989L57.8395 48.267C57.5618 47.4844 56.9936 45.4286 56.9332 43.4332C56.9188 42.9575 56.7765 42.2274 56.5491 41.3469C56.3225 40.4698 56.0145 39.4546 55.6742 38.4138C55.0329 36.4516 54.279 34.4035 53.7462 33.0278C53.3195 33.572 52.7466 34.3307 52.2473 35.052C51.9644 35.4607 51.7065 35.8554 51.5124 36.1911C51.3299 36.5068 51.2144 36.7532 51.1778 36.9067Z" fill="black"/>
<path d="M53.716 42.3812C53.4168 41.3338 52.0202 38.1416 51.1722 36.7699C51.5463 38.0418 52.8182 41.1093 53.3419 43.1294C53.5876 44.0768 53.8768 45.5498 53.9405 46.571C54.0128 47.731 53.8354 48.4166 53.716 49.0399C53.9155 48.6908 54.1949 47.8129 54.3146 47.0947C54.4642 46.1969 54.0883 43.6841 53.716 42.3812Z" fill="#DADADA"/>
<path d="M55.4369 51.06C55.2573 50.5812 54.8384 50.262 54.6887 50.237C55.2124 50.8356 55.1376 51.5089 55.0628 52.1075C55.003 52.5863 55.0628 53.0053 55.2124 53.3045L55.7362 53.8283C55.6115 53.6287 55.4967 53.2596 55.4369 53.0801C55.377 52.9005 55.3621 52.7808 55.4369 52.4067C55.5616 52.1573 55.6165 51.5388 55.4369 51.06Z" fill="#DADADA"/>
<path d="M28.9652 71.934C28.8904 71.3354 30.4616 63.5544 30.8357 62.5818C30.921 62.3599 31.0408 61.6359 31.1778 60.6366C31.6587 60.7862 33.6039 60.6366 34.3521 59.0654C34.801 57.9432 34.5017 56.8957 33.6787 55.0253C34.3521 55.6238 34.801 55.7735 35.1751 56.7461C35.3477 57.195 35.4743 57.7935 36.3721 57.7935C36.7462 57.4943 36.5218 57.0453 36.3721 56.4468C36.0729 55.6238 35.8484 55.1001 35.3995 54.5016C35.1751 54.2023 33.4543 53.5289 33.0054 52.1822C38.467 54.6512 43.4614 54.6585 43.9287 54.6512C48.717 54.5764 51.7346 51.3592 52.6823 49.7881C52.5825 51.9827 52.9067 56.2224 53.2808 57.3446C53.6549 58.2424 53.8045 64.0033 53.8793 64.7515C53.9392 65.35 54.7771 68.4924 54.9268 70.3628C54.9268 71.4851 54.9866 72.5774 54.9268 73.0562C54.852 73.6547 50.4843 75.932 49.2407 76.1985C48.1932 76.423 47.1957 76.5976 46.7717 76.7223C46.672 76.5976 46.5473 75.8993 46.3976 75.6748C46.1071 75.2391 45.2006 70.0635 45.2006 68.7916V64.0033C45.2006 63.2252 44.4025 61.4346 44.0035 60.6366C43.6793 60.7613 42.9261 61.1603 42.5071 61.7588C42.0882 62.3574 40.8362 66.6968 40.1878 68.7916C40.0132 71.2606 39.9274 75.886 39.3648 76.1985C38.6915 76.5726 35.624 76.423 34.4269 76.1985C33.2298 75.9741 30.4616 74.8518 29.9379 74.3281C29.2243 73.6145 29.0251 72.4128 28.9652 71.934Z" fill="#F22152"/>
<path fill-rule="evenodd" clip-rule="evenodd" d="M43.9263 54.5016C48.6461 54.4279 51.623 51.2545 52.5541 49.7108L52.8317 49.7949C52.7822 50.8835 52.8379 52.4853 52.953 53.9568C53.0105 54.692 53.0827 55.3927 53.1636 55.9786C53.2445 56.5642 53.3329 57.0255 53.4211 57.2925C53.4742 57.4225 53.5189 57.6239 53.5585 57.8658C53.5992 58.1151 53.6364 58.4201 53.6705 58.7606C53.7386 59.4419 53.7949 60.2721 53.8417 61.0957C53.8873 61.8999 53.9239 62.6948 53.9537 63.342C53.9852 64.0267 54.0092 64.5462 54.0282 64.7366C54.0421 64.8755 54.1032 65.1739 54.1933 65.5858C54.2267 65.7382 54.2638 65.9053 54.3034 66.0834C54.3693 66.3799 54.4421 66.7071 54.5156 67.0487C54.7512 68.1423 55.0002 69.4045 55.0759 70.3509L55.0764 70.3568V70.3628C55.0764 70.7643 55.0841 71.1611 55.0912 71.5288C55.094 71.6737 55.0967 71.8141 55.0988 71.9484C55.1062 72.4186 55.1067 72.8228 55.0752 73.0748C55.0659 73.1497 55.0269 73.2185 54.9849 73.2757C54.9409 73.3357 54.8822 73.3981 54.8139 73.4617C54.6771 73.589 54.4887 73.7329 54.2663 73.8856C53.8208 74.1916 53.2238 74.5436 52.593 74.8836C51.9617 75.2239 51.2934 75.554 50.704 75.816C50.1183 76.0764 49.5996 76.2747 49.272 76.3449C48.8712 76.4307 48.4774 76.5094 48.1212 76.5806C48.0109 76.6026 47.9041 76.6239 47.8019 76.6445C47.3665 76.7322 47.0183 76.8057 46.8139 76.8658L46.7176 76.8942L46.6548 76.8157C46.629 76.7834 46.6097 76.7431 46.5952 76.7087C46.5796 76.6717 46.5645 76.6288 46.5498 76.5837C46.5249 76.5069 46.4989 76.4155 46.4727 76.3233C46.4683 76.3079 46.4639 76.2925 46.4595 76.2771C46.4282 76.1678 46.3965 76.0592 46.3638 75.9646C46.33 75.8671 46.2992 75.797 46.2731 75.7578C46.2443 75.7147 46.2188 75.6546 46.1956 75.5908C46.1713 75.524 46.1456 75.4416 46.1188 75.3469C46.0651 75.1573 46.0051 74.9113 45.9419 74.6268C45.8154 74.0575 45.6744 73.3276 45.5427 72.5725C45.2803 71.0683 45.0509 69.443 45.0509 68.7917V64.0034C45.0509 63.8297 45.0055 63.5877 44.9255 63.3016C44.8462 63.018 44.7357 62.7012 44.6121 62.3814C44.3894 61.8059 44.1264 61.2276 43.9317 60.8292C43.5809 60.9889 42.9779 61.3471 42.6297 61.8447C42.5874 61.9051 42.5272 62.025 42.4517 62.2049C42.3776 62.3813 42.2929 62.6052 42.2001 62.8658C42.0146 63.3868 41.7993 64.0487 41.5762 64.7589C41.3094 65.6088 41.0332 66.5224 40.7846 67.3446C40.6191 67.892 40.4659 68.3988 40.3358 68.8194C40.2975 69.3653 40.2634 70.0155 40.2273 70.7023C40.2229 70.7859 40.2185 70.87 40.2141 70.9545C40.1727 71.7401 40.1279 72.5611 40.071 73.315C40.0141 74.068 39.9448 74.7586 39.8536 75.2822C39.8081 75.5435 39.7562 75.7687 39.6957 75.9413C39.6655 76.0276 39.6315 76.1052 39.5925 76.169C39.5545 76.2312 39.5046 76.292 39.4374 76.3294C39.3337 76.387 39.1948 76.4293 39.0388 76.4617C38.8805 76.4945 38.6945 76.5192 38.4905 76.537C38.0824 76.5727 37.5927 76.582 37.0894 76.5726C36.0842 76.5538 35.009 76.4599 34.3993 76.3456C33.7852 76.2305 32.7824 75.889 31.8728 75.5139C31.4165 75.3257 30.9798 75.1275 30.623 74.9426C30.272 74.7607 29.9813 74.5832 29.832 74.4339C29.4518 74.0537 29.2142 73.55 29.0641 73.0894C28.9134 72.6271 28.8472 72.1965 28.8167 71.9525C28.8099 71.8978 28.8132 71.818 28.8206 71.7286C28.8284 71.6349 28.842 71.5174 28.8604 71.3802C28.8973 71.1057 28.9544 70.7468 29.0258 70.3316C29.1687 69.5009 29.3701 68.4403 29.5854 67.3687C29.8006 66.297 30.03 65.2133 30.2291 64.3361C30.4268 63.4649 30.5976 62.7837 30.696 62.5281C30.7324 62.4334 30.7816 62.2121 30.8399 61.8752C30.8972 61.5441 30.9611 61.1152 31.0295 60.6163L31.0535 60.4412L31.2222 60.4937C31.3169 60.5232 31.5075 60.5429 31.7614 60.5259C32.0112 60.5091 32.3101 60.4576 32.617 60.3545C33.2299 60.1484 33.8628 59.7411 34.2149 59.0054C34.6354 57.9494 34.3653 56.9574 33.5417 55.0856L33.7781 54.9135C33.9261 55.045 34.0662 55.1562 34.1989 55.2615C34.6478 55.6177 35.0127 55.9073 35.3147 56.6924C35.3328 56.7394 35.3498 56.7859 35.3665 56.8316C35.4359 57.0215 35.5003 57.1977 35.6182 57.3444C35.7457 57.5029 35.9435 57.6315 36.3166 57.6431C36.3645 57.596 36.3922 57.5473 36.4081 57.4964C36.4287 57.4305 36.4325 57.3511 36.42 57.251C36.4074 57.1504 36.3796 57.0378 36.3436 56.9076C36.3332 56.8698 36.322 56.8304 36.3104 56.7896C36.2837 56.6957 36.255 56.5947 36.2288 56.4907C35.9324 55.6761 35.714 55.1703 35.2798 54.5914C35.2668 54.574 35.2323 54.5422 35.1635 54.4929C35.0981 54.4461 35.0142 54.3921 34.9139 54.3288C34.8916 54.3147 34.8686 54.3002 34.8449 54.2853C34.6582 54.1678 34.4311 54.0249 34.1986 53.8557C33.6771 53.4765 33.103 52.9483 32.8634 52.2296L32.7552 51.9049L33.067 52.0459C38.5002 54.502 43.4697 54.5087 43.9263 54.5016ZM44.2187 60.7349C44.4144 61.1379 44.6718 61.7063 44.8912 62.2735C45.0169 62.5984 45.1309 62.925 45.2137 63.221C45.2957 63.5143 45.3502 63.788 45.3502 64.0034V68.7917C45.3502 69.4122 45.574 71.0107 45.8375 72.5211C45.9688 73.2733 46.1089 73.9985 46.2341 74.5619C46.2967 74.8438 46.3552 75.0836 46.4067 75.2653C46.4325 75.3563 46.456 75.4311 46.4769 75.4886C46.4989 75.5491 46.5145 75.5805 46.5221 75.5918C46.5708 75.6649 46.6117 75.7662 46.6465 75.8667C46.6823 75.97 46.7161 76.0859 46.7472 76.1948C46.7518 76.2108 46.7563 76.2267 46.7607 76.2423C46.7871 76.3349 46.8114 76.4201 46.8345 76.4914C46.8409 76.511 46.8469 76.5288 46.8527 76.545C47.0736 76.4881 47.3845 76.4233 47.7428 76.3511C47.846 76.3303 47.9534 76.3089 48.0642 76.2868C48.42 76.2157 48.8108 76.1376 49.2093 76.0522C49.5035 75.9892 49.9971 75.8028 50.5825 75.5426C51.1641 75.284 51.8256 74.9573 52.451 74.6202C53.0769 74.2828 53.6636 73.9365 54.0969 73.6389C54.314 73.4898 54.4888 73.3555 54.61 73.2426C54.6707 73.1861 54.7148 73.138 54.7436 73.0987C54.7744 73.0567 54.7783 73.0376 54.7783 73.0377C54.8066 72.8108 54.8071 72.4294 54.7996 71.9532C54.7975 71.8209 54.7948 71.6818 54.792 71.5377C54.7849 71.1707 54.7772 70.7714 54.7771 70.3688C54.7026 69.4454 54.4584 68.2042 54.2231 67.1117C54.1496 66.7705 54.0774 66.4459 54.0118 66.1504C53.9721 65.9719 53.9348 65.8041 53.901 65.6498C53.8125 65.2456 53.7465 64.9268 53.7304 64.7664C53.7108 64.5703 53.6861 64.0346 53.6538 63.3357C53.624 62.688 53.5876 61.9001 53.5429 61.1127C53.4961 60.2903 53.4402 59.4652 53.3727 58.7904C53.3389 58.4529 53.3025 58.1547 53.2631 57.9141C53.2232 57.6697 53.1821 57.4968 53.1426 57.4022L53.1405 57.3971L53.1388 57.3919C53.0405 57.0971 52.9487 56.6096 52.8672 56.0196C52.7852 55.4263 52.7125 54.7195 52.6546 53.9802C52.5563 52.7234 52.5007 51.3669 52.5172 50.309C51.3098 51.9985 48.3724 54.7314 43.931 54.8008C43.4633 54.8081 38.6466 54.8007 33.2957 52.4747C33.549 52.9405 33.9629 53.3143 34.3746 53.6137C34.5985 53.7765 34.8169 53.9141 35.0041 54.0319C35.0278 54.0469 35.0511 54.0615 35.0737 54.0758C35.1734 54.1387 35.2643 54.197 35.3377 54.2496C35.4077 54.2997 35.4761 54.3543 35.5192 54.4118C35.9815 55.0282 36.212 55.5686 36.5127 56.3957L36.5154 56.403L36.5173 56.4105C36.5427 56.5125 36.57 56.6084 36.5968 56.7026C36.6087 56.7445 36.6205 56.7861 36.632 56.8278C36.6685 56.9594 36.7015 57.09 36.717 57.2138C36.7325 57.3382 36.7316 57.4645 36.6938 57.5857C36.6551 57.7096 36.5807 57.8182 36.4656 57.9104L36.4246 57.9432H36.3721C35.8836 57.9432 35.5823 57.7772 35.385 57.5319C35.2329 57.3427 35.1479 57.1082 35.0783 56.9161C35.0634 56.8751 35.0493 56.8361 35.0354 56.7998C34.7697 56.109 34.4797 55.8693 34.0607 55.5358C34.6977 57.067 34.9152 58.0604 34.491 59.121L34.4892 59.1254L34.4871 59.1298C34.0906 59.9625 33.378 60.4144 32.7123 60.6381C32.3793 60.7501 32.0549 60.8061 31.7814 60.8245C31.6008 60.8366 31.4366 60.8326 31.3041 60.815C31.2437 61.2487 31.1867 61.626 31.1348 61.9262C31.0776 62.2567 31.0242 62.5084 30.9753 62.6355C30.8865 62.8663 30.7207 63.5224 30.5209 64.4024C30.3226 65.2765 30.0937 66.3577 29.8788 67.4277C29.6638 68.4977 29.463 69.5553 29.3207 70.3823C29.2496 70.796 29.1932 71.1508 29.157 71.4201C29.1389 71.5549 29.1261 71.6668 29.1189 71.7534C29.1113 71.8442 29.1112 71.8953 29.1137 71.9154C29.143 72.1503 29.2063 72.56 29.3486 72.9966C29.4915 73.4349 29.7102 73.8889 30.0436 74.2223C30.1562 74.3349 30.4079 74.4941 30.7607 74.6769C31.1076 74.8567 31.536 75.0513 31.9869 75.2372C32.8916 75.6103 33.8714 75.9422 34.4544 76.0515C35.0418 76.1616 36.0989 76.2548 37.095 76.2734C37.5924 76.2827 38.0706 76.2733 38.4645 76.2389C38.6614 76.2216 38.8349 76.1983 38.978 76.1686C39.1233 76.1385 39.2275 76.1036 39.2921 76.0677C39.2952 76.066 39.312 76.0541 39.3372 76.0129C39.3613 75.9735 39.387 75.9172 39.4133 75.8423C39.4659 75.6925 39.5144 75.4858 39.5588 75.2309C39.6473 74.7222 39.7159 74.0435 39.7726 73.2925C39.8292 72.5424 39.8738 71.7246 39.9152 70.9387C39.9197 70.8542 39.9241 70.7701 39.9285 70.6865C39.9648 69.9931 39.9995 69.3334 40.0385 68.7811L40.0397 68.7639L40.0448 68.7474C40.1745 68.3283 40.3292 67.8168 40.4967 67.2627C40.7461 66.4379 41.024 65.5187 41.2907 64.6693C41.5141 63.958 41.7308 63.2919 41.9182 62.7655C42.0118 62.5023 42.0987 62.2727 42.1758 62.089C42.2514 61.9089 42.3221 61.7623 42.3845 61.673C42.8279 61.0396 43.6127 60.6266 43.9497 60.4969L43.9583 60.4936L43.9671 60.4914C44.1657 60.4418 44.6312 60.3141 44.9205 60.1984L45.0316 60.4762C44.794 60.5713 44.4542 60.6711 44.2187 60.7349Z" fill="black"/>
<path d="M45.5746 56.6713C45.814 56.0129 45.6743 55.0003 45.5746 54.5764C45.3501 54.5764 43.8538 54.726 43.8538 54.726C43.8538 54.726 43.9785 56.1725 43.9286 56.8209L45.5746 56.6713Z" fill="#E95F80"/>
<path fill-rule="evenodd" clip-rule="evenodd" d="M43.8538 54.726L43.7047 54.7389L43.7061 54.7549C43.7069 54.7656 43.7082 54.7813 43.7099 54.8015C43.7132 54.8421 43.7178 54.9008 43.7233 54.9733C43.7341 55.1184 43.7481 55.3185 43.7605 55.5387C43.7855 55.9824 43.8035 56.4966 43.7794 56.8094L43.7658 56.986L45.6827 56.8117L45.7152 56.7224C45.8449 56.3657 45.869 55.9248 45.8512 55.5292C45.8333 55.1309 45.7721 54.7626 45.7202 54.5421L45.6931 54.4268H45.5746C45.4534 54.4268 45.0133 54.4653 44.6161 54.5022C44.4148 54.5209 44.2205 54.5397 44.0766 54.5537C44.0046 54.5607 43.9452 54.5666 43.9038 54.5707L43.839 54.5771C43.8389 54.5771 43.8389 54.5771 43.8538 54.726ZM44.0148 54.8605C44.0169 54.8875 44.0192 54.9178 44.0217 54.951C44.0327 55.0974 44.0468 55.2994 44.0593 55.5219C44.0802 55.8925 44.0972 56.3276 44.0869 56.6563L45.4631 56.5311C45.5482 56.2431 45.5678 55.8875 45.5523 55.5426C45.5383 55.2309 45.4961 54.9386 45.455 54.7315C45.2762 54.743 44.9562 54.7711 44.6439 54.8002C44.4431 54.8189 44.2493 54.8376 44.1056 54.8516C44.0725 54.8548 44.042 54.8578 44.0148 54.8605ZM43.8538 54.726L43.839 54.5771L43.692 54.5918L43.7047 54.7389L43.8538 54.726Z" fill="black"/>
<path d="M52.6822 52.1822C52.8318 53.3045 46.2479 56.6713 45.5746 56.6713C45.7242 56.1476 45.7541 55.0403 45.5746 54.5016C47.2954 54.2771 50.737 52.7808 52.6822 49.8629V52.1822Z" fill="#991635"/>
<path fill-rule="evenodd" clip-rule="evenodd" d="M52.8319 49.3687V52.1734C52.8431 52.2779 52.8158 52.3826 52.7701 52.4807C52.7226 52.5829 52.6506 52.6878 52.5621 52.7934C52.3853 53.0046 52.1284 53.2357 51.8215 53.4751C51.2067 53.9549 50.3698 54.485 49.5115 54.9774C48.6524 55.4703 47.7673 55.9282 47.0539 56.2631C46.6973 56.4305 46.382 56.568 46.1334 56.664C46.0092 56.712 45.8997 56.7503 45.8091 56.7768C45.7226 56.8021 45.6397 56.8209 45.5746 56.8209C45.5277 56.8209 45.4834 56.7989 45.4551 56.7614C45.4269 56.7239 45.4178 56.6753 45.4307 56.6302C45.5003 56.3866 45.5447 55.9938 45.5484 55.5907C45.5521 55.1861 45.5145 54.7944 45.4326 54.5489L45.3752 54.3767L45.5553 54.3532C46.3917 54.2441 47.6634 53.8222 48.969 53.0629C50.2732 52.3045 51.6008 51.2154 52.5577 49.7799L52.8319 49.3687ZM45.7635 54.6247C45.8263 54.9019 45.8508 55.2533 45.8477 55.5934C45.8448 55.9044 45.8188 56.219 45.7724 56.4751C45.8435 56.4526 45.9283 56.4224 46.0256 56.3848C46.2653 56.2923 46.5737 56.158 46.9267 55.9922C47.6324 55.6609 48.5102 55.2069 49.3626 54.7178C50.2158 54.2283 51.0388 53.7063 51.6374 53.2391C51.9373 53.0051 52.1755 52.789 52.3327 52.6013C52.4112 52.5075 52.466 52.4249 52.4988 52.3545C52.5319 52.2835 52.5382 52.2342 52.5339 52.202L52.5326 52.1922V50.3352C51.5742 51.6257 50.3333 52.6157 49.1195 53.3216C47.8704 54.048 46.641 54.4789 45.7635 54.6247Z" fill="black"/>
<path d="M36.0728 55.6238C37.4494 56.6413 41.8836 56.8458 43.9286 56.8209V54.726C40.457 54.9056 35.2498 53.1549 33.0801 52.257C33.3793 53.2297 35.175 54.2023 35.4742 54.5016C35.7136 54.741 35.973 55.3495 36.0728 55.6238Z" fill="#991635"/>
<path fill-rule="evenodd" clip-rule="evenodd" d="M32.8436 51.9973L33.1373 52.1188C34.2164 52.5653 36.0542 53.2252 38.0542 53.7508C40.057 54.2772 42.2086 54.6651 43.9209 54.5766L44.0782 54.5684V56.9687L43.9304 56.9705C42.9032 56.983 41.2769 56.938 39.7331 56.762C38.9613 56.6739 38.2069 56.5528 37.5568 56.3887C36.9106 56.2256 36.3521 56.0163 35.9839 55.7442L35.9476 55.7173L35.9322 55.675C35.8839 55.5423 35.7963 55.3268 35.6918 55.1161C35.5851 54.9007 35.4694 54.7083 35.3685 54.6074C35.3059 54.5448 35.1531 54.4378 34.931 54.2845C34.9238 54.2795 34.9165 54.2745 34.9092 54.2694C34.6986 54.1241 34.4425 53.9474 34.1861 53.7505C33.9209 53.5469 33.6517 53.319 33.4285 53.0776C33.2067 52.8377 33.0214 52.5751 32.9371 52.3011L32.8436 51.9973ZM33.3836 52.5412C33.4554 52.6511 33.5448 52.7625 33.6482 52.8744C33.8552 53.0983 34.1097 53.3146 34.3683 53.5131C34.6186 53.7053 34.8692 53.8783 35.0807 54.0242C35.0875 54.0289 35.0943 54.0336 35.101 54.0382L35.1037 54.0401C35.3107 54.183 35.4933 54.309 35.5801 54.3958C35.7185 54.5342 35.8523 54.7658 35.96 54.9831C36.0593 55.1835 36.1439 55.3871 36.1973 55.529C36.5191 55.7544 37.0169 55.9438 37.6301 56.0986C38.2625 56.2582 39.0026 56.3774 39.767 56.4646C41.2236 56.6307 42.7571 56.6792 43.779 56.6726V54.8823C42.0477 54.9428 39.9298 54.5532 37.9781 54.0403C36.1717 53.5655 34.4967 52.9821 33.3836 52.5412Z" fill="black"/>
<path d="M50.288 56.8209C49.9888 56.2822 49.889 55.125 49.9139 54.5764C50.3628 54.4018 51.5599 53.6038 52.6822 52.6311C52.6822 53.4691 53.0812 56.2722 53.2807 57.5691C52.0836 59.1402 50.6621 57.4942 50.288 56.8209Z" fill="#E95F80"/>
<path fill-rule="evenodd" clip-rule="evenodd" d="M52.8319 52.3035V52.6312C52.8319 53.0385 52.9301 53.9383 53.0551 54.9089C53.1796 55.8751 53.3291 56.8988 53.4287 57.5463L53.4384 57.6092L53.3998 57.6598C53.0839 58.0744 52.7405 58.2925 52.3877 58.3569C52.0367 58.421 51.7001 58.3286 51.4045 58.1682C50.8192 57.8508 50.3526 57.245 50.1573 56.8936C49.9935 56.5987 49.891 56.1515 49.8313 55.723C49.771 55.2903 49.7516 54.8546 49.7646 54.5696L49.769 54.4723L49.8598 54.4369C50.0662 54.3567 50.465 54.1228 50.9605 53.78C51.4519 53.44 52.0274 53.0007 52.5843 52.5181L52.8319 52.3035ZM50.0607 54.6764C50.056 54.9394 50.076 55.3104 50.1277 55.6818C50.1865 56.1038 50.2835 56.5044 50.4189 56.7483C50.5978 57.0702 51.029 57.6241 51.5472 57.9052C51.8033 58.0441 52.07 58.1107 52.3339 58.0625C52.5841 58.0169 52.8534 57.8642 53.1231 57.5279C53.0234 56.8764 52.8792 55.8851 52.7583 54.9472C52.6589 54.1758 52.5742 53.4325 52.5442 52.9454C52.0544 53.356 51.5614 53.7282 51.1308 54.0261C50.693 54.329 50.311 54.5613 50.0607 54.6764Z" fill="black"/>
<path d="M34.5016 57.4194C34.741 57.1202 34.7261 56.372 34.7261 55.9979L33.9031 55.3246L34.5016 57.4194Z" fill="#E95F80"/>
<path fill-rule="evenodd" clip-rule="evenodd" d="M33.6279 54.9061L34.8757 55.927V55.9979C34.8757 56.0175 34.8758 56.0383 34.8758 56.0601C34.8762 56.2434 34.8768 56.5008 34.8526 56.7511C34.839 56.8915 34.8174 57.0339 34.7821 57.1631C34.7472 57.2907 34.6964 57.4156 34.6185 57.5129L34.4374 57.7393L33.6279 54.9061ZM34.1783 55.7431L34.5235 56.9511C34.5368 56.8789 34.547 56.8018 34.5547 56.7224C34.577 56.4912 34.5769 56.2524 34.5766 56.0689L34.1783 55.7431Z" fill="black"/>
<path d="M30.8356 73.5051C30.3228 73.1633 29.3143 72.1335 28.9651 71.6347C28.8454 72.4128 29.5138 73.7046 29.7881 74.1785C30.3867 74.7022 31.9365 75.5124 33.3793 75.9741C35.2498 76.5726 39.2151 76.4978 39.4395 76.1985C39.6191 75.9591 39.7139 75.3506 39.7388 75.0763C37.1202 75.7496 35.549 75.3756 34.352 75.0763C33.2632 74.8041 31.5089 73.954 30.8356 73.5051Z" fill="#991635"/>
<path fill-rule="evenodd" clip-rule="evenodd" d="M28.874 71.2435L29.0878 71.5489C29.2549 71.7876 29.5871 72.1626 29.9452 72.5234C30.3041 72.8848 30.6756 73.2186 30.9186 73.3806C31.2458 73.5988 31.8447 73.9197 32.5005 74.221C33.1563 74.5223 33.8573 74.7984 34.3883 74.9311C35.5739 75.2275 37.1172 75.5959 39.7016 74.9314L39.9071 74.8785L39.8879 75.0898C39.8749 75.2325 39.8441 75.4599 39.7931 75.6837C39.7438 75.9003 39.67 76.1407 39.5593 76.2883C39.5192 76.3417 39.4572 76.3721 39.411 76.3907C39.3585 76.4119 39.2946 76.4298 39.2237 76.4455C39.0814 76.4769 38.8938 76.5028 38.6747 76.5229C38.2355 76.5633 37.6548 76.582 37.0245 76.5726C35.7682 76.5539 34.2909 76.4229 33.3338 76.1166C32.6038 75.883 31.8482 75.5618 31.1995 75.233C30.5534 74.9055 30.0031 74.5654 29.6896 74.2911L29.671 74.2748L29.6587 74.2534C29.5191 74.0124 29.2795 73.5638 29.0894 73.0749C28.9022 72.5934 28.7509 72.0433 28.8173 71.6119L28.874 71.2435ZM29.1175 72.0695C29.1543 72.3453 29.2482 72.6575 29.3684 72.9665C29.5456 73.4223 29.7689 73.8444 29.9052 74.0819C30.1941 74.3292 30.7092 74.649 31.3348 74.9661C31.9714 75.2887 32.7122 75.6035 33.425 75.8316C34.3383 76.1238 35.7789 76.2547 37.029 76.2734C37.6519 76.2827 38.2215 76.264 38.6473 76.2249C38.8608 76.2053 39.0344 76.1808 39.1592 76.1533C39.2219 76.1394 39.268 76.1257 39.2992 76.1131C39.3138 76.1072 39.3219 76.1029 39.3258 76.1006C39.3923 76.0064 39.4535 75.8272 39.5013 75.6173C39.5282 75.4992 39.5491 75.3795 39.5644 75.2739C37.0376 75.883 35.4918 75.5155 34.3157 75.2214C33.758 75.082 33.0374 74.797 32.3756 74.4929C31.7137 74.1889 31.0987 73.8604 30.7526 73.6296C30.4829 73.4498 30.0938 73.0978 29.7328 72.7342C29.5105 72.5101 29.2937 72.2766 29.1175 72.0695Z" fill="black"/>
<path d="M49.1658 74.9267C48.2816 75.2361 47.0211 75.5501 46.4724 75.6L46.7717 76.7223C46.7966 76.6973 47.4085 76.6721 49.4651 76.0489C51.9341 75.3007 53.9791 73.9042 54.9267 73.131V71.7843C53.2808 73.8792 50.6622 74.4029 49.1658 74.9267Z" fill="#991635"/>
<path fill-rule="evenodd" clip-rule="evenodd" d="M55.0764 71.3517V73.2021L55.0213 73.247C54.0641 74.028 52.0019 75.4366 49.5085 76.1921C48.4768 76.5048 47.8055 76.668 47.3875 76.7564C47.1783 76.8006 47.0331 76.8259 46.9386 76.8418C46.924 76.8442 46.9109 76.8464 46.8992 76.8483C46.8785 76.8518 46.862 76.8545 46.8487 76.8569L46.694 77.0116L46.2821 75.4671L46.4589 75.451C46.9899 75.4027 48.2371 75.0932 49.1164 74.7854C49.3592 74.7005 49.6281 74.6161 49.9153 74.5261C51.4313 74.0506 53.4544 73.4161 54.8091 71.6919L55.0764 71.3517ZM49.9837 74.8193C49.7036 74.9068 49.4446 74.9876 49.2153 75.0679C48.4087 75.3502 47.2858 75.6384 46.6614 75.728L46.8801 76.5481C46.8831 76.5476 46.8861 76.5471 46.8891 76.5466C46.9807 76.5313 47.1216 76.5067 47.3256 76.4636C47.7339 76.3773 48.3968 76.2163 49.4217 75.9057C51.8194 75.1791 53.8163 73.8331 54.7771 73.0597V72.1947C53.3687 73.7621 51.4042 74.3756 49.9837 74.8193Z" fill="black"/>
<path d="M33.9779 55.3994L34.2024 56.2972C34.4518 56.4801 34.2772 56.4468 34.5017 57.6439C34.842 59.4593 34.0528 59.8136 33.3794 60.3373C32.8407 60.7563 31.7584 60.8112 31.2845 60.7862L30.9853 62.2826L30.2371 65.5745L28.8904 71.7843C28.8904 71.7843 30.0875 74.777 30.1623 74.5526C30.4549 73.6746 30.2371 68.5672 30.2371 68.5672C30.4615 67.3701 31.1349 63.1804 31.2845 62.6566C31.4145 62.2017 31.4342 61.3099 31.9579 61.1603C32.7061 60.861 33.3046 60.861 33.9779 60.2625C34.6605 59.6558 35.2498 58.9906 35.4743 58.6165C35.6538 58.3173 36.1476 58.0429 36.2973 57.9432L35.8484 57.8683L35.0254 56.5216L33.9779 55.3994Z" fill="#160E1B" fill-opacity="0.4"/>
<path d="M45.3501 60.0381L44.0782 60.7114C44.6768 61.0705 45.1755 63.2801 45.3501 64.3774V70.3628L46.0983 68.3428C46.1731 67.5946 45.7841 62.5818 45.7242 61.9832C45.6644 61.3847 45.5995 60.3373 45.3501 60.0381Z" fill="#160E1B" fill-opacity="0.4"/>
<path d="M27.4687 78.069C27.0946 77.0215 28.6657 75.0015 29.5635 74.1037C29.6633 74.3032 29.5186 74.0588 29.9376 74.4778C30.4613 75.0015 33.5288 75.8993 33.8281 76.1237C34.1273 76.3482 38.0178 76.5726 38.6164 76.423C39.0952 76.3033 39.9631 76.2235 40.3372 76.1985C40.8609 76.4729 42.043 77.2011 42.5817 77.9193C43.255 78.8171 42.3658 80.8505 41.9083 81.1365C41.3098 81.5106 40.7113 81.735 39.8883 82.0343C38.8595 82.4084 37.7186 82.1839 35.3244 81.5106C34.2857 81.2184 31.3591 80.6876 29.4139 79.9394C28.4413 79.4157 27.8469 79.128 27.4687 78.069Z" fill="#3CD367"/>
<path fill-rule="evenodd" clip-rule="evenodd" d="M29.6046 73.851L29.6975 74.0367C29.7088 74.0593 29.7171 74.0766 29.7232 74.0892C29.7729 74.1204 29.8574 74.1859 30.0435 74.3719C30.094 74.4224 30.1846 74.4857 30.3159 74.559C30.4448 74.6309 30.6041 74.7077 30.7848 74.7874C31.1461 74.9467 31.5842 75.1137 32.0185 75.2724C32.2359 75.3519 32.4602 75.4321 32.6716 75.5077C32.8713 75.5791 33.0594 75.6464 33.2192 75.705C33.3886 75.7671 33.5374 75.8235 33.6539 75.8718C33.7639 75.9174 33.8628 75.9627 33.918 76.004C33.9171 76.0033 33.9172 76.0034 33.9187 76.0041C33.9227 76.006 33.9372 76.013 33.9689 76.0227C34.0072 76.0346 34.0592 76.0473 34.1247 76.0604C34.2555 76.0867 34.43 76.1127 34.6364 76.1377C35.0486 76.1874 35.5785 76.2316 36.1191 76.2643C36.6596 76.2969 37.2087 76.3178 37.659 76.3213C37.8843 76.323 38.0836 76.3204 38.2441 76.3128C38.4082 76.3051 38.5212 76.2926 38.5802 76.2778C39.0736 76.1545 39.9538 76.0741 40.3273 76.0492L40.3694 76.0464L40.4067 76.066C40.6743 76.2061 41.1066 76.4603 41.5409 76.7707C41.973 77.0796 42.4182 77.4518 42.7015 77.8295C42.8956 78.0883 42.9702 78.419 42.9746 78.7586C42.979 79.0993 42.9132 79.4621 42.8126 79.8C42.7119 80.1384 42.5747 80.4577 42.4319 80.7125C42.3605 80.84 42.2866 80.9533 42.2138 81.0456C42.1426 81.136 42.0661 81.2144 41.9877 81.2634C41.3739 81.647 40.761 81.8762 39.9395 82.1749C38.857 82.5685 37.6658 82.3245 35.284 81.6546C34.9749 81.5676 34.4989 81.4598 33.9276 81.3304C33.5454 81.2439 33.1206 81.1477 32.6746 81.0416C31.5692 80.7786 30.3429 80.457 29.3603 80.079L29.3514 80.0756L29.3431 80.0711C29.3071 80.0518 29.2715 80.0327 29.2363 80.0138C28.8019 79.7805 28.4291 79.5802 28.1216 79.3189C27.7823 79.0307 27.525 78.6712 27.3278 78.1193C27.2186 77.8133 27.2562 77.4536 27.3691 77.0894C27.4828 76.7225 27.6789 76.332 27.9116 75.952C28.3771 75.192 29.0022 74.4534 29.4578 73.9978L29.6046 73.851ZM27.6549 77.1781C27.5504 77.5153 27.5319 77.8009 27.6097 78.0186C27.7908 78.5257 28.0197 78.8396 28.3154 79.0909C28.5975 79.3307 28.9425 79.5161 29.387 79.755C29.4164 79.7708 29.4463 79.7868 29.4766 79.8031C30.4378 80.1719 31.6434 80.4886 32.7438 80.7504C33.1787 80.8539 33.5988 80.949 33.98 81.0354C34.5597 81.1668 35.0496 81.2778 35.365 81.3665C37.7715 82.0433 38.8622 82.2482 39.8372 81.8936C40.6617 81.5938 41.2458 81.3741 41.8291 81.0096C41.8651 80.9871 41.9165 80.9394 41.9788 80.8603C42.0396 80.7832 42.105 80.6837 42.1708 80.5663C42.3024 80.3314 42.4311 80.0326 42.5258 79.7147C42.6205 79.3962 42.6793 79.0645 42.6754 78.7625C42.6714 78.4594 42.6047 78.1992 42.4621 78.0091C42.2067 77.6686 41.7914 77.3176 41.3669 77.0142C40.9644 76.7265 40.5635 76.4886 40.305 76.3507C39.9116 76.3786 39.1004 76.4562 38.6528 76.5681C38.5621 76.5908 38.4226 76.604 38.2582 76.6118C38.0902 76.6197 37.885 76.6223 37.6567 76.6205C37.1999 76.617 36.6454 76.5958 36.1011 76.563C35.5569 76.5302 35.0206 76.4855 34.6005 76.4348C34.3907 76.4094 34.2075 76.3823 34.0659 76.3539C33.9952 76.3397 33.9323 76.3247 33.8805 76.3087C33.8333 76.2941 33.7792 76.274 33.7384 76.2434C33.7187 76.2287 33.6563 76.1968 33.5393 76.1483C33.4287 76.1024 33.2846 76.0478 33.1162 75.986C32.9478 75.9242 32.7654 75.859 32.5711 75.7896C32.3651 75.716 32.1457 75.6376 31.9157 75.5535C31.4802 75.3943 31.0346 75.2246 30.6641 75.0612C30.4788 74.9795 30.3102 74.8985 30.17 74.8203C30.0322 74.7434 29.9123 74.664 29.8319 74.5835C29.6256 74.3772 29.5682 74.3448 29.5575 74.3387L29.5573 74.3387L29.5536 74.3366C29.5523 74.3359 29.5502 74.3347 29.5481 74.3335C29.1204 74.7796 28.5778 75.4373 28.1668 76.1083C27.9413 76.4766 27.7586 76.8436 27.6549 77.1781Z" fill="black"/>
<path d="M35.9978 74.4778C35.7734 74.9267 35.7734 75.9741 36.5964 77.0964C36.9555 76.7971 39.2898 76.2734 40.2624 76.1986C40.3372 75.6499 40.2175 74.4628 40.0379 73.8044C39.8135 72.9814 36.2223 74.0289 35.9978 74.4778Z" fill="#196B31"/>
<path fill-rule="evenodd" clip-rule="evenodd" d="M36.1406 74.5332C36.1338 74.5408 36.1317 74.5447 36.1317 74.5447C36.1317 74.5447 36.1317 74.5447 36.1317 74.5447C35.9466 74.915 35.9178 75.8476 36.6366 76.8946C36.6744 76.8749 36.7153 76.8559 36.7579 76.8375C36.8638 76.7919 36.993 76.745 37.1377 76.698C37.4275 76.604 37.7875 76.5071 38.1648 76.4177C38.858 76.2535 39.6211 76.1119 40.1263 76.0606C40.1457 75.8029 40.1334 75.4391 40.0966 75.0569C40.0541 74.6142 39.9804 74.1619 39.8936 73.8438C39.882 73.8011 39.8468 73.7558 39.7524 73.7171C39.6561 73.6776 39.5171 73.6539 39.3393 73.6489C38.9856 73.6388 38.5226 73.7037 38.0508 73.8101C37.5807 73.9161 37.1114 74.0612 36.7478 74.2064C36.5656 74.2791 36.4134 74.3505 36.302 74.4155C36.2463 74.448 36.2036 74.4772 36.1734 74.5023C36.1584 74.5147 36.1478 74.5251 36.1406 74.5332ZM39.8659 73.4402C40.0117 73.5 40.1378 73.6019 40.1823 73.765C40.2751 74.1053 40.351 74.5757 40.3945 75.0283C40.4378 75.4787 40.4505 75.9267 40.4107 76.2188L40.3944 76.3385L40.2739 76.3477C39.799 76.3843 38.9811 76.5319 38.2338 76.7089C37.8611 76.7972 37.5095 76.892 37.2301 76.9827C37.0903 77.028 36.9706 77.0717 36.8763 77.1124C36.7787 77.1544 36.7196 77.1884 36.6922 77.2113L36.5699 77.3132L36.4757 77.1848C35.6309 76.0328 35.6069 74.925 35.864 74.4108C35.8916 74.3557 35.937 74.3095 35.9822 74.2721C36.0293 74.2329 36.087 74.1944 36.1514 74.1569C36.2802 74.0818 36.4471 74.0042 36.6368 73.9285C37.0166 73.7767 37.5012 73.6272 37.985 73.5181C38.4672 73.4094 38.958 73.3387 39.3478 73.3497C39.5418 73.3552 39.7219 73.3811 39.8659 73.4402Z" fill="black"/>
<path d="M28.1628 75.8571C28.1829 75.8111 28.2048 75.775 28.2251 75.7497C28.2058 75.7825 28.185 75.8184 28.1628 75.8571C28.0842 76.037 28.0344 76.368 28.2251 76.7971C28.5244 77.4705 29.0481 77.9942 29.0481 78.4431C29.0481 78.892 29.5636 79.1164 29.9377 79.715C30.237 80.1938 30.0873 80.1639 29.8629 80.0891C29.3392 79.7898 28.5843 79.6102 28.2251 79.1913C27.7762 78.6675 27.3273 78.069 27.4021 77.5453C27.4574 77.1587 27.899 76.3179 28.1628 75.8571Z" fill="#196B31"/>
<path fill-rule="evenodd" clip-rule="evenodd" d="M28.0291 75.7894C28.0526 75.7371 28.0797 75.6919 28.1083 75.6562L28.3541 75.8255C28.3364 75.8557 28.3172 75.8886 28.2969 75.924C28.2371 76.0665 28.1905 76.3507 28.3619 76.7363C28.4771 76.9955 28.6259 77.23 28.7694 77.4562C28.8055 77.513 28.8412 77.5693 28.876 77.6253C29.0408 77.8908 29.1977 78.1694 29.1977 78.4431C29.1977 78.6037 29.2864 78.7338 29.4617 78.9205C29.492 78.9527 29.5246 78.9864 29.5588 79.0217C29.7141 79.182 29.903 79.3771 30.0646 79.6356C30.1408 79.7577 30.1936 79.8551 30.2233 79.9319C30.2382 79.9701 30.25 80.01 30.2537 80.0495C30.2573 80.0885 30.2543 80.1418 30.222 80.1913C30.1875 80.2442 30.1364 80.2676 30.0946 80.2763C30.0558 80.2844 30.0184 80.2816 29.9902 80.2776C29.9339 80.2696 29.8701 80.2492 29.8156 80.231L29.8015 80.2263L29.7886 80.2189C29.6139 80.1191 29.4166 80.035 29.2086 79.9464C29.1145 79.9063 29.0182 79.8653 28.9208 79.8215C28.621 79.6864 28.3147 79.5256 28.1115 79.2886C27.886 79.0255 27.6536 78.7359 27.487 78.442C27.3218 78.1504 27.2097 77.8343 27.254 77.5241C27.2853 77.3051 27.4198 76.9788 27.5691 76.6647C27.72 76.3473 27.8963 76.0216 28.0291 75.7894ZM27.9757 76.5172C27.9292 76.6083 27.8831 76.7012 27.8394 76.7932C27.6881 77.1114 27.5742 77.3988 27.5503 77.5664C27.5198 77.7799 27.5947 78.025 27.7474 78.2945C27.8989 78.5617 28.1153 78.8332 28.3387 79.0938C28.4947 79.2758 28.7454 79.4142 29.0437 79.5486C29.128 79.5865 29.2167 79.6244 29.3069 79.6628C29.5065 79.7479 29.7132 79.836 29.8937 79.9348C29.8725 79.8958 29.8452 79.8493 29.8108 79.7942C29.6676 79.5652 29.5048 79.3967 29.3507 79.2373C29.3144 79.1997 29.2785 79.1626 29.2435 79.1253C29.0676 78.9379 28.8985 78.7313 28.8985 78.4431C28.8985 78.2678 28.7936 78.0601 28.6217 77.7831C28.5901 77.7322 28.5566 77.6794 28.5219 77.6249C28.3774 77.3974 28.2135 77.1394 28.0884 76.8578C28.0351 76.7379 27.9987 76.6239 27.9757 76.5172Z" fill="black"/>
<path d="M36.7461 80.7624C35.7286 80.8821 31.06 78.7174 28.8155 77.7697C28.8155 77.8695 28.7856 78.458 28.9651 78.8172C29.1896 79.2661 29.4888 79.4905 29.3392 79.8646C30.0874 80.2387 34.2023 81.2861 36.5965 81.8847C38.9906 82.4832 39.3647 82.1091 39.8136 82.0343C40.2625 81.9595 41.5344 81.3609 41.8337 81.2113C42.0731 81.0916 42.532 79.8646 42.7315 79.2661C41.9085 80.9869 38.018 80.6128 36.7461 80.7624Z" fill="#8DDAA3"/>
<path fill-rule="evenodd" clip-rule="evenodd" d="M28.6658 77.5441L28.8736 77.6319C29.2995 77.8116 29.8092 78.0338 30.3636 78.2753C31.2791 78.6742 32.3162 79.1261 33.2976 79.5278C34.0839 79.8497 34.8291 80.1371 35.4397 80.3363C35.7451 80.4359 36.0144 80.5127 36.2368 80.5608C36.4632 80.6097 36.6272 80.6257 36.7286 80.6138C37.0054 80.5812 37.4006 80.5728 37.8494 80.5633C37.9308 80.5616 38.0141 80.5598 38.0987 80.5578C38.6546 80.545 39.2801 80.524 39.8902 80.4547C40.5014 80.3853 41.0886 80.2681 41.5702 80.0667C42.0518 79.8653 42.4125 79.5862 42.5965 79.2015L42.8734 79.3134C42.7728 79.6152 42.6068 80.0756 42.4351 80.4771C42.3494 80.6774 42.2609 80.8665 42.1771 81.0146C42.1354 81.0886 42.093 81.1555 42.051 81.2096C42.0118 81.2601 41.9616 81.3146 41.9006 81.3451C41.7484 81.4212 41.3531 81.6094 40.939 81.7882C40.732 81.8776 40.5188 81.9653 40.3283 82.0356C40.1405 82.1048 39.9654 82.1607 39.8382 82.1819C39.7701 82.1932 39.7083 82.2111 39.631 82.2335C39.5914 82.245 39.5476 82.2576 39.4968 82.2712C39.354 82.3094 39.1804 82.3465 38.9438 82.3613C38.4734 82.3907 37.7646 82.3309 36.5602 82.0298C35.3629 81.7305 33.7345 81.3187 32.3116 80.9349C31.6002 80.743 30.9392 80.5579 30.4087 80.3971C29.883 80.2377 29.4727 80.0987 29.2723 79.9984L29.1491 79.9368L29.2002 79.809C29.253 79.6771 29.2323 79.5751 29.1602 79.4389C29.1273 79.3768 29.0865 79.313 29.0383 79.2375C29.0301 79.2247 29.0217 79.2115 29.013 79.1979C28.9552 79.107 28.891 79.0035 28.8313 78.8841C28.728 78.6775 28.689 78.4165 28.6737 78.2071C28.6608 78.0314 28.6639 77.8756 28.6653 77.8032C28.6656 77.7883 28.6658 77.777 28.6658 77.7697V77.5441ZM28.9638 77.9953C28.9648 78.0523 28.9671 78.1166 28.9722 78.1852C28.9868 78.3848 29.0226 78.5976 29.0989 78.7502C29.1515 78.8553 29.2088 78.9481 29.2655 79.0372C29.2734 79.0497 29.2814 79.0622 29.2894 79.0747C29.3372 79.1494 29.3855 79.225 29.4247 79.2989C29.5018 79.4447 29.5519 79.6005 29.5187 79.7814C29.7216 79.8656 30.0591 79.9784 30.4955 80.1107C31.0217 80.2702 31.6794 80.4544 32.3895 80.646C33.8097 81.029 35.4358 81.4402 36.6327 81.7395C37.8224 82.0369 38.4978 82.0893 38.9251 82.0626C39.1375 82.0494 39.2912 82.0164 39.4196 81.9821C39.4553 81.9725 39.4916 81.9621 39.528 81.9516C39.6151 81.9264 39.7034 81.9009 39.789 81.8867C39.8862 81.8705 40.0384 81.8235 40.2247 81.7548C40.4083 81.6871 40.616 81.6017 40.8204 81.5135C41.2294 81.3369 41.6196 81.151 41.7667 81.0775C41.7666 81.0775 41.7667 81.0775 41.767 81.0772C41.7694 81.0754 41.7857 81.0634 41.8146 81.0261C41.8443 80.9879 41.8786 80.9347 41.9166 80.8674C41.9925 80.7331 42.076 80.5556 42.1599 80.3594C42.2105 80.2411 42.2607 80.1173 42.3088 79.994C42.1242 80.1329 41.9131 80.2477 41.6856 80.3428C41.1665 80.5599 40.5473 80.6812 39.924 80.7521C39.2996 80.823 38.6625 80.8442 38.1056 80.857C38.0189 80.859 37.9343 80.8608 37.8522 80.8626C37.4019 80.8722 37.0248 80.8803 36.7636 80.911C36.6105 80.929 36.4061 80.9035 36.1736 80.8533C35.9373 80.8022 35.6573 80.7221 35.3469 80.6208C34.7258 80.4182 33.9727 80.1276 33.1842 79.8048C32.2016 79.4026 31.1553 78.9467 30.2364 78.5463C29.7713 78.3437 29.3388 78.1553 28.9638 77.9953Z" fill="black"/>
<path d="M38.841 78.9668C37.7636 79.2062 37.4444 80.2137 37.4194 80.6876C38.2674 80.7375 39.7714 80.6646 40.7114 80.4631C41.7588 80.2387 42.3324 79.8646 42.6566 79.5653C42.7564 79.3658 42.896 78.8471 42.6566 78.3682C42.3574 77.7697 40.1877 78.6675 38.841 78.9668Z" fill="#F7F3F8"/>
<path fill-rule="evenodd" clip-rule="evenodd" d="M40.0055 78.8064C39.6087 78.9231 39.2158 79.0368 38.8734 79.1129C37.992 79.3087 37.6606 80.0711 37.5851 80.5457C38.4418 80.5783 39.8111 80.503 40.6801 80.3168C41.6802 80.1025 42.2271 79.7514 42.5341 79.4746C42.6201 79.2839 42.7248 78.8391 42.5228 78.4352C42.507 78.4035 42.4763 78.3737 42.412 78.3509C42.345 78.3271 42.2505 78.3146 42.1262 78.3168C41.8777 78.3211 41.5502 78.3829 41.1779 78.476C40.8424 78.5599 40.4798 78.6667 40.1181 78.7732C40.0805 78.7843 40.043 78.7954 40.0055 78.8064ZM42.512 78.0688C42.6289 78.1103 42.7315 78.1833 42.7905 78.3013C43.0584 78.8372 42.9026 79.4081 42.7905 79.6322L42.7782 79.6567L42.7581 79.6753C42.4126 79.9942 41.8142 80.3798 40.7428 80.6094C39.7869 80.8143 38.269 80.8874 37.4107 80.837L37.2622 80.8282L37.27 80.6797C37.2966 80.1753 37.6357 79.0813 38.8085 78.8207C39.1395 78.7472 39.5228 78.6364 39.921 78.5193C39.9586 78.5082 39.9963 78.4971 40.0341 78.486C40.3947 78.3798 40.7634 78.2712 41.1053 78.1857C41.4812 78.0917 41.8364 78.0226 42.121 78.0176C42.2632 78.0151 42.3978 78.0283 42.512 78.0688Z" fill="black"/>
<path d="M40.412 76.2734L36.9705 77.246C37.2054 77.246 37.5201 77.645 37.569 77.7697L41.0854 76.7223L40.412 76.2734Z" fill="#554B58"/>
<path fill-rule="evenodd" clip-rule="evenodd" d="M40.4377 76.1106L41.4338 76.7746L37.48 77.9524L37.4297 77.8244C37.4247 77.8114 37.405 77.7755 37.367 77.7234C37.3311 77.6741 37.2846 77.6184 37.2332 77.5663C37.1812 77.5139 37.1275 77.4686 37.0772 77.4374C37.0248 77.4048 36.9893 77.3956 36.9705 77.3956L36.9298 77.102L40.4377 76.1106ZM37.3737 77.2876C37.3989 77.3098 37.423 77.3328 37.4459 77.3558C37.5085 77.4192 37.5646 77.4865 37.6088 77.5471C37.6197 77.5621 37.6303 77.5772 37.6404 77.5923L40.7371 76.6699L40.3864 76.4361L37.3737 77.2876Z" fill="black"/>
<path d="M41.4595 76.9467L37.7186 78.0615C37.958 78.0615 38.1925 78.5054 38.2423 78.6675L40.1128 78.0615L42.058 77.3956L41.4595 76.9467Z" fill="#554B58"/>
<path fill-rule="evenodd" clip-rule="evenodd" d="M41.489 76.7818L42.3741 77.4456L40.1601 78.2035L38.144 78.8567L38.0993 78.7115C38.0797 78.6476 38.0165 78.5107 37.9303 78.3913C37.8876 78.3323 37.8437 78.2837 37.8022 78.2512C37.7596 78.2179 37.7321 78.2111 37.7186 78.2111L37.6759 77.9181L41.489 76.7818ZM38.0857 78.1083C38.1173 78.1428 38.1465 78.1795 38.1729 78.2161C38.2357 78.3031 38.2895 78.3986 38.3288 78.4822L40.0655 77.9195L41.742 77.3456L41.43 77.1116L38.0857 78.1083Z" fill="black"/>
<path d="M29.2643 73.2807L30.3866 74.8519C30.636 75.0015 31.5387 75.196 31.6585 75.3756C31.7782 75.5551 30.8854 75.7995 30.611 75.8245C30.3616 75.7995 29.803 75.7796 29.5636 75.8993C29.2643 76.0489 29.2643 76.1986 29.2643 77.0964C29.2643 77.8146 29.0149 77.7947 28.8902 77.6949C28.8154 77.5453 28.6209 77.2011 28.4413 77.0216C28.2618 76.842 28.0672 76.2734 28.1421 75.8993C28.1421 75.8993 28.6994 75.2111 28.8902 74.7022C29.1147 74.1037 29.2643 73.2807 29.2643 73.2807Z" fill="#F7F3F8"/>
<path fill-rule="evenodd" clip-rule="evenodd" d="M29.1805 72.9058L30.4888 74.7373C30.5394 74.7631 30.6189 74.7942 30.7227 74.8301C30.8 74.8569 30.8835 74.884 30.9702 74.9121C31.0187 74.9278 31.0682 74.9439 31.1182 74.9604C31.2543 75.0054 31.3919 75.053 31.5041 75.1018C31.5601 75.1262 31.6135 75.1524 31.6588 75.1806C31.7012 75.207 31.7502 75.2433 31.7831 75.2926C31.8054 75.326 31.8193 75.3662 31.8192 75.4103C31.819 75.4532 31.8058 75.4901 31.7895 75.5189C31.7591 75.5728 31.7104 75.6128 31.6683 75.6415C31.5809 75.7012 31.4572 75.7545 31.3329 75.7989C31.0829 75.8883 30.7783 75.9595 30.6247 75.9735L30.6104 75.9748L30.5962 75.9734C30.477 75.9614 30.2818 75.9506 30.0888 75.9572C29.8879 75.964 29.7182 75.9893 29.6306 76.0331C29.5635 76.0667 29.5276 76.0933 29.5043 76.1206C29.4824 76.1461 29.4629 76.1823 29.4479 76.2497C29.415 76.3976 29.414 76.6377 29.414 77.0964C29.414 77.2834 29.3979 77.4305 29.3683 77.5445C29.3391 77.6572 29.2936 77.7492 29.2259 77.8121C29.1535 77.8793 29.0667 77.9025 28.9844 77.8931C28.9079 77.8844 28.8431 77.8488 28.7968 77.8117L28.7712 77.7912L28.7565 77.7618C28.6824 77.6136 28.4968 77.2885 28.3356 77.1273C28.2193 77.011 28.1169 76.7951 28.0528 76.5753C27.9877 76.3524 27.9514 76.0902 27.9954 75.8699L28.0027 75.8338L28.0259 75.8051L28.0261 75.8048L28.0272 75.8035L28.0316 75.798C28.0355 75.7931 28.0414 75.7857 28.0489 75.7761C28.0641 75.7569 28.0861 75.7286 28.1132 75.6931C28.1674 75.622 28.2417 75.5219 28.3217 75.4064C28.4838 75.1723 28.6617 74.8857 28.7502 74.6497C28.8591 74.3594 28.9509 74.0114 29.0158 73.733C29.0482 73.5944 29.0736 73.4743 29.0909 73.3889C29.0995 73.3462 29.1061 73.3123 29.1106 73.2891C29.1128 73.2775 29.1145 73.2686 29.1156 73.2627L29.1168 73.256L29.1172 73.254L29.1805 72.9058ZM29.3422 73.647C29.3316 73.6949 29.32 73.7466 29.3073 73.801C29.2413 74.0837 29.146 74.4464 29.0304 74.7547C28.9281 75.0276 28.7319 75.3396 28.5677 75.5768C28.4845 75.6969 28.4075 75.8007 28.3512 75.8745C28.3231 75.9114 28.3001 75.941 28.284 75.9613C28.2837 75.9617 28.2834 75.9621 28.2831 75.9625C28.2617 76.1123 28.2859 76.3059 28.34 76.4914C28.3993 76.6944 28.484 76.8525 28.5472 76.9157C28.7308 77.0993 28.9191 77.425 29.0057 77.5918C29.0114 77.5943 29.0158 77.5955 29.0184 77.5958C29.0184 77.5958 29.0183 77.5958 29.0184 77.5958C29.0192 77.5953 29.0206 77.5943 29.0223 77.5927C29.0326 77.5832 29.0573 77.5518 29.0787 77.4693C29.0997 77.3882 29.1148 77.2684 29.1148 77.0964L29.1148 77.0671C29.1148 76.6446 29.1147 76.3693 29.1557 76.1848C29.1782 76.0838 29.2148 75.9985 29.2771 75.9258C29.3379 75.8549 29.4142 75.8067 29.4968 75.7654C29.6485 75.6896 29.8779 75.6649 30.0785 75.6581C30.2792 75.6512 30.48 75.6617 30.6109 75.6741C30.7378 75.66 31.0055 75.5981 31.2322 75.5171C31.3292 75.4824 31.4101 75.4472 31.4663 75.415C31.4435 75.4029 31.4162 75.39 31.3847 75.3762C31.2862 75.3334 31.16 75.2894 31.0243 75.2446C30.9779 75.2292 30.93 75.2137 30.8821 75.1982C30.7933 75.1694 30.7045 75.1405 30.6248 75.113C30.5047 75.0714 30.3872 75.0267 30.3097 74.9802L30.283 74.9641L29.3422 73.647Z" fill="black"/>
<path d="M30.3866 74.8519L29.3392 73.4303L29.1147 74.0289L28.5162 75.4504L27.768 76.3482L27.3939 77.7697L27.768 78.892L28.9651 79.7898L30.3866 80.1639C30.1372 79.9644 29.6983 79.4606 29.9377 79.0416C30.1771 78.6226 30.7358 78.6176 30.9851 78.6675C31.0849 78.4181 31.2545 77.7398 31.1348 77.0216C31.0151 76.3033 31.434 75.5751 31.6585 75.3008L30.3866 74.8519Z" fill="#160E1B" fill-opacity="0.4"/>
<path d="M37.1201 81.9595C37.3196 81.9096 37.6738 81.6453 37.7935 81.2861C37.9132 80.927 38.2424 80.6128 38.5416 80.3883C39.1402 80.0142 40.0541 79.9541 40.7113 79.7898C41.3099 79.6402 41.5343 79.6402 42.2077 79.3409C42.7464 79.1015 42.7583 79.0057 42.7416 78.977L42.7314 78.9668C42.7314 78.9668 42.7374 78.9698 42.7416 78.977L42.881 79.1164L42.4321 80.3883L41.7588 81.3609L39.5891 82.1091C38.9656 82.2588 37.5989 82.4383 37.1201 81.9595Z" fill="#160E1B" fill-opacity="0.4"/>
<path d="M46.9429 80.8908C46.1378 80.1234 46.7717 77.7697 46.7717 76.5729C46.9505 76.7062 47.6871 76.7637 48.2681 76.6475C49.3903 76.423 52.5629 74.8496 52.9067 74.7022C53.4304 74.4778 55.6926 74.8107 56.1599 74.4079C56.5338 74.0857 57.2731 73.6242 57.596 73.4337C58.1872 73.4432 59.5705 73.5621 60.3746 73.9614C61.3797 74.4606 61.4998 76.6766 61.2198 77.1378C60.8534 77.741 60.4197 78.2107 59.8191 78.848C59.0685 79.6447 57.9484 79.9573 55.5072 80.4324C54.448 80.6385 51.5954 81.4803 49.5214 81.6867C48.4172 81.6563 47.7569 81.6666 46.9429 80.8908Z" fill="#3CD367"/>
<path fill-rule="evenodd" clip-rule="evenodd" d="M46.6221 76.2747L46.8612 76.4529C46.8786 76.4659 46.9311 76.4893 47.0309 76.5109C47.1247 76.5312 47.2438 76.5465 47.3779 76.5544C47.6466 76.5703 47.9629 76.5559 48.2387 76.5008C48.7797 76.3926 49.8365 75.9516 50.8179 75.5095C51.3048 75.2902 51.7678 75.0731 52.1308 74.9015C52.2244 74.8572 52.3118 74.8158 52.3914 74.778C52.618 74.6706 52.7817 74.593 52.8478 74.5647C52.9335 74.528 53.0433 74.5067 53.1604 74.493C53.2799 74.4791 53.4183 74.472 53.5669 74.4686C53.7795 74.4638 54.0208 74.4666 54.2663 74.4694C54.3626 74.4705 54.4595 74.4717 54.5555 74.4723C54.9002 74.4747 55.2359 74.4715 55.5131 74.4434C55.6515 74.4294 55.7711 74.4096 55.8674 74.3828C55.9659 74.3555 56.028 74.3241 56.0623 74.2946C56.4475 73.9626 57.1976 73.495 57.52 73.3048L57.5563 73.2834L57.5984 73.2841C57.9005 73.2889 58.401 73.3216 58.9284 73.4035C59.4533 73.4851 60.0183 73.6174 60.4412 73.8274C60.7309 73.9713 60.9462 74.2331 61.1029 74.5345C61.26 74.8368 61.3643 75.1905 61.4264 75.5375C61.4886 75.885 61.5096 76.2319 61.4967 76.5238C61.4902 76.6697 61.4752 76.8041 61.4517 76.9193C61.4287 77.0321 61.3956 77.1365 61.3477 77.2155C60.9719 77.8341 60.5275 78.3144 59.9281 78.9506C59.1382 79.789 57.9645 80.1066 55.5358 80.5793C55.2206 80.6406 54.747 80.7584 54.1785 80.8997C53.7982 80.9942 53.3755 81.0993 52.9294 81.2051C51.8238 81.4673 50.5839 81.7314 49.5363 81.8356L49.5268 81.8366L49.5173 81.8363C49.4765 81.8352 49.4361 81.8341 49.3962 81.8331C48.9033 81.82 48.4802 81.8088 48.0881 81.7137C47.6554 81.6088 47.2639 81.4035 46.8397 80.9991C46.6039 80.7744 46.4846 80.4452 46.4286 80.0836C46.3723 79.72 46.3769 79.3035 46.4061 78.8825C46.4313 78.5189 46.4755 78.1452 46.5171 77.7933C46.5237 77.7373 46.5302 77.6819 46.5366 77.6272C46.5837 77.2248 46.6221 76.862 46.6221 76.5729L46.6221 76.2747ZM46.7244 80.0378C46.7759 80.3707 46.8793 80.6235 47.0461 80.7824C47.4359 81.1539 47.7815 81.3314 48.1586 81.4229C48.5184 81.5101 48.9099 81.5206 49.4144 81.5342C49.4478 81.535 49.4817 81.536 49.516 81.5369C50.5404 81.4341 51.7597 81.1749 52.8603 80.9139C53.2953 80.8107 53.7133 80.7068 54.0926 80.6126C54.6695 80.4692 55.157 80.3481 55.4786 80.2855C57.9324 79.808 58.9988 79.5005 59.7102 78.7454C60.3118 78.1069 60.7348 77.648 61.0919 77.0601C61.1139 77.0238 61.1384 76.9581 61.1585 76.8595C61.1781 76.7633 61.1918 76.645 61.1977 76.5105C61.2096 76.2415 61.1903 75.9168 61.1318 75.5902C61.0733 75.2632 60.9766 74.9405 60.8373 74.6725C60.6975 74.4035 60.5209 74.2012 60.308 74.0955C59.9268 73.9061 59.3981 73.7794 58.8825 73.6993C58.3936 73.6233 57.9286 73.591 57.6357 73.5841C57.2968 73.7859 56.6071 74.2201 56.2576 74.5213C56.175 74.5925 56.0642 74.6388 55.9475 74.6712C55.8286 74.7042 55.6907 74.7262 55.5432 74.7412C55.2484 74.771 54.8982 74.774 54.5534 74.7716C54.4538 74.7709 54.3548 74.7697 54.2574 74.7686C54.0141 74.7658 53.7808 74.7631 53.5737 74.7678C53.4292 74.7711 53.3013 74.7779 53.1951 74.7903C53.0863 74.803 53.0109 74.8204 52.9657 74.8398C52.9052 74.8657 52.7508 74.9389 52.5285 75.0443C52.4472 75.0828 52.3568 75.1257 52.2587 75.1721C51.895 75.3439 51.4302 75.5619 50.9408 75.7824C49.9693 76.22 48.8787 76.6779 48.2974 76.7942C47.9922 76.8553 47.6497 76.8703 47.3603 76.8531C47.2153 76.8446 47.0803 76.8278 46.9677 76.8034C46.9503 76.7996 46.9329 76.7956 46.9156 76.7912C46.9028 77.0538 46.8701 77.352 46.8339 77.6619C46.8274 77.7173 46.8208 77.7732 46.8142 77.8293C46.7726 78.1817 46.7294 78.5474 46.7047 78.9032C46.676 79.3162 46.6731 79.7068 46.7244 80.0378Z" fill="black"/>
<path d="M52.9463 73.8479C52.9476 74.3498 53.4186 75.2853 54.6583 75.9177C54.8445 75.4889 56.694 73.9715 57.5291 73.4673C57.3493 72.9436 56.7085 71.9371 56.2521 71.4298C55.6816 70.7956 52.9449 73.346 52.9463 73.8479Z" fill="#196B31"/>
<path fill-rule="evenodd" clip-rule="evenodd" d="M53.0987 73.8332C53.0961 73.8431 53.096 73.8475 53.0959 73.8475C53.0959 73.8475 53.0959 73.8475 53.0959 73.8475C53.0971 74.2615 53.4907 75.1074 54.6036 75.7193C54.6284 75.6848 54.6564 75.6494 54.6863 75.6138C54.7604 75.5255 54.8547 75.4255 54.9628 75.3185C55.1793 75.1042 55.4573 74.8557 55.7542 74.6062C56.2994 74.1479 56.9174 73.6782 57.3456 73.4053C57.2471 73.1664 57.0724 72.847 56.8678 72.5222C56.6307 72.1458 56.3615 71.775 56.1409 71.5298C56.1114 71.497 56.0595 71.4723 55.9578 71.4802C55.8541 71.4882 55.7192 71.5296 55.5582 71.605C55.2378 71.7551 54.8533 72.0212 54.4798 72.3284C54.1075 72.6345 53.7536 72.9751 53.4941 73.2683C53.3641 73.4152 53.2603 73.5474 53.19 73.6555C53.1548 73.7096 53.1298 73.7549 53.1141 73.7909C53.1063 73.8087 53.1015 73.8227 53.0987 73.8332ZM55.9347 71.1818C56.0918 71.1696 56.2503 71.204 56.3634 71.3297C56.5993 71.5919 56.8786 71.978 57.121 72.3626C57.3622 72.7455 57.575 73.1399 57.6707 73.4187L57.7099 73.533L57.6065 73.5954C57.1988 73.8415 56.5345 74.3412 55.9467 74.8353C55.6535 75.0818 55.3821 75.3246 55.1733 75.5312C55.0689 75.6346 54.9816 75.7274 54.9156 75.8061C54.8473 75.8876 54.8099 75.9445 54.7956 75.9773L54.7322 76.1233L54.5904 76.051C53.3178 75.4019 52.7983 74.4232 52.7967 73.8483C52.7965 73.7866 52.8163 73.725 52.8398 73.6712C52.8643 73.615 52.8985 73.5547 52.9391 73.4923C53.0205 73.3673 53.1347 73.2229 53.27 73.07C53.5411 72.7636 53.9067 72.4122 54.2897 72.0972C54.6715 71.7833 55.0781 71.4994 55.4313 71.334C55.607 71.2516 55.7795 71.1938 55.9347 71.1818Z" fill="black"/>
<path d="M46.5682 78.603C46.5655 78.5529 46.5688 78.5108 46.5756 78.479C46.5731 78.517 46.5706 78.5585 46.5682 78.603C46.5789 78.799 46.6833 79.1171 47.0466 79.4146C47.6166 79.8814 48.3199 80.1137 48.5218 80.5147C48.7236 80.9157 49.285 80.8843 49.8883 81.2507C50.3709 81.5439 50.2238 81.5844 49.9896 81.6185C49.3873 81.5867 48.6323 81.7658 48.1231 81.553C47.4866 81.2871 46.8165 80.9543 46.6479 80.4529C46.5234 80.0828 46.5397 79.1332 46.5682 78.603Z" fill="#196B31"/>
<path fill-rule="evenodd" clip-rule="evenodd" d="M46.4183 78.6026C46.4158 78.5454 46.4196 78.4928 46.4291 78.448L46.7248 78.4888C46.7225 78.5237 46.7202 78.5617 46.718 78.6024C46.7287 78.7566 46.8148 79.0314 47.1413 79.2988C47.3607 79.4785 47.5991 79.6211 47.829 79.7586C47.8868 79.7931 47.944 79.8273 48.0002 79.8617C48.2668 80.0248 48.5323 80.203 48.6553 80.4474C48.7276 80.5909 48.8652 80.6672 49.1058 80.7551C49.1473 80.7703 49.1916 80.7857 49.238 80.8019C49.4488 80.8753 49.7053 80.9646 49.9659 81.1229C50.0888 81.1975 50.1798 81.2609 50.2409 81.3161C50.2713 81.3435 50.2998 81.3739 50.3209 81.4075C50.3417 81.4407 50.3629 81.4897 50.3564 81.5484C50.3493 81.6112 50.3142 81.655 50.2807 81.6816C50.2497 81.7062 50.2151 81.7206 50.1881 81.7297C50.1342 81.7478 50.068 81.7583 50.0111 81.7666L49.9965 81.7687L49.9817 81.7679C49.7808 81.7573 49.5666 81.771 49.3411 81.7853C49.2389 81.7918 49.1345 81.7985 49.0278 81.8031C48.6993 81.8174 48.3534 81.8114 48.0653 81.6911C47.7456 81.5575 47.4077 81.4033 47.1269 81.2157C46.8481 81.0295 46.6059 80.7977 46.506 80.5006C46.4354 80.291 46.4089 79.939 46.401 79.5914C46.393 79.2399 46.4041 78.8698 46.4183 78.6026ZM46.6978 79.2767C46.6972 79.379 46.6979 79.4827 46.7002 79.5846C46.7082 79.9368 46.7356 80.2447 46.7896 80.4052C46.8584 80.6096 47.0355 80.7948 47.2931 80.9668C47.5486 81.1375 47.8639 81.2826 48.1807 81.415C48.4018 81.5074 48.688 81.5183 49.0149 81.5041C49.1072 81.5001 49.2035 81.494 49.3013 81.4878C49.5179 81.4741 49.7421 81.4598 49.9478 81.4669C49.9113 81.4416 49.866 81.4124 49.8105 81.3786C49.5796 81.2384 49.3585 81.1612 49.1491 81.088C49.0997 81.0708 49.051 81.0538 49.003 81.0362C48.7616 80.948 48.5176 80.8394 48.388 80.582C48.3092 80.4255 48.1221 80.2871 47.8441 80.117C47.793 80.0857 47.7393 80.0537 47.6838 80.0205C47.4524 79.8823 47.19 79.7255 46.9517 79.5303C46.8501 79.4471 46.7664 79.3617 46.6978 79.2767Z" fill="black"/>
<path d="M56.4405 79.1249C55.5855 79.6893 50.4421 79.8551 48.0112 80.0179C48.056 80.107 48.294 80.6461 48.6158 80.8862C49.0182 81.1862 49.3864 81.2521 49.421 81.6535C50.2574 81.6512 54.4039 80.7365 56.8115 80.1946C59.2191 79.6526 59.385 79.1503 59.7523 78.8816C60.1197 78.6129 60.9866 77.5064 61.1866 77.2382C61.3466 77.0236 61.2048 75.7213 61.1138 75.097C61.1525 77.0041 57.5093 78.4193 56.4405 79.1249Z" fill="#8DDAA3"/>
<path fill-rule="evenodd" clip-rule="evenodd" d="M47.7761 79.8837L48.0012 79.8686C48.4624 79.8377 49.0176 79.8069 49.6214 79.7734C50.6184 79.718 51.7479 79.6553 52.8052 79.5728C53.6523 79.5068 54.4471 79.4284 55.0821 79.3317C55.3997 79.2834 55.6747 79.2309 55.895 79.1738C56.1192 79.1157 56.2729 79.0562 56.3581 79C56.5907 78.8464 56.9399 78.6612 57.3364 78.451C57.4084 78.4128 57.482 78.3738 57.5567 78.334C58.0475 78.0725 58.5968 77.7726 59.1105 77.4363C59.6252 77.0995 60.097 76.7308 60.4366 76.3343C60.7762 75.9378 60.9729 75.5264 60.9642 75.1L61.2619 75.0754C61.3077 75.3902 61.3665 75.8762 61.3937 76.312C61.4072 76.5294 61.4131 76.7381 61.405 76.9081C61.4009 76.9929 61.3932 77.0718 61.38 77.139C61.3677 77.2017 61.3473 77.273 61.3065 77.3277C61.2048 77.464 60.9364 77.8099 60.647 78.1558C60.5022 78.3288 60.3512 78.5029 60.2126 78.6513C60.076 78.7976 59.9448 78.9262 59.8407 79.0024C59.7849 79.0432 59.7378 79.0869 59.6788 79.1416C59.6486 79.1697 59.6152 79.2007 59.5759 79.2357C59.4655 79.334 59.3271 79.4453 59.1225 79.5648C58.7155 79.8026 58.0556 80.0679 56.8444 80.3406C55.6404 80.6116 54.0008 80.976 52.5572 81.273C51.8355 81.4215 51.1619 81.5533 50.6157 81.6482C50.0744 81.7423 49.6455 81.8025 49.4214 81.8032L49.2837 81.8035L49.2719 81.6664C49.2597 81.5248 49.1953 81.4431 49.0697 81.3538C49.0124 81.3131 48.9473 81.2745 48.8703 81.2287C48.8572 81.2209 48.8437 81.213 48.8299 81.2047C48.7373 81.1495 48.6334 81.0859 48.5264 81.0061C48.3413 80.8681 48.1891 80.6525 48.0812 80.4723C47.9908 80.3212 47.9234 80.1806 47.8921 80.1153C47.8857 80.1019 47.8808 80.0917 47.8775 80.0852L47.7761 79.8837ZM48.2451 80.1526C48.2716 80.2032 48.3027 80.2595 48.338 80.3186C48.4408 80.4902 48.5685 80.6642 48.7053 80.7662C48.7994 80.8364 48.8924 80.8936 48.9831 80.9477C48.9958 80.9552 49.0085 80.9628 49.0213 80.9703C49.0976 81.0156 49.1748 81.0614 49.243 81.1098C49.3774 81.2053 49.4922 81.322 49.5439 81.4985C49.7629 81.4825 50.1152 81.4315 50.5644 81.3534C51.1062 81.2592 51.7765 81.1281 52.4969 80.9799C53.9376 80.6834 55.575 80.3195 56.7786 80.0486C57.975 79.7793 58.6018 79.5225 58.9715 79.3064C59.1552 79.1991 59.2777 79.1006 59.3769 79.0122C59.4046 78.9875 59.4322 78.9619 59.46 78.9362C59.5266 78.8745 59.5939 78.8121 59.664 78.7609C59.7435 78.7027 59.8584 78.5922 59.9939 78.4471C60.1274 78.3041 60.2745 78.1345 60.4174 77.9637C60.7033 77.6221 60.9683 77.2806 61.0666 77.1488C61.0666 77.1489 61.0666 77.1488 61.0668 77.1484C61.0681 77.1457 61.0772 77.1277 61.0863 77.0814C61.0956 77.0339 61.1023 76.9709 61.1061 76.8937C61.1135 76.7397 61.1082 76.5435 61.095 76.3306C61.087 76.2022 61.0761 76.0691 61.0636 75.9372C60.9612 76.1444 60.8242 76.3418 60.6639 76.529C60.2978 76.9564 59.7993 77.3432 59.2744 77.6867C58.7486 78.0309 58.1891 78.3362 57.6974 78.5981C57.6208 78.6389 57.5461 78.6785 57.4736 78.717C57.0757 78.9281 56.7424 79.1049 56.523 79.2498C56.3944 79.3347 56.2003 79.4039 55.9701 79.4635C55.736 79.5242 55.4499 79.5785 55.1271 79.6276C54.4812 79.7259 53.6779 79.8049 52.8285 79.8712C51.7699 79.9538 50.6304 80.0171 49.6296 80.0727C49.1231 80.1008 48.6521 80.127 48.2451 80.1526Z" fill="black"/>
<path d="M57.5043 76.5791C56.6496 77.2774 56.8175 78.3208 57.0083 78.7553C57.7881 78.4186 59.0987 77.6771 59.8478 77.0746C60.6824 76.4031 61.0265 75.811 61.1816 75.3979C61.181 75.1749 61.0724 74.6488 60.6433 74.3287C60.1068 73.9287 58.5726 75.7062 57.5043 76.5791Z" fill="#F7F3F8"/>
<path fill-rule="evenodd" clip-rule="evenodd" d="M58.4722 75.9122C58.1703 76.1948 57.8705 76.473 57.5989 76.695C56.8996 77.2663 56.9465 78.0963 57.0925 78.5541C57.8723 78.198 59.0616 77.515 59.7539 76.958C60.5509 76.3168 60.8815 75.7573 61.0313 75.372C61.0224 75.1631 60.9158 74.7186 60.5538 74.4487C60.5255 74.4275 60.4846 74.4147 60.4169 74.4232C60.3464 74.4321 60.2563 74.4635 60.1463 74.5213C59.9263 74.6369 59.6616 74.8394 59.3709 75.0899C59.1089 75.3157 58.8331 75.5741 58.5579 75.832C58.5293 75.8587 58.5008 75.8855 58.4722 75.9122ZM60.3795 74.1263C60.5025 74.1108 60.6269 74.1299 60.7327 74.2088C61.2129 74.5669 61.3305 75.147 61.3312 75.3976L61.3312 75.4249L61.3216 75.4505C61.1564 75.8908 60.7953 76.5043 59.9415 77.1912C59.1799 77.8039 57.857 78.5518 57.0676 78.8927L56.9311 78.9516L56.8713 78.8155C56.6682 78.353 56.4792 77.2234 57.4096 76.4632C57.6721 76.2487 57.9647 75.9774 58.2677 75.6937C58.2963 75.667 58.325 75.6401 58.3538 75.6131C58.6281 75.3561 58.9085 75.0933 59.1755 74.8632C59.469 74.6103 59.7552 74.3888 60.0071 74.2564C60.133 74.1902 60.2592 74.1415 60.3795 74.1263Z" fill="black"/>
<path d="M57.6965 73.4668L55.0598 75.8831C55.2696 75.7775 55.7301 75.9924 55.8299 76.0818L58.4998 73.565L57.6965 73.4668Z" fill="#554B58"/>
<path fill-rule="evenodd" clip-rule="evenodd" d="M57.6462 73.3099L58.8345 73.4552L55.8325 76.285L55.7301 76.1932C55.7197 76.1839 55.686 76.1607 55.6286 76.1313C55.5744 76.1034 55.5078 76.0745 55.4385 76.0512C55.3685 76.0276 55.3001 76.0114 55.2412 76.0061C55.1797 76.0005 55.1439 76.0083 55.1271 76.0168L54.9587 75.7728L57.6462 73.3099ZM55.4386 75.739C55.4711 75.7475 55.503 75.7571 55.5338 75.7675C55.6183 75.7959 55.6986 75.8308 55.7654 75.8651C55.7818 75.8735 55.7981 75.8823 55.8139 75.8912L58.1651 73.6749L57.7468 73.6237L55.4386 75.739Z" fill="black"/>
<path d="M58.9348 73.5973L56.0948 76.2751C56.3086 76.1675 56.7176 76.4585 56.8351 76.5809L58.2332 75.1986L59.6713 73.7291L58.9348 73.5973Z" fill="#554B58"/>
<path fill-rule="evenodd" clip-rule="evenodd" d="M58.8871 73.4367L59.9761 73.6316L58.3393 75.3041L56.8323 76.7941L56.7271 76.6845C56.6808 76.6363 56.5628 76.5424 56.4321 76.4745C56.3675 76.441 56.3064 76.4173 56.2548 76.407C56.2017 76.3964 56.1741 76.4027 56.1621 76.4087L55.9921 76.1662L58.8871 73.4367ZM56.4437 76.1518C56.4875 76.1685 56.53 76.1881 56.5701 76.2089C56.6653 76.2584 56.7563 76.3195 56.829 76.3765L58.1272 75.093L59.3666 73.8266L58.9827 73.7578L56.4437 76.1518Z" fill="black"/>
<path d="M46.7717 76.5726L48.1094 76.7971C48.3994 76.8186 49.4271 76.092 49.6148 76.1986C49.8024 76.3051 48.9742 77.3273 48.7404 77.473C48.5064 77.5628 47.9985 77.7962 47.8384 78.0108C47.6384 78.279 47.7057 78.4127 48.1094 79.2146C48.4324 79.8561 48.2006 79.9504 48.0444 79.9174C47.9103 79.8174 47.5818 79.5975 47.3407 79.5178C47.0995 79.4382 46.6701 79.0178 46.5687 78.65C46.5687 78.65 46.7571 77.7847 46.6987 77.2443C46.6301 76.6088 46.7717 76.5726 46.7717 76.5726Z" fill="#F7F3F8"/>
<path fill-rule="evenodd" clip-rule="evenodd" d="M46.7341 76.4278C46.7344 76.4277 46.7347 76.4277 46.7717 76.5726L46.7347 76.4277L46.7653 76.4198L48.1246 76.6479C48.1355 76.6476 48.1608 76.6442 48.205 76.6304C48.253 76.6154 48.3114 76.5919 48.3789 76.5614C48.5031 76.5051 48.6457 76.4304 48.7923 76.3537C48.8052 76.3469 48.8181 76.3401 48.8311 76.3334C48.9881 76.2512 49.1493 76.1678 49.2838 76.1119C49.3508 76.0842 49.4176 76.0605 49.4778 76.048C49.5293 76.0374 49.6142 76.0262 49.6887 76.0684C49.7942 76.1283 49.7966 76.2406 49.789 76.2978C49.7806 76.3601 49.7545 76.4264 49.7248 76.4875C49.6639 76.613 49.5642 76.764 49.4558 76.9102C49.3465 77.0578 49.2237 77.2064 49.1126 77.3282C49.006 77.4451 48.8978 77.5512 48.8195 77.6L48.8074 77.6075L48.794 77.6126C48.6822 77.6556 48.5029 77.7337 48.3335 77.8264C48.1571 77.9228 48.017 78.0217 47.9584 78.1002C47.9136 78.1603 47.8935 78.2003 47.8849 78.2351C47.8768 78.2678 47.8757 78.3089 47.8926 78.3758C47.9297 78.5228 48.0368 78.7376 48.2431 79.1473C48.3272 79.3144 48.3789 79.453 48.4037 79.5681C48.4283 79.682 48.4291 79.7846 48.3968 79.8711C48.3624 79.9638 48.2953 80.0236 48.2176 80.0522C48.1453 80.0788 48.0715 80.0761 48.0135 80.0638L47.9813 80.057L47.955 80.0373C47.8221 79.9383 47.5101 79.7314 47.2937 79.6599C47.1375 79.6083 46.949 79.4614 46.7929 79.294C46.6345 79.1241 46.4842 78.9063 46.4245 78.6897L46.4147 78.6542L46.4225 78.6182L46.4226 78.6177L46.423 78.6161L46.4244 78.6092C46.4257 78.6031 46.4276 78.5939 46.4301 78.5819C46.435 78.5578 46.442 78.5227 46.4502 78.4788C46.4666 78.3909 46.4879 78.2682 46.5074 78.129C46.547 77.847 46.577 77.511 46.55 77.2604C46.5148 76.9351 46.5308 76.7436 46.5663 76.6267C46.5844 76.5668 46.6094 76.5209 46.6403 76.4871C46.6559 76.4701 46.6724 76.4569 46.6891 76.4469C46.6974 76.442 46.7055 76.438 46.7132 76.4348C46.7171 76.4332 46.7208 76.4319 46.7244 76.4307C46.7262 76.4301 46.728 76.4295 46.7297 76.429L46.7322 76.4283L46.7335 76.428L46.7341 76.4278ZM46.723 78.643C46.7713 78.7865 46.8799 78.9486 47.0117 79.0899C47.1559 79.2445 47.3027 79.3477 47.3876 79.3757C47.6341 79.4571 47.9487 79.6634 48.1011 79.7734C48.1073 79.7731 48.1118 79.7722 48.1142 79.7713C48.1143 79.7713 48.1142 79.7713 48.1142 79.7713C48.1147 79.7705 48.1155 79.769 48.1164 79.7667C48.1212 79.7537 48.1291 79.7145 48.1112 79.6312C48.0935 79.5493 48.0531 79.4355 47.9757 79.2819L47.9626 79.2558C47.7726 78.8784 47.6488 78.6325 47.6025 78.4492C47.5771 78.349 47.5714 78.2562 47.5944 78.1634C47.6168 78.0726 47.6633 77.9953 47.7185 77.9213C47.8199 77.7853 48.0138 77.6602 48.1899 77.5638C48.3654 77.4678 48.5488 77.3871 48.6712 77.3393C48.7132 77.3096 48.7915 77.2362 48.8915 77.1265C48.9956 77.0124 49.112 76.8715 49.2154 76.732C49.316 76.5963 49.4003 76.4673 49.45 76.3681C49.4341 76.3739 49.417 76.3807 49.3985 76.3884C49.2785 76.4381 49.1295 76.515 48.9698 76.5985C48.9565 76.6055 48.9431 76.6125 48.9296 76.6196C48.7851 76.6952 48.6349 76.774 48.5023 76.834C48.4297 76.8669 48.3588 76.8958 48.2944 76.916C48.2332 76.9351 48.1635 76.9512 48.0983 76.9463L48.0914 76.9458L46.8466 76.7369C46.8306 76.8079 46.8177 76.9526 46.8475 77.2282C46.8788 77.5179 46.8439 77.8848 46.8038 78.1705C46.7835 78.3152 46.7614 78.4426 46.7443 78.5338C46.7358 78.5795 46.7285 78.6162 46.7233 78.6416C46.7232 78.6421 46.7231 78.6426 46.723 78.643ZM49.5658 76.3375C49.5658 76.3375 49.5657 76.3375 49.5655 76.3375ZM48.1137 79.7722C48.1137 79.7722 48.1137 79.7722 48.1139 79.772Z" fill="black"/>
<path d="M48.0435 76.6034L46.8421 76.6034L46.6059 77.0215L46.6059 78.3537L46.4286 79.5089L46.8421 80.9195L47.7418 81.6875L49.2306 81.8384L53.6548 80.7624C53.3382 80.7203 51.2307 80.8522 50.8118 80.6128C50.288 80.3135 49.9888 80.1639 49.5399 79.8646C49.091 79.4157 48.6421 79.0478 48.6421 78.3537C48.6421 77.6256 49.4892 76.5494 49.5399 76.1986L48.0435 76.6034Z" fill="#160E1B" fill-opacity="0.4"/>
<path d="M56.423 79.1912C56.4669 79.5672 53.2906 80.7823 53.1311 80.912C53.7677 81.1427 59.0412 79.4933 59.5424 79.0934L61.1903 77.496L61.3878 76.3296L61.2552 74.9874L61.0562 74.9153C61.0562 74.9153 61.1706 75.5672 60.6876 76.1237C60.2046 76.6802 60.1936 76.7071 59.715 77.0964C59.1894 77.5238 58.5927 77.7697 58.1438 78.1438C57.9679 78.474 56.3792 78.8152 56.423 79.1912Z" fill="#160E1B" fill-opacity="0.4"/>
</svg>
