<svg width="88" height="88" viewBox="0 0 88 88" fill="none" xmlns="http://www.w3.org/2000/svg">
<rect width="88" height="88" rx="4" fill="#F7F3F8"/>
<path d="M37.9834 27.4562L38.8727 23.1087C41.6392 25.0354 43.4671 25.0848 45.7397 24.492L46.4807 27.555C46.5301 28.6089 45.8385 30.6674 42.6767 30.4698C39.5149 30.2721 38.2304 28.3784 37.9834 27.4562Z" fill="white"/>
<path fill-rule="evenodd" clip-rule="evenodd" d="M38.8171 22.9698C38.8638 22.9511 38.9168 22.9571 38.9581 22.9859C40.3294 23.9409 41.4573 24.4231 42.5157 24.5975C43.5739 24.7719 44.5761 24.6409 45.7019 24.3472C45.7407 24.3371 45.782 24.343 45.8165 24.3636C45.8509 24.3842 45.8757 24.4178 45.8851 24.4568L46.6261 27.5198C46.6284 27.529 46.6297 27.5385 46.6302 27.548C46.6563 28.1061 46.4874 28.9255 45.8939 29.582C45.2952 30.2444 44.2836 30.7201 42.6673 30.6191C39.441 30.4175 38.1024 28.4788 37.8388 27.4949C37.8328 27.4725 37.8321 27.4489 37.8368 27.4262L38.726 23.0787C38.7361 23.0294 38.7703 22.9885 38.8171 22.9698ZM38.974 23.3598L38.1372 27.4508C38.39 28.3248 39.6282 30.1293 42.686 30.3204C44.2315 30.417 45.1467 29.9624 45.6719 29.3814C46.1973 28.8001 46.3516 28.0716 46.3318 27.576L45.6299 24.6745C44.5403 24.9475 43.5347 25.0687 42.4671 24.8928C41.4019 24.7173 40.2875 24.2481 38.974 23.3598Z" fill="black"/>
<path d="M43.8051 28.42C41.5008 28.7774 39.6555 25.0939 39.0209 23.2075C42.0846 25.2844 43.8403 24.8984 45.6393 24.5028L45.6602 24.4982C45.9856 25.64 46.1093 28.0625 43.8051 28.42Z" fill="#DADADA"/>
<path d="M37.2918 7.2503C34.8809 9.06833 35.2827 12.7982 35.8097 14.445C35.5806 14.4956 35.3449 14.6066 35.118 14.809C34.4883 15.3704 34.1299 17.1803 35.4638 18.0202C35.6841 18.1589 36.0569 18.2762 36.4519 18.2901C36.7154 19.4429 37.6376 22.2194 39.0209 23.2075C40.75 24.4426 43.4177 25.6776 47.1724 23.9485C50.927 22.2194 51.5198 18.613 50.68 13.7221C49.8401 8.8312 47.6664 6.36105 45.3445 5.5706C43.0225 4.78015 40.3054 4.97776 37.2918 7.2503Z" fill="white"/>
<path fill-rule="evenodd" clip-rule="evenodd" d="M45.2963 5.71224C43.0242 4.93874 40.3584 5.1252 37.382 7.36976C36.2221 8.24443 35.7307 9.58452 35.598 10.9266C35.4719 12.2019 35.6721 13.4604 35.9139 14.2749C36.2612 14.2293 36.5838 14.302 36.8348 14.3966C37.1182 14.5034 37.3213 14.6423 37.3837 14.6908C37.449 14.7416 37.4607 14.8356 37.41 14.9008C37.3592 14.9661 37.2652 14.9778 37.2 14.9271C37.1574 14.8939 36.9802 14.7712 36.7293 14.6766C36.4785 14.5821 36.165 14.5198 35.842 14.5911C35.6381 14.6361 35.4256 14.7353 35.2177 14.9206C34.9427 15.1658 34.7058 15.7131 34.7043 16.3105C34.7028 16.8987 34.9297 17.507 35.5436 17.8935C35.738 18.0159 36.0841 18.1274 36.4572 18.1406C36.8782 18.1554 37.2997 18.0446 37.5734 17.7252C37.6272 17.6624 37.7217 17.6552 37.7844 17.7089C37.8472 17.7627 37.8544 17.8572 37.8007 17.9199C37.4938 18.2779 37.0584 18.4177 36.6416 18.4383C36.7875 19.0183 37.0641 19.892 37.4528 20.7487C37.8872 21.706 38.4502 22.6159 39.1079 23.0857C39.9625 23.6961 41.0412 24.3007 42.364 24.5424C43.6845 24.7836 45.259 24.665 47.1099 23.8126C48.9482 22.966 50.0055 21.6661 50.5058 19.9785C51.0086 18.282 50.9511 16.1846 50.5326 13.7474C49.6982 8.88817 47.548 6.47874 45.2963 5.71224ZM36.3319 18.4329C36.4762 19.0273 36.7657 19.9588 37.1803 20.8724C37.6187 21.8386 38.2085 22.811 38.934 23.3292C39.8085 23.9539 40.9283 24.5844 42.3103 24.8368C43.6946 25.0896 45.3313 24.9612 47.2351 24.0844C49.1514 23.2019 50.2678 21.8341 50.7927 20.0635C51.3149 18.3017 51.2489 16.1505 50.8276 13.6968C49.9823 8.7742 47.7851 6.24332 45.3928 5.42893C43.021 4.62153 40.2525 4.83029 37.2018 7.13082C35.9508 8.07418 35.4376 9.50805 35.3002 10.8971C35.1707 12.2068 35.3728 13.495 35.6216 14.3418C35.4183 14.4091 35.2143 14.5227 35.0185 14.6973C34.6638 15.0136 34.4067 15.652 34.405 16.3098C34.4034 16.9769 34.6643 17.6935 35.3842 18.1468C35.6077 18.2875 35.9575 18.402 36.3319 18.4329Z" fill="black"/>
<path d="M37.9227 27.4854C35.9775 27.5104 32.3103 26.8636 30.2166 29.9544C28.6454 32.2737 24.9046 37.6606 24.9794 42.5237C26.4508 43.0724 29.6929 44.6036 30.8899 46.3394C30.8899 46.4641 30.7702 46.8332 30.2914 47.312C29.8126 47.7908 30.6904 50.7536 31.1892 52.1751C31.7877 53.1477 34.2866 54.659 40.691 55.6167C47.0953 56.5744 50.492 52.9233 51.9135 50.9032C51.9135 48.5839 51.3222 41.3499 49.5194 36.4635L50.2676 38.4088C50.0281 37.6905 52.0133 35.0669 53.0358 33.8449C53.1555 32.8274 51.4397 29.9295 50.5668 28.6077C49.3099 27.2909 47.7737 27.3109 46.5267 27.7099C46.1676 30.104 44.0328 30.6028 43.0103 30.553C39.5986 30.4332 38.1971 28.4581 37.9227 27.4854Z" fill="#F7F3F8"/>
<path fill-rule="evenodd" clip-rule="evenodd" d="M37.0125 27.3185C37.347 27.3293 37.6535 27.3393 37.9208 27.3358L38.0356 27.3344L38.0667 27.4448C38.3231 28.3537 39.6677 30.2859 43.0155 30.4034L43.0176 30.4035L43.0176 30.4035C43.5051 30.4273 44.2642 30.3194 44.9411 29.9191C45.6118 29.5225 46.2063 28.8369 46.3787 27.6877L46.3925 27.5957L46.4811 27.5674C47.7601 27.1581 49.3646 27.1315 50.675 28.5044L50.6843 28.5141L50.6917 28.5253C51.1302 29.1893 51.7804 30.249 52.3066 31.272C52.5696 31.7832 52.8032 32.2885 52.9639 32.7323C53.1221 33.1691 53.2188 33.5702 53.1844 33.8624L53.1792 33.9067L53.1505 33.9409C52.6416 34.5492 51.8934 35.506 51.3032 36.3983C51.0079 36.8449 50.755 37.2711 50.5912 37.627C50.5093 37.8052 50.4517 37.9612 50.4215 38.0906C50.3905 38.2234 50.3925 38.3105 50.4095 38.3614L50.2979 38.4015C51.6133 43.1013 52.0631 48.8738 52.0631 50.9032V50.9506L52.0359 50.9893C50.5987 53.0316 47.1533 56.7343 40.6688 55.7647C37.459 55.2847 35.2206 54.665 33.7058 54.0398C32.1973 53.4173 31.3864 52.781 31.0617 52.2535L31.0533 52.2398L31.048 52.2246C30.7974 51.5106 30.4514 50.4087 30.2277 49.4231C30.1161 48.931 30.0336 48.4623 30.0102 48.0832C29.9984 47.8939 30.001 47.7212 30.0243 47.5764C30.0469 47.4355 30.0926 47.2992 30.1856 47.2062C30.4159 46.9758 30.5563 46.7755 30.6383 46.6223C30.6989 46.509 30.725 46.4266 30.735 46.379C30.1486 45.5559 29.0816 44.7696 27.962 44.1156C26.8262 43.452 25.6557 42.9356 24.9271 42.6639L24.8313 42.6282L24.8297 42.526C24.7918 40.0588 25.7207 37.4706 26.8469 35.2182C27.9176 33.0768 29.1743 31.2243 29.9702 30.051C30.0124 29.9889 30.0532 29.9287 30.0927 29.8705C31.1692 28.2814 32.6522 27.6547 34.1017 27.4225C35.1315 27.2575 36.1625 27.2909 37.0125 27.3185ZM31.037 46.3835C31.0266 46.4794 30.9838 46.6108 30.9021 46.7635C30.8046 46.9457 30.6457 47.1693 30.3972 47.4178C30.3705 47.4445 30.3388 47.5056 30.3197 47.6239C30.3013 47.7383 30.2978 47.8867 30.3088 48.0647C30.3309 48.4202 30.4093 48.8708 30.5196 49.3569C30.7383 50.3207 31.0771 51.4022 31.3249 52.11C31.6053 52.5538 32.3431 53.1537 33.82 53.7632C35.3053 54.3762 37.5185 54.991 40.7131 55.4687C46.9966 56.4083 50.3421 52.861 51.7638 50.8558C51.7559 48.4954 51.1611 41.3456 49.379 36.5153L49.659 36.4098L49.6597 36.4117L50.1952 37.8039C50.2292 37.7078 50.2711 37.6067 50.3193 37.5019C50.4924 37.1258 50.7548 36.685 51.0536 36.2332C51.6402 35.3462 52.3782 34.4001 52.8908 33.7851C52.9031 33.5674 52.8298 33.2408 52.6825 32.8342C52.5279 32.4071 52.3005 31.9145 52.0404 31.4089C51.5234 30.4038 50.8836 29.3598 50.4494 28.7014C49.2765 27.4804 47.8539 27.4647 46.6597 27.8252C46.455 29.0152 45.8168 29.7489 45.0934 30.1767C44.3579 30.6117 43.539 30.7283 43.004 30.7025C39.6482 30.5843 38.1732 28.6983 37.8129 27.6358C37.5531 27.6361 37.2704 27.6269 36.9702 27.6171C36.1285 27.5897 35.1487 27.5578 34.149 27.718C32.8442 27.927 31.5361 28.4621 30.5398 29.7617C31.3754 29.6681 32.4878 29.6525 33.5637 29.999C34.8033 30.3983 35.9882 31.2769 36.6415 33.0449L36.3608 33.1486C35.7423 31.475 34.6328 30.6578 33.472 30.2839C32.3334 29.9172 31.1394 29.9758 30.3033 30.0931C30.2758 30.1336 30.2478 30.175 30.2191 30.2172C29.423 31.3909 28.1761 33.229 27.1145 35.3521C26.012 37.5571 25.1177 40.0539 25.128 42.4198C25.8744 42.7049 27.0093 43.2124 28.113 43.8572C29.1797 44.4803 30.2343 45.2413 30.8741 46.065C31.8674 44.3199 33.2818 41.748 34.4373 39.4562C35.0377 38.2653 35.567 37.1525 35.9308 36.2717C36.1129 35.831 36.2522 35.4515 36.3384 35.151C36.3816 35.0007 36.4106 34.8731 36.4254 34.7691C36.4406 34.6626 36.4391 34.5921 36.4299 34.5507L36.7221 34.4858C36.7428 34.5791 36.7387 34.6915 36.7217 34.8113C36.7042 34.9336 36.6714 35.0756 36.6261 35.2336C36.5354 35.5496 36.3913 35.9407 36.2074 36.386C35.8393 37.2771 35.3062 38.3976 34.7045 39.5909C33.5078 41.9645 32.0351 44.6358 31.037 46.3835Z" fill="black"/>
<path d="M36.7121 34.9891C36.7162 34.9429 36.7203 34.8972 36.7245 34.8521C36.7402 34.8626 36.7354 34.9095 36.7121 34.9891C36.4252 38.2404 36.4252 44.2315 36.4252 46.1495C36.4252 48.0947 33.9563 53.9304 33.9563 53.9304C33.2829 53.7559 31.8165 53.1823 31.3377 52.2845C30.7391 51.1622 29.9161 48.2443 30.1406 47.4962C30.4648 47.147 31.0234 46.4787 30.9636 46.2991C32.8421 42.8435 36.4029 36.0451 36.7121 34.9891Z" fill="#DADADA"/>
<path d="M41.2136 31.6349C39.632 31.0522 38.0463 29.0413 37.772 27.6696C38.3705 29.0163 40.3368 30.673 43.1588 30.5875C45.6278 30.5127 46.6004 28.7171 46.6004 27.8193C47.0493 28.0437 46.2311 30.5763 45.4781 31.2608C44.6551 32.009 42.6351 32.1586 41.2136 31.6349Z" fill="#DADADA"/>
<path d="M24.441 49.3666L25.264 42.7079C27.8377 43.4261 30.0772 45.4013 30.8752 46.2991L30.1271 47.4962C29.8876 48.1545 30.6757 50.8629 31.0997 52.1348C31.2743 52.5089 32.1022 53.0625 32.5212 53.7808C33.0449 54.6786 33.9427 54.9779 34.5413 55.5016C35.0201 55.9206 35.7882 57.8209 35.8132 58.5691C35.6635 59.1676 34.7141 58.7712 34.5413 58.195C34.025 56.4742 33.2943 56.6987 32.8953 56.1001L33.2694 57.1476C33.9178 58.3446 34.4964 60.9183 31.6234 61.6366C28.0322 62.5344 27.1344 57.5216 26.9099 56.3246C26.6855 55.1275 25.638 53.4815 24.8899 52.2844C24.2913 51.3268 24.3412 49.9402 24.441 49.3666Z" fill="white"/>
<path fill-rule="evenodd" clip-rule="evenodd" d="M25.1808 42.5833C25.2171 42.5592 25.2621 42.552 25.304 42.5637C27.916 43.2926 30.1787 45.2904 30.9869 46.1997C31.031 46.2493 31.0372 46.3221 31.002 46.3784L30.263 47.5608C30.2444 47.6197 30.2327 47.7095 30.2322 47.8329C30.2317 47.9637 30.2438 48.1214 30.2667 48.3009C30.3126 48.6596 30.4005 49.0938 30.51 49.5506C30.7278 50.4593 31.0276 51.4451 31.2385 52.0787C31.2727 52.1479 31.3415 52.2357 31.4454 52.3464C31.5289 52.4352 31.6269 52.5306 31.7346 52.6354C31.7635 52.6635 31.7931 52.6923 31.8233 52.7218C32.104 52.9962 32.4295 53.3268 32.6503 53.7054C32.8963 54.1272 33.2315 54.4115 33.5882 54.6584C33.7088 54.7419 33.8287 54.8191 33.9489 54.8965C34.0087 54.9349 34.0686 54.9735 34.1287 55.0129C34.3066 55.1296 34.482 55.251 34.6397 55.389C34.7798 55.5116 34.9279 55.7282 35.0688 55.9792C35.2122 56.2344 35.3565 56.5404 35.4857 56.8551C35.7413 57.4775 35.9491 58.1611 35.9626 58.5641C35.963 58.578 35.9616 58.5919 35.9582 58.6054C35.9092 58.8012 35.7874 58.9306 35.6232 58.986C35.4684 59.0381 35.2943 59.0186 35.1367 58.9639C34.8251 58.8558 34.5012 58.5826 34.3978 58.238C34.1467 57.4011 33.85 57.0555 33.5816 56.8443C33.4873 56.77 33.4 56.7144 33.3098 56.6568C33.2855 56.6413 33.2609 56.6256 33.2359 56.6094L33.4063 57.0865C33.7373 57.7018 34.054 58.6725 33.9147 59.594C33.8442 60.0608 33.6562 60.5167 33.2926 60.903C32.9295 61.2891 32.3995 61.5968 31.6595 61.7818C30.7245 62.0155 29.9536 61.8656 29.3252 61.4814C28.7018 61.1002 28.2301 60.4957 27.8725 59.8376C27.1745 58.5533 26.8876 57.0197 26.7706 56.3943C26.7679 56.3798 26.7652 56.3657 26.7627 56.3522C26.655 55.7775 26.3465 55.0837 25.9645 54.3756C25.6087 53.716 25.1958 53.0559 24.8373 52.4828C24.8122 52.4427 24.7873 52.403 24.7628 52.3638C24.4465 51.8576 24.3054 51.2458 24.2544 50.6953C24.2035 50.146 24.241 49.6446 24.2928 49.3446L25.1153 42.6895C25.1206 42.6463 25.1446 42.6075 25.1808 42.5833ZM25.3908 42.9006L24.5893 49.3849C24.589 49.3874 24.5887 49.3898 24.5882 49.3922C24.5406 49.6663 24.5038 50.1431 24.5524 50.6677C24.6011 51.1933 24.7344 51.7536 25.0166 52.2051C25.0414 52.2448 25.0665 52.2849 25.0919 52.3256C25.4496 52.8973 25.8673 53.5651 26.2278 54.2335C26.6127 54.9469 26.9401 55.6746 27.0568 56.297C27.0591 56.3088 27.0613 56.3209 27.0637 56.3334C27.1806 56.9578 27.4604 58.4526 28.1354 59.6947C28.4792 60.3272 28.9194 60.8824 29.4813 61.226C30.0384 61.5666 30.7264 61.7066 31.587 61.4914C32.2835 61.3173 32.7586 61.034 33.0747 60.698C33.3904 60.3624 33.5559 59.9654 33.6188 59.5493C33.7456 58.7102 33.4531 57.8011 33.1377 57.2188C33.134 57.2121 33.1309 57.2051 33.1283 57.1979L32.7542 56.1505C32.7288 56.0793 32.7604 56.0003 32.828 55.9664C32.8955 55.9325 32.9777 55.9542 33.0197 56.0171C33.1042 56.1439 33.2069 56.2293 33.3321 56.3141C33.3692 56.3393 33.4105 56.3657 33.4544 56.3938C33.5515 56.4559 33.6613 56.5261 33.7667 56.6091C34.0925 56.8655 34.4193 57.2681 34.6844 58.152C34.7539 58.3836 34.9911 58.5966 35.2348 58.6812C35.3549 58.7228 35.457 58.7262 35.5277 58.7024C35.5851 58.683 35.6351 58.642 35.6625 58.5521C35.6441 58.2022 35.4579 57.5753 35.2089 56.9687C35.0831 56.6624 34.944 56.368 34.8079 56.1257C34.6694 55.8791 34.5419 55.7011 34.4426 55.6142C34.301 55.4903 34.1397 55.378 33.9646 55.2632C33.9089 55.2267 33.8513 55.1896 33.7926 55.1518C33.6699 55.0728 33.5425 54.9908 33.4179 54.9045C33.0451 54.6464 32.6695 54.3322 32.3918 53.8562C32.1937 53.5166 31.8957 53.2112 31.614 52.9357C31.5855 52.9078 31.557 52.8801 31.5287 52.8526C31.4203 52.7471 31.3159 52.6455 31.2273 52.5513C31.1174 52.4343 31.0184 52.3148 30.9639 52.1981C30.9615 52.1929 30.9594 52.1876 30.9576 52.1821C30.7447 51.5434 30.4403 50.544 30.2189 49.6203C30.1083 49.1587 30.0176 48.7128 29.9698 48.3388C29.9459 48.1519 29.9324 47.9801 29.9329 47.8318C29.9335 47.686 29.9476 47.5514 29.9863 47.445C29.9899 47.4352 29.9945 47.4257 30 47.4169L30.6883 46.3157C29.861 45.4167 27.7802 43.6222 25.3908 42.9006Z" fill="black"/>
<path d="M27.2091 43.6805C27.0295 43.5009 26.3861 43.2316 25.4135 42.8575C25.1142 44.8028 24.5007 48.6932 24.4408 49.5911C24.3411 51.0874 24.9727 52.5022 25.7127 53.4067C26.3861 54.2297 26.9846 56.2498 27.5084 58.4195C27.9348 60.1862 29.1543 61.1129 29.6781 61.3373C29.6781 61.3373 30.5758 61.7114 31.0247 61.5618C31.4736 61.4122 29.9773 61.3373 29.3788 60.8136C28.9283 60.4195 28.1568 58.7686 27.8824 58.0454C27.7578 56.9231 27.4335 54.7534 26.7602 54.0801C26.0827 53.4026 25.4134 51.237 25.189 50.3392C24.9524 49.3928 27.4335 43.905 27.2091 43.6805Z" fill="#DADADA"/>
<path d="M50.2526 37.9196C50.3723 37.2013 52.1479 34.8271 53.0208 33.7298C54.0932 36.4731 56.2529 42.4535 56.3128 44.4286C56.3726 46.4038 56.9362 48.4438 57.2106 49.2169C57.9587 49.9651 58.3328 51.7607 58.258 52.9578C58.0335 54.0052 58.0335 54.529 57.2106 55.1275C56.1538 55.896 55.1905 55.2023 54.6668 54.7534C54.5061 54.6157 53.8763 53.9077 54.2927 52.6585C54.5171 51.9852 53.8438 51.1622 53.6942 51.3118C53.4946 52.0351 53.5445 52.3593 53.5445 52.9578C53.5445 53.6312 53.769 53.6312 53.6942 54.0052C53.6311 54.3204 53.4098 54.5439 52.8712 54.0052C52.3325 53.4666 52.2726 52.883 52.2726 52.2096C52.2726 51.5363 52.3282 50.9276 52.5719 50.4888C53.6942 48.4688 52.5719 44.6531 52.2726 43.6057C51.9734 42.5582 50.7763 39.2912 50.2526 37.9196Z" fill="white"/>
<path fill-rule="evenodd" clip-rule="evenodd" d="M53.0656 33.4332L53.1603 33.6753C53.6972 35.0489 54.5063 37.2326 55.1888 39.3208C55.53 40.3648 55.8402 41.3866 56.0689 42.272C56.2968 43.1541 56.4469 43.9122 56.4624 44.4241C56.5209 46.3532 57.066 48.3496 57.3408 49.1359C57.7305 49.5406 58.0115 50.1949 58.1879 50.8818C58.369 51.5872 58.4459 52.3512 58.4074 52.9672L58.4067 52.9783L58.4044 52.9892C58.3769 53.1176 58.3525 53.2401 58.3291 53.3571C58.26 53.7037 58.2005 54.0024 58.0983 54.2652C57.9558 54.6317 57.7305 54.9345 57.2987 55.2485C56.7285 55.6632 56.1738 55.6858 55.6953 55.5402C55.2258 55.3972 54.8345 55.0942 54.5695 54.867C54.3768 54.7019 53.7099 53.934 54.1508 52.6112C54.2436 52.3328 54.1532 52.0056 54.0047 51.7522C53.9369 51.6366 53.8628 51.5467 53.8016 51.4922C53.6807 51.9793 53.6852 52.2679 53.6913 52.6598C53.6927 52.7521 53.6942 52.8501 53.6942 52.9578C53.6942 53.2729 53.7457 53.4238 53.7884 53.5434C53.7902 53.5486 53.7921 53.5538 53.794 53.5591C53.8147 53.6166 53.838 53.6814 53.85 53.7539C53.8639 53.8371 53.8628 53.9256 53.841 54.0346C53.8078 54.2003 53.7189 54.4233 53.4924 54.4718C53.3827 54.4953 53.2667 54.4697 53.1501 54.41C53.0337 54.3505 52.9063 54.2519 52.7655 54.1111C52.1828 53.5284 52.1231 52.8923 52.1231 52.2096C52.1231 51.5361 52.1769 50.8919 52.4412 50.4162C52.977 49.4517 52.9843 48.0357 52.8071 46.7022C52.6371 45.4226 52.3026 44.2539 52.145 43.7031C52.1394 43.6836 52.134 43.6648 52.1288 43.6468C51.8317 42.6068 50.6372 39.3461 50.1129 37.9729L50.0984 37.935L50.1051 37.895C50.1401 37.685 50.2877 37.38 50.4834 37.0413C50.6832 36.6956 50.9462 36.2935 51.2313 35.8817C51.8017 35.0577 52.4659 34.1871 52.9038 33.6367L53.0656 33.4332ZM50.4079 37.9067C50.9388 39.2998 52.1181 42.52 52.4166 43.5646C52.4219 43.583 52.4274 43.6024 52.4332 43.6226C52.5912 44.1744 52.9308 45.3609 53.1038 46.6628C53.282 48.004 53.2892 49.506 52.7028 50.5615C52.4796 50.9632 52.4224 51.5365 52.4224 52.2096C52.4224 52.8737 52.4824 53.4047 52.9771 53.8994C53.1056 54.028 53.2079 54.1034 53.2864 54.1436C53.3647 54.1837 53.409 54.1836 53.4298 54.1791C53.4644 54.1717 53.5176 54.1254 53.5475 53.9759C53.5631 53.8978 53.562 53.8461 53.5548 53.8031C53.5474 53.7582 53.5329 53.7177 53.51 53.6538L53.5066 53.6441C53.4558 53.5018 53.395 53.3161 53.395 52.9578C53.395 52.856 53.3935 52.7613 53.392 52.6706C53.385 52.2357 53.3794 51.8904 53.55 51.272L53.5605 51.234L53.5884 51.206C53.6603 51.1341 53.7526 51.1374 53.8144 51.1556C53.8742 51.1732 53.9301 51.2097 53.9778 51.2491C54.0753 51.3297 54.1771 51.4546 54.2629 51.6009C54.4323 51.8899 54.5664 52.3109 54.4347 52.7059C54.0429 53.8815 54.6356 54.5295 54.7643 54.6398C55.023 54.8616 55.3752 55.1299 55.7825 55.2539C56.1807 55.3751 56.6361 55.3603 57.1226 55.0065C57.5138 54.722 57.7 54.4636 57.8194 54.1568C57.9113 53.9203 57.9637 53.6578 58.0308 53.3215C58.0544 53.2033 58.0798 53.076 58.1094 52.9375C58.1441 52.3582 58.0712 51.6307 57.8981 50.9563C57.7227 50.2733 57.4506 49.6685 57.1048 49.3228L57.0809 49.2989L57.0696 49.267C56.792 48.4844 56.2237 46.4286 56.1633 44.4332C56.1489 43.9575 56.0066 43.2274 55.7792 42.3469C55.5526 41.4698 55.2446 40.4546 54.9043 39.4138C54.263 37.4516 53.5091 35.4035 52.9763 34.0278C52.5496 34.572 51.9767 35.3307 51.4774 36.052C51.1945 36.4607 50.9366 36.8554 50.7425 37.1911C50.56 37.5068 50.4445 37.7532 50.4079 37.9067Z" fill="black"/>
<path d="M52.946 43.3812C52.6467 42.3338 51.2501 39.1416 50.4022 37.7699C50.7763 39.0418 52.0482 42.1093 52.5719 44.1294C52.8176 45.0768 53.1068 46.5498 53.1705 47.571C53.2428 48.731 53.0654 49.4166 52.946 50.0399C53.1455 49.6908 53.4248 48.8129 53.5445 48.0947C53.6942 47.1969 53.3182 44.6841 52.946 43.3812Z" fill="#DADADA"/>
<path d="M54.6668 52.06C54.4872 51.5812 54.0682 51.262 53.9186 51.237C54.4423 51.8356 54.3675 52.5089 54.2927 53.1075C54.2328 53.5863 54.2927 54.0053 54.4423 54.3045L54.966 54.8283C54.8413 54.6287 54.7266 54.2596 54.6668 54.0801C54.6069 53.9005 54.5919 53.7808 54.6668 53.4067C54.7914 53.1573 54.8463 52.5388 54.6668 52.06Z" fill="#DADADA"/>
<path d="M24.0802 29.5463C25.4569 29.6061 28.3448 30.3693 29.6167 30.7433L28.4196 32.539C27.3223 32.2147 25.0828 31.4765 24.604 31.4167C24.1251 31.3568 23.7062 31.4915 23.4817 31.8656C23.2573 32.2397 24.0054 32.6886 23.6313 33.2871C22.8832 34.0353 21.7609 33.6612 21.1624 33.2123C20.7838 32.9284 20.5639 32.2397 20.5638 31.716C20.5638 30.0598 22.3594 29.4715 24.0802 29.5463Z" fill="#1BA0B1"/>
<path fill-rule="evenodd" clip-rule="evenodd" d="M21.6078 29.8492C22.3029 29.4883 23.2108 29.3587 24.0867 29.3968C24.7905 29.4274 25.8689 29.6363 26.9216 29.8812C27.9779 30.127 29.0206 30.4121 29.6589 30.5998L29.854 30.6572L28.4829 32.7137L28.3772 32.6825C28.0372 32.582 27.5867 32.4416 27.114 32.2942C26.8229 32.2034 26.5233 32.1101 26.2359 32.0217C25.8577 31.9055 25.5 31.798 25.2074 31.7158C24.9105 31.6324 24.6919 31.5785 24.5854 31.5652C24.1424 31.5098 23.7936 31.6366 23.61 31.9426C23.5843 31.9854 23.5799 32.0345 23.6057 32.1165C23.6266 32.1829 23.6599 32.2499 23.7006 32.3319C23.7154 32.3616 23.7311 32.3932 23.7475 32.4274C23.8638 32.6696 23.989 32.9972 23.7582 33.3664L23.7492 33.3809L23.7371 33.3929C23.3228 33.8072 22.8051 33.9075 22.3222 33.8471C21.843 33.7872 21.3888 33.5692 21.0726 33.332C20.8511 33.166 20.6883 32.893 20.581 32.6066C20.4727 32.3175 20.4142 31.9967 20.4142 31.716C20.4142 30.8205 20.9053 30.2139 21.6078 29.8492ZM21.7457 30.1148C21.1201 30.4396 20.7134 30.9553 20.7135 31.716C20.7135 31.959 20.7649 32.2443 20.8613 32.5016C20.9586 32.7615 21.095 32.9748 21.2521 33.0926C21.5344 33.3043 21.9406 33.4978 22.3593 33.5501C22.769 33.6014 23.1813 33.5173 23.5131 33.1936C23.6452 32.9703 23.5837 32.7777 23.4777 32.5569C23.4663 32.5332 23.4539 32.5081 23.441 32.4823C23.3973 32.3945 23.3489 32.2972 23.3202 32.2063C23.2806 32.0801 23.2668 31.9328 23.3534 31.7886C23.6187 31.3465 24.1079 31.2039 24.6225 31.2682C24.7554 31.2848 24.9963 31.3456 25.2883 31.4276C25.5845 31.5108 25.9451 31.6193 26.3238 31.7357C26.6144 31.8249 26.9153 31.9188 27.2069 32.0097C27.6301 32.1416 28.0334 32.2674 28.3564 32.364L29.379 30.8301C28.7395 30.6459 27.8018 30.3933 26.8538 30.1727C25.8005 29.9276 24.7466 29.725 24.0737 29.6958C23.2288 29.659 22.3785 29.7862 21.7457 30.1148Z" fill="black"/>
<path d="M56.7445 72.963C55.927 72.2088 56.381 69.6903 56.7595 68.4783C56.9405 68.6088 56.6989 68.4594 57.2645 68.6361C57.9714 68.8569 61.1052 68.2283 61.4745 68.2882C61.8437 68.3481 65.3939 66.7411 65.8546 66.3307C66.2232 66.0025 66.9549 65.5289 67.2746 65.3332C67.8659 65.3331 69.2509 65.4295 70.0614 65.8156C71.0746 66.2983 71.2308 68.5121 70.9583 68.9777C70.6018 69.5869 70.1758 70.0635 69.5857 70.7106C68.8482 71.5194 67.7334 71.8502 65.3002 72.3651C64.2445 72.5884 61.406 73.4766 59.3357 73.7168C58.2311 73.7044 57.5711 73.7255 56.7445 72.963Z" fill="#CA0B89"/>
<path fill-rule="evenodd" clip-rule="evenodd" d="M56.6786 68.2356L56.847 68.3569C56.8675 68.3717 56.8829 68.3831 56.8942 68.3915C56.9527 68.396 57.058 68.4148 57.3091 68.4932C57.3773 68.5145 57.4868 68.5285 57.6372 68.5325C57.7848 68.5363 57.9616 68.5304 58.1586 68.5171C58.5525 68.4905 59.0181 68.4351 59.4764 68.3741C59.7059 68.3436 59.9418 68.3105 60.1641 68.2794C60.3742 68.25 60.572 68.2222 60.7408 68.2C60.9196 68.1764 61.0776 68.1573 61.2032 68.146C61.3218 68.1353 61.4304 68.1294 61.4985 68.1405C61.4974 68.1403 61.4975 68.1403 61.4991 68.1402C61.5036 68.1401 61.5197 68.1395 61.5523 68.1334C61.5918 68.1261 61.6437 68.1133 61.7078 68.0945C61.8358 68.057 62.0025 67.9991 62.1968 67.9254C62.5851 67.7782 63.0749 67.5714 63.569 67.3493C64.0628 67.1273 64.5589 66.891 64.9594 66.6851C65.1598 66.582 65.335 66.4872 65.4737 66.406C65.6155 66.323 65.7097 66.2594 65.7551 66.219C66.1349 65.8807 66.8773 65.401 67.1966 65.2056L67.2325 65.1836L67.2747 65.1836C67.5767 65.1835 68.0777 65.208 68.6064 65.2813C69.1325 65.3543 69.6996 65.4774 70.1258 65.6805C70.4179 65.8197 70.6374 66.0779 70.799 66.3767C70.961 66.6764 71.0711 67.0283 71.1389 67.3743C71.2067 67.7208 71.2334 68.0673 71.2252 68.3593C71.2211 68.5053 71.2083 68.6399 71.1867 68.7555C71.1655 68.8686 71.1341 68.9735 71.0875 69.0533C70.7218 69.678 70.2853 70.1655 69.6963 70.8114C68.9202 71.6625 67.7519 71.9993 65.3312 72.5114C65.017 72.5779 64.5454 72.7033 63.9793 72.8539C63.6006 72.9546 63.1797 73.0666 62.7354 73.1796C61.6342 73.4598 60.3987 73.7441 59.353 73.8654L59.3435 73.8665L59.334 73.8664C59.2932 73.866 59.2528 73.8655 59.2129 73.8651C58.7198 73.8601 58.2966 73.8558 57.903 73.7671C57.4687 73.6692 57.0739 73.4703 56.6431 73.0729C56.4043 72.8527 56.2706 72.5166 56.2016 72.1416C56.132 71.7638 56.1245 71.3269 56.1542 70.8823C56.2138 69.9931 56.4246 69.0487 56.6167 68.4337L56.6786 68.2356ZM56.4959 72.0874C56.5598 72.4346 56.676 72.6962 56.846 72.853C57.2418 73.2181 57.5902 73.3899 57.9688 73.4752C58.33 73.5566 58.7216 73.5607 59.2262 73.566C59.2596 73.5663 59.2935 73.5667 59.3279 73.5671C60.3504 73.4476 61.5653 73.1685 62.6616 72.8896C63.0948 72.7794 63.511 72.6687 63.8887 72.5683C64.4633 72.4155 64.9487 72.2865 65.2693 72.2187C67.7149 71.7012 68.7762 71.3764 69.4752 70.6098C70.0663 69.9615 70.4817 69.4958 70.8292 68.9021C70.8506 68.8655 70.874 68.7994 70.8925 68.7005C70.9105 68.604 70.9223 68.4855 70.9261 68.3509C70.9336 68.0818 70.9089 67.7574 70.8452 67.4318C70.7813 67.1058 70.6794 66.7847 70.5357 66.519C70.3916 66.2524 70.2117 66.0529 69.9971 65.9507C69.6128 65.7676 69.0821 65.6495 68.5653 65.5778C68.0752 65.5098 67.6097 65.4851 67.3168 65.483C66.9812 65.6902 66.2987 66.1356 65.9542 66.4425C65.8844 66.5046 65.767 66.5811 65.6249 66.6642C65.4798 66.7492 65.2993 66.8468 65.0963 66.9512C64.69 67.1601 64.189 67.3987 63.6916 67.6223C63.1944 67.8458 62.6987 68.0552 62.303 68.2052C62.1054 68.2801 61.9305 68.3411 61.7919 68.3817C61.7227 68.402 61.66 68.4179 61.6067 68.4277C61.5581 68.4367 61.5008 68.444 61.4506 68.4359C61.4263 68.4319 61.3562 68.4327 61.23 68.444C61.1108 68.4548 60.9578 68.4732 60.7799 68.4967C60.6021 68.5201 60.4103 68.547 60.206 68.5757C59.9893 68.6061 59.7586 68.6385 59.5159 68.6708C59.0562 68.7319 58.5828 68.7884 58.1787 68.8157C57.9767 68.8294 57.7898 68.8359 57.6293 68.8316C57.4715 68.8275 57.3285 68.8128 57.2199 68.7789C56.9414 68.6919 56.8755 68.6898 56.8632 68.6894L56.863 68.6894L56.8588 68.6893C56.8573 68.6893 56.8549 68.6892 56.8524 68.6891C56.6807 69.2828 56.5054 70.1172 56.4528 70.9023C56.424 71.3332 56.4325 71.743 56.4959 72.0874Z" fill="black"/>
<path d="M62.6324 65.8232C62.6419 66.325 63.1281 67.2527 64.378 67.8648C64.5572 67.433 66.3817 65.8856 67.2084 65.3679C67.02 64.8472 66.363 63.8513 65.8984 63.3515C65.3176 62.7267 62.6228 65.3214 62.6324 65.8232Z" fill="#A1086D"/>
<path fill-rule="evenodd" clip-rule="evenodd" d="M62.7844 65.806C62.782 65.816 62.7819 65.8204 62.7819 65.8204C62.7819 65.8204 62.7819 65.8204 62.7819 65.8203C62.7897 66.2342 63.1971 67.0737 64.3198 67.6674C64.3441 67.6324 64.3715 67.5966 64.4008 67.5605C64.4734 67.471 64.5661 67.3695 64.6725 67.2607C64.8854 67.0429 65.1594 66.79 65.4521 66.5356C65.9898 66.0685 66.6001 65.5888 67.0237 65.3089C66.9213 65.0717 66.7415 64.7552 66.5316 64.4337C66.2884 64.0613 66.0132 63.6949 65.7886 63.4534C65.7585 63.421 65.7063 63.3972 65.6047 63.4067C65.5012 63.4164 65.367 63.46 65.2072 63.538C64.8893 63.6933 64.5092 63.9657 64.1408 64.2789C63.7735 64.591 63.4252 64.9373 63.1705 65.2347C63.043 65.3837 62.9413 65.5176 62.8728 65.6268C62.8385 65.6815 62.8142 65.7272 62.7991 65.7634C62.7916 65.7814 62.787 65.7955 62.7844 65.806ZM65.5768 63.1088C65.7337 63.094 65.8927 63.1258 66.0078 63.2496C66.248 63.5079 66.5336 63.8894 66.7822 64.2701C67.0296 64.649 67.2487 65.0399 67.349 65.317L67.3901 65.4306L67.2877 65.4948C66.8841 65.7475 66.2281 66.2579 65.6484 66.7616C65.3592 67.0128 65.0918 67.26 64.8864 67.4699C64.7837 67.575 64.6979 67.6693 64.6332 67.749C64.5662 67.8316 64.5298 67.8891 64.5161 67.9221L64.455 68.0692L64.312 67.9992C63.029 67.3709 62.4936 66.4008 62.4826 65.826C62.4815 65.7644 62.5003 65.7024 62.5229 65.6483C62.5465 65.5917 62.5797 65.5308 62.6193 65.4677C62.6986 65.3414 62.8104 65.1952 62.9432 65.0401C63.2093 64.7294 63.5691 64.372 63.947 64.0508C64.3236 63.7307 64.7255 63.4402 65.0759 63.2691C65.2503 63.1839 65.4218 63.1233 65.5768 63.1088Z" fill="black"/>
<path d="M56.3326 70.6816C56.329 70.6316 56.3317 70.5894 56.3379 70.5575C56.3361 70.5955 56.3343 70.6371 56.3326 70.6816C56.3465 70.8774 56.456 71.1937 56.8241 71.4853C57.4017 71.9428 58.1087 72.1636 58.3171 72.5612C58.5254 72.9588 59.0862 72.9184 59.6954 73.2749C60.1827 73.5601 60.0363 73.6031 59.8027 73.641C59.1999 73.619 58.4479 73.8103 57.9354 73.6059C57.2947 73.3504 56.6192 73.0286 56.4424 72.53C56.3119 72.162 56.3128 71.2122 56.3326 70.6816Z" fill="#A1086D"/>
<path fill-rule="evenodd" clip-rule="evenodd" d="M56.1828 70.6837C56.1794 70.6265 56.1823 70.5739 56.1911 70.529L56.4874 70.5649C56.4857 70.5998 56.484 70.6379 56.4825 70.6786C56.4957 70.8326 56.5863 71.106 56.9171 71.368C57.1394 71.5441 57.3801 71.6828 57.6122 71.8165C57.6705 71.8501 57.7283 71.8833 57.7851 71.9168C58.0543 72.0755 58.3226 72.2494 58.4496 72.4918C58.5242 72.6341 58.6631 72.7081 58.905 72.7921C58.9468 72.8066 58.9913 72.8213 59.038 72.8367C59.25 72.9067 59.5079 72.9918 59.771 73.1458C59.8952 73.2184 59.9871 73.2803 60.0491 73.3344C60.08 73.3614 60.109 73.3913 60.1306 73.4246C60.1519 73.4574 60.174 73.5061 60.1684 73.5649C60.1624 73.6277 60.1279 73.6722 60.0949 73.6993C60.0643 73.7244 60.0299 73.7394 60.0031 73.7489C59.9495 73.7679 59.8835 73.7795 59.8268 73.7887L59.8121 73.791L59.7973 73.7905C59.5963 73.7832 59.3824 73.8003 59.1571 73.8183C59.0551 73.8265 58.9507 73.8349 58.8442 73.8412C58.5159 73.8608 58.1699 73.8605 57.88 73.7449C57.5581 73.6165 57.2178 73.4679 56.9339 73.2849C56.6521 73.1033 56.4062 72.8754 56.3014 72.58C56.2275 72.3715 56.1952 72.0201 56.1816 71.6726C56.168 71.3213 56.173 70.951 56.1828 70.6837ZM56.4733 71.3531C56.4744 71.4554 56.4767 71.5591 56.4807 71.6609C56.4944 72.013 56.5269 72.3204 56.5835 72.48C56.6555 72.6832 56.8357 72.8655 57.096 73.0333C57.3542 73.1998 57.672 73.3398 57.9908 73.4669C58.2134 73.5557 58.4998 73.562 58.8263 73.5425C58.9186 73.537 59.0148 73.5293 59.1125 73.5215C59.3288 73.5042 59.5527 73.4863 59.7585 73.4901C59.7216 73.4654 59.6759 73.4369 59.6198 73.404C59.3867 73.2676 59.1643 73.194 58.9538 73.1242C58.9041 73.1078 58.8552 73.0916 58.8069 73.0748C58.564 72.9905 58.3183 72.886 58.1846 72.6307C58.1032 72.4755 57.9139 72.3401 57.6331 72.1746C57.5815 72.1442 57.5273 72.113 57.4713 72.0808C57.2377 71.9463 56.9727 71.7939 56.7312 71.6026C56.6283 71.5211 56.5432 71.437 56.4733 71.3531Z" fill="black"/>
<path d="M66.2121 71.0425C65.3664 71.6208 60.2264 71.8704 57.7984 72.0728C57.8447 72.1612 58.0914 72.6964 58.4171 72.9311C58.8243 73.2245 59.1936 73.2845 59.2347 73.6853C60.071 73.6693 64.202 72.6871 66.6004 72.106C68.9989 71.5249 69.1566 71.0199 69.5195 70.7453C69.8824 70.4707 70.7311 69.3502 70.9268 69.0787C71.0833 68.8616 70.9202 67.5617 70.8191 66.939C70.8888 68.8452 67.2692 70.3196 66.2121 71.0425Z" fill="#FFBEE9"/>
<path fill-rule="evenodd" clip-rule="evenodd" d="M57.5612 71.9424L57.786 71.9237C58.2467 71.8853 58.8013 71.8454 59.4045 71.8021C60.4005 71.7305 61.5288 71.6494 62.5846 71.5497C63.4305 71.4698 64.2239 71.3785 64.8572 71.2715C65.174 71.218 65.4481 71.161 65.6675 71.1003C65.8908 71.0386 66.0434 70.9766 66.1277 70.919C66.3578 70.7617 66.7039 70.5708 67.097 70.3541C67.1683 70.3147 67.2412 70.2745 67.3153 70.2335C67.8017 69.9641 68.3461 69.6552 68.8543 69.3106C69.3634 68.9655 69.8291 68.5891 70.1622 68.1872C70.4953 67.7852 70.6852 67.3706 70.6696 66.9445L70.9669 66.915C71.0178 67.229 71.0845 67.7139 71.1188 68.1492C71.1359 68.3664 71.1452 68.575 71.1398 68.7451C71.1371 68.83 71.1307 68.9089 71.1186 68.9764C71.1073 69.0392 71.0881 69.1109 71.0482 69.1662C70.9488 69.3042 70.686 69.6544 70.4022 70.005C70.2603 70.1803 70.1122 70.3569 69.976 70.5075C69.8418 70.656 69.7127 70.7868 69.6098 70.8646C69.5548 70.9063 69.5084 70.9508 69.4503 71.0065C69.4205 71.035 69.3876 71.0666 69.3489 71.1022C69.2402 71.2023 69.1036 71.3158 68.9009 71.4387C68.4979 71.6831 67.8423 71.9591 66.6357 72.2514C65.4364 72.542 63.8029 72.9331 62.3644 73.2536C61.6452 73.4139 60.9738 73.5567 60.4292 73.6605C59.8896 73.7634 59.4617 73.8306 59.2376 73.8349L59.0999 73.8375L59.0859 73.7005C59.0714 73.5592 59.0057 73.4785 58.8786 73.3913C58.8206 73.3516 58.7549 73.314 58.6772 73.2695C58.664 73.2619 58.6504 73.2541 58.6364 73.2461C58.543 73.1925 58.438 73.1306 58.3297 73.0525C58.1424 72.9175 57.9867 72.7044 57.8759 72.526C57.783 72.3764 57.7134 72.2369 57.681 72.1722C57.6744 72.1589 57.6693 72.1487 57.6659 72.1423L57.5612 71.9424ZM58.0346 72.2037C58.0619 72.2538 58.0939 72.3096 58.1302 72.3681C58.2357 72.5381 58.3663 72.71 58.5047 72.8097C58.6 72.8784 58.6939 72.934 58.7855 72.9866C58.7983 72.994 58.8111 73.0013 58.824 73.0087C58.901 73.0527 58.9789 73.0972 59.0479 73.1445C59.1839 73.2378 59.3006 73.3526 59.3552 73.5282C59.5739 73.5087 59.9252 73.4519 60.3732 73.3665C60.9133 73.2635 61.5814 73.1215 62.2993 72.9615C63.735 72.6417 65.3662 72.2511 66.5653 71.9606C67.7571 71.6718 68.3796 71.4048 68.7458 71.1828C68.9277 71.0725 69.0485 70.9719 69.1463 70.8819C69.1736 70.8569 69.2008 70.8308 69.2282 70.8046C69.2937 70.7419 69.36 70.6784 69.4292 70.626C69.5078 70.5665 69.6209 70.4542 69.754 70.3069C69.8852 70.1617 70.0295 69.9897 70.1696 69.8167C70.4499 69.4704 70.7093 69.1247 70.8054 68.9912C70.8053 68.9913 70.8054 68.9912 70.8056 68.9909C70.8069 68.9882 70.8157 68.97 70.824 68.9235C70.8325 68.8759 70.8382 68.8128 70.8407 68.7356C70.8456 68.5815 70.8372 68.3854 70.8204 68.1727C70.8103 68.0445 70.7973 67.9115 70.7827 67.7799C70.6837 67.9887 70.5499 68.1883 70.3926 68.3782C70.0336 68.8114 69.5414 69.2063 69.0222 69.5583C68.5021 69.911 67.9476 70.2254 67.4603 70.4953C67.3844 70.5374 67.3103 70.5782 67.2384 70.6179C66.844 70.8354 66.5137 71.0176 66.2966 71.166C66.1694 71.253 65.9765 71.3254 65.7473 71.3888C65.5142 71.4532 65.229 71.5122 64.9071 71.5666C64.2629 71.6754 63.461 71.7675 62.6127 71.8476C61.5556 71.9474 60.4173 72.0293 59.4175 72.1012C58.9116 72.1376 58.4411 72.1714 58.0346 72.2037Z" fill="black"/>
<path d="M67.2341 68.4797C66.391 69.1918 66.5759 70.2324 66.7737 70.6637C67.548 70.3143 68.8463 69.5516 69.5854 68.9369C70.409 68.2519 70.7434 67.6543 70.8917 67.2388C70.8875 67.0157 70.7704 66.4915 70.3361 66.1785C69.7932 65.7872 68.2881 67.5895 67.2341 68.4797Z" fill="#F7F3F8"/>
<path fill-rule="evenodd" clip-rule="evenodd" d="M68.1911 67.7971C67.8939 68.0846 67.5986 68.3677 67.3307 68.594C66.6408 69.1767 66.7012 70.0058 66.8546 70.4612C67.6286 70.0924 68.8065 69.3901 69.4897 68.8219C70.2762 68.1678 70.5976 67.603 70.741 67.2153C70.7288 67.0065 70.6149 66.5639 70.2486 66.2999C70.2199 66.2792 70.1788 66.267 70.1113 66.2766C70.041 66.2867 69.9514 66.3195 69.8423 66.3791C69.6242 66.4983 69.3628 66.7051 69.0763 66.9603C68.818 67.1903 68.5465 67.4532 68.2755 67.7155C68.2474 67.7427 68.2192 67.7699 68.1911 67.7971ZM70.069 65.9804C70.1918 65.9629 70.3165 65.9799 70.4236 66.0571C70.9096 66.4073 71.0365 66.9854 71.0413 67.2359L71.0418 67.2633L71.0326 67.2891C70.8746 67.7319 70.5236 68.3513 69.6811 69.052C68.9295 69.677 67.619 70.4464 66.8353 70.8001L66.6997 70.8613L66.6377 70.7261C66.4271 70.267 66.2197 69.1406 67.1376 68.3654C67.3966 68.1466 67.6847 67.8706 67.9831 67.582C68.0112 67.5548 68.0395 67.5274 68.0678 67.5C68.3379 67.2386 68.614 66.9713 68.8772 66.7368C69.1666 66.4791 69.4491 66.253 69.6988 66.1165C69.8236 66.0483 69.949 65.9975 70.069 65.9804Z" fill="black"/>
<path d="M67.3757 65.3648L64.7787 67.8237C64.9868 67.7147 65.4507 67.922 65.552 68.0098L68.1805 65.4498L67.3757 65.3648Z" fill="#C5C1C8"/>
<path fill-rule="evenodd" clip-rule="evenodd" d="M67.3229 65.2087L68.5133 65.3345L65.5579 68.2129L65.454 68.1228C65.4434 68.1137 65.4093 68.091 65.3515 68.0625C65.2968 68.0356 65.2298 68.0077 65.1601 67.9855C65.0897 67.9632 65.0211 67.948 64.9621 67.9436C64.9005 67.9391 64.8648 67.9475 64.8482 67.9562L64.6758 67.715L67.3229 65.2087ZM65.1551 67.6734C65.1877 67.6813 65.2198 67.6905 65.2508 67.7003C65.3357 67.7273 65.4166 67.761 65.4839 67.7941C65.5005 67.8023 65.5169 67.8108 65.5329 67.8195L67.8476 65.5651L67.4285 65.5208L65.1551 67.6734Z" fill="black"/>
<path d="M68.616 65.475L65.8199 68.1987C66.032 68.0876 66.4457 68.372 66.5651 68.4924L67.9405 67.0875L69.3545 65.5948L68.616 65.475Z" fill="#C5C1C8"/>
<path fill-rule="evenodd" clip-rule="evenodd" d="M68.5656 65.3152L69.6576 65.4924L68.0484 67.1913L66.5658 68.7056L66.4589 68.5978C66.4118 68.5503 66.2922 68.4584 66.1605 68.3927C66.0953 68.3601 66.0339 68.3375 65.9821 68.328C65.9289 68.3182 65.9013 68.3251 65.8894 68.3313L65.7155 68.0916L68.5656 65.3152ZM66.1668 68.0698C66.2108 68.0857 66.2537 68.1047 66.2941 68.1249C66.3901 68.1728 66.4821 68.2324 66.5557 68.2882L67.8328 66.9837L69.0514 65.6972L68.6664 65.6348L66.1668 68.0698Z" fill="black"/>
<path d="M56.1125 67.8883L57.8358 68.759C58.1262 68.7758 59.0161 68.5291 59.2055 68.6326C59.3948 68.736 58.7175 69.3669 58.4861 69.5163C58.2536 69.61 57.7495 69.8516 57.593 70.0688C57.3974 70.3402 57.4668 70.4728 57.8836 71.268C58.2169 71.9042 57.9868 72.0023 57.83 71.9718C57.6943 71.874 57.3623 71.6594 57.1199 71.5837C56.8775 71.508 56.4413 71.0947 56.3339 70.7286C56.3339 70.7286 56.5081 69.8603 56.441 69.321C56.3619 68.6867 56.1125 67.8883 56.1125 67.8883Z" fill="#F7F3F8"/>
<path fill-rule="evenodd" clip-rule="evenodd" d="M55.8641 67.5951L57.873 68.6102C57.9298 68.6095 58.0147 68.6001 58.1233 68.5838C58.2041 68.5716 58.2907 68.5569 58.3805 68.5415C58.4308 68.5329 58.4821 68.5242 58.534 68.5156C58.6755 68.4923 58.8195 68.4706 58.9415 68.4618C59.0025 68.4573 59.0619 68.4558 59.1151 68.4597C59.1649 68.4634 59.2252 68.4728 59.2771 68.5012C59.3124 68.5205 59.3434 68.5496 59.3638 68.5888C59.3836 68.6268 59.3889 68.6656 59.3879 68.6987C59.386 68.7605 59.3614 68.8186 59.3375 68.8636C59.2877 68.957 59.203 69.0616 59.1135 69.1586C58.9335 69.3538 58.6967 69.5584 58.5671 69.642L58.5551 69.6498L58.5419 69.6551C58.4308 69.6999 58.2528 69.7809 58.0849 69.8763C57.9101 69.9756 57.7716 70.0768 57.7143 70.1563C57.6705 70.2171 57.6511 70.2574 57.643 70.2924C57.6355 70.3252 57.635 70.3663 57.653 70.4329C57.6926 70.5792 57.8031 70.7922 58.016 71.1985C58.1029 71.3642 58.1568 71.502 58.1835 71.6167C58.2099 71.7301 58.2124 71.8327 58.1816 71.9198C58.1486 72.0129 58.0825 72.0738 58.0053 72.1037C57.9335 72.1315 57.8596 72.13 57.8014 72.1187L57.7691 72.1124L57.7425 72.0932C57.608 71.9963 57.2927 71.7945 57.0752 71.7265C56.9181 71.6775 56.7273 71.5337 56.5684 71.3689C56.4073 71.2016 56.2534 70.9862 56.1902 70.7707L56.1798 70.7353L56.1871 70.6992L56.1872 70.6987L56.1875 70.6971L56.1889 70.6902C56.1901 70.684 56.1918 70.6748 56.1941 70.6627C56.1986 70.6386 56.205 70.6034 56.2125 70.5594C56.2275 70.4712 56.2468 70.3482 56.264 70.2087C56.299 69.926 56.3236 69.5897 56.2924 69.3395C56.2541 69.0319 56.1738 68.681 56.1022 68.4043C56.0665 68.2665 56.0332 68.1483 56.0089 68.0646C55.9968 68.0228 55.9869 67.9897 55.9801 67.9671C55.9766 67.9558 55.974 67.9471 55.9722 67.9414L55.9702 67.9349L55.9696 67.9329L55.8641 67.5951ZM56.3513 68.1766C56.3642 68.224 56.3779 68.2751 56.3919 68.3292C56.4647 68.6103 56.5487 68.9758 56.5894 69.3025C56.6254 69.5916 56.5964 69.9591 56.561 70.2454C56.5431 70.3904 56.5231 70.5181 56.5075 70.6096C56.4997 70.6554 56.493 70.6922 56.4883 70.7177C56.4882 70.7182 56.4881 70.7187 56.488 70.7191C56.5386 70.8618 56.6498 71.0221 56.7839 71.1612C56.9306 71.3135 57.0791 71.4142 57.1644 71.4409C57.4122 71.5183 57.7301 71.7193 57.8843 71.8269C57.8905 71.8265 57.895 71.8255 57.8974 71.8246C57.8974 71.8245 57.8973 71.8246 57.8974 71.8246C57.8978 71.8237 57.8987 71.8222 57.8995 71.82C57.9041 71.8068 57.9114 71.7675 57.8921 71.6846C57.8731 71.6029 57.8308 71.4898 57.7509 71.3374L57.7374 71.3116C57.5412 70.9373 57.4135 70.6935 57.3641 70.511C57.3371 70.4112 57.3299 70.3185 57.3514 70.2253C57.3723 70.1342 57.4176 70.0562 57.4715 69.9813C57.5708 69.8436 57.7625 69.7153 57.937 69.6161C58.1115 69.517 58.2943 69.433 58.4159 69.3833C58.5218 69.3118 58.7302 69.1328 58.8935 68.9558C58.9633 68.88 59.0186 68.8114 59.0534 68.7567C59.0276 68.7566 58.9974 68.7577 58.9631 68.7602C58.856 68.768 58.7238 68.7876 58.5828 68.8109C58.5345 68.8189 58.4849 68.8273 58.4353 68.8358C58.3433 68.8515 58.2513 68.8672 58.1679 68.8797C58.0421 68.8987 57.9174 68.9136 57.8271 68.9084L57.796 68.9066L56.3513 68.1766Z" fill="black"/>
<path d="M57.8357 68.759L56.2482 67.9861L56.3272 68.6204L56.4568 70.1573L56.2108 71.2999L56.5393 72.7326L57.3916 73.553L58.8686 73.7926L60.3013 73.4642C59.9878 73.4032 59.3652 73.1607 59.3828 72.6785C59.4004 72.1962 59.8929 71.9325 60.137 71.861C60.1096 71.5937 59.9449 70.9142 59.5055 70.3336C59.0661 69.7529 59.0992 68.9134 59.1707 68.5663L57.8357 68.759Z" fill="#160E1B" fill-opacity="0.4"/>
<path d="M67.099 71.9292C67.2526 71.7924 67.4436 71.3939 67.3829 71.0202C67.3223 70.6466 67.468 70.2154 67.6289 69.8777C67.9854 69.2686 68.767 68.7911 69.2729 68.3405C69.7336 67.9301 69.9324 67.826 70.3899 67.2483C70.7559 66.7862 70.7221 66.6959 70.6939 66.6782L70.6802 66.6739C70.6802 66.6739 70.6869 66.6738 70.6939 66.6782L70.8822 66.737L71.0749 68.0719L70.9299 69.246L69.3554 70.9157C68.8726 71.3377 67.7454 72.1311 67.099 71.9292Z" fill="#160E1B" fill-opacity="0.4"/>
<path d="M49.9146 78.2416C49.0354 77.5604 49.2715 75.0122 49.5445 73.7722C49.736 73.8866 49.4825 73.7586 50.0612 73.886C50.7845 74.0453 53.8527 73.15 54.2258 73.1779C54.5988 73.2059 57.9979 71.3001 58.4217 70.8517C58.7607 70.493 59.449 69.9584 59.7508 69.7359C60.3398 69.685 61.7281 69.6621 62.5687 69.9772C63.6196 70.3712 63.9653 72.5634 63.7338 73.0507C63.4309 73.6882 63.0474 74.1997 62.5151 74.895C61.8496 75.7642 60.7674 76.1895 58.3874 76.9113C57.3548 77.2245 54.603 78.3531 52.561 78.7701C51.4594 78.8526 50.8036 78.9303 49.9146 78.2416Z" fill="#CA0B89"/>
<path fill-rule="evenodd" clip-rule="evenodd" d="M49.4431 73.5373L49.6213 73.6437C49.643 73.6567 49.6593 73.6667 49.6713 73.6741C49.73 73.6736 49.8364 73.6833 50.0934 73.7398C50.1631 73.7552 50.2735 73.7597 50.4236 73.7508C50.571 73.742 50.7466 73.7209 50.9418 73.6907C51.332 73.6304 51.7911 73.5352 52.2425 73.4351C52.4685 73.385 52.7007 73.3318 52.9195 73.2817C53.1262 73.2343 53.321 73.1897 53.4872 73.153C53.6634 73.1142 53.8191 73.0816 53.9433 73.0595C54.0606 73.0387 54.1683 73.0236 54.237 73.0287C54.2359 73.0286 54.236 73.0286 54.2376 73.0284C54.2421 73.0279 54.258 73.0259 54.29 73.0171C54.3287 73.0064 54.3793 72.9891 54.4416 72.9649C54.5659 72.9166 54.727 72.8446 54.9143 72.7545C55.2885 72.5745 55.7588 72.3264 56.2319 72.0627C56.7049 71.7991 57.1788 71.5211 57.5602 71.2815C57.751 71.1617 57.9175 71.0522 58.0486 70.9593C58.1827 70.8645 58.2712 70.7931 58.313 70.7489C58.6623 70.3793 59.3607 69.8376 59.6621 69.6154L59.696 69.5904L59.738 69.5868C60.0389 69.5608 60.5401 69.5422 61.0732 69.5699C61.6036 69.5974 62.1792 69.6714 62.6213 69.8371C62.9242 69.9507 63.1651 70.1891 63.3517 70.4729C63.5389 70.7576 63.6788 71.0988 63.776 71.4377C63.8734 71.777 63.9297 72.12 63.9466 72.4116C63.9551 72.5574 63.9538 72.6927 63.9422 72.8096C63.9308 72.9242 63.9086 73.0314 63.8689 73.1149C63.5583 73.7687 63.1653 74.2919 62.6339 74.9859C61.9337 75.9005 60.7986 76.3363 58.4309 77.0545C58.1236 77.1477 57.6644 77.3131 57.1134 77.5117C56.7447 77.6446 56.335 77.7923 55.902 77.9431C54.8289 78.3168 53.6224 78.7061 52.5909 78.9167L52.5816 78.9186L52.5722 78.9193C52.5314 78.9224 52.4911 78.9255 52.4513 78.9285C51.9596 78.9658 51.5376 78.9979 51.1379 78.9433C50.6968 78.8831 50.2863 78.7188 49.823 78.3598C49.5662 78.1609 49.4042 77.8375 49.3032 77.4698C49.2015 77.0994 49.1564 76.6647 49.1479 76.2193C49.1309 75.3282 49.2599 74.3692 49.3984 73.74L49.4431 73.5373ZM49.5918 77.3906C49.6853 77.731 49.8235 77.9816 50.0063 78.1233C50.4319 78.453 50.7939 78.5943 51.1783 78.6468C51.5452 78.6969 51.9357 78.6673 52.4389 78.6293C52.4722 78.6268 52.506 78.6242 52.5403 78.6216C53.5488 78.4148 54.7353 78.0325 55.8035 77.6604C56.2257 77.5134 56.6309 77.3674 56.9986 77.2349C57.5579 77.0334 58.0304 76.8632 58.344 76.7681C60.7362 76.0425 61.7656 75.6278 62.3963 74.804C62.9296 74.1074 63.3035 73.6077 63.5986 72.9865C63.6169 72.9481 63.6345 72.8802 63.6444 72.7801C63.6541 72.6824 63.6556 72.5633 63.6478 72.4289C63.6322 72.1602 63.5798 71.8391 63.4883 71.5202C63.3967 71.2009 63.2676 70.8897 63.1017 70.6373C62.9351 70.3841 62.7388 70.2008 62.5163 70.1173C62.1177 69.9679 61.5788 69.8958 61.0577 69.8687C60.5636 69.8431 60.0977 69.8585 59.8056 69.8815C59.4891 70.1168 58.8474 70.6191 58.5305 70.9544C58.4663 71.0223 58.3558 71.1086 58.2215 71.2036C58.0842 71.3008 57.9127 71.4135 57.7194 71.5349C57.3326 71.778 56.8539 72.0587 56.3776 72.3241C55.9013 72.5895 55.4254 72.8407 55.0441 73.0241C54.8537 73.1158 54.6847 73.1915 54.55 73.2439C54.4828 73.27 54.4218 73.2912 54.3695 73.3056C54.3219 73.3187 54.2654 73.331 54.2146 73.3271C54.1901 73.3253 54.1203 73.332 53.9956 73.3542C53.8777 73.3751 53.7269 73.4066 53.5517 73.4453C53.3766 73.4839 53.1877 73.5272 52.9866 73.5733C52.7734 73.6222 52.5463 73.6743 52.3072 73.7273C51.8546 73.8276 51.3877 73.9246 50.9875 73.9865C50.7874 74.0174 50.6017 74.0399 50.4414 74.0495C50.2839 74.0589 50.1401 74.0566 50.029 74.0321C49.7441 73.9694 49.6783 73.9729 49.666 73.9736L49.6658 73.9736L49.6615 73.9739C49.6601 73.974 49.6577 73.9741 49.6552 73.9742C49.535 74.5804 49.4321 75.4268 49.4471 76.2136C49.4553 76.6453 49.499 77.0529 49.5918 77.3906Z" fill="black"/>
<path d="M55.1677 70.6226C55.2203 71.1218 55.7843 72.0044 57.0821 72.5068C57.2236 72.0613 58.9085 70.363 59.6878 69.7762C59.4554 69.2736 58.7153 68.3378 58.2094 67.8797C57.5771 67.3071 55.1151 70.1235 55.1677 70.6226Z" fill="#A2086D"/>
<path fill-rule="evenodd" clip-rule="evenodd" d="M55.3179 70.5924C55.3163 70.6026 55.3166 70.607 55.3165 70.607C55.3165 70.607 55.3165 70.607 55.3165 70.6069C55.3599 71.0187 55.8379 71.82 57.0074 72.3151C57.0286 72.2782 57.0528 72.2402 57.0789 72.2017C57.1436 72.1063 57.2272 71.9972 57.3238 71.8797C57.5173 71.6444 57.7685 71.3689 58.0383 71.0904C58.534 70.5788 59.1008 70.0485 59.4988 69.7332C59.3765 69.5057 59.1701 69.2058 58.9334 68.9035C58.6591 68.5533 58.3534 68.2119 58.109 67.9906C58.0762 67.9609 58.0222 67.9417 57.9218 67.9599C57.8194 67.9785 57.6895 68.0334 57.537 68.1248C57.2336 68.3068 56.8783 68.6109 56.5381 68.9545C56.199 69.297 55.8817 69.672 55.6535 69.9902C55.5392 70.1495 55.4494 70.2917 55.3905 70.4063C55.361 70.4638 55.3408 70.5114 55.3288 70.5488C55.3229 70.5674 55.3195 70.5818 55.3179 70.5924ZM57.8683 67.6654C58.0234 67.6373 58.1846 67.6553 58.3099 67.7688C58.5713 68.0055 58.8886 68.3611 59.169 68.719C59.448 69.0752 59.6999 69.4459 59.8236 69.7134L59.8743 69.8231L59.7778 69.8957C59.3973 70.1822 58.7876 70.7471 58.2533 71.2986C57.9868 71.5737 57.7415 71.8429 57.555 72.0698C57.4616 72.1833 57.3843 72.2846 57.3267 72.3696C57.267 72.4576 57.2356 72.5181 57.2248 72.5521L57.1766 72.7039L57.0281 72.6464C55.6959 72.1306 55.0792 71.21 55.0189 70.6383C55.0125 70.577 55.0259 70.5136 55.0437 70.4578C55.0624 70.3994 55.0903 70.3359 55.1243 70.2696C55.1924 70.137 55.2913 69.9817 55.4103 69.8157C55.6487 69.4833 55.9765 69.0964 56.3254 68.744C56.6731 68.3927 57.0487 68.0688 57.383 67.8682C57.5495 67.7683 57.7152 67.6932 57.8683 67.6654Z" fill="black"/>
<path d="M49.3084 76.004C49.3006 75.9545 49.2996 75.9122 49.3031 75.8799C49.3045 75.9179 49.3062 75.9595 49.3084 76.004C49.3391 76.1979 49.4753 76.5036 49.8671 76.7625C50.4819 77.1688 51.2052 77.328 51.4469 77.7063C51.6886 78.0846 52.2439 77.9961 52.8814 78.299C53.3914 78.5413 53.2492 78.5967 53.0198 78.6545C52.4174 78.6844 51.6846 78.9396 51.1563 78.7799C50.496 78.5803 49.7955 78.3177 49.5765 77.8361C49.4149 77.4807 49.3342 76.5343 49.3084 76.004Z" fill="#A2086D"/>
<path fill-rule="evenodd" clip-rule="evenodd" d="M49.1592 76.0189C49.1509 75.9622 49.1493 75.9095 49.1542 75.8641L49.4525 75.8744C49.4538 75.9093 49.4554 75.9474 49.4574 75.9881C49.4837 76.1405 49.5975 76.405 49.9495 76.6377C50.1862 76.7941 50.4378 76.9115 50.6806 77.0248C50.7416 77.0533 50.802 77.0814 50.8615 77.1099C51.1433 77.2449 51.4256 77.3951 51.5729 77.6257C51.6594 77.7611 51.8042 77.8229 52.0524 77.8858C52.0953 77.8967 52.1409 77.9075 52.1887 77.9189C52.406 77.9704 52.6702 78.033 52.9456 78.1638C53.0755 78.2256 53.1725 78.2793 53.2388 78.3279C53.2719 78.3522 53.3034 78.3795 53.3278 78.4107C53.3518 78.4416 53.378 78.4882 53.3775 78.5473C53.3769 78.6104 53.3464 78.6577 53.3158 78.6875C53.2875 78.7152 53.2545 78.733 53.2286 78.7448C53.1768 78.7684 53.112 78.7855 53.0563 78.7996L53.0419 78.8032L53.0271 78.8039C52.8262 78.8139 52.6146 78.8493 52.3916 78.8866C52.2907 78.9035 52.1875 78.9208 52.0819 78.9363C51.7565 78.984 51.4118 79.0134 51.113 78.9231C50.7813 78.8229 50.4294 78.704 50.1309 78.546C49.8346 78.3893 49.5699 78.1833 49.4402 77.898C49.3487 77.6967 49.2863 77.3493 49.243 77.0043C49.1992 76.6555 49.1724 76.2861 49.1592 76.0189ZM49.5061 76.661C49.516 76.7628 49.5272 76.8659 49.5399 76.967C49.5838 77.3165 49.6426 77.6201 49.7126 77.7742C49.8019 77.9705 49.997 78.1366 50.2708 78.2815C50.5424 78.4251 50.8709 78.5373 51.1995 78.6367C51.429 78.706 51.7147 78.6877 52.0385 78.6402C52.1299 78.6268 52.225 78.6109 52.3217 78.5947C52.5358 78.5589 52.7573 78.5219 52.9627 78.508C52.9238 78.4865 52.8758 78.462 52.8171 78.4341C52.5731 78.3182 52.3452 78.2639 52.1295 78.2126C52.0786 78.2004 52.0285 78.1885 51.9789 78.1759C51.7297 78.1128 51.476 78.0297 51.3208 77.7869C51.2264 77.6392 51.0261 77.5206 50.7322 77.3798C50.6781 77.3539 50.6214 77.3275 50.5629 77.3002C50.3186 77.1864 50.0416 77.0572 49.7845 76.8873C49.675 76.815 49.583 76.7386 49.5061 76.661Z" fill="black"/>
<path d="M59.1823 75.5153C58.3894 76.1641 53.2898 76.8541 50.8882 77.2642C50.9419 77.3482 51.2336 77.8603 51.5783 78.0662C52.0092 78.3236 52.3822 78.3516 52.4576 78.7474C53.2894 78.6597 57.3209 77.3265 59.6605 76.5416C62.0002 75.7567 62.114 75.24 62.452 74.9353C62.7899 74.6305 63.5394 73.4412 63.711 73.154C63.8483 72.9242 63.5742 71.6432 63.42 71.0314C63.6532 72.9246 60.1735 74.7044 59.1823 75.5153Z" fill="#FFBEE9"/>
<path fill-rule="evenodd" clip-rule="evenodd" d="M50.6406 77.1547L50.863 77.1167C51.3186 77.0389 51.8678 76.9515 52.465 76.8566C53.4512 76.6997 54.5684 76.522 55.6117 76.3321C56.4477 76.1798 57.2303 76.0207 57.8521 75.8598C58.1631 75.7793 58.4313 75.699 58.6447 75.6197C58.8618 75.539 59.0086 75.4642 59.0876 75.3995C59.3033 75.223 59.6318 75.0031 60.0048 74.7535C60.0725 74.7081 60.1417 74.6618 60.2119 74.6146C60.6735 74.3044 61.1893 73.9499 61.666 73.563C62.1436 73.1754 62.5753 72.7604 62.8726 72.3314C63.17 71.9023 63.3236 71.4729 63.2715 71.0497L63.5651 70.9948C63.6429 71.3033 63.7509 71.7807 63.8224 72.2114C63.8581 72.4264 63.8853 72.6334 63.8945 72.8033C63.8991 72.8881 63.8995 72.9673 63.8932 73.0356C63.8874 73.0991 63.8744 73.1722 63.8394 73.2307C63.7522 73.3768 63.5204 73.7483 63.2678 74.1219C63.1415 74.3087 63.0091 74.4974 62.8864 74.6592C62.7654 74.8186 62.648 74.96 62.5522 75.0464C62.5009 75.0926 62.4585 75.1409 62.4054 75.2014C62.3782 75.2324 62.3482 75.2667 62.3127 75.3055C62.2129 75.4145 62.0866 75.5394 61.8952 75.6792C61.5146 75.9573 60.8852 76.2886 59.7081 76.6834C58.5382 77.0759 56.9443 77.6058 55.5386 78.0486C54.8358 78.27 54.1791 78.47 53.6455 78.6201C53.1167 78.769 52.6962 78.8727 52.4733 78.8962L52.3363 78.9106L52.3106 78.7754C52.284 78.6358 52.2117 78.561 52.0775 78.4851C52.0164 78.4505 51.9476 78.4186 51.8664 78.381C51.8526 78.3746 51.8384 78.368 51.8238 78.3612C51.7261 78.3158 51.6162 78.2631 51.5016 78.1947C51.3033 78.0762 51.13 77.8773 51.0043 77.7091C50.8989 77.568 50.8175 77.435 50.7797 77.3733C50.7719 77.3606 50.766 77.3509 50.7621 77.3448L50.6406 77.1547ZM51.1346 77.3744C51.1662 77.4219 51.2028 77.4748 51.244 77.5299C51.3638 77.6902 51.5086 77.8503 51.6551 77.9377C51.7559 77.998 51.8542 78.0453 51.95 78.0899C51.9634 78.0961 51.9768 78.1023 51.9903 78.1086C52.0707 78.1458 52.1522 78.1835 52.225 78.2247C52.3685 78.306 52.4946 78.4103 52.5641 78.5806C52.7803 78.5423 53.1255 78.4556 53.5644 78.3321C54.0938 78.1831 54.7471 77.9842 55.4487 77.7632C56.8516 77.3213 58.4433 76.7921 59.613 76.3997C60.7756 76.0097 61.3729 75.6902 61.7186 75.4376C61.8904 75.312 62.0021 75.2015 62.0919 75.1034C62.1169 75.0761 62.1418 75.0478 62.1668 75.0193C62.2267 74.9512 62.2873 74.8823 62.3518 74.8241C62.425 74.7581 62.528 74.6365 62.6479 74.4783C62.7661 74.3225 62.8952 74.1387 63.0199 73.9542C63.2694 73.5852 63.4982 73.2184 63.5825 73.0773C63.5825 73.0774 63.5825 73.0773 63.5826 73.0769C63.5837 73.0741 63.5909 73.0552 63.5952 73.0082C63.5996 72.96 63.5999 72.8967 63.5957 72.8195C63.5873 72.6656 63.5621 72.4709 63.5272 72.2605C63.5061 72.1336 63.4817 72.0022 63.4559 71.8724C63.3751 72.0889 63.259 72.2993 63.1186 72.5019C62.7981 72.9644 62.3417 73.4 61.8546 73.7954C61.3666 74.1914 60.8412 74.5522 60.3789 74.863C60.3069 74.9114 60.2366 74.9584 60.1683 75.0041C59.7941 75.2547 59.4806 75.4646 59.2771 75.6311C59.1578 75.7287 58.9718 75.8174 58.7489 75.9002C58.5222 75.9844 58.2432 76.0677 57.9271 76.1495C57.2946 76.3132 56.5036 76.4739 55.6653 76.6265C54.6207 76.8167 53.4936 76.996 52.5037 77.1535C52.0027 77.2332 51.5369 77.3073 51.1346 77.3744Z" fill="black"/>
<path d="M59.9806 72.8743C59.2017 73.6561 59.4753 74.677 59.7094 75.0897C60.4508 74.6752 61.6789 73.8038 62.3624 73.1279C63.1242 72.3747 63.4061 71.7507 63.5181 71.3239C63.4947 71.1021 63.3331 70.5898 62.8735 70.3152C62.299 69.972 60.9542 71.8969 59.9806 72.8743Z" fill="#F7F3F8"/>
<path fill-rule="evenodd" clip-rule="evenodd" d="M60.8755 72.112C60.604 72.424 60.3342 72.7314 60.0867 72.9799C59.4494 73.6196 59.5807 74.4405 59.7727 74.881C60.5121 74.4471 61.6254 73.6463 62.2573 73.0215C62.9847 72.3023 63.2564 71.712 63.3661 71.3134C63.3359 71.1065 63.1845 70.6752 62.7968 70.4437C62.7665 70.4255 62.7245 70.4169 62.658 70.4323C62.5888 70.4483 62.5024 70.4887 62.3989 70.5575C62.1918 70.695 61.9491 70.9234 61.6855 71.2023C61.448 71.4537 61.2 71.7389 60.9525 72.0235C60.9269 72.053 60.9012 72.0825 60.8755 72.112ZM62.5905 70.1408C62.7113 70.1128 62.837 70.1191 62.9503 70.1867C63.4646 70.494 63.6407 71.059 63.667 71.3082L63.6699 71.3354L63.6629 71.3619C63.5435 71.8167 63.2469 72.4639 62.4677 73.2343C61.7726 73.9216 60.533 74.8006 59.7825 75.2203L59.6527 75.2929L59.5793 75.1636C59.3301 74.7242 59.0267 73.6198 59.8747 72.7686C60.1139 72.5284 60.3773 72.2287 60.6498 71.9156C60.6755 71.886 60.7013 71.8564 60.7271 71.8266C60.9738 71.5429 61.2259 71.2529 61.468 70.9967C61.7342 70.7151 61.9963 70.4656 62.2333 70.3082C62.3519 70.2295 62.4724 70.1681 62.5905 70.1408Z" fill="black"/>
<path d="M59.8542 69.7586L57.478 72.4315C57.6759 72.305 58.156 72.4717 58.2643 72.5505L60.6633 69.7743L59.8542 69.7586Z" fill="#C5C1C8"/>
<path fill-rule="evenodd" clip-rule="evenodd" d="M59.7882 69.6077L60.985 69.6309L58.2876 72.7523L58.1764 72.6715C58.1651 72.6633 58.1292 72.6437 58.0691 72.6202C58.0123 72.5981 57.9432 72.5761 57.8718 72.56C57.7998 72.5437 57.7301 72.5345 57.6709 72.5352C57.6092 72.536 57.5744 72.5474 57.5585 72.5575L57.3661 72.332L59.7882 69.6077ZM57.84 72.2494C57.8732 72.2545 57.906 72.2609 57.9376 72.268C58.0246 72.2876 58.1081 72.3142 58.178 72.3415C58.1952 72.3482 58.2123 72.3552 58.2289 72.3625L60.3416 69.9177L59.9202 69.9096L57.84 72.2494Z" fill="black"/>
<path d="M61.0994 69.762L58.5476 72.7157C58.7493 72.5868 59.1859 72.8346 59.3152 72.9444L60.5649 71.4265L61.8455 69.8179L61.0994 69.762Z" fill="#C5C1C8"/>
<path fill-rule="evenodd" clip-rule="evenodd" d="M61.0354 69.6072L62.1387 69.6899L60.6812 71.5207L59.3341 73.1568L59.2183 73.0585C59.1674 73.0152 59.0403 72.9339 58.9034 72.8797C58.8357 72.8529 58.7725 72.8356 58.7201 72.8306C58.6663 72.8255 58.6394 72.8346 58.6281 72.8419L58.4343 72.6179L61.0354 69.6072ZM58.882 72.5575C58.9272 72.5696 58.9715 72.5848 59.0135 72.6014C59.1133 72.6409 59.2101 72.6924 59.2882 72.7417L60.4486 71.3324L61.5522 69.946L61.1633 69.9169L58.882 72.5575Z" fill="black"/>
<path d="M48.8492 73.2399L50.6409 73.9595C50.9316 73.9512 51.797 73.629 51.9946 73.7159C52.1922 73.8027 51.5715 74.4894 51.3537 74.6582C51.1302 74.7714 50.6487 75.0554 50.5114 75.2852C50.3398 75.5725 50.4204 75.6986 50.9039 76.4551C51.2906 77.0603 51.0697 77.1778 50.911 77.1609C50.7673 77.0751 50.4181 76.8898 50.1701 76.8352C49.9221 76.7806 49.452 76.4062 49.3136 76.0507C49.3136 76.0507 49.4127 75.1707 49.2994 74.6391C49.1662 74.0139 48.8492 73.2399 48.8492 73.2399Z" fill="#F7F3F8"/>
<path fill-rule="evenodd" clip-rule="evenodd" d="M48.5765 72.9691L50.6652 73.808C50.7218 73.8025 50.8055 73.7858 50.9123 73.7602C50.9918 73.7411 51.0768 73.719 51.165 73.696C51.2143 73.6831 51.2647 73.67 51.3157 73.657C51.4546 73.6216 51.5962 73.5877 51.717 73.5684C51.7774 73.5587 51.8365 73.5521 51.8898 73.5514C51.9397 73.5508 52.0006 73.555 52.0548 73.5789C52.0916 73.5951 52.125 73.6214 52.1486 73.6586C52.1716 73.6948 52.1803 73.7331 52.1821 73.7661C52.1855 73.8279 52.166 73.8879 52.146 73.9347C52.1045 74.0321 52.029 74.1436 51.9482 74.2479C51.7856 74.4579 51.5673 74.6819 51.4454 74.7764L51.4341 74.7852L51.4213 74.7916C51.3145 74.8458 51.1441 74.9418 50.985 75.0513C50.8194 75.1652 50.6901 75.2779 50.6399 75.362C50.6014 75.4264 50.5855 75.4681 50.5805 75.5037C50.5758 75.537 50.5789 75.578 50.6025 75.6429C50.6545 75.7852 50.7829 75.988 51.0299 76.3745C51.1307 76.5321 51.1963 76.6647 51.2327 76.7767C51.2688 76.8875 51.28 76.9895 51.2568 77.0789C51.232 77.1745 51.1713 77.2409 51.0969 77.2772C51.0278 77.3111 50.954 77.3159 50.8951 77.3097L50.8624 77.3062L50.8342 77.2893C50.6919 77.2043 50.3605 77.0303 50.1379 76.9813C49.9772 76.946 49.7747 76.8191 49.6023 76.6685C49.4274 76.5157 49.2556 76.3143 49.1741 76.105L49.1608 76.0706L49.1649 76.034L49.1649 76.0336L49.1651 76.0319L49.1659 76.0249C49.1665 76.0187 49.1675 76.0093 49.1687 75.9971C49.1711 75.9727 49.1745 75.9371 49.1782 75.8926C49.1855 75.8034 49.1942 75.6792 49.1994 75.5387C49.21 75.2541 49.2056 74.9169 49.153 74.6703C49.0885 74.3671 48.9784 74.0244 48.8832 73.7549C48.8358 73.6207 48.7926 73.5058 48.7612 73.4245C48.7455 73.3839 48.7328 73.3517 48.724 73.3298C48.7197 73.3188 48.7163 73.3104 48.714 73.3048L48.7115 73.2985L48.7107 73.2967L48.5765 72.9691ZM49.1119 73.5066C49.1288 73.5527 49.1468 73.6025 49.1654 73.6552C49.2621 73.929 49.3771 74.2859 49.4457 74.608C49.5065 74.8929 49.5092 75.2615 49.4985 75.5498C49.4931 75.6958 49.4841 75.8247 49.4764 75.9172C49.4726 75.9635 49.4691 76.0008 49.4665 76.0266C49.4665 76.0271 49.4664 76.0276 49.4664 76.0281C49.529 76.1659 49.6536 76.316 49.7992 76.4431C49.9584 76.5822 50.1149 76.6698 50.2023 76.6891C50.4558 76.7449 50.7898 76.9179 50.9526 77.0118C50.9588 77.0109 50.9631 77.0095 50.9655 77.0084C50.9655 77.0084 50.9654 77.0084 50.9655 77.0084C50.9659 77.0075 50.9665 77.006 50.9671 77.0037C50.9706 76.9901 50.9745 76.9504 50.9482 76.8694C50.9222 76.7897 50.8704 76.6806 50.7778 76.5357L50.762 76.511C50.5345 76.155 50.3862 75.9231 50.3214 75.7455C50.2859 75.6483 50.2708 75.5567 50.2842 75.4619C50.2972 75.3694 50.3356 75.2877 50.3829 75.2085C50.47 75.0628 50.65 74.9185 50.8154 74.8047C50.9807 74.6909 51.1556 74.5916 51.2725 74.5316C51.3719 74.4513 51.5641 74.2551 51.7116 74.0647C51.7746 73.9832 51.8238 73.9101 51.8539 73.8526C51.8281 73.8547 51.7982 73.8585 51.7642 73.8639C51.6581 73.8808 51.5281 73.9117 51.3896 73.947C51.3422 73.9591 51.2935 73.9718 51.2448 73.9845C51.1545 74.008 51.0641 74.0315 50.9821 74.0512C50.8585 74.0809 50.7355 74.1065 50.6451 74.109L50.6139 74.1099L49.1119 73.5066Z" fill="black"/>
<path d="M50.6408 73.9595L48.9928 73.3257L49.1259 73.9509L49.3871 75.471L49.2401 76.6304L49.6904 78.0297L50.6099 78.7739L52.1021 78.8858L53.5013 78.4355C53.1837 78.4017 52.5426 78.2136 52.5187 77.7316C52.4949 77.2496 52.9629 76.9446 53.1999 76.8524C53.1497 76.5885 52.9273 75.9256 52.4396 75.3848C51.952 74.8441 51.9129 74.0048 51.9543 73.6528L50.6408 73.9595Z" fill="#160E1B" fill-opacity="0.4"/>
<path d="M60.1422 76.3226C60.2834 76.1732 60.4395 75.7597 60.347 75.3927C60.2545 75.0256 60.3626 74.5835 60.4939 74.2332C60.7968 73.5957 61.5345 73.0529 61.9999 72.5605C62.4237 72.1121 62.6128 71.9913 63.019 71.3765C63.344 70.8847 63.3025 70.7976 63.2729 70.7824L63.2589 70.7793C63.2589 70.7793 63.2655 70.7786 63.2729 70.7824L63.4655 70.8248L63.7722 72.1383L63.7285 73.3204L62.3032 75.1192C61.8584 75.581 60.8035 76.4683 60.1422 76.3226Z" fill="#160E1B" fill-opacity="0.4"/>
<path d="M43.1583 55.5826C44.5549 55.5327 47.7521 55.029 49.3681 53.4129L49.3682 53.4129C51.3882 51.3928 51.8371 50.9439 51.9119 50.7195C51.9718 50.5399 51.7872 48.3004 51.6875 47.2031C51.7872 47.1283 52.1813 47.0535 52.9594 47.3527C53.0342 47.8515 53.094 49.0735 52.7349 49.9713C52.286 51.0936 51.9867 51.318 52.5853 53.6374C52.7349 53.8119 53.124 54.1761 53.4831 54.2359C53.8422 54.2958 53.7824 53.7122 53.7075 53.4129C53.5828 53.1635 53.4083 52.3655 53.7075 51.1684C53.9569 51.1933 54.4258 51.4527 54.3061 52.2907C54.1564 53.3381 53.932 54.7596 55.9521 55.2833C57.9721 55.8071 58.421 52.8144 58.2714 51.1684C60.067 53.4628 63.8079 59.3235 64.4064 63.8125C63.9325 64.1866 62.91 65.0844 62.6108 65.6829C62.6108 65.9573 62.7903 66.6705 63.5086 67.3289C63.5086 67.4785 63.1345 67.8825 61.6382 68.3015C60.8401 68.4013 59.2141 68.6008 59.0944 68.6008C58.9447 68.6008 58.6455 68.0023 58.1218 67.8526C57.9016 67.7897 57.4304 68.0044 56.9247 68.3799C56.8324 68.4484 56.7391 68.5223 56.6458 68.6008C56.0342 69.1159 55.4297 69.831 55.2039 70.546C55.154 70.7206 55.2937 71.2792 56.2513 72.1172C55.8772 72.3915 54.9645 72.9851 54.3061 73.1646C53.6477 73.3442 52.7349 73.7632 50.7149 74.0624L48.4703 73.5387L46.8992 68.8252C47.1985 66.0321 46.8693 59.4731 43.1583 55.5826Z" fill="#D9AD12"/>
<path fill-rule="evenodd" clip-rule="evenodd" d="M51.8465 47.2999C51.8957 47.8467 51.961 48.6208 52.0089 49.2948C52.0345 49.6551 52.0552 49.9879 52.0657 50.2424C52.071 50.3695 52.0738 50.4787 52.0733 50.5628C52.073 50.6047 52.0719 50.6421 52.0697 50.6732C52.0678 50.7 52.0642 50.736 52.054 50.7668C52.0266 50.8489 51.9707 50.9359 51.8839 51.0444C51.7955 51.1549 51.6656 51.299 51.4779 51.496C51.1026 51.8901 50.4845 52.5083 49.4769 53.5158L49.474 53.5187C48.6396 54.3532 47.4075 54.8921 46.2219 55.229C45.1986 55.5198 44.196 55.6641 43.4843 55.7147C45.2279 57.6597 46.1875 60.1928 46.6792 62.5853C47.1874 65.0575 47.1991 67.3942 47.0515 68.8087L48.5859 73.412L50.7211 73.9102C52.2191 73.6864 53.0894 73.3992 53.7158 73.1925C53.9212 73.1248 54.1003 73.0657 54.2668 73.0203C54.5772 72.9356 54.9566 72.7501 55.3109 72.5467C55.5799 72.3922 55.8285 72.2309 56.0123 72.1036C55.6089 71.7313 55.3622 71.4124 55.2191 71.1557C55.1396 71.0131 55.091 70.8877 55.0662 70.7814C55.042 70.678 55.038 70.5823 55.0601 70.5049L55.0606 70.503L55.0613 70.501C55.2903 69.7758 55.8807 69.066 56.4784 68.5472C56.0424 66.7953 55.4175 64.327 54.8034 61.98C54.3621 60.2933 53.9265 58.6701 53.5708 57.4208C53.3929 56.796 53.2353 56.2658 53.1071 55.8685C53.043 55.6697 52.9867 55.5055 52.9392 55.3799C52.8902 55.2503 52.8546 55.1728 52.8332 55.1392C52.6525 54.8553 52.3017 54.6635 51.9077 54.5437C51.5182 54.4252 51.1142 54.3855 50.8646 54.3855V54.0863C51.1387 54.0863 51.5726 54.1289 51.9948 54.2574C52.4126 54.3844 52.8474 54.6041 53.0857 54.9786C53.1256 55.0413 53.1706 55.1458 53.2191 55.274C53.2691 55.4062 53.3271 55.5756 53.3919 55.7766C53.5217 56.1788 53.6804 56.7128 53.8587 57.3388C54.215 58.5904 54.6509 60.2149 55.0921 61.9012L57.0069 68.1376C57.2055 68.0019 57.3974 67.8917 57.5696 67.8152C57.6802 67.766 57.7861 67.7291 57.8828 67.7091C57.9774 67.6896 58.0752 67.6837 58.1629 67.7088C58.4658 67.7953 58.695 68.0083 58.8572 68.1801C58.8983 68.2236 58.9363 68.2659 58.9701 68.3032C59.0045 68.3413 59.0337 68.3735 59.0599 68.4002C59.0841 68.425 59.1017 68.4407 59.114 68.45C59.1165 68.4498 59.1192 68.4496 59.1221 68.4494C59.1395 68.448 59.1624 68.4459 59.1908 68.4431C59.2473 68.4376 59.323 68.4295 59.4136 68.4194C59.5948 68.3992 59.8337 68.3712 60.0942 68.34C60.6103 68.2783 61.2096 68.2043 61.6086 68.1544C62.343 67.9481 62.7932 67.7481 63.0563 67.5867C63.1887 67.5055 63.2695 67.4367 63.3152 67.3854C63.3212 67.3787 63.3264 67.3725 63.3309 67.3669C62.6469 66.7023 62.4612 65.991 62.4612 65.6829V65.6476L62.477 65.616C62.6389 65.2923 62.9858 64.9031 63.3383 64.5568C63.6634 64.2375 64.0063 63.9422 64.2466 63.7486C63.9354 61.55 62.8722 59.0169 61.6559 56.7379C60.553 54.6715 59.3305 52.8252 58.4463 51.6435C58.46 52.4154 58.3568 53.3443 58.0649 54.0938C57.8863 54.5524 57.6315 54.9583 57.2751 55.2143C56.9123 55.4749 56.4591 55.5694 55.9146 55.4282C54.866 55.1564 54.3697 54.6398 54.1731 54.0293C53.9881 53.455 54.079 52.8213 54.1518 52.3131C54.1539 52.2984 54.156 52.2839 54.158 52.2695C54.2136 51.8807 54.1301 51.6498 54.0269 51.5161C53.9634 51.434 53.8875 51.382 53.818 51.3517C53.5743 52.442 53.7417 53.1466 53.8415 53.346L53.8488 53.3607L53.8528 53.3766C53.8921 53.5338 53.9303 53.7747 53.9067 53.9765C53.8951 54.0758 53.8662 54.1878 53.7938 54.2721C53.712 54.3675 53.5935 54.406 53.4586 54.3835C53.2439 54.3477 53.0339 54.225 52.8661 54.0995C52.6957 53.972 52.5531 53.8297 52.4717 53.7348L52.4492 53.7084L52.4405 53.6748C52.1405 52.5123 52.0593 51.8537 52.1187 51.3383C52.1647 50.94 52.2964 50.6293 52.4547 50.256C52.5001 50.1489 52.5477 50.0367 52.5961 49.9158C52.7668 49.4888 52.8402 48.9776 52.8605 48.506C52.8784 48.0878 52.8542 47.7091 52.8233 47.4616C52.4873 47.3397 52.2369 47.295 52.0624 47.2871C51.9681 47.2829 51.8978 47.2895 51.8488 47.2994C51.8481 47.2996 51.8473 47.2998 51.8465 47.2999ZM59.1248 68.4572C59.125 68.4573 59.1245 68.4571 59.1234 68.4564C59.1243 68.4568 59.1248 68.4571 59.1248 68.4572ZM56.751 68.3238L56.645 67.9787C56.6756 68.1008 56.7054 68.2202 56.7344 68.3367C56.7399 68.3324 56.7455 68.3281 56.751 68.3238ZM52.0758 46.9881C52.3038 46.9984 52.6129 47.0591 53.0132 47.2131L53.0945 47.2444L53.1074 47.3305C53.1463 47.5894 53.1804 48.0292 53.1594 48.5188C53.1385 49.0073 53.0623 49.556 52.8739 50.0269C52.8194 50.1632 52.7682 50.2844 52.721 50.3959C52.5673 50.759 52.4566 51.0207 52.416 51.3726C52.3638 51.8253 52.4303 52.4309 52.7214 53.5655C52.7931 53.6451 52.9093 53.758 53.0453 53.8598C53.1993 53.975 53.3633 54.0642 53.5078 54.0883C53.5511 54.0955 53.5606 54.0844 53.5662 54.0778L53.5667 54.0772C53.5818 54.0596 53.6005 54.0182 53.6095 53.9417C53.6264 53.7969 53.5999 53.6049 53.5661 53.4639C53.4226 53.1596 53.2628 52.3308 53.5624 51.1321L53.5938 51.0066L53.7225 51.0195C53.884 51.0357 54.1027 51.1248 54.2637 51.3332C54.4273 51.545 54.5184 51.8627 54.4543 52.3118L54.452 52.3282C54.3765 52.8559 54.2945 53.43 54.4579 53.9375C54.6167 54.4306 55.0182 54.8866 55.9897 55.1385C56.4552 55.2592 56.8156 55.1759 57.1005 54.9713C57.3917 54.762 57.6186 54.4151 57.786 53.9852C58.1211 53.1247 58.1959 51.9899 58.1224 51.182L58.0765 50.6765L58.3893 51.0762C59.2925 52.2303 60.6814 54.2764 61.9199 56.597C63.1571 58.9152 64.252 61.5215 64.5548 63.7927L64.566 63.8772L64.4992 63.9299C64.2658 64.1142 63.8959 64.4286 63.5481 64.7703C63.2098 65.1026 62.9066 65.447 62.7615 65.7174C62.7763 65.9743 62.9519 66.6156 63.6098 67.2186L63.6583 67.2631V67.3289C63.6583 67.4218 63.6051 67.5101 63.5384 67.5847C63.4673 67.6644 63.361 67.7509 63.2128 67.8418C62.9161 68.0237 62.4342 68.2341 61.6786 68.4456L61.6678 68.4486L61.6568 68.45C61.2576 68.4999 60.6513 68.5748 60.1297 68.6371C59.869 68.6683 59.6291 68.6965 59.4468 68.7168C59.2712 68.7364 59.1352 68.7504 59.0944 68.7504C59.0288 68.7504 58.9762 68.7192 58.9447 68.6969C58.9101 68.6724 58.8766 68.6408 58.8461 68.6097C58.815 68.5779 58.7817 68.5411 58.748 68.5038L58.7417 68.4969C58.7093 68.461 58.6757 68.4237 58.6396 68.3856C58.4839 68.2206 58.3015 68.0596 58.0807 67.9965C58.0584 67.9901 58.0147 67.9875 57.9433 68.0022C57.8739 68.0165 57.7891 68.045 57.6912 68.0886C57.4955 68.1756 57.2608 68.3168 57.014 68.5001C56.9242 68.5667 56.8332 68.6387 56.7423 68.7153C56.1412 69.2214 55.5618 69.913 55.3475 70.5883C55.3446 70.6 55.3404 70.6395 55.3576 70.7133C55.3749 70.7871 55.4117 70.8864 55.4806 71.01C55.6184 71.2572 55.8801 71.5935 56.3499 72.0046L56.4904 72.1275L56.3399 72.2379C56.1487 72.3781 55.8223 72.5981 55.4599 72.8062C55.0996 73.0131 54.6935 73.2141 54.3455 73.309C54.1923 73.3508 54.022 73.407 53.8236 73.4725C53.1939 73.6804 52.2814 73.9816 50.7369 74.2105L50.7087 74.2146L48.3549 73.6654L46.747 68.8417L46.7505 68.8093C46.8986 67.4272 46.8916 65.1048 46.3861 62.6456C45.8804 60.1854 44.879 57.6033 43.0501 55.6859L42.8203 55.445L43.1531 55.4331C43.8403 55.4085 44.9768 55.2718 46.1401 54.9411C47.3063 54.6097 48.4808 54.0887 49.2624 53.3071C50.2732 52.2963 50.8888 51.6808 51.2612 51.2897C51.4477 51.0939 51.5702 50.9574 51.6502 50.8575C51.7284 50.7598 51.7576 50.7068 51.7687 50.676C51.769 50.6742 51.7701 50.6669 51.7712 50.6517C51.7728 50.6298 51.7738 50.5996 51.774 50.561C51.7745 50.4839 51.7719 50.3801 51.7667 50.2548C51.7564 50.0047 51.7359 49.6753 51.7104 49.3161C51.6593 48.5979 51.5884 47.7647 51.5385 47.2166L51.531 47.1335L51.5978 47.0834C51.6472 47.0463 51.7145 47.0214 51.7891 47.0062C51.8664 46.9905 51.9619 46.983 52.0758 46.9881Z" fill="black"/>
<path d="M30.1401 80.0292L30.7386 68.8814C30.8633 68.9064 31.1277 68.9413 31.1875 68.8814C31.2474 68.8216 32.1602 76.2883 32.6091 80.0292C34.4546 80.1539 38.6692 79.6551 40.7641 76.6624L31.5616 68.5073C31.5616 68.5073 31.7113 68.2829 31.7113 68.1333L42.7842 74.3431C44.081 72.0736 46.0163 66.203 43.3827 60.876L31.7861 67.3103C31.7861 67.0709 31.6364 66.8364 31.5616 66.7865L41.8864 58.4071C41.5123 57.21 38.5196 53.4129 32.6839 53.8618L32.1602 53.1698C31.5018 52.8107 31.0878 52.0725 30.9631 51.7483C37.4722 50.5699 46.8991 54.2117 46.8991 66.8614C46.8991 79.5989 38.37 82.0492 31.7861 82.0492C24.7497 82.0492 16.1493 78.1026 16.1493 66.8614C16.1493 58.0031 22.1845 53.9117 25.2022 52.964C25.5613 53.383 26.1748 54.5103 26.3992 55.0589C23.8854 55.5377 21.586 58.3073 20.788 59.6041L30.4394 66.8614C30.2897 67.011 30.19 67.1607 30.1401 67.3103L19.3664 62.522C18.4187 65.1406 17.4511 71.1709 21.162 74.3431C24.1298 72.1983 30.0653 67.9388 30.0653 68.0585C30.0653 68.1782 30.165 68.3577 30.2149 68.4325L23.0325 76.6624C23.5811 77.5353 25.7708 79.4306 30.1401 80.0292Z" fill="#554B58"/>
<path d="M30.7386 66.6369L30.2149 61.699C30.5142 61.7738 30.8883 61.7738 31.2624 61.699L31.1877 66.6272C31.1888 66.6305 31.1887 66.6338 31.1875 66.6369L31.1877 66.6272C31.1784 66.5999 31.0818 66.5738 30.7386 66.6369Z" fill="#554B58"/>
<path fill-rule="evenodd" clip-rule="evenodd" d="M41.4611 53.999C44.6746 56.3753 47.0489 60.4957 47.0489 66.8614C47.0489 73.2669 44.9019 77.1131 41.9011 79.3518C38.9086 81.5844 35.0923 82.1989 31.7862 82.1989C28.2431 82.1989 24.2986 81.2057 21.2364 78.7882C18.1687 76.3664 15.9998 72.5251 15.9998 66.8614C15.9998 57.9224 22.0934 53.7836 25.1574 52.8213L25.2516 52.7917L25.3159 52.8667C25.5058 53.0883 25.7551 53.4862 25.9817 53.8896C26.2096 54.2951 26.4224 54.72 26.5378 55.0023L26.6071 55.1717L26.4273 55.2059C25.2106 55.4377 24.0323 56.2281 23.0519 57.1346C22.1306 57.9865 21.3979 58.9281 20.988 59.5672L30.6054 66.799L30.0436 61.5019L30.2513 61.5538C30.5246 61.6222 30.8757 61.6238 31.2331 61.5523L31.4149 61.5159L31.3376 66.6177C31.3397 66.6424 31.3361 66.666 31.3287 66.687L31.0389 66.6348C31.0392 66.648 31.0414 66.6617 31.0461 66.6754C31.0568 66.7069 31.0762 66.7263 31.0891 66.7362C31.1017 66.7458 31.1118 66.7494 31.1141 66.7502C31.1182 66.7515 31.111 66.7486 31.084 66.7478C31.0312 66.7462 30.9333 66.7533 30.7658 66.7841L30.6211 66.8107L30.6671 66.8454L30.5453 66.9672C30.4067 67.1057 30.3226 67.2362 30.2821 67.3576L30.23 67.514L19.4537 62.7245C19.0036 64.0304 18.5683 66.0937 18.6668 68.218C18.7676 70.3903 19.4249 72.6059 21.1708 74.1523C22.6536 73.0809 24.8244 71.5198 26.64 70.2296C27.5675 69.5705 28.4029 68.9818 29.0066 68.5652C29.3082 68.357 29.5531 68.1911 29.723 68.0807C29.8075 68.0258 29.8758 67.9831 29.924 67.9557C29.9469 67.9427 29.9709 67.9298 29.9918 67.9213C29.9991 67.9183 30.0214 67.9092 30.0484 67.9069C30.0599 67.906 30.0975 67.9035 30.1375 67.9259C30.1922 67.9566 30.215 68.0117 30.215 68.0585C30.215 68.085 30.2285 68.1355 30.2579 68.2009C30.2853 68.2617 30.3186 68.3182 30.3395 68.3496L30.403 68.4447L23.2206 76.6745C23.825 77.5286 25.9206 79.2622 29.9995 79.8582L30.5986 68.7008L30.7681 68.7347C30.8255 68.7462 30.9151 68.7599 30.9948 68.7638C31.0351 68.7658 31.0674 68.7649 31.0897 68.7619C31.094 68.7614 31.0973 68.7608 31.0999 68.7602C31.1205 68.7453 31.1493 68.7322 31.1856 68.7315C31.2316 68.7306 31.2646 68.7504 31.2813 68.7635C31.3091 68.7852 31.322 68.8114 31.3247 68.8168L31.3249 68.8173C31.3331 68.8336 31.3377 68.8499 31.3398 68.8572C31.3451 68.876 31.3503 68.9006 31.3555 68.9274C31.3661 68.9826 31.3796 69.0639 31.3954 69.1671C31.4272 69.3743 31.4696 69.6768 31.5202 70.052C31.6213 70.8027 31.7551 71.8479 31.901 73.0114C32.1864 75.2876 32.5184 78.0183 32.7428 79.8871C33.6575 79.9322 35.089 79.8281 36.5485 79.372C38.0373 78.9068 39.5423 78.0796 40.564 76.685L31.3649 68.5329L31.4371 68.4245L31.4372 68.4244L31.4381 68.4231C31.4389 68.4218 31.4402 68.4198 31.4419 68.4171C31.4454 68.4116 31.4505 68.4034 31.4568 68.393C31.4694 68.3719 31.4861 68.3426 31.5027 68.3095C31.5395 68.2358 31.5617 68.1699 31.5617 68.1333L31.5617 67.8778L42.7269 74.1394C43.3527 72.999 44.1067 71.0444 44.4091 68.7367C44.7175 66.3832 44.5551 63.6713 43.3173 61.0835L31.6365 67.5644V67.3103C31.6365 67.22 31.6077 67.1244 31.5678 67.0436C31.5482 67.0038 31.5272 66.9703 31.5086 66.9455C31.4881 66.9181 31.4767 66.9097 31.4787 66.9111L31.3097 66.7984L41.7104 58.3573C41.6033 58.0811 41.3686 57.6781 40.9957 57.2236C40.58 56.7168 39.9989 56.1538 39.2489 55.6407C37.7503 54.6156 35.5767 53.7894 32.6955 54.011L32.614 54.0173L32.06 53.2853C31.719 53.0922 31.4453 52.8084 31.2416 52.5355C31.0323 52.2548 30.8909 51.9772 30.8235 51.802L30.7586 51.6333L30.9365 51.6011C34.2264 51.0055 38.2534 51.6271 41.4611 53.999ZM31.753 68.4769L40.9633 76.6389L40.8868 76.7482C39.8141 78.2806 38.2033 79.1684 36.6378 79.6577C35.0725 80.1468 33.5387 80.242 32.5991 80.1785L32.4754 80.1701L32.4606 80.047C32.2362 78.1767 31.8958 75.3751 31.604 73.0487C31.4582 71.8854 31.3245 70.8413 31.2236 70.0919C31.1731 69.7171 31.1309 69.4169 31.0996 69.2125C31.0907 69.1543 31.0827 69.1045 31.0757 69.0632C31.0438 69.0647 31.0112 69.0642 30.9802 69.0627C30.9467 69.0611 30.9125 69.0581 30.8793 69.0544L30.2809 80.1995L30.1199 80.1775C25.7201 79.5747 23.4845 77.6625 22.9059 76.7421L22.8467 76.6479L30.0309 68.4159C30.0154 68.3874 29.9997 68.3562 29.9851 68.3238C29.9789 68.3101 29.9726 68.2954 29.9664 68.2801C29.9423 68.2953 29.9155 68.3125 29.8861 68.3317C29.7198 68.4397 29.4778 68.6036 29.1766 68.8115C28.5746 69.2269 27.7406 69.8147 26.8133 70.4736C24.9589 71.7913 22.7335 73.3921 21.2498 74.4644L21.1544 74.5333L21.0649 74.4568C19.1663 72.8338 18.4724 70.4861 18.3679 68.2319C18.2633 65.9775 18.7465 63.7955 19.2258 62.4711L19.2805 62.32L30.0628 67.1122C30.104 67.0337 30.1561 66.9571 30.2181 66.8821L20.5892 59.6418L20.6606 59.5257C21.0664 58.8663 21.8494 57.839 22.8487 56.9149C23.7992 56.036 24.9596 55.2374 26.1894 54.9505C26.0735 54.694 25.9033 54.3608 25.7209 54.0362C25.5213 53.6811 25.3132 53.347 25.1507 53.1378C22.1487 54.127 16.299 58.1776 16.299 66.8614C16.299 72.4389 18.4302 76.1915 21.4219 78.5533C24.419 80.9195 28.2929 81.8996 31.7862 81.8996C35.0639 81.8996 38.8042 81.2889 41.7222 79.112C44.6319 76.9412 46.7496 73.1934 46.7496 66.8614C46.7496 60.5775 44.4104 56.5521 41.2831 54.2396C38.2107 51.9677 34.3614 51.337 31.1777 51.863C31.2471 52.0036 31.3489 52.1788 31.4815 52.3565C31.675 52.6159 31.9278 52.8726 32.2319 53.0385L32.2602 53.0539L32.7542 53.7066C35.6683 53.5011 37.8819 54.343 39.4178 55.3937C40.1922 55.9234 40.7941 56.506 41.2271 57.0338C41.6579 57.559 41.9279 58.0378 42.0293 58.3624L42.0596 58.4593L31.7758 66.8055C31.7968 66.8373 31.8173 66.8729 31.8362 66.9111C31.8604 66.9601 31.883 67.0157 31.9005 67.0757L43.4474 60.6691L43.517 60.8097C44.8502 63.5065 45.0253 66.3375 44.7058 68.7756C44.3865 71.2125 43.5721 73.266 42.9142 74.4173L42.8406 74.5462L31.8087 68.3594C31.7959 68.3908 31.7824 68.4193 31.7704 68.4433C31.7645 68.455 31.7587 68.4662 31.753 68.4769ZM31.0408 66.4487L31.1101 61.8765C30.8591 61.9114 30.6106 61.9143 30.3851 61.8835L30.8709 66.4641C30.9379 66.455 30.994 66.4502 31.0408 66.4487Z" fill="black"/>
<path d="M26.8482 56.1812C26.6686 55.3432 26.4242 55.1337 26.3244 55.1337C23.9902 55.4928 21.6608 58.276 20.788 59.6227C24.3044 62.1665 30.3758 66.8688 30.4394 66.8052C30.5142 66.7304 30.6638 66.6555 30.7386 66.5807L30.1401 61.6428C27.8208 61.0443 27.0568 57.1548 26.8482 56.1812Z" fill="#1BA0B1"/>
<path d="M32.9084 56.0315C32.7587 55.8819 33.3573 57.079 33.7313 58.276C33.9558 59.5479 33.8062 61.0443 31.3372 61.6428L31.1876 66.5807C31.427 66.7004 31.5367 66.7802 31.5616 66.8052L41.8864 58.4257C39.8663 54.3107 34.8536 53.5626 32.6839 53.8618L33.2076 54.4604C34.2551 55.0589 34.6291 55.433 34.8536 55.7323C35.0332 55.9717 35.4771 57.1039 35.6766 57.6775C35.7763 58.0017 35.9459 58.6651 35.527 58.7249C35.0032 58.7998 34.6291 58.276 34.5543 58.0516C34.4795 57.8271 34.3823 57.281 33.9558 56.8545C33.5069 56.4056 33.0757 56.1988 32.9084 56.0315Z" fill="#1BA0B1"/>
<path d="M31.7113 68.1519C31.7612 68.102 31.8459 67.8526 31.7861 67.2541L43.3827 60.8946C46.0762 66.5807 44.0062 72.2668 42.7842 74.3617L31.7113 68.1519Z" fill="#1BA0B1"/>
<path d="M31.1876 68.9001C31.2873 68.8502 31.5018 68.7055 31.5616 68.526L40.7641 76.6811C40.0908 77.6537 37.8762 80.0478 32.6091 80.0478L31.1876 68.9001Z" fill="#1BA0B1"/>
<path d="M30.2149 68.4512C30.2897 68.6008 30.3646 68.7504 30.7387 68.9001C30.8369 68.9394 30.2897 76.2321 30.1401 80.0478C28.3944 79.8234 24.5288 78.8358 23.0325 76.6811L30.2149 68.4512Z" fill="#1BA0B1"/>
<path d="M19.3665 62.5406L30.1401 67.3289C30.0902 67.4536 29.9905 67.703 30.0653 68.0771L25.6511 71.0698L21.1621 74.3617C19.4413 72.9402 17.1967 68.9001 19.3665 62.5406Z" fill="#1BA0B1"/>
<path fill-rule="evenodd" clip-rule="evenodd" d="M32.9851 53.9789L33.3037 54.343C34.3448 54.9401 34.7339 55.3233 34.9733 55.6425C35.0286 55.7162 35.0958 55.8452 35.1653 55.9929C35.2367 56.1447 35.3163 56.3291 35.396 56.5226C35.5553 56.9097 35.7172 57.3388 35.8179 57.6284L35.8188 57.6309L35.8196 57.6335C35.8697 57.7962 35.9431 58.0613 35.9459 58.2986C35.9473 58.4169 35.9316 58.5454 35.8723 58.6535C35.8084 58.7703 35.6998 58.8514 35.5481 58.8731C35.228 58.9188 34.9611 58.7797 34.7729 58.6124C34.5868 58.447 34.4588 58.2383 34.4124 58.0989C34.3984 58.0571 34.3844 58.0082 34.3688 57.954C34.292 57.6863 34.1778 57.2882 33.85 56.9603C33.6344 56.7448 33.4224 56.5866 33.241 56.4602C33.2255 56.4495 33.2098 56.4386 33.1939 56.4277C33.2023 56.4479 33.2108 56.4686 33.2197 56.4899C33.2332 56.5225 33.2472 56.5565 33.2617 56.5917C33.4395 57.022 33.6849 57.6259 33.8742 58.2314L33.877 58.2406L33.8787 58.2501C33.993 58.8975 34.0178 59.6296 33.6769 60.2813C33.3431 60.9194 32.6754 61.45 31.4833 61.7604L31.34 66.4908C31.4214 66.5337 31.4855 66.5709 31.5347 66.6019C31.5424 66.6067 31.5499 66.6115 31.5571 66.6162L41.6988 58.3853C40.7023 56.4354 39.0098 55.2717 37.2889 54.6286C35.6814 54.0279 34.0604 53.8861 32.9851 53.9789ZM31.3101 61.4954C32.5119 61.2025 33.1204 60.6995 33.4117 60.1426C33.7053 59.5814 33.6943 58.9331 33.5856 58.3115C33.4011 57.723 33.1619 57.1338 32.9851 56.7059C32.971 56.6716 32.9571 56.6382 32.9438 56.6058C32.8741 56.4376 32.8163 56.2979 32.781 56.203C32.7619 56.1518 32.7425 56.0963 32.7371 56.0558C32.7357 56.0457 32.733 56.0222 32.7384 55.995C32.7434 55.9695 32.7678 55.8927 32.8561 55.8729C32.9201 55.8586 32.9679 55.8894 32.977 55.8953L32.9774 55.8956C32.9937 55.9061 33.0064 55.918 33.0142 55.9257C33.0461 55.9577 33.0952 55.9957 33.1656 56.0452C33.2033 56.0718 33.2409 56.0973 33.2818 56.1252C33.321 56.1519 33.3633 56.1808 33.412 56.2147C33.6002 56.3457 33.8283 56.5154 34.0616 56.7487C34.4511 57.1382 34.5885 57.6269 34.6621 57.8883C34.6751 57.9347 34.6862 57.974 34.6963 58.0043C34.7247 58.0894 34.8211 58.2548 34.9717 58.3887C35.1202 58.5206 35.3022 58.6059 35.5058 58.5768C35.5636 58.5686 35.5909 58.5444 35.6099 58.5098C35.6336 58.4665 35.6478 58.3977 35.6467 58.3021C35.6445 58.1128 35.5839 57.8854 35.5344 57.7241C35.4355 57.4401 35.2761 57.0177 35.1192 56.6366C35.0406 56.4454 34.963 56.266 34.8945 56.1203C34.824 55.9704 34.7684 55.868 34.7339 55.8221C34.5261 55.545 34.1707 55.1831 33.1334 54.5903L33.1116 54.5778L32.3885 53.7515L32.6634 53.7136C33.7736 53.5605 35.5942 53.6759 37.3936 54.3483C39.1955 55.0216 40.9894 56.2588 42.0207 58.3598L42.0733 58.4668L31.5512 67.0064L31.4558 66.911C31.4542 66.9097 31.432 66.8908 31.3754 66.8552C31.3197 66.8202 31.2368 66.7727 31.1206 66.7146L31.0351 66.6718L31.1822 61.8158C31.0425 61.8364 30.8765 61.8606 30.7461 61.8671C30.7305 61.8679 30.7156 61.8687 30.7012 61.8695C30.6246 61.8737 30.5618 61.8772 30.4851 61.8692C30.4368 61.8642 30.3832 61.8548 30.3147 61.8396L30.8959 66.6351L30.8444 66.6866C30.7963 66.7347 30.7296 66.7791 30.6785 66.8131L30.672 66.8175C30.6116 66.8578 30.5698 66.8864 30.5452 66.911C30.4976 66.9586 30.4403 66.956 30.4268 66.9551C30.407 66.9538 30.3915 66.949 30.3844 66.9466C30.3688 66.9414 30.355 66.9344 30.3462 66.9297C30.3267 66.9195 30.3032 66.905 30.2779 66.8886C30.2261 66.8552 30.1537 66.8051 30.0638 66.7411C29.8835 66.6126 29.6263 66.4234 29.3096 66.1875C28.6833 65.7209 27.8209 65.069 26.8521 64.3367L26.8182 64.3111C24.8524 62.8252 22.4569 61.0148 20.7003 59.744L20.5851 59.6607L20.6624 59.5414C21.1047 58.859 21.9131 57.8166 22.9066 56.898C23.8967 55.9827 25.0898 55.1723 26.3017 54.9859L26.313 54.9841H26.3244C26.3981 54.9841 26.465 55.0202 26.5182 55.0641C26.5743 55.1102 26.6301 55.1769 26.6841 55.2652C26.792 55.4418 26.9027 55.7215 26.9945 56.1498C27.0002 56.1766 27.0064 56.2056 27.013 56.2365C27.1264 56.7702 27.3672 57.9032 27.8399 58.9931C28.3439 60.1551 29.0898 61.2173 30.1775 61.4979C30.3657 61.5465 30.4523 61.5649 30.5161 61.5716C30.5675 61.5769 30.6043 61.5749 30.6797 61.5709C30.6951 61.5701 30.7121 61.5692 30.7312 61.5682C30.8506 61.5622 30.9929 61.5412 31.1276 61.5212C31.1912 61.5118 31.2531 61.5026 31.3101 61.4954ZM30.0036 61.76C28.8281 61.4058 28.0615 60.2562 27.5654 59.1122C27.0802 57.9937 26.834 56.8346 26.7206 56.3006C26.7139 56.269 26.7077 56.2396 26.7019 56.2125C26.6141 55.803 26.5128 55.5589 26.4287 55.4213C26.3867 55.3525 26.3514 55.3144 26.328 55.2951C26.3235 55.2913 26.3197 55.2886 26.3166 55.2865C25.2041 55.4681 24.0773 56.2233 23.1098 57.1178C22.193 57.9653 21.4363 58.9222 20.9917 59.5856C22.7398 60.8535 25.0766 62.6195 26.9987 64.0724L27.0317 64.0974C28.0011 64.8301 28.8629 65.4815 29.4884 65.9475C29.8048 66.1832 30.0598 66.3708 30.2374 66.4973C30.3156 66.553 30.3775 66.5959 30.4225 66.6256C30.4493 66.6063 30.476 66.5885 30.4995 66.5728L30.506 66.5685C30.535 66.5492 30.5597 66.5325 30.5803 66.5177L30.0036 61.76ZM32.8025 56.1374C32.8026 56.1374 32.8027 56.1375 32.8028 56.1376C32.8022 56.137 32.8021 56.1369 32.8025 56.1374ZM43.45 60.6871L43.518 60.8306C46.2409 66.579 44.1485 72.3199 42.9135 74.4371L42.8393 74.5642L31.4658 68.1858L31.6002 68.0514C31.6018 68.0484 31.6059 68.0404 31.6113 68.025C31.6212 67.9969 31.6327 67.9525 31.6416 67.8882C31.6595 67.7596 31.6663 67.56 31.6372 67.269L31.6273 67.1705L43.45 60.6871ZM31.9439 67.3382C31.9643 67.5956 31.9576 67.7887 31.938 67.9294C31.9294 67.9912 31.9182 68.0442 31.905 68.089L42.728 74.1586C43.9328 72.009 45.8252 66.5666 43.3147 61.1027L31.9439 67.3382ZM19.2777 62.3374L30.3326 67.2507L30.2787 67.3854C30.2324 67.5012 30.1459 67.7173 30.212 68.0478L30.2315 68.1452L25.7373 71.1921L21.1566 74.5513L21.0668 74.4771C19.2932 73.012 17.0371 68.9045 19.2248 62.4923L19.2777 62.3374ZM19.4559 62.7441L29.9516 67.4089C29.9076 67.5472 29.8671 67.7479 29.9019 68.0071L25.5648 70.9475L21.1688 74.1712C19.526 72.74 17.4296 68.8506 19.4559 62.7441ZM30.2489 68.1846L30.3488 68.3843C30.3861 68.459 30.4144 68.5139 30.4704 68.5698C30.5267 68.6262 30.6196 68.6913 30.7942 68.7612C30.8408 68.7798 30.8631 68.8148 30.8702 68.8272C30.8792 68.8427 30.8839 68.8568 30.8862 68.8645C30.891 68.8806 30.8933 68.8961 30.8945 68.9065C30.8973 68.929 30.8986 68.9567 30.8994 68.9863C30.9008 69.0468 30.8998 69.1321 30.8969 69.238C30.8909 69.4507 30.877 69.7552 30.857 70.1299C30.8172 70.8795 30.7533 71.9148 30.6817 73.0671L30.6666 73.3096C30.5264 75.5652 30.3618 78.2144 30.2896 80.0537L30.2832 80.2171L30.121 80.1963C29.2374 80.0827 27.8222 79.7769 26.4376 79.2274C25.0571 78.6796 23.6831 77.8803 22.9096 76.7664L22.843 76.6706L30.2489 68.1846ZM31.4913 68.2638L40.9627 76.6571L40.8872 76.7663C40.1891 77.7746 37.9307 80.1975 32.6091 80.1975H32.4773L31.0257 68.8137L31.1206 68.7663C31.1599 68.7466 31.2275 68.7051 31.2906 68.6494C31.3556 68.5922 31.4018 68.5323 31.4197 68.4787L31.4913 68.2638ZM23.2231 76.6902C23.958 77.6834 25.2268 78.425 26.548 78.9492C27.8245 79.4558 29.1291 79.7514 29.9972 79.8773C30.0725 78.0434 30.2318 75.4808 30.3678 73.2933L30.383 73.0485C30.4546 71.8958 30.5184 70.862 30.5582 70.114C30.5781 69.7398 30.5919 69.4383 30.5977 69.2297C30.6004 69.1318 30.6013 69.0563 30.6004 69.004C30.4462 68.9345 30.3385 68.8612 30.2588 68.7815C30.2332 68.7559 30.2112 68.7303 30.1919 68.7051L23.2231 76.6902ZM31.5991 68.7591C31.5639 68.803 31.5253 68.8415 31.4885 68.8739C31.4416 68.9153 31.3929 68.951 31.3485 68.9796L32.7408 79.8977C37.6704 79.8597 39.8368 77.6932 40.5641 76.7038L31.5991 68.7591Z" fill="black"/>
<path d="M31.0379 66.5807C30.8654 66.5807 30.0653 66.8052 30.0653 67.703C30.0653 68.8252 30.8135 68.9001 30.9631 68.9001C31.2416 68.9001 31.7861 68.3763 31.7861 67.6282C31.7861 67.1045 31.412 66.5807 31.0379 66.5807Z" fill="#3CD367"/>
<path fill-rule="evenodd" clip-rule="evenodd" d="M30.7633 66.4887C30.8717 66.4504 30.9718 66.4311 31.0379 66.4311C31.2941 66.4311 31.5205 66.6061 31.674 66.8211C31.831 67.0408 31.9357 67.3327 31.9357 67.6282C31.9357 68.0389 31.7863 68.3881 31.5981 68.6353C31.504 68.7589 31.3982 68.8596 31.2928 68.9306C31.1906 68.9995 31.0749 69.0497 30.9631 69.0497C30.8704 69.0497 30.6085 69.0277 30.3666 68.8408C30.1171 68.648 29.9156 68.3007 29.9156 67.703C29.9156 67.2019 30.1421 66.8792 30.3964 66.686C30.5215 66.591 30.6519 66.5281 30.7633 66.4887ZM30.5774 66.9243C30.3886 67.0678 30.2149 67.3063 30.2149 67.703C30.2149 68.2276 30.3876 68.4788 30.5496 68.604C30.7192 68.735 30.9061 68.7504 30.9631 68.7504C30.9906 68.7504 31.0473 68.7352 31.1256 68.6825C31.2005 68.6319 31.2831 68.555 31.36 68.454C31.5136 68.2523 31.6364 67.9656 31.6364 67.6282C31.6364 67.3999 31.5541 67.1681 31.4305 66.995C31.3035 66.8172 31.1558 66.7304 31.0379 66.7304C31.0178 66.7304 30.9532 66.7391 30.863 66.7709C30.7759 66.8017 30.6739 66.851 30.5774 66.9243Z" fill="black"/>
<path d="M56.1765 79.8982L52.4357 79.4493C52.6152 78.9705 52.6102 78.2522 52.5105 77.6537L56.1765 77.7285C56.5506 77.7285 57.1741 77.4293 57.4484 77.2796L71.3644 67.9275C71.8881 67.7778 72.0378 68.1519 72.1126 68.2267C72.3771 68.4913 72.6363 69.349 72.2622 70.0224C71.8881 70.6957 57.4655 79.637 56.9995 79.8234C56.6254 79.973 56.401 79.8982 56.1765 79.8982Z" fill="#918A93"/>
<path fill-rule="evenodd" clip-rule="evenodd" d="M72.202 68.099C72.2125 68.1137 72.217 68.1193 72.2181 68.1206C72.2184 68.121 72.2185 68.1211 72.2184 68.1209C72.3811 68.2837 72.5209 68.5988 72.5747 68.9485C72.6294 69.3034 72.6003 69.7219 72.393 70.095C72.3694 70.1375 72.3292 70.18 72.2903 70.2172C72.2479 70.2579 72.1933 70.305 72.1286 70.3575C71.9989 70.4628 71.8218 70.5955 71.6053 70.7508C71.172 71.0617 70.5743 71.4681 69.8678 71.9364C68.4544 72.8731 66.6009 74.0604 64.7452 75.232C62.8894 76.4037 61.0306 77.5602 59.6066 78.4355C58.8947 78.8732 58.2911 79.2407 57.8507 79.5047C57.6306 79.6367 57.4508 79.7431 57.3185 79.8196C57.1921 79.8926 57.0968 79.9457 57.0551 79.9623C56.7346 80.0905 56.4918 80.0705 56.3122 80.0557C56.2622 80.0516 56.217 80.0479 56.1765 80.0479H56.1676L52.2286 79.5752L52.2955 79.3968C52.4615 78.9542 52.4609 78.2668 52.3629 77.6783L52.3332 77.5004L56.178 77.5789C56.3346 77.5785 56.5607 77.5135 56.7949 77.421C57.0213 77.3316 57.237 77.2242 57.3707 77.1515L71.3005 67.7901L71.3233 67.7836C71.6273 67.6968 71.8446 67.7593 71.9966 67.8732C72.0684 67.9271 72.1202 67.9884 72.1571 68.0371C72.1708 68.0553 72.1836 68.0733 72.1937 68.0874C72.1967 68.0917 72.1995 68.0956 72.202 68.099ZM71.4275 68.0654C71.6332 68.012 71.747 68.0602 71.817 68.1127C71.8574 68.143 71.8898 68.1799 71.9184 68.2177C71.9293 68.232 71.9385 68.245 71.9481 68.2584C71.9516 68.2634 71.9551 68.2684 71.9589 68.2735C71.9701 68.2892 71.9874 68.3132 72.0067 68.3326C72.1085 68.4343 72.2306 68.6804 72.279 68.994C72.3265 69.3024 72.2982 69.6495 72.1314 69.9497C72.1314 69.9497 72.1314 69.9497 72.1313 69.9499C72.1299 69.9517 72.1183 69.9676 72.0833 70.0012C72.0492 70.0339 72.0015 70.0752 71.9399 70.1252C71.817 70.225 71.6455 70.3536 71.4308 70.5076C71.002 70.8153 70.4079 71.2193 69.7024 71.6869C68.2918 72.6219 66.4404 73.8078 64.5854 74.979C62.7306 76.1501 60.8729 77.3059 59.4499 78.1806C58.7384 78.6179 58.1358 78.9848 57.6968 79.248C57.4772 79.3797 57.299 79.4852 57.1687 79.5605C57.1035 79.5982 57.0509 79.6279 57.0114 79.6495C56.9916 79.6603 56.9758 79.6688 56.9636 79.675C56.9575 79.6781 56.9527 79.6804 56.9491 79.6821C56.9479 79.6827 56.947 79.6831 56.9462 79.6835C56.9445 79.6843 56.9438 79.6845 56.9439 79.6845C56.6948 79.7841 56.539 79.7718 56.3693 79.7584C56.3111 79.7538 56.2514 79.749 56.1857 79.7486L52.6327 79.3223C52.7514 78.876 52.7503 78.3085 52.6845 77.8069L56.175 77.8782H56.1765C56.3939 77.8782 56.6659 77.7937 56.9048 77.6994C57.1488 77.6031 57.3789 77.488 57.52 77.411L57.5261 77.4077L71.4275 68.0654Z" fill="black"/>
<path d="M48.994 78.3271C48.994 77.9081 49.3681 77.7285 49.5926 77.7285C49.8918 77.7285 50.3407 77.8781 50.3407 78.3271C50.3407 78.8059 49.9666 78.9256 49.5926 78.9256C49.2933 78.9256 48.994 78.746 48.994 78.3271Z" fill="#3CD367"/>
<path fill-rule="evenodd" clip-rule="evenodd" d="M49.1156 77.7538C49.2637 77.6354 49.4463 77.5789 49.5925 77.5789C49.7627 77.5789 49.9791 77.6206 50.1581 77.7326C50.3438 77.8486 50.4903 78.0425 50.4903 78.3271C50.4903 78.6127 50.3747 78.8122 50.1876 78.9319C50.0118 79.0444 49.7907 79.0752 49.5925 79.0752C49.4148 79.0752 49.2279 79.022 49.083 78.8965C48.9347 78.768 48.8444 78.5754 48.8444 78.3271C48.8444 78.0671 48.9626 77.8762 49.1156 77.7538ZM49.3026 77.9875C49.2124 78.0596 49.1436 78.168 49.1436 78.3271C49.1436 78.4977 49.2029 78.6044 49.279 78.6704C49.3586 78.7394 49.471 78.776 49.5925 78.776C49.7684 78.776 49.9214 78.7469 50.0262 78.6799C50.1197 78.6201 50.1911 78.5202 50.1911 78.3271C50.1911 78.1627 50.1132 78.0574 49.9995 77.9863C49.8794 77.9112 49.7217 77.8782 49.5925 77.8782C49.5143 77.8782 49.3976 77.9115 49.3026 77.9875Z" fill="black"/>
<path fill-rule="evenodd" clip-rule="evenodd" d="M49.3681 74.8106C47.8718 74.8106 46.0762 75.6336 46.0762 78.6263C46.0762 80.7979 48.3207 81.619 49.3681 81.619C50.1911 81.619 52.5104 81.0953 52.5104 78.6263C52.5104 75.5588 50.9393 74.8107 49.3681 74.8106ZM48.994 78.3271C48.994 77.9081 49.3681 77.7285 49.5926 77.7285C49.8919 77.7285 50.3408 77.8782 50.3408 78.3271C50.3408 78.8059 49.9667 78.9256 49.5926 78.9256C49.2933 78.9256 48.994 78.746 48.994 78.3271Z" fill="#554B58"/>
<path fill-rule="evenodd" clip-rule="evenodd" d="M47.0602 75.4857C47.7316 74.8735 48.5949 74.661 49.3681 74.661C50.1751 74.661 51.005 74.8531 51.6325 75.4607C52.2609 76.0691 52.6601 77.0686 52.6601 78.6263C52.6601 79.9177 52.0491 80.7107 51.3289 81.1743C50.6173 81.6325 49.8021 81.7686 49.3681 81.7686C48.8143 81.7686 47.9616 81.5543 47.2445 81.0602C46.5219 80.5625 45.9265 79.7724 45.9265 78.6263C45.9265 77.099 46.3858 76.1005 47.0602 75.4857ZM47.2618 75.7068C46.6643 76.2516 46.2258 77.161 46.2258 78.6263C46.2258 79.6518 46.7527 80.3581 47.4142 80.8138C48.0811 81.2732 48.8745 81.4694 49.3681 81.4694C49.7571 81.4694 50.5131 81.3436 51.1669 80.9227C51.8121 80.5073 52.3608 79.8039 52.3608 78.6263C52.3608 77.1165 51.9744 76.2082 51.4244 75.6757C50.8735 75.1423 50.1323 74.9603 49.3681 74.9603C48.645 74.9603 47.8623 75.1593 47.2618 75.7068ZM49.1156 77.7538C49.2637 77.6354 49.4463 77.5789 49.5926 77.5789C49.7627 77.5789 49.9791 77.6206 50.1582 77.7326C50.3438 77.8486 50.4904 78.0425 50.4904 78.3271C50.4904 78.6127 50.3747 78.8122 50.1876 78.9319C50.0119 79.0444 49.7908 79.0752 49.5926 79.0752C49.4148 79.0752 49.2279 79.0221 49.0831 78.8965C48.9347 78.768 48.8444 78.5754 48.8444 78.3271C48.8444 78.0672 48.9626 77.8762 49.1156 77.7538ZM49.3026 77.9875C49.2124 78.0597 49.1437 78.168 49.1437 78.3271C49.1437 78.4978 49.203 78.6044 49.2791 78.6704C49.3587 78.7394 49.4711 78.776 49.5926 78.776C49.7685 78.776 49.9214 78.747 50.0263 78.6799C50.1197 78.6201 50.1911 78.5202 50.1911 78.3271C50.1911 78.1627 50.1132 78.0574 49.9996 77.9864C49.8794 77.9112 49.7217 77.8782 49.5926 77.8782C49.5143 77.8782 49.3977 77.9115 49.3026 77.9875Z" fill="black"/>
<path d="M49.1437 77.953L46.3007 72.1172C46.5999 71.2793 46.8244 69.4737 46.8992 68.6757C47.8718 71.6933 49.7722 77.7285 49.5926 77.7285C49.4131 77.7285 49.1936 77.8782 49.1437 77.953Z" fill="#918A93"/>
<path fill-rule="evenodd" clip-rule="evenodd" d="M46.7502 68.6617L47.0416 68.6298C47.528 70.139 48.2466 72.403 48.8211 74.2901C49.1083 75.2334 49.3599 76.0838 49.5286 76.6988C49.6128 77.0058 49.677 77.2567 49.7146 77.4319C49.7332 77.5185 49.7464 77.5918 49.7516 77.6458C49.754 77.6709 49.7558 77.7025 49.7516 77.7322C49.7496 77.7458 49.7445 77.7741 49.7268 77.8029C49.7051 77.8379 49.6599 77.8782 49.5926 77.8782C49.5394 77.8782 49.4659 77.9023 49.3926 77.9433C49.3578 77.9628 49.3271 77.9838 49.3036 78.0028C49.2919 78.0122 49.2829 78.0205 49.2763 78.0271C49.2703 78.0332 49.268 78.0362 49.268 78.0362L49.1234 78.2531L46.1385 72.1262L46.1597 72.0669C46.3042 71.6625 46.4334 71.014 46.5362 70.3583C46.6386 69.7059 46.713 69.0581 46.7502 68.6617ZM46.9719 69.3913C46.9342 69.7025 46.8871 70.0528 46.8319 70.4047C46.7336 71.0312 46.6083 71.6734 46.4623 72.1075L49.1936 77.7138C49.2106 77.703 49.2282 77.6923 49.2464 77.6821C49.3026 77.6507 49.3704 77.6198 49.4429 77.6002C49.4377 77.5708 49.4308 77.5357 49.422 77.4947C49.3862 77.3281 49.3239 77.0839 49.24 76.778C49.0724 76.1671 48.8218 75.32 48.5348 74.3773C48.0407 72.7544 47.4398 70.8516 46.9719 69.3913Z" fill="black"/>
<path d="M18.02 71.8179C16.3832 67.8889 17.0474 62.1416 17.7208 59.6976C13.9051 66.4311 16.9726 82.1427 31.113 82.0679C42.4254 82.008 45.9518 75.2096 46.3009 71.8179C45.7024 73.04 44.2958 75.6935 43.4578 76.5314C42.4104 77.5789 40.0163 81.0953 32.4597 81.3197C24.9032 81.5442 20.5136 77.8033 18.02 71.8179Z" fill="#160E1B" fill-opacity="0.2"/>
<path d="M22.2846 73.3891C19.0525 72.6709 19.0425 65.9074 19.4415 62.6154C17.1671 69.2592 19.6909 73.1646 21.2372 74.2869L22.2846 73.3891Z" fill="#160E1B" fill-opacity="0.2"/>
<path d="M24.0054 75.5588L23.0328 76.6811C24.9958 79.0752 28.639 79.9231 30.2152 80.0478V78.4767C26.2649 78.1175 24.4294 76.3818 24.0054 75.5588Z" fill="#160E1B" fill-opacity="0.2"/>
<path d="M39.7918 75.8581C36.859 78.4318 33.6817 78.8258 32.4597 78.7011L32.6842 80.0478C37.5922 80.1675 40.116 77.7534 40.7644 76.5314L39.7918 75.8581Z" fill="#160E1B" fill-opacity="0.2"/>
<path d="M30.3648 66.88C30.3648 67.4536 30.5444 68.6457 31.2626 68.8253C30.6641 68.8502 29.6466 68.4961 30.3648 66.88Z" fill="#160E1B" fill-opacity="0.2"/>
<path d="M49.3684 77.7285L46.675 70.4712L46.3757 72.2668L49.0691 77.8781C48.9494 78.9555 49.4681 78.9754 49.7425 78.8508C49.2636 78.6113 49.2936 78.0028 49.3684 77.7285Z" fill="#160E1B" fill-opacity="0.2"/>
<path d="M47.0491 75.6336C46.1285 77.7285 46.8246 81.2449 50.1914 81.5442C47.3483 82.0679 44.5352 79.2248 47.0491 75.6336Z" fill="#160E1B" fill-opacity="0.2"/>
<path d="M56.1767 79.15C55.5782 79.2099 53.5332 78.7759 52.5855 78.5515V79.4493C53.9572 79.5989 56.7454 79.8982 56.9249 79.8982C57.1494 79.8982 72.038 70.6209 72.3372 70.0223C72.5767 69.5435 72.437 69.1245 72.3372 68.9749C70.9157 70.9201 56.9249 79.0752 56.1767 79.15Z" fill="#160E1B" fill-opacity="0.2"/>
<path d="M45.1038 55.2834L43.1586 55.6574C46.5104 58.2312 47.0491 65.4585 46.8994 68.7504L48.5454 73.4639L51.0144 73.9876L53.8574 73.2395C53.3337 73.3392 52.0319 73.434 51.0144 73.015C49.7425 72.4913 49.0691 68.9749 48.695 68.3764C48.321 67.7778 47.7972 59.5479 47.5728 58.0516C47.3932 56.8545 45.852 55.7073 45.1038 55.2834Z" fill="#160E1B" fill-opacity="0.2"/>
<path d="M55.8027 59.4731C54.9049 56.7198 53.6828 55.7821 53.1841 55.6574L56.9249 68.3764L58.0472 68.0023L59.0946 68.7504L62.6858 68.0023L63.5088 67.2541L62.9103 66.7304C61.8379 67.0795 59.4986 67.6731 58.7205 67.2541C57.7479 66.7304 56.9249 62.9147 55.8027 59.4731Z" fill="#160E1B" fill-opacity="0.2"/>
<path d="M21.5364 32.0152C21.0576 32.7335 21.3369 33.2123 21.5364 33.3619C22.9729 34.2597 23.6313 33.4368 23.7809 32.913C23.6313 32.6886 23.362 32.1499 23.4817 31.7908C23.6014 31.4317 24.1301 31.3419 24.3795 31.3419L28.4196 32.539L28.7937 31.7908L23.332 30.5189C22.7335 30.5937 22.0153 31.297 21.5364 32.0152Z" fill="#160E1B" fill-opacity="0.2"/>
</svg>
