<svg width="56" height="56" viewBox="0 0 56 56" fill="none" xmlns="http://www.w3.org/2000/svg">
<rect width="56" height="56" rx="4" fill="#F7F3F8"/>
<path d="M23.856 48.1741L24.9836 42.6611C28.4919 45.1043 30.8099 45.167 33.6917 44.4152L34.6315 48.2994C34.6941 49.6359 33.817 52.2462 29.8075 51.9956C25.7981 51.745 24.1692 49.3435 23.856 48.1741Z" fill="white"/>
<path fill-rule="evenodd" clip-rule="evenodd" d="M24.9131 42.4849C24.9724 42.4612 25.0396 42.4689 25.092 42.5054C26.8308 43.7163 28.2612 44.3279 29.6034 44.5491C30.9452 44.7702 32.2162 44.604 33.6438 44.2316C33.693 44.2188 33.7454 44.2262 33.7891 44.2524C33.8328 44.2785 33.8641 44.3211 33.8761 44.3706L34.8158 48.2548C34.8187 48.2665 34.8204 48.2785 34.8209 48.2905C34.8541 48.9983 34.6399 50.0373 33.8872 50.8699C33.128 51.7098 31.8453 52.3131 29.7956 52.185C25.7043 51.9293 24.0068 49.4709 23.6726 48.2232C23.665 48.1948 23.6641 48.1649 23.67 48.1361L24.7977 42.623C24.8104 42.5605 24.8538 42.5086 24.9131 42.4849ZM25.1121 42.9795L24.051 48.1673C24.3716 49.2756 25.9417 51.5639 29.8193 51.8063C31.7792 51.9288 32.9397 51.3522 33.6057 50.6154C34.272 49.8784 34.4676 48.9545 34.4426 48.3261L33.5524 44.6467C32.1708 44.9928 30.8955 45.1466 29.5417 44.9235C28.191 44.701 26.7778 44.1059 25.1121 42.9795Z" fill="black"/>
<path d="M31.2384 49.3964C28.3164 49.8496 25.9763 45.1786 25.1715 42.7864C29.0566 45.4202 31.283 44.9306 33.5643 44.429L33.5908 44.4231C34.0035 45.871 34.1604 48.9431 31.2384 49.3964Z" fill="#DADADA"/>
<path d="M22.9802 22.5522C19.923 24.8577 20.4325 29.5876 21.1007 31.6759C20.8103 31.74 20.5114 31.8808 20.2236 32.1374C19.4251 32.8494 18.9707 35.1445 20.6622 36.2096C20.9415 36.3854 21.4143 36.5343 21.9152 36.5519C22.2493 38.0137 23.4187 41.5347 25.1729 42.7876C27.3656 44.3538 30.7486 45.92 35.5099 43.7273C40.2711 41.5347 41.0229 36.9613 39.9579 30.7592C38.8929 24.557 36.1363 21.4246 33.1919 20.4222C30.2474 19.4198 26.8018 19.6704 22.9802 22.5522Z" fill="white"/>
<path fill-rule="evenodd" clip-rule="evenodd" d="M33.1293 20.6007C30.248 19.6198 26.8675 19.8562 23.0931 22.7026C21.6222 23.8117 20.9991 25.5111 20.8308 27.213C20.6709 28.8302 20.9248 30.4261 21.2314 31.459C21.6718 31.4012 22.081 31.4933 22.3992 31.6133C22.7586 31.7487 23.0161 31.9249 23.0953 31.9865C23.178 32.0508 23.1929 32.17 23.1286 32.2527C23.0642 32.3355 22.945 32.3504 22.8623 32.286C22.8082 32.244 22.5836 32.0883 22.2654 31.9684C21.9473 31.8485 21.5499 31.7695 21.1402 31.86C20.8817 31.9171 20.6122 32.0428 20.3485 32.2779C19.9999 32.5887 19.6994 33.2828 19.6975 34.0404C19.6956 34.7863 19.9833 35.5576 20.7619 36.0478C21.0083 36.203 21.4473 36.3444 21.9204 36.3611C22.4542 36.3798 22.9887 36.2393 23.3359 35.8343C23.4041 35.7547 23.5239 35.7455 23.6034 35.8137C23.683 35.8819 23.6922 36.0017 23.624 36.0813C23.2348 36.5353 22.6827 36.7125 22.1541 36.7387C22.3393 37.4741 22.6899 38.5821 23.1829 39.6685C23.7337 40.8824 24.4476 42.0362 25.2818 42.632C26.3655 43.4061 27.7333 44.1728 29.4108 44.4792C31.0854 44.7851 33.0819 44.6347 35.4291 43.5538C37.7603 42.4802 39.101 40.8318 39.7354 38.6917C40.3731 36.5404 40.3002 33.8807 39.7695 30.7901C38.7113 24.6281 35.9846 21.5727 33.1293 20.6007ZM21.7615 36.7318C21.9445 37.4856 22.3116 38.6667 22.8373 39.8253C23.3933 41.0506 24.1412 42.2837 25.0612 42.9409C26.1702 43.733 27.5902 44.5325 29.3427 44.8526C31.0981 45.1732 33.1737 45.0103 35.5878 43.8985C38.0179 42.7794 39.4337 41.0449 40.0992 38.7996C40.7615 36.5655 40.6778 33.8374 40.1435 30.7259C39.0716 24.4836 36.2853 21.2741 33.2516 20.2414C30.244 19.2175 26.7331 19.4823 22.8646 22.3996C21.2782 23.5959 20.6274 25.4141 20.4532 27.1756C20.2889 28.8364 20.5453 30.47 20.8607 31.5438C20.6029 31.6292 20.3442 31.7732 20.096 31.9946C19.6461 32.3957 19.3201 33.2053 19.318 34.0395C19.3159 34.8854 19.6468 35.7942 20.5597 36.369C20.8431 36.5474 21.2867 36.6926 21.7615 36.7318Z" fill="black"/>
<path d="M23.0352 41.5202H24.0788C23.6234 41.2925 22.3711 38.1364 21.8018 36.5868C20.5685 36.5868 18.9557 35.3535 19.5249 33.2663C19.9803 31.5966 21.3591 31.4954 21.9916 31.6535C22.0864 31.527 22.3141 31.1412 22.4659 30.6099C22.6177 30.0786 22.0232 29.2184 21.4223 28.9022C21.6437 28.8389 21.6121 28.5606 21.9916 27.574C22.3711 26.5873 22.0864 25.7082 21.707 25.3919C21.9283 25.4235 22.1813 25.354 22.9403 24.8227C23.6993 24.2914 23.5728 22.9569 23.4147 22.356C23.6677 22.5458 24.4203 22.8493 25.407 22.5458C26.3936 22.2422 26.8933 21.091 27.0198 20.5534C27.3044 20.8381 28.1772 21.3693 29.3916 21.2175C30.606 21.0657 31.0361 20.3953 31.0993 20.0791C31.5737 21.3124 32.2378 21.597 33.4711 21.7868C34.4578 21.9386 35.2104 21.85 35.3686 21.5022C35.3686 22.1346 35.5393 22.9442 36.2224 23.7791C36.9055 24.614 37.6455 24.6962 37.9301 24.7278C40.1122 27.9535 41.2506 36.1125 39.6378 39.5279C40.0805 39.5279 41.1345 39.5406 41.6301 39.2433C42.5788 38.674 42.6737 37.5039 42.8635 36.7766C43.5908 37.2509 45.3112 38.0289 46.3737 37.3458C47.4363 36.6627 47.5754 34.1518 47.5122 32.9817C48.3028 33.2031 50.1686 33.2094 51.3071 31.4637C52.4455 29.7181 51.149 27.7005 50.3584 26.9099C50.8327 26.6253 51.1173 26.5304 51.6866 24.6329C52.142 23.115 50.6746 21.597 49.884 21.0278C50.2319 20.2688 50.8137 18.3714 50.3584 16.8534C49.903 15.3355 47.7019 14.5765 46.6583 14.3867C47.0062 13.7543 47.3035 11.939 45.7096 9.73801C44.1158 7.53697 41.7566 8.25167 40.7763 8.88416C41.0293 7.55595 40.7952 4.72875 37.8352 4.04567C34.8752 3.36259 33.1232 5.532 32.6173 6.7021C32.6805 6.29098 32.4275 5.41183 30.9096 5.18414C29.3916 4.95645 28.6326 5.72175 28.4429 6.13286C28.1583 5.12089 27.0388 3.11593 24.8377 3.19182C22.6367 3.26772 21.8335 5.18414 21.707 6.13286C21.4856 6.00636 20.7962 5.82927 19.8095 6.13286C18.8228 6.43645 17.9437 7.52432 17.6275 8.0303C17.0582 7.17645 15.2557 7.08158 13.9274 8.0303C12.8649 8.78928 12.7257 10.1807 12.789 10.7816C12.5044 10.6235 11.6505 10.497 10.512 11.256C9.37358 12.0149 9.02572 13.3431 8.99409 13.9124C6.56537 13.3052 4.88296 16.4423 4.34535 18.0868C3.73817 19.9083 5.29407 21.3757 6.14792 21.8816C5.89493 22.0081 5.25613 22.5647 4.72485 23.7791C4.19356 24.9935 4.94621 26.2458 5.38895 26.7201C4.44023 26.7201 3.01715 28.1432 3.20689 30.3253C3.35869 32.0709 4.28211 32.9501 4.72485 33.1714C3.871 33.4561 3.39664 35.2586 4.72485 37.2509C5.78741 38.8448 8.01375 38.3578 8.99409 37.915C8.99409 38.674 9.41153 40.5145 11.0813 41.8048C12.751 43.0951 15.1292 41.8997 16.1095 41.1407C15.8249 41.8364 15.9957 43.3417 18.9557 43.7971C21.9157 44.2525 22.9087 42.4689 23.0352 41.5202Z" fill="#7B371F"/>
<path fill-rule="evenodd" clip-rule="evenodd" d="M27.2218 4.38548C26.6596 3.79687 25.8789 3.3458 24.8443 3.38148C23.8056 3.41729 23.1036 3.88435 22.6419 4.45447C22.1755 5.03036 21.9545 5.71243 21.8951 6.15796L21.8578 6.43759L21.6129 6.29762C21.4466 6.20261 20.8135 6.0225 19.8654 6.31423C19.4135 6.45326 18.9728 6.77764 18.5996 7.14155C18.2284 7.50351 17.939 7.88997 17.7884 8.13089L17.6326 8.3801L17.4696 8.13557C17.2338 7.78189 16.7156 7.5554 16.0588 7.54407C15.4102 7.53289 14.6676 7.73485 14.0378 8.18472C13.5494 8.53353 13.2686 9.03081 13.1174 9.52118C12.9657 10.0131 12.9486 10.4853 12.9777 10.7618L13.0159 11.1247L12.6969 10.9475C12.4915 10.8334 11.715 10.6821 10.6173 11.4139C9.54611 12.128 9.21328 13.3885 9.1836 13.9229L9.17086 14.1522L8.94812 14.0965C7.83575 13.8184 6.87567 14.3883 6.10405 15.2794C5.33396 16.1688 4.78936 17.3394 4.52575 18.1457L4.52541 18.1468C4.24478 18.9886 4.46034 19.7512 4.85874 20.3755C5.25957 21.0035 5.83808 21.4775 6.2447 21.7184L6.544 21.8958L6.23283 22.0514C6.03297 22.1513 5.41935 22.6652 4.89873 23.8552C4.65735 24.4069 4.70459 24.9725 4.87145 25.4664C5.03897 25.9622 5.32265 26.371 5.52771 26.5907L5.82564 26.9099H5.389C4.99941 26.9099 4.4567 27.2132 4.02525 27.815C3.60073 28.4071 3.30506 29.2634 3.39597 30.3089C3.54248 31.9937 4.43032 32.812 4.80975 33.0017L5.21947 33.2066L4.7849 33.3515C4.46269 33.4589 4.15227 33.8853 4.09575 34.5861C4.04037 35.2728 4.23877 36.1797 4.88277 37.1457C5.36898 37.875 6.12248 38.136 6.89552 38.1571C7.67239 38.1782 8.44545 37.9547 8.91605 37.7421L9.18389 37.6212V37.9151C9.18389 38.6284 9.58355 40.4077 11.1973 41.6547C11.969 42.2509 12.9132 42.2818 13.8078 42.0572C14.7029 41.8325 15.5192 41.3578 15.9934 40.9907L16.5533 40.5572L16.2852 41.2126C16.1644 41.5077 16.1358 41.9873 16.4695 42.4477C16.8052 42.9107 17.5308 43.3859 18.9846 43.6096C20.4219 43.8307 21.354 43.5058 21.9395 43.0371C22.5307 42.5638 22.7895 41.9273 22.8472 41.4951L22.8691 41.3305H23.6606C23.5919 41.2254 23.5193 41.1005 23.4441 40.9615C23.25 40.6024 23.0305 40.1325 22.8091 39.6251C22.3883 38.6604 21.955 37.5474 21.668 36.7723C21.0285 36.7315 20.33 36.4024 19.8432 35.8325C19.3157 35.2149 19.041 34.3198 19.3419 33.2164C19.5838 32.3294 20.0794 31.8397 20.6146 31.6012C21.0782 31.3945 21.5583 31.3819 21.9051 31.4416C22.0068 31.2761 22.1678 30.9628 22.2835 30.5578C22.3365 30.3724 22.2626 30.0849 22.0665 29.7775C21.8757 29.4784 21.5997 29.2099 21.334 29.0701L20.9153 28.8497L21.3703 28.7198L21.3707 28.7196C21.3803 28.7169 21.3837 28.7159 21.3942 28.7004C21.4122 28.6738 21.4341 28.6248 21.4678 28.5242C21.4839 28.476 21.5017 28.4191 21.5225 28.3528C21.5841 28.1564 21.6713 27.8783 21.8145 27.5059C21.9917 27.0453 22.0121 26.6144 21.9474 26.2662C21.8817 25.913 21.7317 25.6595 21.5855 25.5377L21.0717 25.1095L21.7338 25.2041C21.8716 25.2238 22.0657 25.2033 22.8315 24.6673C23.1432 24.4491 23.291 24.0517 23.3325 23.5982C23.3735 23.1495 23.3059 22.6882 23.2312 22.4043L23.0925 21.8772L23.5286 22.2042C23.7342 22.3585 24.424 22.6497 25.3512 22.3644C25.788 22.23 26.1282 21.904 26.3785 21.5315C26.6285 21.1595 26.7766 20.7589 26.8352 20.51L26.9132 20.1784L27.154 20.4193C27.4018 20.6671 28.218 21.173 29.3681 21.0293C30.5163 20.8858 30.8688 20.2642 30.9133 20.0419L31.0416 19.4004L31.2765 20.011C31.5043 20.6034 31.7683 20.9449 32.1047 21.1657C32.4479 21.3908 32.8873 21.505 33.5 21.5993C33.9832 21.6736 34.398 21.6871 34.7041 21.644C34.8573 21.6224 34.975 21.5878 35.0584 21.5455C35.1414 21.5034 35.1795 21.4597 35.1959 21.4237L35.5583 21.5022C35.5583 22.097 35.7176 22.8625 36.3693 23.659C37.0034 24.434 37.6803 24.5092 37.948 24.5389L38.0382 24.5489L38.0873 24.6215C39.2031 26.2709 40.0382 29.152 40.3954 32.0334C40.5745 33.4778 40.6345 34.9309 40.5476 36.2407C40.4695 37.4181 40.2719 38.4901 39.9282 39.3375C40.1252 39.3357 40.3601 39.3293 40.5973 39.3081C40.9763 39.2743 41.325 39.2051 41.5325 39.0806C41.9561 38.8264 42.1956 38.4357 42.3532 38.0041C42.4611 37.7088 42.5244 37.4174 42.5847 37.14C42.6154 36.9988 42.6453 36.8612 42.6799 36.7287L42.7464 36.4737L42.9672 36.6177C43.3172 36.846 43.9103 37.1493 44.5403 37.3115C45.1763 37.4753 45.8068 37.4848 46.2712 37.1862C46.4949 37.0424 46.6832 36.793 46.8366 36.4608C46.9892 36.1302 47.1005 35.7322 47.1786 35.3117C47.335 34.4705 47.3538 33.5658 47.3228 32.9919L47.3085 32.7276L47.5634 32.799C48.3061 33.0069 50.0708 33.0121 51.1482 31.3601C51.6761 30.5506 51.6448 29.6749 51.3766 28.89C51.1072 28.1015 50.6036 27.4234 50.2242 27.0441L50.0524 26.8722L50.2608 26.7472C50.2824 26.7342 50.3034 26.7218 50.3237 26.7097C50.5299 26.5873 50.671 26.5035 50.83 26.2695C51.014 25.999 51.2208 25.5253 51.5049 24.5784C51.71 23.8946 51.487 23.1945 51.0926 22.5767C50.6993 21.9605 50.1531 21.4554 49.7732 21.1818L49.6465 21.0906L49.7116 20.9488C49.8789 20.5837 50.1064 19.9352 50.2355 19.1927C50.3649 18.4488 50.3926 17.6277 50.1767 16.908C49.9704 16.2203 49.3595 15.6829 48.638 15.2885C47.9213 14.8968 47.1301 14.6654 46.6245 14.5734L46.3651 14.5263L46.4921 14.2953C46.7992 13.737 47.1138 12.0005 45.556 9.84931C44.7963 8.80018 43.8653 8.45457 43.0093 8.43824C42.1429 8.42171 41.3446 8.74336 40.8792 9.04362L40.5071 9.28369L40.5899 8.84867C40.7112 8.21222 40.7151 7.21229 40.3354 6.29562C39.9599 5.38903 39.2077 4.55714 37.7926 4.23058C36.3702 3.90232 35.2462 4.25878 34.414 4.83497C33.5759 5.41525 33.0324 6.22017 32.7915 6.77743L32.4298 6.67326C32.4534 6.51963 32.4198 6.2515 32.2095 5.99449C32.0014 5.74003 31.6063 5.48054 30.8815 5.37181C29.4449 5.15633 28.7688 5.87968 28.6152 6.21239L28.3996 6.67958L28.2603 6.18425C28.125 5.70312 27.7876 4.97778 27.2218 4.38548ZM28.5001 5.71064C28.3091 5.22247 27.9802 4.62995 27.4962 4.12335C26.8773 3.47545 25.9977 2.96199 24.8313 3.00221C23.6689 3.04229 22.8688 3.57139 22.347 4.21563C21.9064 4.75963 21.6642 5.38494 21.5606 5.86933C21.1923 5.75803 20.5593 5.70368 19.7538 5.95153C19.2189 6.11609 18.7268 6.48744 18.3346 6.86986C18.0358 7.16125 17.7864 7.46764 17.611 7.71431C17.2477 7.35495 16.675 7.17515 16.0654 7.16464C15.3384 7.15211 14.5156 7.37707 13.8172 7.87592C13.243 8.28609 12.9229 8.86403 12.7548 9.40935C12.6308 9.81142 12.587 10.2027 12.5865 10.5104C12.1227 10.4094 11.3429 10.474 10.4068 11.0981C9.32956 11.8163 8.92511 13.0071 8.82724 13.6836C7.60543 13.4756 6.58419 14.1452 5.81716 15.031C5.00463 15.9694 4.43928 17.1892 4.16521 18.0273C3.83892 19.0068 4.09771 19.8884 4.53885 20.5796C4.90211 21.1488 5.39391 21.5982 5.80621 21.8864C5.46305 22.1686 4.9705 22.7443 4.55106 23.7031C4.26115 24.3657 4.3246 25.0334 4.51193 25.5879C4.64482 25.9812 4.84224 26.3249 5.03071 26.5822C4.56925 26.7113 4.08874 27.0752 3.71684 27.5939C3.24007 28.2589 2.91907 29.2051 3.01791 30.3417C3.1489 31.8481 3.83754 32.752 4.35614 33.1574C3.99825 33.4331 3.7666 33.9466 3.71749 34.5556C3.65428 35.3394 3.88281 36.3299 4.56702 37.3562C5.14338 38.2208 6.03433 38.5132 6.88518 38.5364C7.60353 38.556 8.30983 38.3854 8.81879 38.1927C8.90622 39.1005 9.41504 40.757 10.9653 41.955C11.8634 42.649 12.9431 42.6655 13.9002 42.4253C14.6373 42.2402 15.3188 41.8993 15.8244 41.5733C15.8076 41.9099 15.8927 42.2986 16.1623 42.6704C16.5808 43.2478 17.4207 43.753 18.9269 43.9847C20.4496 44.2189 21.494 43.8798 22.1766 43.3333C22.7843 42.8469 23.089 42.209 23.1948 41.71H24.0788L24.1637 41.3505C24.1637 41.3505 24.1602 41.3486 24.153 41.3427C24.1451 41.3363 24.1347 41.3269 24.1218 41.3134C24.0958 41.2861 24.0646 41.2476 24.0283 41.1965C23.9557 41.0944 23.8714 40.9539 23.7779 40.781C23.5913 40.4358 23.3768 39.9771 23.157 39.4734C22.7178 38.4667 22.2638 37.294 21.98 36.5214L21.9343 36.3971H21.8019C21.2426 36.3971 20.5832 36.1146 20.1317 35.586C19.6868 35.0652 19.4397 34.3 19.708 33.3162C19.9215 32.5335 20.343 32.1377 20.7691 31.9478C21.2045 31.7537 21.6629 31.7669 21.9456 31.8376L22.0678 31.8681L22.1434 31.7673C22.2529 31.6214 22.4906 31.2145 22.6484 30.662C22.7473 30.3161 22.5998 29.9079 22.3864 29.5734C22.2167 29.3073 21.985 29.0552 21.7331 28.8732C21.7708 28.8064 21.7999 28.7276 21.8277 28.6446C21.8462 28.589 21.8657 28.5271 21.8877 28.457C21.9491 28.2611 22.0303 28.0019 22.1687 27.6421C22.3711 27.116 22.398 26.614 22.3205 26.1969C22.2739 25.9463 22.1883 25.7208 22.0759 25.5389C22.304 25.4638 22.597 25.2946 23.0492 24.9781C23.4965 24.665 23.6649 24.1295 23.7104 23.6327C23.7401 23.3084 23.7194 22.9821 23.6785 22.7064C24.0867 22.8616 24.716 22.9569 25.4628 22.7271C26.0127 22.5579 26.4157 22.1566 26.6935 21.7432C26.8913 21.4489 27.0319 21.1395 27.121 20.8814C27.5582 21.1884 28.3701 21.5365 29.4152 21.4058C30.3185 21.2929 30.8373 20.9017 31.0933 20.537C31.3081 20.9643 31.5665 21.2663 31.8965 21.4829C32.3124 21.7558 32.8217 21.8789 33.4423 21.9743C33.9457 22.0518 34.4007 22.0699 34.757 22.0197C34.9222 21.9965 35.0733 21.9576 35.2005 21.8983C35.2662 22.4938 35.4954 23.1901 36.0756 23.8993C36.7429 24.7148 37.4693 24.8612 37.8209 24.906C38.864 26.4949 39.6698 29.2646 40.0188 32.0801C40.1955 33.5054 40.254 34.9341 40.169 36.2156C40.0837 37.4997 39.8551 38.6234 39.4663 39.4469L39.3384 39.7176H39.6379C39.6546 39.7176 39.6723 39.7177 39.6908 39.7177C39.9156 39.7179 40.27 39.7183 40.631 39.6861C41.0136 39.652 41.4397 39.5788 41.7278 39.406C42.2529 39.0909 42.5352 38.6119 42.7097 38.1343C42.8259 37.816 42.9005 37.4749 42.9641 37.1841C42.9722 37.1469 42.9801 37.1105 42.988 37.0751C43.3666 37.2934 43.8904 37.536 44.4456 37.679C45.1173 37.852 45.8782 37.89 46.4764 37.5054C46.784 37.3077 47.0115 36.9871 47.1811 36.6198C47.3514 36.251 47.4702 35.8199 47.5517 35.3811C47.6936 34.6178 47.7265 33.8104 47.7115 33.2208C48.6449 33.3858 50.3737 33.2424 51.4661 31.5674C52.0766 30.6312 52.0289 29.6253 51.7357 28.7673C51.4816 28.0237 51.0396 27.3772 50.6581 26.951C50.821 26.8477 50.9819 26.7211 51.1438 26.4829C51.3631 26.1605 51.5832 25.6381 51.8684 24.6875C52.1186 23.8534 51.8357 23.0355 51.4125 22.3725C51.0293 21.7721 50.5165 21.2746 50.1183 20.9661C50.2883 20.5616 50.4894 19.9476 50.6094 19.2578C50.744 18.4838 50.7796 17.5972 50.5402 16.7989C50.2911 15.9686 49.5737 15.3675 48.82 14.9555C48.1656 14.5978 47.4572 14.3679 46.9297 14.2487C47.249 13.4131 47.3404 11.6664 45.8634 9.62674C45.0292 8.47484 43.9837 8.07728 43.0166 8.05882C42.2488 8.04417 41.536 8.26792 41.0182 8.52856C41.0839 7.85749 41.0285 6.97726 40.686 6.1504C40.2677 5.14058 39.4228 4.21732 37.8779 3.86081C36.3404 3.50599 35.1083 3.8927 34.198 4.52296C33.5294 4.9859 33.0351 5.57927 32.7157 6.10482C32.6666 5.98793 32.5973 5.86912 32.5033 5.75422C32.2212 5.40941 31.7308 5.11548 30.9378 4.99652C29.6789 4.80769 28.8894 5.26757 28.5001 5.71064Z" fill="black"/>
</svg>
