<svg width="56" height="56" viewBox="0 0 56 56" fill="none" xmlns="http://www.w3.org/2000/svg">
<rect width="56" height="56" rx="4" fill="#F7F3F8"/>
<path d="M23.4353 42.9794L24.563 37.4663C28.0713 39.9096 30.3893 39.9723 33.2711 39.2205L34.2108 43.1047C34.2734 44.4412 33.3964 47.0515 29.3869 46.8009C25.3774 46.5503 23.7485 44.1488 23.4353 42.9794Z" fill="white"/>
<path fill-rule="evenodd" clip-rule="evenodd" d="M24.4926 37.2901C24.5519 37.2664 24.6191 37.2741 24.6715 37.3106C26.4103 38.5215 27.8406 39.1331 29.1829 39.3543C30.5247 39.5754 31.7956 39.4092 33.2232 39.0368C33.2725 39.024 33.3249 39.0314 33.3685 39.0576C33.4122 39.0837 33.4436 39.1263 33.4556 39.1758L34.3953 43.06C34.3981 43.0717 34.3998 43.0837 34.4004 43.0957C34.4336 43.8035 34.2194 44.8425 33.4667 45.6751C32.7075 46.515 31.4247 47.1183 29.3751 46.9902C25.2838 46.7345 23.5863 44.2761 23.2521 43.0284C23.2444 43 23.2436 42.9701 23.2495 42.9413L24.3771 37.4282C24.3899 37.3657 24.4333 37.3138 24.4926 37.2901ZM24.6916 37.7847L23.6304 42.9725C23.951 44.0808 25.5212 46.3691 29.3988 46.6115C31.3586 46.734 32.5192 46.1574 33.1852 45.4206C33.8515 44.6836 34.0471 43.7597 34.0221 43.1313L33.1319 39.4519C31.7502 39.798 30.475 39.9518 29.1212 39.7287C27.7705 39.5062 26.3573 38.9111 24.6916 37.7847Z" fill="black"/>
<path d="M30.8178 44.2015C27.8958 44.6548 25.5558 39.9837 24.751 37.5915C28.6361 40.2253 30.8625 39.7357 33.1438 39.2341L33.1703 39.2283C33.583 40.6762 33.7398 43.7483 30.8178 44.2015Z" fill="#DADADA"/>
<path d="M22.5596 17.3575C19.5023 19.663 20.0118 24.3928 20.6801 26.4811C20.3896 26.5452 20.0907 26.6861 19.803 26.9427C19.0045 27.6547 18.55 29.9498 20.2415 31.0148C20.5209 31.1907 20.9937 31.3395 21.4945 31.3571C21.8286 32.8189 22.9981 36.3399 24.7522 37.5929C26.9449 39.1591 30.3279 40.7253 35.0892 38.5326C39.8505 36.3399 40.6022 31.7666 39.5372 25.5644C38.4722 19.3622 35.7157 16.2298 32.7712 15.2275C29.8267 14.2251 26.3811 14.4757 22.5596 17.3575Z" fill="white"/>
<path fill-rule="evenodd" clip-rule="evenodd" d="M32.7088 15.4057C29.8275 14.4248 26.447 14.6613 22.6725 17.5076C21.2017 18.6168 20.5786 20.3162 20.4103 22.018C20.2504 23.6353 20.5043 25.2311 20.8109 26.2641C21.2512 26.2063 21.6604 26.2984 21.9787 26.4183C22.3381 26.5538 22.5956 26.7299 22.6748 26.7915C22.7575 26.8558 22.7724 26.9751 22.708 27.0578C22.6437 27.1405 22.5245 27.1554 22.4418 27.0911C22.3877 27.049 22.1631 26.8934 21.8448 26.7734C21.5268 26.6536 21.1293 26.5746 20.7197 26.665C20.4612 26.7221 20.1916 26.8478 19.928 27.0829C19.5793 27.3938 19.2789 28.0878 19.277 28.8454C19.2751 29.5913 19.5628 30.3626 20.3413 30.8528C20.5878 31.008 21.0268 31.1495 21.4999 31.1661C22.0337 31.1849 22.5682 31.0444 22.9153 30.6393C22.9835 30.5598 23.1033 30.5506 23.1829 30.6188C23.2625 30.687 23.2717 30.8068 23.2035 30.8863C22.8143 31.3403 22.2622 31.5175 21.7336 31.5437C21.9187 32.2792 22.2694 33.3871 22.7624 34.4735C23.3132 35.6874 24.0271 36.8413 24.8612 37.4371C25.9449 38.2111 27.3128 38.9779 28.9903 39.2843C30.6649 39.5901 32.6614 39.4398 35.0085 38.3589C37.3397 37.2853 38.6805 35.6368 39.3149 33.4967C39.9525 31.3455 39.8796 28.6857 39.3489 25.5951C38.2908 19.4331 35.5641 16.3777 32.7088 15.4057ZM21.341 31.5368C21.524 32.2906 21.8911 33.4718 22.4168 34.6303C22.9728 35.8556 23.7207 37.0887 24.6407 37.7459C25.7497 38.538 27.1697 39.3375 28.9221 39.6576C30.6776 39.9782 32.7531 39.8153 35.1673 38.7036C37.5974 37.5844 39.0131 35.8499 39.6787 33.6046C40.341 31.3705 40.2573 28.6425 39.7229 25.5309C38.651 19.2886 35.8647 16.0792 32.8311 15.0464C29.8235 14.0226 26.3126 14.2873 22.444 17.2046C20.8576 18.4009 20.2068 20.2192 20.0326 21.9807C19.8684 23.6414 20.1247 25.275 20.4402 26.3488C20.1824 26.4343 19.9237 26.5783 19.6754 26.7997C19.2256 27.2008 18.8996 28.0103 18.8975 28.8445C18.8954 29.6904 19.2262 30.5992 20.1391 31.174C20.4226 31.3524 20.8662 31.4976 21.341 31.5368Z" fill="black"/>
<path d="M20.8386 26.4805C21.5983 26.3292 22.3445 26.8054 22.5027 26.9315C21.9646 25.3869 20.9906 21.9412 22.358 21.5629C22.6429 21.5314 23.3647 21.5818 23.9724 22.0358C24.0674 21.2162 24.5992 19.5013 25.9667 19.1987H27.1062C27.79 19.1987 28.5307 18.5052 28.8156 18.1585L29.0055 18.7259C30.2717 18.4737 32.861 17.61 33.0889 16.1725C34.2918 16.6454 36.6595 17.9504 36.5076 19.3879C37.109 18.5052 38.141 16.1914 37.4572 13.9974C36.7925 12.9887 35.1971 10.8956 34.1335 10.593C32.804 10.2147 30.6199 7.94506 25.4918 10.1201C24.2257 10.8136 21.6933 12.352 21.6933 12.9572C21.2501 13.9659 20.1739 16.1725 19.4142 16.9291C19.1926 16.803 18.5785 16.6832 17.8948 17.2128C17.0401 17.8748 16.9451 22.2249 17.7048 23.4543C18.3126 24.4378 19.3715 26.2511 19.7513 27.0264C20.1308 26.6686 20.346 26.5786 20.8386 26.4805Z" fill="#7B371F"/>
<path d="M22.4079 31.2009C21.5722 31.5036 20.732 31.2952 20.4155 31.1061C20.7953 32.0896 22.4847 33.2264 23.3077 33.6677C22.7759 33.2138 22.5028 31.7999 22.4079 31.2009Z" fill="#7B371F"/>
<path fill-rule="evenodd" clip-rule="evenodd" d="M33.3227 10.0306C33.6661 10.2029 33.9412 10.341 34.1855 10.4105C34.489 10.4968 34.8123 10.704 35.1287 10.9642C35.4482 11.227 35.7752 11.5562 36.0864 11.9039C36.7088 12.5995 37.2794 13.3827 37.6157 13.8931C37.6255 13.9079 37.6332 13.9241 37.6385 13.941C37.994 15.0818 37.9016 16.2465 37.6482 17.2317C37.3949 18.2164 36.9773 19.0356 36.6645 19.4947C36.6155 19.5666 36.5239 19.596 36.4423 19.566C36.3606 19.5361 36.3098 19.4544 36.319 19.3679C36.3509 19.0656 36.2521 18.7583 36.0485 18.4502C35.8444 18.1415 35.542 17.8434 35.1896 17.568C34.5612 17.0772 33.7976 16.6772 33.2215 16.4319C33.1195 16.7495 32.9185 17.0316 32.6653 17.2784C32.3524 17.5832 31.95 17.844 31.5231 18.0626C30.6694 18.4997 29.6879 18.7835 29.0426 18.912C28.9489 18.9307 28.8559 18.8767 28.8256 18.7861L28.738 18.5243C28.5952 18.6671 28.4177 18.8237 28.2201 18.9635C27.9026 19.1882 27.5069 19.3885 27.1063 19.3885H25.988C25.3884 19.5288 24.9569 19.9774 24.6583 20.5155C24.3568 21.0588 24.2062 21.6676 24.161 22.0576C24.1532 22.1251 24.1099 22.1832 24.0476 22.2101C23.9853 22.2369 23.9133 22.2285 23.8589 22.1878C23.3101 21.7779 22.6555 21.7259 22.3943 21.75C22.1548 21.8224 21.9959 22.0285 21.913 22.3869C21.8279 22.7548 21.8352 23.243 21.9041 23.786C22.0415 24.8682 22.4144 26.1011 22.682 26.8691C22.7098 26.9489 22.6815 27.0375 22.6125 27.0864C22.5436 27.1352 22.4507 27.1326 22.3846 27.08C22.3199 27.0285 22.1106 26.8878 21.8281 26.7791C21.5455 26.6704 21.2075 26.6005 20.8757 26.6666C20.6334 26.7149 20.476 26.7582 20.3359 26.8266C20.1971 26.8944 20.0643 26.9922 19.8816 27.1645C19.7564 27.2825 19.6311 27.4089 19.5237 27.6016C19.4162 27.7944 19.321 28.0641 19.2759 28.4705C19.153 29.5763 19.7731 30.5848 20.4981 30.9353C20.5031 30.9377 20.5081 30.9403 20.5129 30.9432C20.6418 31.0202 20.9028 31.1135 21.2373 31.1493C21.5683 31.1847 21.9575 31.1623 22.3433 31.0226C22.3965 31.0033 22.4556 31.0088 22.5044 31.0375C22.5531 31.0663 22.5865 31.1153 22.5953 31.1713C22.6422 31.4671 22.7327 31.9607 22.8757 32.4338C22.9472 32.6704 23.0306 32.8977 23.1262 33.0908C23.223 33.2863 23.326 33.4339 23.4309 33.5234C23.5047 33.5864 23.5191 33.6947 23.4644 33.7748C23.4097 33.8548 23.3035 33.8808 23.2181 33.835C22.7971 33.6093 22.159 33.2083 21.5763 32.7379C21.0257 32.2935 20.4949 31.7639 20.267 31.2435C19.4191 30.793 18.7628 29.6518 18.8987 28.4286C18.9484 27.9811 19.056 27.6611 19.1922 27.4168C19.2952 27.2321 19.4114 27.0966 19.5196 26.9871C19.101 26.1646 18.1205 24.4878 17.5435 23.5541C17.3321 23.2121 17.1914 22.6772 17.106 22.0804C17.0197 21.4771 16.9867 20.7865 17.0048 20.1157C17.0228 19.4454 17.0919 18.7883 17.2126 18.2527C17.2729 17.9851 17.3472 17.743 17.437 17.5429C17.5253 17.3461 17.6361 17.1732 17.7786 17.0628C18.4207 16.5655 19.0284 16.5816 19.3686 16.7016C19.7101 16.3223 20.1194 15.6586 20.5057 14.9472C20.9138 14.1958 21.2845 13.4136 21.5061 12.9116C21.519 12.7924 21.5802 12.6787 21.6497 12.5804C21.7319 12.4643 21.846 12.3419 21.9793 12.2174C22.2465 11.968 22.6114 11.6911 23.0099 11.4157C23.8084 10.8638 24.7641 10.3024 25.4007 9.95374C25.4063 9.95071 25.412 9.94795 25.4178 9.94548C28.0161 8.84339 29.8865 8.86117 31.2838 9.21514C31.9792 9.39131 32.5508 9.64913 33.0273 9.88339C33.1313 9.93453 33.2295 9.98383 33.3227 10.0306ZM19.8097 26.7214C19.9304 26.6225 20.045 26.5463 20.1694 26.4856C20.3549 26.395 20.5514 26.3443 20.8016 26.2944C21.2296 26.2092 21.6444 26.3018 21.9644 26.4249C22.0341 26.4517 22.1001 26.4803 22.1617 26.5093C21.9177 25.7484 21.6432 24.7446 21.5276 23.8338C21.4567 23.275 21.4432 22.7343 21.5433 22.3014C21.6439 21.8663 21.8713 21.5008 22.3075 21.3801C22.3172 21.3774 22.3272 21.3755 22.3372 21.3744C22.6162 21.3435 23.2405 21.3815 23.8306 21.7169C23.9092 21.3116 24.0656 20.8015 24.3265 20.3313C24.6562 19.7373 25.1682 19.1811 25.9257 19.0135C25.9392 19.0105 25.9529 19.009 25.9667 19.009H27.1063C27.3894 19.009 27.7059 18.8625 28.0009 18.6538C28.2916 18.448 28.5359 18.2001 28.669 18.038C28.7128 17.9847 28.7821 17.9594 28.85 17.9719C28.9179 17.9844 28.9736 18.0328 28.9956 18.0983L29.1318 18.5054C29.7476 18.369 30.6041 18.1068 31.3501 17.7248C31.7573 17.5163 32.1241 17.2759 32.4004 17.0066C32.6768 16.7372 32.8531 16.4488 32.9016 16.1428C32.9106 16.086 32.9448 16.0364 32.9948 16.0078C33.0447 15.9793 33.1049 15.9749 33.1584 15.996C33.7715 16.237 34.6815 16.6896 35.4232 17.269C35.7941 17.5587 36.1303 17.8859 36.365 18.2409C36.483 18.4194 36.5771 18.6078 36.636 18.8038C36.8668 18.3708 37.1119 17.7934 37.2806 17.1372C37.5207 16.2039 37.603 15.1247 37.284 14.0794C36.9537 13.5806 36.4019 12.8257 35.8036 12.157C35.4999 11.8176 35.1871 11.5036 34.8876 11.2573C34.5849 11.0084 34.31 10.8405 34.0816 10.7755C33.7994 10.6952 33.481 10.5352 33.1323 10.3599C33.0434 10.3152 32.9525 10.2695 32.8598 10.224C32.3926 9.99424 31.8484 9.74967 31.1906 9.58302C29.8829 9.25175 28.0998 9.22193 25.5747 10.2912C24.9452 10.6363 24.0065 11.1883 23.2257 11.7279C22.8329 11.9994 22.4855 12.264 22.2383 12.4948C22.1144 12.6105 22.0208 12.713 21.9595 12.7996C21.8945 12.8915 21.8831 12.9416 21.8831 12.9572C21.8831 12.9835 21.8776 13.0095 21.8671 13.0335C21.6438 13.5419 21.2616 14.3506 20.8392 15.1283C20.4206 15.8991 19.9501 16.6633 19.5481 17.0636C19.4877 17.1237 19.3945 17.1362 19.3204 17.094C19.1669 17.0067 18.6356 16.8791 18.011 17.3628C17.9398 17.4179 17.8607 17.5257 17.7832 17.6983C17.7072 17.8677 17.6398 18.0836 17.5828 18.3362C17.4691 18.8409 17.4017 19.4722 17.3841 20.1259C17.3666 20.7791 17.3989 21.4479 17.4817 22.0267C17.5655 22.612 17.6978 23.0819 17.8663 23.3546C18.4227 24.2549 19.3599 25.855 19.8097 26.7214ZM20.8355 31.4648C20.9473 31.4915 21.0688 31.5129 21.1969 31.5266C21.5136 31.5605 21.8809 31.5485 22.2569 31.4473C22.3104 31.7485 22.3937 32.151 22.5124 32.5436C22.5685 32.7291 22.6331 32.9148 22.7073 33.0879C22.4206 32.9012 22.11 32.681 21.8146 32.4426C21.4218 32.1255 21.0713 31.7881 20.8355 31.4648Z" fill="black"/>
</svg>
