<svg width="56" height="56" viewBox="0 0 56 56" fill="none" xmlns="http://www.w3.org/2000/svg">
<rect width="56" height="56" rx="4" fill="#F7F3F8"/>
<path d="M22.5377 39.4754L23.6654 33.9624C27.1736 36.4057 29.4916 36.4683 32.3734 35.7166L33.3131 39.6007C33.3758 40.9372 32.4987 43.5475 28.4892 43.2969C24.4798 43.0463 22.851 40.6448 22.5377 39.4754Z" fill="white"/>
<path fill-rule="evenodd" clip-rule="evenodd" d="M23.5947 33.7864C23.654 33.7627 23.7212 33.7704 23.7736 33.8069C25.5125 35.0179 26.9428 35.6294 28.285 35.8506C29.6268 36.0717 30.8977 35.9056 32.3253 35.5331C32.3746 35.5203 32.4269 35.5278 32.4706 35.5539C32.5143 35.58 32.5457 35.6226 32.5576 35.6721L33.4973 39.5563C33.5002 39.568 33.5019 39.58 33.5025 39.592C33.5356 40.2998 33.3214 41.3388 32.5688 42.1714C31.8096 43.0113 30.5268 43.6146 28.4772 43.4865C24.3859 43.2308 22.6884 40.7724 22.3542 39.5247C22.3466 39.4962 22.3457 39.4664 22.3516 39.4376L23.4793 33.9246C23.4921 33.862 23.5355 33.8101 23.5947 33.7864ZM23.7937 34.281L22.7326 39.4688C23.0532 40.577 24.6233 42.8654 28.5009 43.1077C30.4607 43.2302 31.6212 42.6537 32.2873 41.9169C32.9535 41.1799 33.1492 40.256 33.1241 39.6276L32.234 35.9482C30.8523 36.2943 29.5771 36.4481 28.2233 36.225C26.8726 36.0025 25.4594 35.4075 23.7937 34.281Z" fill="black"/>
<path d="M29.9199 40.6977C26.998 41.151 24.6579 36.48 23.8531 34.0878C27.7382 36.7216 29.9646 36.232 32.2459 35.7304L32.2724 35.7245C32.6851 37.1724 32.8419 40.2445 29.9199 40.6977Z" fill="#DADADA"/>
<path d="M21.6607 13.8535C18.6035 16.1589 19.113 20.8888 19.7813 22.977C19.4908 23.0411 19.1919 23.182 18.9042 23.4386C18.1057 24.1506 17.6512 26.4457 19.3427 27.5107C19.622 27.6865 20.0948 27.8354 20.5957 27.853C20.9298 29.3148 22.0993 32.8357 23.8534 34.0887C26.046 35.6549 29.429 37.221 34.1902 35.0284C38.9514 32.8357 39.7032 28.2624 38.6382 22.0603C37.5732 15.8582 34.8167 12.7258 31.8723 11.7235C28.9278 10.7211 25.4822 10.9717 21.6607 13.8535Z" fill="white"/>
<path fill-rule="evenodd" clip-rule="evenodd" d="M31.8112 11.9031C28.9299 10.9223 25.5495 11.1587 21.775 14.005C20.3042 15.1142 19.6811 16.8136 19.5128 18.5154C19.3529 20.1326 19.6068 21.7285 19.9134 22.7614C20.3537 22.7036 20.7629 22.7957 21.0812 22.9157C21.4406 23.0511 21.6981 23.2273 21.7773 23.2888C21.86 23.3532 21.8749 23.4724 21.8105 23.5551C21.7462 23.6378 21.627 23.6527 21.5443 23.5884C21.4902 23.5463 21.2656 23.3907 20.9473 23.2708C20.6293 23.1509 20.2319 23.0719 19.8222 23.1623C19.5637 23.2194 19.2941 23.3452 19.0305 23.5802C18.6819 23.8911 18.3814 24.5851 18.3795 25.3428C18.3776 26.0886 18.6653 26.8599 19.4439 27.3501C19.6903 27.5053 20.1293 27.6468 20.6024 27.6634C21.1362 27.6822 21.6707 27.5417 22.0178 27.1366C22.086 27.0571 22.2058 27.0478 22.2854 27.116C22.365 27.1843 22.3742 27.304 22.306 27.3836C21.9168 27.8376 21.3647 28.0148 20.8361 28.041C21.0212 28.7764 21.3719 29.8844 21.8649 30.9708C22.4157 32.1846 23.1296 33.3385 23.9637 33.9343C25.0474 34.7083 26.4152 35.4751 28.0927 35.7815C29.7673 36.0873 31.7638 35.937 34.1109 34.8561C36.4421 33.7825 37.7828 32.1341 38.4172 29.994C39.0549 27.8428 38.9819 25.1831 38.4512 22.0925C37.3931 15.9305 34.6664 12.8751 31.8112 11.9031ZM20.4435 28.0341C20.6265 28.7879 20.9936 29.969 21.5193 31.1276C22.0753 32.3529 22.8231 33.586 23.7431 34.2431C24.8521 35.0353 26.2721 35.8347 28.0246 36.1548C29.78 36.4754 31.8555 36.3125 34.2697 35.2008C36.6997 34.0817 38.1155 32.3471 38.781 30.1019C39.4433 27.8678 39.3596 25.1398 38.8253 22.0283C37.7534 15.786 34.9671 12.5766 31.9335 11.5439C28.9259 10.52 25.4151 10.7848 21.5465 13.702C19.9602 14.8983 19.3094 16.7166 19.1352 18.4781C18.9709 20.1388 19.2273 21.7724 19.5427 22.8462C19.2849 22.9316 19.0262 23.0756 18.778 23.297C18.3281 23.6981 18.0021 24.5076 18 25.3418C17.9979 26.1877 18.3288 27.0965 19.2417 27.6713C19.5251 27.8497 19.9687 27.9949 20.4435 28.0341Z" fill="black"/>
</svg>
