<svg width="56" height="56" viewBox="0 0 56 56" fill="none" xmlns="http://www.w3.org/2000/svg">
<rect width="56" height="56" rx="4" fill="#F7F3F8"/>
<path d="M23.661 43.1177L24.7887 37.6046C28.297 40.0479 30.615 40.1106 33.4968 39.3588L34.4365 43.243C34.4992 44.5795 33.6221 47.1898 29.6126 46.9392C25.6031 46.6886 23.9743 44.2871 23.661 43.1177Z" fill="white"/>
<path fill-rule="evenodd" clip-rule="evenodd" d="M24.7183 37.4285C24.7776 37.4048 24.8448 37.4125 24.8972 37.449C26.636 38.66 28.0663 39.2715 29.4086 39.4927C30.7504 39.7138 32.0213 39.5477 33.4489 39.1752C33.4982 39.1624 33.5506 39.1699 33.5943 39.196C33.6379 39.2222 33.6693 39.2647 33.6813 39.3142L34.621 43.1984C34.6238 43.2101 34.6255 43.2221 34.6261 43.2342C34.6593 43.9419 34.4451 44.981 33.6924 45.8136C32.9332 46.6534 31.6504 47.2568 29.6008 47.1287C25.5095 46.873 23.812 44.4145 23.4778 43.1668C23.4702 43.1384 23.4693 43.1086 23.4752 43.0797L24.6028 37.5667C24.6156 37.5041 24.659 37.4522 24.7183 37.4285ZM24.9173 37.9231L23.8561 43.1109C24.1768 44.2192 25.7469 46.5076 29.6245 46.7499C31.5844 46.8724 32.7449 46.2958 33.4109 45.5591C34.0772 44.822 34.2728 43.8982 34.2478 43.2697L33.3576 39.5903C31.9759 39.9364 30.7007 40.0902 29.3469 39.8672C27.9962 39.6446 26.583 39.0496 24.9173 37.9231Z" fill="black"/>
<path d="M31.0434 44.34C28.1214 44.7933 25.7813 40.1222 24.9766 37.73C28.8616 40.3638 31.0881 39.8742 33.3694 39.3726L33.3959 39.3668C33.8086 40.8147 33.9654 43.8867 31.0434 44.34Z" fill="#DADADA"/>
<path d="M22.7854 17.4958C19.7282 19.8013 20.2377 24.5312 20.9059 26.6194C20.6155 26.6835 20.3166 26.8244 20.0288 27.081C19.2303 27.793 18.7759 30.0881 20.4674 31.1531C20.7467 31.329 21.2195 31.4778 21.7203 31.4955C22.0545 32.9572 23.2239 36.4782 24.9781 37.7312C27.1708 39.2974 30.5538 40.8636 35.315 38.6709C40.0763 36.4782 40.8281 31.9049 39.7631 25.7027C38.698 19.5006 35.9415 16.3681 32.997 15.3658C30.0526 14.3634 26.6069 14.614 22.7854 17.4958Z" fill="white"/>
<path fill-rule="evenodd" clip-rule="evenodd" d="M32.9344 15.5442C30.053 14.5633 26.6726 14.7997 22.8981 17.6461C21.4272 18.7553 20.8042 20.4546 20.6359 22.1565C20.476 23.7738 20.7298 25.3696 21.0365 26.4025C21.4768 26.3448 21.886 26.4369 22.2043 26.5568C22.5636 26.6922 22.8212 26.8684 22.9003 26.93C22.9831 26.9943 22.998 27.1135 22.9336 27.1963C22.8693 27.279 22.7501 27.2939 22.6674 27.2295C22.6133 27.1875 22.3887 27.0319 22.0704 26.9119C21.7524 26.792 21.3549 26.713 20.9453 26.8035C20.6868 26.8606 20.4172 26.9863 20.1536 27.2214C19.8049 27.5323 19.5045 28.2263 19.5026 28.9839C19.5007 29.7298 19.7883 30.5011 20.5669 30.9913C20.8134 31.1465 21.2523 31.2879 21.7255 31.3046C22.2593 31.3234 22.7937 31.1828 23.1409 30.7778C23.2091 30.6982 23.3289 30.689 23.4085 30.7572C23.4881 30.8254 23.4973 30.9452 23.4291 31.0248C23.0399 31.4788 22.4878 31.656 21.9592 31.6822C22.1443 32.4176 22.495 33.5256 22.988 34.612C23.5388 35.8259 24.2527 36.9797 25.0868 37.5756C26.1705 38.3496 27.5384 39.1163 29.2159 39.4227C30.8904 39.7286 32.887 39.5782 35.2341 38.4973C37.5653 37.4238 38.9061 35.7753 39.5404 33.6352C40.1781 31.484 40.1052 28.8242 39.5745 25.7336C38.5164 19.5716 35.7896 16.5162 32.9344 15.5442ZM21.5666 31.6753C21.7496 32.4291 22.1167 33.6102 22.6424 34.7688C23.1984 35.9941 23.9462 37.2272 24.8663 37.8844C25.9753 38.6765 27.3953 39.476 29.1477 39.7961C30.9032 40.1167 32.9787 39.9538 35.3929 38.842C37.8229 37.7229 39.2387 35.9884 39.9043 33.7431C40.5665 31.509 40.4828 28.781 39.9485 25.6694C38.8766 19.4271 36.0903 16.2176 33.0567 15.1849C30.049 14.161 26.5382 14.4258 22.6696 17.3431C21.0832 18.5394 20.4324 20.3577 20.2582 22.1192C20.094 23.7799 20.3503 25.4135 20.6658 26.4873C20.408 26.5727 20.1493 26.7167 19.901 26.9381C19.4511 27.3393 19.1251 28.1488 19.1231 28.983C19.1209 29.8289 19.4518 30.7377 20.3647 31.3125C20.6481 31.4909 21.0918 31.6361 21.5666 31.6753Z" fill="black"/>
<path d="M34.7375 16.6968C35.9502 20.0753 38.3757 22.5407 38.8422 22.4494C39.3086 22.3581 40.2415 29.7542 39.3086 31.9457C38.3757 34.1371 34.7375 38.2461 30.0731 38.7026C28.2696 39.0983 23.8042 39.1592 20.3713 36.2372C16.0801 32.5848 15.1472 32.5848 14.4009 29.6629C14.9295 31.8544 16.5465 36.1459 19.4384 38.7026C22.6093 41.506 24.3826 44.8204 29.2336 45.4596C34.0845 46.0987 38.0026 43.816 39.3086 42.8116C40.0715 42.2249 41.4231 39.1896 41.9206 37.6069C42.8535 34.2284 41.6408 21.7189 41.6408 20.8058C41.6408 19.8657 38.1891 11.4922 36.0435 9.57465C33.8979 7.65713 30.353 8.02237 25.2222 8.93548C20.0914 9.84858 18.1324 13.7749 17.0129 15.0533C15.8935 16.3316 14.9606 21.5363 15.0539 23.0886C15.1472 24.6408 13.6546 26.741 14.4009 29.6629C15.1472 32.5848 16.0801 32.5848 20.3713 36.2372C23.8042 39.1592 28.2696 39.0983 30.0731 38.7026C28.1763 38.1548 24.3807 36.5055 23.4497 33.7719C22.3303 30.4847 21.4285 29.6325 21.8639 28.8411C22.2681 27.6541 22.6246 26.1816 25.6886 23.7277C27.741 22.0842 28.1141 20.6232 29.3268 18.8883C30.0662 17.8306 33.238 13.6836 34.7375 16.6968Z" fill="#3CD367"/>
<path fill-rule="evenodd" clip-rule="evenodd" d="M31.7473 8.38196C29.9724 8.34812 27.8203 8.66424 25.254 9.12096C21.0764 9.86443 19.0557 12.6244 17.8285 14.3005C17.5736 14.6487 17.3529 14.9501 17.1542 15.1769C16.8999 15.4673 16.6414 16.0024 16.399 16.6914C16.159 17.3738 15.9423 18.1847 15.7626 19.0074C15.4017 20.6595 15.1969 22.3273 15.2419 23.0759C15.267 23.494 15.1851 23.9394 15.0689 24.4044C15.0142 24.6233 14.9509 24.8505 14.8858 25.0835L14.8728 25.1301C14.803 25.3804 14.7316 25.6383 14.6653 25.9063C14.4006 26.9763 14.2212 28.1967 14.5833 29.6146C14.7677 30.3365 14.961 30.8674 15.2097 31.3159C15.4575 31.7629 15.7647 32.1361 16.1862 32.5374C16.6103 32.9413 17.1452 33.3694 17.8497 33.9303L17.9194 33.9857C18.6093 34.5348 19.4527 35.2061 20.4928 36.0914C23.4495 38.6079 27.1936 38.8737 29.2636 38.6396C28.3822 38.3271 27.3045 37.8526 26.2965 37.216C24.9799 36.3845 23.7548 35.2591 23.2687 33.8317C22.8258 32.5311 22.4185 31.6173 22.1125 30.9306C22.034 30.7544 21.9621 30.5932 21.898 30.4442C21.5961 29.7424 21.4312 29.2467 21.6879 28.7636C21.7089 28.702 21.7298 28.6392 21.7511 28.5753C21.932 28.033 22.1408 27.4069 22.6172 26.6564C23.154 25.8109 24.0252 24.8144 25.5686 23.5783C26.5753 22.7721 27.1684 22.0129 27.6611 21.239C27.8574 20.9307 28.037 20.6213 28.222 20.3027C28.2709 20.2186 28.3201 20.1338 28.3701 20.0482C28.6085 19.6403 28.8622 19.2184 29.1699 18.7783C29.5412 18.247 30.5337 16.9239 31.633 16.112C32.1799 15.7081 32.7837 15.4076 33.3688 15.4284C33.5635 15.4353 33.7505 15.4773 33.9278 15.5575C33.3943 14.7919 32.6719 14.1374 31.9076 13.6001C30.7715 12.8013 29.5628 12.2753 28.8023 12.0371L28.9157 11.675C29.71 11.9238 30.9547 12.4662 32.1259 13.2897C33.2952 14.1118 34.4109 15.2281 34.9147 16.6314C35.5129 18.298 36.4112 19.741 37.2168 20.7549C37.6198 21.262 37.9966 21.6581 38.2976 21.9196C38.4486 22.0509 38.5761 22.1444 38.6749 22.2012C38.7243 22.2297 38.762 22.2464 38.7885 22.2548C38.8011 22.2588 38.8085 22.2601 38.8117 22.2605C38.8907 22.2476 38.9561 22.2772 38.9985 22.3084C39.0397 22.3389 39.0701 22.3782 39.0923 22.4123C39.1371 22.4815 39.1766 22.5746 39.2123 22.6781C39.285 22.8885 39.358 23.1887 39.4279 23.5491C39.568 24.2723 39.6999 25.2638 39.7878 26.3245C39.8757 27.3853 39.9198 28.5203 39.8831 29.5301C39.8465 30.5328 39.7296 31.4363 39.4818 32.0187C39.0013 33.1474 37.8378 34.7455 36.2111 36.1184C34.5853 37.4907 32.4787 38.6534 30.1014 38.889C28.2556 39.2903 23.7332 39.3478 20.2469 36.3804C19.2115 35.4992 18.3722 34.8312 17.6825 34.2822L17.6134 34.2272C16.9127 33.6694 16.3633 33.2301 15.9245 32.8122C15.7614 32.657 15.6131 32.5041 15.4771 32.3484C16.3193 34.437 17.6649 36.8814 19.5626 38.5591C20.362 39.2658 21.0725 40.0041 21.7598 40.7183L21.7612 40.7197C22.4497 41.4353 23.114 42.1257 23.8291 42.7482C25.2547 43.9893 26.8773 44.9566 29.2569 45.2701C34.0391 45.9002 37.9073 43.6475 39.1915 42.6598C39.3523 42.5362 39.5644 42.2634 39.8057 41.8724C40.0428 41.4882 40.2957 41.0107 40.5417 40.4992C41.0334 39.4769 41.4915 38.3327 41.7372 37.5518C41.9624 36.7334 42.0618 35.3424 42.0793 33.6815C42.0967 32.025 42.0328 30.1204 41.9396 28.2902C41.8464 26.4603 41.7241 24.7071 41.625 23.3536C41.6028 23.0508 41.5818 22.7671 41.5624 22.5067C41.4958 21.6101 41.4496 20.9885 41.4496 20.8045C41.4496 20.768 41.4403 20.6975 41.415 20.5866C41.3906 20.4792 41.3539 20.3449 41.3054 20.1861C41.2084 19.8686 41.0667 19.461 40.889 18.9896C40.5336 18.0471 40.0369 16.8565 39.4731 15.6349C38.9091 14.4131 38.2793 13.1631 37.6581 12.1007C37.0337 11.033 36.4282 10.1728 35.9157 9.7148C34.8901 8.79825 33.5196 8.41576 31.7473 8.38196ZM14.2153 29.7073C14.7478 31.9141 16.3771 36.2494 19.3113 38.8434C20.0974 39.5384 20.7977 40.2658 21.4863 40.9814L21.4938 40.9892C22.1781 41.7003 22.8522 42.4009 23.58 43.0345C25.0466 44.3113 26.7361 45.3207 29.2073 45.6464C34.1271 46.2946 38.095 43.9819 39.4228 42.9607C39.6435 42.7909 39.8864 42.4643 40.1287 42.0717C40.3751 41.6724 40.6343 41.1821 40.8837 40.6637C41.3822 39.6273 41.8482 38.4642 42.1002 37.6625L42.1012 37.6593L42.1021 37.6561C42.3427 36.7848 42.4413 35.3467 42.4588 33.6855C42.4763 32.0178 42.412 30.1044 42.3186 28.2709C42.2252 26.4368 42.1026 24.6803 42.0035 23.3259C41.9806 23.0126 41.9589 22.7217 41.9393 22.4567C41.8734 21.5693 41.8291 20.9731 41.8291 20.8045C41.8291 20.7234 41.8115 20.6184 41.7851 20.5024C41.7579 20.3829 41.7184 20.2391 41.6683 20.0752C41.5681 19.7473 41.4234 19.3315 41.244 18.8557C40.8852 17.9039 40.3849 16.7049 39.8176 15.4759C39.2505 14.2472 38.615 12.9855 37.9857 11.9092C37.3594 10.8382 36.7289 9.93259 36.1685 9.43184C35.0485 8.43087 33.5738 8.03723 31.7545 8.00254C29.9379 7.9679 27.752 8.29095 25.1875 8.74734C20.8405 9.52096 18.7142 12.4373 17.4989 14.1041C17.2559 14.4374 17.0494 14.7207 16.8688 14.9269C16.5633 15.2757 16.2855 15.8706 16.041 16.5655C15.7942 17.2671 15.5736 18.094 15.3918 18.9264C15.0297 20.5843 14.8148 22.2949 14.8631 23.0986C14.8846 23.4567 14.8149 23.8558 14.7008 24.3124C14.6474 24.5261 14.5853 24.7485 14.5199 24.9829L14.5073 25.0281C14.4375 25.2783 14.3647 25.5411 14.2969 25.8152C14.0252 26.9136 13.8316 28.2038 14.2153 29.7073ZM30.0894 38.5088C32.3573 38.2772 34.3848 37.1633 35.9664 35.8284C37.5582 34.4849 38.6802 32.9327 39.1326 31.87C39.3511 31.3566 39.4675 30.5139 39.5038 29.5163C39.5399 28.5258 39.4966 27.4065 39.4096 26.3558C39.3225 25.305 39.1921 24.3276 39.0553 23.6213C38.9866 23.2668 38.9176 22.9871 38.8536 22.802C38.8272 22.7256 38.8042 22.6726 38.7859 22.6392C38.7456 22.6362 38.7074 22.6272 38.6737 22.6165C38.6128 22.5971 38.5494 22.5669 38.4855 22.5301C38.3576 22.4564 38.2096 22.3459 38.0487 22.2061C37.7258 21.9255 37.333 21.5112 36.9197 20.991C36.0946 19.9526 35.1758 18.4777 34.5613 16.7703C34.2089 16.0676 33.7845 15.8228 33.3553 15.8076C32.9009 15.7915 32.3844 16.0289 31.8584 16.4173C30.8121 17.19 29.849 18.4692 29.4809 18.9957C29.1822 19.423 28.9346 19.8343 28.6978 20.2396C28.649 20.3231 28.6006 20.4065 28.5522 20.4898C28.3667 20.8093 28.1821 21.1273 27.9812 21.4428C27.4711 22.2441 26.8515 23.0371 25.8058 23.8745C24.2852 25.0923 23.4461 26.0589 22.9376 26.8598C22.4872 27.5692 22.2919 28.1539 22.1114 28.6948C22.0882 28.7642 22.0653 28.8328 22.0421 28.9009L22.0367 28.9167L22.0287 28.9312C21.8618 29.2346 21.9298 29.5577 22.2466 30.2942C22.3089 30.439 22.3794 30.5972 22.457 30.7712C22.7631 31.458 23.1788 32.3906 23.6279 33.7094C24.0728 35.0155 25.2109 36.0816 26.4991 36.8951C27.7673 37.696 29.1543 38.2354 30.0894 38.5088Z" fill="black"/>
<path d="M21.59 33.8062C20.9828 32.44 21.4319 30.2009 21.6849 29.2522C22.2541 30.9599 23.5065 34.7929 25.1004 36.0832C26.6943 37.3735 28.8006 38.4551 29.6545 38.8346H26.6184C25.7962 38.7398 23.9429 38.4172 23.108 37.8859C22.0644 37.2217 22.349 35.514 21.59 33.8062Z" fill="#160E1B" fill-opacity="0.2"/>
<path d="M31.6468 44.1477C29.4457 44.6031 25.2902 43.3887 23.4875 42.7245C26.0492 45.0964 28.8954 45.5708 30.4135 45.6657C31.9315 45.7606 37.1496 45.1913 39.5215 42.7245C41.8934 40.2578 42.4627 33.8062 42.0832 36.0832C41.7796 37.9048 39.8694 40.7638 38.9523 41.9655C37.4343 42.5032 33.848 43.6923 31.6468 44.1477Z" fill="#160E1B" fill-opacity="0.2"/>
</svg>
