<svg width="56" height="56" viewBox="0 0 56 56" fill="none" xmlns="http://www.w3.org/2000/svg">
<rect width="56" height="56" rx="4" fill="#F7F3F8"/>
<path d="M22.4198 42.5485L23.5475 37.0355C27.0558 39.4788 29.3738 39.5414 32.2556 38.7896L33.1953 42.6738C33.2579 44.0103 32.3809 46.6207 28.3714 46.3701C24.3619 46.1195 22.733 43.718 22.4198 42.5485Z" fill="white"/>
<path fill-rule="evenodd" clip-rule="evenodd" d="M23.477 36.8591C23.5362 36.8354 23.6035 36.8431 23.6558 36.8796C25.3947 38.0906 26.825 38.7022 28.1672 38.9233C29.509 39.1444 30.78 38.9783 32.2076 38.6059C32.2569 38.593 32.3092 38.6005 32.3529 38.6266C32.3966 38.6528 32.428 38.6954 32.4399 38.7448L33.3797 42.629C33.3825 42.6408 33.3842 42.6527 33.3848 42.6648C33.4179 43.3726 33.2037 44.4116 32.4511 45.2442C31.6919 46.0841 30.4091 46.6874 28.3595 46.5593C24.2681 46.3036 22.5706 43.8451 22.2364 42.5975C22.2288 42.569 22.2279 42.5392 22.2338 42.5103L23.3615 36.9973C23.3743 36.9347 23.4177 36.8828 23.477 36.8591ZM23.676 37.3537L22.6148 42.5416C22.9354 43.6498 24.5055 45.9382 28.3831 46.1805C30.343 46.303 31.5035 45.7265 32.1696 44.9897C32.8358 44.2526 33.0315 43.3288 33.0065 42.7003L32.1163 39.0209C30.7346 39.367 29.4593 39.5208 28.1055 39.2978C26.7548 39.0752 25.3416 38.4802 23.676 37.3537Z" fill="black"/>
<path d="M29.8023 43.7707C26.8803 44.224 24.5403 39.5529 23.7355 37.1608C27.6205 39.7946 29.847 39.305 32.1283 38.8033L32.1548 38.7975C32.5675 40.2454 32.7243 43.3175 29.8023 43.7707Z" fill="#DADADA"/>
<path d="M21.5441 16.9266C18.4868 19.2321 18.9963 23.9619 19.6646 26.0502C19.3741 26.1143 19.0752 26.2552 18.7875 26.5118C17.989 27.2238 17.5345 29.5189 19.226 30.5839C19.5054 30.7598 19.9782 30.9086 20.479 30.9262C20.8131 32.388 21.9826 35.909 23.7367 37.162C25.9294 38.7282 29.3124 40.2944 34.0737 38.1017C38.835 35.909 39.5867 31.3357 38.5217 25.1335C37.4567 18.9313 34.7002 15.7989 31.7557 14.7966C28.8112 13.7942 25.3656 14.0448 21.5441 16.9266Z" fill="white"/>
<path fill-rule="evenodd" clip-rule="evenodd" d="M31.6933 14.9749C28.812 13.994 25.4315 14.2305 21.657 17.0768C20.1862 18.186 19.5631 19.8854 19.3948 21.5872C19.2349 23.2045 19.4888 24.8004 19.7954 25.8333C20.2357 25.7755 20.6449 25.8676 20.9632 25.9875C21.3226 26.123 21.5801 26.2992 21.6593 26.3607C21.742 26.4251 21.7569 26.5443 21.6925 26.627C21.6282 26.7097 21.509 26.7246 21.4263 26.6603C21.3722 26.6182 21.1476 26.4626 20.8293 26.3427C20.5113 26.2228 20.1138 26.1438 19.7042 26.2342C19.4457 26.2913 19.1761 26.4171 18.9125 26.6521C18.5638 26.963 18.2634 27.657 18.2615 28.4147C18.2596 29.1605 18.5473 29.9318 19.3258 30.4221C19.5723 30.5772 20.0112 30.7187 20.4844 30.7353C21.0182 30.7541 21.5526 30.6136 21.8998 30.2085C21.968 30.129 22.0878 30.1198 22.1674 30.188C22.247 30.2562 22.2562 30.376 22.188 30.4555C21.7988 30.9095 21.2467 31.0867 20.7181 31.1129C20.9032 31.8484 21.2539 32.9563 21.7469 34.0427C22.2977 35.2566 23.0116 36.4105 23.8457 37.0063C24.9294 37.7803 26.2973 38.5471 27.9748 38.8535C29.6494 39.1593 31.6459 39.009 33.993 37.9281C36.3242 36.8545 37.665 35.206 38.2994 33.066C38.937 30.9147 38.8641 28.255 38.3334 25.1644C37.2753 19.0023 34.5486 15.9469 31.6933 14.9749ZM20.3255 31.106C20.5085 31.8598 20.8756 33.041 21.4013 34.1995C21.9573 35.4249 22.7051 36.658 23.6252 37.3151C24.7342 38.1073 26.1542 38.9067 27.9066 39.2268C29.6621 39.5474 31.7376 39.3845 34.1518 38.2728C36.5819 37.1537 37.9976 35.4191 38.6632 33.1738C39.3255 30.9397 39.2418 28.2117 38.7074 25.1001C37.6355 18.8578 34.8492 15.6484 31.8156 14.6157C28.808 13.5918 25.2971 13.8565 21.4285 16.7738C19.8421 17.9701 19.1913 19.7884 19.0171 21.5499C18.8529 23.2107 19.1092 24.8442 19.4247 25.9181C19.1669 26.0035 18.9082 26.1475 18.6599 26.3689C18.21 26.77 17.8841 27.5795 17.882 28.4137C17.8799 29.2596 18.2107 30.1684 19.1236 30.7432C19.407 30.9217 19.8507 31.0668 20.3255 31.106Z" fill="black"/>
<path d="M13.5795 39.843C15.4011 42.4235 20.4103 41.9934 22.5924 41.4558L23.5411 36.9968C22.2129 36.0481 20.8214 32.6011 20.4103 30.925C17.4503 30.6214 17.3744 27.3198 19.2719 26.0865C20.6001 25.8019 21.1061 26.1181 21.5488 26.466C21.0175 25.4793 22.4343 22.6395 23.1616 21.3429C28.3227 21.4188 31.5104 19.2873 32.4591 18.2121V19.4455C34.2617 20.489 35.8745 17.6429 35.5899 18.2121C35.3622 18.6675 37.013 21.1848 37.8668 22.3865C38.3096 23.4301 39.1191 26.7127 38.8155 31.4942C38.5119 36.2758 34.2617 38.2934 32.1745 38.7045L32.7437 40.8866C37.2217 42.4045 42.1361 38.9259 44.0335 36.9968C43.4643 36.8703 42.174 34.2265 41.5668 24.6634C40.8079 12.7095 37.013 8.72489 32.6488 8.25053C29.1575 7.87104 27.589 9.35738 27.2411 10.148C18.2283 9.86336 14.718 15.3659 12.7257 20.1096C10.7334 24.8532 14.9077 31.5891 15.2872 33.6763C15.5908 35.346 14.2753 38.4831 13.5795 39.843Z" fill="#7B371F"/>
<path fill-rule="evenodd" clip-rule="evenodd" d="M32.6285 8.43915C29.1958 8.06603 27.7208 9.52927 27.415 10.2244C27.3838 10.2952 27.3127 10.3401 27.2353 10.3376C22.7727 10.1967 19.689 11.4873 17.4744 13.3872C15.2543 15.2918 13.8927 17.8213 12.9008 20.183C11.9334 22.4864 12.4572 25.2973 13.2973 27.8293C13.7004 29.0445 14.1722 30.1837 14.5764 31.1599C14.5918 31.197 14.607 31.2338 14.6222 31.2704C15.0318 32.2599 15.3746 33.0955 15.4741 33.6423C15.6351 34.5283 15.367 35.7705 14.9887 36.9345C14.626 38.0508 14.1498 39.1306 13.8015 39.8248C14.6782 40.9795 16.2735 41.4868 17.9669 41.6296C19.635 41.7703 21.3481 41.5526 22.4319 41.2992L23.3306 37.0752C23.0063 36.8163 22.6898 36.4335 22.3919 35.9892C22.0616 35.4964 21.7458 34.9155 21.4606 34.3151C20.9184 33.1739 20.4799 31.9484 20.2585 31.098C19.5467 31.0017 18.9902 30.7329 18.5868 30.3523C18.1592 29.9489 17.9136 29.4291 17.832 28.8824C17.6697 27.7946 18.1549 26.5863 19.1686 25.9274C19.188 25.9148 19.2096 25.9058 19.2323 25.901C19.9144 25.7548 20.4039 25.7588 20.7886 25.855C20.9641 25.8989 21.1141 25.9611 21.2468 26.0327C21.2341 25.8349 21.2514 25.6203 21.2873 25.401C21.3597 24.9579 21.5145 24.4566 21.706 23.9532C22.0894 22.9455 22.6304 21.9022 22.9963 21.25C23.0304 21.1893 23.0949 21.1521 23.1646 21.1532C28.2752 21.2283 31.4081 19.1166 32.317 18.0866C32.3692 18.0274 32.4525 18.0067 32.5264 18.0346C32.6002 18.0625 32.649 18.1332 32.649 18.2121V19.3322C33.4047 19.7081 34.1281 19.3406 34.6836 18.8628C34.9678 18.6184 35.1909 18.3584 35.3275 18.1913C35.3469 18.1676 35.366 18.1438 35.384 18.1216C35.4225 18.0736 35.4555 18.0327 35.474 18.0133C35.4786 18.0085 35.4868 18.0002 35.497 17.9918C35.5021 17.9876 35.5112 17.9805 35.5233 17.9734C35.5323 17.968 35.5595 17.9525 35.5982 17.9477C35.6464 17.9418 35.7193 17.9536 35.7707 18.0179C35.8101 18.0672 35.8122 18.1191 35.8125 18.1343C35.8131 18.1677 35.8045 18.1946 35.8027 18.2003L35.8025 18.2009C35.7935 18.2291 35.7749 18.2666 35.7597 18.297C35.7603 18.2959 35.7602 18.2962 35.76 18.2979C35.7589 18.3058 35.7535 18.3435 35.7729 18.4325C35.7942 18.5306 35.8383 18.6585 35.9042 18.813C36.0356 19.1208 36.2425 19.5076 36.4866 19.9234C36.9738 20.7535 37.5966 21.6784 38.0216 22.2766C38.0296 22.2877 38.0363 22.2998 38.0416 22.3124C38.4986 23.3894 39.31 26.7029 39.005 31.5062C38.8494 33.9574 37.68 35.7025 36.2867 36.883C34.9802 37.99 33.4739 38.6039 32.4083 38.8486L32.9014 40.7388C35.0481 41.4302 37.3051 40.9587 39.2779 40.0616C41.1635 39.2041 42.7677 37.9674 43.7288 37.0323C43.7006 37.0065 43.6733 36.9783 43.6469 36.9483C43.5417 36.8291 43.4338 36.663 43.3243 36.447C43.1049 36.0144 42.8671 35.3582 42.6305 34.415C42.157 32.5272 41.6816 29.4628 41.3776 24.6754C40.999 18.7128 39.8643 14.7641 38.2989 12.2525C36.7394 9.75039 34.7505 8.66981 32.6285 8.43915ZM27.1246 9.95479C27.6029 9.05997 29.2712 7.69251 32.6695 8.06189C34.9116 8.30559 37.0022 9.45451 38.6209 12.0518C40.2338 14.6396 41.3759 18.6601 41.7563 24.6514C42.0596 29.4272 42.5329 32.4662 42.9986 34.3227C43.2316 35.2516 43.4611 35.8778 43.6627 36.2753C43.7636 36.4743 43.8547 36.6102 43.9314 36.6972C44.0112 36.7877 44.0607 36.8084 44.0748 36.8116C44.1421 36.8265 44.1961 36.8768 44.2156 36.943C44.2352 37.0091 44.2173 37.0807 44.1689 37.1298C43.2064 38.1084 41.4847 39.475 39.435 40.407C37.3864 41.3386 34.9855 41.8468 32.6829 41.0663C32.6225 41.0458 32.5764 40.9962 32.5603 40.9344L31.991 38.7524C31.9778 38.7018 31.9861 38.6479 32.0139 38.6036C32.0417 38.5593 32.0866 38.5284 32.138 38.5183C33.1541 38.3182 34.7077 37.7234 36.0413 36.5935C37.3708 35.4671 38.4784 33.8125 38.6263 31.4822C38.9267 26.7514 38.1306 23.5104 37.7002 22.4793C37.2716 21.8753 36.6493 20.9503 36.1593 20.1155C35.9124 19.6948 35.6959 19.2918 35.5552 18.962C35.5077 18.8509 35.4676 18.7451 35.4377 18.6476C35.3033 18.7992 35.1318 18.9778 34.9311 19.1505C34.3239 19.6727 33.3769 20.196 32.3642 19.6096C32.3056 19.5757 32.2695 19.5131 32.2695 19.4454V18.6725C31.0063 19.8277 27.938 21.5739 23.2725 21.5339C22.9137 22.1813 22.4162 23.1537 22.0607 24.0881C21.8735 24.5801 21.7284 25.0547 21.6618 25.4622C21.5939 25.878 21.6143 26.187 21.716 26.376C21.7586 26.4552 21.7399 26.5533 21.6711 26.6112C21.6023 26.669 21.5024 26.6707 21.4317 26.6152C21.2171 26.4466 21.0053 26.3003 20.6965 26.2231C20.391 26.1468 19.9732 26.134 19.3465 26.2647C18.4824 26.8433 18.0676 27.8896 18.2074 28.8264C18.2776 29.2972 18.4874 29.7368 18.8472 30.0763C19.2066 30.4154 19.7255 30.664 20.4298 30.7362C20.5096 30.7444 20.5757 30.8019 20.5948 30.8798C20.7968 31.7036 21.2427 32.9722 21.8033 34.1522C22.0834 34.7417 22.3902 35.3051 22.7072 35.7779C23.0259 36.2533 23.3468 36.6247 23.6515 36.8424C23.713 36.8863 23.7426 36.9624 23.7269 37.0363L22.7781 41.4953C22.763 41.5664 22.7085 41.6226 22.6379 41.64C21.5307 41.9128 19.7119 42.1576 17.935 42.0077C16.1668 41.8586 14.3855 41.3135 13.4247 39.9524C13.384 39.8948 13.3786 39.8193 13.4108 39.7565C13.7549 39.084 14.2535 37.969 14.6278 36.8172C15.0054 35.6552 15.2432 34.494 15.1007 33.7102C15.0104 33.2135 14.6891 32.4244 14.2716 31.4156C14.256 31.378 14.2403 31.3401 14.2245 31.302C13.8211 30.3277 13.3447 29.1773 12.9371 27.9488C12.0932 25.4052 11.526 22.4763 12.5509 20.0361C13.5513 17.6541 14.941 15.0606 17.2273 13.0992C19.4984 11.1508 22.6398 9.83844 27.1246 9.95479Z" fill="black"/>
</svg>
