<svg width="56" height="56" viewBox="0 0 56 56" fill="none" xmlns="http://www.w3.org/2000/svg">
<rect width="56" height="56" rx="4" fill="#F7F3F8"/>
<path d="M20.681 43.6499L22.0928 36.7481C26.4848 39.8068 29.3867 39.8853 32.9945 38.9441L34.171 43.8067C34.2494 45.4799 33.1514 48.7478 28.1319 48.434C23.1124 48.1203 21.0732 45.1139 20.681 43.6499Z" fill="#B6704F"/>
<path fill-rule="evenodd" clip-rule="evenodd" d="M22.0046 36.5275C22.0788 36.4979 22.1629 36.5075 22.2285 36.5532C24.4054 38.0692 26.196 38.8348 27.8764 39.1117C29.5562 39.3885 31.1473 39.1805 32.9346 38.7143C32.9962 38.6982 33.0618 38.7075 33.1165 38.7403C33.1712 38.773 33.2104 38.8263 33.2254 38.8883L34.4019 43.7509C34.4054 43.7655 34.4076 43.7805 34.4083 43.7956C34.4498 44.6817 34.1816 45.9824 33.2394 47.0248C32.2889 48.0762 30.683 48.8315 28.117 48.6711C22.9951 48.351 20.87 45.2733 20.4516 43.7113C20.442 43.6757 20.4409 43.6384 20.4483 43.6023L21.86 36.7005C21.8761 36.6222 21.9304 36.5572 22.0046 36.5275ZM22.2537 37.1467L20.9252 43.6413C21.3266 45.0288 23.2923 47.8936 28.1467 48.197C30.6003 48.3503 32.0531 47.6285 32.8869 46.7062C33.721 45.7835 33.966 44.6269 33.9346 43.8401L32.8202 39.2339C31.0905 39.6672 29.494 39.8597 27.7991 39.5805C26.1082 39.3018 24.339 38.5569 22.2537 37.1467Z" fill="black"/>
<path d="M29.9231 45.1799C26.2651 45.7474 23.3355 39.8997 22.328 36.9049C27.1918 40.2022 29.9791 39.5893 32.835 38.9613L32.8682 38.954C33.3849 40.7666 33.5812 44.6125 29.9231 45.1799Z" fill="#A44C22"/>
<path d="M19.583 11.5724C15.7556 14.4586 16.3935 20.3799 17.2301 22.9942C16.8665 23.0745 16.4923 23.2508 16.132 23.572C15.1324 24.4634 14.5634 27.3366 16.681 28.6699C17.0307 28.8901 17.6226 29.0764 18.2496 29.0985C18.6679 30.9285 20.132 35.3364 22.328 36.905C25.0731 38.8657 29.3083 40.8264 35.269 38.0814C41.2296 35.3364 42.1708 29.6111 40.8375 21.8466C39.5042 14.0821 36.0533 10.1607 32.367 8.90579C28.6808 7.65092 24.3672 7.96464 19.583 11.5724Z" fill="#B6704F"/>
<path fill-rule="evenodd" clip-rule="evenodd" d="M32.2905 9.13065C28.6834 7.9027 24.4513 8.19872 19.726 11.762C17.8846 13.1506 17.1046 15.278 16.8939 17.4086C16.6937 19.4332 17.0116 21.4311 17.3954 22.7242C17.9467 22.6519 18.459 22.7672 18.8574 22.9173C19.3073 23.0869 19.6298 23.3074 19.7288 23.3845C19.8324 23.4651 19.8511 23.6143 19.7705 23.7179C19.69 23.8214 19.5407 23.8401 19.4371 23.7595C19.3695 23.7069 19.0883 23.5121 18.6898 23.3619C18.2917 23.2118 17.7941 23.1129 17.2813 23.2262C16.9576 23.2976 16.6202 23.455 16.2901 23.7493C15.8537 24.1385 15.4775 25.0074 15.4751 25.9558C15.4728 26.8896 15.8329 27.8552 16.8076 28.4689C17.1161 28.6631 17.6657 28.8402 18.258 28.8611C18.9263 28.8846 19.5954 28.7087 20.03 28.2016C20.1154 28.102 20.2654 28.0904 20.365 28.1758C20.4646 28.2612 20.4761 28.4112 20.3907 28.5108C19.9035 29.0792 19.2123 29.301 18.5506 29.3338C18.7823 30.2545 19.2214 31.6415 19.8385 33.0016C20.5281 34.5212 21.4219 35.9658 22.4661 36.7117C23.8228 37.6807 25.5352 38.6406 27.6353 39.0241C29.7317 39.407 32.2312 39.2188 35.1696 37.8656C38.088 36.5216 39.7665 34.4579 40.5607 31.7788C41.359 29.0856 41.2678 25.7559 40.6034 21.8868C39.2787 14.1726 35.8651 10.3475 32.2905 9.13065ZM18.0591 29.3251C18.2882 30.2688 18.7477 31.7475 19.4059 33.1979C20.1019 34.7319 21.0382 36.2756 22.19 37.0983C23.5783 38.09 25.356 39.0908 27.55 39.4915C29.7476 39.8929 32.346 39.689 35.3683 38.2972C38.4106 36.8962 40.183 34.7247 41.0162 31.9138C41.8453 29.1169 41.7405 25.7017 41.0716 21.8064C39.7297 13.9916 36.2415 9.97377 32.4436 8.6809C28.6783 7.39912 24.2831 7.73054 19.44 11.3827C17.454 12.8803 16.6392 15.1566 16.4211 17.3619C16.2155 19.441 16.5364 21.486 16.9314 22.8303C16.6086 22.9373 16.2848 23.1176 15.9739 23.3947C15.4107 23.8969 15.0026 24.9103 15 25.9546C14.9974 27.0137 15.4116 28.1513 16.5545 28.8709C16.9093 29.0943 17.4647 29.2761 18.0591 29.3251Z" fill="black"/>
</svg>
