<svg width="56" height="56" viewBox="0 0 56 56" fill="none" xmlns="http://www.w3.org/2000/svg">
<rect width="56" height="56" rx="4" fill="#F7F3F8"/>
<path d="M19.681 43.6499L21.0928 36.7481C25.4848 39.8068 28.3867 39.8853 31.9945 38.9441L33.171 43.8067C33.2494 45.4799 32.1514 48.7478 27.1319 48.434C22.1124 48.1203 20.0732 45.1139 19.681 43.6499Z" fill="#7B371F"/>
<path fill-rule="evenodd" clip-rule="evenodd" d="M21.0046 36.5275C21.0788 36.4979 21.1629 36.5075 21.2285 36.5532C23.4054 38.0692 25.196 38.8348 26.8764 39.1117C28.5562 39.3885 30.1473 39.1805 31.9346 38.7143C31.9962 38.6982 32.0618 38.7075 32.1165 38.7403C32.1712 38.773 32.2104 38.8263 32.2254 38.8883L33.4019 43.7509C33.4054 43.7655 33.4076 43.7805 33.4083 43.7956C33.4498 44.6817 33.1816 45.9824 32.2394 47.0248C31.2889 48.0762 29.683 48.8315 27.117 48.6711C21.9951 48.351 19.87 45.2733 19.4516 43.7113C19.442 43.6757 19.4409 43.6384 19.4483 43.6023L20.86 36.7005C20.8761 36.6222 20.9304 36.5572 21.0046 36.5275ZM21.2537 37.1467L19.9252 43.6413C20.3266 45.0288 22.2923 47.8936 27.1467 48.197C29.6003 48.3503 31.0531 47.6285 31.8869 46.7062C32.721 45.7835 32.966 44.6269 32.9346 43.8401L31.8202 39.2339C30.0905 39.6672 28.494 39.8597 26.7991 39.5805C25.1082 39.3018 23.339 38.5569 21.2537 37.1467Z" fill="black"/>
<path d="M28.9231 45.1799C25.2651 45.7474 22.3355 39.8997 21.328 36.9049C26.1918 40.2022 28.9791 39.5893 31.835 38.9613L31.8682 38.954C32.3849 40.7666 32.5812 44.6125 28.9231 45.1799Z" fill="#4A2113"/>
<path d="M18.583 11.5724C14.7556 14.4586 15.3935 20.3799 16.2301 22.9942C15.8665 23.0745 15.4923 23.2508 15.132 23.572C14.1324 24.4634 13.5634 27.3366 15.681 28.6699C16.0307 28.8901 16.6226 29.0764 17.2496 29.0985C17.6679 30.9285 19.132 35.3364 21.328 36.905C24.0731 38.8657 28.3083 40.8264 34.269 38.0814C40.2296 35.3364 41.1708 29.6111 39.8375 21.8466C38.5042 14.0821 35.0533 10.1607 31.367 8.90579C27.6808 7.65092 23.3672 7.96464 18.583 11.5724Z" fill="#7B371F"/>
<path fill-rule="evenodd" clip-rule="evenodd" d="M31.2905 9.13065C27.6834 7.9027 23.4513 8.19872 18.726 11.762C16.8846 13.1506 16.1046 15.278 15.8939 17.4086C15.6937 19.4332 16.0116 21.4311 16.3954 22.7242C16.9467 22.6519 17.459 22.7672 17.8574 22.9173C18.3073 23.0869 18.6298 23.3074 18.7288 23.3845C18.8324 23.4651 18.8511 23.6143 18.7705 23.7179C18.69 23.8214 18.5407 23.8401 18.4371 23.7595C18.3695 23.7069 18.0883 23.5121 17.6898 23.3619C17.2917 23.2118 16.7941 23.1129 16.2813 23.2262C15.9576 23.2976 15.6202 23.455 15.2901 23.7493C14.8537 24.1385 14.4775 25.0074 14.4751 25.9558C14.4728 26.8896 14.8329 27.8552 15.8076 28.4689C16.1161 28.6631 16.6657 28.8402 17.258 28.8611C17.9263 28.8846 18.5954 28.7087 19.03 28.2016C19.1154 28.102 19.2654 28.0904 19.365 28.1758C19.4646 28.2612 19.4761 28.4112 19.3907 28.5108C18.9035 29.0792 18.2123 29.301 17.5506 29.3338C17.7823 30.2545 18.2214 31.6415 18.8385 33.0016C19.5281 34.5212 20.4219 35.9658 21.4661 36.7117C22.8228 37.6807 24.5352 38.6406 26.6353 39.0241C28.7317 39.407 31.2312 39.2188 34.1696 37.8656C37.088 36.5216 38.7665 34.4579 39.5607 31.7788C40.359 29.0856 40.2678 25.7559 39.6034 21.8868C38.2787 14.1726 34.8651 10.3475 31.2905 9.13065ZM17.0591 29.3251C17.2882 30.2688 17.7477 31.7475 18.4059 33.1979C19.1019 34.7319 20.0382 36.2756 21.19 37.0983C22.5783 38.09 24.356 39.0908 26.55 39.4915C28.7476 39.8929 31.346 39.689 34.3683 38.2972C37.4106 36.8962 39.183 34.7247 40.0162 31.9138C40.8453 29.1169 40.7405 25.7017 40.0716 21.8064C38.7297 13.9916 35.2415 9.97377 31.4436 8.6809C27.6783 7.39912 23.2831 7.73054 18.44 11.3827C16.454 12.8803 15.6392 15.1566 15.4211 17.3619C15.2155 19.441 15.5364 21.486 15.9314 22.8303C15.6086 22.9373 15.2848 23.1176 14.9739 23.3947C14.4107 23.8969 14.0026 24.9103 14 25.9546C13.9974 27.0137 14.4116 28.1513 15.5545 28.8709C15.9093 29.0943 16.4647 29.2761 17.0591 29.3251Z" fill="black"/>
</svg>
