<svg width="56" height="56" viewBox="0 0 56 56" fill="none" xmlns="http://www.w3.org/2000/svg">
<rect width="56" height="56" rx="4" fill="#F7F3F8"/>
<path d="M20.681 42.6499L22.0928 35.7481C26.4848 38.8068 29.3867 38.8853 32.9945 37.9441L34.171 42.8067C34.2494 44.4799 33.1514 47.7478 28.1319 47.434C23.1124 47.1203 21.0732 44.1139 20.681 42.6499Z" fill="#DD9E86"/>
<path fill-rule="evenodd" clip-rule="evenodd" d="M22.0046 35.5275C22.0788 35.4979 22.1629 35.5075 22.2285 35.5532C24.4054 37.0692 26.196 37.8348 27.8764 38.1117C29.5562 38.3885 31.1473 38.1805 32.9346 37.7143C32.9962 37.6982 33.0618 37.7075 33.1165 37.7403C33.1712 37.773 33.2104 37.8263 33.2254 37.8883L34.4019 42.7509C34.4054 42.7655 34.4076 42.7805 34.4083 42.7956C34.4498 43.6817 34.1816 44.9824 33.2394 46.0248C32.2889 47.0762 30.683 47.8315 28.117 47.6711C22.9951 47.351 20.87 44.2733 20.4516 42.7113C20.442 42.6757 20.4409 42.6384 20.4483 42.6023L21.86 35.7005C21.8761 35.6222 21.9304 35.5572 22.0046 35.5275ZM22.2537 36.1467L20.9252 42.6413C21.3266 44.0288 23.2923 46.8936 28.1467 47.197C30.6003 47.3503 32.0531 46.6285 32.8869 45.7062C33.721 44.7835 33.966 43.6269 33.9346 42.8401L32.8202 38.2339C31.0905 38.6672 29.494 38.8597 27.7991 38.5805C26.1082 38.3018 24.339 37.5569 22.2537 36.1467Z" fill="black"/>
<path d="M29.9231 44.1799C26.2651 44.7474 23.3355 38.8997 22.328 35.9049C27.1918 39.2022 29.9791 38.5893 32.835 37.9613L32.8682 37.954C33.3849 39.7666 33.5812 43.6125 29.9231 44.1799Z" fill="#855F50"/>
<path d="M19.583 10.5724C15.7556 13.4586 16.3935 19.3799 17.2301 21.9942C16.8665 22.0745 16.4923 22.2508 16.132 22.572C15.1324 23.4634 14.5634 26.3366 16.681 27.6699C17.0307 27.8901 17.6226 28.0764 18.2496 28.0985C18.6679 29.9285 20.132 34.3364 22.328 35.905C25.0731 37.8657 29.3083 39.8264 35.269 37.0814C41.2296 34.3364 42.1708 28.6111 40.8375 20.8466C39.5042 13.0821 36.0533 9.16065 32.367 7.90579C28.6808 6.65092 24.3672 6.96464 19.583 10.5724Z" fill="#DD9E86"/>
<path fill-rule="evenodd" clip-rule="evenodd" d="M32.2905 8.13065C28.6834 6.9027 24.4513 7.19872 19.726 10.762C17.8846 12.1506 17.1046 14.278 16.8939 16.4086C16.6937 18.4332 17.0116 20.4311 17.3954 21.7242C17.9467 21.6519 18.459 21.7672 18.8574 21.9173C19.3073 22.0869 19.6298 22.3074 19.7288 22.3845C19.8324 22.4651 19.8511 22.6143 19.7705 22.7179C19.69 22.8214 19.5407 22.8401 19.4371 22.7595C19.3695 22.7069 19.0883 22.5121 18.6898 22.3619C18.2917 22.2118 17.7941 22.1129 17.2813 22.2262C16.9576 22.2976 16.6202 22.455 16.2901 22.7493C15.8537 23.1385 15.4775 24.0074 15.4751 24.9558C15.4728 25.8896 15.8329 26.8552 16.8076 27.4689C17.1161 27.6631 17.6657 27.8402 18.258 27.8611C18.9263 27.8846 19.5954 27.7087 20.03 27.2016C20.1154 27.102 20.2654 27.0904 20.365 27.1758C20.4646 27.2612 20.4761 27.4112 20.3907 27.5108C19.9035 28.0792 19.2123 28.301 18.5506 28.3338C18.7823 29.2545 19.2214 30.6415 19.8385 32.0016C20.5281 33.5212 21.4219 34.9658 22.4661 35.7117C23.8228 36.6807 25.5352 37.6406 27.6353 38.0241C29.7317 38.407 32.2312 38.2188 35.1696 36.8656C38.088 35.5216 39.7665 33.4579 40.5607 30.7788C41.359 28.0856 41.2678 24.7559 40.6034 20.8868C39.2787 13.1726 35.8651 9.34751 32.2905 8.13065ZM18.0591 28.3251C18.2882 29.2688 18.7477 30.7475 19.4059 32.1979C20.1019 33.7319 21.0382 35.2756 22.19 36.0983C23.5783 37.09 25.356 38.0908 27.55 38.4915C29.7476 38.8929 32.346 38.689 35.3683 37.2972C38.4106 35.8962 40.183 33.7247 41.0162 30.9138C41.8453 28.1169 41.7405 24.7017 41.0716 20.8064C39.7297 12.9916 36.2415 8.97377 32.4436 7.6809C28.6783 6.39912 24.2831 6.73054 19.44 10.3827C17.454 11.8803 16.6392 14.1566 16.4211 16.3619C16.2155 18.441 16.5364 20.486 16.9314 21.8303C16.6086 21.9373 16.2848 22.1176 15.9739 22.3947C15.4107 22.8969 15.0026 23.9103 15 24.9546C14.9974 26.0137 15.4116 27.1513 16.5545 27.8709C16.9093 28.0943 17.4647 28.2761 18.0591 28.3251Z" fill="black"/>
</svg>
