<svg width="56" height="56" viewBox="0 0 56 56" fill="none" xmlns="http://www.w3.org/2000/svg">
<rect width="56" height="56" rx="4" fill="#F7F3F8"/>
<path d="M25.1189 22.7873L25.9025 18.9565C28.3403 20.6543 29.9509 20.6978 31.9534 20.1754L32.6064 22.8744C32.6499 23.8031 32.0405 25.6169 29.2544 25.4428C26.4684 25.2686 25.3366 23.5999 25.1189 22.7873Z" fill="white"/>
<path fill-rule="evenodd" clip-rule="evenodd" d="M25.8537 18.8341C25.8948 18.8176 25.9416 18.823 25.978 18.8483C27.1862 19.6898 28.1801 20.1147 29.1128 20.2684C30.0451 20.422 30.9283 20.3066 31.9203 20.0478C31.9545 20.0389 31.9909 20.0441 32.0212 20.0623C32.0516 20.0804 32.0734 20.11 32.0817 20.1444L32.7347 22.8434C32.7366 22.8515 32.7378 22.8598 32.7382 22.8682C32.7613 23.36 32.6124 24.082 32.0894 24.6605C31.5619 25.2441 30.6705 25.6634 29.2463 25.5744C26.4034 25.3967 25.2239 23.6884 24.9917 22.8214C24.9864 22.8017 24.9858 22.7809 24.9899 22.7609L25.7734 18.9301C25.7823 18.8866 25.8125 18.8506 25.8537 18.8341ZM25.9919 19.1778L25.2546 22.7826C25.4774 23.5527 26.5684 25.1428 29.2628 25.3112C30.6246 25.3963 31.431 24.9957 31.8938 24.4837C32.3568 23.9716 32.4927 23.3296 32.4753 22.8929L31.8568 20.3362C30.8967 20.5767 30.0106 20.6836 29.0699 20.5286C28.1313 20.374 27.1494 19.9605 25.9919 19.1778Z" fill="black"/>
<path d="M30.2488 23.6366C28.2184 23.9515 26.5924 20.7058 26.0332 19.0436C28.7328 20.8737 30.2799 20.5335 31.865 20.1849L31.8835 20.1809C32.1702 21.187 32.2792 23.3216 30.2488 23.6366Z" fill="#DADADA"/>
<path d="M24.5096 4.98283C22.3852 6.58481 22.7392 9.87142 23.2036 11.3225C23.0018 11.367 22.7941 11.4649 22.5941 11.6432C22.0393 12.1379 21.7235 13.7327 22.8988 14.4728C23.0929 14.595 23.4215 14.6984 23.7695 14.7106C24.0017 15.7264 24.8143 18.173 26.0332 19.0436C27.5568 20.1319 29.9075 21.2202 33.2159 19.6966C36.5243 18.173 37.0467 14.9952 36.3067 10.6855C35.5666 6.37585 33.6512 4.19926 31.6052 3.50275C29.5592 2.80624 27.165 2.98037 24.5096 4.98283Z" fill="white"/>
<path fill-rule="evenodd" clip-rule="evenodd" d="M31.5628 3.62756C29.5607 2.94599 27.2117 3.11029 24.589 5.0881C23.5669 5.85882 23.134 7.03966 23.017 8.22222C22.9059 9.34599 23.0823 10.4549 23.2954 11.1726C23.6014 11.1325 23.8857 11.1965 24.1068 11.2798C24.3566 11.3739 24.5355 11.4964 24.5905 11.5391C24.648 11.5838 24.6584 11.6667 24.6136 11.7242C24.5689 11.7816 24.4861 11.792 24.4286 11.7473C24.3911 11.7181 24.235 11.6099 24.0138 11.5266C23.7928 11.4433 23.5167 11.3884 23.232 11.4512C23.0524 11.4909 22.8651 11.5783 22.6819 11.7416C22.4396 11.9576 22.2308 12.4399 22.2295 12.9663C22.2282 13.4846 22.4281 14.0206 22.9691 14.3612C23.1404 14.469 23.4454 14.5673 23.7741 14.5789C24.1451 14.5919 24.5164 14.4943 24.7577 14.2128C24.8051 14.1575 24.8883 14.1511 24.9436 14.1985C24.9989 14.2459 25.0053 14.3292 24.9579 14.3845C24.6875 14.6999 24.3038 14.823 23.9366 14.8413C24.0652 15.3523 24.3089 16.1222 24.6514 16.8771C25.0341 17.7205 25.5302 18.5223 26.1098 18.9363C26.8628 19.4742 27.8133 20.007 28.979 20.2199C30.1425 20.4324 31.5299 20.3279 33.1608 19.5768C34.7806 18.8308 35.7123 17.6854 36.1531 16.1983C36.5962 14.7035 36.5455 12.8554 36.1768 10.7078C35.4415 6.42606 33.5468 4.30298 31.5628 3.62756ZM23.6637 14.8364C23.7909 15.3602 24.046 16.181 24.4113 16.986C24.7976 17.8374 25.3173 18.6943 25.9566 19.1509C26.7272 19.7013 27.7139 20.2569 28.9316 20.4793C30.1514 20.7021 31.5936 20.5889 33.2711 19.8164C34.9597 19.0387 35.9434 17.8335 36.4059 16.2733C36.8661 14.7209 36.8079 12.8253 36.4367 10.6632C35.6918 6.32564 33.7557 4.09554 31.6478 3.37793C29.5579 2.66648 27.1183 2.85044 24.4302 4.87756C23.3279 5.70881 22.8757 6.97227 22.7546 8.19627C22.6405 9.35027 22.8186 10.4854 23.0378 11.2315C22.8587 11.2909 22.6789 11.391 22.5064 11.5448C22.1938 11.8235 21.9673 12.386 21.9658 12.9657C21.9644 13.5535 22.1943 14.1849 22.8286 14.5843C23.0255 14.7083 23.3338 14.8092 23.6637 14.8364Z" fill="black"/>
<path d="M25.0653 22.6813C23.3512 22.7033 20.1199 22.1334 18.2749 24.8569C16.8905 26.9006 13.5942 31.6472 13.6602 35.9324C14.9567 36.4158 17.8135 37.7651 18.8683 39.2946C18.8683 39.4044 18.7628 39.7297 18.3409 40.1516C17.9189 40.5735 18.6925 43.1842 19.132 44.4368C19.6594 45.2938 21.8613 46.6255 27.5045 47.4694C33.1478 48.3132 36.1408 45.096 37.3934 43.316C37.3934 41.2723 36.8723 34.8981 35.2837 30.5924L35.943 32.3065C35.732 31.6736 37.4813 29.3618 38.3823 28.285C38.4877 27.3884 36.9758 24.8349 36.2067 23.6702C35.0992 22.5099 33.7455 22.5275 32.6467 22.8791C32.3303 24.9887 30.4492 25.4282 29.5482 25.3843C26.542 25.2788 25.307 23.5383 25.0653 22.6813Z" fill="#2CCADF"/>
<path fill-rule="evenodd" clip-rule="evenodd" d="M24.2632 22.5342C24.558 22.5438 24.8281 22.5525 25.0636 22.5495L25.1647 22.5482L25.1922 22.6456C25.4181 23.4464 26.6029 25.149 29.5529 25.2525L29.5547 25.2526L29.5547 25.2526C29.9842 25.2736 30.6532 25.1785 31.2496 24.8258C31.8406 24.4764 32.3645 23.8722 32.5164 22.8596L32.5285 22.7785L32.6066 22.7536C33.7336 22.3929 35.1474 22.3695 36.3021 23.5792L36.3103 23.5878L36.3168 23.5976C36.7032 24.1828 37.2761 25.1165 37.7397 26.0179C37.9715 26.4684 38.1774 26.9136 38.319 27.3046C38.4584 27.6896 38.5435 28.043 38.5132 28.3005L38.5086 28.3395L38.4834 28.3697C38.0349 28.9057 37.3756 29.7487 36.8556 30.535C36.5954 30.9285 36.3725 31.3041 36.2282 31.6177C36.156 31.7747 36.1053 31.9122 36.0787 32.0262C36.0514 32.1432 36.0532 32.22 36.0681 32.2648L35.9698 32.3001C37.1288 36.4414 37.5252 41.5279 37.5252 43.3161V43.3578L37.5012 43.392C36.2348 45.1915 33.1989 48.4542 27.485 47.5998C24.6567 47.1769 22.6843 46.6308 21.3495 46.0799C20.0203 45.5314 19.3057 44.9707 19.0197 44.5059L19.0123 44.4939L19.0076 44.4805C18.7868 43.8513 18.4819 42.8804 18.2848 42.0119C18.1864 41.5783 18.1138 41.1653 18.0931 40.8312C18.0828 40.6644 18.085 40.5122 18.1055 40.3846C18.1255 40.2605 18.1657 40.1404 18.2477 40.0584C18.4506 39.8554 18.5743 39.6789 18.6466 39.5439C18.7 39.4441 18.723 39.3715 18.7318 39.3296C18.2151 38.6043 17.2749 37.9115 16.2884 37.3351C15.2875 36.7504 14.2562 36.2954 13.6141 36.056L13.5297 36.0245L13.5283 35.9344C13.4949 33.7605 14.3134 31.4799 15.3057 29.4951C16.2492 27.6083 17.3566 25.9759 18.0579 24.942C18.095 24.8873 18.131 24.8343 18.1658 24.783C19.1144 23.3827 20.4211 22.8305 21.6984 22.6259C22.6058 22.4805 23.5143 22.5099 24.2632 22.5342ZM18.9979 39.3336C18.9887 39.418 18.9511 39.5338 18.8791 39.6684C18.7931 39.8289 18.6531 40.0259 18.4341 40.2449C18.4106 40.2684 18.3827 40.3222 18.3659 40.4265C18.3497 40.5273 18.3466 40.6581 18.3563 40.8149C18.3757 41.1282 18.4448 41.5252 18.542 41.9536C18.7347 42.8028 19.0333 43.7558 19.2516 44.3795C19.4986 44.7705 20.1488 45.2991 21.4501 45.8362C22.759 46.3764 24.7091 46.9181 27.524 47.339C33.0608 48.1669 36.0087 45.0412 37.2615 43.2743C37.2545 41.1944 36.7304 34.8943 35.1601 30.6381L35.4068 30.5451L35.4075 30.5468L35.8793 31.7736C35.9093 31.6889 35.9462 31.5998 35.9887 31.5075C36.1412 31.176 36.3724 30.7876 36.6357 30.3895C37.1526 29.6079 37.8028 28.7743 38.2545 28.2323C38.2654 28.0405 38.2008 27.7528 38.071 27.3944C37.9348 27.0181 37.7344 26.584 37.5052 26.1385C37.0497 25.2529 36.4859 24.333 36.1033 23.7528C35.0697 22.6769 33.8162 22.6631 32.7639 22.9808C32.5836 24.0293 32.0213 24.6759 31.3838 25.0528C30.7357 25.436 30.0142 25.5389 29.5427 25.5161C26.5858 25.412 25.286 23.7501 24.9685 22.8139C24.7396 22.8141 24.4905 22.806 24.2259 22.7974C23.4843 22.7732 22.621 22.7451 21.7401 22.8863C20.5903 23.0705 19.4377 23.542 18.5598 24.6871C19.2961 24.6047 20.2763 24.5909 21.2243 24.8962C22.3166 25.248 23.3607 26.0222 23.9364 27.5801L23.689 27.6715C23.144 26.1968 22.1663 25.4767 21.1435 25.1472C20.1402 24.8241 19.0882 24.8757 18.3514 24.9791C18.3272 25.0148 18.3025 25.0513 18.2772 25.0885C17.5757 26.1227 16.477 27.7423 15.5416 29.6131C14.5701 31.5561 13.7821 33.7561 13.7911 35.8409C14.4489 36.0921 15.4488 36.5393 16.4214 37.1074C17.3613 37.6565 18.2906 38.3271 18.8544 39.0528C19.7296 37.5152 20.9759 35.2489 21.9941 33.2294C22.5232 32.1801 22.9895 31.1996 23.3101 30.4234C23.4705 30.0351 23.5933 29.7007 23.6693 29.436C23.7073 29.3035 23.7329 29.191 23.7459 29.0994C23.7593 29.0056 23.758 28.9434 23.7499 28.907L24.0074 28.8498C24.0256 28.932 24.022 29.031 24.007 29.1366C23.9916 29.2444 23.9627 29.3695 23.9228 29.5087C23.8429 29.7871 23.7159 30.1318 23.5539 30.5241C23.2295 31.3093 22.7597 32.2967 22.2296 33.3482C21.1751 35.4397 19.8774 37.7935 18.9979 39.3336Z" fill="black"/>
<path d="M23.8745 29.4913C23.8959 29.3593 23.9188 29.231 23.9435 29.1066C23.9768 29.1399 23.9502 29.2747 23.8745 29.4913C23.3824 32.5315 23.7458 37.4846 23.7458 39.1273C23.7458 40.8414 21.5702 45.9836 21.5702 45.9836C20.9769 45.8297 19.6847 45.3243 19.2628 44.5332C18.7354 43.5443 18.0102 40.9732 18.208 40.314C18.4937 40.0063 18.9859 39.4174 18.9332 39.2592C20.4882 36.3986 23.3515 30.9888 23.8745 29.4913Z" fill="#160E1B" fill-opacity="0.4"/>
<path d="M27.9651 26.3376C26.5715 25.8242 25.2401 23.8544 24.9984 22.6458C25.5258 23.8325 27.1925 25.49 29.6791 25.4147C31.8547 25.3488 32.6458 23.7665 32.6458 22.9754C33.0413 23.1732 32.3863 25.4048 31.7228 26.008C30.9976 26.6673 29.2177 26.7991 27.9651 26.3376Z" fill="#160E1B" fill-opacity="0.4"/>
<path d="M26.2755 29.0855C26.2755 28.745 26.6728 28.6598 26.8714 28.6598V28.3193C26.5462 28.3193 26.2241 28.4119 26.0859 28.4645C26.0798 28.4669 26.0737 28.4693 26.0676 28.4717C26.1738 28.6617 26.1369 28.9601 26.1052 29.0855H26.2755Z" fill="#F6E114"/>
<path fill-rule="evenodd" clip-rule="evenodd" d="M26.8655 28.2338C26.8673 28.2338 26.8692 28.2338 26.871 28.2338C28.0058 28.2338 28.4244 28.9484 28.4874 29.3266L28.4922 29.3548L27.6513 30.9525L28.9375 32.8389L27.8766 33.9963L26.871 32.2365L25.8625 34.0015L24.8915 32.8363L26.1745 30.9544L25.2515 29.3601L25.2537 29.3335C25.2958 28.8291 25.6564 28.543 26.0356 28.3923C26.0417 28.3898 26.0482 28.3873 26.0551 28.3847C26.0552 28.3846 26.0552 28.3846 26.0553 28.3846C26.1988 28.3299 26.5287 28.2348 26.8655 28.2338ZM26.0228 28.5828C25.7153 28.7229 25.4669 28.9539 25.4259 29.3216L26.3756 30.9619L25.1046 32.826L25.1798 32.9163H25.4509C25.4018 32.812 25.3614 32.6888 25.362 32.5753C25.3624 32.4893 25.3866 32.3996 25.4585 32.3326C25.5293 32.2664 25.6329 32.2352 25.7642 32.2352C25.8964 32.2352 26.0007 32.2667 26.0759 32.3295C26.1516 32.3928 26.1865 32.4786 26.1977 32.5648C26.2129 32.6816 26.1861 32.8093 26.1481 32.9163H26.2865L26.871 31.8933L27.7936 33.5079C27.8467 33.5009 27.8866 33.4862 27.9162 33.4685C27.9573 33.4439 27.9835 33.4106 27.9993 33.3728C28.0326 33.2935 28.0205 33.192 27.9868 33.1246L27.9778 33.1067V32.8737H28.6746L28.7208 32.8234L27.4529 30.9638L28.3143 29.3272C28.2497 29.0233 27.9057 28.4386 26.9562 28.4055V28.5773C27.1658 28.5924 27.3118 28.6634 27.4077 28.7587C27.5145 28.8645 27.5521 28.9933 27.5521 29.0852V29.1099L26.871 30.1802L26.2283 29.1703H25.9954L26.0223 29.0643C26.0365 29.0079 26.0527 28.909 26.0526 28.8025C26.0525 28.7246 26.0438 28.6481 26.0228 28.5828ZM26.361 29.0617L26.871 29.8631L27.3805 29.0625C27.3748 29.012 27.3499 28.9411 27.2878 28.8795C27.2175 28.8098 27.0918 28.7446 26.871 28.7446C26.7807 28.7446 26.6461 28.7645 26.5375 28.8203C26.4385 28.8712 26.3693 28.9464 26.361 29.0617ZM26.2169 28.9269C26.2617 28.805 26.3565 28.7219 26.4596 28.6689C26.5662 28.6141 26.6867 28.5879 26.7859 28.5785V28.4062C26.5475 28.4179 26.319 28.4755 26.1815 28.5206C26.2129 28.6127 26.2228 28.7128 26.2229 28.8024C26.2229 28.8455 26.2206 28.8875 26.2169 28.9269ZM28.5186 33.044H28.1481V33.0677C28.1929 33.1699 28.209 33.3133 28.1563 33.4388C28.1562 33.439 28.1561 33.4392 28.156 33.4395L28.5186 33.044ZM27.9867 33.6242C27.9554 33.6409 27.9208 33.6543 27.8828 33.6639L27.9087 33.7093L27.9867 33.6242ZM26.1892 33.0866H25.8819L25.9435 32.9633C25.9973 32.8557 26.0441 32.7038 26.0289 32.5867C26.0216 32.531 26.0013 32.4891 25.9666 32.4601C25.9314 32.4307 25.8705 32.4055 25.7642 32.4055C25.6573 32.4055 25.6026 32.431 25.5747 32.4571C25.5477 32.4822 25.5325 32.5203 25.5323 32.5762C25.5317 32.6937 25.5979 32.8471 25.6662 32.9563L25.7476 33.0866H25.3217L25.8363 33.7041L26.1892 33.0866Z" fill="black"/>
<path d="M28.0634 29.0856H28.3188L28.4039 29.341L28.2336 29.5964L28.0634 29.0856Z" fill="#27A8CC"/>
<path fill-rule="evenodd" clip-rule="evenodd" d="M27.9452 29.0005H28.3801L28.4978 29.3536L28.2079 29.7885L27.9452 29.0005ZM28.1814 29.1707L28.2593 29.4044L28.3099 29.3284L28.2574 29.1707H28.1814Z" fill="black"/>
<path d="M27.4674 29.0856H27.6377C27.3823 29.1707 27.3993 29.7667 27.8079 29.7667C28.2828 29.7667 28.1485 29.2559 28.0633 29.1707V29.0856H28.3188C28.0463 28.4045 27.2404 28.291 26.8714 28.3194V28.6599C27.0609 28.6493 27.4454 28.7195 27.4674 29.0856Z" fill="#F7583F"/>
<path d="M26.616 29.7667C26.4458 29.7099 26.1052 29.6816 26.1052 30.0221C26.1052 30.4478 26.5309 30.3626 26.7012 30.2775H26.7863V31.0437L26.3606 31.0437L25.339 29.341C25.4071 28.7961 25.8214 28.5464 26.0201 28.4897C26.1563 28.4897 26.1904 28.9437 26.1052 29.0856H26.2755L26.616 29.7667Z" fill="#F7583F"/>
<path fill-rule="evenodd" clip-rule="evenodd" d="M26.9566 28.4007V28.5752C27.0519 28.5807 27.1668 28.603 27.2707 28.6555C27.396 28.7189 27.5069 28.8282 27.542 29.0004H27.6377L27.6646 29.1663C27.6309 29.1776 27.5994 29.2079 27.5778 29.2603C27.5562 29.3126 27.5483 29.3795 27.558 29.4457C27.5677 29.5118 27.5941 29.5713 27.6343 29.6132C27.6731 29.6534 27.7285 29.6815 27.8079 29.6815C27.9112 29.6815 27.969 29.6541 28.0021 29.6232C28.0358 29.5918 28.0549 29.5467 28.061 29.4914C28.0671 29.4356 28.0591 29.3751 28.0443 29.3232C28.0369 29.2975 28.0283 29.2754 28.0199 29.2584C28.0157 29.2499 28.0119 29.2432 28.0086 29.2383C28.007 29.2358 28.0057 29.234 28.0046 29.2327C28.0036 29.2314 28.0031 29.2309 28.0031 29.2309L27.9782 29.206V29.0004H28.1843C28.0492 28.7574 27.8319 28.6061 27.6003 28.5157C27.3697 28.4257 27.1297 28.3982 26.9566 28.4007ZM27.4315 29.1707H27.3872L27.3824 29.0907C27.3736 28.9438 27.2951 28.8587 27.1938 28.8074C27.0881 28.754 26.9606 28.7402 26.8762 28.7449L26.7863 28.75V28.2405L26.8649 28.2345C27.0601 28.2195 27.3669 28.2418 27.6622 28.3571C27.9589 28.4729 28.2504 28.6855 28.3978 29.054L28.4445 29.1707H28.1663C28.1833 29.2025 28.1974 29.2395 28.208 29.2763C28.2274 29.3441 28.2393 29.4273 28.2303 29.5099C28.2212 29.5928 28.1901 29.6808 28.1182 29.7478C28.0456 29.8154 27.942 29.8518 27.8079 29.8518C27.6831 29.8518 27.5831 29.8054 27.5117 29.7313C27.4418 29.6587 27.4032 29.5639 27.3895 29.4704C27.3758 29.377 27.386 29.2789 27.4203 29.1955C27.4238 29.1872 27.4275 29.1789 27.4315 29.1707ZM26.0081 28.4045H26.0201C26.1076 28.4045 26.1563 28.4765 26.1799 28.5266C26.2064 28.583 26.2222 28.6544 26.2302 28.7248C26.2383 28.7962 26.239 28.8725 26.2316 28.9416C26.2296 28.9611 26.2268 28.9809 26.2231 29.0004H26.3281L26.7841 29.9124L26.5891 29.8474C26.5117 29.8217 26.4025 29.8053 26.3187 29.8276C26.2788 29.8383 26.2488 29.8565 26.2282 29.8829C26.2078 29.909 26.1903 29.9514 26.1903 30.0221C26.1903 30.1144 26.2132 30.1675 26.2395 30.1987C26.2657 30.2299 26.3038 30.2491 26.3533 30.2574C26.4572 30.2747 26.5875 30.2391 26.6631 30.2013L26.6811 30.1923H26.8714V30.9586H27.6377V31.1288L26.3124 31.1288L25.2509 29.3596L25.2545 29.3304C25.328 28.7422 25.7755 28.471 25.9967 28.4078L26.0081 28.4045ZM26.7012 30.9586V30.3711C26.6035 30.412 26.4582 30.4475 26.3253 30.4253C26.2472 30.4123 26.1681 30.3783 26.1093 30.3084C26.0504 30.2385 26.0201 30.1426 26.0201 30.0221C26.0201 29.9225 26.0452 29.8407 26.0939 29.7782C26.1426 29.7158 26.2083 29.6809 26.2748 29.6631C26.3359 29.6468 26.4008 29.6441 26.462 29.6491L26.2229 29.1707H25.9548L26.0322 29.0418C26.0439 29.0222 26.0561 28.982 26.0623 28.9236C26.0683 28.8676 26.0678 28.8038 26.0611 28.744C26.0541 28.6832 26.0413 28.6321 26.0257 28.599C26.0217 28.5905 26.0183 28.5845 26.0156 28.5804C25.8338 28.644 25.497 28.8658 25.4274 29.3229L26.4088 30.9586L26.7012 30.9586ZM26.0083 28.5719C26.0083 28.5718 26.0087 28.572 26.0093 28.5726C26.0086 28.5722 26.0083 28.5719 26.0083 28.5719Z" fill="black"/>
<path d="M26.616 29.7667C26.4458 29.7099 26.1052 29.6815 26.1052 30.0221C26.1052 30.4478 26.5309 30.3626 26.7012 30.2775H26.7863V31.0437L26.3606 31.0437L25.339 29.341C25.4071 28.7961 25.8214 28.5464 26.0201 28.4896C26.1563 28.4896 26.1904 28.9437 26.1052 29.0856H26.2755L26.616 29.7667Z" fill="#A8D51A"/>
<path fill-rule="evenodd" clip-rule="evenodd" d="M26.0081 28.4045H26.0201C26.1076 28.4045 26.1563 28.4765 26.1799 28.5266C26.2064 28.5831 26.2222 28.6544 26.2302 28.7248C26.2383 28.7962 26.239 28.8725 26.2316 28.9416C26.2296 28.9611 26.2268 28.9809 26.2231 29.0004H26.3281L26.7841 29.9124L26.5891 29.8474C26.5117 29.8217 26.4025 29.8053 26.3187 29.8277C26.2788 29.8383 26.2488 29.8565 26.2282 29.8829C26.2078 29.909 26.1903 29.9514 26.1903 30.0221C26.1903 30.1144 26.2132 30.1675 26.2395 30.1987C26.2657 30.2299 26.3038 30.2491 26.3533 30.2574C26.4572 30.2747 26.5875 30.2391 26.6631 30.2013L26.6811 30.1924H26.8714V31.1289L26.3124 31.1289L25.2509 29.3596L25.2545 29.3304C25.328 28.7422 25.7755 28.471 25.9967 28.4078L26.0081 28.4045ZM26.0083 28.5719C26.0083 28.5718 26.0087 28.572 26.0093 28.5726C26.0086 28.5722 26.0083 28.5719 26.0083 28.5719ZM26.0156 28.5804C26.0183 28.5845 26.0217 28.5905 26.0257 28.599C26.0413 28.6321 26.0541 28.6832 26.0611 28.744C26.0678 28.8038 26.0683 28.8676 26.0623 28.9236C26.0561 28.982 26.0439 29.0222 26.0322 29.0418L25.9548 29.1707H26.2229L26.462 29.6491C26.4008 29.6441 26.3359 29.6468 26.2748 29.6631C26.2083 29.6809 26.1426 29.7158 26.0939 29.7782C26.0452 29.8407 26.0201 29.9225 26.0201 30.0221C26.0201 30.1426 26.0504 30.2385 26.1093 30.3084C26.1681 30.3783 26.2472 30.4123 26.3253 30.4253C26.4582 30.4475 26.6035 30.4121 26.7012 30.3711V30.9586L26.4088 30.9586L25.4274 29.3229C25.497 28.8658 25.8338 28.644 26.0156 28.5804Z" fill="black"/>
<path fill-rule="evenodd" clip-rule="evenodd" d="M26.7012 31.0437H26.8714V31.5951C26.9768 31.5557 27.1016 31.5245 27.2154 31.5291C27.2983 31.5324 27.3853 31.5552 27.4517 31.6185C27.5194 31.6831 27.5525 31.7771 27.5525 31.8951C27.5525 32.1208 27.4727 32.2645 27.3549 32.3427C27.2424 32.4174 27.1113 32.4215 27.025 32.4042L27.0584 32.2373C27.114 32.2484 27.1958 32.244 27.2607 32.2009C27.3202 32.1613 27.3823 32.078 27.3823 31.8951C27.3823 31.8087 27.3587 31.7651 27.3341 31.7417C27.3083 31.7171 27.2676 31.7016 27.2086 31.6992C27.0878 31.6944 26.9329 31.7467 26.8244 31.801L26.7012 31.8626V31.0437Z" fill="black"/>
<path d="M27.4674 29.0856L26.8714 30.0221L26.7012 29.7667C26.5025 29.71 26.1052 29.6816 26.1052 30.0221C26.1052 30.3627 26.3606 30.4478 26.5309 30.3627C26.7012 30.2775 26.7863 30.2775 26.7863 30.2775V31.0438H27.4674L28.2239 29.6147C28.1387 29.7667 28.0102 29.7667 27.8079 29.7667C27.5387 29.7667 27.3823 29.5113 27.4674 29.0856Z" fill="#27A8CC"/>
<path fill-rule="evenodd" clip-rule="evenodd" d="M26.8697 29.8661L27.3955 29.0399L27.5508 29.1023C27.5105 29.304 27.5303 29.4523 27.5799 29.5459C27.6271 29.6348 27.7044 29.6816 27.8079 29.6816C27.913 29.6816 27.9825 29.6809 28.0369 29.6657C28.0829 29.6529 28.1177 29.6296 28.1492 29.5739L28.1583 29.5566L28.3097 29.6345C28.3061 29.6416 28.3025 29.6486 28.2987 29.6554L27.5186 31.1289H26.7011V30.383C26.6671 30.3943 26.623 30.4117 26.5689 30.4388C26.4596 30.4935 26.3214 30.4945 26.209 30.4242C26.0935 30.352 26.02 30.2146 26.02 30.0221C26.02 29.9193 26.0505 29.8357 26.1074 29.7733C26.1629 29.7122 26.2366 29.6791 26.3097 29.6624C26.4534 29.6296 26.6182 29.6545 26.7245 29.6848L26.7546 29.6934L26.8697 29.8661ZM26.7862 30.2775V30.1924H26.8714V30.9586H27.4161L28.0059 29.8445C27.946 29.8519 27.8814 29.8518 27.8161 29.8518C27.8133 29.8518 27.8106 29.8518 27.8079 29.8518C27.6421 29.8518 27.5066 29.7709 27.4295 29.6257C27.3959 29.5623 27.3742 29.4883 27.3646 29.4056L26.873 30.1781L26.6482 29.8408C26.5584 29.819 26.4415 29.8069 26.3476 29.8284C26.2965 29.8401 26.2584 29.8602 26.2333 29.8879C26.2094 29.9141 26.1903 29.9546 26.1903 30.0221C26.1903 30.1701 26.2445 30.2456 26.2993 30.2798C26.3571 30.316 26.4318 30.317 26.4928 30.2865C26.583 30.2414 26.6527 30.2178 26.7017 30.2056C26.7263 30.1994 26.7456 30.1961 26.7597 30.1944C26.7668 30.1935 26.7725 30.193 26.7769 30.1927C26.7792 30.1926 26.781 30.1925 26.7826 30.1924L26.7847 30.1924L26.7855 30.1924L26.7859 30.1924L26.7861 30.1924L26.7862 30.1924C26.7863 30.1924 26.7862 30.1924 26.7862 30.2775Z" fill="black"/>
<path d="M26.2755 31.0437H26.7863V31.7248C27.0133 31.6113 27.4674 31.5035 27.4674 31.9802C27.4674 32.1505 27.3822 32.3208 27.0417 32.3208L26.8714 32.0653L26.2755 33.087L26.02 33.0018C26.1336 32.7748 26.2414 32.3208 25.7646 32.3208C25.2879 32.3208 25.4525 32.7748 25.5944 33.0018H25.1687L24.9984 32.8316L26.2755 31.0437Z" fill="#F6E114"/>
<path fill-rule="evenodd" clip-rule="evenodd" d="M26.2316 30.9586H26.8714V31.5964C26.9784 31.5584 27.1061 31.5315 27.2229 31.5467C27.3091 31.5579 27.3949 31.5929 27.4582 31.6686C27.521 31.7437 27.5525 31.848 27.5525 31.9802C27.5525 32.0784 27.5279 32.1891 27.4424 32.2745C27.357 32.36 27.2251 32.4059 27.0417 32.4059H26.9961L26.8762 32.226L26.3141 33.1896L25.9 33.0515L25.9439 32.9637C25.9977 32.8561 26.0445 32.7042 26.0293 32.5871C26.022 32.5314 26.0016 32.4895 25.967 32.4605C25.9318 32.4311 25.8709 32.4059 25.7646 32.4059C25.6576 32.4059 25.6029 32.4314 25.575 32.4575C25.5481 32.4826 25.5329 32.5207 25.5326 32.5766C25.532 32.6941 25.5983 32.8475 25.6665 32.9567L25.748 33.087H25.1334L24.8872 32.8408L26.2316 30.9586ZM26.3193 31.1288L25.4597 32.3322C25.5306 32.2666 25.6338 32.2356 25.7646 32.2356C25.8968 32.2356 26.0011 32.2671 26.0762 32.3299C26.1519 32.3932 26.1869 32.479 26.1981 32.5652C26.2149 32.6947 26.1801 32.8374 26.1358 32.9507L26.2368 32.9843L26.8666 31.9046L27.0865 32.2345C27.2146 32.2277 27.284 32.1922 27.322 32.1541C27.3643 32.1119 27.3822 32.0522 27.3822 31.9802C27.3822 31.874 27.357 31.813 27.3275 31.7778C27.2986 31.7432 27.2567 31.7228 27.201 31.7156C27.0839 31.7003 26.932 31.7471 26.8243 31.8009L26.7011 31.8625V31.1288H26.3193ZM25.392 32.427L25.1096 32.8223L25.2039 32.9167H25.4512C25.4021 32.8124 25.3618 32.6892 25.3624 32.5757C25.3626 32.5257 25.3709 32.4744 25.392 32.427Z" fill="black"/>
<path d="M25.1687 33.0019L25.8498 33.8533L26.2755 33.087L26.0201 33.0019C26.1336 32.7749 26.2414 32.3208 25.7647 32.3208C25.2879 32.3208 25.4525 32.7749 25.5944 33.0019H25.1687Z" fill="#A8D51A"/>
<path fill-rule="evenodd" clip-rule="evenodd" d="M25.5327 32.5766C25.5321 32.6941 25.5983 32.8475 25.6666 32.9568L25.748 33.087H25.3458L25.837 33.701L26.1512 33.1353L25.9 33.0516L25.9439 32.9638C25.9978 32.8562 26.0445 32.7043 26.0293 32.5872C26.0221 32.5314 26.0017 32.4895 25.9671 32.4606C25.9319 32.4312 25.8709 32.4059 25.7647 32.4059C25.6577 32.4059 25.603 32.4315 25.5751 32.4575C25.5481 32.4827 25.5329 32.5208 25.5327 32.5766ZM25.4589 32.3331C25.5298 32.2669 25.6333 32.2357 25.7647 32.2357C25.8968 32.2357 26.0012 32.2672 26.0763 32.33C26.152 32.3933 26.187 32.4791 26.1981 32.5652C26.215 32.6947 26.1802 32.8375 26.1358 32.9507L26.3997 33.0387L25.8626 34.0055L24.9916 32.9167H25.4513C25.4022 32.8125 25.3618 32.6893 25.3624 32.5758C25.3628 32.4898 25.3871 32.4001 25.4589 32.3331Z" fill="black"/>
<path d="M27.5525 31.0437H26.7863V31.7248C27.2119 31.5545 27.4673 31.6397 27.4673 31.9802C27.4673 32.3208 27.2119 32.3208 27.0417 32.3208L27.8079 33.5978C27.893 33.5978 27.9952 33.5637 28.0633 33.4275C28.1314 33.2913 28.0633 33.087 28.0633 33.0018H28.6592L28.8295 32.8316L27.5525 31.0437Z" fill="#F7583F"/>
<path fill-rule="evenodd" clip-rule="evenodd" d="M26.7012 30.9586H27.5963L28.9408 32.8408L28.6946 33.087H28.1595C28.1642 33.1163 28.1697 33.1507 28.1735 33.1864C28.1824 33.268 28.1852 33.3743 28.1395 33.4656C28.0988 33.547 28.0451 33.6029 27.9843 33.6376C27.924 33.6721 27.8618 33.6829 27.8079 33.6829H27.7597L26.8913 32.2356H27.0417C27.1314 32.2356 27.2164 32.234 27.2803 32.202C27.3094 32.1875 27.3331 32.1669 27.3504 32.1357C27.3682 32.1036 27.3823 32.0549 27.3823 31.9802C27.3823 31.9051 27.3681 31.8518 27.347 31.8151C27.3268 31.78 27.2978 31.7556 27.2574 31.7409C27.1708 31.7094 27.0256 31.7208 26.8179 31.8038L26.7012 31.8505V30.9586ZM26.8714 31.1288V31.6038C27.0423 31.55 27.195 31.5371 27.3156 31.5809C27.3923 31.6088 27.4537 31.659 27.4946 31.7302C27.5348 31.8 27.5525 31.885 27.5525 31.9802C27.5525 32.0757 27.5346 32.1547 27.4993 32.2184C27.4634 32.283 27.4126 32.3263 27.3565 32.3543C27.3031 32.381 27.2442 32.3939 27.1886 32.4001L27.8532 33.5078C27.8692 33.5042 27.8848 33.4984 27.8998 33.4898C27.9283 33.4735 27.9598 33.4442 27.9872 33.3894C28.0097 33.3445 28.0125 33.2806 28.0042 33.2047C28.0008 33.1725 27.9958 33.1415 27.9909 33.1113C27.9902 33.107 27.9895 33.1028 27.9889 33.0985C27.9838 33.0671 27.9782 33.0312 27.9782 33.0018V32.9167H28.624L28.7184 32.8223L27.5087 31.1288H26.8714Z" fill="black"/>
<path d="M28.0633 33.0018C28.1995 33.5467 27.8931 33.541 27.7228 33.5127L27.8931 33.8532L28.6593 33.0018H28.0633Z" fill="#27A8CC"/>
<path fill-rule="evenodd" clip-rule="evenodd" d="M27.9543 32.9167H28.8505L27.8728 34.003L27.5719 33.4012L27.7368 33.4287C27.7764 33.4353 27.8197 33.4398 27.8603 33.4366C27.901 33.4334 27.9329 33.4229 27.9556 33.4052C27.9942 33.375 28.047 33.2876 27.9808 33.0225L27.9543 32.9167ZM28.1683 33.087C28.1967 33.2543 28.1815 33.38 28.1258 33.4674L28.4682 33.087H28.1683ZM28.0626 33.5377C28.0619 33.5382 28.0611 33.5388 28.0604 33.5394C28.0023 33.5847 27.9341 33.6016 27.8737 33.6064C27.8708 33.6066 27.868 33.6068 27.8651 33.607L27.9134 33.7034L28.0626 33.5377Z" fill="black"/>
<path d="M13.1856 41.9621L13.9107 36.0947C16.1786 36.7276 18.1519 38.468 18.8551 39.2591L18.1959 40.3139C17.9849 40.8941 18.6793 43.2806 19.0529 44.4013C19.2068 44.7309 19.9363 45.2188 20.3055 45.8517C20.767 46.6428 21.5581 46.9065 22.0855 47.368C22.5074 47.7371 23.1843 49.4117 23.2062 50.0709C23.0744 50.5983 22.2378 50.249 22.0855 49.7413C21.6306 48.225 20.9867 48.4228 20.6351 47.8954L20.9648 48.8183C21.5361 49.8731 22.0459 52.141 19.5144 52.7739C16.35 53.565 15.5589 49.148 15.3611 48.0931C15.1633 47.0383 14.2404 45.588 13.5811 44.5332C13.0537 43.6893 13.0977 42.4675 13.1856 41.9621Z" fill="white"/>
<path fill-rule="evenodd" clip-rule="evenodd" d="M13.8376 35.9849C13.8696 35.9636 13.9092 35.9573 13.9462 35.9677C16.2477 36.6099 18.2415 38.3703 18.9537 39.1715C18.9926 39.2152 18.998 39.2793 18.967 39.329L18.3158 40.3709C18.2994 40.4227 18.2891 40.5018 18.2887 40.6106C18.2882 40.7258 18.2989 40.8649 18.3191 41.023C18.3595 41.3391 18.437 41.7216 18.5334 42.1241C18.7253 42.9249 18.9896 43.7936 19.1754 44.3518C19.2055 44.4128 19.2661 44.4902 19.3577 44.5877C19.4313 44.666 19.5176 44.75 19.6126 44.8424C19.638 44.8671 19.6641 44.8925 19.6907 44.9185C19.938 45.1603 20.2248 45.4516 20.4194 45.7852C20.6362 46.1568 20.9316 46.4074 21.2459 46.625C21.3521 46.6985 21.4577 46.7665 21.5637 46.8347C21.6164 46.8686 21.6691 46.9026 21.7221 46.9373C21.8789 47.0401 22.0334 47.1471 22.1723 47.2687C22.2958 47.3768 22.4263 47.5677 22.5505 47.7887C22.6769 48.0137 22.804 48.2833 22.9178 48.5605C23.1431 49.1091 23.3262 49.7114 23.338 50.0665C23.3384 50.0787 23.3371 50.091 23.3342 50.1029C23.291 50.2754 23.1837 50.3895 23.039 50.4382C22.9026 50.4842 22.7492 50.467 22.6103 50.4188C22.3358 50.3235 22.0503 50.0828 21.9592 49.7791C21.738 49.0417 21.4766 48.7372 21.2401 48.5511C21.1569 48.4856 21.08 48.4366 21.0006 48.3859C20.9791 48.3722 20.9574 48.3584 20.9354 48.3441L21.0856 48.7645C21.3773 49.3067 21.6563 50.162 21.5336 50.974C21.4714 51.3853 21.3057 51.787 20.9854 52.1275C20.6654 52.4676 20.1984 52.7387 19.5464 52.9017C18.7225 53.1077 18.0432 52.9756 17.4895 52.637C16.9402 52.3012 16.5246 51.7685 16.2094 51.1887C15.5944 50.0569 15.3416 48.7057 15.2385 48.1546C15.2361 48.1417 15.2338 48.1294 15.2315 48.1174C15.1366 47.6111 14.8647 46.9997 14.5281 46.3757C14.2146 45.7946 13.8508 45.2129 13.5349 44.7079C13.5128 44.6725 13.4909 44.6376 13.4693 44.603C13.1906 44.157 13.0663 43.6179 13.0213 43.1328C12.9764 42.6488 13.0095 42.207 13.0551 41.9427L13.7799 36.0785C13.7846 36.0404 13.8057 36.0062 13.8376 35.9849ZM14.0226 36.2645L13.3164 41.9782C13.3162 41.9804 13.3158 41.9825 13.3155 41.9846C13.2735 42.2261 13.241 42.6463 13.2839 43.1085C13.3268 43.5716 13.4443 44.0654 13.6929 44.4632C13.7148 44.4982 13.7369 44.5335 13.7593 44.5693C14.0744 45.0732 14.4425 45.6616 14.7602 46.2505C15.0993 46.8791 15.3879 47.5204 15.4907 48.0688C15.4926 48.0792 15.4946 48.0899 15.4967 48.1009C15.5997 48.6511 15.8463 49.9682 16.4411 51.0627C16.744 51.6201 17.1319 52.1093 17.6271 52.4121C18.1179 52.7122 18.7242 52.8355 19.4824 52.6459C20.0962 52.4925 20.5148 52.2428 20.7934 51.9468C21.0716 51.651 21.2174 51.3012 21.2728 50.9346C21.3846 50.1952 21.1268 49.3942 20.8488 48.8811C20.8456 48.8752 20.8429 48.869 20.8406 48.8626L20.511 47.9397C20.4886 47.877 20.5165 47.8074 20.576 47.7775C20.6355 47.7476 20.7079 47.7668 20.7449 47.8222C20.8193 47.9339 20.9099 48.0091 21.0202 48.0839C21.0529 48.1061 21.0893 48.1294 21.128 48.1541C21.2135 48.2088 21.3102 48.2707 21.4031 48.3439C21.6902 48.5698 21.9782 48.9245 22.2118 49.7034C22.273 49.9074 22.482 50.0952 22.6968 50.1697C22.8026 50.2064 22.8925 50.2093 22.9548 50.1883C23.0054 50.1713 23.0495 50.1351 23.0736 50.0559C23.0574 49.7476 22.8934 49.1952 22.6739 48.6607C22.5631 48.3908 22.4405 48.1313 22.3206 47.9179C22.1985 47.7006 22.0862 47.5437 21.9987 47.4672C21.8739 47.358 21.7318 47.259 21.5775 47.1578C21.5284 47.1257 21.4777 47.093 21.426 47.0597C21.3178 46.9901 21.2055 46.9178 21.0957 46.8418C20.7673 46.6144 20.4363 46.3375 20.1916 45.9181C20.0171 45.6188 19.7545 45.3497 19.5063 45.107C19.4811 45.0824 19.456 45.058 19.4311 45.0338C19.3356 44.9408 19.2436 44.8513 19.1655 44.7682C19.0687 44.6651 18.9815 44.5599 18.9335 44.457C18.9313 44.4525 18.9295 44.4478 18.9279 44.443C18.7402 43.8802 18.4721 42.9995 18.277 42.1856C18.1795 41.7789 18.0996 41.386 18.0575 41.0564C18.0364 40.8917 18.0245 40.7403 18.025 40.6096C18.0255 40.4811 18.0379 40.3625 18.072 40.2688C18.0751 40.2602 18.0792 40.2518 18.0841 40.244L18.6906 39.2737C17.9616 38.4815 16.1281 36.9003 14.0226 36.2645Z" fill="black"/>
<path d="M15.6247 36.9517C15.4665 36.7935 14.8995 36.5562 14.0425 36.2265C13.7788 37.9406 13.2382 41.3687 13.1854 42.1599C13.0975 43.4784 13.6541 44.725 14.3062 45.5221C14.8995 46.2472 15.4269 48.0272 15.8884 49.9391C16.2642 51.4958 17.3388 52.3124 17.8003 52.5102C17.8003 52.5102 18.5913 52.8398 18.9869 52.708C19.3825 52.5761 18.0639 52.5102 17.5365 52.0487C17.1396 51.7014 16.4598 50.2467 16.218 49.6094C16.1082 48.6206 15.8225 46.7087 15.2292 46.1154C14.6322 45.5184 14.0424 43.6102 13.8447 42.8191C13.6363 41.9852 15.8225 37.1495 15.6247 36.9517Z" fill="#DADADA"/>
<path d="M35.9299 31.8754C36.0354 31.2425 37.6 29.1505 38.3692 28.1836C39.3141 30.6009 41.2172 35.8705 41.2699 37.611C41.3226 39.3514 41.8193 41.149 42.061 41.8302C42.7203 42.4895 43.0499 44.0717 42.984 45.1265C42.7862 46.0494 42.7862 46.5109 42.061 47.0383C41.1299 47.7155 40.281 47.1042 39.8195 46.7087C39.678 46.5873 39.123 45.9635 39.4899 44.8628C39.6877 44.2694 39.0944 43.5443 38.9625 43.6761C38.7867 44.3134 38.8307 44.5991 38.8307 45.1265C38.8307 45.7198 39.0284 45.7198 38.9625 46.0494C38.907 46.3271 38.712 46.5241 38.2373 46.0494C37.7627 45.5748 37.7099 45.0606 37.7099 44.4672C37.7099 43.8739 37.7589 43.3375 37.9736 42.9509C38.9625 41.1709 37.9736 37.8087 37.7099 36.8858C37.4462 35.9628 36.3914 33.0841 35.9299 31.8754Z" fill="white"/>
<path fill-rule="evenodd" clip-rule="evenodd" d="M38.4085 27.9223L38.4919 28.1356C38.9651 29.346 39.678 31.2701 40.2794 33.1101C40.5801 34.0301 40.8534 34.9304 41.0549 35.7106C41.2557 36.4878 41.388 37.1559 41.4016 37.607C41.4532 39.3068 41.9335 41.066 42.1756 41.7588C42.519 42.1153 42.7667 42.6919 42.9221 43.2972C43.0817 43.9188 43.1494 44.5919 43.1155 45.1347L43.1149 45.1445L43.1128 45.1541C43.0886 45.2672 43.0671 45.3752 43.0465 45.4783C42.9856 45.7837 42.9332 46.0469 42.8431 46.2785C42.7175 46.6015 42.5191 46.8682 42.1385 47.145C41.6361 47.5103 41.1474 47.5303 40.7257 47.4019C40.312 47.276 39.9672 47.0089 39.7337 46.8088C39.5639 46.6633 38.9762 45.9867 39.3648 44.8211C39.4466 44.5758 39.3669 44.2874 39.236 44.0642C39.1763 43.9623 39.111 43.8831 39.0571 43.835C38.9505 44.2642 38.9545 44.5186 38.9598 44.8639C38.9611 44.9452 38.9625 45.0316 38.9625 45.1265C38.9625 45.4041 39.0078 45.5371 39.0454 45.6425C39.047 45.647 39.0487 45.6516 39.0504 45.6563C39.0686 45.7069 39.0891 45.7641 39.0997 45.8279C39.112 45.9013 39.111 45.9793 39.0918 46.0753C39.0625 46.2213 38.9842 46.4178 38.7846 46.4605C38.688 46.4812 38.5857 46.4587 38.483 46.4061C38.3804 46.3536 38.2681 46.2668 38.144 46.1427C37.6306 45.6293 37.578 45.0688 37.578 44.4672C37.578 43.8737 37.6254 43.3061 37.8583 42.8869C38.3305 42.037 38.3369 40.7893 38.1807 39.6143C38.0309 38.4867 37.7362 37.457 37.5973 36.9717C37.5924 36.9544 37.5876 36.9379 37.5831 36.922C37.3213 36.0056 36.2687 33.1324 35.8067 31.9225L35.7939 31.889L35.7998 31.8538C35.8307 31.6688 35.9607 31.4 36.1332 31.1016C36.3093 30.7969 36.541 30.4426 36.7922 30.0797C37.2948 29.3537 37.8801 28.5866 38.2659 28.1015L38.4085 27.9223ZM36.0667 31.8641C36.5345 33.0916 37.5737 35.9291 37.8367 36.8496C37.8413 36.8658 37.8462 36.8829 37.8513 36.9007C37.9905 37.3869 38.2897 38.4324 38.4421 39.5796C38.5992 40.7614 38.6056 42.0849 38.0888 43.015C37.8922 43.369 37.8417 43.8741 37.8417 44.4672C37.8417 45.0523 37.8946 45.5203 38.3305 45.9562C38.4437 46.0694 38.5339 46.136 38.6031 46.1714C38.6721 46.2067 38.7111 46.2066 38.7294 46.2026C38.7599 46.1961 38.8068 46.1553 38.8332 46.0236C38.8469 45.9548 38.8459 45.9092 38.8396 45.8713C38.833 45.8317 38.8203 45.7961 38.8002 45.7398L38.7971 45.7312C38.7523 45.6058 38.6988 45.4422 38.6988 45.1265C38.6988 45.0367 38.6974 44.9533 38.6961 44.8734C38.69 44.4902 38.685 44.1859 38.8354 43.6411L38.8446 43.6075L38.8692 43.5829C38.9326 43.5195 39.0139 43.5224 39.0683 43.5384C39.1211 43.5539 39.1703 43.5861 39.2123 43.6208C39.2983 43.6919 39.3879 43.8019 39.4635 43.9308C39.6128 44.1855 39.731 44.5565 39.615 44.9045C39.2697 45.9404 39.7919 46.5114 39.9053 46.6086C40.1333 46.804 40.4436 47.0404 40.8025 47.1497C41.1534 47.2565 41.5547 47.2435 41.9834 46.9317C42.3281 46.681 42.4922 46.4533 42.5973 46.1829C42.6784 45.9745 42.7245 45.7433 42.7837 45.4469C42.8045 45.3428 42.8269 45.2306 42.8529 45.1086C42.8835 44.5981 42.8193 43.9571 42.6667 43.3628C42.5122 42.761 42.2724 42.2281 41.9677 41.9234L41.9467 41.9024L41.9367 41.8743C41.692 41.1847 41.1913 39.3732 41.1381 37.615C41.1254 37.1958 41 36.5525 40.7996 35.7766C40.6 35.0038 40.3285 34.1092 40.0287 33.1921C39.4636 31.463 38.7993 29.6584 38.3298 28.4462C37.9538 28.9257 37.449 29.5943 37.009 30.2298C36.7598 30.5899 36.5325 30.9377 36.3615 31.2335C36.2007 31.5117 36.0989 31.7288 36.0667 31.8641Z" fill="black"/>
<path d="M38.3032 36.6881C38.0395 35.7651 36.8089 32.9523 36.0618 31.7436C36.3914 32.8644 37.5121 35.5673 37.9736 37.3473C38.1901 38.1822 38.4449 39.4801 38.501 40.3799C38.5647 41.402 38.4084 42.0061 38.3032 42.5554C38.479 42.2478 38.7252 41.4743 38.8306 40.8414C38.9625 40.0503 38.6312 37.8361 38.3032 36.6881Z" fill="#DADADA"/>
<path d="M39.8195 44.3354C39.6613 43.9135 39.2921 43.6322 39.1603 43.6102C39.6218 44.1376 39.5558 44.7309 39.4899 45.2583C39.4372 45.6803 39.4899 46.0494 39.6218 46.3131L40.0832 46.7746C39.9734 46.5988 39.8723 46.2736 39.8195 46.1154C39.7668 45.9572 39.7536 45.8517 39.8195 45.522C39.9294 45.3023 39.9778 44.7573 39.8195 44.3354Z" fill="#DADADA"/>
</svg>
