<svg width="56" height="56" viewBox="0 0 56 56" fill="none" xmlns="http://www.w3.org/2000/svg">
<rect width="56" height="56" rx="4" fill="#F7F3F8"/>
<path d="M25.119 22.7873L25.9026 18.9565C28.3404 20.6543 29.9511 20.6978 31.9535 20.1754L32.6065 22.8744C32.65 23.8031 32.0406 25.6169 29.2545 25.4428C26.4685 25.2686 25.3367 23.5999 25.119 22.7873Z" fill="white"/>
<path fill-rule="evenodd" clip-rule="evenodd" d="M25.8537 18.8341C25.8948 18.8176 25.9416 18.823 25.978 18.8483C27.1862 19.6898 28.1801 20.1147 29.1128 20.2684C30.0451 20.422 30.9283 20.3066 31.9203 20.0478C31.9545 20.0389 31.9909 20.0441 32.0212 20.0623C32.0516 20.0804 32.0734 20.11 32.0817 20.1444L32.7347 22.8434C32.7366 22.8515 32.7378 22.8598 32.7382 22.8682C32.7613 23.36 32.6124 24.082 32.0894 24.6605C31.5619 25.2441 30.6705 25.6634 29.2463 25.5744C26.4034 25.3967 25.2239 23.6884 24.9917 22.8214C24.9864 22.8017 24.9858 22.7809 24.9899 22.7609L25.7734 18.9301C25.7823 18.8866 25.8125 18.8506 25.8537 18.8341ZM25.9919 19.1778L25.2546 22.7826C25.4774 23.5527 26.5684 25.1428 29.2628 25.3112C30.6246 25.3963 31.431 24.9957 31.8938 24.4837C32.3568 23.9716 32.4927 23.3296 32.4753 22.8929L31.8568 20.3362C30.8967 20.5767 30.0106 20.6836 29.0699 20.5286C28.1313 20.374 27.1494 19.9605 25.9919 19.1778Z" fill="black"/>
<path d="M30.2488 23.6366C28.2184 23.9515 26.5924 20.7058 26.0332 19.0436C28.7328 20.8737 30.2799 20.5335 31.865 20.1849L31.8835 20.1809C32.1702 21.187 32.2792 23.3216 30.2488 23.6366Z" fill="#DADADA"/>
<path d="M24.5096 4.98283C22.3852 6.58481 22.7392 9.87142 23.2036 11.3225C23.0018 11.367 22.7941 11.4649 22.5941 11.6432C22.0393 12.1379 21.7235 13.7327 22.8988 14.4728C23.0929 14.595 23.4215 14.6984 23.7695 14.7106C24.0017 15.7264 24.8143 18.173 26.0332 19.0436C27.5568 20.1319 29.9075 21.2202 33.2159 19.6966C36.5243 18.173 37.0467 14.9952 36.3067 10.6855C35.5666 6.37585 33.6512 4.19926 31.6052 3.50275C29.5592 2.80624 27.165 2.98037 24.5096 4.98283Z" fill="white"/>
<path fill-rule="evenodd" clip-rule="evenodd" d="M31.5628 3.62756C29.5607 2.94599 27.2117 3.11029 24.589 5.0881C23.5669 5.85882 23.134 7.03966 23.017 8.22222C22.9059 9.34599 23.0823 10.4549 23.2954 11.1726C23.6014 11.1325 23.8857 11.1965 24.1068 11.2798C24.3566 11.3739 24.5355 11.4964 24.5905 11.5391C24.648 11.5838 24.6584 11.6667 24.6136 11.7242C24.5689 11.7816 24.4861 11.792 24.4286 11.7473C24.3911 11.7181 24.235 11.6099 24.0138 11.5266C23.7928 11.4433 23.5167 11.3884 23.232 11.4512C23.0524 11.4909 22.8651 11.5783 22.6819 11.7416C22.4396 11.9576 22.2308 12.4399 22.2295 12.9663C22.2282 13.4846 22.4281 14.0206 22.9691 14.3612C23.1404 14.469 23.4454 14.5673 23.7741 14.5789C24.1451 14.5919 24.5164 14.4943 24.7577 14.2128C24.8051 14.1575 24.8883 14.1511 24.9436 14.1985C24.9989 14.2459 25.0053 14.3292 24.9579 14.3845C24.6875 14.6999 24.3038 14.823 23.9366 14.8413C24.0652 15.3523 24.3089 16.1222 24.6514 16.8771C25.0341 17.7205 25.5302 18.5223 26.1098 18.9363C26.8628 19.4742 27.8133 20.007 28.979 20.2199C30.1425 20.4324 31.5299 20.3279 33.1608 19.5768C34.7806 18.8308 35.7123 17.6854 36.1531 16.1983C36.5962 14.7035 36.5455 12.8554 36.1768 10.7078C35.4415 6.42606 33.5468 4.30298 31.5628 3.62756ZM23.6637 14.8364C23.7909 15.3602 24.046 16.181 24.4113 16.986C24.7976 17.8374 25.3173 18.6943 25.9566 19.1509C26.7272 19.7013 27.7139 20.2569 28.9316 20.4793C30.1514 20.7021 31.5936 20.5889 33.2711 19.8164C34.9597 19.0387 35.9434 17.8335 36.4059 16.2733C36.8661 14.7209 36.8079 12.8253 36.4367 10.6632C35.6918 6.32564 33.7557 4.09554 31.6478 3.37793C29.5579 2.66648 27.1183 2.85044 24.4302 4.87756C23.3279 5.70881 22.8757 6.97227 22.7546 8.19627C22.6405 9.35027 22.8186 10.4854 23.0378 11.2315C22.8587 11.2909 22.6789 11.391 22.5064 11.5448C22.1938 11.8235 21.9673 12.386 21.9658 12.9657C21.9644 13.5535 22.1943 14.1849 22.8286 14.5843C23.0255 14.7083 23.3338 14.8092 23.6637 14.8364Z" fill="black"/>
<path d="M25.0654 22.6813C23.3513 22.7033 20.12 22.1334 18.2751 24.8569C16.8906 26.9006 13.5944 31.6472 13.6603 35.9324C14.9568 36.4158 17.8136 37.7651 18.8684 39.2946C18.8684 39.4044 18.7629 39.7297 18.341 40.1516C17.9191 40.5735 18.6926 43.1842 19.1321 44.4368C19.6595 45.2938 21.8614 46.6255 27.5046 47.4694C33.1479 48.3132 36.1409 45.096 37.3935 43.316C37.3935 41.2723 36.8724 34.8981 35.2839 30.5924L35.9431 32.3065C35.7322 31.6736 37.4814 29.3618 38.3824 28.285C38.4879 27.3884 36.976 24.8349 36.2068 23.6702C35.0993 22.5099 33.7456 22.5275 32.6469 22.8791C32.3304 24.9887 30.4493 25.4282 29.5483 25.3843C26.5421 25.2788 25.3071 23.5383 25.0654 22.6813Z" fill="#BD22F3"/>
<path fill-rule="evenodd" clip-rule="evenodd" d="M24.2633 22.5342C24.5581 22.5438 24.8282 22.5525 25.0637 22.5495L25.1649 22.5482L25.1923 22.6456C25.4182 23.4464 26.603 25.149 29.553 25.2525L29.5548 25.2526L29.5548 25.2526C29.9844 25.2736 30.6533 25.1785 31.2497 24.8258C31.8407 24.4764 32.3646 23.8722 32.5165 22.8596L32.5286 22.7785L32.6067 22.7536C33.7337 22.3929 35.1475 22.3695 36.3022 23.5792L36.3104 23.5878L36.3169 23.5976C36.7033 24.1828 37.2762 25.1165 37.7399 26.0179C37.9716 26.4684 38.1775 26.9136 38.3191 27.3046C38.4585 27.6896 38.5436 28.043 38.5133 28.3005L38.5088 28.3395L38.4835 28.3697C38.035 28.9057 37.3758 29.7487 36.8558 30.535C36.5955 30.9285 36.3727 31.3041 36.2284 31.6177C36.1561 31.7747 36.1055 31.9122 36.0788 32.0262C36.0515 32.1432 36.0533 32.22 36.0682 32.2648L35.9699 32.3001C37.1289 36.4414 37.5254 41.5279 37.5254 43.3161V43.3578L37.5013 43.392C36.235 45.1915 33.199 48.4542 27.4852 47.5998C24.6569 47.1769 22.6844 46.6308 21.3497 46.0799C20.0204 45.5314 19.3059 44.9707 19.0198 44.5059L19.0124 44.4939L19.0077 44.4805C18.7869 43.8513 18.482 42.8804 18.2849 42.0119C18.1866 41.5783 18.1139 41.1653 18.0932 40.8312C18.0829 40.6644 18.0851 40.5122 18.1057 40.3846C18.1256 40.2605 18.1658 40.1404 18.2478 40.0584C18.4508 39.8554 18.5744 39.6789 18.6467 39.5439C18.7001 39.4441 18.7231 39.3715 18.7319 39.3296C18.2152 38.6043 17.275 37.9115 16.2885 37.3351C15.2877 36.7504 14.2563 36.2954 13.6142 36.056L13.5298 36.0245L13.5285 35.9344C13.495 33.7605 14.3135 31.4799 15.3059 29.4951C16.2493 27.6083 17.3567 25.9759 18.058 24.942C18.0952 24.8873 18.1312 24.8343 18.1659 24.783C19.1145 23.3827 20.4212 22.8305 21.6985 22.6259C22.6059 22.4805 23.5144 22.5099 24.2633 22.5342ZM18.998 39.3336C18.9888 39.418 18.9512 39.5338 18.8792 39.6684C18.7932 39.8289 18.6532 40.0259 18.4342 40.2449C18.4107 40.2684 18.3828 40.3222 18.366 40.4265C18.3498 40.5273 18.3467 40.6581 18.3564 40.8149C18.3758 41.1282 18.4449 41.5252 18.5421 41.9536C18.7348 42.8028 19.0334 43.7558 19.2517 44.3795C19.4988 44.7705 20.1489 45.2991 21.4503 45.8362C22.7591 46.3764 24.7092 46.9181 27.5242 47.339C33.061 48.1669 36.0088 45.0412 37.2616 43.2743C37.2546 41.1944 36.7305 34.8943 35.1602 30.6381L35.4069 30.5451L35.4076 30.5468L35.8794 31.7736C35.9094 31.6889 35.9463 31.5998 35.9888 31.5075C36.1413 31.176 36.3725 30.7876 36.6358 30.3895C37.1527 29.6079 37.803 28.7743 38.2547 28.2323C38.2655 28.0405 38.2009 27.7528 38.0712 27.3944C37.9349 27.0181 37.7345 26.584 37.5054 26.1385C37.0498 25.2529 36.486 24.333 36.1034 23.7528C35.0699 22.6769 33.8164 22.6631 32.7641 22.9808C32.5837 24.0293 32.0214 24.6759 31.3839 25.0528C30.7359 25.436 30.0143 25.5389 29.5429 25.5161C26.5859 25.412 25.2861 23.7501 24.9686 22.8139C24.7398 22.8141 24.4907 22.806 24.2261 22.7974C23.4844 22.7732 22.6211 22.7451 21.7402 22.8863C20.5904 23.0705 19.4378 23.542 18.5599 24.6871C19.2962 24.6047 20.2764 24.5909 21.2245 24.8962C22.3168 25.248 23.3608 26.0222 23.9365 27.5801L23.6892 27.6715C23.1442 26.1968 22.1665 25.4767 21.1436 25.1472C20.1403 24.8241 19.0883 24.8757 18.3515 24.9791C18.3273 25.0148 18.3026 25.0513 18.2773 25.0885C17.5758 26.1227 16.4771 27.7423 15.5417 29.6131C14.5702 31.5561 13.7822 33.7561 13.7912 35.8409C14.449 36.0921 15.449 36.5393 16.4215 37.1074C17.3614 37.6565 18.2907 38.3271 18.8545 39.0528C19.7297 37.5152 20.9761 35.2489 21.9942 33.2294C22.5233 32.1801 22.9896 31.1996 23.3103 30.4234C23.4707 30.0351 23.5934 29.7007 23.6694 29.436C23.7074 29.3035 23.733 29.191 23.746 29.0994C23.7594 29.0056 23.7581 28.9434 23.75 28.907L24.0075 28.8498C24.0257 28.932 24.0221 29.031 24.0071 29.1366C23.9917 29.2444 23.9628 29.3695 23.9229 29.5087C23.843 29.7871 23.716 30.1318 23.554 30.5241C23.2296 31.3093 22.7598 32.2967 22.2297 33.3482C21.1752 35.4397 19.8775 37.7935 18.998 39.3336Z" fill="black"/>
<path d="M23.8748 29.4913C23.8961 29.3593 23.9191 29.231 23.9438 29.1066C23.9771 29.1399 23.9504 29.2747 23.8748 29.4913C23.3827 32.5315 23.746 37.4846 23.746 39.1273C23.746 40.8414 21.5705 45.9836 21.5705 45.9836C20.9771 45.8297 19.685 45.3243 19.2631 44.5332C18.7356 43.5443 18.0105 40.9732 18.2082 40.314C18.4939 40.0063 18.9862 39.4174 18.9334 39.2592C20.4885 36.3986 23.3517 30.9888 23.8748 29.4913Z" fill="#160E1B" fill-opacity="0.4"/>
<path d="M32.3069 31.6375C32.3069 33.0356 31.2191 34.169 29.8771 34.169C28.5351 34.169 27.4473 33.0356 27.4473 31.6375C27.4473 30.2393 28.5351 29.1059 29.8771 29.1059C31.2191 29.1059 32.3069 30.2393 32.3069 31.6375Z" fill="#C4F0F7"/>
<path fill-rule="evenodd" clip-rule="evenodd" d="M29.8771 34.1031C31.1801 34.1031 32.241 33.0018 32.241 31.6375C32.241 30.2732 31.1801 29.1718 29.8771 29.1718C28.5741 29.1718 27.5132 30.2732 27.5132 31.6375C27.5132 33.0018 28.5741 34.1031 29.8771 34.1031ZM29.8771 34.169C31.2191 34.169 32.3069 33.0356 32.3069 31.6375C32.3069 30.2393 31.2191 29.1059 29.8771 29.1059C28.5351 29.1059 27.4473 30.2393 27.4473 31.6375C27.4473 33.0356 28.5351 34.169 29.8771 34.169Z" fill="black"/>
<path d="M28.0123 30.0695C28.1088 30.2119 28.1179 30.3515 28.2663 30.4288C28.3185 30.456 28.3533 30.5083 28.4074 30.5333C28.4634 30.5593 28.5342 30.5512 28.5908 30.584C28.8221 30.7179 28.9999 30.7393 28.9999 31.0543C28.9999 31.1391 29.1128 31.1095 29.1128 31.2013V31.4447C29.1128 31.5508 29.1519 31.7991 29.0109 31.8317C28.943 31.8475 28.8588 31.8227 28.8588 31.9216V32.1861C28.8588 32.3443 28.8613 32.4449 28.8024 32.583C28.749 32.7081 28.6008 32.7762 28.5453 32.9064C28.4932 33.0285 28.3566 33.1262 28.3509 33.2804C28.3485 33.3466 28.2951 33.5743 28.3666 33.5956C28.4183 33.611 28.4538 33.6717 28.5061 33.6838C28.5713 33.6989 28.5908 33.6087 28.6331 33.545C28.7264 33.4045 28.8623 33.2309 29.014 33.1579C29.2031 33.067 29.4093 33.0975 29.6144 33.0975C29.7675 33.0975 29.8633 33.0766 29.9718 32.9635C30.0426 32.8898 30.0942 32.7577 30.1975 32.7186C30.2582 32.6956 30.4208 32.6665 30.4609 32.6206C30.4749 32.6045 30.5227 32.3935 30.5236 32.3625C30.5256 32.2901 30.5378 32.1868 30.5173 32.1175C30.4785 31.9862 30.4326 31.8663 30.4092 31.7321C30.3899 31.6218 30.4829 31.642 30.5502 31.5835C30.6185 31.5242 30.6648 31.4348 30.7274 31.3695C30.8002 31.2936 30.8709 31.2813 30.9531 31.2323C30.9973 31.206 31.1046 31.1674 31.1303 31.1246C31.195 31.0166 31.1726 30.7518 31.1726 30.6215C31.1726 30.3465 30.8188 30.1948 30.5973 30.1593C30.4561 30.1367 30.3825 30.0087 30.3825 29.8637C30.3825 29.7202 30.6342 29.6169 30.7368 29.5975C30.8467 29.5767 30.8337 29.3618 30.7368 29.3329C30.7009 29.3222 30.6385 29.2402 30.6067 29.2153C30.557 29.1765 30.4725 29.1288 30.4107 29.1288H29.7038C29.6084 29.1288 29.281 29.0749 29.2037 29.1353C29.1622 29.1678 29.0825 29.2432 29.0281 29.2464C28.949 29.2509 28.9192 29.3189 28.8447 29.3362C28.7097 29.3674 28.6116 29.4834 28.514 29.5567C28.3292 29.6953 28.1177 29.85 28.0123 30.0695Z" fill="#86BD7A"/>
<path fill-rule="evenodd" clip-rule="evenodd" d="M29.5993 29.0885C29.6453 29.0926 29.6818 29.0958 29.7038 29.0958H30.4107C30.4489 29.0958 30.4908 29.1102 30.5275 29.1278C30.5648 29.1457 30.6004 29.1686 30.627 29.1894C30.637 29.1972 30.6484 29.2086 30.6592 29.2199C30.665 29.2259 30.6701 29.2314 30.6752 29.2368C30.6811 29.2431 30.687 29.2494 30.6939 29.2566C30.7058 29.2688 30.717 29.2799 30.727 29.2883C30.7379 29.2975 30.7441 29.3007 30.7462 29.3013C30.7814 29.3118 30.8064 29.3384 30.8222 29.368C30.8381 29.3976 30.8464 29.433 30.8473 29.4673C30.8482 29.5016 30.8419 29.5373 30.8258 29.5671C30.8093 29.5976 30.782 29.6225 30.7429 29.6299C30.6956 29.6389 30.6107 29.6681 30.5384 29.7122C30.5023 29.7342 30.4708 29.759 30.4488 29.7855C30.4267 29.8118 30.4155 29.838 30.4155 29.8637C30.4155 29.9991 30.4831 30.1077 30.6025 30.1268C30.7169 30.1451 30.8654 30.1933 30.9862 30.2731C31.1067 30.3527 31.2055 30.4681 31.2055 30.6215C31.2055 30.6438 31.2063 30.6717 31.2071 30.7027C31.2085 30.7572 31.2102 30.8214 31.2087 30.8823C31.2074 30.931 31.2041 30.98 31.1967 31.0241C31.1894 31.0678 31.1778 31.1093 31.1585 31.1415C31.1485 31.1582 31.1325 31.1718 31.1169 31.1828C31.1007 31.1941 31.082 31.2045 31.0637 31.214C31.0485 31.2218 31.0327 31.2293 31.0185 31.2361C31.0156 31.2375 31.0128 31.2388 31.0101 31.2402C30.9932 31.2483 30.9795 31.255 30.97 31.2607C30.9413 31.2777 30.9125 31.2913 30.8864 31.3036C30.8741 31.3093 30.8624 31.3148 30.8516 31.3203C30.8166 31.3379 30.7842 31.358 30.7512 31.3924C30.7255 31.4191 30.7027 31.4502 30.6783 31.4835C30.6748 31.4884 30.6711 31.4933 30.6675 31.4983C30.6396 31.5362 30.6091 31.5761 30.5719 31.6084C30.5515 31.6261 30.5297 31.6373 30.5106 31.6459C30.5028 31.6495 30.496 31.6523 30.49 31.6549C30.4797 31.6592 30.4714 31.6627 30.4631 31.6673C30.4515 31.6737 30.4461 31.6791 30.4433 31.685C30.4403 31.6911 30.4375 31.7028 30.4416 31.7264C30.458 31.82 30.4852 31.9054 30.5138 31.9952C30.5255 32.0318 30.5374 32.0692 30.5489 32.1082C30.5607 32.1479 30.5626 32.1952 30.5619 32.2394C30.5615 32.2618 30.5604 32.2842 30.5593 32.3052C30.5591 32.3081 30.559 32.311 30.5588 32.3139C30.5579 32.3318 30.557 32.3483 30.5566 32.3635C30.5562 32.3746 30.5524 32.3966 30.5477 32.4201C30.5428 32.4449 30.5362 32.4751 30.5293 32.5047C30.5223 32.5343 30.5148 32.5637 30.5082 32.5869C30.5048 32.5985 30.5016 32.609 30.4986 32.6173C30.4971 32.6214 30.4955 32.6255 30.4938 32.6291C30.4926 32.632 30.4899 32.6374 30.4857 32.6422C30.4707 32.6595 30.4472 32.6723 30.4246 32.6822C30.4009 32.6926 30.3734 32.7017 30.3464 32.7098C30.3248 32.7162 30.3027 32.7222 30.2824 32.7277C30.2773 32.7291 30.2722 32.7305 30.2674 32.7318C30.2427 32.7386 30.2227 32.7443 30.2092 32.7494C30.167 32.7654 30.1331 32.8013 30.099 32.8476C30.0881 32.8624 30.0779 32.8772 30.0676 32.8924C30.0616 32.901 30.0556 32.9097 30.0494 32.9186C30.0328 32.9423 30.0151 32.966 29.9956 32.9864C29.9384 33.0459 29.883 33.0827 29.8205 33.1041C29.7586 33.1252 29.692 33.1304 29.6144 33.1304C29.5726 33.1304 29.5307 33.1292 29.4894 33.1279C29.4795 33.1276 29.4696 33.1274 29.4597 33.1271C29.4087 33.1256 29.3587 33.1247 29.3094 33.1265C29.211 33.1302 29.1172 33.1449 29.0283 33.1876C28.8855 33.2563 28.7539 33.4227 28.6605 33.5632C28.6511 33.5774 28.6428 33.5934 28.6339 33.6107C28.6332 33.612 28.6326 33.6133 28.6319 33.6146C28.6239 33.6302 28.6154 33.647 28.6059 33.6617C28.5958 33.6775 28.5828 33.6942 28.5651 33.7053C28.5459 33.7174 28.5235 33.7216 28.4987 33.7159C28.4639 33.7078 28.4363 33.6844 28.4157 33.6668L28.4148 33.666C28.3913 33.6461 28.375 33.6325 28.3572 33.6272C28.3205 33.6163 28.3068 33.5808 28.3013 33.5531C28.2954 33.5233 28.2958 33.4872 28.2982 33.4526C28.3006 33.4174 28.3054 33.3811 28.3096 33.3501L28.3105 33.3437C28.3145 33.3148 28.3175 33.2927 28.318 33.2792C28.3212 33.1922 28.3615 33.1227 28.4037 33.0624C28.4144 33.0473 28.4253 33.0325 28.4359 33.0181L28.4364 33.0175C28.4469 33.0032 28.4571 32.9895 28.4668 32.9757C28.4865 32.9476 28.5033 32.9208 28.515 32.8934C28.5457 32.8216 28.6014 32.7678 28.651 32.7198L28.6518 32.7191C28.7035 32.6691 28.7485 32.6254 28.7721 32.5701C28.826 32.4437 28.8259 32.3518 28.8259 32.2028C28.8259 32.1973 28.8259 32.1918 28.8259 32.1861V31.9216C28.8259 31.8924 28.8321 31.8675 28.8467 31.8481C28.8616 31.8286 28.8817 31.8189 28.9006 31.8137C28.9188 31.8087 28.9387 31.807 28.9554 31.8057L28.9561 31.8056C28.974 31.8041 28.9893 31.8029 29.0034 31.7996C29.028 31.7939 29.0449 31.7794 29.0574 31.7566C29.0705 31.7327 29.0782 31.7003 29.0819 31.6625C29.0856 31.6251 29.0852 31.5849 29.0837 31.5466C29.0833 31.5336 29.0826 31.5205 29.082 31.5078C29.0809 31.4844 29.0798 31.4623 29.0798 31.4447V31.2013C29.0798 31.1861 29.0755 31.1789 29.0709 31.1739C29.0648 31.1673 29.0559 31.1621 29.0411 31.1544C29.0403 31.154 29.0394 31.1535 29.0385 31.1531C29.0258 31.1465 29.0082 31.1374 28.9942 31.1235C28.9774 31.1067 28.9669 31.0842 28.9669 31.0543C28.9669 30.9786 28.9562 30.9228 28.9381 30.8795C28.9201 30.8366 28.8942 30.8044 28.8609 30.7765C28.8272 30.7482 28.7859 30.7245 28.737 30.6989C28.7239 30.692 28.7102 30.685 28.6961 30.6777C28.6582 30.6583 28.6169 30.6372 28.5743 30.6125C28.5518 30.5995 28.5254 30.594 28.4934 30.5886C28.4907 30.5882 28.4879 30.5877 28.485 30.5872C28.4567 30.5826 28.4235 30.5771 28.3935 30.5632C28.3614 30.5484 28.3358 30.5258 28.3142 30.5065L28.3125 30.505C28.2904 30.4853 28.2723 30.4691 28.2511 30.458C28.1686 30.4151 28.1252 30.3544 28.0907 30.2889C28.0787 30.2662 28.0682 30.2439 28.0576 30.2216C28.0369 30.1778 28.0163 30.1341 27.985 30.088C27.9785 30.0783 27.9775 30.0658 27.9826 30.0552C28.0887 29.8341 28.2978 29.6775 28.4771 29.5431C28.4828 29.5388 28.4885 29.5346 28.4942 29.5303C28.5176 29.5128 28.5412 29.4925 28.5663 29.4708C28.568 29.4693 28.5696 29.4679 28.5713 29.4664C28.5947 29.4462 28.6193 29.4249 28.645 29.4047C28.7001 29.3615 28.7629 29.3213 28.8373 29.3041C28.8643 29.2978 28.8836 29.2835 28.9087 29.2648C28.9108 29.2632 28.9129 29.2616 28.9151 29.26C28.9425 29.2398 28.9764 29.2164 29.0262 29.2135C29.0333 29.2131 29.0437 29.21 29.0577 29.2029C29.0713 29.196 29.0861 29.1863 29.1013 29.1752C29.1212 29.1607 29.1388 29.146 29.155 29.1325C29.1649 29.1243 29.1743 29.1164 29.1834 29.1093C29.1981 29.0979 29.2165 29.0907 29.2352 29.0858C29.2542 29.0808 29.2758 29.0778 29.2984 29.0759C29.3437 29.0723 29.3966 29.0735 29.4489 29.0765C29.4983 29.0793 29.5482 29.0838 29.5916 29.0878C29.5942 29.088 29.5967 29.0882 29.5993 29.0885ZM29.1457 31.2013V31.4447C29.1457 31.4609 29.1467 31.48 29.1477 31.5021C29.1484 31.5151 29.1491 31.5291 29.1496 31.5441C29.1511 31.5832 29.1517 31.627 29.1475 31.669C29.1434 31.7106 29.1344 31.7531 29.1152 31.7882C29.0954 31.8245 29.0643 31.8532 29.0183 31.8638C28.9994 31.8682 28.9798 31.8698 28.9634 31.8712L28.9612 31.8714C28.9431 31.8728 28.9294 31.8741 28.9181 31.8772C28.9075 31.8802 28.9024 31.8838 28.8993 31.8879C28.8961 31.8922 28.8918 31.9013 28.8918 31.9216V32.1861C28.8918 32.1928 28.8918 32.1995 28.8918 32.206C28.8919 32.3528 28.892 32.457 28.8327 32.5959C28.8036 32.6641 28.7498 32.7161 28.7011 32.7631L28.6976 32.7665C28.6461 32.8162 28.6004 32.8613 28.5756 32.9193C28.5613 32.953 28.5414 32.9842 28.5207 33.0136C28.5106 33.028 28.5 33.0423 28.4896 33.0564L28.4889 33.0573C28.4782 33.0718 28.4678 33.0859 28.4577 33.1003C28.4172 33.158 28.3864 33.2144 28.3839 33.2816C28.3832 33.2986 28.3798 33.324 28.3761 33.351C28.3757 33.3537 28.3753 33.3563 28.375 33.359C28.3707 33.3901 28.3662 33.4244 28.3639 33.4571C28.3616 33.4903 28.3619 33.5193 28.366 33.5403C28.3681 33.5507 28.3707 33.5572 28.3731 33.5609C28.3742 33.5626 28.375 33.5633 28.3753 33.5636C28.3755 33.5638 28.3756 33.5638 28.3757 33.5639C28.3758 33.5639 28.3759 33.564 28.376 33.564C28.408 33.5735 28.4341 33.5958 28.454 33.6128C28.4552 33.6138 28.4563 33.6148 28.4575 33.6158C28.4805 33.6354 28.4965 33.6477 28.5136 33.6517C28.5213 33.6535 28.5258 33.6521 28.53 33.6495C28.5355 33.646 28.5422 33.6389 28.5504 33.6262C28.558 33.6143 28.5652 33.6002 28.5736 33.5839L28.5752 33.5806C28.584 33.5636 28.5939 33.5444 28.6056 33.5267C28.6989 33.3863 28.839 33.2055 28.9997 33.1282C29.0999 33.08 29.2038 33.0645 29.307 33.0607C29.3585 33.0587 29.4104 33.0597 29.4616 33.0612C29.4717 33.0615 29.4818 33.0618 29.4918 33.0621C29.533 33.0633 29.5737 33.0645 29.6144 33.0645C29.6899 33.0645 29.7477 33.0593 29.7992 33.0417C29.8499 33.0244 29.8966 32.9943 29.948 32.9407C29.9639 32.9242 29.9792 32.9038 29.9954 32.8807C30.0009 32.873 30.0065 32.8648 30.0123 32.8564C30.0231 32.8406 30.0345 32.8241 30.0459 32.8086C30.0812 32.7606 30.1247 32.7109 30.1859 32.6877C30.2028 32.6813 30.2259 32.6748 30.25 32.6682C30.2551 32.6668 30.2603 32.6654 30.2655 32.664C30.2857 32.6585 30.3068 32.6528 30.3275 32.6466C30.3537 32.6388 30.3782 32.6306 30.3982 32.6218C30.4171 32.6136 30.4286 32.6062 30.4344 32.6007C30.4349 32.5994 30.4356 32.5975 30.4366 32.595C30.4389 32.5886 30.4417 32.5797 30.4448 32.5687C30.4511 32.5469 30.4582 32.5186 30.4651 32.4896C30.4719 32.4606 30.4783 32.4312 30.4831 32.4073C30.4881 32.382 30.4905 32.366 30.4907 32.3616C30.4911 32.3456 30.492 32.3281 30.493 32.3103C30.4931 32.3074 30.4933 32.3046 30.4934 32.3017C30.4945 32.2808 30.4956 32.2594 30.4959 32.2383C30.4967 32.1954 30.4944 32.1564 30.4857 32.1269C30.4751 32.0909 30.4637 32.0552 30.4523 32.0194C30.4231 31.9279 30.3938 31.836 30.3767 31.7378C30.3712 31.7062 30.3728 31.6791 30.384 31.6562C30.3952 31.633 30.4137 31.6192 30.4314 31.6095C30.4425 31.6034 30.4562 31.5976 30.4685 31.5923C30.4739 31.59 30.479 31.5879 30.4835 31.5858C30.5002 31.5783 30.5153 31.5702 30.5286 31.5586C30.5597 31.5316 30.5865 31.4972 30.6144 31.4592C30.6179 31.4545 30.6214 31.4497 30.6249 31.4448C30.6491 31.4119 30.6747 31.3769 30.7036 31.3467C30.7435 31.3052 30.7828 31.2811 30.8219 31.2614C30.836 31.2543 30.8493 31.2481 30.8624 31.2419C30.8867 31.2305 30.9102 31.2195 30.9363 31.204C30.9488 31.1966 30.9651 31.1886 30.9816 31.1807C30.9845 31.1793 30.9874 31.1779 30.9903 31.1765C31.0046 31.1697 31.0192 31.1627 31.0335 31.1553C31.0508 31.1465 31.0665 31.1376 31.079 31.1288C31.0922 31.1196 31.0991 31.1123 31.102 31.1076C31.1151 31.0858 31.1249 31.0537 31.1317 31.0133C31.1383 30.9734 31.1415 30.9278 31.1428 30.8805C31.1443 30.8204 31.1427 30.7614 31.1413 30.7087C31.1404 30.6769 31.1396 30.6475 31.1396 30.6215C31.1396 30.4999 31.0616 30.402 30.9498 30.3281C30.8384 30.2545 30.6992 30.2091 30.5921 30.1919C30.4292 30.1658 30.3496 30.0182 30.3496 29.8637C30.3496 29.8177 30.3698 29.7771 30.3982 29.7432C30.4265 29.7093 30.4644 29.6801 30.504 29.6559C30.5832 29.6077 30.6755 29.5756 30.7307 29.5651C30.7465 29.5621 30.7588 29.5524 30.7678 29.5358C30.7771 29.5185 30.7821 29.4948 30.7814 29.4691C30.7807 29.4435 30.7744 29.4185 30.7641 29.3991C30.7536 29.3796 30.7406 29.3685 30.7274 29.3645C30.7115 29.3598 30.6965 29.3488 30.6846 29.3388C30.6718 29.3281 30.6587 29.315 30.6465 29.3023C30.6403 29.2959 30.6331 29.2882 30.6263 29.281C30.6209 29.2753 30.6157 29.2698 30.6116 29.2655C30.6006 29.2541 30.5923 29.2459 30.5864 29.2413C30.5633 29.2232 30.5317 29.2029 30.499 29.1872C30.4656 29.1712 30.4343 29.1617 30.4107 29.1617H29.7038C29.6781 29.1617 29.6379 29.1582 29.5933 29.1541C29.5908 29.1539 29.5884 29.1537 29.5859 29.1535C29.5423 29.1495 29.4934 29.1451 29.4451 29.1423C29.3939 29.1394 29.3445 29.1384 29.3037 29.1417C29.2833 29.1433 29.2658 29.1459 29.2518 29.1496C29.2374 29.1533 29.2287 29.1576 29.224 29.1613C29.218 29.166 29.21 29.1726 29.2008 29.1802C29.1831 29.1949 29.161 29.2132 29.1402 29.2284C29.1235 29.2406 29.1056 29.2525 29.0876 29.2616C29.07 29.2706 29.0501 29.2781 29.03 29.2793C29.0008 29.281 28.9802 29.2938 28.9543 29.313C28.952 29.3147 28.9496 29.3165 28.9472 29.3183C28.9234 29.3362 28.8933 29.3588 28.8522 29.3683C28.7916 29.3823 28.7379 29.4157 28.6857 29.4566C28.6613 29.4758 28.6378 29.4961 28.6142 29.5165C28.6126 29.5179 28.611 29.5193 28.6094 29.5206C28.5845 29.5422 28.5592 29.5639 28.5337 29.5831C28.5297 29.5861 28.5257 29.5891 28.5217 29.5921C28.3435 29.7257 28.1517 29.8695 28.0503 30.0672C28.0789 30.1123 28.1006 30.1581 28.1202 30.1995C28.1301 30.2205 28.1395 30.2403 28.149 30.2582C28.1802 30.3174 28.2155 30.3652 28.2815 30.3996C28.3102 30.4145 28.334 30.4358 28.3544 30.454C28.3556 30.4551 28.3568 30.4562 28.3581 30.4573C28.3803 30.4772 28.3992 30.4932 28.4212 30.5034C28.4426 30.5133 28.467 30.5174 28.4972 30.5224C28.4996 30.5228 28.5019 30.5232 28.5043 30.5236C28.5359 30.5289 28.5733 30.5357 28.6073 30.5554C28.6484 30.5792 28.6874 30.5992 28.7247 30.6183C28.7393 30.6258 28.7535 30.6331 28.7676 30.6405C28.8171 30.6664 28.8637 30.6928 28.9033 30.726C28.9434 30.7596 28.9763 30.8001 28.9989 30.854C29.0214 30.9076 29.0329 30.9726 29.0329 31.0543C29.0329 31.0669 29.0365 31.0725 29.0409 31.0769C29.0471 31.0831 29.0561 31.0879 29.0715 31.0959L29.072 31.0962C29.0855 31.1032 29.1045 31.1131 29.1194 31.1292C29.1359 31.1471 29.1457 31.1706 29.1457 31.2013Z" fill="black"/>
<path d="M30.3574 34.0813C30.4686 33.9382 30.6791 33.8519 30.7866 33.708C30.8208 33.6622 30.8255 33.5861 30.85 33.535C30.876 33.4809 30.8954 33.4195 30.9244 33.3677C30.9647 33.2958 31.0704 33.2035 31.1532 33.199C31.2856 33.1917 31.2663 32.9632 31.3144 32.8631C31.3628 32.7623 31.4182 32.6726 31.5128 32.6233C31.597 32.5795 31.6585 32.5788 31.7547 32.5788C31.8331 32.5788 31.8904 32.6176 31.9655 32.6176C32.0242 32.6176 31.9927 32.8193 31.9848 32.8566C31.9808 32.8754 31.9677 32.9365 31.9469 32.9406C31.9041 32.949 31.8957 33.0126 31.8725 33.0382C31.8467 33.0667 31.8237 33.0914 31.7981 33.1215C31.767 33.1579 31.7506 33.2138 31.7209 33.2478C31.6139 33.3704 31.5103 33.547 31.3585 33.6189C31.2861 33.6532 31.2353 33.7345 31.1628 33.7647C31.1285 33.779 31.0815 33.808 31.054 33.8321C31.0139 33.8673 30.9689 33.8722 30.923 33.8967C30.8818 33.9189 30.8268 33.9466 30.7784 33.9484C30.7423 33.9498 30.6256 33.9716 30.6047 34.0001C30.5825 34.0303 30.5277 34.0362 30.4959 34.0547C30.4238 34.0964 30.3857 34.0813 30.3574 34.0813Z" fill="#86BD7A"/>
<path fill-rule="evenodd" clip-rule="evenodd" d="M31.7547 32.6118C31.6588 32.6118 31.6045 32.6127 31.5281 32.6526C31.4436 32.6966 31.392 32.7775 31.3441 32.8774C31.3341 32.8982 31.3269 32.9274 31.3199 32.9632C31.318 32.9727 31.3162 32.9826 31.3143 32.9928C31.3093 33.0193 31.304 33.0477 31.2974 33.074C31.2882 33.1104 31.2755 33.1478 31.2541 33.177C31.2316 33.2078 31.1994 33.2295 31.155 33.232C31.1235 33.2337 31.0829 33.2531 31.0431 33.2841C31.004 33.3147 30.9707 33.3525 30.9532 33.3839C30.9398 33.4078 30.9283 33.4345 30.9166 33.463C30.9146 33.4678 30.9126 33.4727 30.9106 33.4775C30.901 33.5012 30.8909 33.5259 30.8797 33.5493C30.871 33.5674 30.8653 33.5891 30.8584 33.6148C30.8569 33.6204 30.8554 33.6262 30.8537 33.6322C30.8453 33.6631 30.8343 33.6992 30.813 33.7277C30.7557 33.8045 30.6717 33.865 30.5927 33.9218L30.5917 33.9224C30.5345 33.9636 30.4798 34.0029 30.4343 34.0461C30.4468 34.0425 30.4617 34.0364 30.4794 34.0262C30.4899 34.0201 30.5015 34.0155 30.512 34.0117C30.5168 34.0099 30.5218 34.0082 30.5265 34.0066L30.5277 34.0062C30.5329 34.0044 30.5378 34.0027 30.5425 34.0009C30.563 33.9934 30.5735 33.987 30.5782 33.9807C30.5892 33.9656 30.6081 33.9561 30.6228 33.9499C30.6394 33.9429 30.6588 33.937 30.6778 33.9322C30.7154 33.9227 30.756 33.9164 30.7771 33.9155C30.8167 33.914 30.865 33.8905 30.9075 33.8677C30.9269 33.8574 30.9469 33.8498 30.964 33.8434C30.9692 33.8414 30.9741 33.8396 30.9786 33.8378C30.9993 33.8296 31.0164 33.8213 31.0322 33.8074C31.0626 33.7808 31.1126 33.7499 31.1501 33.7343C31.1801 33.7218 31.2068 33.6982 31.2384 33.6691C31.2397 33.6679 31.2411 33.6667 31.2424 33.6654C31.2713 33.6388 31.3046 33.608 31.3444 33.5892C31.4139 33.5563 31.4741 33.4985 31.5314 33.4311C31.559 33.3987 31.5853 33.3648 31.6116 33.3309L31.6145 33.3273C31.6415 33.2924 31.6686 33.2577 31.6961 33.2262C31.7077 33.2128 31.7175 33.1943 31.7296 33.1705L31.7304 33.1692C31.7415 33.1474 31.7549 33.1213 31.773 33.1001C31.7939 33.0757 31.813 33.0546 31.8329 33.0328C31.8379 33.0273 31.8429 33.0218 31.8481 33.0161C31.8505 33.0134 31.8537 33.0083 31.8583 32.999C31.8595 32.9963 31.8612 32.9928 31.863 32.9889C31.8661 32.9821 31.8698 32.9742 31.873 32.9679C31.883 32.9485 31.9004 32.9196 31.9337 32.9099C31.9359 32.9064 31.9384 32.9008 31.9411 32.8932C31.9452 32.8813 31.9485 32.8682 31.9507 32.8583C31.9514 32.8551 31.952 32.8522 31.9526 32.8498C31.9526 32.8498 31.9526 32.8498 31.9526 32.8498C31.9562 32.8326 31.9657 32.7749 31.9672 32.7222C31.9679 32.6955 31.9665 32.673 31.9625 32.6582C31.9616 32.6549 31.9607 32.6523 31.9599 32.6505C31.9204 32.6496 31.8855 32.6395 31.8546 32.6306L31.8522 32.6299C31.8183 32.6201 31.7886 32.6118 31.7547 32.6118ZM32.017 32.8635C32.0213 32.8434 32.0315 32.7816 32.0331 32.724C32.0339 32.6957 32.0327 32.6654 32.0262 32.6412C32.023 32.6292 32.0179 32.6159 32.0086 32.605C31.9985 32.5931 31.9838 32.5846 31.9655 32.5846C31.9333 32.5846 31.9046 32.5764 31.8705 32.5666L31.8701 32.5664C31.837 32.5569 31.799 32.5459 31.7547 32.5459C31.6581 32.5459 31.5895 32.5463 31.4976 32.5941C31.3928 32.6487 31.3335 32.7471 31.2847 32.8488C31.2706 32.8781 31.2622 32.915 31.2552 32.9504C31.2531 32.9613 31.2511 32.9721 31.2491 32.9827C31.2442 33.0085 31.2395 33.0337 31.2335 33.0579C31.2249 33.092 31.2146 33.1194 31.2009 33.1381C31.1882 33.1554 31.1731 33.1649 31.1514 33.1661C31.1001 33.169 31.0464 33.198 31.0026 33.2322C30.9581 33.2669 30.9184 33.3111 30.8957 33.3516C30.8801 33.3794 30.8674 33.4093 30.8556 33.438C30.8535 33.4431 30.8514 33.4482 30.8493 33.4533C30.8397 33.4769 30.8306 33.4994 30.8203 33.5207C30.8087 33.545 30.8009 33.5742 30.7941 33.6C30.7928 33.6051 30.7914 33.6101 30.7901 33.6148C30.7816 33.6462 30.7731 33.671 30.7602 33.6883C30.7101 33.7555 30.6351 33.8101 30.5542 33.8682C30.5525 33.8695 30.5508 33.8707 30.549 33.8719C30.4716 33.9276 30.3892 33.9868 30.3314 34.0612C30.3237 34.0711 30.3223 34.0846 30.3278 34.0959C30.3334 34.1072 30.3448 34.1144 30.3574 34.1144C30.3611 34.1144 30.3648 34.1147 30.3704 34.1152C30.3726 34.1154 30.3751 34.1157 30.378 34.1159C30.3874 34.1168 30.3989 34.1175 30.4124 34.1166C30.4399 34.1148 30.4724 34.1064 30.5124 34.0832C30.5178 34.0801 30.5249 34.0771 30.5344 34.0737C30.5388 34.0721 30.5432 34.0705 30.548 34.0689L30.5492 34.0685C30.5543 34.0667 30.5599 34.0648 30.5653 34.0628C30.5857 34.0553 30.6138 34.0435 30.6313 34.0197C30.6312 34.0198 30.6313 34.0198 30.6316 34.0195C30.6328 34.0186 30.6374 34.0153 30.6484 34.0106C30.6607 34.0055 30.6767 34.0005 30.6939 33.9961C30.7289 33.9873 30.7647 33.982 30.7796 33.9814C30.837 33.9792 30.8985 33.9473 30.9386 33.9258C30.9538 33.9177 30.9682 33.9123 30.9844 33.9062C30.9902 33.904 30.9963 33.9017 31.0028 33.8991C31.0261 33.8899 31.0515 33.8782 31.0757 33.857C31.1004 33.8353 31.1444 33.8081 31.1755 33.7951C31.218 33.7774 31.2529 33.7453 31.283 33.7176L31.2838 33.7169C31.3153 33.6879 31.3421 33.6632 31.3726 33.6488C31.455 33.6098 31.5225 33.5433 31.5816 33.4738C31.6102 33.4403 31.6373 33.4053 31.6634 33.3717L31.6665 33.3677C31.6937 33.3327 31.7197 33.2994 31.7457 33.2695C31.7632 33.2495 31.7763 33.224 31.7873 33.2026L31.7883 33.2007C31.8004 33.1771 31.8106 33.1577 31.8232 33.1429C31.8433 33.1194 31.8616 33.0993 31.8813 33.0775C31.8864 33.072 31.8916 33.0663 31.8969 33.0604C31.9061 33.0503 31.9127 33.0378 31.9175 33.0278C31.9201 33.0225 31.9221 33.0181 31.924 33.014C31.9265 33.0087 31.9287 33.0038 31.9317 32.998C31.9417 32.9784 31.9483 32.9739 31.9532 32.973C31.9604 32.9716 31.9665 32.9686 31.9715 32.965C31.98 32.959 31.9856 32.9513 31.9888 32.9462C31.995 32.9365 31.9997 32.9251 32.0033 32.9151C32.0079 32.9018 32.0115 32.8878 32.014 32.8772C32.0153 32.8717 32.0163 32.8671 32.0169 32.8639C32.0169 32.8639 32.017 32.8639 32.017 32.8639L32.017 32.8635ZM31.9322 32.9122C31.9322 32.9122 31.9322 32.9122 31.9322 32.9122ZM31.9318 32.9127C31.9318 32.9127 31.9318 32.9127 31.9318 32.9127C31.9318 32.9127 31.9319 32.9125 31.9322 32.9122M31.9322 32.9122C31.932 32.9125 31.9318 32.9127 31.9318 32.9127ZM31.9318 32.9127C31.9318 32.9127 31.9318 32.9127 31.9318 32.9127Z" fill="black"/>
<g clip-path="url(#clip0)">
<g filter="url(#filter0_d)">
<path d="M27.7158 30.8695C27.2702 30.8695 27.0465 31.1665 26.9942 31.3861C26.956 31.5469 27.014 31.7346 27.0317 31.94C27.0473 32.1222 27.1508 32.2753 27.2569 32.3062C27.4094 32.5038 27.5716 32.4953 27.8439 32.4953C28.3756 32.4953 28.5748 32.0873 28.5748 31.6183C28.5747 31.2598 28.3285 30.8695 27.7158 30.8695Z" fill="#FFE51E"/>
</g>
<g filter="url(#filter1_d)">
<path fill-rule="evenodd" clip-rule="evenodd" d="M27.0974 31.9343L27.0974 31.9343C27.1043 32.0151 27.1307 32.0887 27.1661 32.1446C27.2024 32.2019 27.2434 32.2336 27.2754 32.2429L27.296 32.249L27.3091 32.2659C27.3766 32.3534 27.4426 32.3919 27.5209 32.4108C27.599 32.4296 27.6898 32.4295 27.8144 32.4294C27.824 32.4294 27.8339 32.4294 27.8439 32.4294C28.0904 32.4294 28.2525 32.3361 28.3553 32.194C28.4605 32.0487 28.5088 31.845 28.5088 31.6183M27.0584 31.4013C27.1047 31.2067 27.3053 30.9354 27.7158 30.9354C28.0074 30.9354 28.204 31.0279 28.3277 31.1554C28.4522 31.2837 28.5088 31.4537 28.5088 31.6183M27.0584 31.4013C27.0421 31.4696 27.0457 31.5468 27.0574 31.6379C27.0613 31.6684 27.0663 31.7014 27.0716 31.7359C27.0812 31.7991 27.0916 31.8673 27.0974 31.9343M26.9942 31.3861C27.0465 31.1665 27.2702 30.8695 27.7158 30.8695C28.3285 30.8695 28.5747 31.2598 28.5748 31.6183C28.5748 32.0873 28.3756 32.4953 27.8439 32.4953C27.833 32.4953 27.8222 32.4953 27.8116 32.4953C27.5586 32.4956 27.4033 32.4958 27.2569 32.3062C27.1508 32.2753 27.0473 32.1222 27.0317 31.94C27.0261 31.8746 27.0163 31.8111 27.007 31.7496C26.9868 31.6179 26.9682 31.4957 26.9942 31.3861Z" fill="black"/>
</g>
<g filter="url(#filter2_d)">
<path d="M28.3686 31.6567C28.3171 31.5835 28.2513 31.5247 28.1069 31.5038C28.161 31.5293 28.2129 31.6173 28.2197 31.6659C28.2265 31.7146 28.2332 31.7539 28.1904 31.7053C28.0186 31.5105 27.8316 31.5872 27.6463 31.4682C27.5169 31.3851 27.4774 31.2931 27.4774 31.2931C27.4774 31.2931 27.4617 31.4158 27.2654 31.5409C27.2085 31.5772 27.1406 31.6579 27.1029 31.7771C27.0758 31.8628 27.0788 31.9159 27.0855 31.9762C27.1548 32.3606 27.4092 32.5776 27.7674 32.5776C28.1253 32.5776 28.3793 32.4039 28.4488 32.0018C28.4501 31.9844 28.4514 31.9671 28.4514 31.9495C28.4514 31.799 28.4272 31.74 28.3686 31.6567Z" fill="#F3D2A2"/>
</g>
<g filter="url(#filter3_d)">
<path fill-rule="evenodd" clip-rule="evenodd" d="M28.3686 31.6567C28.3359 31.6102 28.2974 31.5695 28.2366 31.5406C28.2017 31.5241 28.1595 31.5114 28.1069 31.5038C28.1387 31.5188 28.1697 31.5553 28.1913 31.5928C28.1984 31.6052 28.2046 31.6178 28.2093 31.6297C28.2139 31.6412 28.2172 31.652 28.219 31.6616C28.2192 31.6631 28.2195 31.6645 28.2197 31.6659C28.2199 31.6675 28.2201 31.6691 28.2203 31.6706C28.2207 31.6731 28.221 31.6756 28.2214 31.678C28.2214 31.678 28.2214 31.678 28.2214 31.678C28.2273 31.7206 28.2296 31.7498 28.1904 31.7053C28.1838 31.6979 28.1773 31.6909 28.1707 31.6842C28.1673 31.6808 28.1639 31.6774 28.1605 31.6742C28.1578 31.6717 28.1552 31.6692 28.1525 31.6668C28.0637 31.5863 27.9713 31.5677 27.8775 31.5488C27.801 31.5334 27.7235 31.5178 27.6463 31.4682C27.5896 31.4318 27.5501 31.3936 27.5237 31.3623C27.4899 31.3221 27.4774 31.2931 27.4774 31.2931C27.4774 31.2931 27.4736 31.3232 27.4458 31.3689C27.4175 31.4153 27.3644 31.4778 27.2654 31.5409C27.2085 31.5772 27.1406 31.6579 27.1029 31.7771C27.0758 31.8628 27.0788 31.9159 27.0855 31.9762C27.1548 32.3606 27.4092 32.5776 27.7674 32.5776C28.1253 32.5776 28.3793 32.4039 28.4488 32.0018L28.449 31.9996C28.4502 31.983 28.4514 31.9664 28.4514 31.9495C28.4514 31.799 28.4272 31.74 28.3686 31.6567ZM28.285 31.6572C28.2954 31.6686 28.3051 31.681 28.3147 31.6946L28.3686 31.6567L28.3147 31.6946C28.3421 31.7337 28.3585 31.7627 28.3689 31.7971C28.3796 31.8323 28.3855 31.8774 28.3855 31.9495C28.3855 31.9633 28.3845 31.9771 28.3833 31.9936C28.3503 32.181 28.2761 32.3081 28.175 32.389C28.0729 32.4708 27.9359 32.5117 27.7674 32.5117C27.6021 32.5117 27.465 32.4619 27.3615 32.3714C27.2582 32.2811 27.1835 32.1461 27.1508 31.9667C27.1449 31.9126 27.1427 31.8697 27.1658 31.797L27.1658 31.797C27.1996 31.6901 27.259 31.6232 27.3008 31.5965C27.3954 31.5362 27.4537 31.4748 27.4893 31.4229C27.5186 31.4546 27.5582 31.4899 27.6107 31.5237L27.6107 31.5237C27.6993 31.5806 27.7906 31.5988 27.8673 31.6141C27.8819 31.617 27.8959 31.6198 27.9093 31.6227C27.9943 31.6414 28.0682 31.6665 28.1409 31.7489M28.285 31.6572C28.2852 31.6585 28.2854 31.6599 28.2856 31.6613C28.287 31.6715 28.2887 31.6831 28.2896 31.6933L28.2896 31.6933C28.2904 31.7019 28.2923 31.7218 28.287 31.7403C28.2842 31.75 28.2755 31.7731 28.2497 31.786C28.2227 31.7995 28.198 31.7916 28.1869 31.7866C28.1671 31.7777 28.1512 31.7605 28.1409 31.7489M28.1588 31.7121C28.1588 31.7126 28.1587 31.7125 28.1588 31.7121C28.1588 31.7121 28.1588 31.7121 28.1588 31.7121ZM28.2487 31.6709C28.2487 31.6709 28.2486 31.6708 28.2483 31.6706C28.2486 31.6708 28.2487 31.6709 28.2487 31.6709Z" fill="black"/>
</g>
<path d="M28.0432 32.114C28.0205 32.0907 27.9887 32.1025 27.9609 32.1134C27.9332 32.1244 27.8699 32.1565 27.7674 32.1565C27.6648 32.1565 27.6016 32.1244 27.5738 32.1134C27.546 32.1024 27.5142 32.0907 27.4915 32.114C27.4861 32.1196 27.4818 32.1262 27.4788 32.1335C27.4759 32.1408 27.4744 32.1486 27.4744 32.1565C27.4744 32.1644 27.4759 32.1723 27.4788 32.1796C27.4818 32.1869 27.4861 32.1935 27.4915 32.1991C27.4993 32.2071 27.605 32.2768 27.7674 32.2768C27.9298 32.2768 28.0355 32.2071 28.0432 32.1991C28.0487 32.1935 28.053 32.1869 28.0559 32.1796C28.0589 32.1723 28.0604 32.1644 28.0604 32.1565C28.0604 32.1486 28.0589 32.1408 28.0559 32.1335C28.053 32.1262 28.0487 32.1196 28.0432 32.114ZM27.826 32.0362H27.7088C27.6932 32.0362 27.6783 32.0299 27.6673 32.0186C27.6564 32.0073 27.6502 31.992 27.6502 31.9761C27.6502 31.9601 27.6564 31.9448 27.6673 31.9335C27.6783 31.9223 27.6932 31.9159 27.7088 31.9159H27.826C27.8415 31.9159 27.8564 31.9223 27.8674 31.9335C27.8784 31.9448 27.8846 31.9601 27.8846 31.9761C27.8846 31.992 27.8784 32.0073 27.8674 32.0186C27.8564 32.0299 27.8415 32.0362 27.826 32.0362Z" fill="#C1694F"/>
<path d="M27.533 31.9159C27.5174 31.9159 27.5025 31.9096 27.4915 31.8983C27.4805 31.887 27.4744 31.8717 27.4744 31.8557V31.7956C27.4744 31.7796 27.4805 31.7643 27.4915 31.7531C27.5025 31.7418 27.5174 31.7354 27.533 31.7354C27.5485 31.7354 27.5634 31.7418 27.5744 31.7531C27.5854 31.7643 27.5916 31.7796 27.5916 31.7956V31.8557C27.5916 31.8717 27.5854 31.887 27.5744 31.8983C27.5634 31.9096 27.5485 31.9159 27.533 31.9159ZM28.0018 31.9159C27.9862 31.9159 27.9713 31.9096 27.9603 31.8983C27.9493 31.887 27.9432 31.8717 27.9432 31.8557V31.7956C27.9432 31.7796 27.9493 31.7643 27.9603 31.7531C27.9713 31.7418 27.9862 31.7354 28.0018 31.7354C28.0173 31.7354 28.0322 31.7418 28.0432 31.7531C28.0542 31.7643 28.0604 31.7796 28.0604 31.7956V31.8557C28.0604 31.8717 28.0542 31.887 28.0432 31.8983C28.0322 31.9096 28.0173 31.9159 28.0018 31.9159Z" fill="#662113"/>
</g>
<g clip-path="url(#clip1)">
<g filter="url(#filter4_d)">
<path d="M29.8255 30.268C29.3799 30.268 29.1563 30.565 29.104 30.7846C29.0657 30.9454 29.1237 31.1331 29.1414 31.3385C29.1571 31.5207 29.2606 31.6738 29.3666 31.7047C29.5192 31.9023 29.6813 31.8938 29.9536 31.8938C30.4853 31.8938 30.6845 31.4858 30.6845 31.0168C30.6844 30.6583 30.4382 30.268 29.8255 30.268Z" fill="#60352A"/>
</g>
<g filter="url(#filter5_d)">
<path fill-rule="evenodd" clip-rule="evenodd" d="M29.2071 31.3328L29.2071 31.3328C29.2141 31.4136 29.2405 31.4872 29.2758 31.5431C29.3121 31.6004 29.3531 31.6321 29.3851 31.6414L29.4057 31.6475L29.4188 31.6644C29.4864 31.7519 29.5524 31.7904 29.6307 31.8092C29.7087 31.8281 29.7995 31.828 29.9242 31.8279C29.9338 31.8279 29.9436 31.8279 29.9536 31.8279C30.2002 31.8279 30.3622 31.7346 30.465 31.5925C30.5702 31.4472 30.6186 31.2435 30.6186 31.0168M29.8255 30.3339C29.4151 30.3339 29.2144 30.6052 29.1681 30.7998C29.1519 30.8681 29.1554 30.9453 29.1671 31.0364C29.171 31.0669 29.1761 31.0999 29.1813 31.1344C29.191 31.1976 29.2013 31.2657 29.2071 31.3328M29.1681 30.7998L29.104 30.7846ZM29.8255 30.3339C30.1172 30.3339 30.3137 30.4263 30.4374 30.5539ZM30.4374 30.5539C30.562 30.6822 30.6186 30.8522 30.6186 31.0168ZM29.104 30.7846C29.1563 30.565 29.3799 30.268 29.8255 30.268C30.4382 30.268 30.6844 30.6583 30.6845 31.0168C30.6845 31.4858 30.4853 31.8938 29.9536 31.8938C29.9427 31.8938 29.9319 31.8938 29.9213 31.8938C29.6683 31.8941 29.513 31.8943 29.3666 31.7047C29.2606 31.6738 29.1571 31.5207 29.1414 31.3385C29.1358 31.2731 29.1261 31.2096 29.1167 31.1481C29.0966 31.0164 29.0779 30.8942 29.104 30.7846Z" fill="black"/>
</g>
<g filter="url(#filter6_d)">
<path d="M30.4782 31.0552C30.4267 30.982 30.3609 30.9232 30.2165 30.9023C30.2706 30.9278 30.3225 31.0158 30.3293 31.0644C30.3361 31.1131 30.3428 31.1524 30.3 31.1038C30.1282 30.909 29.9412 30.9857 29.7559 30.8667C29.6265 30.7836 29.5871 30.6916 29.5871 30.6916C29.5871 30.6916 29.5713 30.8143 29.375 30.9394C29.3181 30.9757 29.2502 31.0564 29.2125 31.1756C29.1854 31.2613 29.1885 31.3144 29.1951 31.3747C29.2644 31.7591 29.5188 31.9761 29.877 31.9761C30.2349 31.9761 30.4889 31.8024 30.5584 31.4003C30.5597 31.3829 30.5611 31.3656 30.5611 31.348C30.5611 31.1975 30.5369 31.1385 30.4782 31.0552Z" fill="#AF7E57"/>
</g>
<g filter="url(#filter7_d)">
<path fill-rule="evenodd" clip-rule="evenodd" d="M30.4782 31.0552C30.4455 31.0087 30.407 30.968 30.3462 30.9391C30.3113 30.9226 30.2691 30.9099 30.2165 30.9023C30.2483 30.9173 30.2793 30.9538 30.3009 30.9913C30.308 31.0037 30.3142 31.0163 30.3189 31.0282C30.3235 31.0397 30.3268 31.0505 30.3286 31.0601C30.3289 31.0616 30.3291 31.063 30.3293 31.0644C30.3295 31.066 30.3297 31.0676 30.33 31.0691C30.3303 31.0716 30.3306 31.0741 30.331 31.0765C30.331 31.0765 30.331 31.0765 30.331 31.0765C30.3369 31.1191 30.3392 31.1483 30.3 31.1038C30.2934 31.0964 30.2869 31.0894 30.2803 31.0827C30.2769 31.0793 30.2735 31.0759 30.2701 31.0727C30.2674 31.0702 30.2648 31.0677 30.2621 31.0653C30.1734 30.9848 30.0809 30.9662 29.9871 30.9473C29.9106 30.9319 29.8331 30.9163 29.7559 30.8667C29.6992 30.8303 29.6598 30.7921 29.6333 30.7608C29.5995 30.7206 29.5871 30.6916 29.5871 30.6916C29.5871 30.6916 29.5832 30.7217 29.5554 30.7673C29.5271 30.8138 29.474 30.8763 29.375 30.9394C29.3181 30.9757 29.2502 31.0564 29.2125 31.1756C29.1854 31.2613 29.1885 31.3144 29.1951 31.3747C29.2644 31.7591 29.5188 31.9761 29.877 31.9761C30.2349 31.9761 30.4889 31.8024 30.5584 31.4003L30.5586 31.3981C30.5598 31.3815 30.5611 31.3649 30.5611 31.348C30.5611 31.1975 30.5369 31.1385 30.4782 31.0552ZM30.3946 31.0557C30.405 31.0671 30.4147 31.0795 30.4243 31.0931L30.4782 31.0552L30.4243 31.0931C30.4518 31.1322 30.4681 31.1612 30.4786 31.1956C30.4893 31.2308 30.4951 31.2759 30.4951 31.348C30.4951 31.3618 30.4941 31.3756 30.4929 31.3921C30.46 31.5795 30.3857 31.7066 30.2846 31.7875C30.1825 31.8693 30.0456 31.9102 29.877 31.9102C29.7117 31.9102 29.5746 31.8604 29.4711 31.7699C29.3678 31.6796 29.2931 31.5445 29.2604 31.3652C29.2545 31.3111 29.2524 31.2682 29.2754 31.1955L29.2754 31.1955C29.3092 31.0886 29.3686 31.0217 29.4104 30.995M30.3946 31.0557C30.3948 31.057 30.395 31.0584 30.3952 31.0598C30.3967 31.07 30.3983 31.0816 30.3992 31.0918L30.3992 31.0918C30.4001 31.1004 30.4019 31.1203 30.3966 31.1388C30.3938 31.1485 30.3852 31.1716 30.3593 31.1845C30.3324 31.198 30.3076 31.1901 30.2965 31.1851C30.2767 31.1762 30.2608 31.159 30.2505 31.1474C30.1779 31.065 30.1039 31.0399 30.0189 31.0212C30.0055 31.0183 29.9915 31.0155 29.977 31.0126C29.9002 30.9973 29.8089 30.9791 29.7203 30.9222L29.7203 30.9222C29.6678 30.8884 29.6282 30.8531 29.5989 30.8214C29.5633 30.8733 29.505 30.9347 29.4104 30.995M30.2684 31.1106C30.2684 31.1111 30.2684 31.111 30.2684 31.1106C30.2684 31.1106 30.2684 31.1106 30.2684 31.1106ZM30.3583 31.0694C30.3583 31.0694 30.3582 31.0693 30.3579 31.0691C30.3582 31.0693 30.3583 31.0694 30.3583 31.0694Z" fill="black"/>
</g>
<path d="M30.1528 31.5124C30.1302 31.4892 30.0983 31.5009 30.0706 31.5118C30.0428 31.5229 29.9795 31.555 29.877 31.555C29.7744 31.555 29.7112 31.5229 29.6834 31.5118C29.6557 31.5008 29.6238 31.4892 29.6012 31.5124C29.5957 31.518 29.5914 31.5247 29.5885 31.532C29.5855 31.5393 29.584 31.5471 29.584 31.555C29.584 31.5629 29.5855 31.5707 29.5885 31.578C29.5914 31.5853 29.5957 31.5919 29.6012 31.5975C29.6089 31.6055 29.7146 31.6753 29.877 31.6753C30.0394 31.6753 30.1451 31.6055 30.1528 31.5975C30.1583 31.5919 30.1626 31.5853 30.1655 31.578C30.1685 31.5707 30.17 31.5629 30.17 31.555C30.17 31.5471 30.1685 31.5393 30.1655 31.532C30.1626 31.5247 30.1583 31.518 30.1528 31.5124ZM29.9356 31.4347H29.8184C29.8029 31.4347 29.788 31.4283 29.777 31.417C29.766 31.4058 29.7598 31.3905 29.7598 31.3745C29.7598 31.3586 29.766 31.3433 29.777 31.332C29.788 31.3207 29.8029 31.3144 29.8184 31.3144H29.9356C29.9511 31.3144 29.966 31.3207 29.977 31.332C29.988 31.3433 29.9942 31.3586 29.9942 31.3745C29.9942 31.3905 29.988 31.4058 29.977 31.417C29.966 31.4283 29.9511 31.4347 29.9356 31.4347Z" fill="#915A34"/>
<path d="M29.6427 31.3144C29.6272 31.3144 29.6123 31.3081 29.6013 31.2968C29.5903 31.2855 29.5841 31.2702 29.5841 31.2543V31.1941C29.5841 31.1782 29.5903 31.1629 29.6013 31.1516C29.6123 31.1403 29.6272 31.134 29.6427 31.134C29.6582 31.134 29.6732 31.1403 29.6841 31.1516C29.6951 31.1629 29.7013 31.1782 29.7013 31.1941V31.2543C29.7013 31.2702 29.6951 31.2855 29.6841 31.2968C29.6732 31.3081 29.6582 31.3144 29.6427 31.3144ZM30.1115 31.3144C30.096 31.3144 30.0811 31.3081 30.0701 31.2968C30.0591 31.2855 30.0529 31.2702 30.0529 31.2543V31.1941C30.0529 31.1782 30.0591 31.1629 30.0701 31.1516C30.0811 31.1403 30.096 31.134 30.1115 31.134C30.1271 31.134 30.142 31.1403 30.1529 31.1516C30.1639 31.1629 30.1701 31.1782 30.1701 31.1941V31.2543C30.1701 31.2702 30.1639 31.2855 30.1529 31.2968C30.142 31.3081 30.1271 31.3144 30.1115 31.3144Z" fill="#662113"/>
</g>
<g clip-path="url(#clip2)">
<g filter="url(#filter8_d)">
<path d="M31.935 30.8695C31.4894 30.8695 31.2658 31.1665 31.2135 31.3861C31.1752 31.5469 31.2332 31.7346 31.2509 31.94C31.2666 32.1222 31.3701 32.2753 31.4761 32.3062C31.6287 32.5038 31.7908 32.4953 32.0631 32.4953C32.5948 32.4953 32.794 32.0873 32.794 31.6183C32.7939 31.2598 32.5477 30.8695 31.935 30.8695Z" fill="#0B0200"/>
</g>
<g filter="url(#filter9_d)">
<path fill-rule="evenodd" clip-rule="evenodd" d="M31.3166 31.9343L31.3166 31.9343C31.3235 32.0151 31.35 32.0887 31.3853 32.1446C31.4216 32.2019 31.4626 32.2336 31.4946 32.2429L31.5152 32.249L31.5283 32.2659C31.5959 32.3534 31.6619 32.3919 31.7402 32.4108C31.8182 32.4296 31.909 32.4295 32.0337 32.4294C32.0433 32.4294 32.0531 32.4294 32.0631 32.4294C32.3097 32.4294 32.4717 32.3361 32.5745 32.194C32.6797 32.0487 32.7281 31.845 32.7281 31.6183M31.935 30.9354C31.5246 30.9354 31.3239 31.2067 31.2776 31.4013C31.2614 31.4696 31.2649 31.5468 31.2766 31.6379C31.2805 31.6684 31.2856 31.7014 31.2908 31.7359C31.3004 31.7991 31.3108 31.8673 31.3166 31.9343M31.2776 31.4013L31.2135 31.3861ZM31.935 30.9354C32.2267 30.9354 32.4232 31.0279 32.5469 31.1554ZM32.5469 31.1554C32.6715 31.2837 32.728 31.4537 32.7281 31.6183ZM31.2135 31.3861C31.2658 31.1665 31.4894 30.8695 31.935 30.8695C32.5477 30.8695 32.7939 31.2598 32.794 31.6183C32.794 32.0873 32.5948 32.4953 32.0631 32.4953C32.0522 32.4953 32.0414 32.4953 32.0308 32.4953C31.7778 32.4956 31.6225 32.4958 31.4761 32.3062C31.3701 32.2753 31.2666 32.1222 31.2509 31.94C31.2453 31.8746 31.2356 31.8111 31.2262 31.7496C31.2061 31.6179 31.1874 31.4957 31.2135 31.3861Z" fill="black"/>
</g>
<g filter="url(#filter10_d)">
<path d="M32.5878 31.6567C32.5364 31.5835 32.4705 31.5247 32.3261 31.5038C32.3803 31.5293 32.4321 31.6173 32.4389 31.6659C32.4457 31.7146 32.4524 31.7539 32.4096 31.7053C32.2379 31.5105 32.0509 31.5872 31.8656 31.4682C31.7361 31.3851 31.6967 31.2931 31.6967 31.2931C31.6967 31.2931 31.6809 31.4158 31.4846 31.5409C31.4277 31.5772 31.3598 31.6579 31.3222 31.7771C31.295 31.8628 31.2981 31.9159 31.3048 31.9762C31.374 32.3606 31.6284 32.5776 31.9866 32.5776C32.3445 32.5776 32.5985 32.4039 32.668 32.0018C32.6693 31.9844 32.6707 31.9671 32.6707 31.9495C32.6707 31.799 32.6465 31.74 32.5878 31.6567Z" fill="#7C533E"/>
</g>
<g filter="url(#filter11_d)">
<path fill-rule="evenodd" clip-rule="evenodd" d="M32.5878 31.6567C32.5551 31.6102 32.5166 31.5695 32.4558 31.5406C32.4209 31.5241 32.3787 31.5114 32.3261 31.5038C32.3579 31.5188 32.3889 31.5553 32.4105 31.5928C32.4177 31.6052 32.4238 31.6178 32.4285 31.6297C32.4331 31.6412 32.4364 31.652 32.4382 31.6616C32.4385 31.6631 32.4387 31.6645 32.4389 31.6659C32.4391 31.6675 32.4394 31.6691 32.4396 31.6706C32.4399 31.6731 32.4403 31.6756 32.4406 31.678C32.4406 31.678 32.4406 31.678 32.4406 31.678C32.4465 31.7206 32.4488 31.7498 32.4096 31.7053C32.4031 31.6979 32.3965 31.6909 32.3899 31.6842C32.3865 31.6808 32.3831 31.6774 32.3797 31.6742C32.3771 31.6717 32.3744 31.6692 32.3717 31.6668C32.283 31.5863 32.1906 31.5677 32.0968 31.5488C32.0202 31.5334 31.9427 31.5178 31.8656 31.4682C31.8088 31.4318 31.7694 31.3936 31.743 31.3623C31.7091 31.3221 31.6967 31.2931 31.6967 31.2931C31.6967 31.2931 31.6928 31.3232 31.665 31.3689C31.6367 31.4153 31.5836 31.4778 31.4846 31.5409C31.4277 31.5772 31.3598 31.6579 31.3222 31.7771C31.295 31.8628 31.2981 31.9159 31.3048 31.9762C31.374 32.3606 31.6284 32.5776 31.9866 32.5776C32.3445 32.5776 32.5985 32.4039 32.668 32.0018L32.6682 31.9996C32.6694 31.983 32.6707 31.9664 32.6707 31.9495C32.6707 31.799 32.6465 31.74 32.5878 31.6567ZM32.5043 31.6572C32.5146 31.6686 32.5243 31.681 32.5339 31.6946L32.5878 31.6567L32.5339 31.6946C32.5614 31.7337 32.5777 31.7627 32.5882 31.7971C32.5989 31.8323 32.6048 31.8774 32.6048 31.9495C32.6048 31.9633 32.6038 31.9771 32.6025 31.9936C32.5696 32.181 32.4953 32.3081 32.3943 32.389C32.2922 32.4708 32.1552 32.5117 31.9866 32.5117C31.8213 32.5117 31.6842 32.4619 31.5807 32.3714C31.4774 32.2811 31.4028 32.1461 31.37 31.9667C31.3641 31.9126 31.362 31.8697 31.385 31.797L31.385 31.797C31.4188 31.6901 31.4782 31.6232 31.52 31.5965C31.6147 31.5362 31.6729 31.4748 31.7085 31.4229C31.7378 31.4546 31.7774 31.4899 31.8299 31.5237L31.8299 31.5237C31.9185 31.5806 32.0099 31.5988 32.0866 31.6141C32.1011 31.617 32.1152 31.6198 32.1285 31.6227C32.2135 31.6414 32.2875 31.6665 32.3602 31.7489M32.5043 31.6572C32.5044 31.6585 32.5046 31.6599 32.5048 31.6613C32.5063 31.6715 32.5079 31.6831 32.5089 31.6933L32.5089 31.6933C32.5097 31.7019 32.5115 31.7218 32.5063 31.7403C32.5035 31.75 32.4948 31.7731 32.4689 31.786C32.442 31.7995 32.4172 31.7916 32.4061 31.7866C32.3864 31.7777 32.3704 31.7605 32.3602 31.7489M32.378 31.7121C32.378 31.7126 32.378 31.7125 32.378 31.7121C32.378 31.7121 32.378 31.7121 32.378 31.7121ZM32.4679 31.6709C32.4679 31.6709 32.4678 31.6708 32.4676 31.6706C32.4678 31.6708 32.4679 31.6709 32.4679 31.6709Z" fill="black"/>
</g>
<path d="M32.2626 32.114C32.2399 32.0907 32.2081 32.1025 32.1803 32.1134C32.1525 32.1244 32.0893 32.1565 31.9867 32.1565C31.8842 32.1565 31.821 32.1244 31.7932 32.1134C31.7654 32.1024 31.7336 32.0907 31.7109 32.114C31.7055 32.1196 31.7011 32.1262 31.6982 32.1335C31.6952 32.1408 31.6937 32.1486 31.6937 32.1565C31.6937 32.1644 31.6952 32.1723 31.6982 32.1796C31.7011 32.1869 31.7055 32.1935 31.7109 32.1991C31.7186 32.2071 31.8244 32.2768 31.9867 32.2768C32.1491 32.2768 32.2548 32.2071 32.2626 32.1991C32.268 32.1935 32.2723 32.1869 32.2753 32.1796C32.2782 32.1723 32.2798 32.1644 32.2798 32.1565C32.2798 32.1486 32.2782 32.1408 32.2753 32.1335C32.2723 32.1262 32.268 32.1196 32.2626 32.114ZM32.0453 32.0362H31.9281C31.9126 32.0362 31.8977 32.0299 31.8867 32.0186C31.8757 32.0073 31.8695 31.992 31.8695 31.9761C31.8695 31.9601 31.8757 31.9448 31.8867 31.9335C31.8977 31.9223 31.9126 31.9159 31.9281 31.9159H32.0453C32.0609 31.9159 32.0758 31.9223 32.0868 31.9335C32.0978 31.9448 32.1039 31.9601 32.1039 31.9761C32.1039 31.992 32.0978 32.0073 32.0868 32.0186C32.0758 32.0299 32.0609 32.0362 32.0453 32.0362Z" fill="#3D2E24"/>
<path d="M31.7522 31.9159C31.7367 31.9159 31.7218 31.9096 31.7108 31.8983C31.6998 31.887 31.6936 31.8717 31.6936 31.8557V31.7956C31.6936 31.7796 31.6998 31.7643 31.7108 31.7531C31.7218 31.7418 31.7367 31.7354 31.7522 31.7354C31.7677 31.7354 31.7827 31.7418 31.7936 31.7531C31.8046 31.7643 31.8108 31.7796 31.8108 31.7956V31.8557C31.8108 31.8717 31.8046 31.887 31.7936 31.8983C31.7827 31.9096 31.7677 31.9159 31.7522 31.9159ZM32.221 31.9159C32.2055 31.9159 32.1906 31.9096 32.1796 31.8983C32.1686 31.887 32.1624 31.8717 32.1624 31.8557V31.7956C32.1624 31.7796 32.1686 31.7643 32.1796 31.7531C32.1906 31.7418 32.2055 31.7354 32.221 31.7354C32.2366 31.7354 32.2515 31.7418 32.2624 31.7531C32.2734 31.7643 32.2796 31.7796 32.2796 31.7956V31.8557C32.2796 31.8717 32.2734 31.887 32.2624 31.8983C32.2515 31.9096 32.2366 31.9159 32.221 31.9159Z" fill="black"/>
</g>
<path d="M27.9652 26.3376C26.5716 25.8242 25.2403 23.8544 24.9985 22.6458C25.5259 23.8325 27.1926 25.49 29.6793 25.4147C31.8548 25.3488 32.6459 23.7665 32.6459 22.9754C33.0415 23.1732 32.3864 25.4048 31.7229 26.008C30.9978 26.6673 29.2178 26.7991 27.9652 26.3376Z" fill="#160E1B" fill-opacity="0.4"/>
<path d="M13.1856 41.9621L13.9107 36.0947C16.1786 36.7276 18.1519 38.468 18.8551 39.2591L18.1959 40.3139C17.9849 40.8941 18.6793 43.2806 19.0529 44.4013C19.2068 44.7309 19.9363 45.2188 20.3055 45.8517C20.767 46.6428 21.5581 46.9065 22.0855 47.368C22.5074 47.7371 23.1843 49.4117 23.2062 50.0709C23.0744 50.5983 22.2378 50.249 22.0855 49.7413C21.6306 48.225 20.9867 48.4228 20.6351 47.8954L20.9648 48.8183C21.5361 49.8731 22.0459 52.141 19.5144 52.7739C16.35 53.565 15.5589 49.148 15.3611 48.0931C15.1633 47.0383 14.2404 45.588 13.5811 44.5332C13.0537 43.6893 13.0977 42.4675 13.1856 41.9621Z" fill="white"/>
<path fill-rule="evenodd" clip-rule="evenodd" d="M13.8376 35.9849C13.8696 35.9636 13.9092 35.9573 13.9462 35.9677C16.2477 36.6099 18.2415 38.3703 18.9537 39.1715C18.9926 39.2152 18.998 39.2793 18.967 39.329L18.3158 40.3709C18.2994 40.4227 18.2891 40.5018 18.2887 40.6106C18.2882 40.7258 18.2989 40.8649 18.3191 41.023C18.3595 41.3391 18.437 41.7216 18.5334 42.1241C18.7253 42.9249 18.9896 43.7936 19.1754 44.3518C19.2055 44.4128 19.2661 44.4902 19.3577 44.5877C19.4313 44.666 19.5176 44.75 19.6126 44.8424C19.638 44.8671 19.6641 44.8925 19.6907 44.9185C19.938 45.1603 20.2248 45.4516 20.4194 45.7852C20.6362 46.1568 20.9316 46.4074 21.2459 46.625C21.3521 46.6985 21.4577 46.7665 21.5637 46.8347C21.6164 46.8686 21.6691 46.9026 21.7221 46.9373C21.8789 47.0401 22.0334 47.1471 22.1723 47.2687C22.2958 47.3768 22.4263 47.5677 22.5505 47.7887C22.6769 48.0137 22.804 48.2833 22.9178 48.5605C23.1431 49.1091 23.3262 49.7114 23.338 50.0665C23.3384 50.0787 23.3371 50.091 23.3342 50.1029C23.291 50.2754 23.1837 50.3895 23.039 50.4382C22.9026 50.4842 22.7492 50.467 22.6103 50.4188C22.3358 50.3235 22.0503 50.0828 21.9592 49.7791C21.738 49.0417 21.4766 48.7372 21.2401 48.5511C21.1569 48.4856 21.08 48.4366 21.0006 48.3859C20.9791 48.3722 20.9574 48.3584 20.9354 48.3441L21.0856 48.7645C21.3773 49.3067 21.6563 50.162 21.5336 50.974C21.4714 51.3853 21.3057 51.787 20.9854 52.1275C20.6654 52.4676 20.1984 52.7387 19.5464 52.9017C18.7225 53.1077 18.0432 52.9756 17.4895 52.637C16.9402 52.3012 16.5246 51.7685 16.2094 51.1887C15.5944 50.0569 15.3416 48.7057 15.2385 48.1546C15.2361 48.1417 15.2338 48.1294 15.2315 48.1174C15.1366 47.6111 14.8647 46.9997 14.5281 46.3757C14.2146 45.7946 13.8508 45.2129 13.5349 44.7079C13.5128 44.6725 13.4909 44.6376 13.4693 44.603C13.1906 44.157 13.0663 43.6179 13.0213 43.1328C12.9764 42.6488 13.0095 42.207 13.0551 41.9427L13.7799 36.0785C13.7846 36.0404 13.8057 36.0062 13.8376 35.9849ZM14.0226 36.2645L13.3164 41.9782C13.3162 41.9804 13.3158 41.9825 13.3155 41.9846C13.2735 42.2261 13.241 42.6463 13.2839 43.1085C13.3268 43.5716 13.4443 44.0654 13.6929 44.4632C13.7148 44.4982 13.7369 44.5335 13.7593 44.5693C14.0744 45.0732 14.4425 45.6616 14.7602 46.2505C15.0993 46.8791 15.3879 47.5204 15.4907 48.0688C15.4926 48.0792 15.4946 48.0899 15.4967 48.1009C15.5997 48.6511 15.8463 49.9682 16.4411 51.0627C16.744 51.6201 17.1319 52.1093 17.6271 52.4121C18.1179 52.7122 18.7242 52.8355 19.4824 52.6459C20.0962 52.4925 20.5148 52.2428 20.7934 51.9468C21.0716 51.651 21.2174 51.3012 21.2728 50.9346C21.3846 50.1952 21.1268 49.3942 20.8488 48.8811C20.8456 48.8752 20.8429 48.869 20.8406 48.8626L20.511 47.9397C20.4886 47.877 20.5165 47.8074 20.576 47.7775C20.6355 47.7476 20.7079 47.7668 20.7449 47.8222C20.8193 47.9339 20.9099 48.0091 21.0202 48.0839C21.0529 48.1061 21.0893 48.1294 21.128 48.1541C21.2135 48.2088 21.3102 48.2707 21.4031 48.3439C21.6902 48.5698 21.9782 48.9245 22.2118 49.7034C22.273 49.9074 22.482 50.0952 22.6968 50.1697C22.8026 50.2064 22.8925 50.2093 22.9548 50.1883C23.0054 50.1713 23.0495 50.1351 23.0736 50.0559C23.0574 49.7476 22.8934 49.1952 22.6739 48.6607C22.5631 48.3908 22.4405 48.1313 22.3206 47.9179C22.1985 47.7006 22.0862 47.5437 21.9987 47.4672C21.8739 47.358 21.7318 47.259 21.5775 47.1578C21.5284 47.1257 21.4777 47.093 21.426 47.0597C21.3178 46.9901 21.2055 46.9178 21.0957 46.8418C20.7673 46.6144 20.4363 46.3375 20.1916 45.9181C20.0171 45.6188 19.7545 45.3497 19.5063 45.107C19.4811 45.0824 19.456 45.058 19.4311 45.0338C19.3356 44.9408 19.2436 44.8513 19.1655 44.7682C19.0687 44.6651 18.9815 44.5599 18.9335 44.457C18.9313 44.4525 18.9295 44.4478 18.9279 44.443C18.7402 43.8802 18.4721 42.9995 18.277 42.1856C18.1795 41.7789 18.0996 41.386 18.0575 41.0564C18.0364 40.8917 18.0245 40.7403 18.025 40.6096C18.0255 40.4811 18.0379 40.3625 18.072 40.2688C18.0751 40.2602 18.0792 40.2518 18.0841 40.244L18.6906 39.2737C17.9616 38.4815 16.1281 36.9003 14.0226 36.2645Z" fill="black"/>
<path d="M15.6248 36.9517C15.4666 36.7935 14.8996 36.5562 14.0426 36.2265C13.7789 37.9406 13.2383 41.3687 13.1856 42.1599C13.0977 43.4784 13.6542 44.725 14.3063 45.5221C14.8996 46.2472 15.4271 48.0272 15.8885 49.9391C16.2643 51.4958 17.3389 52.3124 17.8004 52.5102C17.8004 52.5102 18.5915 52.8398 18.987 52.708C19.3826 52.5761 18.0641 52.5102 17.5367 52.0487C17.1397 51.7014 16.4599 50.2467 16.2182 49.6094C16.1083 48.6206 15.8226 46.7087 15.2293 46.1154C14.6323 45.5184 14.0426 43.6102 13.8448 42.8191C13.6364 41.9852 15.8226 37.1495 15.6248 36.9517Z" fill="#DADADA"/>
<path d="M35.9298 31.8754C36.0353 31.2425 37.5999 29.1505 38.3691 28.1836C39.314 30.6009 41.217 35.8705 41.2698 37.611C41.3225 39.3514 41.8192 41.149 42.0609 41.8302C42.7201 42.4895 43.0498 44.0717 42.9839 45.1265C42.7861 46.0494 42.7861 46.5109 42.0609 47.0383C41.1298 47.7155 40.2809 47.1042 39.8194 46.7087C39.6778 46.5873 39.1229 45.9635 39.4898 44.8628C39.6876 44.2694 39.0942 43.5443 38.9624 43.6761C38.7866 44.3134 38.8305 44.5991 38.8305 45.1265C38.8305 45.7198 39.0283 45.7198 38.9624 46.0494C38.9068 46.3271 38.7119 46.5241 38.2372 46.0494C37.7625 45.5748 37.7098 45.0606 37.7098 44.4672C37.7098 43.8739 37.7587 43.3375 37.9735 42.9509C38.9624 41.1709 37.9735 37.8087 37.7098 36.8858C37.4461 35.9628 36.3913 33.0841 35.9298 31.8754Z" fill="white"/>
<path fill-rule="evenodd" clip-rule="evenodd" d="M38.4085 27.9223L38.4919 28.1356C38.9651 29.346 39.678 31.2701 40.2794 33.1101C40.5801 34.0301 40.8534 34.9304 41.0549 35.7106C41.2557 36.4878 41.388 37.1559 41.4016 37.607C41.4532 39.3068 41.9335 41.066 42.1756 41.7588C42.519 42.1153 42.7667 42.6919 42.9221 43.2972C43.0817 43.9188 43.1494 44.5919 43.1155 45.1347L43.1149 45.1445L43.1128 45.1541C43.0886 45.2672 43.0671 45.3752 43.0465 45.4783C42.9856 45.7837 42.9332 46.0469 42.8431 46.2785C42.7175 46.6015 42.5191 46.8682 42.1385 47.145C41.6361 47.5103 41.1474 47.5303 40.7257 47.4019C40.312 47.276 39.9672 47.0089 39.7337 46.8088C39.5639 46.6633 38.9762 45.9867 39.3648 44.8211C39.4466 44.5758 39.3669 44.2874 39.236 44.0642C39.1763 43.9623 39.111 43.8831 39.0571 43.835C38.9505 44.2642 38.9545 44.5186 38.9598 44.8639C38.9611 44.9452 38.9625 45.0316 38.9625 45.1265C38.9625 45.4041 39.0078 45.5371 39.0454 45.6425C39.047 45.647 39.0487 45.6516 39.0504 45.6563C39.0686 45.7069 39.0891 45.7641 39.0997 45.8279C39.112 45.9013 39.111 45.9793 39.0918 46.0753C39.0625 46.2213 38.9842 46.4178 38.7846 46.4605C38.688 46.4812 38.5857 46.4587 38.483 46.4061C38.3804 46.3536 38.2681 46.2668 38.144 46.1427C37.6306 45.6293 37.578 45.0688 37.578 44.4672C37.578 43.8737 37.6254 43.3061 37.8583 42.8869C38.3305 42.037 38.3369 40.7893 38.1807 39.6143C38.0309 38.4867 37.7362 37.457 37.5973 36.9717C37.5924 36.9544 37.5876 36.9379 37.5831 36.922C37.3213 36.0056 36.2687 33.1324 35.8067 31.9225L35.7939 31.889L35.7998 31.8538C35.8307 31.6688 35.9607 31.4 36.1332 31.1016C36.3093 30.7969 36.541 30.4426 36.7922 30.0797C37.2948 29.3537 37.8801 28.5866 38.2659 28.1015L38.4085 27.9223ZM36.0667 31.8641C36.5345 33.0916 37.5737 35.9291 37.8367 36.8496C37.8413 36.8658 37.8462 36.8829 37.8513 36.9007C37.9905 37.3869 38.2897 38.4324 38.4421 39.5796C38.5992 40.7614 38.6056 42.0849 38.0888 43.015C37.8922 43.369 37.8417 43.8741 37.8417 44.4672C37.8417 45.0523 37.8946 45.5203 38.3305 45.9562C38.4437 46.0694 38.5339 46.136 38.6031 46.1714C38.6721 46.2067 38.7111 46.2066 38.7294 46.2026C38.7599 46.1961 38.8068 46.1553 38.8332 46.0236C38.8469 45.9548 38.8459 45.9092 38.8396 45.8713C38.833 45.8317 38.8203 45.7961 38.8002 45.7398L38.7971 45.7312C38.7523 45.6058 38.6988 45.4422 38.6988 45.1265C38.6988 45.0367 38.6974 44.9533 38.6961 44.8734C38.69 44.4902 38.685 44.1859 38.8354 43.6411L38.8446 43.6075L38.8692 43.5829C38.9326 43.5195 39.0139 43.5224 39.0683 43.5384C39.1211 43.5539 39.1703 43.5861 39.2123 43.6208C39.2983 43.6919 39.3879 43.8019 39.4635 43.9308C39.6128 44.1855 39.731 44.5565 39.615 44.9045C39.2697 45.9404 39.7919 46.5114 39.9053 46.6086C40.1333 46.804 40.4436 47.0404 40.8025 47.1497C41.1534 47.2565 41.5547 47.2435 41.9834 46.9317C42.3281 46.681 42.4922 46.4533 42.5973 46.1829C42.6784 45.9745 42.7245 45.7433 42.7837 45.4469C42.8045 45.3428 42.8269 45.2306 42.8529 45.1086C42.8835 44.5981 42.8193 43.9571 42.6667 43.3628C42.5122 42.761 42.2724 42.2281 41.9677 41.9234L41.9467 41.9024L41.9367 41.8743C41.692 41.1847 41.1913 39.3732 41.1381 37.615C41.1254 37.1958 41 36.5525 40.7996 35.7766C40.6 35.0038 40.3285 34.1092 40.0287 33.1921C39.4636 31.463 38.7993 29.6584 38.3298 28.4462C37.9538 28.9257 37.449 29.5943 37.009 30.2298C36.7598 30.5899 36.5325 30.9377 36.3615 31.2335C36.2007 31.5117 36.0989 31.7288 36.0667 31.8641Z" fill="black"/>
<path d="M38.3032 36.6881C38.0395 35.7651 36.8089 32.9523 36.0618 31.7436C36.3914 32.8644 37.5121 35.5673 37.9736 37.3473C38.1901 38.1822 38.4449 39.4801 38.501 40.3799C38.5647 41.402 38.4084 42.0061 38.3032 42.5554C38.479 42.2478 38.7252 41.4743 38.8306 40.8414C38.9625 40.0503 38.6312 37.8361 38.3032 36.6881Z" fill="#DADADA"/>
<path d="M39.8195 44.3354C39.6613 43.9135 39.2921 43.6322 39.1603 43.6102C39.6218 44.1376 39.5558 44.7309 39.4899 45.2583C39.4372 45.6803 39.4899 46.0494 39.6218 46.3131L40.0832 46.7746C39.9734 46.5988 39.8723 46.2736 39.8195 46.1154C39.7668 45.9572 39.7536 45.8517 39.8195 45.522C39.9294 45.3023 39.9778 44.7573 39.8195 44.3354Z" fill="#DADADA"/>
<defs>
<filter id="filter0_d" x="26.638" y="30.8695" width="2.28028" height="2.31283" filterUnits="userSpaceOnUse" color-interpolation-filters="sRGB">
<feFlood flood-opacity="0" result="BackgroundImageFix"/>
<feColorMatrix in="SourceAlpha" type="matrix" values="0 0 0 0 0 0 0 0 0 0 0 0 0 0 0 0 0 0 127 0"/>
<feOffset dy="0.343478"/>
<feGaussianBlur stdDeviation="0.171739"/>
<feColorMatrix type="matrix" values="0 0 0 0 0 0 0 0 0 0 0 0 0 0 0 0 0 0 0.15 0"/>
<feBlend mode="normal" in2="BackgroundImageFix" result="effect1_dropShadow"/>
<feBlend mode="normal" in="SourceGraphic" in2="effect1_dropShadow" result="shape"/>
</filter>
<filter id="filter1_d" x="26.638" y="30.8695" width="2.28028" height="2.31283" filterUnits="userSpaceOnUse" color-interpolation-filters="sRGB">
<feFlood flood-opacity="0" result="BackgroundImageFix"/>
<feColorMatrix in="SourceAlpha" type="matrix" values="0 0 0 0 0 0 0 0 0 0 0 0 0 0 0 0 0 0 127 0"/>
<feOffset dy="0.343478"/>
<feGaussianBlur stdDeviation="0.171739"/>
<feColorMatrix type="matrix" values="0 0 0 0 0 0 0 0 0 0 0 0 0 0 0 0 0 0 0.15 0"/>
<feBlend mode="normal" in2="BackgroundImageFix" result="effect1_dropShadow"/>
<feBlend mode="normal" in="SourceGraphic" in2="effect1_dropShadow" result="shape"/>
</filter>
<filter id="filter2_d" x="26.7375" y="31.2931" width="2.05746" height="1.97146" filterUnits="userSpaceOnUse" color-interpolation-filters="sRGB">
<feFlood flood-opacity="0" result="BackgroundImageFix"/>
<feColorMatrix in="SourceAlpha" type="matrix" values="0 0 0 0 0 0 0 0 0 0 0 0 0 0 0 0 0 0 127 0"/>
<feOffset dy="0.343478"/>
<feGaussianBlur stdDeviation="0.171739"/>
<feColorMatrix type="matrix" values="0 0 0 0 0 0 0 0 0 0 0 0 0 0 0 0 0 0 0.15 0"/>
<feBlend mode="normal" in2="BackgroundImageFix" result="effect1_dropShadow"/>
<feBlend mode="normal" in="SourceGraphic" in2="effect1_dropShadow" result="shape"/>
</filter>
<filter id="filter3_d" x="26.7375" y="31.2931" width="2.05746" height="1.97146" filterUnits="userSpaceOnUse" color-interpolation-filters="sRGB">
<feFlood flood-opacity="0" result="BackgroundImageFix"/>
<feColorMatrix in="SourceAlpha" type="matrix" values="0 0 0 0 0 0 0 0 0 0 0 0 0 0 0 0 0 0 127 0"/>
<feOffset dy="0.343478"/>
<feGaussianBlur stdDeviation="0.171739"/>
<feColorMatrix type="matrix" values="0 0 0 0 0 0 0 0 0 0 0 0 0 0 0 0 0 0 0.15 0"/>
<feBlend mode="normal" in2="BackgroundImageFix" result="effect1_dropShadow"/>
<feBlend mode="normal" in="SourceGraphic" in2="effect1_dropShadow" result="shape"/>
</filter>
<filter id="filter4_d" x="28.7477" y="30.268" width="2.28028" height="2.31283" filterUnits="userSpaceOnUse" color-interpolation-filters="sRGB">
<feFlood flood-opacity="0" result="BackgroundImageFix"/>
<feColorMatrix in="SourceAlpha" type="matrix" values="0 0 0 0 0 0 0 0 0 0 0 0 0 0 0 0 0 0 127 0"/>
<feOffset dy="0.343478"/>
<feGaussianBlur stdDeviation="0.171739"/>
<feColorMatrix type="matrix" values="0 0 0 0 0 0 0 0 0 0 0 0 0 0 0 0 0 0 0.15 0"/>
<feBlend mode="normal" in2="BackgroundImageFix" result="effect1_dropShadow"/>
<feBlend mode="normal" in="SourceGraphic" in2="effect1_dropShadow" result="shape"/>
</filter>
<filter id="filter5_d" x="28.7477" y="30.268" width="2.28028" height="2.31283" filterUnits="userSpaceOnUse" color-interpolation-filters="sRGB">
<feFlood flood-opacity="0" result="BackgroundImageFix"/>
<feColorMatrix in="SourceAlpha" type="matrix" values="0 0 0 0 0 0 0 0 0 0 0 0 0 0 0 0 0 0 127 0"/>
<feOffset dy="0.343478"/>
<feGaussianBlur stdDeviation="0.171739"/>
<feColorMatrix type="matrix" values="0 0 0 0 0 0 0 0 0 0 0 0 0 0 0 0 0 0 0.15 0"/>
<feBlend mode="normal" in2="BackgroundImageFix" result="effect1_dropShadow"/>
<feBlend mode="normal" in="SourceGraphic" in2="effect1_dropShadow" result="shape"/>
</filter>
<filter id="filter6_d" x="28.8471" y="30.6916" width="2.05746" height="1.97146" filterUnits="userSpaceOnUse" color-interpolation-filters="sRGB">
<feFlood flood-opacity="0" result="BackgroundImageFix"/>
<feColorMatrix in="SourceAlpha" type="matrix" values="0 0 0 0 0 0 0 0 0 0 0 0 0 0 0 0 0 0 127 0"/>
<feOffset dy="0.343478"/>
<feGaussianBlur stdDeviation="0.171739"/>
<feColorMatrix type="matrix" values="0 0 0 0 0 0 0 0 0 0 0 0 0 0 0 0 0 0 0.15 0"/>
<feBlend mode="normal" in2="BackgroundImageFix" result="effect1_dropShadow"/>
<feBlend mode="normal" in="SourceGraphic" in2="effect1_dropShadow" result="shape"/>
</filter>
<filter id="filter7_d" x="28.8471" y="30.6916" width="2.05746" height="1.97146" filterUnits="userSpaceOnUse" color-interpolation-filters="sRGB">
<feFlood flood-opacity="0" result="BackgroundImageFix"/>
<feColorMatrix in="SourceAlpha" type="matrix" values="0 0 0 0 0 0 0 0 0 0 0 0 0 0 0 0 0 0 127 0"/>
<feOffset dy="0.343478"/>
<feGaussianBlur stdDeviation="0.171739"/>
<feColorMatrix type="matrix" values="0 0 0 0 0 0 0 0 0 0 0 0 0 0 0 0 0 0 0.15 0"/>
<feBlend mode="normal" in2="BackgroundImageFix" result="effect1_dropShadow"/>
<feBlend mode="normal" in="SourceGraphic" in2="effect1_dropShadow" result="shape"/>
</filter>
<filter id="filter8_d" x="30.8572" y="30.8695" width="2.28028" height="2.31283" filterUnits="userSpaceOnUse" color-interpolation-filters="sRGB">
<feFlood flood-opacity="0" result="BackgroundImageFix"/>
<feColorMatrix in="SourceAlpha" type="matrix" values="0 0 0 0 0 0 0 0 0 0 0 0 0 0 0 0 0 0 127 0"/>
<feOffset dy="0.343478"/>
<feGaussianBlur stdDeviation="0.171739"/>
<feColorMatrix type="matrix" values="0 0 0 0 0 0 0 0 0 0 0 0 0 0 0 0 0 0 0.15 0"/>
<feBlend mode="normal" in2="BackgroundImageFix" result="effect1_dropShadow"/>
<feBlend mode="normal" in="SourceGraphic" in2="effect1_dropShadow" result="shape"/>
</filter>
<filter id="filter9_d" x="30.8572" y="30.8695" width="2.28028" height="2.31283" filterUnits="userSpaceOnUse" color-interpolation-filters="sRGB">
<feFlood flood-opacity="0" result="BackgroundImageFix"/>
<feColorMatrix in="SourceAlpha" type="matrix" values="0 0 0 0 0 0 0 0 0 0 0 0 0 0 0 0 0 0 127 0"/>
<feOffset dy="0.343478"/>
<feGaussianBlur stdDeviation="0.171739"/>
<feColorMatrix type="matrix" values="0 0 0 0 0 0 0 0 0 0 0 0 0 0 0 0 0 0 0.15 0"/>
<feBlend mode="normal" in2="BackgroundImageFix" result="effect1_dropShadow"/>
<feBlend mode="normal" in="SourceGraphic" in2="effect1_dropShadow" result="shape"/>
</filter>
<filter id="filter10_d" x="30.9567" y="31.2931" width="2.05746" height="1.97146" filterUnits="userSpaceOnUse" color-interpolation-filters="sRGB">
<feFlood flood-opacity="0" result="BackgroundImageFix"/>
<feColorMatrix in="SourceAlpha" type="matrix" values="0 0 0 0 0 0 0 0 0 0 0 0 0 0 0 0 0 0 127 0"/>
<feOffset dy="0.343478"/>
<feGaussianBlur stdDeviation="0.171739"/>
<feColorMatrix type="matrix" values="0 0 0 0 0 0 0 0 0 0 0 0 0 0 0 0 0 0 0.15 0"/>
<feBlend mode="normal" in2="BackgroundImageFix" result="effect1_dropShadow"/>
<feBlend mode="normal" in="SourceGraphic" in2="effect1_dropShadow" result="shape"/>
</filter>
<filter id="filter11_d" x="30.9567" y="31.2931" width="2.05746" height="1.97146" filterUnits="userSpaceOnUse" color-interpolation-filters="sRGB">
<feFlood flood-opacity="0" result="BackgroundImageFix"/>
<feColorMatrix in="SourceAlpha" type="matrix" values="0 0 0 0 0 0 0 0 0 0 0 0 0 0 0 0 0 0 127 0"/>
<feOffset dy="0.343478"/>
<feGaussianBlur stdDeviation="0.171739"/>
<feColorMatrix type="matrix" values="0 0 0 0 0 0 0 0 0 0 0 0 0 0 0 0 0 0 0.15 0"/>
<feBlend mode="normal" in2="BackgroundImageFix" result="effect1_dropShadow"/>
<feBlend mode="normal" in="SourceGraphic" in2="effect1_dropShadow" result="shape"/>
</filter>
<clipPath id="clip0">
<rect width="2.10962" height="2.16551" fill="white" transform="translate(26.7126 30.5324)"/>
</clipPath>
<clipPath id="clip1">
<rect width="2.10962" height="2.16551" fill="white" transform="translate(28.8223 29.9309)"/>
</clipPath>
<clipPath id="clip2">
<rect width="2.10962" height="2.16551" fill="white" transform="translate(30.9319 30.5324)"/>
</clipPath>
</defs>
</svg>
