<svg width="56" height="56" viewBox="0 0 56 56" fill="none" xmlns="http://www.w3.org/2000/svg">
<rect width="56" height="56" rx="4" fill="#F7F3F8"/>
<path d="M25.119 22.7873L25.9026 18.9565C28.3404 20.6543 29.9511 20.6978 31.9535 20.1754L32.6065 22.8744C32.65 23.8031 32.0406 25.6169 29.2545 25.4428C26.4685 25.2687 25.3367 23.5999 25.119 22.7873Z" fill="white"/>
<path fill-rule="evenodd" clip-rule="evenodd" d="M25.8537 18.8341C25.8948 18.8176 25.9416 18.823 25.978 18.8483C27.1862 19.6898 28.1801 20.1147 29.1128 20.2684C30.0451 20.4221 30.9283 20.3066 31.9203 20.0478C31.9545 20.0389 31.9909 20.0441 32.0212 20.0623C32.0516 20.0804 32.0734 20.11 32.0817 20.1444L32.7347 22.8434C32.7366 22.8515 32.7378 22.8599 32.7382 22.8682C32.7613 23.36 32.6124 24.082 32.0894 24.6606C31.5619 25.2442 30.6705 25.6634 29.2463 25.5744C26.4034 25.3967 25.2239 23.6884 24.9917 22.8214C24.9864 22.8017 24.9858 22.781 24.9899 22.7609L25.7734 18.9301C25.7823 18.8866 25.8125 18.8506 25.8537 18.8341ZM25.9919 19.1778L25.2546 22.7826C25.4774 23.5527 26.5684 25.1428 29.2628 25.3112C30.6246 25.3963 31.431 24.9957 31.8938 24.4837C32.3568 23.9716 32.4927 23.3296 32.4753 22.8929L31.8568 20.3363C30.8967 20.5768 30.0106 20.6836 29.0699 20.5286C28.1313 20.374 27.1494 19.9605 25.9919 19.1778Z" fill="black"/>
<path d="M30.2488 23.6366C28.2184 23.9516 26.5924 20.7058 26.0332 19.0436C28.7328 20.8737 30.2799 20.5335 31.865 20.185L31.8835 20.1809C32.1702 21.187 32.2792 23.3217 30.2488 23.6366Z" fill="#DADADA"/>
<path d="M24.5096 4.98284C22.3852 6.58481 22.7392 9.87143 23.2036 11.3225C23.0018 11.367 22.7941 11.4649 22.5941 11.6432C22.0393 12.138 21.7235 13.7327 22.8988 14.4728C23.0929 14.595 23.4215 14.6984 23.7695 14.7107C24.0017 15.7264 24.8143 18.173 26.0332 19.0436C27.5568 20.1319 29.9075 21.2202 33.2159 19.6966C36.5244 18.173 37.0467 14.9952 36.3067 10.6855C35.5667 6.37586 33.6513 4.19926 31.6053 3.50275C29.5593 2.80624 27.165 2.98037 24.5096 4.98284Z" fill="white"/>
<path fill-rule="evenodd" clip-rule="evenodd" d="M31.5628 3.62756C29.5607 2.94599 27.2117 3.11029 24.589 5.08811C23.5669 5.85883 23.134 7.03966 23.017 8.22223C22.9059 9.346 23.0823 10.4549 23.2954 11.1726C23.6014 11.1325 23.8857 11.1965 24.1068 11.2798C24.3566 11.3739 24.5355 11.4964 24.5905 11.5391C24.648 11.5838 24.6584 11.6667 24.6137 11.7242C24.5689 11.7816 24.4861 11.792 24.4286 11.7473C24.3911 11.7181 24.235 11.6099 24.0138 11.5266C23.7928 11.4433 23.5167 11.3884 23.232 11.4512C23.0524 11.4909 22.8651 11.5783 22.6819 11.7416C22.4396 11.9576 22.2308 12.4399 22.2295 12.9663C22.2282 13.4846 22.4281 14.0206 22.9691 14.3612C23.1404 14.469 23.4454 14.5673 23.7741 14.5789C24.1451 14.5919 24.5164 14.4943 24.7577 14.2128C24.8051 14.1576 24.8883 14.1512 24.9436 14.1985C24.9989 14.2459 25.0053 14.3292 24.9579 14.3845C24.6875 14.6999 24.3038 14.823 23.9366 14.8413C24.0652 15.3523 24.3089 16.1222 24.6514 16.8771C25.0341 17.7206 25.5302 18.5223 26.1098 18.9363C26.8628 19.4742 27.8133 20.007 28.979 20.2199C30.1425 20.4324 31.5299 20.3279 33.1608 19.5768C34.7807 18.8309 35.7123 17.6854 36.1531 16.1984C36.5962 14.7035 36.5455 12.8554 36.1768 10.7078C35.4415 6.42606 33.5468 4.30298 31.5628 3.62756ZM23.6637 14.8365C23.7909 15.3603 24.046 16.181 24.4113 16.986C24.7976 17.8375 25.3173 18.6943 25.9566 19.1509C26.7272 19.7014 27.7139 20.2569 28.9316 20.4793C30.1514 20.7021 31.5936 20.5889 33.2711 19.8164C34.9597 19.0387 35.9434 17.8335 36.4059 16.2733C36.8661 14.7209 36.8079 12.8253 36.4367 10.6632C35.6918 6.32564 33.7557 4.09554 31.6478 3.37793C29.5579 2.66648 27.1183 2.85044 24.4302 4.87756C23.3279 5.70881 22.8757 6.97227 22.7546 8.19627C22.6405 9.35028 22.8186 10.4854 23.0378 11.2315C22.8587 11.2909 22.6789 11.391 22.5064 11.5448C22.1938 11.8235 21.9673 12.386 21.9658 12.9657C21.9644 13.5535 22.1943 14.185 22.8286 14.5844C23.0255 14.7084 23.3338 14.8092 23.6637 14.8365Z" fill="black"/>
<path d="M25.0654 22.8131C23.3514 22.8351 20.12 22.2652 18.2751 24.9887C16.8906 27.0324 13.5944 31.779 13.6603 36.0642C14.9568 36.5476 17.8136 37.8969 18.8684 39.4264C18.8684 39.5363 18.7629 39.8615 18.341 40.2834C17.9191 40.7053 18.6926 43.316 19.1321 44.5686C19.6595 45.4256 21.8614 46.7573 27.5047 47.6012C33.1479 48.445 36.1409 45.2278 37.3935 43.4478C37.3935 41.4042 36.8724 35.0299 35.2839 30.7242L35.9432 32.4383C35.7322 31.8054 37.4814 29.4936 38.3824 28.4168C38.4879 27.5202 36.976 24.9667 36.2069 23.802C35.0993 22.6417 33.7456 22.6593 32.6469 23.0109C32.3304 25.1205 30.4493 25.56 29.5484 25.5161C26.5422 25.4106 25.3071 23.6701 25.0654 22.8131Z" fill="#FF8B00"/>
<path fill-rule="evenodd" clip-rule="evenodd" d="M24.2634 22.666C24.5581 22.6756 24.8282 22.6843 25.0637 22.6813L25.1649 22.68L25.1923 22.7774C25.4182 23.5782 26.603 25.2808 29.553 25.3843L29.5548 25.3844L29.5548 25.3844C29.9844 25.4054 30.6533 25.3103 31.2497 24.9576C31.8407 24.6081 32.3646 24.004 32.5165 22.9914L32.5286 22.9103L32.6067 22.8854C33.7338 22.5247 35.1475 22.5013 36.3022 23.711L36.3104 23.7195L36.3169 23.7294C36.7033 24.3146 37.2762 25.2483 37.7399 26.1497C37.9716 26.6002 38.1775 27.0454 38.3191 27.4364C38.4585 27.8214 38.5437 28.1748 38.5134 28.4322L38.5088 28.4713L38.4835 28.5015C38.0351 29.0374 37.3758 29.8805 36.8558 30.6668C36.5955 31.0603 36.3727 31.4358 36.2284 31.7495C36.1562 31.9065 36.1055 32.044 36.0789 32.158C36.0515 32.275 36.0533 32.3518 36.0683 32.3966L35.97 32.4319C37.129 36.5732 37.5254 41.6597 37.5254 43.4479V43.4896L37.5014 43.5238C36.235 45.3234 33.199 48.586 27.4852 47.7316C24.6569 47.3087 22.6844 46.7626 21.3497 46.2118C20.0205 45.6632 19.3059 45.1026 19.0198 44.6377L19.0124 44.6257L19.0077 44.6123C18.7869 43.9831 18.482 43.0122 18.2849 42.1437C18.1866 41.7101 18.1139 41.2971 18.0932 40.963C18.0829 40.7962 18.0851 40.644 18.1057 40.5164C18.1256 40.3923 18.1658 40.2722 18.2478 40.1902C18.4508 39.9873 18.5744 39.8107 18.6467 39.6757C18.7001 39.5759 18.7231 39.5033 18.7319 39.4614C18.2152 38.7361 17.2751 38.0433 16.2885 37.4669C15.2877 36.8822 14.2563 36.4272 13.6142 36.1878L13.5298 36.1563L13.5285 36.0662C13.495 33.8923 14.3135 31.6117 15.3059 29.6269C16.2493 27.7401 17.3567 26.1077 18.0581 25.0738C18.0952 25.0191 18.1312 24.9661 18.1659 24.9148C19.1145 23.5145 20.4213 22.9623 21.6985 22.7577C22.6059 22.6123 23.5144 22.6417 24.2634 22.666ZM18.998 39.4654C18.9889 39.5498 18.9512 39.6656 18.8792 39.8002C18.7932 39.9607 18.6532 40.1578 18.4342 40.3767C18.4107 40.4002 18.3828 40.454 18.366 40.5583C18.3498 40.6591 18.3467 40.7899 18.3564 40.9467C18.3758 41.26 18.4449 41.657 18.5421 42.0854C18.7348 42.9346 19.0334 43.8876 19.2517 44.5113C19.4988 44.9024 20.1489 45.4309 21.4503 45.968C22.7591 46.5082 24.7093 47.0499 27.5242 47.4708C33.061 48.2988 36.0089 45.173 37.2616 43.4061C37.2546 41.3262 36.7305 35.0261 35.1602 30.7699L35.407 30.6769L35.4076 30.6786L35.8795 31.9054C35.9094 31.8207 35.9463 31.7316 35.9888 31.6393C36.1413 31.3078 36.3726 30.9194 36.6358 30.5213C37.1527 29.7397 37.803 28.9061 38.2547 28.3641C38.2655 28.1723 38.2009 27.8846 38.0712 27.5262C37.9349 27.1499 37.7346 26.7158 37.5054 26.2703C37.0498 25.3846 36.486 24.4648 36.1034 23.8846C35.0699 22.8087 33.8164 22.7949 32.7641 23.1126C32.5837 24.1611 32.0214 24.8076 31.3839 25.1846C30.7359 25.5678 30.0143 25.6707 29.5429 25.6478C26.5859 25.5438 25.2861 23.8819 24.9686 22.9457C24.7398 22.9459 24.4907 22.9378 24.2261 22.9292C23.4845 22.905 22.6211 22.8769 21.7402 23.0181C20.5904 23.2023 19.4378 23.6738 18.5599 24.8189C19.2963 24.7365 20.2764 24.7227 21.2245 25.028C22.3168 25.3798 23.3608 26.154 23.9365 27.7119L23.6892 27.8033C23.1442 26.3286 22.1665 25.6085 21.1436 25.279C20.1403 24.9559 19.0883 25.0075 18.3515 25.1109C18.3273 25.1466 18.3026 25.1831 18.2773 25.2203C17.5758 26.2545 16.4771 27.8741 15.5417 29.7449C14.5702 31.6879 13.7822 33.8879 13.7912 35.9727C14.449 36.2239 15.449 36.6711 16.4215 37.2392C17.3614 37.7883 18.2907 38.4589 18.8545 39.1846C19.7297 37.647 20.9761 35.3807 21.9942 33.3612C22.5233 32.3119 22.9896 31.3314 23.3103 30.5552C23.4707 30.1669 23.5934 29.8325 23.6694 29.5677C23.7074 29.4353 23.733 29.3228 23.746 29.2312C23.7594 29.1374 23.7582 29.0752 23.7501 29.0388L24.0075 28.9816C24.0258 29.0638 24.0222 29.1628 24.0071 29.2684C23.9918 29.3762 23.9628 29.5013 23.9229 29.6405C23.843 29.9189 23.7161 30.2636 23.554 30.6559C23.2296 31.4411 22.7598 32.4285 22.2297 33.48C21.1752 35.5715 19.8775 37.9253 18.998 39.4654Z" fill="black"/>
<path d="M20.7134 42.6213C19.7113 42.3049 19.1092 40.3798 18.9334 39.4569C18.8279 39.826 18.406 40.204 18.2082 40.4457C18.1555 41.1841 18.7796 43.5662 19.1312 44.5991C19.2882 45.2271 21.9 46.5109 24.2734 46.9724C26.383 47.3826 28.5327 48.0466 31.1296 47.5657C34.6896 46.9065 36.7333 44.5331 37.3926 43.4124L37.3267 41.4346C35.8543 42.2257 32.1845 43.9398 29.2837 44.4672C25.6578 45.1265 21.966 43.0169 20.7134 42.6213Z" fill="#740687" fill-opacity="0.8"/>
<path fill-rule="evenodd" clip-rule="evenodd" d="M18.3376 40.4965C18.3321 40.6663 18.3588 40.9237 18.4108 41.2395C18.4668 41.5787 18.5501 41.9748 18.6464 42.3815C18.839 43.1954 19.0818 44.0449 19.256 44.5565L19.2577 44.5617L19.2591 44.567C19.2705 44.6128 19.3101 44.6815 19.3956 44.7717C19.4787 44.8594 19.5955 44.9573 19.7435 45.0624C20.039 45.2722 20.447 45.5023 20.9274 45.7289C21.888 46.1819 23.1239 46.6145 24.2985 46.8429C24.6508 46.9114 25.0029 46.9865 25.3568 47.0621C27.1378 47.4422 28.9655 47.8323 31.1056 47.436C34.5838 46.7919 36.5936 44.4888 37.2595 43.3782L37.2019 41.65C35.6203 42.4793 32.1122 44.0869 29.3073 44.5969C27.4635 44.9321 25.6099 44.5626 24.0681 44.0652C23.2963 43.8163 22.6 43.5344 22.02 43.2908C21.8994 43.2402 21.7843 43.1914 21.6749 43.145C21.2536 42.9665 20.9162 42.8235 20.6737 42.747C20.3906 42.6576 20.1454 42.458 19.9361 42.2076C19.7263 41.9566 19.5459 41.6466 19.3941 41.3224C19.1619 40.8262 18.9918 40.2863 18.8847 39.8498C18.8293 39.9323 18.7676 40.0109 18.7064 40.0838C18.6326 40.1718 18.5561 40.2553 18.4873 40.3303L18.4834 40.3344C18.428 40.3948 18.3787 40.4486 18.3376 40.4965ZM18.5044 39.9143C18.646 39.7456 18.762 39.5767 18.8066 39.4206L19.0629 39.4321C19.1493 39.8856 19.3409 40.5866 19.633 41.2106C19.7789 41.5225 19.948 41.8108 20.1384 42.0385C20.3294 42.267 20.5352 42.4267 20.7531 42.4955C21.0088 42.5762 21.3624 42.7261 21.7856 42.9055C21.8934 42.9512 22.0058 42.9988 22.1221 43.0477C22.6999 43.2903 23.388 43.5688 24.1491 43.8143C25.6728 44.3058 27.478 44.6614 29.2602 44.3374C32.1401 43.8138 35.7953 42.1077 37.2643 41.3184L37.4514 41.2179L37.5256 43.4462L37.5062 43.4792C36.8333 44.6232 34.761 47.0273 31.1536 47.6953C28.9573 48.102 27.072 47.6989 25.2897 47.3178C24.9391 47.2428 24.5924 47.1687 24.2482 47.1018C23.0495 46.8687 21.7928 46.4286 20.8149 45.9674C20.3261 45.7368 19.9033 45.4993 19.5908 45.2774C19.4347 45.1665 19.3031 45.0575 19.2041 44.9531C19.1091 44.8527 19.0337 44.746 19.0047 44.6368C18.8274 44.1151 18.5833 43.2598 18.3898 42.4423C18.2927 42.0321 18.2079 41.6297 18.1506 41.2823C18.094 40.9384 18.0623 40.6377 18.0767 40.4363L18.0797 40.3946L18.1062 40.3622C18.1567 40.3004 18.2203 40.2311 18.2859 40.1597C18.2883 40.1571 18.2906 40.1545 18.293 40.152C18.3622 40.0766 18.4349 39.9972 18.5044 39.9143Z" fill="black"/>
<path d="M20.0541 37.3472L18.9333 39.4568C19.0652 40.2699 19.6231 42.1091 20.3837 42.4894C21.1748 42.885 22.8889 43.5222 23.7459 43.8079C27.9652 45.4561 30.4703 44.2035 31.7889 43.8079C33.1074 43.4124 37.2607 41.6983 37.3266 41.4346C37.3794 41.2236 37.1288 39.303 36.997 38.3361C34.8874 39.0393 30.3517 40.4853 29.0859 40.6435C27.5037 40.8413 23.6141 40.2479 22.5593 39.7864C21.7154 39.4173 20.5375 38.0065 20.0541 37.3472Z" fill="#004CFF" fill-opacity="0.8"/>
<path fill-rule="evenodd" clip-rule="evenodd" d="M20.0362 37.0998L20.1605 37.2692C20.3993 37.5949 20.811 38.1079 21.2668 38.5844C21.7267 39.0651 22.2165 39.4925 22.6122 39.6656C23.1208 39.8882 24.34 40.1501 25.643 40.3316C26.9443 40.5128 28.2972 40.6092 29.0696 40.5126C29.6889 40.4352 31.1271 40.0383 32.687 39.5679C34.2413 39.0992 35.9014 38.5623 36.9553 38.211L37.1062 38.1607L37.1277 38.3182C37.1936 38.802 37.2894 39.5249 37.362 40.1536C37.3984 40.4679 37.4291 40.7597 37.4474 40.9868C37.4565 41.1002 37.4627 41.1989 37.4648 41.2769C37.4668 41.3482 37.4663 41.4197 37.4546 41.4665C37.4447 41.506 37.4215 41.5351 37.407 41.5514C37.3902 41.5701 37.3702 41.5877 37.3498 41.6038C37.3088 41.6362 37.2545 41.6717 37.1913 41.7093C37.0641 41.785 36.8874 41.8771 36.6767 41.9796C36.2544 42.185 35.6854 42.4374 35.0787 42.6933C33.8669 43.2044 32.4934 43.7342 31.8268 43.9342C31.6802 43.9782 31.5162 44.0339 31.3346 44.0956C30.7189 44.3048 29.9007 44.5829 28.8708 44.7052C27.5314 44.8642 25.8295 44.7628 23.7011 43.9319C22.842 43.6454 21.1237 43.0068 20.3248 42.6073C20.1051 42.4975 19.9121 42.2896 19.7456 42.0433C19.5775 41.7948 19.4284 41.495 19.3009 41.1856C19.046 40.5672 18.8708 39.8944 18.8032 39.4779L18.7961 39.4341L20.0362 37.0998ZM20.0732 37.5924L19.0708 39.4791C19.1401 39.8789 19.3064 40.507 19.5447 41.0851C19.6682 41.3847 19.8094 41.6669 19.964 41.8956C20.1201 42.1265 20.2821 42.2911 20.4427 42.3714C21.225 42.7626 22.9316 43.3975 23.7877 43.6828L23.7908 43.6839L23.7939 43.6851C25.8833 44.5012 27.5426 44.5974 28.8397 44.4433C29.8387 44.3247 30.6203 44.0593 31.2347 43.8507C31.4218 43.7871 31.5935 43.7289 31.751 43.6816C32.403 43.486 33.7653 42.961 34.9763 42.4503C35.581 42.1952 36.1451 41.9449 36.5613 41.7425C36.7698 41.641 36.9387 41.5528 37.0564 41.4827C37.1157 41.4475 37.1586 41.4188 37.1864 41.3968C37.1922 41.3922 37.1969 41.3883 37.2006 41.3851C37.2008 41.381 37.2011 41.3761 37.2013 41.3704C37.2022 41.3485 37.2022 41.3198 37.2012 41.2842C37.1993 41.2129 37.1935 41.1194 37.1845 41.008C37.1666 40.7854 37.1363 40.4971 37.1001 40.1839C37.0352 39.6227 36.9518 38.9854 36.8878 38.5114C35.8288 38.8628 34.2481 39.3725 32.7631 39.8204C31.2113 40.2883 29.7488 40.6935 29.1023 40.7743C28.2925 40.8755 26.9095 40.7742 25.6067 40.5927C24.3056 40.4116 23.0526 40.1461 22.5065 39.9072C22.0583 39.7111 21.5372 39.2485 21.0763 38.7667C20.6832 38.3558 20.3229 37.9191 20.0732 37.5924Z" fill="black"/>
<path d="M23.8748 29.623C23.8961 29.491 23.9191 29.3627 23.9438 29.2383C23.9771 29.2716 23.9504 29.4064 23.8748 29.623C23.3827 32.6632 23.746 37.6163 23.746 39.259C23.746 40.9731 21.5705 46.1153 21.5705 46.1153C20.9771 45.9615 19.685 45.456 19.2631 44.6649C18.7357 43.676 18.0105 41.1049 18.2082 40.4457C18.4939 40.138 18.9862 39.5491 18.9334 39.3909C20.4885 36.5303 23.3517 31.1205 23.8748 29.623Z" fill="#160E1B" fill-opacity="0.4"/>
<path d="M27.9653 26.4694C26.5717 25.956 25.2404 23.9862 24.9987 22.7776C25.5261 23.9643 27.1928 25.6218 29.6794 25.5465C31.8549 25.4806 32.646 23.8983 32.646 23.1072C33.0416 23.305 32.3866 25.5366 31.7231 26.1398C30.9979 26.7991 29.2179 26.9309 27.9653 26.4694Z" fill="#160E1B" fill-opacity="0.4"/>
<path d="M21.5705 34.4464L20.1201 37.2812C20.6036 37.9845 21.5705 39.259 22.6253 39.8523C25.1305 40.5116 26.9764 40.6435 28.6905 40.6435C30.4045 40.6435 36.9971 38.402 36.9971 38.2042C36.9971 38.0064 36.3378 34.4464 36.3378 34.4464C36.3378 34.4464 31.6571 35.6111 29.5475 35.9627C27.7016 36.2704 24.2734 36.0287 23.812 35.9627C23.4428 35.91 22.1638 34.9299 21.5705 34.4464Z" fill="#008126" fill-opacity="0.8"/>
<path fill-rule="evenodd" clip-rule="evenodd" d="M21.5274 34.2413L21.6538 34.3443C21.9489 34.5847 22.4145 34.9487 22.8515 35.2586C23.0702 35.4136 23.2798 35.5538 23.4564 35.658C23.5447 35.7101 23.6231 35.7522 23.689 35.7825C23.757 35.8137 23.8035 35.8284 23.8306 35.8322C24.0535 35.8641 25.0198 35.9409 26.164 35.971C27.3086 36.0012 28.6163 35.9843 29.5258 35.8327C30.5758 35.6577 32.2694 35.2796 33.7037 34.9444C34.4202 34.7769 35.0708 34.6204 35.5424 34.5058C35.7781 34.4485 35.9691 34.4017 36.101 34.3692C36.167 34.3529 36.2183 34.3402 36.253 34.3316L36.3059 34.3185C36.306 34.3185 36.306 34.3185 36.3378 34.4465C36.4675 34.4225 36.4675 34.4225 36.4675 34.4225L36.4958 34.5759C36.5138 34.6737 36.5396 34.8135 36.5705 34.982C36.6323 35.3189 36.7148 35.7703 36.7972 36.2278C36.8796 36.6853 36.9621 37.1493 37.024 37.5114C37.055 37.6924 37.0809 37.8485 37.099 37.9658C37.1081 38.0244 37.1154 38.0739 37.1204 38.1123C37.125 38.1474 37.1289 38.1817 37.1289 38.2042C37.1289 38.251 37.1061 38.2834 37.0963 38.2961C37.0843 38.3114 37.0708 38.3233 37.0606 38.3315C37.0396 38.3483 37.0137 38.3643 36.9871 38.3793C36.9326 38.4097 36.8563 38.446 36.7632 38.4866C36.5762 38.5684 36.3092 38.6732 35.9859 38.7925C35.3386 39.0313 34.4589 39.3308 33.5261 39.6238C32.5933 39.9168 31.6058 40.204 30.7432 40.4181C29.8855 40.631 29.1373 40.7753 28.6904 40.7753C26.9674 40.7753 25.1099 40.6426 22.5917 39.9799L22.5754 39.9756L22.5606 39.9673C21.4763 39.3574 20.4945 38.0586 20.0115 37.356L19.9669 37.2912L21.5274 34.2413ZM36.3378 34.4465L36.4675 34.4225L36.442 34.2847L36.3059 34.3185L36.3378 34.4465ZM36.2336 34.6081C36.2127 34.6133 36.1895 34.619 36.1641 34.6252C36.0319 34.6578 35.8407 34.7047 35.6046 34.7621C35.1326 34.8768 34.4812 35.0335 33.7638 35.2012C32.3303 35.5362 30.6288 35.9162 29.5692 36.0928C28.6328 36.2489 27.3034 36.2649 26.1571 36.2347C25.0104 36.2044 24.0318 36.1274 23.7933 36.0933C23.7281 36.084 23.6539 36.0565 23.579 36.0221C23.5019 35.9868 23.4152 35.9399 23.3224 35.8851C23.1368 35.7756 22.9204 35.6307 22.699 35.4737C22.3144 35.201 21.9092 34.8879 21.6139 34.6511L20.2734 37.2711C20.7672 37.9811 21.6862 39.1663 22.6753 39.7292C25.1591 40.3813 26.9891 40.5116 28.6904 40.5116C29.1006 40.5116 29.8193 40.3758 30.6797 40.1622C31.5353 39.9498 32.5174 39.6643 33.447 39.3722C34.3766 39.0802 35.2521 38.7822 35.8946 38.5451C36.2161 38.4265 36.4775 38.3237 36.6577 38.245C36.7483 38.2054 36.8152 38.1733 36.8582 38.1492C36.8585 38.149 36.8589 38.1488 36.8592 38.1486C36.8591 38.1479 36.859 38.1472 36.8589 38.1465C36.8543 38.1111 36.8474 38.0639 36.8385 38.0062C36.8206 37.8909 36.795 37.7364 36.7641 37.5559C36.7024 37.1949 36.6201 36.7318 36.5377 36.2746C36.4553 35.8174 36.3729 35.3664 36.3111 35.0296C36.2803 34.8612 36.2545 34.7214 36.2365 34.6237L36.2336 34.6081Z" fill="black"/>
<path d="M23.2186 31.0843L21.5704 34.4465C22.2517 34.9739 23.4164 35.8969 23.8119 35.9628C24.5923 36.0928 26.9763 36.1606 29.2178 36.0287C30.968 35.9258 34.6896 34.886 36.3378 34.4465C36.1796 33.4444 35.6126 31.6556 35.3489 30.9524C34.6237 31.8754 25.526 32.1391 24.8667 32.0072C24.3393 31.9018 23.5482 31.348 23.2186 31.0843Z" fill="#FFED00" fill-opacity="0.8"/>
<path fill-rule="evenodd" clip-rule="evenodd" d="M35.3901 30.6866L35.4724 30.9061C35.7372 31.6122 36.3078 33.4108 36.4681 34.4259L36.4866 34.5433L36.3718 34.5739C36.2168 34.6152 36.0433 34.6619 35.8546 34.7127C35.0419 34.9314 33.9486 35.2256 32.8471 35.492C31.4929 35.8195 30.1141 36.1081 29.2256 36.1603C26.9817 36.2923 24.5856 36.2254 23.7903 36.0928C23.6642 36.0718 23.498 35.9892 23.3234 35.8856C23.1432 35.7788 22.9357 35.6383 22.7216 35.4849C22.355 35.2224 21.9623 34.9175 21.6439 34.6703C21.5903 34.6287 21.5387 34.5886 21.4898 34.5507L21.4048 34.485L23.1726 30.8786L23.301 30.9813C23.4619 31.11 23.7374 31.311 24.0368 31.4923C24.3397 31.6757 24.6528 31.83 24.8926 31.8779C24.9603 31.8915 25.1605 31.9021 25.4782 31.9058C25.7896 31.9094 26.2003 31.9063 26.6779 31.896C27.633 31.8755 28.8527 31.8261 30.0743 31.7438C31.2965 31.6615 32.5178 31.5465 33.4773 31.3949C33.9575 31.3191 34.3684 31.2347 34.6797 31.1418C34.8354 31.0953 34.963 31.0477 35.0606 30.9996C35.1606 30.9503 35.2179 30.9058 35.2453 30.871L35.3901 30.6866ZM25.4752 32.1695C25.1663 32.1659 24.938 32.156 24.8409 32.1365C24.5533 32.079 24.2072 31.9037 23.9002 31.7179C23.6592 31.572 23.4336 31.4141 23.2658 31.2876L21.7361 34.4081C21.7591 34.4259 21.7826 34.4441 21.8064 34.4626C22.125 34.71 22.5131 35.0113 22.8751 35.2705C23.0867 35.422 23.2872 35.5576 23.4579 35.6588C23.6342 35.7633 23.7619 35.8208 23.8336 35.8327C24.599 35.9603 26.9711 36.0288 29.2101 35.8971C30.0718 35.8464 31.4289 35.5636 32.7851 35.2356C33.8829 34.9702 34.9721 34.6771 35.7848 34.4584C35.9283 34.4198 36.0631 34.3835 36.1879 34.3501C36.0227 33.422 35.5588 31.9291 35.2894 31.1739C35.2544 31.196 35.2167 31.2166 35.1773 31.2361C35.0616 31.2931 34.9188 31.3457 34.7551 31.3945C34.4275 31.4922 34.0035 31.5788 33.5185 31.6554C32.5476 31.8087 31.3173 31.9244 30.092 32.0069C28.8661 32.0895 27.6424 32.139 26.6836 32.1597C26.2042 32.17 25.7904 32.1731 25.4752 32.1695Z" fill="black"/>
<path d="M34.426 26.1398C34.426 24.7686 33.3712 23.5028 32.7778 23.0413C33.8326 22.6458 35.2024 22.8244 35.9423 23.6347C37.3267 25.1509 38.3815 27.5902 38.3815 28.3813C36.7993 30.069 36.0961 31.6776 35.9423 32.2709L35.3489 30.8865C35.0413 29.8756 34.426 27.5111 34.426 26.1398Z" fill="#E50202" fill-opacity="0.8"/>
<path fill-rule="evenodd" clip-rule="evenodd" d="M33.0426 23.0926C33.3234 23.3477 33.6553 23.726 33.9365 24.18C34.282 24.7379 34.5578 25.4213 34.5578 26.1398C34.5578 26.8106 34.709 27.733 34.9009 28.6204C35.0915 29.5014 35.3201 30.3381 35.4729 30.8412L35.9249 31.8958C36.206 31.1385 36.9157 29.7635 38.2481 28.3309C38.2382 28.1535 38.1786 27.8887 38.0699 27.5606C37.9515 27.2035 37.7788 26.7824 37.5624 26.3376C37.1293 25.4468 36.5261 24.4696 35.8449 23.7235C35.1993 23.0165 34.0232 22.811 33.0426 23.0926ZM32.7315 22.9179C33.8227 22.5086 35.2543 22.6856 36.0396 23.5457C36.7428 24.316 37.3592 25.3165 37.7996 26.2223C38.02 26.6756 38.1975 27.1075 38.3202 27.4776C38.4416 27.8441 38.5133 28.1615 38.5133 28.3813V28.4334L38.4777 28.4715C36.9085 30.1452 36.2175 31.7347 36.0699 32.304L35.973 32.6775L35.2249 30.9318L35.2228 30.9249C35.068 30.4163 34.8363 29.569 34.6432 28.6762C34.4506 27.7858 34.2941 26.8403 34.2941 26.1398C34.2941 25.487 34.0424 24.8519 33.7123 24.3188C33.3822 23.7858 32.9804 23.366 32.6968 23.1454L32.5107 23.0006L32.7315 22.9179Z" fill="black"/>
<path d="M14.846 30.8206C13.9889 32.7983 13.6593 34.7761 13.6593 36.0287C15.5711 36.688 17.6148 38.0724 18.8674 39.3909C19.9222 37.4131 22.3351 32.9302 23.2845 31.0843C24.1999 29.3043 23.9877 28.0297 23.7459 27.6561C22.5856 24.7554 19.6146 24.6455 18.2741 24.9532C17.483 26.2937 15.4862 29.3432 14.846 30.8206Z" fill="#E50202" fill-opacity="0.8"/>
<path fill-rule="evenodd" clip-rule="evenodd" d="M18.3585 25.0695C18.1413 25.4354 17.841 25.9195 17.5065 26.4589C17.2243 26.914 16.9177 27.4083 16.6161 27.9041C15.9371 29.0201 15.2828 30.1441 14.967 30.873C14.138 32.786 13.8077 34.6974 13.7918 35.9354C15.6355 36.5912 17.5825 37.8973 18.8363 39.1692C19.0827 38.7077 19.3906 38.1325 19.7305 37.4977C20.9013 35.3109 22.4511 32.4164 23.1672 31.024C23.6171 30.1491 23.7874 29.4035 23.8175 28.8358C23.8479 28.2625 23.7351 27.8821 23.6352 27.7278L23.6283 27.717L23.6235 27.7051C23.0597 26.2954 22.0595 25.5676 21.0359 25.2266C20.0357 24.8934 19.0126 24.9299 18.3585 25.0695ZM23.8638 27.5958C23.2665 26.1122 22.2036 25.3377 21.1193 24.9764C20.0372 24.6159 18.9343 24.6664 18.2446 24.8247L18.1894 24.8373L18.1606 24.8862C17.9422 25.2561 17.633 25.7547 17.2852 26.3154C17.0032 26.7702 16.6957 27.2659 16.3908 27.767C15.7135 28.8802 15.0493 30.0197 14.725 30.7681C13.861 32.7619 13.5275 34.7574 13.5275 36.0287V36.1227L13.6163 36.1533C15.5068 36.8052 17.5328 38.1775 18.7719 39.4817L18.8978 39.6142L18.9838 39.4529C19.242 38.9688 19.5819 38.334 19.9618 37.6244C21.1327 35.4374 22.6845 32.5392 23.4017 31.1446C23.8672 30.2394 24.0486 29.4577 24.0808 28.8498C24.1122 28.2576 24.0023 27.8187 23.8638 27.5958Z" fill="black"/>
<path d="M13.1856 41.962L13.9107 36.0946C16.1786 36.7275 18.152 38.4679 18.8552 39.2591L18.1959 40.3139C17.9849 40.894 18.6794 43.2805 19.0529 44.4013C19.2068 44.7309 19.9363 45.2187 20.3055 45.8516C20.767 46.6427 21.5581 46.9064 22.0855 47.3679C22.5074 47.7371 23.1843 49.4116 23.2062 50.0709C23.0744 50.5983 22.2378 50.2489 22.0855 49.7412C21.6306 48.2249 20.9868 48.4227 20.6351 47.8953L20.9648 48.8183C21.5361 49.8731 22.046 52.1409 19.5144 52.7738C16.35 53.5649 15.5589 49.1479 15.3611 48.0931C15.1633 47.0383 14.2404 45.5879 13.5811 44.5331C13.0537 43.6893 13.0977 42.4674 13.1856 41.962Z" fill="white"/>
<path fill-rule="evenodd" clip-rule="evenodd" d="M13.8376 35.9849C13.8696 35.9636 13.9092 35.9573 13.9462 35.9676C16.2477 36.6099 18.2415 38.3702 18.9537 39.1714C18.9926 39.2152 18.998 39.2793 18.967 39.3289L18.3158 40.3708C18.2995 40.4227 18.2891 40.5018 18.2887 40.6106C18.2883 40.7258 18.2989 40.8648 18.3191 41.0229C18.3595 41.339 18.437 41.7216 18.5334 42.1241C18.7254 42.9249 18.9896 43.7935 19.1754 44.3517C19.2055 44.4128 19.2662 44.4901 19.3577 44.5876C19.4313 44.666 19.5176 44.7499 19.6126 44.8423C19.638 44.8671 19.6641 44.8924 19.6907 44.9184C19.938 45.1603 20.2248 45.4516 20.4194 45.7852C20.6362 46.1568 20.9316 46.4074 21.2459 46.625C21.3521 46.6985 21.4577 46.7665 21.5637 46.8347C21.6164 46.8686 21.6691 46.9026 21.7221 46.9373C21.8789 47.0401 22.0334 47.1471 22.1724 47.2687C22.2959 47.3767 22.4263 47.5676 22.5505 47.7887C22.6769 48.0137 22.804 48.2832 22.9178 48.5605C23.1431 49.109 23.3262 49.7114 23.338 50.0665C23.3385 50.0787 23.3372 50.0909 23.3342 50.1028C23.291 50.2754 23.1837 50.3894 23.0391 50.4382C22.9026 50.4842 22.7492 50.4669 22.6104 50.4188C22.3358 50.3235 22.0503 50.0828 21.9592 49.7791C21.738 49.0417 21.4766 48.7372 21.2401 48.551C21.1569 48.4856 21.08 48.4365 21.0006 48.3859C20.9791 48.3722 20.9575 48.3583 20.9354 48.3441L21.0856 48.7645C21.3773 49.3067 21.6563 50.162 21.5336 50.974C21.4714 51.3852 21.3057 51.787 20.9854 52.1274C20.6654 52.4676 20.1985 52.7387 19.5464 52.9017C18.7225 53.1077 18.0432 52.9756 17.4895 52.637C16.9402 52.3011 16.5246 51.7685 16.2094 51.1886C15.5944 50.0569 15.3416 48.7056 15.2385 48.1545C15.2361 48.1417 15.2338 48.1293 15.2315 48.1174C15.1366 47.611 14.8647 46.9997 14.5281 46.3757C14.2146 45.7945 13.8508 45.2129 13.5349 44.7078C13.5128 44.6725 13.4909 44.6375 13.4693 44.603C13.1906 44.157 13.0663 43.6179 13.0213 43.1328C12.9764 42.6488 13.0095 42.2069 13.0551 41.9426L13.7799 36.0784C13.7846 36.0403 13.8057 36.0062 13.8376 35.9849ZM14.0226 36.2644L13.3164 41.9782C13.3162 41.9803 13.3158 41.9825 13.3155 41.9846C13.2735 42.2261 13.241 42.6462 13.2839 43.1085C13.3268 43.5716 13.4443 44.0654 13.6929 44.4632C13.7148 44.4981 13.7369 44.5335 13.7593 44.5693C14.0744 45.0731 14.4425 45.6616 14.7602 46.2505C15.0993 46.8791 15.3879 47.5203 15.4907 48.0688C15.4926 48.0792 15.4946 48.0898 15.4967 48.1008C15.5997 48.6511 15.8463 49.9682 16.4411 51.0627C16.744 51.6201 17.1319 52.1092 17.6271 52.412C18.1179 52.7121 18.7242 52.8355 19.4824 52.6459C20.0962 52.4925 20.5148 52.2428 20.7934 51.9467C21.0716 51.651 21.2174 51.3012 21.2728 50.9346C21.3846 50.1952 21.1268 49.3942 20.8489 48.8811C20.8456 48.8751 20.8429 48.869 20.8406 48.8626L20.511 47.9396C20.4886 47.8769 20.5165 47.8074 20.576 47.7775C20.6355 47.7476 20.7079 47.7668 20.7449 47.8222C20.8193 47.9339 20.9099 48.0091 21.0202 48.0839C21.0529 48.1061 21.0893 48.1294 21.128 48.1541C21.2135 48.2088 21.3102 48.2707 21.4032 48.3438C21.6902 48.5697 21.9782 48.9245 22.2118 49.7033C22.273 49.9074 22.482 50.0951 22.6968 50.1696C22.8026 50.2063 22.8925 50.2093 22.9548 50.1883C23.0054 50.1713 23.0495 50.1351 23.0736 50.0559C23.0574 49.7475 22.8934 49.1952 22.6739 48.6607C22.5631 48.3908 22.4405 48.1313 22.3206 47.9178C22.1985 47.7005 22.0862 47.5437 21.9987 47.4671C21.8739 47.3579 21.7318 47.259 21.5775 47.1578C21.5284 47.1256 21.4777 47.093 21.426 47.0597C21.3178 46.9901 21.2055 46.9178 21.0958 46.8418C20.7673 46.6144 20.4363 46.3375 20.1916 45.918C20.0171 45.6188 19.7545 45.3497 19.5063 45.107C19.4811 45.0824 19.456 45.0579 19.4311 45.0337C19.3356 44.9408 19.2436 44.8513 19.1655 44.7682C19.0687 44.6651 18.9815 44.5599 18.9335 44.457C18.9313 44.4524 18.9295 44.4477 18.9279 44.4429C18.7403 43.8801 18.4721 42.9995 18.277 42.1856C18.1795 41.7788 18.0996 41.3859 18.0575 41.0564C18.0364 40.8916 18.0245 40.7403 18.025 40.6096C18.0255 40.4811 18.0379 40.3625 18.072 40.2688C18.0752 40.2601 18.0792 40.2518 18.0841 40.244L18.6906 39.2736C17.9616 38.4815 16.1281 36.9003 14.0226 36.2644Z" fill="black"/>
<path d="M15.6248 36.9517C15.4666 36.7934 14.8996 36.5561 14.0426 36.2265C13.7789 37.9406 13.2383 41.3687 13.1856 42.1598C13.0977 43.4783 13.6542 44.725 14.3063 45.522C14.8996 46.2472 15.4271 48.0272 15.8885 49.939C16.2643 51.4958 17.3389 52.3124 17.8004 52.5101C17.8004 52.5101 18.5915 52.8398 18.987 52.7079C19.3826 52.5761 18.0641 52.5101 17.5367 52.0486C17.1397 51.7014 16.4599 50.2467 16.2182 49.6094C16.1083 48.6205 15.8226 46.7087 15.2293 46.1153C14.6323 45.5183 14.0426 43.6102 13.8448 42.8191C13.6364 41.9851 15.8226 37.1494 15.6248 36.9517Z" fill="#DADADA"/>
<path d="M35.9298 31.8753C36.0353 31.2425 37.5999 29.1504 38.3691 28.1835C39.314 30.6008 41.217 35.8704 41.2698 37.6109C41.3225 39.3513 41.8192 41.1489 42.0609 41.8301C42.7202 42.4894 43.0498 44.0716 42.9839 45.1264C42.7861 46.0494 42.7861 46.5108 42.0609 47.0382C41.1298 47.7154 40.2809 47.1042 39.8194 46.7086C39.6778 46.5873 39.1229 45.9634 39.4898 44.8627C39.6876 44.2694 39.0942 43.5442 38.9624 43.676C38.7866 44.3133 38.8305 44.599 38.8305 45.1264C38.8305 45.7197 39.0283 45.7197 38.9624 46.0494C38.9069 46.3271 38.7119 46.524 38.2372 46.0494C37.7625 45.5747 37.7098 45.0605 37.7098 44.4671C37.7098 43.8738 37.7587 43.3374 37.9735 42.9509C38.9624 41.1709 37.9735 37.8087 37.7098 36.8857C37.4461 35.9627 36.3913 33.084 35.9298 31.8753Z" fill="white"/>
<path fill-rule="evenodd" clip-rule="evenodd" d="M38.4085 27.9222L38.4919 28.1355C38.9651 29.3459 39.678 31.27 40.2794 33.1101C40.5801 34.03 40.8534 34.9303 41.0549 35.7106C41.2557 36.4878 41.388 37.1559 41.4017 37.6069C41.4532 39.3067 41.9335 41.0659 42.1756 41.7587C42.519 42.1153 42.7667 42.6918 42.9221 43.2972C43.0817 43.9187 43.1494 44.5919 43.1155 45.1347L43.1149 45.1445L43.1129 45.1541C43.0886 45.2672 43.0671 45.3751 43.0465 45.4782C42.9857 45.7837 42.9332 46.0469 42.8431 46.2785C42.7175 46.6014 42.5191 46.8682 42.1385 47.1449C41.6361 47.5103 41.1474 47.5303 40.7257 47.4019C40.312 47.2759 39.9672 47.0089 39.7337 46.8088C39.5639 46.6632 38.9763 45.9866 39.3648 44.821C39.4466 44.5757 39.3669 44.2874 39.236 44.0641C39.1763 43.9623 39.111 43.883 39.0571 43.835C38.9505 44.2642 38.9545 44.5185 38.9599 44.8639C38.9611 44.9452 38.9625 45.0316 38.9625 45.1264C38.9625 45.4041 39.0078 45.5371 39.0454 45.6425C39.0471 45.647 39.0487 45.6516 39.0504 45.6562C39.0686 45.7069 39.0891 45.764 39.0997 45.8279C39.112 45.9012 39.111 45.9792 39.0918 46.0753C39.0626 46.2213 38.9842 46.4178 38.7846 46.4605C38.688 46.4812 38.5857 46.4587 38.483 46.4061C38.3804 46.3536 38.2681 46.2667 38.144 46.1426C37.6306 45.6292 37.578 45.0687 37.578 44.4672C37.578 43.8737 37.6254 43.3061 37.8583 42.8869C38.3305 42.037 38.3369 40.7893 38.1807 39.6143C38.0309 38.4867 37.7362 37.4569 37.5973 36.9716C37.5924 36.9544 37.5876 36.9378 37.5831 36.9219C37.3213 36.0055 36.2687 33.1324 35.8067 31.9224L35.7939 31.889L35.7998 31.8537C35.8307 31.6687 35.9607 31.3999 36.1332 31.1015C36.3093 30.7969 36.541 30.4425 36.7922 30.0797C37.2948 29.3536 37.8801 28.5865 38.2659 28.1015L38.4085 27.9222ZM36.0667 31.8641C36.5345 33.0916 37.5737 35.929 37.8367 36.8495C37.8413 36.8658 37.8462 36.8828 37.8513 36.9006C37.9905 37.3869 38.2897 38.4323 38.4422 39.5796C38.5992 40.7614 38.6056 42.0848 38.0888 43.0149C37.8922 43.3689 37.8417 43.874 37.8417 44.4672C37.8417 45.0523 37.8946 45.5203 38.3305 45.9562C38.4438 46.0694 38.5339 46.1359 38.6031 46.1713C38.6721 46.2066 38.7111 46.2065 38.7294 46.2026C38.76 46.1961 38.8068 46.1552 38.8332 46.0235C38.8469 45.9547 38.8459 45.9091 38.8396 45.8712C38.833 45.8317 38.8203 45.7961 38.8002 45.7397L38.7971 45.7312C38.7523 45.6058 38.6988 45.4421 38.6988 45.1264C38.6988 45.0367 38.6974 44.9533 38.6961 44.8733C38.69 44.4902 38.6851 44.1859 38.8354 43.641L38.8446 43.6075L38.8692 43.5828C38.9326 43.5195 39.0139 43.5224 39.0683 43.5384C39.1211 43.5539 39.1703 43.5861 39.2123 43.6208C39.2983 43.6918 39.3879 43.8018 39.4635 43.9308C39.6128 44.1855 39.731 44.5564 39.615 44.9044C39.2697 45.9403 39.7919 46.5114 39.9053 46.6085C40.1333 46.804 40.4436 47.0403 40.8025 47.1496C41.1534 47.2565 41.5547 47.2434 41.9834 46.9316C42.3281 46.681 42.4922 46.4533 42.5973 46.1829C42.6784 45.9745 42.7245 45.7433 42.7837 45.4469C42.8045 45.3427 42.8269 45.2306 42.8529 45.1085C42.8835 44.598 42.8193 43.957 42.6667 43.3628C42.5122 42.761 42.2724 42.2281 41.9677 41.9234L41.9467 41.9023L41.9367 41.8742C41.692 41.1847 41.1914 39.3731 41.1381 37.6149C41.1254 37.1957 41 36.5524 40.7996 35.7765C40.6 35.0037 40.3285 34.1092 40.0287 33.192C39.4636 31.463 38.7993 29.6584 38.3298 28.4461C37.9538 28.9256 37.449 29.5942 37.009 30.2298C36.7598 30.5899 36.5325 30.9376 36.3615 31.2335C36.2007 31.5117 36.0989 31.7288 36.0667 31.8641Z" fill="black"/>
<path d="M38.3031 36.6879C38.0394 35.765 36.8088 32.9521 36.0616 31.7435C36.3913 32.8642 37.512 35.5672 37.9735 37.3472C38.1899 38.182 38.4448 39.48 38.5009 40.3798C38.5646 41.4019 38.4083 42.006 38.3031 42.5553C38.4789 42.2477 38.725 41.4741 38.8305 40.8412C38.9624 40.0501 38.6311 37.836 38.3031 36.6879Z" fill="#DADADA"/>
<path d="M39.8194 44.3353C39.6612 43.9134 39.292 43.6321 39.1602 43.6101C39.6216 44.1375 39.5557 44.7309 39.4898 45.2583C39.437 45.6802 39.4898 46.0494 39.6216 46.3131L40.0831 46.7746C39.9732 46.5988 39.8722 46.2735 39.8194 46.1153C39.7667 45.9571 39.7535 45.8516 39.8194 45.522C39.9293 45.3022 39.9776 44.7572 39.8194 44.3353Z" fill="#DADADA"/>
</svg>
