<svg width="133" height="44" viewBox="0 0 133 44" fill="none" xmlns="http://www.w3.org/2000/svg">
<rect x="0.5" y="0.5" width="132" height="43" rx="5.5" fill="black" stroke="#C4C4C4"/>
<path d="M37.7926 15H40.1577C41.7045 15 42.3438 14.2457 42.3438 13.2614C42.3438 12.2259 41.6278 11.6634 41.027 11.625V11.5611C41.5895 11.4077 42.0881 11.0369 42.0881 10.1932C42.0881 9.23438 41.4489 8.45455 40.081 8.45455H37.7926V15ZM38.5852 14.2969V12.0213H40.196C41.0526 12.0213 41.5895 12.5966 41.5895 13.2614C41.5895 13.8366 41.1932 14.2969 40.1577 14.2969H38.5852ZM38.5852 11.331V9.15767H40.081C40.9503 9.15767 41.3338 9.6179 41.3338 10.1932C41.3338 10.8835 40.7713 11.331 40.0554 11.331H38.5852ZM44.9885 15.1151C45.845 15.1151 46.2924 14.6548 46.4458 14.3352H46.4842V15H47.2385V11.7656C47.2385 10.206 46.0495 10.027 45.4231 10.027C44.6816 10.027 43.8379 10.2827 43.4544 11.1776L44.1703 11.4332C44.3365 11.0753 44.7296 10.6918 45.4487 10.6918C46.1422 10.6918 46.4842 11.0593 46.4842 11.6889V11.7145C46.4842 12.0788 46.1135 12.0469 45.2186 12.1619C44.3077 12.2802 43.3137 12.4815 43.3137 13.6065C43.3137 14.5653 44.0552 15.1151 44.9885 15.1151ZM45.1035 14.4375C44.5027 14.4375 44.068 14.169 44.068 13.6449C44.068 13.0696 44.5922 12.8906 45.1802 12.8139C45.4998 12.7756 46.3564 12.6861 46.4842 12.5327V13.223C46.4842 13.8366 45.9984 14.4375 45.1035 14.4375ZM48.6151 15H49.3694V10.0909H48.6151V15ZM48.9987 9.27273C49.2927 9.27273 49.5356 9.04261 49.5356 8.76136C49.5356 8.48011 49.2927 8.25 48.9987 8.25C48.7046 8.25 48.4617 8.48011 48.4617 8.76136C48.4617 9.04261 48.7046 9.27273 48.9987 9.27273ZM51.3134 10.0909H50.4441L52.0037 12.5455L50.4441 15H51.3134L52.4895 13.0952L53.6657 15H54.535L52.9498 12.5455L54.535 10.0909H53.6657L52.4895 12.098L51.3134 10.0909ZM57.0558 15.1151C57.9124 15.1151 58.3598 14.6548 58.5132 14.3352H58.5516V15H59.3058V11.7656C59.3058 10.206 58.1169 10.027 57.4905 10.027C56.749 10.027 55.9053 10.2827 55.5218 11.1776L56.2377 11.4332C56.4039 11.0753 56.797 10.6918 57.5161 10.6918C58.2096 10.6918 58.5516 11.0593 58.5516 11.6889V11.7145C58.5516 12.0788 58.1808 12.0469 57.286 12.1619C56.3751 12.2802 55.3811 12.4815 55.3811 13.6065C55.3811 14.5653 56.1226 15.1151 57.0558 15.1151ZM57.1709 14.4375C56.57 14.4375 56.1354 14.169 56.1354 13.6449C56.1354 13.0696 56.6595 12.8906 57.2476 12.8139C57.5672 12.7756 58.4237 12.6861 58.5516 12.5327V13.223C58.5516 13.8366 58.0658 14.4375 57.1709 14.4375ZM60.6825 15H61.4368V11.8935C61.4368 11.2287 61.9609 10.7429 62.6768 10.7429C62.8782 10.7429 63.0859 10.7812 63.1371 10.794V10.027C63.0508 10.0206 62.8526 10.0142 62.7408 10.0142C62.1527 10.0142 61.6413 10.3466 61.4624 10.8324H61.4112V10.0909H60.6825V15ZM67.3167 12.0469C67.3167 11.1903 67.8472 10.7045 68.5695 10.7045C69.2694 10.7045 69.6945 11.1616 69.6945 11.9318V15H70.4488V11.8807C70.4488 10.6278 69.7808 10.027 68.7868 10.027C68.0454 10.027 67.5851 10.3594 67.355 10.858H67.2911V10.0909H66.5624V15H67.3167V12.0469ZM73.2717 15.1151C74.1282 15.1151 74.5756 14.6548 74.729 14.3352H74.7674V15H75.5217V11.7656C75.5217 10.206 74.3327 10.027 73.7063 10.027C72.9648 10.027 72.1211 10.2827 71.7376 11.1776L72.4535 11.4332C72.6197 11.0753 73.0128 10.6918 73.7319 10.6918C74.4254 10.6918 74.7674 11.0593 74.7674 11.6889V11.7145C74.7674 12.0788 74.3967 12.0469 73.5018 12.1619C72.5909 12.2802 71.5969 12.4815 71.5969 13.6065C71.5969 14.5653 72.3384 15.1151 73.2717 15.1151ZM73.3867 14.4375C72.7859 14.4375 72.3512 14.169 72.3512 13.6449C72.3512 13.0696 72.8754 12.8906 73.4634 12.8139C73.783 12.7756 74.6396 12.6861 74.7674 12.5327V13.223C74.7674 13.8366 74.2816 14.4375 73.3867 14.4375Z" fill="white"/>
<path d="M39.544 33L40.7457 29.5355H45.8594L47.0547 33H49.1513L44.4403 19.9091H42.1584L37.4474 33H39.544ZM41.321 27.8736L43.2514 22.2869H43.3537L45.2841 27.8736H41.321ZM50.8883 36.6818H52.7995V31.4723H52.9146C53.2598 32.0987 53.9629 33.1918 55.7527 33.1918C58.1305 33.1918 59.8564 31.2869 59.8564 28.1101C59.8564 24.9268 58.1049 23.054 55.7335 23.054C53.9118 23.054 53.2534 24.1662 52.9146 24.7734H52.7548V23.1818H50.8883V36.6818ZM52.7612 28.0909C52.7612 26.0391 53.6561 24.6776 55.3244 24.6776C57.0566 24.6776 57.926 26.1413 57.926 28.0909C57.926 30.0597 57.0311 31.5618 55.3244 31.5618C53.6816 31.5618 52.7612 30.1555 52.7612 28.0909ZM61.9977 36.6818H63.9089V31.4723H64.024C64.3691 32.0987 65.0723 33.1918 66.862 33.1918C69.2399 33.1918 70.9657 31.2869 70.9657 28.1101C70.9657 24.9268 69.2143 23.054 66.8429 23.054C65.0211 23.054 64.3627 24.1662 64.024 24.7734H63.8642V23.1818H61.9977V36.6818ZM63.8706 28.0909C63.8706 26.0391 64.7654 24.6776 66.4338 24.6776C68.166 24.6776 69.0353 26.1413 69.0353 28.0909C69.0353 30.0597 68.1404 31.5618 66.4338 31.5618C64.791 31.5618 63.8706 30.1555 63.8706 28.0909ZM85.1641 23.348H87.0689C87.0114 21.2514 85.1577 19.7301 82.4986 19.7301C79.8714 19.7301 77.858 21.2322 77.858 23.4886C77.858 25.3104 79.1619 26.3778 81.2649 26.9467L82.8118 27.3686C84.2116 27.7393 85.2919 28.1996 85.2919 29.3629C85.2919 30.6413 84.071 31.4851 82.3899 31.4851C80.8686 31.4851 79.603 30.8075 79.4879 29.3821H77.5064C77.6342 31.7536 79.4688 33.2173 82.4027 33.2173C85.4773 33.2173 87.2479 31.6001 87.2479 29.3821C87.2479 27.0234 85.1449 26.1094 83.483 25.7003L82.2045 25.3679C81.1818 25.1058 79.8203 24.6264 79.8267 23.3736C79.8267 22.2614 80.843 21.4368 82.4538 21.4368C83.956 21.4368 85.0234 22.1399 85.1641 23.348ZM94.0378 23.1818H92.0243V20.8295H90.1131V23.1818H88.6749V24.7159H90.1131V30.5135C90.1067 32.2969 91.4682 33.1598 92.9767 33.1278C93.584 33.1214 93.9931 33.0064 94.2168 32.9233L93.8716 31.3445C93.7438 31.37 93.5073 31.4276 93.2005 31.4276C92.5804 31.4276 92.0243 31.223 92.0243 30.1172V24.7159H94.0378V23.1818ZM100.182 33.1982C102.95 33.1982 104.759 31.1719 104.759 28.1357C104.759 25.0803 102.95 23.054 100.182 23.054C97.4144 23.054 95.6055 25.0803 95.6055 28.1357C95.6055 31.1719 97.4144 33.1982 100.182 33.1982ZM100.189 31.5938C98.3796 31.5938 97.5359 30.0149 97.5359 28.1293C97.5359 26.25 98.3796 24.652 100.189 24.652C101.985 24.652 102.828 26.25 102.828 28.1293C102.828 30.0149 101.985 31.5938 100.189 31.5938ZM106.892 33H108.803V27.0043C108.803 25.7195 109.794 24.7926 111.149 24.7926C111.546 24.7926 111.993 24.8629 112.146 24.9077V23.0795C111.955 23.054 111.578 23.0348 111.335 23.0348C110.184 23.0348 109.2 23.6868 108.842 24.7415H108.74V23.1818H106.892V33ZM117.68 33.1982C119.822 33.1982 121.337 32.1435 121.771 30.5455L119.962 30.2195C119.617 31.1463 118.786 31.6193 117.7 31.6193C116.063 31.6193 114.964 30.5582 114.913 28.6662H121.893V27.9886C121.893 24.4411 119.771 23.054 117.546 23.054C114.81 23.054 113.008 25.1378 113.008 28.1548C113.008 31.2038 114.785 33.1982 117.68 33.1982ZM114.919 27.2344C114.996 25.8409 116.006 24.6328 117.559 24.6328C119.042 24.6328 120.013 25.7322 120.02 27.2344H114.919Z" fill="white"/>
<path d="M15.3734 33.5323C14.8805 33.2044 14.4437 32.7992 14.0797 32.3323C13.6793 31.8504 13.3083 31.3448 12.9688 30.8183C12.1719 29.6509 11.5471 28.3751 11.1133 27.03C10.5922 25.4675 10.3398 23.9698 10.3398 22.505C10.3398 20.869 10.6938 19.4409 11.3859 18.2409C11.899 17.303 12.6534 16.5192 13.5711 15.9706C14.4604 15.4182 15.4822 15.116 16.5289 15.0956C16.8953 15.0956 17.2898 15.1487 17.7086 15.2503C18.0094 15.3354 18.3758 15.4698 18.8234 15.637C19.393 15.8565 19.7062 15.9909 19.8125 16.0237C20.1461 16.1456 20.4266 16.1987 20.6469 16.1987C20.8141 16.1987 21.05 16.1456 21.318 16.0644C21.4688 16.0112 21.7531 15.9175 22.1602 15.7433C22.5633 15.5964 22.8805 15.4706 23.1328 15.3769C23.5195 15.2628 23.8938 15.1573 24.2273 15.1042C24.6228 15.0419 25.0242 15.0253 25.4234 15.055C26.1153 15.1002 26.7968 15.2468 27.4461 15.4901C28.5078 15.9175 29.3664 16.5847 30.0055 17.5331C29.7354 17.6996 29.4818 17.8916 29.2484 18.1065C28.7403 18.557 28.3075 19.0858 27.9664 19.6729C27.5205 20.4753 27.2894 21.3792 27.2953 22.2972C27.3117 23.4245 27.6008 24.4175 28.1703 25.2761C28.589 25.9124 29.1332 26.4566 29.7695 26.8753C30.0953 27.0948 30.3758 27.2456 30.6445 27.3472C30.5187 27.7378 30.3844 28.1159 30.2258 28.4909C29.8661 29.3319 29.4302 30.1381 28.9234 30.8995C28.4719 31.555 28.118 32.0433 27.8492 32.3683C27.4305 32.8644 27.0273 33.2433 26.6203 33.5073C26.1727 33.8042 25.6437 33.9628 25.1062 33.9628C24.7422 33.9768 24.3783 33.9327 24.0281 33.8323C23.7273 33.7308 23.4297 33.6206 23.1367 33.4948C22.8321 33.3549 22.5181 33.2367 22.1969 33.1409C21.4029 32.937 20.5704 32.9356 19.7758 33.137C19.45 33.2308 19.1367 33.3401 18.8273 33.4745C18.3922 33.6573 18.1031 33.78 17.9359 33.8323C17.6023 33.93 17.2562 33.9909 16.9062 34.0112C16.3648 34.0112 15.8602 33.8565 15.3602 33.5433L15.3734 33.5323ZM22.5141 14.3019C21.8062 14.6558 21.1305 14.8065 20.4594 14.7573C20.3539 14.0815 20.4594 13.3901 20.7398 12.6331C20.9786 11.9918 21.3314 11.3989 21.7812 10.8831C22.2563 10.3402 22.8327 9.89512 23.4781 9.57295C24.1656 9.21904 24.8211 9.02764 25.4477 8.99951C25.5289 9.70732 25.4477 10.4034 25.1875 11.1558C24.9467 11.8208 24.5946 12.4401 24.1461 12.987C23.6883 13.5307 23.1265 13.9775 22.4937 14.3011L22.5141 14.3019Z" fill="white"/>
</svg>
