<svg width="134" height="45" viewBox="0 0 134 45" fill="none" xmlns="http://www.w3.org/2000/svg">
<rect x="1" y="1.00732" width="132" height="43" rx="5.5" fill="black" stroke="#C4C4C4"/>
<path d="M38.2926 15.5073H40.6577C42.2045 15.5073 42.8438 14.7531 42.8438 13.7687C42.8438 12.7332 42.1278 12.1707 41.527 12.1323V12.0684C42.0895 11.915 42.5881 11.5443 42.5881 10.7005C42.5881 9.7417 41.9489 8.96187 40.581 8.96187H38.2926V15.5073ZM39.0852 14.8042V12.5286H40.696C41.5526 12.5286 42.0895 13.1039 42.0895 13.7687C42.0895 14.344 41.6932 14.8042 40.6577 14.8042H39.0852ZM39.0852 11.8383V9.66499H40.581C41.4503 9.66499 41.8338 10.1252 41.8338 10.7005C41.8338 11.3908 41.2713 11.8383 40.5554 11.8383H39.0852ZM45.4885 15.6224C46.345 15.6224 46.7924 15.1622 46.9458 14.8426H46.9842V15.5073H47.7385V12.2729C47.7385 10.7133 46.5495 10.5343 45.9231 10.5343C45.1816 10.5343 44.3379 10.79 43.9544 11.6849L44.6703 11.9406C44.8365 11.5826 45.2296 11.1991 45.9487 11.1991C46.6422 11.1991 46.9842 11.5666 46.9842 12.1962V12.2218C46.9842 12.5862 46.6135 12.5542 45.7186 12.6693C44.8077 12.7875 43.8137 12.9889 43.8137 14.1139C43.8137 15.0727 44.5552 15.6224 45.4885 15.6224ZM45.6035 14.9448C45.0027 14.9448 44.568 14.6764 44.568 14.1522C44.568 13.5769 45.0922 13.3979 45.6802 13.3212C45.9998 13.2829 46.8564 13.1934 46.9842 13.04V13.7303C46.9842 14.344 46.4984 14.9448 45.6035 14.9448ZM49.1151 15.5073H49.8694V10.5982H49.1151V15.5073ZM49.4987 9.78005C49.7927 9.78005 50.0356 9.54994 50.0356 9.26869C50.0356 8.98744 49.7927 8.75732 49.4987 8.75732C49.2046 8.75732 48.9617 8.98744 48.9617 9.26869C48.9617 9.54994 49.2046 9.78005 49.4987 9.78005ZM51.8134 10.5982H50.9441L52.5037 13.0528L50.9441 15.5073H51.8134L52.9895 13.6025L54.1657 15.5073H55.035L53.4498 13.0528L55.035 10.5982H54.1657L52.9895 12.6053L51.8134 10.5982ZM57.5558 15.6224C58.4124 15.6224 58.8598 15.1622 59.0132 14.8426H59.0516V15.5073H59.8058V12.2729C59.8058 10.7133 58.6169 10.5343 57.9905 10.5343C57.249 10.5343 56.4053 10.79 56.0218 11.6849L56.7377 11.9406C56.9039 11.5826 57.297 11.1991 58.0161 11.1991C58.7096 11.1991 59.0516 11.5666 59.0516 12.1962V12.2218C59.0516 12.5862 58.6808 12.5542 57.786 12.6693C56.8751 12.7875 55.8811 12.9889 55.8811 14.1139C55.8811 15.0727 56.6226 15.6224 57.5558 15.6224ZM57.6709 14.9448C57.07 14.9448 56.6354 14.6764 56.6354 14.1522C56.6354 13.5769 57.1595 13.3979 57.7476 13.3212C58.0672 13.2829 58.9237 13.1934 59.0516 13.04V13.7303C59.0516 14.344 58.5658 14.9448 57.6709 14.9448ZM61.1825 15.5073H61.9368V12.4008C61.9368 11.736 62.4609 11.2502 63.1768 11.2502C63.3782 11.2502 63.5859 11.2886 63.6371 11.3014V10.5343C63.5508 10.5279 63.3526 10.5215 63.2408 10.5215C62.6527 10.5215 62.1413 10.8539 61.9624 11.3397H61.9112V10.5982H61.1825V15.5073ZM67.8167 12.5542C67.8167 11.6977 68.3472 11.2119 69.0695 11.2119C69.7694 11.2119 70.1945 11.6689 70.1945 12.4391V15.5073H70.9488V12.388C70.9488 11.1352 70.2808 10.5343 69.2868 10.5343C68.5454 10.5343 68.0851 10.8667 67.855 11.3653H67.7911V10.5982H67.0624V15.5073H67.8167V12.5542ZM73.7717 15.6224C74.6282 15.6224 75.0756 15.1622 75.229 14.8426H75.2674V15.5073H76.0217V12.2729C76.0217 10.7133 74.8327 10.5343 74.2063 10.5343C73.4648 10.5343 72.6211 10.79 72.2376 11.6849L72.9535 11.9406C73.1197 11.5826 73.5128 11.1991 74.2319 11.1991C74.9254 11.1991 75.2674 11.5666 75.2674 12.1962V12.2218C75.2674 12.5862 74.8967 12.5542 74.0018 12.6693C73.0909 12.7875 72.0969 12.9889 72.0969 14.1139C72.0969 15.0727 72.8384 15.6224 73.7717 15.6224ZM73.8867 14.9448C73.2859 14.9448 72.8512 14.6764 72.8512 14.1522C72.8512 13.5769 73.3754 13.3979 73.9634 13.3212C74.283 13.2829 75.1396 13.1934 75.2674 13.04V13.7303C75.2674 14.344 74.7816 14.9448 73.8867 14.9448Z" fill="white"/>
<path d="M40.044 33.5073L41.2457 30.0428H46.3594L47.5547 33.5073H49.6513L44.9403 20.4164H42.6584L37.9474 33.5073H40.044ZM41.821 28.3809L43.7514 22.7943H43.8537L45.7841 28.3809H41.821ZM51.3883 37.1891H53.2995V31.9796H53.4146C53.7598 32.606 54.4629 33.6991 56.2527 33.6991C58.6305 33.6991 60.3564 31.7943 60.3564 28.6174C60.3564 25.4342 58.6049 23.5613 56.2335 23.5613C54.4118 23.5613 53.7534 24.6735 53.4146 25.2808H53.2548V23.6891H51.3883V37.1891ZM53.2612 28.5982C53.2612 26.5464 54.1561 25.1849 55.8244 25.1849C57.5566 25.1849 58.426 26.6487 58.426 28.5982C58.426 30.567 57.5311 32.0691 55.8244 32.0691C54.1816 32.0691 53.2612 30.6629 53.2612 28.5982ZM62.4977 37.1891H64.4089V31.9796H64.524C64.8691 32.606 65.5723 33.6991 67.362 33.6991C69.7399 33.6991 71.4657 31.7943 71.4657 28.6174C71.4657 25.4342 69.7143 23.5613 67.3429 23.5613C65.5211 23.5613 64.8627 24.6735 64.524 25.2808H64.3642V23.6891H62.4977V37.1891ZM64.3706 28.5982C64.3706 26.5464 65.2654 25.1849 66.9338 25.1849C68.666 25.1849 69.5353 26.6487 69.5353 28.5982C69.5353 30.567 68.6404 32.0691 66.9338 32.0691C65.291 32.0691 64.3706 30.6629 64.3706 28.5982ZM85.6641 23.8553H87.5689C87.5114 21.7587 85.6577 20.2374 82.9986 20.2374C80.3714 20.2374 78.358 21.7396 78.358 23.996C78.358 25.8177 79.6619 26.8852 81.7649 27.4541L83.3118 27.8759C84.7116 28.2467 85.7919 28.7069 85.7919 29.8703C85.7919 31.1487 84.571 31.9924 82.8899 31.9924C81.3686 31.9924 80.103 31.3149 79.9879 29.8894H78.0064C78.1342 32.2609 79.9688 33.7247 82.9027 33.7247C85.9773 33.7247 87.7479 32.1075 87.7479 29.8894C87.7479 27.5308 85.6449 26.6167 83.983 26.2076L82.7045 25.8752C81.6818 25.6131 80.3203 25.1337 80.3267 23.8809C80.3267 22.7687 81.343 21.9441 82.9538 21.9441C84.456 21.9441 85.5234 22.6472 85.6641 23.8553ZM94.5378 23.6891H92.5243V21.3369H90.6131V23.6891H89.1749V25.2232H90.6131V31.0208C90.6067 32.8042 91.9682 33.6671 93.4767 33.6352C94.084 33.6288 94.4931 33.5137 94.7168 33.4306L94.3716 31.8518C94.2438 31.8774 94.0073 31.9349 93.7005 31.9349C93.0804 31.9349 92.5243 31.7303 92.5243 30.6245V25.2232H94.5378V23.6891ZM100.682 33.7055C103.45 33.7055 105.259 31.6792 105.259 28.643C105.259 25.5876 103.45 23.5613 100.682 23.5613C97.9144 23.5613 96.1055 25.5876 96.1055 28.643C96.1055 31.6792 97.9144 33.7055 100.682 33.7055ZM100.689 32.1011C98.8796 32.1011 98.0359 30.5222 98.0359 28.6366C98.0359 26.7573 98.8796 25.1593 100.689 25.1593C102.485 25.1593 103.328 26.7573 103.328 28.6366C103.328 30.5222 102.485 32.1011 100.689 32.1011ZM107.392 33.5073H109.303V27.5116C109.303 26.2268 110.294 25.2999 111.649 25.2999C112.046 25.2999 112.493 25.3702 112.646 25.415V23.5869C112.455 23.5613 112.078 23.5421 111.835 23.5421C110.684 23.5421 109.7 24.1941 109.342 25.2488H109.24V23.6891H107.392V33.5073ZM118.18 33.7055C120.322 33.7055 121.837 32.6508 122.271 31.0528L120.462 30.7268C120.117 31.6536 119.286 32.1266 118.2 32.1266C116.563 32.1266 115.464 31.0656 115.413 29.1735H122.393V28.496C122.393 24.9484 120.271 23.5613 118.046 23.5613C115.31 23.5613 113.508 25.6451 113.508 28.6622C113.508 31.7112 115.285 33.7055 118.18 33.7055ZM115.419 27.7417C115.496 26.3482 116.506 25.1401 118.059 25.1401C119.542 25.1401 120.513 26.2396 120.52 27.7417H115.419Z" fill="white"/>
<path d="M15.8734 34.0396C15.3805 33.7117 14.9437 33.3065 14.5797 32.8396C14.1793 32.3577 13.8083 31.8521 13.4688 31.3256C12.6719 30.1583 12.0471 28.8824 11.6133 27.5373C11.0922 25.9748 10.8398 24.4771 10.8398 23.0123C10.8398 21.3764 11.1938 19.9482 11.8859 18.7482C12.399 17.8103 13.1534 17.0265 14.0711 16.4779C14.9604 15.9256 15.9822 15.6233 17.0289 15.6029C17.3953 15.6029 17.7898 15.6561 18.2086 15.7576C18.5094 15.8428 18.8758 15.9771 19.3234 16.1443C19.893 16.3639 20.2062 16.4982 20.3125 16.5311C20.6461 16.6529 20.9266 16.7061 21.1469 16.7061C21.3141 16.7061 21.55 16.6529 21.818 16.5717C21.9688 16.5186 22.2531 16.4248 22.6602 16.2506C23.0633 16.1037 23.3805 15.9779 23.6328 15.8842C24.0195 15.7701 24.3938 15.6646 24.7273 15.6115C25.1228 15.5492 25.5242 15.5327 25.9234 15.5623C26.6153 15.6075 27.2968 15.7541 27.9461 15.9975C29.0078 16.4248 29.8664 17.092 30.5055 18.0404C30.2354 18.2069 29.9818 18.3989 29.7484 18.6139C29.2403 19.0643 28.8075 19.5931 28.4664 20.1803C28.0205 20.9827 27.7894 21.8866 27.7953 22.8045C27.8117 23.9318 28.1008 24.9248 28.6703 25.7834C29.089 26.4197 29.6332 26.9639 30.2695 27.3826C30.5953 27.6021 30.8758 27.7529 31.1445 27.8545C31.0187 28.2451 30.8844 28.6232 30.7258 28.9982C30.3661 29.8392 29.9302 30.6454 29.4234 31.4068C28.9719 32.0623 28.618 32.5506 28.3492 32.8756C27.9305 33.3717 27.5273 33.7506 27.1203 34.0146C26.6727 34.3115 26.1437 34.4701 25.6062 34.4701C25.2422 34.4841 24.8783 34.4401 24.5281 34.3396C24.2273 34.2381 23.9297 34.1279 23.6367 34.0021C23.3321 33.8622 23.0181 33.744 22.6969 33.6482C21.9029 33.4443 21.0704 33.443 20.2758 33.6443C19.95 33.7381 19.6367 33.8475 19.3273 33.9818C18.8922 34.1646 18.6031 34.2873 18.4359 34.3396C18.1023 34.4373 17.7562 34.4982 17.4062 34.5186C16.8648 34.5186 16.3602 34.3639 15.8602 34.0506L15.8734 34.0396ZM23.0141 14.8092C22.3062 15.1631 21.6305 15.3139 20.9594 15.2646C20.8539 14.5889 20.9594 13.8975 21.2398 13.1404C21.4786 12.4991 21.8314 11.9062 22.2812 11.3904C22.7563 10.8475 23.3327 10.4024 23.9781 10.0803C24.6656 9.72637 25.3211 9.53496 25.9477 9.50684C26.0289 10.2146 25.9477 10.9107 25.6875 11.6631C25.4467 12.3282 25.0946 12.9474 24.6461 13.4943C24.1883 14.038 23.6265 14.4848 22.9937 14.8084L23.0141 14.8092Z" fill="white"/>
</svg>
