<svg width="48" height="48" viewBox="0 0 48 48" fill="none" xmlns="http://www.w3.org/2000/svg">
<circle cx="24" cy="24" r="24" fill="#160E1B" fill-opacity="0.4"/>
<path fill-rule="evenodd" clip-rule="evenodd" d="M30.3066 17.6935C30.3828 17.7695 30.4433 17.8598 30.4845 17.9592C30.5258 18.0586 30.547 18.1652 30.547 18.2728C30.547 18.3804 30.5258 18.487 30.4845 18.5864C30.4433 18.6858 30.3828 18.776 30.3066 18.852L18.8521 30.3066C18.6985 30.4602 18.4901 30.5465 18.2728 30.5465C18.0556 30.5465 17.8472 30.4602 17.6936 30.3066C17.5399 30.153 17.4536 29.9446 17.4536 29.7273C17.4536 29.51 17.5399 29.3017 17.6936 29.148L29.1481 17.6935C29.2241 17.6173 29.3144 17.5569 29.4138 17.5156C29.5132 17.4744 29.6198 17.4531 29.7274 17.4531C29.835 17.4531 29.9416 17.4744 30.041 17.5156C30.1404 17.5569 30.2306 17.6173 30.3066 17.6935V17.6935Z" fill="white"/>
<path fill-rule="evenodd" clip-rule="evenodd" d="M17.6935 17.6935C17.6173 17.7695 17.5569 17.8598 17.5156 17.9592C17.4744 18.0586 17.4531 18.1652 17.4531 18.2728C17.4531 18.3804 17.4744 18.487 17.5156 18.5864C17.5569 18.6858 17.6173 18.776 17.6935 18.852L29.148 30.3066C29.3017 30.4602 29.51 30.5465 29.7273 30.5465C29.9446 30.5465 30.153 30.4602 30.3066 30.3066C30.4602 30.153 30.5465 29.9446 30.5465 29.7273C30.5465 29.51 30.4602 29.3017 30.3066 29.148L18.852 17.6935C18.776 17.6173 18.6858 17.5569 18.5864 17.5156C18.487 17.4744 18.3804 17.4531 18.2728 17.4531C18.1652 17.4531 18.0586 17.4744 17.9592 17.5156C17.8598 17.5569 17.7695 17.6173 17.6935 17.6935V17.6935Z" fill="white"/>
</svg>
