<svg width="1232" height="601" viewBox="0 0 1232 601" fill="none" xmlns="http://www.w3.org/2000/svg">
<path d="M1232 1.59723H0V548.698C-3.35982e-05 643.595 339.398 581.049 382.5 574.42C444.5 564.883 610 535.002 736 535.002C862 535.002 972.092 564.497 1067.5 585.228C1146.5 602.393 1232 613.431 1232 575.285L1232 1.59723Z" fill="#28D3EB" fill-opacity="0.36"/>
<path d="M0.5 1H1231.5V514.799C1231.5 603.943 893.102 545.324 850 539.096C788 530.138 622.5 502.069 496.5 502.069C370.5 502.069 260.408 529.775 165 549.249C86 565.374 0.5 576.555 0.5 540.721V1Z" fill="#28D3EB" stroke="#28D3EB"/>
</svg>
