<svg width="1232" height="284" viewBox="0 0 1232 284" fill="none" xmlns="http://www.w3.org/2000/svg">
<path d="M0.998413 283.218H1231.5C1231.5 205.742 1232 73.1263 1232 24.779C1232 -20.0444 892.516 9.52127 849.466 12.6527C787.541 17.1571 622.242 31.271 496.395 31.271C370.549 31.271 260.591 17.3397 165.299 7.54776C86.3945 -0.560181 -0.00012207 -5.96548 -0.00012207 12.0522C-0.00012207 30.0698 0.998413 283.218 0.998413 283.218Z" fill="#28D3EB" fill-opacity="0.36"/>
<path d="M1231.5 283.5H0.5C0.499946 240.258 0.499981 178.504 0.50001 125.975L0.500034 40.0836C0.5 -2.02243 339.484 26.3958 382.534 29.3374C444.459 33.5687 609.758 46.827 735.605 46.827C861.451 46.827 971.409 33.7402 1066.7 24.5419C1145.61 16.9255 1231.5 11.4976 1231.5 28.423V283.5Z" fill="#28D3EB" stroke="#28D3EB"/>
</svg>
