<svg width="32" height="32" viewBox="0 0 32 32" fill="none" xmlns="http://www.w3.org/2000/svg">
<rect width="32" height="32" rx="8" fill="white"/>
<path d="M16.0001 12.8758C14.2798 12.8758 12.8759 14.2797 12.8759 16C12.8759 17.7203 14.2798 19.1242 16.0001 19.1242C17.7204 19.1242 19.1243 17.7203 19.1243 16C19.1243 14.2797 17.7204 12.8758 16.0001 12.8758ZM25.3704 16C25.3704 14.7062 25.3821 13.4242 25.3095 12.1328C25.2368 10.6328 24.8946 9.30156 23.7978 8.20469C22.6985 7.10547 21.3696 6.76562 19.8696 6.69297C18.5759 6.62031 17.2939 6.63203 16.0025 6.63203C14.7087 6.63203 13.4267 6.62031 12.1353 6.69297C10.6353 6.76562 9.30402 7.10781 8.20714 8.20469C7.10792 9.3039 6.76808 10.6328 6.69542 12.1328C6.62277 13.4266 6.63449 14.7086 6.63449 16C6.63449 17.2914 6.62277 18.5758 6.69542 19.8672C6.76808 21.3672 7.11027 22.6984 8.20714 23.7953C9.30636 24.8945 10.6353 25.2344 12.1353 25.307C13.429 25.3797 14.711 25.368 16.0025 25.368C17.2962 25.368 18.5782 25.3797 19.8696 25.307C21.3696 25.2344 22.7009 24.8922 23.7978 23.7953C24.897 22.6961 25.2368 21.3672 25.3095 19.8672C25.3845 18.5758 25.3704 17.2937 25.3704 16ZM16.0001 20.807C13.34 20.807 11.1931 18.6602 11.1931 16C11.1931 13.3398 13.34 11.193 16.0001 11.193C18.6603 11.193 20.8071 13.3398 20.8071 16C20.8071 18.6602 18.6603 20.807 16.0001 20.807ZM21.004 12.1187C20.3829 12.1187 19.8814 11.6172 19.8814 10.9961C19.8814 10.375 20.3829 9.87344 21.004 9.87344C21.6251 9.87344 22.1267 10.375 22.1267 10.9961C22.1269 11.1436 22.0979 11.2896 22.0416 11.4259C21.9852 11.5622 21.9026 11.6861 21.7983 11.7903C21.694 11.8946 21.5701 11.9773 21.4339 12.0337C21.2976 12.09 21.1515 12.1189 21.004 12.1187Z" fill="#2CCADF"/>
</svg>
