<svg width="33" height="33" viewBox="0 0 33 33" fill="none" xmlns="http://www.w3.org/2000/svg">
<rect x="0.5" y="0.507324" width="32" height="32" rx="8" fill="white"/>
<path d="M16.5001 13.3831C14.7798 13.3831 13.3759 14.787 13.3759 16.5073C13.3759 18.2276 14.7798 19.6316 16.5001 19.6316C18.2204 19.6316 19.6243 18.2276 19.6243 16.5073C19.6243 14.787 18.2204 13.3831 16.5001 13.3831ZM25.8704 16.5073C25.8704 15.2136 25.8821 13.9316 25.8095 12.6402C25.7368 11.1402 25.3946 9.8089 24.2978 8.71203C23.1985 7.61281 21.8696 7.27296 20.3696 7.20031C19.0759 7.12765 17.7939 7.13937 16.5025 7.13937C15.2087 7.13937 13.9267 7.12765 12.6353 7.20031C11.1353 7.27296 9.80402 7.61515 8.70714 8.71203C7.60792 9.81124 7.26808 11.1402 7.19542 12.6402C7.12277 13.9339 7.13449 15.2159 7.13449 16.5073C7.13449 17.7987 7.12277 19.0831 7.19542 20.3745C7.26808 21.8745 7.61027 23.2058 8.70714 24.3027C9.80636 25.4019 11.1353 25.7417 12.6353 25.8144C13.929 25.887 15.211 25.8753 16.5025 25.8753C17.7962 25.8753 19.0782 25.887 20.3696 25.8144C21.8696 25.7417 23.2009 25.3995 24.2978 24.3027C25.397 23.2034 25.7368 21.8745 25.8095 20.3745C25.8845 19.0831 25.8704 17.8011 25.8704 16.5073ZM16.5001 21.3144C13.84 21.3144 11.6931 19.1675 11.6931 16.5073C11.6931 13.8472 13.84 11.7003 16.5001 11.7003C19.1603 11.7003 21.3071 13.8472 21.3071 16.5073C21.3071 19.1675 19.1603 21.3144 16.5001 21.3144ZM21.504 12.6261C20.8829 12.6261 20.3814 12.1245 20.3814 11.5034C20.3814 10.8823 20.8829 10.3808 21.504 10.3808C22.1251 10.3808 22.6267 10.8823 22.6267 11.5034C22.6269 11.6509 22.5979 11.797 22.5416 11.9333C22.4852 12.0696 22.4026 12.1934 22.2983 12.2977C22.194 12.402 22.0701 12.4847 21.9339 12.541C21.7976 12.5974 21.6515 12.6263 21.504 12.6261Z" fill="#BD22F3"/>
</svg>
