<svg width="404" height="99" viewBox="0 0 404 99" fill="none" xmlns="http://www.w3.org/2000/svg">
<g filter="url(#filter0_d)">
<ellipse cx="57.307" cy="46" rx="44.0036" ry="45.8456" fill="#C4F0F7"/>
<path d="M23.5365 17.5915C25.2833 20.1697 25.4482 22.6986 28.1354 24.0984C29.081 24.591 29.7107 25.5377 30.6904 25.9914C31.7051 26.4612 32.9881 26.3157 34.0119 26.9082C38.202 29.3335 41.4213 29.722 41.4213 35.4264C41.4213 36.9625 43.4653 36.4251 43.4653 38.0883V42.4953C43.4653 44.4179 44.1734 48.9138 41.62 49.505C40.3898 49.7898 38.8663 49.341 38.8663 51.1317V55.9232C38.8663 58.7884 38.9111 60.6097 37.8443 63.1104C36.8776 65.3767 34.1944 66.6088 33.1886 68.9666C32.2453 71.1779 29.7715 72.948 29.6684 75.7397C29.6241 76.9394 28.658 81.0628 29.9523 81.4481C30.8888 81.7268 31.531 82.8257 32.4789 83.0452C33.6592 83.3185 34.0118 81.6848 34.7784 80.5312C36.4685 77.9877 38.9284 74.843 41.6768 73.5215C45.1004 71.8752 48.8354 72.4271 52.5496 72.4271C55.3222 72.4271 57.0563 72.05 59.0222 70.0018C60.3038 68.6666 61.2386 66.2743 63.1101 65.5653C64.2094 65.1488 67.1531 64.623 67.8794 63.7906C68.1332 63.4999 68.9991 59.6786 69.015 59.1175C69.052 57.8063 69.2718 55.935 68.9014 54.681C68.1989 52.3021 67.3667 50.131 66.9426 47.7008C66.5941 45.7039 68.2776 46.0685 69.4976 45.0093C70.734 43.9359 71.5714 42.3163 72.7055 41.1347C74.0245 39.7605 75.3053 39.5363 76.7934 38.6503C77.5938 38.1738 79.5361 37.4738 80.0013 36.6982C81.1741 34.7433 80.7678 29.9471 80.7678 27.5885C80.7678 22.6082 74.3618 19.8614 70.3492 19.2183C67.7935 18.8086 66.46 16.4896 66.46 13.8648C66.46 11.2661 71.0189 9.39556 72.8758 9.0438C74.8661 8.66679 74.6303 4.77461 72.8758 4.25234C72.2254 4.05874 71.0963 2.57342 70.5196 2.1228C69.6194 1.41942 68.0895 0.555223 66.971 0.555223H54.1678C52.4414 0.555223 46.5126 -0.421062 45.1118 0.673531C44.3598 1.26112 42.9168 2.62778 41.9323 2.68476C40.4996 2.76769 39.9604 3.99903 38.6108 4.31149C36.1666 4.87739 34.39 6.97729 32.6208 8.30437C29.2752 10.814 25.4441 13.6167 23.5365 17.5915Z" fill="#86BD7A"/>
<path d="M66.005 90.2463C68.0192 87.6541 71.8314 86.0915 73.7778 83.4843C74.3968 82.6551 74.481 81.278 74.9257 80.3513C75.3956 79.3722 75.7484 78.2598 76.2733 77.3223C77.002 76.0208 78.9172 74.3496 80.4158 74.2674C82.8138 74.1359 82.4653 69.9969 83.3356 68.1835C84.2117 66.3579 85.2156 64.7341 86.9291 63.8415C88.4535 63.0474 89.5664 63.0355 91.3087 63.0355C92.7295 63.0355 93.7662 63.7375 95.1268 63.7375C96.1894 63.7375 95.6203 67.3909 95.4762 68.0665C95.4036 68.407 95.1675 69.5137 94.7899 69.5874C94.0145 69.7389 93.863 70.8914 93.4424 71.3554C92.9749 71.8711 92.5598 72.3184 92.0948 72.8634C91.5321 73.523 91.2348 74.5354 90.6973 75.1514C88.7597 77.372 86.8842 80.5699 84.1341 81.8723C82.8239 82.4928 81.9027 83.9644 80.5905 84.5113C79.969 84.7703 79.1179 85.2956 78.6191 85.7332C77.8938 86.3695 77.0795 86.4579 76.2483 86.9032C75.5011 87.3036 74.506 87.8053 73.6281 87.8392C72.9745 87.8644 70.8625 88.2592 70.4837 88.7752C70.0819 89.3227 69.0892 89.4293 68.5123 89.7632C67.2071 90.5187 66.5167 90.2463 66.005 90.2463Z" fill="#86BD7A"/>
</g>
<g filter="url(#filter1_d)">
<path d="M18.1675 32.0792C10.0978 32.0792 6.04701 37.4573 5.10038 41.4346C4.40739 44.3464 5.45802 47.7463 5.77852 51.4654C6.06187 54.7661 7.93602 57.5374 9.85687 58.0984C12.6193 61.6759 15.5557 61.5223 20.4873 61.5223C30.116 61.5223 33.7231 54.1343 33.7231 45.6406C33.7221 39.148 29.2627 32.0792 18.1675 32.0792Z" fill="#FFE51E"/>
</g>
<g filter="url(#filter2_d)">
<path d="M29.9896 46.3344C29.0578 45.0098 27.865 43.9444 25.2501 43.5664C26.2307 44.0272 27.1699 45.6209 27.293 46.5022C27.4161 47.3835 27.5381 48.0959 26.7624 47.2157C23.6519 43.6873 20.2654 45.0762 16.9098 42.9215C14.5655 41.416 13.8513 39.7504 13.8513 39.7504C13.8513 39.7504 13.5658 41.9727 10.0107 44.2385C8.98018 44.8954 7.75127 46.3573 7.06889 48.5164C6.57753 50.0677 6.63272 51.0296 6.7537 52.1222C8.00809 59.0832 12.6149 63.0125 19.1023 63.0125C25.5833 63.0125 30.1838 59.8675 31.4424 52.5841C31.4658 52.2703 31.4902 51.9566 31.4902 51.6374C31.4902 48.9129 31.0519 47.8443 29.9896 46.3344Z" fill="#F3D2A2"/>
</g>
<path d="M24.0976 54.617C23.6869 54.1954 23.1106 54.4078 22.6076 54.6061C22.1046 54.8054 20.9595 55.3871 19.1023 55.3871C17.2452 55.3871 16.1001 54.8054 15.597 54.6061C15.094 54.4067 14.5178 54.1954 14.1071 54.617C14.0084 54.7181 13.9302 54.8381 13.8768 54.9703C13.8234 55.1024 13.7959 55.2441 13.7959 55.3871C13.7959 55.5302 13.8234 55.6719 13.8768 55.804C13.9302 55.9362 14.0084 56.0562 14.1071 56.1573C14.2471 56.3022 16.1616 57.5659 19.1023 57.5659C22.043 57.5659 23.9575 56.3022 24.0976 56.1573C24.1962 56.0562 24.2745 55.9362 24.3279 55.804C24.3813 55.6719 24.4087 55.5302 24.4087 55.3871C24.4087 55.2441 24.3813 55.1024 24.3279 54.9703C24.2745 54.8381 24.1962 54.7181 24.0976 54.617ZM20.1636 53.2084H18.0411C17.7596 53.2084 17.4897 53.0937 17.2907 52.8894C17.0916 52.6851 16.9798 52.408 16.9798 52.1191C16.9798 51.8302 17.0916 51.5531 17.2907 51.3488C17.4897 51.1445 17.7596 51.0297 18.0411 51.0297H20.1636C20.445 51.0297 20.715 51.1445 20.914 51.3488C21.113 51.5531 21.2248 51.8302 21.2248 52.1191C21.2248 52.408 21.113 52.6851 20.914 52.8894C20.715 53.0937 20.445 53.2084 20.1636 53.2084Z" fill="#C1694F"/>
<path d="M14.8574 51.0297C14.5759 51.0297 14.306 50.9149 14.107 50.7106C13.908 50.5063 13.7961 50.2292 13.7961 49.9403V48.851C13.7961 48.562 13.908 48.285 14.107 48.0807C14.306 47.8764 14.5759 47.7616 14.8574 47.7616C15.1388 47.7616 15.4088 47.8764 15.6078 48.0807C15.8068 48.285 15.9186 48.562 15.9186 48.851V49.9403C15.9186 50.2292 15.8068 50.5063 15.6078 50.7106C15.4088 50.9149 15.1388 51.0297 14.8574 51.0297ZM23.3473 51.0297C23.0659 51.0297 22.7959 50.9149 22.5969 50.7106C22.3979 50.5063 22.2861 50.2292 22.2861 49.9403V48.851C22.2861 48.562 22.3979 48.285 22.5969 48.0807C22.7959 47.8764 23.0659 47.7616 23.3473 47.7616C23.6288 47.7616 23.8987 47.8764 24.0977 48.0807C24.2968 48.285 24.4086 48.562 24.4086 48.851V49.9403C24.4086 50.2292 24.2968 50.5063 24.0977 50.7106C23.8987 50.9149 23.6288 51.0297 23.3473 51.0297Z" fill="#662113"/>
<g filter="url(#filter3_d)">
<path d="M56.372 21.1856C48.3024 21.1856 44.2516 26.5638 43.305 30.541C42.612 33.4529 43.6626 36.8527 43.9831 40.5718C44.2665 43.8725 46.1406 46.6439 48.0615 47.2049C50.8239 50.7823 53.7603 50.6287 58.6919 50.6287C68.3206 50.6287 71.9277 43.2407 71.9277 34.747C71.9267 28.2544 67.4673 21.1856 56.372 21.1856Z" fill="#60352A"/>
</g>
<g filter="url(#filter4_d)">
<path d="M68.1943 35.4409C67.2625 34.1163 66.0697 33.0509 63.4548 32.6729C64.4354 33.1337 65.3746 34.7274 65.4977 35.6087C65.6208 36.49 65.7428 37.2024 64.9671 36.3222C61.8566 32.7938 58.4701 34.1827 55.1145 32.028C52.7702 30.5225 52.056 28.8569 52.056 28.8569C52.056 28.8569 51.7705 31.0792 48.2154 33.345C47.1849 34.0019 45.956 35.4638 45.2736 37.6229C44.7822 39.1742 44.8374 40.1361 44.9584 41.2287C46.2128 48.1897 50.8197 52.119 57.307 52.119C63.788 52.119 68.3885 48.974 69.6472 41.6906C69.6705 41.3768 69.6949 41.0631 69.6949 40.7439C69.6949 38.0195 69.2566 36.9508 68.1943 35.4409Z" fill="#AF7E57"/>
</g>
<path d="M62.3023 43.7233C61.8916 43.3017 61.3153 43.5141 60.8123 43.7124C60.3093 43.9118 59.1642 44.4935 57.307 44.4935C55.4499 44.4935 54.3048 43.9118 53.8018 43.7124C53.2987 43.5131 52.7225 43.3017 52.3118 43.7233C52.2131 43.8244 52.1349 43.9444 52.0815 44.0766C52.0281 44.2087 52.0006 44.3504 52.0006 44.4935C52.0006 44.6365 52.0281 44.7782 52.0815 44.9104C52.1349 45.0425 52.2131 45.1626 52.3118 45.2636C52.4519 45.4085 54.3663 46.6722 57.307 46.6722C60.2477 46.6722 62.1622 45.4085 62.3023 45.2636C62.4009 45.1626 62.4792 45.0425 62.5326 44.9104C62.586 44.7782 62.6135 44.6365 62.6135 44.4935C62.6135 44.3504 62.586 44.2087 62.5326 44.0766C62.4792 43.9444 62.4009 43.8244 62.3023 43.7233ZM58.3683 42.3148H56.2458C55.9643 42.3148 55.6944 42.2 55.4954 41.9957C55.2964 41.7914 55.1846 41.5143 55.1846 41.2254C55.1846 40.9365 55.2964 40.6594 55.4954 40.4551C55.6944 40.2508 55.9643 40.136 56.2458 40.136H58.3683C58.6497 40.136 58.9197 40.2508 59.1187 40.4551C59.3177 40.6594 59.4295 40.9365 59.4295 41.2254C59.4295 41.5143 59.3177 41.7914 59.1187 41.9957C58.9197 42.2 58.6497 42.3148 58.3683 42.3148Z" fill="#915A34"/>
<path d="M53.0621 40.1362C52.7806 40.1362 52.5107 40.0215 52.3117 39.8172C52.1127 39.6129 52.0009 39.3358 52.0009 39.0469V37.9575C52.0009 37.6686 52.1127 37.3915 52.3117 37.1872C52.5107 36.9829 52.7806 36.8682 53.0621 36.8682C53.3436 36.8682 53.6135 36.9829 53.8125 37.1872C54.0115 37.3915 54.1233 37.6686 54.1233 37.9575V39.0469C54.1233 39.3358 54.0115 39.6129 53.8125 39.8172C53.6135 40.0215 53.3436 40.1362 53.0621 40.1362ZM61.552 40.1362C61.2706 40.1362 61.0006 40.0215 60.8016 39.8172C60.6026 39.6129 60.4908 39.3358 60.4908 39.0469V37.9575C60.4908 37.6686 60.6026 37.3915 60.8016 37.1872C61.0006 36.9829 61.2706 36.8682 61.552 36.8682C61.8335 36.8682 62.1034 36.9829 62.3024 37.1872C62.5015 37.3915 62.6133 37.6686 62.6133 37.9575V39.0469C62.6133 39.3358 62.5015 39.6129 62.3024 39.8172C62.1034 40.0215 61.8335 40.1362 61.552 40.1362Z" fill="#662113"/>
<g filter="url(#filter5_d)">
<path d="M94.5769 32.0792C86.5072 32.0792 82.4564 37.4573 81.5098 41.4346C80.8168 44.3464 81.8674 47.7463 82.1879 51.4654C82.4713 54.7661 84.3454 57.5374 86.2663 58.0984C89.0287 61.6759 91.9652 61.5223 96.8968 61.5223C106.525 61.5223 110.133 54.1343 110.133 45.6406C110.132 39.148 105.672 32.0792 94.5769 32.0792Z" fill="#0B0200"/>
</g>
<g filter="url(#filter6_d)">
<path d="M106.399 46.3344C105.467 45.0098 104.275 43.9444 101.66 43.5664C102.64 44.0272 103.579 45.6209 103.703 46.5022C103.826 47.3835 103.948 48.0959 103.172 47.2157C100.061 43.6873 96.675 45.0762 93.3193 42.9215C90.975 41.416 90.2608 39.7504 90.2608 39.7504C90.2608 39.7504 89.9754 41.9727 86.4202 44.2385C85.3897 44.8954 84.1608 46.3573 83.4784 48.5164C82.9871 50.0677 83.0423 51.0296 83.1632 52.1222C84.4176 59.0832 89.0245 63.0125 95.5119 63.0125C101.993 63.0125 106.593 59.8675 107.852 52.5841C107.875 52.2703 107.9 51.9566 107.9 51.6374C107.9 48.9129 107.461 47.8443 106.399 46.3344Z" fill="#7C533E"/>
</g>
<path d="M100.507 54.617C100.097 54.1954 99.5203 54.4078 99.0173 54.6061C98.5142 54.8054 97.3692 55.3871 95.512 55.3871C93.6548 55.3871 92.5097 54.8054 92.0067 54.6061C91.5037 54.4067 90.9274 54.1954 90.5167 54.617C90.4181 54.7181 90.3398 54.8381 90.2864 54.9703C90.233 55.1024 90.2056 55.2441 90.2056 55.3871C90.2056 55.5302 90.233 55.6719 90.2864 55.804C90.3398 55.9362 90.4181 56.0562 90.5167 56.1573C90.6568 56.3022 92.5713 57.5659 95.512 57.5659C98.4527 57.5659 100.367 56.3022 100.507 56.1573C100.606 56.0562 100.684 55.9362 100.738 55.804C100.791 55.6719 100.818 55.5302 100.818 55.3871C100.818 55.2441 100.791 55.1024 100.738 54.9703C100.684 54.8381 100.606 54.7181 100.507 54.617ZM96.5732 53.2084H94.4507C94.1693 53.2084 93.8994 53.0937 93.7003 52.8894C93.5013 52.6851 93.3895 52.408 93.3895 52.1191C93.3895 51.8302 93.5013 51.5531 93.7003 51.3488C93.8994 51.1445 94.1693 51.0297 94.4507 51.0297H96.5732C96.8547 51.0297 97.1246 51.1445 97.3236 51.3488C97.5227 51.5531 97.6345 51.8302 97.6345 52.1191C97.6345 52.408 97.5227 52.6851 97.3236 52.8894C97.1246 53.0937 96.8547 53.2084 96.5732 53.2084Z" fill="#3D2E24"/>
<path d="M91.2668 51.0297C90.9853 51.0297 90.7154 50.9149 90.5164 50.7106C90.3174 50.5063 90.2056 50.2292 90.2056 49.9403V48.851C90.2056 48.562 90.3174 48.285 90.5164 48.0807C90.7154 47.8764 90.9853 47.7616 91.2668 47.7616C91.5483 47.7616 91.8182 47.8764 92.0172 48.0807C92.2162 48.285 92.3281 48.562 92.3281 48.851V49.9403C92.3281 50.2292 92.2162 50.5063 92.0172 50.7106C91.8182 50.9149 91.5483 51.0297 91.2668 51.0297ZM99.7567 51.0297C99.4753 51.0297 99.2054 50.9149 99.0063 50.7106C98.8073 50.5063 98.6955 50.2292 98.6955 49.9403V48.851C98.6955 48.562 98.8073 48.285 99.0063 48.0807C99.2054 47.8764 99.4753 47.7616 99.7567 47.7616C100.038 47.7616 100.308 47.8764 100.507 48.0807C100.706 48.285 100.818 48.562 100.818 48.851V49.9403C100.818 50.2292 100.706 50.5063 100.507 50.7106C100.308 50.9149 100.038 51.0297 99.7567 51.0297Z" fill="black"/>
<g filter="url(#filter7_d)">
<path d="M154.756 34.7869C150.905 34.7869 147.397 43.3142 145.884 43.3142C145.231 43.3142 144.715 42.4202 144.303 41.9732C142.687 40.2196 139.317 37.6408 136.876 37.6408C136.188 37.6408 135.5 37.8471 134.985 38.3285C133.334 39.8758 132.475 53.8358 132.475 56.6553C132.475 58.5464 133.369 59.5092 135.294 59.5092C137.254 59.5092 138.045 58.5808 138.045 56.6897C138.045 53.1137 138.286 49.6065 138.664 46.0306C138.698 45.6523 138.801 43.8644 139.283 43.8644C140.211 43.8644 143.34 49.1251 145.988 49.1251C149.151 49.1251 151.283 44.3801 151.73 44.3801C151.902 44.3801 151.902 44.6552 151.902 44.7583C152.005 46.4776 151.97 48.2312 152.039 49.9504C152.142 52.3916 151.799 56.3458 155.306 56.3458C156.475 56.3458 158.297 55.5206 158.297 54.1452C158.297 53.5263 157.816 52.9418 157.678 52.3229C157.472 51.3945 157.506 50.3974 157.472 49.4346C157.3 45.446 157.369 41.4231 157.369 37.4345C157.369 35.7497 156.475 34.7869 154.756 34.7869Z" fill="#BD22F3"/>
<path d="M178.149 55.555C178.459 55.555 179.353 57.343 181.485 57.343C182.619 57.343 184.511 56.6897 184.511 55.3487C184.511 54.4547 183.582 53.9046 183.376 53.0106C182.688 49.916 182.516 44.6208 182.516 41.4231C182.516 39.0849 182.723 36.2654 179.49 36.2654C178.665 36.2654 177.84 36.5405 177.255 37.1594C176.396 38.0534 176.74 39.7382 176.74 40.8729C176.74 44.4489 174.711 51.3601 172.682 54.1452C172.201 54.8329 171.479 55.8645 170.791 54.9705C169.106 52.9762 169.382 46.8214 169.382 44.2426C169.382 41.8357 169.313 39.4632 166.184 39.4632C165.015 39.4632 163.467 40.0821 163.467 41.4918C163.467 41.9045 163.571 42.3514 163.605 42.7641C163.674 43.6237 163.674 44.4833 163.674 45.3429C163.742 50.9475 163.674 59.4748 171.341 59.4748C175.743 59.4748 177.771 55.555 178.149 55.555Z" fill="#BD22F3"/>
<path d="M208.398 53.9389V38.3973C208.398 36.6437 207.298 35.9216 205.613 35.9216C203.722 35.9216 202.725 36.8844 202.725 38.7755C202.725 39.4976 202.828 40.2196 202.828 40.9417V46.6151C202.828 46.7182 202.828 46.9933 202.656 46.9933C201.762 46.6839 197.257 38.0534 192.925 38.0534C190.896 38.0534 190.209 39.0162 190.209 40.9073C190.209 43.9675 190.174 47.0277 189.934 50.0879C189.796 51.9447 189.659 53.8014 189.659 55.6581C189.659 57.4461 190.828 58.1338 192.478 58.1338C192.753 58.1338 193.028 58.0994 193.269 58.065C195.16 57.7212 195.263 56.3802 195.263 54.7642C195.263 52.2197 195.504 49.6409 195.71 47.0965C195.71 46.9933 195.71 46.7182 195.916 46.7182C196.26 46.8214 200.146 52.3573 200.696 53.1137C201.899 54.7985 203.275 57.2398 205.647 57.2398C207.951 57.2398 208.398 55.9332 208.398 53.9389Z" fill="#BD22F3"/>
<path d="M213.945 38.019C213.945 38.466 214.22 38.8099 214.22 39.2569C214.22 39.5319 214.116 39.7039 214.013 39.9789C213.635 41.148 213.566 42.8328 213.566 44.0363C213.566 46.5463 213.91 48.9876 214.185 51.4633C214.357 53.1137 214.529 54.7298 214.667 56.3802C214.804 57.8931 215.664 58.4433 217.039 58.7527C217.83 58.9246 218.655 58.9934 219.446 58.9934C226.013 58.9934 230.174 53.767 230.174 47.4747C230.174 41.1136 226.048 35.7153 219.412 35.7153C218.036 35.7153 213.945 36.1279 213.945 38.019ZM220.478 55.108C220.099 55.108 219.962 54.6954 219.927 54.3859C219.515 50.7756 218.999 47.1996 218.999 43.5549C218.999 42.6265 219.033 41.4231 219.377 40.5291C219.515 40.1852 219.962 39.807 220.271 39.6695C220.89 39.7726 221.475 40.0821 221.956 40.4603C224.019 42.042 224.741 44.9647 224.741 47.4403C224.741 50.2598 223.778 53.8014 220.925 54.9705C220.856 55.0048 220.546 55.108 220.478 55.108Z" fill="#BD22F3"/>
<path d="M244.196 57.79C251.211 57.79 255.268 51.9446 255.268 45.3429C255.268 39.9102 252.38 36.0935 246.706 36.0935C245.572 36.0935 244.471 36.2311 243.371 36.403C237.835 37.3314 234.809 43.0735 234.809 48.3343C234.809 54.0077 238.454 57.79 244.196 57.79ZM244.781 40.2884C245.262 40.2884 245.744 40.3915 246.225 40.3915C246.637 40.3915 247.016 40.2884 247.428 40.2884C249.251 40.2884 249.801 44.1394 249.801 45.5148C249.801 48.6094 248.013 53.9045 244.299 53.9045C241.17 53.9045 240.311 50.7068 240.311 48.128C240.311 45.7899 241.858 40.2884 244.781 40.2884Z" fill="#BD22F3"/>
<path d="M268.879 38.019C268.879 38.466 269.154 38.8099 269.154 39.2569C269.154 39.5319 269.051 39.7039 268.947 39.9789C268.569 41.148 268.5 42.8328 268.5 44.0363C268.5 46.5463 268.844 48.9876 269.119 51.4633C269.291 53.1137 269.463 54.7298 269.601 56.3802C269.738 57.8931 270.598 58.4433 271.973 58.7527C272.764 58.9246 273.589 58.9934 274.38 58.9934C280.948 58.9934 285.108 53.767 285.108 47.4747C285.108 41.1136 280.982 35.7153 274.346 35.7153C272.97 35.7153 268.879 36.1279 268.879 38.019ZM275.412 55.108C275.034 55.108 274.896 54.6954 274.862 54.3859C274.449 50.7756 273.933 47.1996 273.933 43.5549C273.933 42.6265 273.968 41.4231 274.311 40.5291C274.449 40.1852 274.896 39.807 275.205 39.6695C275.824 39.7726 276.409 40.0821 276.89 40.4603C278.953 42.042 279.675 44.9647 279.675 47.4403C279.675 50.2598 278.713 53.8014 275.859 54.9705C275.79 55.0048 275.48 55.108 275.412 55.108Z" fill="#BD22F3"/>
<path d="M290.294 55.6238C290.294 57.9275 290.053 60.2312 293.148 60.2312C294.385 60.2312 295.933 59.6467 295.933 58.2026V49.5034C295.933 47.4403 296.036 46.5807 296.036 44.5177C296.036 42.2827 295.967 40.4947 293.182 40.4947C291.978 40.4947 290.431 41.0448 290.431 42.489V49.9504C290.431 51.8415 290.294 53.7326 290.294 55.6238ZM293.457 32.4488C288.884 32.4488 289.743 37.3314 293.319 37.3314C297.824 37.3314 296.999 32.4488 293.457 32.4488Z" fill="#BD22F3"/>
<path d="M309.556 50.7756C308.386 47.8185 307.596 44.6896 307.183 41.5262C307.011 40.254 306.736 39.2569 305.361 38.8443C305.017 38.7411 304.639 38.7067 304.295 38.7067C302.919 38.7067 301.441 39.2913 301.441 40.8729C301.441 41.4918 301.613 42.1108 301.716 42.7297C302.576 47.8873 304.295 52.7355 306.495 57.4461C307.355 59.1997 308.077 60.7814 310.174 60.7814C312.134 60.7814 312.856 59.3029 313.441 57.7556C315.298 52.8043 316.673 47.7498 318.117 42.6609C318.427 41.5262 320.352 35.8872 320.352 35.3371C320.352 33.9273 318.736 33.3772 317.533 33.3772C316.467 33.3772 315.229 33.7554 314.816 34.8557C312.856 40.0133 311.825 45.5148 310.071 50.7412C309.934 51.1538 309.693 51.1882 309.556 50.7756Z" fill="#BD22F3"/>
<path d="M329.127 59.3029H336.072C337.345 59.3029 338.376 59.1653 338.376 57.4117C338.376 55.7269 337.31 55.555 336.072 55.555H332.29C330.846 55.555 330.846 55.7957 330.846 54.3515C330.846 53.0793 330.88 51.8415 330.88 50.5693C330.88 50.1911 330.949 50.0535 331.293 49.916C332.497 49.5034 336.072 48.5406 336.072 46.9246C336.072 45.8243 334.56 45.1366 333.597 45.1366C332.909 45.1366 332.221 45.5148 331.637 45.5148C331.327 45.5148 331.19 45.2741 331.19 44.999C331.19 43.3486 331.362 41.2168 331.465 39.5319C331.499 39.0506 331.809 38.8443 332.256 38.8443C333.494 38.8443 334.731 39.0162 335.969 39.0162C337.242 39.0162 338.892 38.8786 338.892 37.0563C338.892 34.8557 336.623 35.1651 335.247 35.1651C332.462 35.1651 331.018 35.1651 328.817 35.1651C327.683 35.1651 326.376 35.5434 326.273 36.85C326.067 39.1193 326.067 41.0448 325.964 43.3142C325.792 46.6495 325.517 50.0191 325.517 53.3544C325.517 54.7298 325.551 56.0708 325.654 57.4117C325.826 59.1653 327.751 59.3029 329.127 59.3029Z" fill="#BD22F3"/>
<path d="M354.505 49.6065C354.505 49.4346 354.642 49.2971 354.78 49.1939C357.015 47.3372 358.459 44.8615 358.459 41.9045C358.459 37.4001 354.78 34.6494 350.516 34.6494C348.866 34.6494 345.118 35.3715 344.258 36.9875C344.086 37.297 344.052 37.6408 344.052 37.9847C344.052 42.4202 344.292 46.34 344.396 50.7756C344.464 52.7699 344.396 55.555 344.396 57.4461C344.396 59.1653 345.324 60.0593 347.043 60.0593C347.731 60.0593 348.419 59.8874 349.003 59.5092C349.828 58.959 349.897 58.1682 349.931 57.2742C350 55.7957 349.966 54.2828 349.966 52.8043C349.966 52.7011 349.966 52.426 350.138 52.426C350.825 52.426 353.576 58.4089 357.255 58.4089C358.493 58.4089 360.625 57.4805 360.006 55.9676C359.593 54.9017 358.528 54.8329 357.84 54.0765C356.705 52.8043 355.949 51.257 354.745 50.0535C354.642 49.9504 354.505 49.8128 354.505 49.6065ZM353.06 42.2827C353.06 44.0707 352.063 45.893 350.482 46.7526C350.378 46.787 350.31 46.8214 350.207 46.8214C349.897 46.8214 349.794 46.5807 349.76 46.3056C349.656 44.7583 349.588 43.1767 349.553 41.6294L349.484 39.1193C349.484 38.5348 350.103 38.466 350.585 38.466C352.442 38.466 353.06 40.7698 353.06 42.2827Z" fill="#BD22F3"/>
<path d="M366.338 42.5578C366.338 46.5807 368.264 50.6724 368.264 54.5235C368.264 54.8329 368.23 55.1424 367.886 55.2112C366.82 55.4175 365.307 55.6238 365.307 57.1023C365.307 58.684 367.232 59.131 368.47 59.131C371.977 59.131 373.662 57.5149 373.662 54.0421C373.662 50.0879 371.84 46.3744 371.84 42.4202C371.84 41.3199 372.081 39.6007 373.387 39.2913C373.765 39.1881 374.109 39.2225 374.487 39.0849C375.244 38.8099 375.932 38.1566 375.932 37.297C375.932 35.9216 374.35 35.4402 373.25 35.4402C368.917 35.4402 366.338 38.3629 366.338 42.5578Z" fill="#BD22F3"/>
<path d="M390.579 38.2253C384.871 38.2253 380.573 43.1767 380.573 48.7125C380.573 53.5607 384.08 57.4805 389.031 57.4805C394.774 57.4805 400 51.979 400 46.3056C400 41.3887 394.842 38.2253 390.579 38.2253ZM389.135 53.4919C387.106 53.4919 386.143 50.5005 386.143 48.8501C386.143 46.6495 387.278 43.5205 389.41 42.5234C392.126 41.1824 394.361 44.4489 394.361 46.4776C394.361 48.9532 391.954 53.4919 389.135 53.4919Z" fill="#BD22F3"/>
</g>
<defs>
<filter id="filter0_d" x="9.86856" y="0.154358" width="94.8768" height="98.5608" filterUnits="userSpaceOnUse" color-interpolation-filters="sRGB">
<feFlood flood-opacity="0" result="BackgroundImageFix"/>
<feColorMatrix in="SourceAlpha" type="matrix" values="0 0 0 0 0 0 0 0 0 0 0 0 0 0 0 0 0 0 127 0"/>
<feOffset dy="3.43478"/>
<feGaussianBlur stdDeviation="1.71739"/>
<feColorMatrix type="matrix" values="0 0 0 0 0 0 0 0 0 0 0 0 0 0 0 0 0 0 0.2 0"/>
<feBlend mode="normal" in2="BackgroundImageFix" result="effect1_dropShadow"/>
<feBlend mode="normal" in="SourceGraphic" in2="effect1_dropShadow" result="shape"/>
</filter>
<filter id="filter1_d" x="4.00983" y="32.0792" width="30.572" height="31.1615" filterUnits="userSpaceOnUse" color-interpolation-filters="sRGB">
<feFlood flood-opacity="0" result="BackgroundImageFix"/>
<feColorMatrix in="SourceAlpha" type="matrix" values="0 0 0 0 0 0 0 0 0 0 0 0 0 0 0 0 0 0 127 0"/>
<feOffset dy="0.858696"/>
<feGaussianBlur stdDeviation="0.429348"/>
<feColorMatrix type="matrix" values="0 0 0 0 0 0 0 0 0 0 0 0 0 0 0 0 0 0 0.15 0"/>
<feBlend mode="normal" in2="BackgroundImageFix" result="effect1_dropShadow"/>
<feBlend mode="normal" in="SourceGraphic" in2="effect1_dropShadow" result="shape"/>
</filter>
<filter id="filter2_d" x="5.81196" y="39.7504" width="26.5369" height="24.9795" filterUnits="userSpaceOnUse" color-interpolation-filters="sRGB">
<feFlood flood-opacity="0" result="BackgroundImageFix"/>
<feColorMatrix in="SourceAlpha" type="matrix" values="0 0 0 0 0 0 0 0 0 0 0 0 0 0 0 0 0 0 127 0"/>
<feOffset dy="0.858696"/>
<feGaussianBlur stdDeviation="0.429348"/>
<feColorMatrix type="matrix" values="0 0 0 0 0 0 0 0 0 0 0 0 0 0 0 0 0 0 0.15 0"/>
<feBlend mode="normal" in2="BackgroundImageFix" result="effect1_dropShadow"/>
<feBlend mode="normal" in="SourceGraphic" in2="effect1_dropShadow" result="shape"/>
</filter>
<filter id="filter3_d" x="42.2144" y="21.1856" width="30.572" height="31.1615" filterUnits="userSpaceOnUse" color-interpolation-filters="sRGB">
<feFlood flood-opacity="0" result="BackgroundImageFix"/>
<feColorMatrix in="SourceAlpha" type="matrix" values="0 0 0 0 0 0 0 0 0 0 0 0 0 0 0 0 0 0 127 0"/>
<feOffset dy="0.858696"/>
<feGaussianBlur stdDeviation="0.429348"/>
<feColorMatrix type="matrix" values="0 0 0 0 0 0 0 0 0 0 0 0 0 0 0 0 0 0 0.15 0"/>
<feBlend mode="normal" in2="BackgroundImageFix" result="effect1_dropShadow"/>
<feBlend mode="normal" in="SourceGraphic" in2="effect1_dropShadow" result="shape"/>
</filter>
<filter id="filter4_d" x="44.0167" y="28.8569" width="26.5369" height="24.9795" filterUnits="userSpaceOnUse" color-interpolation-filters="sRGB">
<feFlood flood-opacity="0" result="BackgroundImageFix"/>
<feColorMatrix in="SourceAlpha" type="matrix" values="0 0 0 0 0 0 0 0 0 0 0 0 0 0 0 0 0 0 127 0"/>
<feOffset dy="0.858696"/>
<feGaussianBlur stdDeviation="0.429348"/>
<feColorMatrix type="matrix" values="0 0 0 0 0 0 0 0 0 0 0 0 0 0 0 0 0 0 0.15 0"/>
<feBlend mode="normal" in2="BackgroundImageFix" result="effect1_dropShadow"/>
<feBlend mode="normal" in="SourceGraphic" in2="effect1_dropShadow" result="shape"/>
</filter>
<filter id="filter5_d" x="80.4193" y="32.0792" width="30.572" height="31.1615" filterUnits="userSpaceOnUse" color-interpolation-filters="sRGB">
<feFlood flood-opacity="0" result="BackgroundImageFix"/>
<feColorMatrix in="SourceAlpha" type="matrix" values="0 0 0 0 0 0 0 0 0 0 0 0 0 0 0 0 0 0 127 0"/>
<feOffset dy="0.858696"/>
<feGaussianBlur stdDeviation="0.429348"/>
<feColorMatrix type="matrix" values="0 0 0 0 0 0 0 0 0 0 0 0 0 0 0 0 0 0 0.15 0"/>
<feBlend mode="normal" in2="BackgroundImageFix" result="effect1_dropShadow"/>
<feBlend mode="normal" in="SourceGraphic" in2="effect1_dropShadow" result="shape"/>
</filter>
<filter id="filter6_d" x="82.2215" y="39.7504" width="26.5369" height="24.9795" filterUnits="userSpaceOnUse" color-interpolation-filters="sRGB">
<feFlood flood-opacity="0" result="BackgroundImageFix"/>
<feColorMatrix in="SourceAlpha" type="matrix" values="0 0 0 0 0 0 0 0 0 0 0 0 0 0 0 0 0 0 127 0"/>
<feOffset dy="0.858696"/>
<feGaussianBlur stdDeviation="0.429348"/>
<feColorMatrix type="matrix" values="0 0 0 0 0 0 0 0 0 0 0 0 0 0 0 0 0 0 0.15 0"/>
<feBlend mode="normal" in2="BackgroundImageFix" result="effect1_dropShadow"/>
<feBlend mode="normal" in="SourceGraphic" in2="effect1_dropShadow" result="shape"/>
</filter>
<filter id="filter7_d" x="128.475" y="32.4488" width="275.525" height="36.3326" filterUnits="userSpaceOnUse" color-interpolation-filters="sRGB">
<feFlood flood-opacity="0" result="BackgroundImageFix"/>
<feColorMatrix in="SourceAlpha" type="matrix" values="0 0 0 0 0 0 0 0 0 0 0 0 0 0 0 0 0 0 127 0"/>
<feOffset dy="4"/>
<feGaussianBlur stdDeviation="2"/>
<feColorMatrix type="matrix" values="0 0 0 0 0 0 0 0 0 0 0 0 0 0 0 0 0 0 0.15 0"/>
<feBlend mode="normal" in2="BackgroundImageFix" result="effect1_dropShadow"/>
<feBlend mode="normal" in="SourceGraphic" in2="effect1_dropShadow" result="shape"/>
</filter>
</defs>
</svg>
