<svg width="245" height="62" viewBox="0 0 245 62" fill="none" xmlns="http://www.w3.org/2000/svg">
<g filter="url(#filter0_d)">
<ellipse cx="34.8836" cy="27.5074" rx="26.4022" ry="27.5074" fill="#C4F0F7"/>
<path d="M14.6221 10.4623C15.6702 12.0092 15.7691 13.5265 17.3814 14.3664C17.9488 14.662 18.3266 15.23 18.9144 15.5022C19.5232 15.7841 20.293 15.6968 20.9073 16.0523C23.4213 17.5075 25.3529 17.7406 25.3529 21.1632C25.3529 22.0849 26.5793 21.7624 26.5793 22.7604V25.4046C26.5793 26.5581 27.0042 29.2557 25.4722 29.6104C24.7341 29.7813 23.82 29.512 23.82 30.5864V33.4613C23.82 35.1804 23.8468 36.2732 23.2068 37.7736C22.6267 39.1334 21.0168 39.8727 20.4133 41.2873C19.8473 42.6141 18.3631 43.6762 18.3012 45.3512C18.2747 46.071 17.695 48.545 18.4716 48.7762C19.0334 48.9435 19.4188 49.6028 19.9875 49.7345C20.6957 49.8985 20.9073 48.9182 21.3672 48.2261C22.3813 46.7 23.8572 44.8132 25.5062 44.0203C27.5604 43.0325 29.8014 43.3636 32.0299 43.3636C33.6935 43.3636 34.734 43.1374 35.9135 41.9085C36.6824 41.1073 37.2433 39.672 38.3663 39.2465C39.0258 38.9967 40.792 38.6812 41.2278 38.1818C41.3801 38.0073 41.8996 35.7145 41.9092 35.3779C41.9314 34.5912 42.0632 33.4684 41.841 32.716C41.4195 31.2886 40.9202 29.986 40.6657 28.5279C40.4566 27.3297 41.4667 27.5485 42.1987 26.913C42.9405 26.2689 43.443 25.2972 44.1235 24.5882C44.9149 23.7637 45.6833 23.6291 46.5762 23.0976C47.0564 22.8117 48.2218 22.3916 48.501 21.9263C49.2046 20.7534 48.9609 17.8756 48.9609 16.4605C48.9609 13.4723 45.1172 11.8242 42.7097 11.4383C41.1762 11.1925 40.3762 9.80112 40.3762 8.22628C40.3762 6.66705 43.1115 5.54472 44.2257 5.33366C45.4198 5.10746 45.2784 2.77215 44.2257 2.45879C43.8354 2.34263 43.1579 1.45144 42.8119 1.18106C42.2718 0.75904 41.3539 0.240519 40.6828 0.240519H33.0008C31.965 0.240519 28.4077 -0.345252 27.5673 0.311504C27.1161 0.664056 26.2502 1.48405 25.6595 1.51824C24.7999 1.568 24.4764 2.30681 23.6667 2.49428C22.2001 2.83382 21.1341 4.09376 20.0727 4.89001C18.0653 6.3958 15.7666 8.0774 14.6221 10.4623Z" fill="#86BD7A"/>
<path d="M40.103 54.0553C41.3115 52.4999 43.5989 51.5624 44.7667 49.998C45.1381 49.5005 45.1886 48.6743 45.4555 48.1182C45.7374 47.5308 45.9491 46.8633 46.264 46.3009C46.7013 45.5199 47.8503 44.5172 48.7495 44.4679C50.1883 44.389 49.9792 41.9056 50.5014 40.8175C51.027 39.7222 51.6294 38.7479 52.6575 38.2124C53.5721 37.7359 54.2399 37.7288 55.2853 37.7288C56.1377 37.7288 56.7597 38.15 57.5761 38.15C58.2137 38.15 57.8722 40.342 57.7857 40.7473C57.7422 40.9516 57.6005 41.6157 57.374 41.6599C56.9087 41.7508 56.8178 42.4423 56.5654 42.7207C56.285 43.0301 56.0359 43.2985 55.7569 43.6255C55.4193 44.0212 55.2409 44.6287 54.9184 44.9983C53.7558 46.3307 52.6306 48.2494 50.9805 49.0308C50.1944 49.4031 49.6417 50.2861 48.8543 50.6142C48.4814 50.7696 47.9708 51.0848 47.6715 51.3474C47.2363 51.7292 46.7478 51.7822 46.249 52.0494C45.8007 52.2896 45.2036 52.5907 44.6769 52.611C44.2847 52.6261 43.0175 52.8629 42.7903 53.1726C42.5492 53.501 41.9535 53.565 41.6074 53.7654C40.8243 54.2186 40.41 54.0553 40.103 54.0553Z" fill="#86BD7A"/>
</g>
<g clip-path="url(#clip0)">
<g filter="url(#filter1_d)">
<path d="M11.4003 19.1548C6.55844 19.1548 4.12799 22.3817 3.56001 24.768C3.14422 26.5151 3.77459 28.5551 3.96689 30.7865C4.1369 32.7669 5.26139 34.4297 6.4139 34.7664C8.07135 36.9128 9.83323 36.8207 12.7922 36.8207C18.5694 36.8207 20.7337 32.3879 20.7337 27.2916C20.733 23.3961 18.0574 19.1548 11.4003 19.1548Z" fill="#FFE51E"/>
</g>
<g filter="url(#filter2_d)">
<path d="M18.4938 27.708C17.9347 26.9132 17.219 26.274 15.6501 26.0472C16.2385 26.3237 16.802 27.2799 16.8758 27.8087C16.9497 28.3374 17.0229 28.7649 16.5575 28.2368C14.6912 26.1197 12.6593 26.9531 10.6459 25.6602C9.23935 24.7569 8.81082 23.7576 8.81082 23.7576C8.81082 23.7576 8.63954 25.0909 6.50644 26.4505C5.88816 26.8446 5.15081 27.7217 4.74138 29.0172C4.44657 29.9479 4.47968 30.5251 4.55227 31.1807C5.3049 35.3573 8.06901 37.7148 11.9614 37.7148C15.85 37.7148 18.6103 35.8279 19.3655 31.4578C19.3795 31.2696 19.3942 31.0813 19.3942 30.8898C19.3942 29.2551 19.1312 28.6139 18.4938 27.708Z" fill="#F3D2A2"/>
</g>
<path d="M14.9584 32.6775C14.7119 32.4245 14.3662 32.552 14.0644 32.671C13.7626 32.7906 13.0755 33.1396 11.9612 33.1396C10.8469 33.1396 10.1598 32.7906 9.85803 32.671C9.55621 32.5513 9.21046 32.4245 8.96404 32.6775C8.90486 32.7381 8.8579 32.8102 8.82587 32.8895C8.79383 32.9688 8.77734 33.0538 8.77734 33.1396C8.77734 33.2254 8.79383 33.3104 8.82587 33.3897C8.8579 33.469 8.90486 33.5411 8.96404 33.6017C9.04809 33.6886 10.1968 34.4468 11.9612 34.4468C13.7256 34.4468 14.8743 33.6886 14.9584 33.6017C15.0175 33.5411 15.0645 33.469 15.0965 33.3897C15.1286 33.3104 15.1451 33.2254 15.1451 33.1396C15.1451 33.0538 15.1286 32.9688 15.0965 32.8895C15.0645 32.8102 15.0175 32.7381 14.9584 32.6775ZM12.5979 31.8324H11.3245C11.1556 31.8324 10.9936 31.7635 10.8742 31.6409C10.7548 31.5184 10.6877 31.3521 10.6877 31.1788C10.6877 31.0054 10.7548 30.8392 10.8742 30.7166C10.9936 30.594 11.1556 30.5251 11.3245 30.5251H12.5979C12.7668 30.5251 12.9288 30.594 13.0482 30.7166C13.1676 30.8392 13.2347 31.0054 13.2347 31.1788C13.2347 31.3521 13.1676 31.5184 13.0482 31.6409C12.9288 31.7635 12.7668 31.8324 12.5979 31.8324Z" fill="#C1694F"/>
<path d="M9.41458 30.5251C9.2457 30.5251 9.08374 30.4562 8.96433 30.3336C8.84492 30.211 8.77783 30.0448 8.77783 29.8714V29.2178C8.77783 29.0445 8.84492 28.8782 8.96433 28.7556C9.08374 28.6331 9.2457 28.5642 9.41458 28.5642C9.58345 28.5642 9.74541 28.6331 9.86482 28.7556C9.98424 28.8782 10.0513 29.0445 10.0513 29.2178V29.8714C10.0513 30.0448 9.98424 30.211 9.86482 30.3336C9.74541 30.4562 9.58345 30.5251 9.41458 30.5251ZM14.5085 30.5251C14.3397 30.5251 14.1777 30.4562 14.0583 30.3336C13.9389 30.211 13.8718 30.0448 13.8718 29.8714V29.2178C13.8718 29.0445 13.9389 28.8782 14.0583 28.7556C14.1777 28.6331 14.3397 28.5642 14.5085 28.5642C14.6774 28.5642 14.8394 28.6331 14.9588 28.7556C15.0782 28.8782 15.1453 29.0445 15.1453 29.2178V29.8714C15.1453 30.0448 15.0782 30.211 14.9588 30.3336C14.8394 30.4562 14.6774 30.5251 14.5085 30.5251Z" fill="#662113"/>
</g>
<g clip-path="url(#clip1)">
<g filter="url(#filter3_d)">
<path d="M34.3231 12.6187C29.4813 12.6187 27.0508 15.8455 26.4829 18.2319C26.0671 19.979 26.6974 22.0189 26.8897 24.2504C27.0598 26.2308 28.1842 27.8936 29.3368 28.2302C30.9942 30.3767 32.7561 30.2845 35.715 30.2845C41.4922 30.2845 43.6565 25.8517 43.6565 20.7555C43.6559 16.86 40.9803 12.6187 34.3231 12.6187Z" fill="#60352A"/>
</g>
<g filter="url(#filter4_d)">
<path d="M41.4167 21.1719C40.8576 20.3771 40.1419 19.7378 38.573 19.511C39.1613 19.7875 39.7248 20.7438 39.7987 21.2725C39.8726 21.8013 39.9458 22.2288 39.4803 21.7007C37.614 19.5836 35.5822 20.417 33.5688 19.1241C32.1622 18.2208 31.7337 17.2214 31.7337 17.2214C31.7337 17.2214 31.5624 18.5548 29.4293 19.9143C28.811 20.3085 28.0737 21.1856 27.6642 22.4811C27.3694 23.4118 27.4025 23.989 27.4751 24.6445C28.2278 28.8211 30.9919 31.1787 34.8843 31.1787C38.7729 31.1787 41.5332 29.2917 42.2884 24.9217C42.3024 24.7334 42.317 24.5452 42.317 24.3537C42.317 22.719 42.054 22.0778 41.4167 21.1719Z" fill="#AF7E57"/>
</g>
<path d="M37.8812 26.1414C37.6348 25.8884 37.289 26.0159 36.9872 26.1348C36.6854 26.2544 35.9984 26.6035 34.8841 26.6035C33.7697 26.6035 33.0827 26.2544 32.7809 26.1348C32.4791 26.0152 32.1333 25.8884 31.8869 26.1414C31.8277 26.202 31.7808 26.274 31.7487 26.3533C31.7167 26.4326 31.7002 26.5176 31.7002 26.6035C31.7002 26.6893 31.7167 26.7743 31.7487 26.8536C31.7808 26.9329 31.8277 27.0049 31.8869 27.0656C31.9709 27.1525 33.1196 27.9107 34.8841 27.9107C36.6485 27.9107 37.7972 27.1525 37.8812 27.0656C37.9404 27.0049 37.9873 26.9329 38.0194 26.8536C38.0514 26.7743 38.0679 26.6893 38.0679 26.6035C38.0679 26.5176 38.0514 26.4326 38.0194 26.3533C37.9873 26.274 37.9404 26.202 37.8812 26.1414ZM35.5208 25.2962H34.2473C34.0784 25.2962 33.9165 25.2274 33.7971 25.1048C33.6776 24.9822 33.6106 24.816 33.6106 24.6426C33.6106 24.4693 33.6776 24.303 33.7971 24.1805C33.9165 24.0579 34.0784 23.989 34.2473 23.989H35.5208C35.6897 23.989 35.8516 24.0579 35.971 24.1805C36.0905 24.303 36.1575 24.4693 36.1575 24.6426C36.1575 24.816 36.0905 24.9822 35.971 25.1048C35.8516 25.2274 35.6897 25.2962 35.5208 25.2962Z" fill="#915A34"/>
<path d="M32.3374 23.9889C32.1686 23.9889 32.0066 23.9201 31.8872 23.7975C31.7678 23.6749 31.7007 23.5087 31.7007 23.3353V22.6817C31.7007 22.5083 31.7678 22.3421 31.8872 22.2195C32.0066 22.0969 32.1686 22.0281 32.3374 22.0281C32.5063 22.0281 32.6683 22.0969 32.7877 22.2195C32.9071 22.3421 32.9742 22.5083 32.9742 22.6817V23.3353C32.9742 23.5087 32.9071 23.6749 32.7877 23.7975C32.6683 23.9201 32.5063 23.9889 32.3374 23.9889ZM37.4314 23.9889C37.2625 23.9889 37.1006 23.9201 36.9811 23.7975C36.8617 23.6749 36.7946 23.5087 36.7946 23.3353V22.6817C36.7946 22.5083 36.8617 22.3421 36.9811 22.2195C37.1006 22.0969 37.2625 22.0281 37.4314 22.0281C37.6003 22.0281 37.7622 22.0969 37.8816 22.2195C38.0011 22.3421 38.0681 22.5083 38.0681 22.6817V23.3353C38.0681 23.5087 38.0011 23.6749 37.8816 23.7975C37.7622 23.9201 37.6003 23.9889 37.4314 23.9889Z" fill="#662113"/>
</g>
<g clip-path="url(#clip2)">
<g filter="url(#filter5_d)">
<path d="M57.2455 19.1548C52.4037 19.1548 49.9732 22.3817 49.4052 24.768C48.9894 26.5151 49.6198 28.5551 49.8121 30.7865C49.9821 32.7669 51.1066 34.4297 52.2591 34.7664C53.9166 36.9128 55.6784 36.8207 58.6374 36.8207C64.4146 36.8207 66.5789 32.3879 66.5789 27.2916C66.5782 23.3961 63.9026 19.1548 57.2455 19.1548Z" fill="#0B0200"/>
</g>
<g filter="url(#filter6_d)">
<path d="M64.339 27.708C63.78 26.9132 63.0643 26.274 61.4953 26.0472C62.0837 26.3237 62.6472 27.2799 62.7211 27.8087C62.7949 28.3374 62.8681 28.7649 62.4027 28.2368C60.5364 26.1197 58.5045 26.9531 56.4911 25.6602C55.0846 24.7569 54.656 23.7576 54.656 23.7576C54.656 23.7576 54.4848 25.0909 52.3517 26.4505C51.7334 26.8446 50.996 27.7217 50.5866 29.0172C50.2918 29.9479 50.3249 30.5251 50.3975 31.1807C51.1501 35.3573 53.9142 37.7148 57.8067 37.7148C61.6953 37.7148 64.4556 35.8279 65.2107 31.4578C65.2247 31.2696 65.2394 31.0813 65.2394 30.8898C65.2394 29.2551 64.9764 28.6139 64.339 27.708Z" fill="#7C533E"/>
</g>
<path d="M60.8041 32.6775C60.5576 32.4245 60.2119 32.552 59.9101 32.671C59.6083 32.7906 58.9212 33.1396 57.8069 33.1396C56.6926 33.1396 56.0055 32.7906 55.7037 32.671C55.4019 32.5513 55.0562 32.4245 54.8097 32.6775C54.7506 32.7381 54.7036 32.8102 54.6716 32.8895C54.6395 32.9688 54.623 33.0538 54.623 33.1396C54.623 33.2254 54.6395 33.3104 54.6716 33.3897C54.7036 33.469 54.7506 33.5411 54.8097 33.6017C54.8938 33.6886 56.0425 34.4468 57.8069 34.4468C59.5713 34.4468 60.72 33.6886 60.8041 33.6017C60.8632 33.5411 60.9102 33.469 60.9422 33.3897C60.9743 33.3104 60.9908 33.2254 60.9908 33.1396C60.9908 33.0538 60.9743 32.9688 60.9422 32.8895C60.9102 32.8102 60.8632 32.7381 60.8041 32.6775ZM58.4436 31.8324H57.1702C57.0013 31.8324 56.8393 31.7635 56.7199 31.6409C56.6005 31.5184 56.5334 31.3521 56.5334 31.1788C56.5334 31.0054 56.6005 30.8392 56.7199 30.7166C56.8393 30.594 57.0013 30.5251 57.1702 30.5251H58.4436C58.6125 30.5251 58.7745 30.594 58.8939 30.7166C59.0133 30.8392 59.0804 31.0054 59.0804 31.1788C59.0804 31.3521 59.0133 31.5184 58.8939 31.6409C58.7745 31.7635 58.6125 31.8324 58.4436 31.8324Z" fill="#3D2E24"/>
<path d="M55.2598 30.5251C55.0909 30.5251 54.929 30.4562 54.8095 30.3336C54.6901 30.211 54.623 30.0448 54.623 29.8714V29.2178C54.623 29.0445 54.6901 28.8782 54.8095 28.7556C54.929 28.6331 55.0909 28.5642 55.2598 28.5642C55.4287 28.5642 55.5906 28.6331 55.71 28.7556C55.8295 28.8782 55.8965 29.0445 55.8965 29.2178V29.8714C55.8965 30.0448 55.8295 30.211 55.71 30.3336C55.5906 30.4562 55.4287 30.5251 55.2598 30.5251ZM60.3538 30.5251C60.1849 30.5251 60.0229 30.4562 59.9035 30.3336C59.7841 30.211 59.717 30.0448 59.717 29.8714V29.2178C59.717 29.0445 59.7841 28.8782 59.9035 28.7556C60.0229 28.6331 60.1849 28.5642 60.3538 28.5642C60.5226 28.5642 60.6846 28.6331 60.804 28.7556C60.9234 28.8782 60.9905 29.0445 60.9905 29.2178V29.8714C60.9905 30.0448 60.9234 30.211 60.804 30.3336C60.6846 30.4562 60.5226 30.5251 60.3538 30.5251Z" fill="black"/>
</g>
<g filter="url(#filter7_d)">
<path d="M93.353 20.7796C91.0423 20.7796 88.938 25.896 88.0303 25.896C87.6383 25.896 87.3288 25.3596 87.0813 25.0914C86.1116 24.0392 84.0899 22.4919 82.6251 22.4919C82.2125 22.4919 81.7999 22.6157 81.4904 22.9045C80.5001 23.8329 79.9844 32.2089 79.9844 33.9006C79.9844 35.0353 80.5208 35.6129 81.6761 35.6129C82.852 35.6129 83.3265 35.0559 83.3265 33.9212C83.3265 31.7757 83.4709 29.6713 83.6979 27.5258C83.7185 27.2988 83.7804 26.226 84.0692 26.226C84.6262 26.226 86.5036 29.3825 88.0922 29.3825C89.9902 29.3825 91.2693 26.5355 91.5375 26.5355C91.6406 26.5355 91.6406 26.7006 91.6406 26.7624C91.7025 27.794 91.6819 28.8461 91.7232 29.8777C91.785 31.3424 91.5787 33.7149 93.6831 33.7149C94.3845 33.7149 95.4779 33.2198 95.4779 32.3946C95.4779 32.0232 95.1891 31.6725 95.1066 31.3012C94.9828 30.7441 95.0034 30.1459 94.9828 29.5682C94.8796 27.1751 94.9209 24.7613 94.9209 22.3681C94.9209 21.3572 94.3845 20.7796 93.353 20.7796Z" fill="white"/>
<path d="M107.389 33.2404C107.575 33.2404 108.111 34.3132 109.39 34.3132C110.071 34.3132 111.206 33.9212 111.206 33.1166C111.206 32.5803 110.649 32.2502 110.525 31.7138C110.113 29.857 110.009 26.6799 110.009 24.7613C110.009 23.3584 110.133 21.6667 108.194 21.6667C107.699 21.6667 107.204 21.8317 106.853 22.2031C106.337 22.7395 106.543 23.7504 106.543 24.4312C106.543 26.5768 105.326 30.7235 104.109 32.3946C103.82 32.8072 103.387 33.4261 102.974 32.8897C101.963 31.6931 102.129 28.0003 102.129 26.453C102.129 25.0088 102.087 23.5853 100.21 23.5853C99.5084 23.5853 98.5801 23.9567 98.5801 24.8025C98.5801 25.0501 98.642 25.3183 98.6626 25.5659C98.7038 26.0816 98.7038 26.5974 98.7038 27.1132C98.7451 30.4759 98.7038 35.5923 103.304 35.5923C105.945 35.5923 107.162 33.2404 107.389 33.2404Z" fill="white"/>
<path d="M125.538 32.2708V22.9458C125.538 21.8936 124.878 21.4604 123.867 21.4604C122.733 21.4604 122.134 22.038 122.134 23.1727C122.134 23.606 122.196 24.0392 122.196 24.4725V27.8765C122.196 27.9384 122.196 28.1034 122.093 28.1034C121.557 27.9178 118.854 22.7395 116.255 22.7395C115.037 22.7395 114.625 23.3171 114.625 24.4518C114.625 26.2879 114.604 28.1241 114.46 29.9602C114.377 31.0742 114.295 32.1883 114.295 33.3023C114.295 34.3751 114.996 34.7877 115.986 34.7877C116.151 34.7877 116.317 34.7671 116.461 34.7465C117.596 34.5402 117.658 33.7356 117.658 32.7659C117.658 31.2393 117.802 29.692 117.926 28.1653C117.926 28.1034 117.926 27.9384 118.049 27.9384C118.256 28.0003 120.587 31.3218 120.917 31.7757C121.639 32.7866 122.464 34.2513 123.888 34.2513C125.27 34.2513 125.538 33.4674 125.538 32.2708Z" fill="white"/>
<path d="M128.866 22.7189C128.866 22.9871 129.031 23.1934 129.031 23.4616C129.031 23.6266 128.969 23.7298 128.908 23.8948C128.681 24.5962 128.639 25.6071 128.639 26.3292C128.639 27.8352 128.846 29.3 129.011 30.7854C129.114 31.7757 129.217 32.7453 129.3 33.7356C129.382 34.6433 129.898 34.9734 130.723 35.1591C131.198 35.2622 131.693 35.3035 132.167 35.3035C136.108 35.3035 138.604 32.1676 138.604 28.3923C138.604 24.5756 136.128 21.3366 132.147 21.3366C131.321 21.3366 128.866 21.5842 128.866 22.7189ZM132.786 32.9722C132.559 32.9722 132.477 32.7247 132.456 32.539C132.208 30.3728 131.899 28.2272 131.899 26.0404C131.899 25.4833 131.92 24.7613 132.126 24.2249C132.208 24.0186 132.477 23.7916 132.662 23.7091C133.034 23.771 133.384 23.9567 133.673 24.1836C134.911 25.1326 135.344 26.8862 135.344 28.3716C135.344 30.0633 134.767 32.1883 133.054 32.8897C133.013 32.9103 132.827 32.9722 132.786 32.9722Z" fill="white"/>
<path d="M147.017 34.5814C151.226 34.5814 153.66 31.0742 153.66 27.1132C153.66 23.8535 151.927 21.5635 148.523 21.5635C147.843 21.5635 147.182 21.6461 146.522 21.7492C143.201 22.3062 141.385 25.7515 141.385 28.908C141.385 32.3121 143.572 34.5814 147.017 34.5814ZM147.368 24.0805C147.657 24.0805 147.946 24.1424 148.235 24.1424C148.482 24.1424 148.709 24.0805 148.957 24.0805C150.05 24.0805 150.38 26.3911 150.38 27.2163C150.38 29.0731 149.307 32.2502 147.079 32.2502C145.202 32.2502 144.686 30.3315 144.686 28.7842C144.686 27.3814 145.614 24.0805 147.368 24.0805Z" fill="white"/>
<path d="M161.827 22.7189C161.827 22.9871 161.992 23.1934 161.992 23.4616C161.992 23.6266 161.93 23.7298 161.868 23.8948C161.641 24.5962 161.6 25.6071 161.6 26.3292C161.6 27.8352 161.806 29.3 161.971 30.7854C162.074 31.7757 162.178 32.7453 162.26 33.7356C162.343 34.6433 162.858 34.9734 163.684 35.1591C164.158 35.2622 164.653 35.3035 165.128 35.3035C169.068 35.3035 171.564 32.1676 171.564 28.3923C171.564 24.5756 169.089 21.3366 165.107 21.3366C164.282 21.3366 161.827 21.5842 161.827 22.7189ZM165.747 32.9722C165.52 32.9722 165.437 32.7247 165.417 32.539C165.169 30.3728 164.86 28.2272 164.86 26.0404C164.86 25.4833 164.88 24.7613 165.086 24.2249C165.169 24.0186 165.437 23.7916 165.623 23.7091C165.994 23.771 166.345 23.9567 166.634 24.1836C167.872 25.1326 168.305 26.8862 168.305 28.3716C168.305 30.0633 167.727 32.1883 166.015 32.8897C165.974 32.9103 165.788 32.9722 165.747 32.9722Z" fill="white"/>
<path d="M174.676 33.2817C174.676 34.6639 174.531 36.0462 176.388 36.0462C177.131 36.0462 178.059 35.6955 178.059 34.829V29.6095C178.059 28.3716 178.121 27.8559 178.121 26.618C178.121 25.277 178.08 24.2043 176.409 24.2043C175.687 24.2043 174.758 24.5343 174.758 25.4008V29.8777C174.758 31.0123 174.676 32.147 174.676 33.2817ZM176.574 19.3767C173.83 19.3767 174.346 22.3062 176.491 22.3062C179.194 22.3062 178.699 19.3767 176.574 19.3767Z" fill="white"/>
<path d="M186.233 30.3728C185.531 28.5986 185.057 26.7212 184.809 24.8232C184.706 24.0598 184.541 23.4616 183.716 23.214C183.51 23.1521 183.283 23.1315 183.076 23.1315C182.251 23.1315 181.364 23.4822 181.364 24.4312C181.364 24.8025 181.467 25.1739 181.529 25.5452C182.045 28.6398 183.076 31.5487 184.397 34.3751C184.913 35.4273 185.346 36.3763 186.604 36.3763C187.78 36.3763 188.213 35.4892 188.564 34.5608C189.678 31.59 190.503 28.5573 191.37 25.504C191.556 24.8232 192.711 21.4398 192.711 21.1097C192.711 20.2638 191.741 19.9337 191.019 19.9337C190.38 19.9337 189.637 20.1607 189.389 20.8208C188.213 23.9154 187.595 27.2163 186.542 30.3522C186.46 30.5997 186.315 30.6204 186.233 30.3728Z" fill="white"/>
<path d="M197.976 35.4892H202.143C202.906 35.4892 203.525 35.4066 203.525 34.3545C203.525 33.3436 202.886 33.2404 202.143 33.2404H199.874C199.007 33.2404 199.007 33.3848 199.007 32.5184C199.007 31.755 199.028 31.0123 199.028 30.249C199.028 30.0221 199.069 29.9395 199.275 29.857C199.998 29.6095 202.143 29.0318 202.143 28.0622C202.143 27.402 201.235 26.9894 200.658 26.9894C200.245 26.9894 199.832 27.2163 199.482 27.2163C199.296 27.2163 199.214 27.0719 199.214 26.9069C199.214 25.9166 199.317 24.6375 199.379 23.6266C199.399 23.3378 199.585 23.214 199.853 23.214C200.596 23.214 201.339 23.3171 202.081 23.3171C202.845 23.3171 203.835 23.2346 203.835 22.1412C203.835 20.8208 202.473 21.0065 201.648 21.0065C199.977 21.0065 199.11 21.0065 197.79 21.0065C197.109 21.0065 196.325 21.2335 196.263 22.0174C196.14 23.379 196.14 24.5343 196.078 25.896C195.975 27.8971 195.81 29.9189 195.81 31.9201C195.81 32.7453 195.83 33.5499 195.892 34.3545C195.995 35.4066 197.151 35.4892 197.976 35.4892Z" fill="white"/>
<path d="M213.202 29.6713C213.202 29.5682 213.285 29.4857 213.367 29.4238C214.708 28.3097 215.575 26.8243 215.575 25.0501C215.575 22.3475 213.367 20.6971 210.809 20.6971C209.819 20.6971 207.57 21.1303 207.054 22.0999C206.951 22.2856 206.931 22.4919 206.931 22.6982C206.931 25.3596 207.075 27.7114 207.137 30.3728C207.178 31.5694 207.137 33.2404 207.137 34.3751C207.137 35.4066 207.694 35.943 208.726 35.943C209.138 35.943 209.551 35.8399 209.901 35.6129C210.397 35.2829 210.438 34.8084 210.458 34.272C210.5 33.3848 210.479 32.4771 210.479 31.59C210.479 31.5281 210.479 31.3631 210.582 31.3631C210.995 31.3631 212.645 34.9528 214.853 34.9528C215.596 34.9528 216.875 34.3957 216.503 33.488C216.256 32.8485 215.616 32.8072 215.204 32.3533C214.523 31.59 214.069 30.6616 213.347 29.9395C213.285 29.8777 213.202 29.7951 213.202 29.6713ZM212.336 25.277C212.336 26.3498 211.738 27.4432 210.789 27.959C210.727 27.9796 210.685 28.0003 210.624 28.0003C210.438 28.0003 210.376 27.8559 210.355 27.6908C210.293 26.7624 210.252 25.8134 210.232 24.8851L210.19 23.379C210.19 23.0283 210.562 22.9871 210.85 22.9871C211.965 22.9871 212.336 24.3693 212.336 25.277Z" fill="white"/>
<path d="M220.303 25.4421C220.303 27.8559 221.458 30.3109 221.458 32.6215C221.458 32.8072 221.437 32.9929 221.231 33.0341C220.591 33.1579 219.684 33.2817 219.684 34.1688C219.684 35.1178 220.839 35.386 221.582 35.386C223.686 35.386 224.697 34.4164 224.697 32.3327C224.697 29.9602 223.604 27.7321 223.604 25.3596C223.604 24.6994 223.748 23.6679 224.532 23.4822C224.759 23.4203 224.965 23.4409 225.192 23.3584C225.646 23.1934 226.059 22.8014 226.059 22.2856C226.059 21.4604 225.11 21.1716 224.449 21.1716C221.85 21.1716 220.303 22.9252 220.303 25.4421Z" fill="white"/>
<path d="M234.847 22.8426C231.422 22.8426 228.843 25.8134 228.843 29.135C228.843 32.0439 230.948 34.3957 233.918 34.3957C237.364 34.3957 240.5 31.0949 240.5 27.6908C240.5 24.7406 237.405 22.8426 234.847 22.8426ZM233.98 32.0026C232.763 32.0026 232.186 30.2077 232.186 29.2175C232.186 27.8971 232.866 26.0197 234.145 25.4215C235.775 24.6169 237.116 26.5768 237.116 27.794C237.116 29.2794 235.672 32.0026 233.98 32.0026Z" fill="white"/>
</g>
<defs>
<filter id="filter0_d" x="5.04666" y="0" width="59.6739" height="61.8843" filterUnits="userSpaceOnUse" color-interpolation-filters="sRGB">
<feFlood flood-opacity="0" result="BackgroundImageFix"/>
<feColorMatrix in="SourceAlpha" type="matrix" values="0 0 0 0 0 0 0 0 0 0 0 0 0 0 0 0 0 0 127 0"/>
<feOffset dy="3.43478"/>
<feGaussianBlur stdDeviation="1.71739"/>
<feColorMatrix type="matrix" values="0 0 0 0 0 0 0 0 0 0 0 0 0 0 0 0 0 0 0.2 0"/>
<feBlend mode="normal" in2="BackgroundImageFix" result="effect1_dropShadow"/>
<feBlend mode="normal" in="SourceGraphic" in2="effect1_dropShadow" result="shape"/>
</filter>
<filter id="filter1_d" x="2.5622" y="19.1548" width="19.0302" height="19.3838" filterUnits="userSpaceOnUse" color-interpolation-filters="sRGB">
<feFlood flood-opacity="0" result="BackgroundImageFix"/>
<feColorMatrix in="SourceAlpha" type="matrix" values="0 0 0 0 0 0 0 0 0 0 0 0 0 0 0 0 0 0 127 0"/>
<feOffset dy="0.858696"/>
<feGaussianBlur stdDeviation="0.429348"/>
<feColorMatrix type="matrix" values="0 0 0 0 0 0 0 0 0 0 0 0 0 0 0 0 0 0 0.15 0"/>
<feBlend mode="normal" in2="BackgroundImageFix" result="effect1_dropShadow"/>
<feBlend mode="normal" in="SourceGraphic" in2="effect1_dropShadow" result="shape"/>
</filter>
<filter id="filter2_d" x="3.64375" y="23.7576" width="16.6091" height="15.6747" filterUnits="userSpaceOnUse" color-interpolation-filters="sRGB">
<feFlood flood-opacity="0" result="BackgroundImageFix"/>
<feColorMatrix in="SourceAlpha" type="matrix" values="0 0 0 0 0 0 0 0 0 0 0 0 0 0 0 0 0 0 127 0"/>
<feOffset dy="0.858696"/>
<feGaussianBlur stdDeviation="0.429348"/>
<feColorMatrix type="matrix" values="0 0 0 0 0 0 0 0 0 0 0 0 0 0 0 0 0 0 0.15 0"/>
<feBlend mode="normal" in2="BackgroundImageFix" result="effect1_dropShadow"/>
<feBlend mode="normal" in="SourceGraphic" in2="effect1_dropShadow" result="shape"/>
</filter>
<filter id="filter3_d" x="25.4851" y="12.6187" width="19.0302" height="19.3838" filterUnits="userSpaceOnUse" color-interpolation-filters="sRGB">
<feFlood flood-opacity="0" result="BackgroundImageFix"/>
<feColorMatrix in="SourceAlpha" type="matrix" values="0 0 0 0 0 0 0 0 0 0 0 0 0 0 0 0 0 0 127 0"/>
<feOffset dy="0.858696"/>
<feGaussianBlur stdDeviation="0.429348"/>
<feColorMatrix type="matrix" values="0 0 0 0 0 0 0 0 0 0 0 0 0 0 0 0 0 0 0.15 0"/>
<feBlend mode="normal" in2="BackgroundImageFix" result="effect1_dropShadow"/>
<feBlend mode="normal" in="SourceGraphic" in2="effect1_dropShadow" result="shape"/>
</filter>
<filter id="filter4_d" x="26.5666" y="17.2214" width="16.6091" height="15.6747" filterUnits="userSpaceOnUse" color-interpolation-filters="sRGB">
<feFlood flood-opacity="0" result="BackgroundImageFix"/>
<feColorMatrix in="SourceAlpha" type="matrix" values="0 0 0 0 0 0 0 0 0 0 0 0 0 0 0 0 0 0 127 0"/>
<feOffset dy="0.858696"/>
<feGaussianBlur stdDeviation="0.429348"/>
<feColorMatrix type="matrix" values="0 0 0 0 0 0 0 0 0 0 0 0 0 0 0 0 0 0 0.15 0"/>
<feBlend mode="normal" in2="BackgroundImageFix" result="effect1_dropShadow"/>
<feBlend mode="normal" in="SourceGraphic" in2="effect1_dropShadow" result="shape"/>
</filter>
<filter id="filter5_d" x="48.4074" y="19.1548" width="19.0302" height="19.3838" filterUnits="userSpaceOnUse" color-interpolation-filters="sRGB">
<feFlood flood-opacity="0" result="BackgroundImageFix"/>
<feColorMatrix in="SourceAlpha" type="matrix" values="0 0 0 0 0 0 0 0 0 0 0 0 0 0 0 0 0 0 127 0"/>
<feOffset dy="0.858696"/>
<feGaussianBlur stdDeviation="0.429348"/>
<feColorMatrix type="matrix" values="0 0 0 0 0 0 0 0 0 0 0 0 0 0 0 0 0 0 0.15 0"/>
<feBlend mode="normal" in2="BackgroundImageFix" result="effect1_dropShadow"/>
<feBlend mode="normal" in="SourceGraphic" in2="effect1_dropShadow" result="shape"/>
</filter>
<filter id="filter6_d" x="49.489" y="23.7576" width="16.6091" height="15.6747" filterUnits="userSpaceOnUse" color-interpolation-filters="sRGB">
<feFlood flood-opacity="0" result="BackgroundImageFix"/>
<feColorMatrix in="SourceAlpha" type="matrix" values="0 0 0 0 0 0 0 0 0 0 0 0 0 0 0 0 0 0 127 0"/>
<feOffset dy="0.858696"/>
<feGaussianBlur stdDeviation="0.429348"/>
<feColorMatrix type="matrix" values="0 0 0 0 0 0 0 0 0 0 0 0 0 0 0 0 0 0 0.15 0"/>
<feBlend mode="normal" in2="BackgroundImageFix" result="effect1_dropShadow"/>
<feBlend mode="normal" in="SourceGraphic" in2="effect1_dropShadow" result="shape"/>
</filter>
<filter id="filter7_d" x="75.9844" y="19.3767" width="168.515" height="24.9996" filterUnits="userSpaceOnUse" color-interpolation-filters="sRGB">
<feFlood flood-opacity="0" result="BackgroundImageFix"/>
<feColorMatrix in="SourceAlpha" type="matrix" values="0 0 0 0 0 0 0 0 0 0 0 0 0 0 0 0 0 0 127 0"/>
<feOffset dy="4"/>
<feGaussianBlur stdDeviation="2"/>
<feColorMatrix type="matrix" values="0 0 0 0 0 0 0 0 0 0 0 0 0 0 0 0 0 0 0.15 0"/>
<feBlend mode="normal" in2="BackgroundImageFix" result="effect1_dropShadow"/>
<feBlend mode="normal" in="SourceGraphic" in2="effect1_dropShadow" result="shape"/>
</filter>
<clipPath id="clip0">
<rect width="22.9228" height="23.5301" fill="white" transform="translate(0.5 15.4919)"/>
</clipPath>
<clipPath id="clip1">
<rect width="22.9228" height="23.5301" fill="white" transform="translate(23.4229 8.95581)"/>
</clipPath>
<clipPath id="clip2">
<rect width="22.9228" height="23.5301" fill="white" transform="translate(46.3452 15.4919)"/>
</clipPath>
</defs>
</svg>
