<svg width="72" height="72" viewBox="0 0 72 72" fill="none" xmlns="http://www.w3.org/2000/svg">
<g filter="url(#filter0_b)">
<path fill-rule="evenodd" clip-rule="evenodd" d="M0 36.0208C0 16.1505 16.1583 0 36 0C55.8417 0 72 16.1505 72 36.0208C72 55.8495 55.8417 72 36 72C16.1583 72 0 55.8495 0 36.0208ZM49.2046 39.6642C49.5868 39.2822 50.0733 38.6917 50.1776 38.5528C50.7336 37.8234 51.0116 36.9204 51.0116 36.0208C51.0116 35.0101 50.6988 34.0724 50.1081 33.3082C50.0597 33.2598 49.9649 33.1567 49.8413 33.0222C49.6102 32.7706 49.2784 32.4095 48.9614 32.0926C46.1119 29.0362 38.6757 24.0347 34.7838 22.5065C34.193 22.2669 32.6988 21.7424 31.8996 21.7077C31.1351 21.7077 30.4054 21.8813 29.7104 22.2287C28.8417 22.7149 28.1467 23.479 27.7645 24.3821C27.5212 25.0072 27.139 26.8828 27.139 26.9175C26.7567 28.9667 26.5482 32.301 26.5482 35.9826C26.5482 39.4941 26.7567 42.686 27.0695 44.7699C27.0781 44.7785 27.108 44.9275 27.1544 45.1591C27.2956 45.863 27.5897 47.3294 27.9035 47.9305C28.6679 49.3893 30.1621 50.2923 31.7606 50.2923H31.8996C32.9421 50.2576 35.1313 49.3546 35.1313 49.3198C38.8147 47.7916 46.0772 43.0333 48.9961 39.8726L49.2046 39.6642Z" fill="#2CCADF"/>
</g>
<defs>
<filter id="filter0_b" x="-1" y="-1" width="74" height="74" filterUnits="userSpaceOnUse" color-interpolation-filters="sRGB">
<feFlood flood-opacity="0" result="BackgroundImageFix"/>
<feGaussianBlur in="BackgroundImage" stdDeviation="0.5"/>
<feComposite in2="SourceAlpha" operator="in" result="effect1_backgroundBlur"/>
<feBlend mode="normal" in="SourceGraphic" in2="effect1_backgroundBlur" result="shape"/>
</filter>
</defs>
</svg>
