<svg width="118" height="200" viewBox="0 0 118 200" fill="none" xmlns="http://www.w3.org/2000/svg">
<path d="M45.8391 78.3376L47.6934 69.2725C53.4621 73.29 57.2736 73.393 62.0123 72.1568L63.5575 78.5436C63.6605 80.7412 62.2183 85.0334 55.6254 84.6213C49.0325 84.2093 46.3542 80.2605 45.8391 78.3376Z" fill="#9B4B35"/>
<path fill-rule="evenodd" clip-rule="evenodd" d="M47.5775 68.9827C47.675 68.9438 47.7855 68.9564 47.8717 69.0164C50.7309 71.0076 53.0828 72.0132 55.2898 72.3769C57.4962 72.7404 59.586 72.4673 61.9335 71.8549C62.0145 71.8338 62.1006 71.8461 62.1724 71.8891C62.2443 71.932 62.2958 72.0021 62.3155 72.0835L63.8607 78.4702C63.8654 78.4895 63.8682 78.5092 63.8691 78.529C63.9237 79.6928 63.5715 81.4013 62.3338 82.7703C61.0854 84.1514 58.9762 85.1434 55.6059 84.9328C48.8785 84.5123 46.0873 80.4699 45.5377 78.4183C45.5252 78.3715 45.5237 78.3225 45.5334 78.2751L47.3877 69.2099C47.4087 69.1071 47.4801 69.0217 47.5775 68.9827ZM47.9047 69.796L46.1599 78.3264C46.6871 80.1487 49.2688 83.9115 55.6449 84.31C58.8675 84.5114 60.7758 83.5633 61.8709 82.3519C62.9665 81.1399 63.2882 79.6208 63.2471 78.5875L61.7833 72.5374C59.5114 73.1065 57.4145 73.3594 55.1884 72.9926C52.9674 72.6267 50.6437 71.6483 47.9047 69.796Z" fill="black"/>
<path d="M57.9783 80.3473C53.1736 81.0926 49.3258 73.412 48.0024 69.4785C54.3907 73.8093 58.0518 73.0043 61.8029 72.1794L61.8465 72.1698C62.5251 74.5506 62.783 79.602 57.9783 80.3473Z" fill="#5D2D20"/>
<path d="M44.397 36.2053C39.3699 39.9961 40.2077 47.7735 41.3065 51.2073C40.8289 51.3127 40.3375 51.5443 39.8643 51.9662C38.5513 53.137 37.8041 56.9108 40.5854 58.662C41.0447 58.9512 41.8222 59.196 42.6457 59.2249C43.1951 61.6286 45.1181 67.4181 48.0025 69.4784C51.6079 72.0537 57.1707 74.629 64.9997 71.0236C72.8287 67.4181 74.0649 59.8982 72.3137 49.6999C70.5624 39.5017 66.0298 34.3511 61.1882 32.7029C56.3466 31.0546 50.6808 31.4667 44.397 36.2053Z" fill="#9B4B35"/>
<path fill-rule="evenodd" clip-rule="evenodd" d="M61.0877 32.9982C56.3498 31.3854 50.7913 31.7742 44.5848 36.4544C42.1663 38.2782 41.1418 41.0725 40.865 43.8709C40.6021 46.5302 41.0195 49.1543 41.5237 50.8527C42.2478 50.7577 42.9206 50.9091 43.4439 51.1063C44.0349 51.329 44.4584 51.6187 44.5885 51.72C44.7246 51.8258 44.7491 52.0218 44.6433 52.1578C44.5375 52.2938 44.3414 52.3183 44.2054 52.2125C44.1165 52.1434 43.7472 51.8875 43.2239 51.6903C42.7009 51.4932 42.0474 51.3633 41.3738 51.512C40.9487 51.6058 40.5055 51.8126 40.072 52.1991C39.4987 52.7103 39.0046 53.8515 39.0015 55.0973C38.9984 56.3237 39.4714 57.592 40.7516 58.398C41.1569 58.6532 41.8787 58.8858 42.6567 58.9131C43.5344 58.944 44.4132 58.713 44.9841 58.047C45.0963 57.9161 45.2932 57.901 45.4241 58.0131C45.5549 58.1253 45.57 58.3223 45.4579 58.4531C44.818 59.1996 43.9101 59.4909 43.041 59.5341C43.3454 60.7433 43.922 62.5652 44.7326 64.3515C45.6383 66.3475 46.8122 68.2448 48.1838 69.2245C49.9657 70.4973 52.2149 71.758 54.9733 72.2619C57.7268 72.7648 61.0098 72.5175 64.8692 70.7402C68.7024 68.9749 70.907 66.2643 71.9502 62.7454C72.9987 59.2081 72.8788 54.8347 72.0062 49.7528C70.2663 39.6205 65.7826 34.5965 61.0877 32.9982ZM42.3954 59.5227C42.6963 60.7622 43.2999 62.7043 44.1643 64.6094C45.0786 66.6241 46.3083 68.6517 47.8211 69.7323C49.6447 71.0348 51.9796 72.3494 54.8612 72.8757C57.7477 73.4029 61.1606 73.1351 65.1302 71.307C69.126 69.4668 71.454 66.6147 72.5484 62.9228C73.6374 59.2492 73.4998 54.7635 72.6212 49.6472C70.8586 39.3829 66.277 34.1056 61.2887 32.4075C56.3433 30.724 50.5703 31.1593 44.2091 35.9562C41.6006 37.9232 40.5305 40.9131 40.244 43.8095C39.974 46.5403 40.3955 49.2264 40.9142 50.9921C40.4903 51.1325 40.0649 51.3693 39.6567 51.7334C38.9169 52.3929 38.3809 53.724 38.3775 55.0957C38.374 56.4867 38.918 57.981 40.4191 58.9261C40.8852 59.2195 41.6147 59.4583 42.3954 59.5227Z" fill="black"/>
<path fill-rule="evenodd" clip-rule="evenodd" d="M65.2872 41.346C64.2247 41.3339 63.1368 41.7008 62.4636 42.0457C62.3102 42.1242 62.1222 42.0636 62.0436 41.9102C61.9651 41.7568 62.0257 41.5688 62.1791 41.4903C62.9137 41.114 64.1024 40.7084 65.2943 40.722C66.4996 40.7358 67.7406 41.1835 68.4684 42.5483C68.5495 42.7003 68.492 42.8893 68.34 42.9704C68.1879 43.0515 67.9989 42.994 67.9178 42.8419C67.3271 41.7343 66.3361 41.358 65.2872 41.346ZM52.4343 43.6019C52.4456 43.7738 52.3153 43.9223 52.1433 43.9336C48.5164 44.1701 47.2596 46.5776 47.0741 47.691C47.0457 47.861 46.885 47.9758 46.715 47.9475C46.545 47.9191 46.4302 47.7584 46.4585 47.5884C46.685 46.2295 48.1478 43.5688 52.1027 43.3108C52.2746 43.2996 52.4231 43.4299 52.4343 43.6019Z" fill="black"/>
<path d="M50.5778 49.4938C50.413 47.1863 51.4019 46.9185 52.123 46.9185C52.6381 46.9185 53.3385 47.0421 53.6682 49.1847C53.9978 51.3274 53.1531 51.554 52.6381 51.657C52.02 51.7601 50.7426 51.8013 50.5778 49.4938Z" fill="black"/>
<path fill-rule="evenodd" clip-rule="evenodd" d="M50.9017 47.2373C51.2629 46.832 51.7467 46.7627 52.123 46.7627C52.3974 46.7627 52.7545 46.7964 53.0788 47.1415C53.3922 47.4751 53.656 48.0801 53.8224 49.1613C53.9894 50.2468 53.8665 50.8885 53.598 51.275C53.326 51.6666 52.93 51.758 52.6686 51.8103L52.6662 51.8108L52.6637 51.8112C52.346 51.8641 51.8224 51.9089 51.3542 51.6112C50.8789 51.3091 50.5064 50.685 50.4222 49.5051C50.3386 48.3349 50.5435 47.6391 50.9017 47.2373ZM51.1346 47.4449C50.8592 47.7538 50.6521 48.3457 50.7334 49.4829C50.8139 50.6106 51.1625 51.1196 51.5216 51.3479C51.8869 51.5802 52.3096 51.5536 52.6099 51.5038C52.863 51.4531 53.1457 51.3792 53.3417 51.097C53.542 50.8088 53.6766 50.2659 53.514 49.2087C53.3507 48.1472 53.0994 47.6191 52.8514 47.3552C52.6143 47.1028 52.3637 47.0747 52.123 47.0747C51.7782 47.0747 51.4069 47.1394 51.1346 47.4449Z" fill="black"/>
<path d="M63.2668 47.1246C63.1019 44.8171 64.0909 44.5493 64.812 44.5493C65.327 44.5493 66.0275 44.6729 66.3572 46.8156C66.6868 48.9583 65.8421 49.1849 65.327 49.2879C64.7089 49.3909 63.4316 49.4321 63.2668 47.1246Z" fill="black"/>
<path fill-rule="evenodd" clip-rule="evenodd" d="M63.5907 44.8681C63.9519 44.4628 64.4357 44.3936 64.8119 44.3936C65.0863 44.3936 65.4435 44.4272 65.7678 44.7724C66.0812 45.1059 66.345 45.711 66.5113 46.7921C66.6783 47.8776 66.5555 48.5193 66.287 48.9059C66.0149 49.2975 65.6189 49.3889 65.3576 49.4411L65.3551 49.4416L65.3527 49.442C65.035 49.495 64.5113 49.5397 64.0432 49.2421C63.5679 48.9399 63.1954 48.3158 63.1111 47.136C63.0275 45.9657 63.2325 45.2699 63.5907 44.8681ZM63.8236 45.0757C63.5482 45.3847 63.3411 45.9766 63.4223 47.1138C63.5029 48.2414 63.8515 48.7505 64.2106 48.9788C64.5759 49.211 64.9986 49.1845 65.2989 49.1347C65.552 49.0839 65.8347 49.01 66.0307 48.7279C66.2309 48.4396 66.3656 47.8967 66.203 46.8396C66.0396 45.778 65.7884 45.2499 65.5404 44.986C65.3033 44.7337 65.0526 44.7056 64.8119 44.7056C64.4671 44.7056 64.0959 44.7702 63.8236 45.0757Z" fill="black"/>
<path fill-rule="evenodd" clip-rule="evenodd" d="M59.9058 50.8386C59.2588 50.9869 58.5636 51.5132 58.1163 51.9769C57.9967 52.101 57.7992 52.1046 57.6751 51.985C57.5511 51.8653 57.5475 51.6678 57.6671 51.5438C58.147 51.0461 58.9455 50.4186 59.7664 50.2304C60.1862 50.1341 60.6347 50.1482 61.0442 50.3802C61.4523 50.6114 61.7745 51.0324 61.9971 51.6554C62.2723 52.426 62.2898 53.0839 62.1128 53.6316C61.9359 54.1792 61.5756 54.583 61.1562 54.865C60.7392 55.1454 60.2577 55.3102 59.8141 55.3853C59.3754 55.4596 58.944 55.451 58.6262 55.3556C58.4611 55.3061 58.3675 55.1322 58.417 54.9671C58.4665 54.8021 58.6404 54.7084 58.8055 54.7579C59.0027 54.8171 59.3311 54.8342 59.71 54.77C60.0841 54.7067 60.4782 54.5689 60.808 54.3472C61.1355 54.127 61.3933 53.829 61.519 53.4398C61.6447 53.0508 61.6493 52.5369 61.4094 51.8653C61.2199 51.3346 60.9755 51.0585 60.7366 50.9232C60.499 50.7886 60.22 50.7666 59.9058 50.8386Z" fill="black"/>
<path d="M54.3893 59.6923C56.1062 59.6923 59.8697 59.6511 61.1882 59.4863C62.5068 59.3215 65.5148 58.2501 66.854 57.7351C67.5407 57.4947 68.5979 57.3524 68.1932 58.9712C67.6781 61.0315 67.3691 65.049 62.3214 66.2851C58.2833 67.274 55.7629 65.049 55.0074 63.8128C54.2176 62.7484 52.7411 59.5893 54.3893 59.6923Z" fill="#46210F"/>
<path fill-rule="evenodd" clip-rule="evenodd" d="M66.9614 58.028C66.2873 58.2872 65.1977 58.6847 64.1099 59.0387C63.0283 59.3907 61.9198 59.7093 61.2269 59.7959C59.8844 59.9637 56.0979 60.0043 54.3893 60.0043H54.3795L54.3698 60.0037C54.2105 59.9938 54.128 60.0254 54.0854 60.0543C54.0452 60.0816 54.0064 60.1295 53.9805 60.2248C53.9232 60.4359 53.9559 60.7837 54.0839 61.2285C54.3346 62.0996 54.8834 63.1221 55.2579 63.6269L55.2663 63.6382L55.2736 63.6501C55.9734 64.7952 58.3672 66.9322 62.2471 65.9821C64.6828 65.3856 65.9509 64.1299 66.683 62.7878C67.2684 61.7146 67.5131 60.5923 67.7205 59.6409C67.7778 59.3778 67.8323 59.1278 67.8904 58.8955C67.9857 58.5143 67.9837 58.2771 67.9486 58.1374C67.9176 58.0143 67.8626 57.9669 67.8033 57.9398C67.7269 57.9049 67.6081 57.8904 67.4456 57.9091C67.2888 57.9272 67.1195 57.9729 66.9614 58.028ZM68.5538 57.9853C68.6245 58.2666 68.6028 58.6187 68.4958 59.0469C68.4448 59.2509 68.395 59.4804 68.341 59.7292C68.1333 60.6856 67.8641 61.9257 67.2308 63.0866C66.4177 64.5774 65.0075 65.9485 62.3955 66.5882C58.2118 67.6128 55.5681 65.3166 54.7485 63.9875C54.3338 63.4246 53.7554 62.3435 53.4842 61.401C53.3504 60.9358 53.2736 60.4467 53.3783 60.0612C53.4335 59.8581 53.5436 59.6678 53.735 59.538C53.9215 59.4114 54.1497 59.3663 54.3985 59.3803C56.1277 59.3801 59.8571 59.3382 61.1495 59.1767C61.7751 59.0985 62.8299 58.799 63.9168 58.4453C64.9949 58.0945 66.0765 57.6998 66.7419 57.4439L66.7464 57.4421L66.7508 57.4406C66.9348 57.3762 67.1535 57.3147 67.374 57.2892C67.5903 57.2643 67.8392 57.2702 68.0624 57.3721C68.3025 57.4817 68.4789 57.6873 68.5538 57.9853Z" fill="black"/>
<path d="M57.5827 65.9761C57.4797 65.049 57.2737 62.6797 60.9822 62.2676C64.6906 61.8556 65.2057 63.8128 65.4118 64.74C64.4846 65.7701 60.7761 67.4183 57.5827 65.9761Z" fill="#DF1919"/>
<path fill-rule="evenodd" clip-rule="evenodd" d="M64.3022 63.2339C63.7722 62.7591 62.8169 62.3776 61.0166 62.5777C59.2321 62.7759 58.4666 63.4319 58.1294 64.0738C57.8209 64.6608 57.8322 65.3014 57.8745 65.7624C59.3431 66.3719 60.9246 66.3191 62.2714 65.9824C63.5676 65.6583 64.5962 65.0847 65.0691 64.6432C64.9627 64.2062 64.7791 63.6611 64.3022 63.2339ZM64.7186 62.7691C65.4159 63.3938 65.6121 64.2028 65.7164 64.6722L65.7512 64.8291L65.6437 64.9486C65.1232 65.5269 63.8982 66.2189 62.4228 66.5877C60.9353 66.9596 59.1337 67.0188 57.4543 66.2604L57.2923 66.1872L57.2727 66.0105C57.2211 65.5466 57.1294 64.6353 57.5769 63.7835C58.038 62.9059 59.0238 62.1712 60.9477 61.9575C62.8559 61.7454 64.0124 62.1365 64.7186 62.7691Z" fill="black"/>
<path d="M17.5998 123.707L19.3158 109.823C24.6825 111.32 29.3522 115.439 31.0163 117.311L29.4562 119.807C28.957 121.18 30.6003 126.827 31.4843 129.48C31.8483 130.26 33.5748 131.414 34.4484 132.912C35.5405 134.784 37.4125 135.408 38.6606 136.5C39.659 137.373 41.2607 141.336 41.3127 142.896C41.0007 144.144 39.021 143.317 38.6606 142.116C37.5842 138.528 36.0605 138.996 35.2285 137.748L36.0085 139.932C37.3605 142.428 38.567 147.795 32.5764 149.292C25.0881 151.164 23.216 140.712 22.748 138.216C22.2799 135.72 20.0959 132.288 18.5358 129.792C17.2878 127.795 17.3918 124.903 17.5998 123.707Z" fill="#9B4B35"/>
<path fill-rule="evenodd" clip-rule="evenodd" d="M19.1428 109.563C19.2184 109.513 19.3122 109.498 19.3997 109.522C24.8461 111.042 29.5642 115.208 31.2495 117.104C31.3415 117.207 31.3543 117.359 31.2809 117.476L29.7399 119.942C29.7012 120.065 29.6768 120.252 29.6758 120.509C29.6747 120.782 29.6999 121.111 29.7477 121.485C29.8433 122.233 30.0267 123.138 30.255 124.091C30.7091 125.986 31.3344 128.041 31.7742 129.362C31.8453 129.507 31.9888 129.69 32.2056 129.921C32.3797 130.106 32.5839 130.305 32.8086 130.523C32.8688 130.582 32.9305 130.642 32.9934 130.703C33.5787 131.276 34.2574 131.965 34.7179 132.754C35.231 133.634 35.9299 134.227 36.6736 134.742C36.925 134.916 37.175 135.077 37.4257 135.238C37.5504 135.318 37.6753 135.399 37.8006 135.481C38.1716 135.724 38.5373 135.977 38.8661 136.265C39.1583 136.521 39.4671 136.972 39.7609 137.496C40.06 138.028 40.3608 138.666 40.6302 139.322C41.1632 140.62 41.5965 142.045 41.6245 142.886C41.6255 142.915 41.6224 142.944 41.6154 142.972C41.5133 143.38 41.2593 143.65 40.917 143.765C40.5942 143.874 40.2312 143.833 39.9025 143.719C39.2528 143.494 38.5773 142.924 38.3617 142.206C37.8382 140.461 37.2196 139.74 36.6599 139.3C36.4631 139.145 36.2811 139.029 36.0932 138.909C36.0424 138.876 35.9911 138.844 35.939 138.81L36.2943 139.805C36.9846 141.088 37.6448 143.112 37.3544 145.033C37.2074 146.006 36.8153 146.957 36.0573 147.763C35.3 148.568 34.195 149.209 32.652 149.595C30.7023 150.082 29.0948 149.77 27.7846 148.969C26.4847 148.174 25.5012 146.913 24.7554 145.541C23.2999 142.863 22.7017 139.665 22.4578 138.361C22.4521 138.331 22.4466 138.302 22.4413 138.273C22.2166 137.075 21.5734 135.628 20.7768 134.152C20.0349 132.777 19.174 131.4 18.4264 130.205C18.3741 130.121 18.3223 130.039 18.2712 129.957C17.6116 128.902 17.3175 127.626 17.2111 126.478C17.1049 125.333 17.1831 124.287 17.291 123.662L19.0062 109.784C19.0173 109.694 19.0672 109.613 19.1428 109.563ZM19.5806 110.225L17.9094 123.746C17.9088 123.751 17.908 123.756 17.9072 123.761C17.8078 124.332 17.731 125.326 17.8324 126.42C17.934 127.516 18.212 128.685 18.8004 129.626C18.852 129.709 18.9044 129.793 18.9574 129.877C19.7032 131.069 20.5742 132.462 21.326 133.856C22.1285 135.343 22.8113 136.861 23.0546 138.158C23.0592 138.183 23.064 138.208 23.0688 138.234C23.3126 139.536 23.8961 142.653 25.3037 145.243C26.0205 146.562 26.9383 147.72 28.1101 148.436C29.2716 149.146 30.7063 149.438 32.5007 148.99C33.953 148.627 34.9437 148.036 35.6028 147.335C36.2612 146.635 36.6063 145.808 36.7374 144.94C37.0019 143.19 36.3918 141.295 35.7341 140.081C35.7265 140.067 35.72 140.052 35.7147 140.037L34.9346 137.853C34.8816 137.704 34.9476 137.54 35.0884 137.469C35.2292 137.398 35.4007 137.444 35.4881 137.575C35.6643 137.839 35.8786 138.017 36.1395 138.194C36.2169 138.247 36.3031 138.302 36.3946 138.36C36.597 138.49 36.826 138.636 37.0458 138.809C37.7251 139.344 38.4065 140.183 38.9595 142.026C39.1043 142.509 39.5989 142.954 40.1071 143.13C40.3574 143.217 40.5703 143.224 40.7177 143.174C40.8374 143.134 40.9418 143.048 40.9989 142.861C40.9604 142.131 40.5723 140.824 40.0529 139.559C39.7907 138.92 39.5006 138.306 39.2169 137.801C38.928 137.287 38.6621 136.916 38.4551 136.735C38.1599 136.476 37.8235 136.242 37.4584 136.003C37.3423 135.927 37.2222 135.849 37.0998 135.77C36.844 135.606 36.5782 135.435 36.3184 135.255C35.5411 134.717 34.7579 134.062 34.1789 133.069C33.7658 132.361 33.1445 131.724 32.5571 131.15C32.4976 131.091 32.4381 131.034 32.3793 130.976C32.1531 130.756 31.9354 130.544 31.7508 130.348C31.5216 130.104 31.3152 129.855 31.2016 129.611C31.1965 129.601 31.1921 129.59 31.1883 129.578C30.7444 128.246 30.1097 126.162 29.6481 124.236C29.4175 123.274 29.2284 122.344 29.1287 121.564C29.0789 121.174 29.0506 120.816 29.0518 120.507C29.0529 120.203 29.0824 119.922 29.163 119.701C29.1705 119.68 29.1801 119.66 29.1916 119.642L30.6268 117.346C28.9017 115.471 24.563 111.729 19.5806 110.225Z" fill="black"/>
<path d="M23.3719 111.851C22.9975 111.476 21.6559 110.915 19.6278 110.135C19.0038 114.191 17.7245 122.303 17.5997 124.175C17.3917 127.295 18.7087 130.246 20.2518 132.132C21.6558 133.848 22.904 138.06 23.996 142.584C24.8852 146.268 27.4281 148.2 28.5202 148.668C28.5202 148.668 30.3922 149.448 31.3283 149.136C32.2643 148.824 29.1442 148.668 27.8961 147.576C26.9569 146.754 25.3481 143.312 24.7761 141.804C24.516 139.464 23.84 134.94 22.436 133.536C21.0233 132.123 19.6277 127.607 19.1598 125.735C18.6665 123.762 23.84 112.319 23.3719 111.851Z" fill="#5D2D20"/>
<path d="M71.4219 99.8384C71.6715 98.3407 75.374 93.3901 77.1941 91.1021C79.4302 96.8223 83.9336 109.292 84.0584 113.411C84.1832 117.53 85.3584 121.783 85.9305 123.395C87.4905 124.955 88.2705 128.7 88.1145 131.196C87.6465 133.38 87.6465 134.472 85.9305 135.72C83.727 137.322 81.7183 135.876 80.6262 134.94C80.2912 134.653 78.9779 133.176 79.8462 130.572C80.3142 129.168 78.9102 127.452 78.5982 127.764C78.1821 129.272 78.2861 129.948 78.2861 131.196C78.2861 132.6 78.7542 132.6 78.5982 133.38C78.4667 134.037 78.0053 134.503 76.8821 133.38C75.7588 132.256 75.634 131.04 75.634 129.636C75.634 128.232 75.7498 126.962 76.2581 126.047C78.5982 121.835 76.2581 113.879 75.634 111.695C75.01 109.511 72.5139 102.699 71.4219 99.8384Z" fill="#9B4B35"/>
<path fill-rule="evenodd" clip-rule="evenodd" d="M77.2874 90.4834L77.4847 90.9882C78.6044 93.8524 80.2914 98.4057 81.7146 102.76C82.4261 104.937 83.0728 107.067 83.5498 108.914C84.0248 110.753 84.3379 112.334 84.3703 113.401C84.4922 117.424 85.6288 121.587 86.2018 123.226C87.0145 124.07 87.6005 125.434 87.9683 126.867C88.3459 128.338 88.5063 129.93 88.426 131.215L88.4245 131.238L88.4197 131.261C88.3623 131.529 88.3114 131.784 88.2627 132.028C88.1186 132.751 87.9945 133.374 87.7813 133.922C87.4842 134.686 87.0145 135.317 86.114 135.972C84.9251 136.837 83.7686 136.884 82.7707 136.58C81.7917 136.282 80.9757 135.65 80.4232 135.177C80.0215 134.832 78.6308 133.231 79.5502 130.473C79.7437 129.892 79.5553 129.21 79.2456 128.682C79.1042 128.441 78.9497 128.253 78.822 128.139C78.5699 129.155 78.5793 129.757 78.592 130.574C78.595 130.767 78.5982 130.971 78.5982 131.195C78.5982 131.852 78.7055 132.167 78.7945 132.417C78.7984 132.427 78.8023 132.438 78.8062 132.449C78.8493 132.569 78.8978 132.704 78.923 132.855C78.9519 133.029 78.9496 133.214 78.9041 133.441C78.835 133.786 78.6496 134.251 78.1774 134.352C77.9486 134.401 77.7067 134.348 77.4635 134.224C77.2208 134.099 76.9552 133.894 76.6615 133.6C75.4465 132.385 75.3221 131.059 75.3221 129.635C75.3221 128.231 75.4342 126.888 75.9853 125.896C77.1027 123.885 77.1178 120.932 76.7483 118.152C76.3938 115.483 75.6964 113.046 75.3677 111.898C75.356 111.857 75.3448 111.818 75.3341 111.78C74.7145 109.612 72.2237 102.813 71.1304 99.9495L71.1002 99.8704L71.1141 99.7869C71.1871 99.3491 71.4949 98.7131 71.903 98.0069C72.3197 97.2861 72.8681 96.4475 73.4626 95.5888C74.6519 93.8708 76.0369 92.0554 76.95 90.9076L77.2874 90.4834ZM71.7456 99.8114C72.8527 102.716 75.3117 109.431 75.9341 111.609C75.9451 111.647 75.9566 111.688 75.9687 111.73C76.2981 112.881 77.0062 115.355 77.3669 118.069C77.7385 120.866 77.7536 123.998 76.5308 126.199C76.0655 127.036 75.9461 128.232 75.9461 129.635C75.9461 131.02 76.0712 132.127 77.1027 133.159C77.3707 133.427 77.584 133.584 77.7478 133.668C77.9111 133.752 78.0034 133.751 78.0468 133.742C78.119 133.727 78.2299 133.63 78.2922 133.318C78.3248 133.156 78.3224 133.048 78.3075 132.958C78.2919 132.864 78.2617 132.78 78.2141 132.647L78.2069 132.626C78.1009 132.33 77.9742 131.943 77.9742 131.195C77.9742 130.983 77.971 130.786 77.9679 130.596C77.9533 129.69 77.9417 128.97 78.2974 127.68L78.3193 127.601L78.3776 127.543C78.5275 127.393 78.7199 127.4 78.8486 127.437C78.9735 127.474 79.09 127.55 79.1894 127.632C79.3928 127.801 79.605 128.061 79.7839 128.366C80.1372 128.969 80.4168 129.847 80.1422 130.67C79.3251 133.121 80.561 134.473 80.8293 134.703C81.3689 135.165 82.1032 135.725 82.9525 135.983C83.7829 136.236 84.7325 136.205 85.747 135.467C86.5625 134.874 86.9509 134.335 87.1998 133.695C87.3915 133.202 87.5007 132.655 87.6407 131.954C87.6899 131.707 87.7429 131.442 87.8046 131.153C87.877 129.945 87.7249 128.428 87.3638 127.022C86.9982 125.598 86.4309 124.337 85.7099 123.616L85.66 123.566L85.6364 123.499C85.0574 121.868 83.8726 117.581 83.7465 113.42C83.7165 112.428 83.4199 110.906 82.9456 109.07C82.4732 107.241 81.8308 105.124 81.1214 102.954C79.7841 98.8623 78.2122 94.5918 77.1011 91.7232C76.2113 92.8579 75.0168 94.44 73.9756 95.944C73.3857 96.7962 72.8479 97.6191 72.4433 98.3192C72.0628 98.9775 71.8218 99.4913 71.7456 99.8114Z" fill="black"/>
<path d="M77.0381 111.227C76.4141 109.043 73.502 102.386 71.7339 99.5264C72.5139 102.178 75.166 108.575 76.2581 112.787C76.7703 114.762 77.3734 117.834 77.5061 119.963C77.6569 122.382 77.287 123.812 77.0381 125.111C77.4541 124.383 78.0365 122.553 78.2862 121.055C78.5982 119.183 77.8143 113.944 77.0381 111.227Z" fill="#5D2D20"/>
<path d="M80.6262 129.323C80.2518 128.325 79.3782 127.659 79.0662 127.607C80.1582 128.855 80.0022 130.26 79.8462 131.508C79.7214 132.506 79.8462 133.38 80.1582 134.004L81.2502 135.096C80.9902 134.68 80.751 133.91 80.6262 133.536C80.5014 133.161 80.4702 132.912 80.6262 132.132C80.8862 131.612 81.0006 130.322 80.6262 129.323Z" fill="#5D2D20"/>
<path d="M45.7121 78.0864C41.6559 78.1385 34.0093 76.7898 29.6434 83.2347C26.3673 88.0709 18.567 99.3033 18.723 109.444C21.7911 110.588 28.5514 113.781 31.0475 117.4C31.0475 117.66 30.7979 118.43 29.7994 119.428C28.801 120.427 30.6315 126.604 31.6715 129.569C32.9196 131.597 38.1302 134.748 51.4843 136.745C64.8384 138.742 71.9211 131.129 74.8852 126.916C74.8852 122.08 73.6521 106.996 69.893 96.8072L71.4531 100.863C70.9539 99.3657 75.0933 93.8951 77.2253 91.347C77.475 89.2253 73.8972 83.1827 72.0771 80.4266C69.4562 77.6808 66.2529 77.7224 63.6528 78.5545C62.904 83.5467 58.4526 84.5867 56.3205 84.4827C49.2066 84.2331 46.2841 80.1145 45.7121 78.0864Z" fill="#FF8B00"/>
<path fill-rule="evenodd" clip-rule="evenodd" d="M43.8141 77.7385C44.5116 77.7611 45.1507 77.7818 45.7081 77.7747L45.9474 77.7716L46.0124 78.002C46.5469 79.8971 49.3506 83.9262 56.3315 84.1711L56.3357 84.1712L56.3357 84.1713C57.3523 84.2209 58.9352 83.9959 60.3466 83.1613C61.745 82.3343 62.9848 80.9046 63.3442 78.5084L63.373 78.3166L63.5577 78.2575C66.2248 77.4041 69.5702 77.3486 72.3028 80.2113L72.3221 80.2315L72.3375 80.2548C73.2519 81.6396 74.6076 83.8492 75.7048 85.9822C76.2532 87.0483 76.7405 88.1017 77.0756 89.0272C77.4054 89.9381 77.6069 90.7743 77.5352 91.3837L77.5244 91.4761L77.4646 91.5474C76.4034 92.8158 74.8432 94.8108 73.6127 96.6714C72.9968 97.6027 72.4695 98.4914 72.128 99.2336C71.9572 99.605 71.8372 99.9304 71.7742 100.2C71.7095 100.477 71.7137 100.659 71.7491 100.765L71.5165 100.848C74.2592 110.648 75.1973 122.685 75.1973 126.917V127.015L75.1404 127.096C72.1437 131.355 64.9594 139.075 51.4382 137.054C44.7452 136.053 40.0777 134.761 36.9191 133.457C33.7737 132.159 32.0827 130.832 31.4058 129.732L31.3882 129.704L31.3771 129.672C30.8547 128.183 30.1331 125.886 29.6668 123.83C29.434 122.804 29.262 121.827 29.2131 121.036C29.1886 120.642 29.1939 120.282 29.2425 119.98C29.2898 119.686 29.3849 119.402 29.5788 119.208C30.0591 118.727 30.3518 118.31 30.5228 117.99C30.6492 117.754 30.7037 117.582 30.7244 117.483C29.5018 115.767 27.277 114.127 24.9424 112.763C22.574 111.38 20.1334 110.303 18.614 109.736L18.4143 109.662L18.411 109.449C18.3319 104.304 20.2688 98.9074 22.6171 94.2108C24.8497 89.7457 27.4701 85.8829 29.1299 83.4363C29.2177 83.3068 29.3028 83.1813 29.3851 83.0599C31.6298 79.7463 34.7221 78.4396 37.7445 77.9554C39.8919 77.6113 42.0417 77.681 43.8141 77.7385ZM31.3542 117.492C31.3325 117.692 31.2434 117.966 31.073 118.285C30.8696 118.665 30.5382 119.131 30.0201 119.649C29.9644 119.705 29.8983 119.832 29.8586 120.079C29.8202 120.317 29.8129 120.627 29.8359 120.998C29.8818 121.739 30.0453 122.679 30.2753 123.692C30.7313 125.702 31.4379 127.957 31.9546 129.433C32.5391 130.358 34.0777 131.609 37.1572 132.88C40.2544 134.158 44.8692 135.44 51.5304 136.436C64.6327 138.396 71.6086 130.999 74.5731 126.818C74.5565 121.896 73.3162 106.987 69.6003 96.9154L70.1843 96.6954L70.1858 96.6994L71.3023 99.6024C71.3732 99.4021 71.4606 99.1912 71.5611 98.9727C71.922 98.1884 72.4692 97.2693 73.0922 96.3272C74.3154 94.4777 75.8541 92.5049 76.9231 91.2224C76.9487 90.7685 76.7959 90.0876 76.4888 89.2396C76.1664 88.3492 75.6923 87.3219 75.1499 86.2676C74.0718 84.1718 72.7377 81.995 71.8323 80.6222C69.3866 78.0761 66.4203 78.0434 63.9301 78.7952C63.5033 81.2764 62.1727 82.8064 60.6642 83.6984C59.1306 84.6053 57.4231 84.8487 56.3075 84.7947C49.3101 84.5484 46.2344 80.6156 45.483 78.4002C44.9414 78.4008 44.352 78.3816 43.7258 78.3613C41.9709 78.3041 39.9278 78.2376 37.8433 78.5715C35.1224 79.0074 32.395 80.1232 30.3175 82.8329C32.0599 82.638 34.3794 82.6053 36.6229 83.3279C39.2076 84.1604 41.6782 85.9925 43.0406 89.679L42.4553 89.8953C41.1656 86.4055 38.852 84.7015 36.4316 83.9219C34.0573 83.1572 31.5678 83.2794 29.8243 83.5241C29.7671 83.6086 29.7085 83.6948 29.6488 83.7829C27.9887 86.2302 25.3887 90.0628 23.1752 94.4899C20.8763 99.0877 19.0114 104.294 19.0329 109.227C20.5894 109.822 22.9557 110.88 25.2571 112.224C27.4814 113.524 29.6804 115.111 31.0146 116.828C33.0857 113.189 36.035 107.826 38.4444 103.048C39.6964 100.564 40.8 98.2441 41.5587 96.4075C41.9383 95.4885 42.2288 94.6973 42.4086 94.0707C42.4985 93.7573 42.559 93.4911 42.5899 93.2743C42.6215 93.0522 42.6186 92.9052 42.5994 92.8189L43.2086 92.6836C43.2518 92.8782 43.2433 93.1125 43.2077 93.3623C43.1713 93.6174 43.1029 93.9135 43.0084 94.2428C42.8193 94.9017 42.5189 95.7173 42.1354 96.6457C41.3678 98.5038 40.2561 100.84 39.0016 103.329C36.5062 108.278 33.4355 113.848 31.3542 117.492Z" fill="black"/>
<path d="M35.4135 124.96C33.0422 124.212 31.6173 119.656 31.2013 117.472C30.9517 118.346 29.9532 119.24 29.4852 119.812C29.3604 121.56 30.8372 127.197 31.6693 129.641C32.0408 131.127 38.2215 134.165 43.8378 135.257C48.83 136.228 53.9171 137.799 60.0624 136.661C68.4868 135.101 73.323 129.485 74.883 126.833L74.727 122.152C71.2429 124.024 62.5586 128.081 55.6943 129.329C47.1139 130.889 38.3776 125.897 35.4135 124.96Z" fill="#740687" fill-opacity="0.8"/>
<path fill-rule="evenodd" clip-rule="evenodd" d="M29.7914 119.933C29.7784 120.335 29.8415 120.944 29.9646 121.691C30.097 122.494 30.2942 123.431 30.522 124.394C30.9779 126.319 31.5525 128.33 31.9646 129.54L31.9688 129.553L31.9719 129.565C31.999 129.674 32.0928 129.836 32.2949 130.049C32.4917 130.257 32.7681 130.489 33.1182 130.737C33.8176 131.234 34.783 131.778 35.9198 132.315C38.193 133.387 41.1176 134.41 43.8973 134.951C44.731 135.113 45.5641 135.291 46.4016 135.47C50.6161 136.369 54.9411 137.292 60.0056 136.354C68.2362 134.83 72.9924 129.38 74.5681 126.752L74.4318 122.662C70.6891 124.625 62.3874 128.429 55.7501 129.636C51.3869 130.429 47.0005 129.555 43.352 128.378C41.5257 127.789 39.8779 127.122 38.5054 126.545C38.2201 126.425 37.9477 126.31 37.6887 126.2C36.6918 125.778 35.8933 125.439 35.3195 125.258C34.6495 125.047 34.0692 124.574 33.574 123.982C33.0774 123.388 32.6507 122.654 32.2915 121.887C31.742 120.713 31.3395 119.435 31.086 118.402C30.9549 118.598 30.809 118.784 30.6641 118.956C30.4894 119.164 30.3084 119.362 30.1455 119.539L30.1364 119.549C30.0053 119.692 29.8885 119.819 29.7914 119.933ZM30.1861 118.555C30.5212 118.156 30.7957 117.756 30.9012 117.387L31.5078 117.414C31.7121 118.487 32.1656 120.146 32.8567 121.623C33.2022 122.361 33.6022 123.043 34.0528 123.582C34.5047 124.122 34.9917 124.5 35.5074 124.663C36.1124 124.854 36.9493 125.209 37.9508 125.633C38.2059 125.742 38.4716 125.854 38.747 125.97C40.1143 126.544 41.7427 127.203 43.5435 127.784C47.1493 128.947 51.4212 129.789 55.6384 129.022C62.4536 127.783 71.1031 123.746 74.5793 121.878L75.0221 121.64L75.1979 126.913L75.1519 126.991C73.5595 129.698 68.6556 135.387 60.1192 136.968C54.9219 137.93 50.4604 136.976 46.2428 136.075C45.4131 135.897 44.5928 135.722 43.7782 135.563C40.9416 135.012 37.9678 133.97 35.6536 132.879C34.4968 132.333 33.4963 131.771 32.7569 131.246C32.3875 130.984 32.0762 130.726 31.8419 130.479C31.617 130.241 31.4386 129.989 31.3701 129.73C30.9505 128.496 30.3727 126.472 29.9148 124.537C29.685 123.567 29.4844 122.614 29.3489 121.792C29.2148 120.979 29.1399 120.267 29.174 119.79L29.181 119.692L29.2437 119.615C29.3633 119.469 29.5138 119.305 29.669 119.136C29.6746 119.13 29.6802 119.124 29.6858 119.117C29.8495 118.939 30.0215 118.751 30.1861 118.555Z" fill="black"/>
<path d="M33.8533 112.48L31.2012 117.472C31.5132 119.396 32.8333 123.748 34.6333 124.648C36.5054 125.584 40.5615 127.093 42.5896 127.769C52.574 131.669 58.5023 128.705 61.6224 127.769C64.7425 126.833 74.5709 122.776 74.7269 122.152C74.8517 121.653 74.2589 117.108 73.9469 114.82C68.9547 116.484 58.2215 119.906 55.2261 120.28C51.482 120.748 42.2776 119.344 39.7815 118.252C37.7846 117.379 34.9973 114.04 33.8533 112.48Z" fill="#004CFF" fill-opacity="0.8"/>
<path fill-rule="evenodd" clip-rule="evenodd" d="M33.811 111.895L34.105 112.295C34.6702 113.066 35.6445 114.28 36.7231 115.408C37.8113 116.545 38.9704 117.557 39.9067 117.966C41.1104 118.493 43.9955 119.113 47.0789 119.542C50.1582 119.971 53.3597 120.199 55.1875 119.971C56.6531 119.787 60.0564 118.848 63.7477 117.735C67.4259 116.626 71.3543 115.355 73.8483 114.524L74.2053 114.405L74.2561 114.778C74.4122 115.923 74.6388 117.633 74.8107 119.121C74.8967 119.865 74.9693 120.555 75.0126 121.093C75.0343 121.361 75.0489 121.595 75.054 121.779C75.0587 121.948 75.0574 122.117 75.0297 122.228C75.0063 122.321 74.9515 122.39 74.9171 122.429C74.8773 122.473 74.83 122.515 74.7818 122.553C74.6848 122.629 74.5563 122.713 74.4067 122.802C74.1057 122.982 73.6876 123.199 73.1889 123.442C72.1896 123.928 70.8432 124.525 69.4075 125.131C66.5399 126.34 63.2895 127.594 61.7121 128.067C61.3652 128.171 60.9772 128.303 60.5475 128.449C59.0904 128.944 57.1542 129.602 54.717 129.892C51.5476 130.268 47.5202 130.028 42.4836 128.062C40.4506 127.384 36.3845 125.873 34.4939 124.927C33.974 124.667 33.5173 124.176 33.1232 123.593C32.7256 123.005 32.3727 122.295 32.0709 121.563C31.4676 120.1 31.0531 118.508 30.8933 117.522L30.8765 117.418L33.811 111.895ZM33.8984 113.06L31.5265 117.525C31.6903 118.471 32.0839 119.957 32.6478 121.325C32.94 122.034 33.2742 122.702 33.6401 123.243C34.0095 123.79 34.3928 124.179 34.7729 124.369C36.6241 125.295 40.6627 126.797 42.6884 127.472L42.6959 127.475L42.7032 127.478C47.6475 129.409 51.5741 129.637 54.6434 129.272C57.0076 128.991 58.8571 128.363 60.3111 127.87C60.7539 127.719 61.16 127.581 61.5328 127.47C63.0756 127.007 66.2995 125.764 69.165 124.556C70.596 123.952 71.931 123.36 72.9159 122.881C73.4093 122.641 73.809 122.432 74.0875 122.266C74.2277 122.183 74.3294 122.115 74.395 122.063C74.4089 122.052 74.4199 122.043 74.4286 122.035C74.4293 122.025 74.4299 122.014 74.4305 122C74.4325 121.949 74.4325 121.881 74.4302 121.796C74.4256 121.628 74.4119 121.407 74.3906 121.143C74.3482 120.616 74.2765 119.934 74.1908 119.193C74.0373 117.865 73.84 116.357 73.6884 115.235C71.1825 116.067 67.442 117.273 63.9278 118.332C60.2557 119.44 56.7947 120.399 55.2649 120.59C53.3486 120.829 50.0758 120.589 46.9929 120.16C43.9141 119.732 40.9489 119.103 39.6565 118.538C38.596 118.074 37.3629 116.979 36.2722 115.839C35.342 114.867 34.4894 113.833 33.8984 113.06Z" fill="black"/>
<path d="M42.8943 94.2013C42.9449 93.889 42.9992 93.5852 43.0576 93.291C43.1365 93.3699 43.0733 93.6887 42.8943 94.2013C41.7298 101.396 42.5896 113.117 42.5896 117.004C42.5896 121.06 37.4414 133.229 37.4414 133.229C36.0374 132.865 32.9796 131.669 31.9812 129.796C30.7331 127.456 29.0171 121.372 29.4851 119.812C30.1611 119.084 31.326 117.69 31.2012 117.316C34.881 110.547 41.6566 97.7449 42.8943 94.2013Z" fill="#160E1B" fill-opacity="0.4"/>
<path d="M52.5741 86.7388C49.2763 85.5238 46.1259 80.8626 45.5538 78.0024C46.8019 80.8106 50.7459 84.733 56.6303 84.5547C61.7785 84.3987 63.6506 80.6545 63.6506 78.7825C64.5866 79.2505 63.0366 84.5314 61.4665 85.9588C59.7504 87.5188 55.5382 87.8308 52.5741 86.7388Z" fill="#160E1B" fill-opacity="0.4"/>
<path d="M37.4414 105.616L34.0093 112.324C35.1533 113.988 37.4414 117.004 39.9375 118.408C45.8658 119.968 50.2339 120.28 54.2901 120.28C58.3463 120.28 73.9469 114.976 73.9469 114.508C73.9469 114.04 72.3868 105.616 72.3868 105.616C72.3868 105.616 61.3104 108.372 56.3182 109.204C51.95 109.932 43.8377 109.36 42.7456 109.204C41.872 109.079 38.8455 106.76 37.4414 105.616Z" fill="#008126" fill-opacity="0.8"/>
<path fill-rule="evenodd" clip-rule="evenodd" d="M37.3395 105.13L37.6386 105.374C38.3369 105.943 39.4389 106.804 40.473 107.538C40.9904 107.905 41.4865 108.236 41.9044 108.483C42.1134 108.606 42.2987 108.706 42.4547 108.777C42.6156 108.851 42.7258 108.886 42.7898 108.895C43.3174 108.971 45.6039 109.152 48.3116 109.224C51.0203 109.295 54.1146 109.255 56.2669 108.896C58.7517 108.482 62.7595 107.587 66.1536 106.794C67.8491 106.398 69.3887 106.028 70.5045 105.756C71.0624 105.621 71.5142 105.51 71.8266 105.433C71.9828 105.395 72.1041 105.365 72.1863 105.344L72.3114 105.313C72.3115 105.313 72.3115 105.313 72.3869 105.616C72.6937 105.559 72.6937 105.559 72.6937 105.559L72.7608 105.922C72.8034 106.154 72.8644 106.485 72.9375 106.883C73.0838 107.681 73.2789 108.749 73.474 109.831C73.669 110.914 73.8642 112.012 74.0107 112.869C74.084 113.297 74.1452 113.667 74.1882 113.944C74.2097 114.083 74.2269 114.2 74.2388 114.291C74.2497 114.374 74.259 114.455 74.259 114.508C74.259 114.619 74.205 114.696 74.1817 114.726C74.1533 114.762 74.1215 114.79 74.0972 114.81C74.0477 114.849 73.9862 114.887 73.9232 114.922C73.7944 114.995 73.6137 115.08 73.3936 115.177C72.9509 115.37 72.3191 115.618 71.554 115.9C70.0223 116.466 67.9406 117.174 65.7331 117.868C63.5259 118.561 61.189 119.241 59.1479 119.747C57.1181 120.251 55.3475 120.593 54.2902 120.593C50.2127 120.593 45.8172 120.278 39.8582 118.71L39.8195 118.7L39.7846 118.68C37.2187 117.237 34.8953 114.164 33.7522 112.501L33.6469 112.348L37.3395 105.13ZM72.3869 105.616L72.6937 105.559L72.6333 105.233L72.3114 105.313L72.3869 105.616ZM72.1402 105.998C72.0907 106.011 72.0358 106.024 71.9758 106.039C71.6629 106.116 71.2104 106.227 70.6519 106.363C69.5348 106.634 67.9933 107.005 66.2956 107.402C62.9035 108.195 58.877 109.094 56.3695 109.512C54.1537 109.881 51.0078 109.919 48.2952 109.848C45.5817 109.776 43.266 109.594 42.7016 109.513C42.5472 109.491 42.3717 109.426 42.1944 109.345C42.0121 109.261 41.8067 109.15 41.5872 109.02C41.148 108.761 40.6359 108.418 40.112 108.047C39.2019 107.401 38.243 106.661 37.5442 106.1L34.3721 112.3C35.5406 113.98 37.7154 116.785 40.056 118.117C45.9336 119.66 50.2642 119.969 54.2902 119.969C55.2609 119.969 56.9614 119.647 58.9976 119.142C61.0223 118.639 63.3462 117.963 65.5461 117.272C67.7458 116.581 69.8177 115.876 71.338 115.315C72.0988 115.034 72.7175 114.791 73.1438 114.605C73.3582 114.511 73.5166 114.435 73.6183 114.378C73.6191 114.378 73.6199 114.377 73.6207 114.377C73.6205 114.375 73.6203 114.373 73.62 114.372C73.6091 114.288 73.5928 114.176 73.5716 114.04C73.5293 113.767 73.4687 113.401 73.3956 112.974C73.2496 112.12 73.0548 111.024 72.8598 109.942C72.6649 108.86 72.47 107.793 72.3238 106.996C72.2506 106.597 72.1897 106.267 72.1471 106.035L72.1402 105.998Z" fill="black"/>
<path d="M41.3416 97.6597L37.4414 105.616C39.0535 106.864 41.8096 109.048 42.7456 109.204C44.5922 109.512 50.2339 109.672 55.5381 109.36C59.6797 109.117 68.4866 106.656 72.3868 105.616C72.0124 103.245 70.6707 99.0117 70.0467 97.3477C68.3306 99.5317 46.8018 100.156 45.2417 99.8438C43.9937 99.5941 42.1216 98.2837 41.3416 97.6597Z" fill="#FFED00" fill-opacity="0.8"/>
<path fill-rule="evenodd" clip-rule="evenodd" d="M70.1441 96.7183L70.3389 97.2377C70.9655 98.9086 72.3157 103.165 72.695 105.567L72.7389 105.845L72.4672 105.917C72.1004 106.015 71.6898 106.125 71.2434 106.245C69.3202 106.763 66.7329 107.459 64.1264 108.09C60.9219 108.865 57.659 109.547 55.5565 109.671C50.2465 109.984 44.5764 109.825 42.6943 109.511C42.3961 109.462 42.0027 109.266 41.5895 109.021C41.1631 108.768 40.6722 108.436 40.1654 108.073C39.298 107.452 38.3685 106.73 37.6152 106.145C37.4882 106.047 37.3662 105.952 37.2504 105.862L37.0493 105.707L41.2327 97.1725L41.5365 97.4156C41.9172 97.7202 42.5691 98.1958 43.2777 98.6248C43.9945 99.0587 44.7354 99.4239 45.3029 99.5374C45.4631 99.5694 45.9369 99.5946 46.6887 99.6032C47.4255 99.6117 48.3975 99.6045 49.5276 99.5801C51.7877 99.5315 54.6739 99.4147 57.5648 99.22C60.457 99.0252 63.3471 98.753 65.6177 98.3943C66.7539 98.2149 67.7262 98.0151 68.463 97.7953C68.8316 97.6854 69.1335 97.5727 69.3645 97.4588C69.6011 97.3421 69.7367 97.2368 69.8014 97.1544L70.1441 96.7183ZM46.6815 100.227C45.9507 100.219 45.4104 100.195 45.1805 100.149C44.5 100.013 43.6808 99.5983 42.9546 99.1586C42.3842 98.8133 41.8503 98.4397 41.4532 98.1404L37.8335 105.525C37.8879 105.567 37.9433 105.61 37.9997 105.654C38.7537 106.239 39.6721 106.952 40.5287 107.565C41.0294 107.924 41.5038 108.245 41.9078 108.484C42.325 108.732 42.6272 108.868 42.7969 108.896C44.608 109.198 50.2214 109.36 55.5198 109.048C57.5589 108.928 60.7703 108.259 63.9797 107.483C66.5775 106.855 69.1549 106.161 71.0782 105.644C71.4177 105.552 71.7368 105.466 72.032 105.387C71.6412 103.191 70.5433 99.6584 69.9059 97.8714C69.823 97.9235 69.7339 97.9724 69.6405 98.0184C69.3668 98.1534 69.0288 98.2778 68.6414 98.3933C67.8662 98.6245 66.8629 98.8294 65.715 99.0107C63.4176 99.3736 60.5062 99.6474 57.6067 99.8426C54.7058 100.038 51.81 100.155 49.5411 100.204C48.4067 100.228 47.4274 100.236 46.6815 100.227Z" fill="black"/>
<path d="M67.8627 85.959C67.8627 82.714 65.3666 79.7187 63.9625 78.6267C66.4586 77.6906 69.7001 78.1133 71.4508 80.0307C74.727 83.6189 77.2231 89.3911 77.2231 91.2632C73.4789 95.2569 71.8148 99.0635 71.4508 100.468L70.0468 97.1914C69.3187 94.7993 67.8627 89.2039 67.8627 85.959Z" fill="#E50202" fill-opacity="0.8"/>
<path fill-rule="evenodd" clip-rule="evenodd" d="M64.5891 78.7481C65.2536 79.3517 66.0391 80.247 66.7044 81.3212C67.5221 82.6416 68.1747 84.2588 68.1747 85.959C68.1747 87.5463 68.5324 89.7291 68.9867 91.8291C69.4376 93.9138 69.9785 95.8938 70.3403 97.0843L71.4098 99.5798C72.0749 97.7877 73.7543 94.5341 76.9075 91.1439C76.8841 90.7241 76.743 90.0976 76.4857 89.3211C76.2056 88.476 75.7968 87.4797 75.2849 86.4269C74.26 84.3191 72.8324 82.0066 71.2204 80.2411C69.6927 78.5679 66.9096 78.0818 64.5891 78.7481ZM63.853 78.3345C66.4352 77.3662 69.8229 77.785 71.6812 79.8204C73.3454 81.643 74.8039 84.0107 75.8461 86.1541C76.3678 87.2269 76.7877 88.2489 77.078 89.1248C77.3654 89.9919 77.5351 90.743 77.5351 91.2632V91.3866L77.4507 91.4766C73.7375 95.4374 72.1021 99.1987 71.7529 100.546L71.5237 101.43L69.7533 97.2986L69.7483 97.2823C69.382 96.0789 68.8338 94.0737 68.3768 91.961C67.921 89.854 67.5507 87.6166 67.5507 85.959C67.5507 84.4143 66.9552 82.9114 66.1739 81.6498C65.3927 80.3884 64.4421 79.3949 63.771 78.873L63.3306 78.5304L63.853 78.3345Z" fill="black"/>
<path d="M21.5288 97.0355C19.5007 101.716 18.7207 106.396 18.7207 109.36C23.2449 110.92 28.0811 114.196 31.0452 117.316C33.5413 112.636 39.2511 102.028 41.4976 97.6595C43.6639 93.4473 43.1617 90.4312 42.5897 89.5472C39.844 82.6829 32.8133 82.4229 29.6411 83.1509C27.7691 86.3231 23.0438 93.5395 21.5288 97.0355Z" fill="#E50202" fill-opacity="0.8"/>
<path fill-rule="evenodd" clip-rule="evenodd" d="M29.8407 83.4263C29.3269 84.292 28.6163 85.4377 27.8247 86.7141C27.1569 87.7909 26.4314 88.9607 25.7176 90.1339C24.1109 92.7748 22.5626 95.4346 21.8151 97.1595C19.8534 101.687 19.0718 106.21 19.0342 109.139C23.3972 110.691 28.0046 113.782 30.9715 116.792C31.5545 115.7 32.2833 114.338 33.0876 112.836C35.8582 107.661 39.5255 100.812 41.2201 97.5168C42.2849 95.4465 42.6877 93.6822 42.7589 92.3388C42.8308 90.9821 42.5641 90.082 42.3277 89.7167L42.3112 89.6912L42.3 89.6631C40.9656 86.3272 38.5989 84.6049 36.1767 83.7979C33.8097 83.0094 31.3886 83.0959 29.8407 83.4263ZM42.8686 89.4044C41.4552 85.8935 38.9399 84.0608 36.3739 83.2059C33.8133 82.3528 31.2034 82.4723 29.5713 82.8468L29.4406 82.8768L29.3724 82.9923C28.8558 83.8678 28.124 85.0475 27.3011 86.3744C26.6335 87.4506 25.906 88.6237 25.1845 89.8096C23.5818 92.4439 22.01 95.1403 21.2425 96.9114C19.1981 101.629 18.4087 106.352 18.4087 109.36V109.582L18.619 109.655C23.0927 111.198 27.8869 114.445 30.819 117.531L31.1169 117.845L31.3205 117.463C31.9316 116.317 32.7358 114.815 33.6348 113.136C36.4057 107.961 40.0779 101.102 41.7751 97.8022C42.8766 95.6603 43.3058 93.8105 43.3821 92.3718C43.4563 90.9704 43.1963 89.932 42.8686 89.4044Z" fill="black"/>
<mask id="mask0" mask-type="alpha" maskUnits="userSpaceOnUse" x="0" y="42" width="118" height="158">
<rect y="42.4336" width="117.941" height="157.566" fill="#C4C4C4"/>
</mask>
<g mask="url(#mask0)">
<path d="M25.4291 173.105C25.2731 171.857 28.5492 155.632 29.3293 153.604C29.5072 153.142 29.7571 151.632 30.0426 149.548C31.0453 149.86 35.1015 149.548 36.6616 146.272C37.5976 143.932 36.9736 141.748 35.2575 137.848C36.6616 139.096 37.5976 139.408 38.3776 141.436C38.7376 142.372 39.0017 143.62 40.8737 143.62C41.6538 142.996 41.1857 142.06 40.8737 140.812C40.2497 139.096 39.7817 138.004 38.8457 136.756C38.3776 136.132 34.7895 134.728 33.8535 131.919C45.2419 137.068 55.656 137.083 56.6304 137.068C66.6148 136.912 72.907 130.203 74.8831 126.927C74.6751 131.503 75.3511 140.344 76.1311 142.684C76.9112 144.556 77.2232 156.568 77.3792 158.128C77.504 159.377 79.2513 165.929 79.5633 169.829C79.5633 172.169 79.6881 174.447 79.5633 175.445C79.4073 176.693 70.3 181.442 67.7068 181.997C65.5227 182.465 63.4426 182.829 62.5586 183.089C62.3506 182.829 62.0906 181.373 61.7786 180.905C61.1728 179.997 59.2825 169.205 59.2825 166.553V156.568C59.2825 154.946 57.6184 151.212 56.7864 149.548C56.1103 149.808 54.5399 150.64 53.6662 151.888C52.7926 153.136 50.1821 162.185 48.8301 166.553C48.466 171.701 48.2871 181.346 47.114 181.997C45.7099 182.777 39.3137 182.465 36.8176 181.997C34.3215 181.529 28.5492 179.189 27.4572 178.097C25.9692 176.609 25.5539 174.104 25.4291 173.105Z" fill="#F22152"/>
<path fill-rule="evenodd" clip-rule="evenodd" d="M56.6255 136.756C66.4671 136.602 72.6744 129.985 74.6159 126.766L75.1947 126.941C75.0916 129.211 75.2076 132.551 75.4476 135.62C75.5675 137.153 75.7181 138.614 75.8868 139.836C76.0555 141.057 76.2398 142.018 76.4238 142.575C76.5345 142.846 76.6277 143.266 76.7102 143.771C76.7952 144.29 76.8727 144.926 76.9437 145.636C77.0858 147.057 77.2031 148.788 77.3006 150.506C77.3959 152.182 77.4722 153.84 77.5343 155.189C77.6001 156.617 77.6499 157.7 77.6896 158.097C77.7186 158.387 77.846 159.009 78.034 159.868C78.1036 160.186 78.181 160.534 78.2636 160.906C78.401 161.524 78.5526 162.206 78.706 162.919C79.1972 165.199 79.7164 167.831 79.8743 169.804L79.8753 169.817V169.829C79.8753 170.666 79.8913 171.493 79.9061 172.26C79.9119 172.562 79.9176 172.855 79.922 173.135C79.9375 174.116 79.9385 174.959 79.8728 175.484C79.8533 175.64 79.772 175.784 79.6844 175.903C79.5927 176.028 79.4703 176.158 79.3279 176.291C79.0427 176.556 78.6498 176.856 78.1862 177.175C77.2571 177.813 76.0123 178.547 74.697 179.256C73.3807 179.965 71.9871 180.653 70.7582 181.2C69.5369 181.743 68.4553 182.156 67.7721 182.303C66.9365 182.482 66.1153 182.646 65.3726 182.794C65.1425 182.84 64.9199 182.884 64.7068 182.927C63.7989 183.11 63.0727 183.264 62.6466 183.389L62.4457 183.448L62.3149 183.284C62.261 183.217 62.2207 183.133 62.1906 183.061C62.158 182.984 62.1265 182.895 62.096 182.801C62.044 182.64 61.9897 182.45 61.9351 182.258C61.9259 182.226 61.9167 182.193 61.9075 182.161C61.8425 181.933 61.7763 181.707 61.708 181.51C61.6375 181.306 61.5733 181.16 61.5189 181.079C61.459 180.989 61.4058 180.863 61.3574 180.73C61.3068 180.591 61.2531 180.419 61.1972 180.222C61.0852 179.826 60.9602 179.313 60.8284 178.72C60.5646 177.533 60.2706 176.011 59.996 174.437C59.4488 171.3 58.9704 167.911 58.9704 166.553V156.568C58.9704 156.206 58.8758 155.702 58.7089 155.105C58.5436 154.514 58.3133 153.853 58.0554 153.186C57.5911 151.986 57.0426 150.781 56.6368 149.95C55.9053 150.283 54.648 151.03 53.9218 152.067C53.8336 152.193 53.7082 152.443 53.5507 152.818C53.3962 153.186 53.2195 153.653 53.0261 154.196C52.6393 155.283 52.1903 156.663 51.7252 158.144C51.1687 159.916 50.5928 161.821 50.0745 163.535C49.7295 164.677 49.41 165.734 49.1387 166.611C49.0588 167.749 48.9876 169.105 48.9125 170.537C48.9033 170.711 48.8941 170.887 48.8849 171.063C48.7986 172.701 48.7053 174.413 48.5865 175.985C48.4679 177.555 48.3233 178.995 48.1332 180.087C48.0383 180.632 47.9302 181.101 47.804 181.461C47.7409 181.641 47.6702 181.803 47.5888 181.936C47.5095 182.065 47.4056 182.192 47.2655 182.27C47.0491 182.39 46.7595 182.479 46.4342 182.546C46.1041 182.615 45.7164 182.666 45.291 182.703C44.44 182.778 43.4189 182.797 42.3694 182.777C40.2733 182.738 38.0314 182.543 36.76 182.304C35.4796 182.064 33.3886 181.352 31.4919 180.57C30.5405 180.178 29.6298 179.764 28.8858 179.379C28.154 178.999 27.5478 178.629 27.2365 178.318C26.4438 177.525 25.9483 176.475 25.6353 175.514C25.3211 174.55 25.183 173.652 25.1195 173.144C25.1052 173.03 25.1121 172.863 25.1276 172.677C25.1439 172.482 25.1722 172.237 25.2106 171.951C25.2875 171.378 25.4065 170.63 25.5555 169.764C25.8535 168.032 26.2734 165.82 26.7222 163.586C27.1711 161.351 27.6494 159.091 28.0645 157.262C28.4769 155.446 28.833 154.025 29.038 153.492C29.114 153.295 29.2165 152.833 29.3381 152.131C29.4576 151.44 29.5909 150.546 29.7335 149.506L29.7835 149.141L30.1353 149.25C30.3329 149.312 30.7303 149.353 31.2596 149.317C31.7806 149.282 32.4038 149.175 33.0436 148.96C34.3218 148.53 35.6414 147.681 36.3755 146.147C37.2524 143.945 36.6893 141.876 34.9719 137.973L35.4648 137.615C35.7733 137.889 36.0655 138.121 36.3423 138.34C37.2782 139.083 38.0392 139.687 38.6688 141.324C38.7066 141.422 38.742 141.519 38.7768 141.614C38.9215 142.01 39.0559 142.378 39.3018 142.683C39.5676 143.014 39.9799 143.282 40.7581 143.306C40.8578 143.208 40.9157 143.107 40.9488 143C40.9918 142.863 40.9997 142.697 40.9736 142.489C40.9474 142.279 40.8894 142.044 40.8143 141.773C40.7925 141.694 40.7692 141.612 40.745 141.527C40.6894 141.331 40.6295 141.12 40.575 140.903C39.9569 139.205 39.5014 138.15 38.596 136.943C38.5689 136.907 38.497 136.84 38.3535 136.738C38.2171 136.64 38.0422 136.527 37.8332 136.395C37.7866 136.366 37.7386 136.336 37.6892 136.305C37.2998 136.06 36.8265 135.762 36.3415 135.409C35.2541 134.618 34.057 133.517 33.5574 132.018L33.3318 131.341L33.9819 131.635C45.3112 136.757 55.6733 136.771 56.6255 136.756ZM57.2351 149.753C57.6432 150.593 58.1799 151.779 58.6374 152.961C58.8995 153.639 59.1373 154.32 59.3099 154.937C59.481 155.549 59.5944 156.119 59.5944 156.568V166.553C59.5944 167.847 60.0613 171.18 60.6107 174.329C60.8843 175.898 61.1765 177.41 61.4375 178.585C61.5682 179.173 61.6902 179.673 61.7976 180.052C61.8513 180.241 61.9003 180.397 61.9439 180.517C61.9898 180.643 62.0224 180.709 62.0381 180.732C62.1398 180.885 62.2251 181.096 62.2976 181.305C62.3723 181.521 62.4426 181.763 62.5076 181.99C62.5171 182.023 62.5265 182.056 62.5358 182.089C62.5908 182.282 62.6414 182.46 62.6896 182.608C62.7028 182.649 62.7155 182.686 62.7275 182.72C63.188 182.601 63.8363 182.466 64.5835 182.316C64.7986 182.272 65.0226 182.228 65.2536 182.181C65.9955 182.033 66.8106 181.87 67.6414 181.692C68.2549 181.561 69.2841 181.172 70.5047 180.63C71.7175 180.09 73.0968 179.409 74.4009 178.706C75.7061 178.003 76.9294 177.281 77.8329 176.66C78.2856 176.349 78.65 176.069 78.9028 175.834C79.0294 175.716 79.1212 175.616 79.1813 175.534C79.2455 175.446 79.2537 175.406 79.2536 175.407C79.3128 174.933 79.3138 174.138 79.2981 173.145C79.2937 172.869 79.2881 172.579 79.2823 172.279C79.2675 171.514 79.2514 170.681 79.2512 169.841C79.0959 167.916 78.5866 165.328 78.096 163.05C77.9427 162.338 77.7923 161.661 77.6553 161.045C77.5726 160.673 77.4949 160.323 77.4244 160.001C77.2399 159.159 77.1021 158.494 77.0687 158.16C77.0278 157.751 76.9763 156.634 76.909 155.176C76.8467 153.826 76.7709 152.183 76.6776 150.541C76.5802 148.826 76.4635 147.106 76.3228 145.699C76.2524 144.995 76.1764 144.373 76.0944 143.871C76.011 143.362 75.9253 143.001 75.8431 142.804L75.8387 142.793L75.8351 142.783C75.6302 142.168 75.4386 141.151 75.2687 139.921C75.0978 138.684 74.9461 137.21 74.8255 135.668C74.6205 133.048 74.5045 130.219 74.539 128.013C72.0214 131.536 65.8963 137.235 56.6352 137.38C55.66 137.395 45.6165 137.379 34.459 132.529C34.9871 133.501 35.8502 134.28 36.7085 134.904C37.1755 135.244 37.6309 135.531 38.0213 135.776C38.0707 135.808 38.1191 135.838 38.1664 135.868C38.3742 135.999 38.5637 136.121 38.7167 136.23C38.8628 136.335 39.0054 136.449 39.0952 136.568C40.0593 137.854 40.5398 138.981 41.1669 140.705L41.1725 140.72L41.1764 140.736C41.2295 140.949 41.2864 141.149 41.3422 141.345C41.367 141.433 41.3917 141.519 41.4157 141.606C41.4917 141.881 41.5605 142.153 41.5928 142.411C41.6252 142.671 41.6234 142.934 41.5445 143.186C41.4637 143.445 41.3087 143.671 41.0686 143.864L40.9831 143.932H40.8737C39.8551 143.932 39.2269 143.586 38.8155 143.074C38.4982 142.68 38.321 142.191 38.1759 141.79C38.145 141.705 38.1155 141.623 38.0864 141.548C37.5324 140.107 36.9276 139.608 36.054 138.912C37.3824 142.105 37.8358 144.176 36.9512 146.388L36.9475 146.397L36.9432 146.406C36.1164 148.143 34.6306 149.085 33.2425 149.551C32.548 149.785 31.8716 149.902 31.3013 149.94C30.9247 149.965 30.5824 149.957 30.3062 149.92C30.1801 150.824 30.0613 151.611 29.953 152.237C29.8338 152.926 29.7224 153.451 29.6204 153.716C29.4354 154.197 29.0895 155.566 28.6731 157.4C28.2594 159.223 27.7822 161.478 27.334 163.709C26.8858 165.94 26.4672 168.145 26.1704 169.87C26.022 170.732 25.9045 171.472 25.8291 172.034C25.7913 172.315 25.7645 172.548 25.7495 172.729C25.7338 172.918 25.7334 173.024 25.7387 173.066C25.7999 173.556 25.9318 174.41 26.2286 175.321C26.5264 176.235 26.9826 177.181 27.6778 177.877C27.9126 178.111 28.4374 178.443 29.173 178.825C29.8964 179.2 30.7896 179.605 31.7298 179.993C33.6162 180.771 35.6594 181.463 36.875 181.691C38.0998 181.92 40.304 182.115 42.3811 182.154C43.4182 182.173 44.4154 182.153 45.2366 182.082C45.6473 182.046 46.0091 181.997 46.3074 181.935C46.6103 181.872 46.8278 181.8 46.9624 181.725C46.969 181.721 47.0039 181.696 47.0563 181.61C47.1066 181.528 47.1603 181.411 47.2151 181.255C47.3247 180.942 47.4259 180.511 47.5184 179.98C47.7031 178.919 47.846 177.504 47.9643 175.938C48.0824 174.374 48.1754 172.668 48.2617 171.03C48.271 170.854 48.2802 170.678 48.2893 170.504C48.3652 169.058 48.4373 167.683 48.5188 166.531L48.5213 166.495L48.532 166.461C48.8024 165.587 49.1249 164.52 49.4742 163.365C49.9941 161.645 50.5736 159.728 51.1298 157.957C51.5956 156.474 52.0475 155.085 52.4382 153.987C52.6335 153.439 52.8146 152.96 52.9754 152.577C53.1331 152.201 53.2804 151.895 53.4106 151.709C54.3351 150.389 55.9715 149.527 56.6743 149.257L56.6921 149.25L56.7107 149.245C57.1247 149.142 58.0954 148.876 58.6985 148.634L58.9303 149.214C58.4347 149.412 57.7263 149.62 57.2351 149.753Z" fill="black"/>
<path d="M60.0624 141.28C60.5616 139.907 60.2704 137.796 60.0624 136.912C59.5944 136.912 56.4742 137.224 56.4742 137.224C56.4742 137.224 56.7343 140.24 56.6302 141.592L60.0624 141.28Z" fill="#E95F80"/>
<path fill-rule="evenodd" clip-rule="evenodd" d="M56.4743 137.224L56.1634 137.25L56.1662 137.284C56.1681 137.306 56.1708 137.339 56.1742 137.381C56.1811 137.466 56.1908 137.588 56.2021 137.739C56.2248 138.042 56.2539 138.459 56.2797 138.918C56.3319 139.843 56.3694 140.916 56.3192 141.568L56.2909 141.936L60.2879 141.573L60.3556 141.386C60.6261 140.643 60.6764 139.723 60.6393 138.898C60.602 138.068 60.4743 137.3 60.3661 136.84L60.3095 136.6H60.0624C59.8097 136.6 58.892 136.68 58.0639 136.757C57.644 136.796 57.2389 136.835 56.9388 136.864C56.7887 136.879 56.6649 136.891 56.5785 136.9L56.4434 136.913C56.4433 136.913 56.4432 136.913 56.4743 137.224ZM56.81 137.504C56.8144 137.56 56.8192 137.624 56.8244 137.693C56.8473 137.998 56.8766 138.419 56.9028 138.883C56.9463 139.656 56.9818 140.563 56.9604 141.249L59.8301 140.988C60.0074 140.387 60.0482 139.645 60.0159 138.926C59.9867 138.276 59.8989 137.667 59.813 137.235C59.4403 137.259 58.7729 137.318 58.1217 137.378C57.7031 137.417 57.2989 137.456 56.9994 137.485C56.9303 137.492 56.8668 137.498 56.81 137.504ZM56.4743 137.224L56.4434 136.913L56.137 136.944L56.1634 137.25L56.4743 137.224Z" fill="black"/>
<path d="M74.8831 131.92C75.1951 134.26 61.4666 141.28 60.0625 141.28C60.3745 140.188 60.4369 137.879 60.0625 136.756C63.6506 136.288 70.8269 133.168 74.8831 127.083V131.92Z" fill="#991635"/>
<path fill-rule="evenodd" clip-rule="evenodd" d="M75.195 126.053V131.901C75.2184 132.119 75.1616 132.337 75.0663 132.542C74.9671 132.755 74.817 132.974 74.6326 133.194C74.2639 133.634 73.7281 134.116 73.0883 134.615C71.8063 135.616 70.0612 136.721 68.2715 137.748C66.4801 138.776 64.6346 139.73 63.147 140.429C62.4035 140.778 61.746 141.065 61.2275 141.265C60.9685 141.365 60.7404 141.445 60.5513 141.5C60.3711 141.553 60.1982 141.592 60.0624 141.592C59.9645 141.592 59.8723 141.546 59.8133 141.468C59.7544 141.39 59.7355 141.288 59.7624 141.194C59.9076 140.686 60.0002 139.867 60.0078 139.027C60.0155 138.183 59.9371 137.366 59.7664 136.854L59.6467 136.495L60.0221 136.446C61.7663 136.219 64.418 135.339 67.1404 133.756C69.8597 132.174 72.628 129.903 74.6234 126.91L75.195 126.053ZM60.4563 137.012C60.5873 137.59 60.6383 138.323 60.6318 139.032C60.6259 139.681 60.5716 140.337 60.4749 140.871C60.6231 140.824 60.7999 140.761 61.0028 140.683C61.5026 140.49 62.1456 140.21 62.8818 139.864C64.3533 139.173 66.1837 138.226 67.961 137.207C69.74 136.186 71.4562 135.097 72.7044 134.123C73.3298 133.635 73.8263 133.185 74.1542 132.793C74.318 132.598 74.4322 132.425 74.5005 132.279C74.5695 132.13 74.5827 132.028 74.5737 131.961L74.571 131.94V128.068C72.5727 130.759 69.9851 132.823 67.4541 134.295C64.8496 135.81 62.2859 136.708 60.4563 137.012Z" fill="black"/>
<path d="M40.2496 139.096C43.1202 141.218 52.3661 141.644 56.6303 141.592V137.224C49.3916 137.598 38.5336 133.948 34.0094 132.076C34.6334 134.104 38.3776 136.132 39.0016 136.756C39.5008 137.255 40.0416 138.524 40.2496 139.096Z" fill="#991635"/>
<path fill-rule="evenodd" clip-rule="evenodd" d="M33.5162 131.534L34.1287 131.787C36.3787 132.718 40.2109 134.094 44.3812 135.19C48.5573 136.288 53.0439 137.097 56.6142 136.912L56.9423 136.895V141.9L56.6341 141.904C54.4921 141.93 51.1011 141.836 47.882 141.469C46.2725 141.285 44.6995 141.033 43.3441 140.691C41.9965 140.35 40.832 139.914 40.0642 139.347L39.9885 139.291L39.9564 139.202C39.8558 138.926 39.673 138.476 39.4552 138.037C39.2327 137.588 38.9914 137.187 38.7809 136.976C38.6506 136.846 38.3318 136.623 37.8688 136.303C37.8537 136.293 37.8385 136.282 37.8232 136.272C37.3841 135.969 36.8501 135.6 36.3154 135.19C35.7626 134.765 35.2012 134.29 34.7358 133.786C34.2734 133.286 33.887 132.739 33.7112 132.167L33.5162 131.534ZM34.6422 132.668C34.7919 132.897 34.9783 133.129 35.194 133.363C35.6256 133.83 36.1563 134.281 36.6955 134.695C37.2174 135.095 37.74 135.456 38.1809 135.76C38.1951 135.77 38.2092 135.78 38.2233 135.789L38.2288 135.793C38.6605 136.091 39.0413 136.354 39.2222 136.535C39.5109 136.824 39.7897 137.307 40.0144 137.76C40.2215 138.178 40.3978 138.602 40.5092 138.898C41.1802 139.368 42.2182 139.763 43.4968 140.086C44.8156 140.418 46.3588 140.667 47.9527 140.849C50.99 141.195 54.1876 141.296 56.3183 141.283V137.549C52.7082 137.676 48.2921 136.863 44.2226 135.794C40.4558 134.804 36.9631 133.587 34.6422 132.668Z" fill="black"/>
<path d="M69.8908 141.592C69.2668 140.469 69.0588 138.056 69.1108 136.912C70.0468 136.548 72.5429 134.884 74.883 132.855C74.883 134.603 75.7151 140.448 76.1311 143.152C73.635 146.428 70.6709 142.996 69.8908 141.592Z" fill="#E95F80"/>
<path fill-rule="evenodd" clip-rule="evenodd" d="M75.195 132.172V132.856C75.195 133.705 75.3997 135.581 75.6605 137.605C75.9201 139.62 76.2317 141.754 76.4394 143.105L76.4596 143.236L76.3792 143.341C75.7205 144.206 75.0043 144.661 74.2687 144.795C73.5369 144.928 72.8351 144.736 72.2187 144.401C70.9981 143.739 70.0252 142.476 69.6181 141.744C69.2765 141.129 69.0627 140.196 68.9383 139.303C68.8126 138.4 68.7721 137.492 68.7991 136.898L68.8083 136.695L68.9977 136.621C69.4281 136.454 70.2595 135.966 71.2929 135.251C72.3175 134.542 73.5176 133.626 74.6787 132.62L75.195 132.172ZM69.4165 137.12C69.4068 137.669 69.4485 138.442 69.5563 139.217C69.6789 140.097 69.8811 140.932 70.1636 141.44C70.5365 142.112 71.4356 143.267 72.5162 143.853C73.0503 144.143 73.6062 144.281 74.1567 144.181C74.6783 144.086 75.2398 143.767 75.8022 143.066C75.5943 141.708 75.2936 139.641 75.0416 137.685C74.8343 136.077 74.6576 134.527 74.5951 133.511C73.5739 134.367 72.5458 135.143 71.6479 135.764C70.7351 136.396 69.9385 136.88 69.4165 137.12Z" fill="black"/>
<path d="M36.9735 142.84C37.4727 142.216 37.4415 140.656 37.4415 139.876L35.7255 138.472L36.9735 142.84Z" fill="#E95F80"/>
<path fill-rule="evenodd" clip-rule="evenodd" d="M35.1516 137.599L37.7535 139.728V139.876C37.7535 139.917 37.7536 139.96 37.7537 140.005C37.7545 140.388 37.7557 140.924 37.7053 141.446C37.677 141.739 37.6318 142.036 37.5582 142.305C37.4855 142.572 37.3795 142.832 37.2171 143.035L36.8395 143.507L35.1516 137.599ZM36.2993 139.344L37.0189 141.863C37.0468 141.713 37.0681 141.552 37.0841 141.386C37.1307 140.904 37.1304 140.406 37.1297 140.024L36.2993 139.344Z" fill="black"/>
<path d="M29.3292 176.381C28.2601 175.668 26.1571 173.521 25.429 172.481C25.1794 174.103 26.5731 176.797 27.1451 177.785C28.3932 178.877 31.6248 180.567 34.6334 181.529C38.5336 182.777 46.8019 182.621 47.2699 181.997C47.6443 181.498 47.8419 180.229 47.8939 179.657C42.4337 181.061 39.1576 180.281 36.6615 179.657C34.3913 179.09 30.7333 177.317 29.3292 176.381Z" fill="#991635"/>
<path fill-rule="evenodd" clip-rule="evenodd" d="M25.2389 171.666L25.6847 172.302C26.0331 172.8 26.7258 173.582 27.4726 174.334C28.2209 175.088 28.9955 175.784 29.5023 176.122C30.1846 176.577 31.4333 177.246 32.8008 177.874C34.1683 178.502 35.6299 179.078 36.7372 179.355C39.2093 179.973 42.4273 180.741 47.8162 179.355L48.2447 179.245L48.2047 179.686C48.1776 179.983 48.1133 180.457 48.0071 180.924C47.9043 181.376 47.7504 181.877 47.5195 182.185C47.436 182.296 47.3068 182.36 47.2103 182.398C47.1008 182.442 46.9676 182.48 46.8199 182.513C46.5231 182.578 46.1319 182.632 45.675 182.674C44.7591 182.758 43.5483 182.797 42.2341 182.778C39.6144 182.739 36.5341 182.465 34.5383 181.827C33.0161 181.34 31.4406 180.67 30.088 179.984C28.7409 179.302 27.5933 178.592 26.9397 178.02L26.9009 177.986L26.8751 177.942C26.5841 177.439 26.0846 176.504 25.6882 175.484C25.2978 174.48 24.9823 173.333 25.1207 172.434L25.2389 171.666ZM25.7466 173.388C25.8234 173.963 26.0192 174.614 26.2698 175.258C26.6393 176.209 27.105 177.089 27.3891 177.584C27.9915 178.1 29.0656 178.767 30.3701 179.428C31.6975 180.101 33.2422 180.757 34.7285 181.232C36.6329 181.842 39.6368 182.115 42.2434 182.154C43.5423 182.173 44.73 182.134 45.6179 182.053C46.063 182.012 46.425 181.961 46.6852 181.903C46.8159 181.874 46.9122 181.846 46.9772 181.82C47.0076 181.807 47.0246 181.798 47.0326 181.794C47.1714 181.597 47.2989 181.223 47.3986 180.786C47.4547 180.539 47.4984 180.29 47.5303 180.07C42.2614 181.34 39.0381 180.573 36.5858 179.96C35.4228 179.67 33.9203 179.075 32.5403 178.441C31.1601 177.807 29.8778 177.122 29.1561 176.641C28.5938 176.266 27.7823 175.532 27.0298 174.774C26.566 174.307 26.1141 173.82 25.7466 173.388Z" fill="black"/>
<path d="M67.5508 179.345C65.707 179.991 63.0786 180.645 61.9346 180.749L62.5586 183.089C62.6106 183.037 63.8866 182.985 68.1748 181.685C73.323 180.125 77.5872 177.213 79.5633 175.601V172.793C76.1311 177.161 70.6709 178.253 67.5508 179.345Z" fill="#991635"/>
<path fill-rule="evenodd" clip-rule="evenodd" d="M79.8753 171.891V175.749L79.7605 175.843C77.7644 177.472 73.4645 180.409 68.2653 181.984C66.1141 182.636 64.7143 182.976 63.8426 183.161C63.4065 183.253 63.1036 183.306 62.9067 183.339C62.8762 183.344 62.8489 183.348 62.8246 183.352C62.7813 183.36 62.747 183.365 62.7192 183.37L62.3965 183.693L61.5377 180.472L61.9063 180.439C63.0135 180.338 65.6142 179.693 67.4477 179.051C67.9539 178.874 68.5148 178.698 69.1135 178.51C72.2746 177.519 76.4931 176.196 79.3179 172.6L79.8753 171.891ZM69.2561 179.122C68.6721 179.304 68.1321 179.473 67.6539 179.64C65.9721 180.229 63.6307 180.83 62.3286 181.016L62.7847 182.726C62.7908 182.725 62.7971 182.724 62.8034 182.723C62.9943 182.691 63.2882 182.64 63.7136 182.55C64.565 182.37 65.9473 182.035 68.0843 181.387C73.084 179.872 77.2478 177.065 79.2513 175.453V173.649C76.3144 176.917 72.2181 178.197 69.2561 179.122Z" fill="black"/>
<path d="M35.8815 138.628L36.3495 140.5C36.8695 140.881 36.5055 140.812 36.9735 143.308C37.6833 147.093 36.0375 147.832 34.6334 148.924C33.5102 149.798 31.2533 149.912 30.2653 149.86L29.6412 152.981L28.0812 159.845L25.2731 172.793C25.2731 172.793 27.7692 179.034 27.9252 178.566C28.5354 176.735 28.0812 166.085 28.0812 166.085C28.5492 163.589 29.9533 154.853 30.2653 153.761C30.5363 152.812 30.5773 150.952 31.6693 150.64C33.2294 150.016 34.4774 150.016 35.8815 148.768C37.3048 147.503 38.5336 146.116 39.0016 145.336C39.376 144.712 40.4057 144.14 40.7177 143.932L39.7817 143.776L38.0656 140.968L35.8815 138.628Z" fill="#160E1B" fill-opacity="0.4"/>
<path d="M59.5943 148.3L56.9423 149.704C58.1903 150.453 59.2303 155.06 59.5943 157.349V169.829L61.1544 165.617C61.3104 164.057 60.4992 153.604 60.3744 152.356C60.2496 151.108 60.1144 148.924 59.5943 148.3Z" fill="#160E1B" fill-opacity="0.4"/>
<path d="M22.3088 185.898C21.5288 183.714 24.8049 179.501 26.677 177.629C26.885 178.045 26.5833 177.536 27.457 178.409C28.549 179.501 34.9453 181.374 35.5693 181.842C36.1933 182.31 44.3056 182.778 45.5537 182.466C46.5521 182.216 48.3618 182.05 49.1418 181.998C50.2339 182.57 52.6988 184.088 53.822 185.586C55.2261 187.458 53.3719 191.698 52.418 192.294C51.1699 193.074 49.9219 193.542 48.2058 194.166C46.0607 194.946 43.6816 194.478 38.6894 193.074C36.5235 192.465 30.4212 191.358 26.365 189.798C24.3369 188.706 23.0975 188.106 22.3088 185.898Z" fill="#3CD367"/>
<path fill-rule="evenodd" clip-rule="evenodd" d="M26.7625 177.103L26.9561 177.49C26.9796 177.537 26.997 177.573 27.0098 177.599C27.1134 177.664 27.2897 177.801 27.6776 178.189C27.7829 178.294 27.9717 178.426 28.2456 178.579C28.5144 178.729 28.8466 178.889 29.2234 179.055C29.9767 179.387 30.8903 179.735 31.7958 180.066C32.2492 180.232 32.7169 180.399 33.1575 180.557C33.574 180.706 33.9664 180.846 34.2995 180.968C34.6527 181.098 34.9629 181.215 35.2058 181.316C35.4353 181.411 35.6415 181.506 35.7565 181.592C35.7547 181.59 35.7549 181.591 35.758 181.592C35.7665 181.596 35.7966 181.61 35.8627 181.631C35.9427 181.656 36.0511 181.682 36.1877 181.71C36.4602 181.764 36.8242 181.819 37.2545 181.871C38.114 181.974 39.2189 182.066 40.3463 182.135C41.4733 182.203 42.6182 182.246 43.5573 182.253C44.027 182.257 44.4425 182.252 44.7773 182.236C45.1194 182.22 45.355 182.194 45.478 182.163C46.5068 181.906 48.3422 181.738 49.1211 181.686L49.2088 181.68L49.2866 181.721C49.8445 182.013 50.7461 182.543 51.6517 183.191C52.5527 183.835 53.481 184.611 54.0716 185.398C54.4764 185.938 54.6319 186.627 54.6411 187.336C54.6504 188.046 54.513 188.803 54.3033 189.507C54.0933 190.213 53.8072 190.879 53.5095 191.41C53.3606 191.676 53.2066 191.912 53.0548 192.104C52.9062 192.293 52.7468 192.456 52.5833 192.558C51.3035 193.358 50.0254 193.836 48.3124 194.459C46.0553 195.28 43.5715 194.771 38.605 193.374C37.9604 193.193 36.9679 192.968 35.7766 192.698C34.9798 192.518 34.094 192.317 33.1639 192.096C30.8589 191.548 28.3019 190.877 26.253 190.089L26.2345 190.082L26.2171 190.072C26.1421 190.032 26.0679 189.992 25.9945 189.953C25.0887 189.466 24.3112 189.049 23.6701 188.504C22.9627 187.903 22.426 187.153 22.015 186.003C21.7872 185.365 21.8656 184.615 22.101 183.855C22.3382 183.09 22.7471 182.276 23.2323 181.483C24.203 179.899 25.5064 178.359 26.4564 177.409L26.7625 177.103ZM22.697 184.04C22.4791 184.743 22.4405 185.339 22.6027 185.793C22.9803 186.85 23.4576 187.505 24.0742 188.028C24.6625 188.528 25.3818 188.915 26.3087 189.413C26.37 189.446 26.4323 189.48 26.4954 189.514C28.4997 190.283 31.0136 190.943 33.3083 191.489C34.2151 191.705 35.091 191.903 35.8858 192.083C37.0947 192.357 38.1162 192.589 38.7739 192.774C43.7918 194.185 46.0661 194.612 48.0992 193.873C49.8183 193.248 51.0364 192.789 52.2526 192.029C52.3277 191.982 52.4348 191.883 52.5648 191.718C52.6915 191.557 52.8279 191.35 52.9651 191.105C53.2394 190.615 53.5079 189.992 53.7052 189.329C53.9028 188.665 54.0253 187.973 54.0172 187.344C54.0089 186.712 53.8697 186.169 53.5724 185.773C53.0399 185.063 52.174 184.331 51.2888 183.698C50.4495 183.098 49.6136 182.602 49.0746 182.315C48.2543 182.373 46.5627 182.535 45.6294 182.768C45.4404 182.815 45.1495 182.843 44.8067 182.859C44.4564 182.876 44.0285 182.881 43.5525 182.877C42.5999 182.87 41.4438 182.826 40.3087 182.757C39.174 182.689 38.0558 182.596 37.1797 182.49C36.7423 182.437 36.3603 182.381 36.0649 182.321C35.9175 182.292 35.7864 182.26 35.6784 182.227C35.58 182.197 35.4671 182.155 35.3821 182.091C35.3411 182.06 35.2109 181.994 34.9669 181.893C34.7363 181.797 34.4359 181.683 34.0846 181.554C33.7336 181.425 33.3532 181.29 32.9481 181.145C32.5184 180.991 32.061 180.828 31.5815 180.652C30.6734 180.32 29.7442 179.967 28.9716 179.626C28.5854 179.456 28.2338 179.287 27.9414 179.124C27.654 178.963 27.4041 178.798 27.2364 178.63C26.8061 178.2 26.6865 178.132 26.6642 178.119L26.6638 178.119L26.6561 178.115C26.6534 178.114 26.649 178.111 26.6445 178.109C25.7527 179.039 24.6214 180.41 23.7644 181.809C23.2941 182.577 22.9133 183.342 22.697 184.04Z" fill="black"/>
<path d="M40.0936 178.409C39.6255 179.345 39.6255 181.529 41.3416 183.869C42.0904 183.245 46.9578 182.153 48.9859 181.997C49.1419 180.853 48.8923 178.378 48.5179 177.005C48.0498 175.289 40.5616 177.473 40.0936 178.409Z" fill="#196B31"/>
<path fill-rule="evenodd" clip-rule="evenodd" d="M40.3912 178.525C40.377 178.541 40.3726 178.549 40.3726 178.549C40.3726 178.549 40.3726 178.549 40.3726 178.549C39.9866 179.321 39.9266 181.266 41.4255 183.449C41.5042 183.408 41.5895 183.368 41.6785 183.33C41.8992 183.235 42.1686 183.137 42.4704 183.039C43.0745 182.843 43.8253 182.641 44.6121 182.454C46.0574 182.112 47.6487 181.817 48.7021 181.71C48.7426 181.172 48.7168 180.414 48.6402 179.617C48.5515 178.694 48.3978 177.751 48.2168 177.087C48.1926 176.998 48.1192 176.904 47.9223 176.823C47.7217 176.741 47.4317 176.691 47.0611 176.681C46.3236 176.66 45.358 176.795 44.3743 177.017C43.394 177.238 42.4154 177.541 41.6572 177.843C41.2774 177.995 40.9601 178.144 40.7278 178.279C40.6115 178.347 40.5225 178.408 40.4595 178.46C40.4283 178.486 40.4061 178.508 40.3912 178.525ZM48.1591 176.246C48.4631 176.37 48.7261 176.583 48.8189 176.923C49.0124 177.633 49.1707 178.614 49.2614 179.557C49.3516 180.496 49.3781 181.431 49.295 182.039L49.261 182.289L49.0098 182.308C48.0196 182.385 46.314 182.692 44.756 183.061C43.9788 183.246 43.2456 183.443 42.6631 183.632C42.3716 183.727 42.122 183.818 41.9253 183.903C41.7217 183.991 41.5986 184.061 41.5414 184.109L41.2863 184.322L41.09 184.054C39.3284 181.652 39.2784 179.342 39.8145 178.27C39.872 178.155 39.9668 178.058 40.0608 177.98C40.1591 177.899 40.2795 177.818 40.4136 177.74C40.6823 177.584 41.0304 177.422 41.4258 177.264C42.2179 176.948 43.2283 176.636 44.2371 176.408C45.2425 176.182 46.266 176.034 47.0788 176.057C47.4833 176.068 47.8588 176.123 48.1591 176.246Z" fill="black"/>
<path d="M23.7561 181.286C23.798 181.19 23.8437 181.114 23.886 181.062C23.8458 181.13 23.8023 181.205 23.7561 181.286C23.5923 181.661 23.4884 182.351 23.886 183.246C24.5101 184.65 25.6021 185.742 25.6021 186.678C25.6021 187.614 26.677 188.082 27.457 189.33C28.0811 190.328 27.7691 190.266 27.301 190.11C26.209 189.486 24.6349 189.111 23.886 188.238C22.95 187.146 22.014 185.898 22.17 184.806C22.2851 184 23.2059 182.246 23.7561 181.286Z" fill="#196B31"/>
<path fill-rule="evenodd" clip-rule="evenodd" d="M23.4774 181.144C23.5264 181.035 23.5828 180.941 23.6424 180.866L24.155 181.219C24.118 181.282 24.0781 181.351 24.0358 181.425C23.9111 181.722 23.8138 182.314 24.1712 183.118C24.4114 183.659 24.7217 184.148 25.021 184.62C25.0962 184.738 25.1707 184.855 25.2432 184.972C25.5868 185.526 25.9141 186.107 25.9141 186.677C25.9141 187.012 26.099 187.284 26.4645 187.673C26.5277 187.74 26.5956 187.81 26.667 187.884C26.9908 188.218 27.3848 188.625 27.7217 189.164C27.8807 189.419 27.9907 189.622 28.0527 189.782C28.0836 189.861 28.1083 189.945 28.116 190.027C28.1236 190.108 28.1173 190.22 28.0499 190.323C27.978 190.433 27.8714 190.482 27.7842 190.5C27.7033 190.517 27.6253 190.511 27.5665 190.503C27.4492 190.486 27.3161 190.443 27.2024 190.405L27.1731 190.396L27.1463 190.38C26.782 190.172 26.3704 189.997 25.9368 189.812C25.7405 189.728 25.5397 189.643 25.3368 189.552C24.7115 189.27 24.0728 188.935 23.6492 188.44C23.179 187.892 22.6943 187.288 22.3471 186.675C22.0025 186.067 21.7687 185.408 21.8611 184.761C21.9263 184.305 22.2068 183.624 22.5181 182.969C22.8328 182.307 23.2005 181.628 23.4774 181.144ZM23.3659 182.662C23.2689 182.852 23.1729 183.045 23.0817 183.237C22.7663 183.901 22.5288 184.5 22.4789 184.849C22.4153 185.294 22.5716 185.806 22.89 186.368C23.2058 186.925 23.6571 187.491 24.123 188.034C24.4482 188.414 24.9709 188.702 25.593 188.983C25.7687 189.062 25.9537 189.141 26.1418 189.221C26.558 189.398 26.9889 189.582 27.3654 189.788C27.3211 189.707 27.2643 189.61 27.1925 189.495C26.8939 189.017 26.5545 188.666 26.2331 188.333C26.1574 188.255 26.0826 188.178 26.0096 188.1C25.6427 187.709 25.2901 187.278 25.2901 186.677C25.2901 186.312 25.0714 185.879 24.713 185.301C24.6471 185.195 24.5772 185.085 24.5049 184.971C24.2036 184.497 23.8619 183.959 23.601 183.372C23.4898 183.122 23.4139 182.884 23.3659 182.662Z" fill="black"/>
<path d="M41.6536 191.514C39.5319 191.763 29.7971 187.25 25.1169 185.273C25.1169 185.481 25.0546 186.709 25.429 187.458C25.897 188.394 26.521 188.862 26.209 189.642C27.7691 190.422 36.3494 192.606 41.3416 193.854C46.3338 195.102 47.1138 194.322 48.0499 194.166C48.9859 194.01 51.638 192.762 52.2621 192.45C52.7613 192.2 53.7181 189.642 54.1341 188.394C52.4181 191.982 44.3057 191.202 41.6536 191.514Z" fill="#8DDAA3"/>
<path fill-rule="evenodd" clip-rule="evenodd" d="M24.8049 184.803L25.2383 184.986C26.1262 185.361 27.1892 185.824 28.3452 186.328C30.254 187.16 32.4165 188.102 34.4629 188.94C36.1026 189.611 37.6564 190.21 38.9296 190.625C39.5665 190.833 40.1279 190.993 40.5918 191.094C41.0639 191.196 41.4058 191.229 41.6172 191.204C42.1944 191.136 43.0185 191.119 43.9542 191.099C44.124 191.095 44.2976 191.091 44.474 191.087C45.6333 191.061 46.9376 191.017 48.2097 190.872C49.484 190.728 50.7086 190.483 51.7127 190.063C52.717 189.643 53.469 189.061 53.8527 188.259L54.4301 188.492C54.2204 189.122 53.8742 190.082 53.5162 190.919C53.3375 191.337 53.1529 191.731 52.9783 192.04C52.8912 192.194 52.8028 192.334 52.7152 192.447C52.6336 192.552 52.5288 192.665 52.4016 192.729C52.0843 192.888 51.26 193.28 50.3967 193.653C49.9649 193.839 49.5204 194.022 49.1231 194.169C48.7315 194.313 48.3665 194.43 48.1012 194.474C47.9591 194.497 47.8304 194.535 47.6692 194.581C47.5866 194.605 47.4954 194.632 47.3894 194.66C47.0916 194.74 46.7295 194.817 46.2363 194.848C45.2554 194.909 43.7774 194.785 41.2659 194.157C38.7695 193.533 35.3741 192.674 32.407 191.874C30.9237 191.474 29.5454 191.087 28.4391 190.752C27.3429 190.42 26.4875 190.13 26.0695 189.921L25.8127 189.793L25.9193 189.526C26.0293 189.251 25.9861 189.038 25.8358 188.754C25.7672 188.625 25.6822 188.492 25.5817 188.334C25.5645 188.308 25.547 188.28 25.529 188.252C25.4083 188.062 25.2744 187.846 25.1499 187.597C24.9346 187.167 24.8533 186.622 24.8214 186.186C24.7946 185.819 24.8009 185.494 24.8039 185.344C24.8045 185.312 24.8049 185.289 24.8049 185.274V184.803ZM25.4262 185.744C25.4283 185.863 25.4333 185.997 25.4437 186.14C25.4742 186.556 25.549 187 25.7081 187.318C25.8176 187.537 25.9372 187.731 26.0554 187.917C26.0719 187.943 26.0886 187.969 26.1052 187.995C26.2048 188.15 26.3057 188.308 26.3873 188.462C26.5482 188.766 26.6526 189.091 26.5834 189.468C27.0063 189.644 27.7102 189.879 28.6201 190.155C29.7174 190.488 31.0887 190.872 32.5695 191.271C35.5307 192.07 38.9215 192.927 41.4173 193.551C43.898 194.171 45.3062 194.281 46.1974 194.225C46.6402 194.197 46.9606 194.129 47.2283 194.057C47.3029 194.037 47.3784 194.015 47.4544 193.994C47.6361 193.941 47.8201 193.888 47.9986 193.858C48.2013 193.824 48.5188 193.726 48.9072 193.583C49.2899 193.442 49.723 193.264 50.1493 193.08C51.002 192.712 51.8158 192.324 52.1225 192.171C52.1222 192.171 52.1224 192.171 52.1231 192.17C52.1282 192.167 52.162 192.142 52.2223 192.064C52.2842 191.984 52.3557 191.873 52.435 191.733C52.5932 191.453 52.7675 191.083 52.9424 190.674C53.0479 190.427 53.1525 190.169 53.2529 189.912C52.8679 190.201 52.4276 190.441 51.9534 190.639C50.8709 191.092 49.5799 191.345 48.2801 191.492C46.9781 191.64 45.6498 191.684 44.4885 191.711C44.3076 191.715 44.1313 191.719 43.9601 191.723C43.0211 191.743 42.2347 191.76 41.6901 191.824C41.371 191.861 40.9446 191.808 40.46 191.703C39.9671 191.597 39.3834 191.43 38.7361 191.219C37.4411 190.796 35.8708 190.19 34.2265 189.517C32.1775 188.678 29.9959 187.728 28.0798 186.893C27.11 186.471 26.2083 186.078 25.4262 185.744Z" fill="black"/>
<path d="M46.0219 187.769C43.7754 188.269 43.1097 190.37 43.0577 191.358C44.8258 191.462 47.962 191.31 49.922 190.89C52.1061 190.422 53.3021 189.642 53.9782 189.017C54.1862 188.601 54.4774 187.52 53.9782 186.521C53.3542 185.273 48.83 187.145 46.0219 187.769Z" fill="#F7F3F8"/>
<path fill-rule="evenodd" clip-rule="evenodd" d="M48.45 187.435C47.6227 187.678 46.8035 187.915 46.0895 188.074C44.2515 188.482 43.5605 190.072 43.4032 191.062C45.1896 191.13 48.0448 190.973 49.8566 190.584C51.9422 190.138 53.0824 189.405 53.7227 188.828C53.9021 188.431 54.1202 187.503 53.6991 186.661C53.6661 186.595 53.6021 186.533 53.468 186.485C53.3284 186.436 53.1312 186.41 52.8721 186.414C52.3539 186.423 51.671 186.552 50.8947 186.746C50.1951 186.921 49.4391 187.144 48.6848 187.366C48.6065 187.389 48.5282 187.412 48.45 187.435ZM53.6767 185.897C53.9204 185.984 54.1342 186.136 54.2572 186.382C54.8159 187.499 54.4909 188.69 54.2572 189.157L54.2317 189.208L54.1898 189.247C53.4694 189.912 52.2216 190.716 49.9874 191.195C47.9943 191.622 44.8293 191.774 43.0394 191.669L42.7299 191.651L42.7462 191.341C42.8015 190.289 43.5086 188.008 45.9542 187.465C46.6443 187.311 47.4436 187.081 48.2739 186.836C48.3523 186.813 48.4309 186.79 48.5098 186.767C49.2616 186.545 50.0303 186.319 50.7434 186.141C51.5272 185.945 52.2678 185.801 52.8612 185.79C53.1578 185.785 53.4384 185.813 53.6767 185.897Z" fill="black"/>
<path d="M49.298 182.153L42.1217 184.181C42.6115 184.181 43.2677 185.013 43.3698 185.273L50.702 183.089L49.298 182.153Z" fill="#554B58"/>
<path fill-rule="evenodd" clip-rule="evenodd" d="M49.3515 181.814L51.4284 183.199L43.1841 185.654L43.0793 185.387C43.0687 185.36 43.0276 185.285 42.9485 185.177C42.8736 185.074 42.7767 184.958 42.6694 184.849C42.5611 184.74 42.449 184.646 42.3443 184.58C42.235 184.512 42.1609 184.493 42.1217 184.493L42.0369 183.881L49.3515 181.814ZM42.9624 184.268C43.0149 184.314 43.0653 184.362 43.1129 184.41C43.2436 184.542 43.3606 184.683 43.4527 184.809C43.4754 184.84 43.4976 184.872 43.5186 184.904L49.9758 182.98L49.2445 182.493L42.9624 184.268Z" fill="black"/>
<path d="M51.4821 183.558L43.6818 185.882C44.181 185.882 44.6698 186.808 44.7738 187.146L48.674 185.882L52.7301 184.494L51.4821 183.558Z" fill="#554B58"/>
<path fill-rule="evenodd" clip-rule="evenodd" d="M51.5436 183.213L53.3891 184.598L48.7726 186.178L44.5687 187.54L44.4756 187.237C44.4346 187.104 44.3028 186.818 44.123 186.569C44.0341 186.446 43.9426 186.345 43.8561 186.277C43.7673 186.208 43.7097 186.194 43.6818 186.194L43.5927 185.583L51.5436 183.213ZM44.4471 185.979C44.513 186.051 44.5738 186.128 44.6289 186.204C44.76 186.386 44.8722 186.585 44.9541 186.759L48.5753 185.586L52.0711 184.389L51.4206 183.901L44.4471 185.979Z" fill="black"/>
<path d="M26.053 175.913L28.3931 179.189C28.9131 179.501 30.7956 179.907 31.0452 180.281C31.2948 180.656 29.4331 181.165 28.8611 181.217C28.3411 181.165 27.1762 181.124 26.677 181.373C26.053 181.685 26.053 181.997 26.053 183.869C26.053 185.367 25.533 185.325 25.273 185.117C25.1169 184.805 24.7113 184.088 24.3369 183.713C23.9625 183.339 23.5569 182.153 23.7129 181.373C23.7129 181.373 24.8751 179.938 25.273 178.877C25.7409 177.629 26.053 175.913 26.053 175.913Z" fill="#F7F3F8"/>
<path fill-rule="evenodd" clip-rule="evenodd" d="M25.8781 175.131L28.6061 178.95C28.7116 179.004 28.8775 179.069 29.0939 179.144C29.255 179.2 29.4292 179.256 29.6099 179.315C29.7111 179.348 29.8143 179.381 29.9185 179.416C30.2023 179.509 30.4892 179.609 30.7231 179.71C30.8401 179.761 30.9514 179.816 31.0458 179.875C31.1342 179.93 31.2364 180.005 31.3049 180.108C31.3514 180.178 31.3804 180.262 31.3802 180.354C31.3799 180.443 31.3522 180.52 31.3183 180.58C31.255 180.692 31.1534 180.776 31.0656 180.836C30.8833 180.96 30.6255 181.071 30.3663 181.164C29.8449 181.35 29.2098 181.499 28.8895 181.528L28.8598 181.531L28.8302 181.528C28.5815 181.503 28.1745 181.48 27.772 181.494C27.3531 181.508 26.9994 181.561 26.8167 181.652C26.6768 181.722 26.602 181.778 26.5533 181.835C26.5076 181.888 26.4669 181.964 26.4357 182.104C26.3671 182.412 26.3651 182.913 26.3651 183.869C26.3651 184.26 26.3315 184.566 26.2698 184.804C26.2088 185.039 26.114 185.231 25.9728 185.362C25.8218 185.502 25.6408 185.55 25.4692 185.531C25.3097 185.513 25.1747 185.438 25.0782 185.361L25.0246 185.318L24.994 185.257C24.8394 184.948 24.4524 184.27 24.1164 183.934C23.8738 183.691 23.6604 183.241 23.5266 182.783C23.3908 182.318 23.3152 181.771 23.4071 181.312L23.4221 181.237L23.4705 181.177L23.4711 181.176L23.4733 181.174L23.4824 181.162C23.4906 181.152 23.5028 181.137 23.5187 181.116C23.5503 181.076 23.5962 181.017 23.6527 180.943C23.7657 180.795 23.9205 180.586 24.0873 180.346C24.4254 179.857 24.7963 179.26 24.9809 178.768C25.2079 178.162 25.3993 177.437 25.5347 176.856C25.6022 176.567 25.6551 176.317 25.6912 176.139C25.7093 176.05 25.7231 175.979 25.7323 175.931C25.7369 175.906 25.7404 175.888 25.7427 175.876L25.7453 175.862L25.7461 175.857L25.8781 175.131ZM26.2152 176.677C26.1932 176.777 26.1689 176.885 26.1424 176.998C26.0049 177.588 25.8063 178.344 25.5652 178.987C25.3519 179.556 24.9428 180.206 24.6003 180.701C24.4269 180.951 24.2663 181.168 24.149 181.322C24.0903 181.399 24.0423 181.46 24.0088 181.503C24.0082 181.504 24.0075 181.504 24.0069 181.505C23.9622 181.818 24.0126 182.221 24.1256 182.608C24.2492 183.031 24.4258 183.361 24.5577 183.493C24.9404 183.876 25.333 184.555 25.5136 184.902C25.5255 184.908 25.5347 184.91 25.5401 184.911C25.5402 184.911 25.54 184.911 25.5401 184.911C25.5417 184.91 25.5447 184.908 25.5483 184.904C25.5697 184.885 25.6212 184.819 25.6658 184.647C25.7097 184.478 25.7411 184.228 25.7411 183.869L25.7411 183.809C25.741 182.927 25.741 182.353 25.8265 181.969C25.8733 181.758 25.9496 181.58 26.0795 181.429C26.2063 181.281 26.3654 181.18 26.5376 181.094C26.8541 180.936 27.3324 180.885 27.7507 180.87C28.169 180.856 28.5878 180.878 28.8606 180.904C29.1254 180.874 29.6835 180.745 30.1564 180.576C30.3586 180.504 30.5272 180.431 30.6444 180.364C30.5968 180.338 30.54 180.311 30.4743 180.283C30.2688 180.193 30.0057 180.102 29.7228 180.008C29.6259 179.976 29.5261 179.944 29.4264 179.911C29.2412 179.851 29.056 179.791 28.8898 179.734C28.6392 179.647 28.3944 179.554 28.2327 179.457L28.177 179.423L26.2152 176.677Z" fill="black"/>
<path d="M28.3931 179.189L26.209 176.225L25.741 177.473L24.4929 180.437L22.9329 182.309L22.1528 185.273L22.9329 187.614L25.429 189.486L28.3931 190.266C27.8731 189.85 26.9578 188.799 27.457 187.926C27.9563 187.052 29.1211 187.042 29.6411 187.146C29.8491 186.626 30.2028 185.211 29.9531 183.713C29.7035 182.216 30.5772 180.697 31.0452 180.125L28.3931 179.189Z" fill="#160E1B" fill-opacity="0.4"/>
<path d="M42.4337 194.01C42.8497 193.906 43.5882 193.355 43.8378 192.606C44.0874 191.857 44.7738 191.202 45.3978 190.734C46.6459 189.954 48.5515 189.828 49.922 189.486C51.1701 189.174 51.6381 189.174 53.0421 188.55C54.1654 188.05 54.1903 187.851 54.1554 187.791L54.1342 187.77C54.1342 187.77 54.1467 187.776 54.1554 187.791L54.4462 188.082L53.5102 190.734L52.1061 192.762L47.5819 194.322C46.2819 194.634 43.4322 195.008 42.4337 194.01Z" fill="#160E1B" fill-opacity="0.4"/>
<path d="M62.9154 191.781C61.2366 190.181 62.5585 185.273 62.5585 182.778C62.9313 183.056 64.4671 183.176 65.6786 182.933C68.0187 182.465 74.634 179.184 75.351 178.877C76.443 178.409 81.16 179.103 82.1345 178.264C82.914 177.592 84.4556 176.629 85.129 176.232C86.3616 176.252 89.246 176.5 90.9227 177.333C93.0186 178.373 93.269 182.994 92.685 183.956C91.921 185.214 91.0167 186.193 89.7645 187.522C88.1993 189.183 85.8638 189.835 80.7734 190.826C78.5649 191.255 72.6166 193.011 68.2921 193.441C65.9896 193.378 64.6128 193.399 62.9154 191.781Z" fill="#3CD367"/>
<path fill-rule="evenodd" clip-rule="evenodd" d="M62.2465 182.156L62.745 182.528C62.7813 182.555 62.8908 182.604 63.0989 182.649C63.2946 182.691 63.5428 182.723 63.8225 182.739C64.3828 182.773 65.0424 182.743 65.6174 182.628C66.7454 182.402 68.949 181.483 70.9953 180.561C72.0108 180.103 72.976 179.651 73.733 179.293C73.9282 179.201 74.1105 179.114 74.2765 179.035C74.7489 178.812 75.0903 178.65 75.2281 178.591C75.4067 178.514 75.6359 178.47 75.8799 178.441C76.1291 178.412 76.4177 178.397 76.7275 178.39C77.1708 178.38 77.6741 178.386 78.186 178.392C78.3867 178.394 78.5888 178.397 78.789 178.398C79.5076 178.403 80.2077 178.396 80.7856 178.338C81.0744 178.309 81.3236 178.267 81.5245 178.211C81.73 178.154 81.8594 178.089 81.9308 178.027C82.734 177.335 84.2981 176.36 84.9705 175.964L85.0461 175.919L85.134 175.92C85.7637 175.93 86.8074 175.999 87.9072 176.169C89.0016 176.339 90.1798 176.615 91.0615 177.053C91.6657 177.353 92.1146 177.899 92.4413 178.528C92.769 179.158 92.9865 179.895 93.116 180.619C93.2457 181.344 93.2895 182.067 93.2625 182.676C93.249 182.98 93.2177 183.26 93.1687 183.5C93.1207 183.735 93.0518 183.953 92.9517 184.118C92.1683 185.408 91.2416 186.409 89.9916 187.736C88.3446 189.484 85.8972 190.146 80.833 191.132C80.1758 191.26 79.1882 191.505 78.0028 191.8C77.2099 191.997 76.3285 192.216 75.3983 192.437C73.0929 192.984 70.5074 193.534 68.323 193.752L68.3033 193.754L68.2835 193.753C68.1983 193.751 68.1142 193.749 68.0309 193.746C67.0031 193.719 66.1209 193.696 65.3033 193.497C64.4012 193.279 63.5848 192.851 62.7001 192.007C62.2085 191.539 61.9598 190.852 61.8431 190.098C61.7256 189.34 61.7352 188.472 61.7961 187.594C61.8487 186.836 61.9408 186.057 62.0275 185.323C62.0413 185.206 62.0549 185.091 62.0683 184.976C62.1663 184.137 62.2465 183.381 62.2465 182.778L62.2465 182.156ZM62.4597 190.003C62.5672 190.697 62.7829 191.224 63.1307 191.556C63.9434 192.33 64.6641 192.7 65.4504 192.891C66.2007 193.073 67.017 193.095 68.0689 193.123C68.1385 193.125 68.2091 193.127 68.2808 193.129C70.4168 192.914 72.9592 192.374 75.2543 191.83C76.1612 191.615 77.0328 191.398 77.8237 191.202C79.0267 190.903 80.0432 190.65 80.7138 190.52C85.8304 189.524 88.054 188.883 89.5374 187.308C90.7919 185.977 91.6739 185.02 92.4184 183.794C92.4643 183.718 92.5153 183.581 92.5573 183.376C92.5982 183.175 92.6267 182.928 92.6391 182.648C92.664 182.087 92.6236 181.41 92.5017 180.729C92.3797 180.047 92.1781 179.374 91.8876 178.815C91.5961 178.255 91.2278 177.833 90.784 177.612C89.989 177.217 88.8866 176.953 87.8114 176.786C86.792 176.628 85.8223 176.56 85.2116 176.546C84.505 176.967 83.0669 177.872 82.3382 178.5C82.166 178.649 81.9348 178.745 81.6915 178.813C81.4437 178.882 81.156 178.927 80.8484 178.959C80.2337 179.021 79.5036 179.027 78.7847 179.022C78.5769 179.021 78.3704 179.018 78.1673 179.016C77.6599 179.01 77.1736 179.004 76.7417 179.014C76.4405 179.021 76.1738 179.035 75.9522 179.061C75.7255 179.087 75.5683 179.124 75.4739 179.164C75.3478 179.218 75.0258 179.371 74.5623 179.591C74.3928 179.671 74.2043 179.76 73.9997 179.857C73.2414 180.215 72.2722 180.67 71.2516 181.13C69.226 182.042 66.9519 182.997 65.7398 183.24C65.1034 183.367 64.3893 183.398 63.7857 183.362C63.4833 183.345 63.202 183.309 62.967 183.259C62.9307 183.251 62.8945 183.242 62.8585 183.233C62.8317 183.781 62.7636 184.403 62.6881 185.049C62.6746 185.164 62.6608 185.281 62.647 185.398C62.5602 186.133 62.4701 186.895 62.4187 187.637C62.3589 188.498 62.3528 189.313 62.4597 190.003Z" fill="black"/>
<path d="M75.4335 177.096C75.4364 178.142 76.4185 180.093 79.0035 181.412C79.3918 180.518 83.2482 177.354 84.9896 176.302C84.6145 175.21 83.2785 173.112 82.3268 172.054C81.1371 170.731 75.4307 176.049 75.4335 177.096Z" fill="#196B31"/>
<path fill-rule="evenodd" clip-rule="evenodd" d="M75.7514 177.065C75.7459 177.086 75.7456 177.095 75.7456 177.095C75.7455 177.095 75.7455 177.095 75.7455 177.095C75.7479 177.958 76.5687 179.722 78.8892 180.998C78.9411 180.926 78.9995 180.852 79.0617 180.778C79.2161 180.594 79.4127 180.386 79.6383 180.162C80.0897 179.716 80.6694 179.197 81.2884 178.677C82.4253 177.721 83.714 176.742 84.6067 176.173C84.4013 175.675 84.0372 175.009 83.6104 174.332C83.1161 173.547 82.5547 172.774 82.0948 172.262C82.0332 172.194 81.9251 172.142 81.713 172.159C81.4968 172.176 81.2155 172.262 80.8798 172.419C80.2116 172.732 79.41 173.287 78.6311 173.928C77.8549 174.566 77.1168 175.276 76.5758 175.887C76.3047 176.194 76.0883 176.469 75.9416 176.695C75.8683 176.808 75.8162 176.902 75.7834 176.977C75.7672 177.014 75.7571 177.044 75.7514 177.065ZM81.6648 171.537C81.9924 171.511 82.323 171.583 82.5587 171.845C83.0506 172.392 83.6331 173.197 84.1384 173.999C84.6414 174.797 85.085 175.62 85.2847 176.201L85.3665 176.439L85.1508 176.569C84.3007 177.083 82.9156 178.125 81.6899 179.155C81.0785 179.669 80.5125 180.175 80.0772 180.606C79.8594 180.821 79.6775 181.015 79.5399 181.179C79.3974 181.349 79.3194 181.468 79.2897 181.536L79.1575 181.841L78.8617 181.69C76.2082 180.336 75.1248 178.295 75.1215 177.097C75.1212 176.968 75.1625 176.84 75.2114 176.728C75.2625 176.61 75.3339 176.485 75.4186 176.354C75.5881 176.094 75.8263 175.793 76.1084 175.474C76.6737 174.835 77.4361 174.102 78.2348 173.445C79.0309 172.791 79.8788 172.199 80.6151 171.854C80.9816 171.682 81.3412 171.562 81.6648 171.537Z" fill="black"/>
<path d="M62.1342 187.011C62.1285 186.906 62.1355 186.819 62.1495 186.752C62.1444 186.832 62.1392 186.918 62.1342 187.011C62.1566 187.42 62.3741 188.083 63.1316 188.703C64.3204 189.677 65.7868 190.161 66.2077 190.997C66.6286 191.833 67.7992 191.768 69.0571 192.532C70.0634 193.143 69.7567 193.228 69.2685 193.299C68.0125 193.233 66.4381 193.606 65.3764 193.162C64.0493 192.608 62.652 191.914 62.3003 190.868C62.0407 190.097 62.0748 188.116 62.1342 187.011Z" fill="#196B31"/>
<path fill-rule="evenodd" clip-rule="evenodd" d="M61.8217 187.01C61.8164 186.891 61.8245 186.781 61.8442 186.688L62.4608 186.773C62.456 186.846 62.4513 186.925 62.4467 187.01C62.4689 187.331 62.6485 187.904 63.3292 188.462C63.7868 188.837 64.2839 189.134 64.7633 189.421C64.8837 189.493 65.003 189.564 65.1203 189.636C65.6762 189.976 66.2297 190.347 66.4863 190.857C66.6369 191.156 66.924 191.315 67.4255 191.499C67.5122 191.53 67.6044 191.562 67.7013 191.596C68.1409 191.749 68.6757 191.935 69.219 192.265C69.4754 192.421 69.665 192.553 69.7924 192.668C69.8558 192.726 69.9153 192.789 69.9592 192.859C70.0026 192.928 70.0469 193.03 70.0332 193.153C70.0186 193.284 69.9452 193.375 69.8755 193.43C69.8108 193.482 69.7386 193.512 69.6823 193.531C69.5699 193.569 69.432 193.59 69.3134 193.608L69.2828 193.612L69.2519 193.611C68.833 193.588 68.3865 193.617 67.9161 193.647C67.7032 193.66 67.4854 193.674 67.263 193.684C66.5779 193.714 65.8566 193.701 65.256 193.45C64.5894 193.172 63.8848 192.85 63.2992 192.459C62.7179 192.071 62.2129 191.587 62.0045 190.968C61.8575 190.531 61.802 189.797 61.7856 189.072C61.769 188.339 61.7921 187.567 61.8217 187.01ZM62.4045 188.416C62.4033 188.629 62.4047 188.845 62.4095 189.058C62.4261 189.792 62.4834 190.434 62.596 190.769C62.7393 191.195 63.1087 191.581 63.6458 191.94C64.1785 192.296 64.8361 192.598 65.4966 192.874C65.9577 193.067 66.5544 193.09 67.236 193.06C67.4285 193.052 67.6292 193.039 67.8333 193.026C68.2848 192.998 68.7523 192.968 69.1813 192.983C69.1052 192.93 69.0108 192.869 68.895 192.799C68.4135 192.506 67.9524 192.345 67.5158 192.193C67.4129 192.157 67.3114 192.121 67.2113 192.085C66.7079 191.901 66.1992 191.674 65.9289 191.138C65.7646 190.811 65.3745 190.523 64.7947 190.168C64.6881 190.103 64.5761 190.036 64.4605 189.967C63.9781 189.679 63.4308 189.352 62.9338 188.945C62.722 188.771 62.5475 188.593 62.4045 188.416Z" fill="black"/>
<path d="M82.7196 188.099C80.9367 189.276 70.2119 189.622 65.143 189.961C65.2365 190.147 65.7327 191.271 66.4038 191.772C67.2427 192.397 68.0106 192.535 68.0826 193.372C69.8268 193.367 78.4729 191.46 83.4931 190.33C88.5134 189.2 88.8593 188.152 89.6253 187.592C90.3912 187.032 92.1989 184.724 92.6159 184.165C92.9496 183.718 92.6538 181.002 92.4642 179.7C92.5448 183.677 84.9481 186.628 82.7196 188.099Z" fill="#8DDAA3"/>
<path fill-rule="evenodd" clip-rule="evenodd" d="M64.6528 189.681L65.1221 189.65C66.0838 189.586 67.2415 189.521 68.5005 189.451C70.5796 189.336 72.9348 189.205 75.1393 189.033C76.9057 188.895 78.5629 188.732 79.887 188.531C80.5492 188.43 81.1227 188.32 81.5821 188.201C82.0496 188.08 82.3701 187.956 82.5477 187.839C83.0327 187.519 83.7609 187.132 84.5877 186.694C84.7379 186.614 84.8912 186.533 85.047 186.45C86.0704 185.905 87.2157 185.279 88.287 184.578C89.3601 183.876 90.344 183.107 91.052 182.28C91.7602 181.454 92.1703 180.596 92.1522 179.707L92.7729 179.655C92.8685 180.312 92.9911 181.325 93.0477 182.234C93.076 182.687 93.0883 183.122 93.0713 183.477C93.0628 183.654 93.0467 183.818 93.0192 183.958C92.9935 184.089 92.9511 184.238 92.866 184.352C92.654 184.636 92.0942 185.357 91.4907 186.078C91.1889 186.439 90.8741 186.802 90.5851 187.112C90.3002 187.417 90.0266 187.685 89.8095 187.844C89.6932 187.929 89.595 188.02 89.472 188.134C89.4089 188.193 89.3393 188.257 89.2574 188.33C89.0273 188.535 88.7386 188.767 88.312 189.017C87.4634 189.512 86.0872 190.066 83.5616 190.634C81.0512 191.199 77.6323 191.959 74.6222 192.578C73.1174 192.888 71.7127 193.163 70.5738 193.361C69.4452 193.557 68.5508 193.683 68.0835 193.684L67.7964 193.685L67.7718 193.399C67.7463 193.103 67.6122 192.933 67.3501 192.747C67.2306 192.662 67.0949 192.581 66.9343 192.486C66.907 192.47 66.8789 192.453 66.8501 192.436C66.6571 192.321 66.4404 192.188 66.2173 192.022C65.8313 191.734 65.514 191.284 65.2891 190.909C65.1005 190.594 64.96 190.301 64.8948 190.164C64.8814 190.136 64.8711 190.115 64.8643 190.102L64.6528 189.681ZM65.6307 190.242C65.6861 190.348 65.7508 190.465 65.8245 190.588C66.0388 190.946 66.3052 191.309 66.5903 191.522C66.7866 191.668 66.9805 191.787 67.1697 191.9C67.1961 191.916 67.2227 191.932 67.2493 191.947C67.4083 192.042 67.5693 192.137 67.7114 192.238C67.9919 192.437 68.2312 192.681 68.339 193.049C68.7957 193.015 69.5302 192.909 70.4669 192.746C71.5966 192.55 72.9942 192.276 74.4965 191.967C77.5006 191.349 80.9148 190.59 83.4246 190.025C85.9193 189.464 87.2262 188.928 87.9971 188.478C88.3802 188.254 88.6355 188.048 88.8425 187.864C88.9001 187.813 88.9578 187.759 89.0157 187.706C89.1545 187.577 89.295 187.447 89.441 187.34C89.6069 187.219 89.8464 186.989 90.129 186.686C90.4073 186.388 90.7142 186.034 91.0121 185.678C91.6082 184.966 92.1608 184.254 92.3658 183.979C92.3656 183.979 92.3657 183.979 92.3661 183.978C92.3689 183.972 92.3879 183.935 92.4068 183.838C92.4262 183.739 92.4403 183.608 92.448 183.447C92.4634 183.126 92.4526 182.717 92.4249 182.273C92.4082 182.005 92.3856 181.727 92.3596 181.452C92.146 181.884 91.8604 182.296 91.526 182.686C90.7626 183.578 89.7232 184.384 88.6287 185.1C87.5323 185.818 86.3656 186.455 85.3404 187.001C85.1807 187.086 85.025 187.168 84.8737 187.249C84.044 187.689 83.3491 188.057 82.8915 188.36C82.6234 188.537 82.2186 188.681 81.7386 188.805C81.2505 188.932 80.654 189.045 79.9808 189.147C78.6342 189.352 76.9591 189.517 75.1878 189.655C72.9805 189.828 70.6044 189.96 68.5176 190.075C67.4614 190.134 66.4794 190.189 65.6307 190.242Z" fill="black"/>
<path d="M84.9376 182.791C83.1555 184.247 83.5056 186.423 83.9034 187.328C85.5295 186.626 88.2623 185.08 89.8242 183.824C91.5646 182.424 92.2821 181.189 92.6054 180.328C92.6041 179.863 92.3778 178.766 91.483 178.098C90.3644 177.264 87.1652 180.971 84.9376 182.791Z" fill="#F7F3F8"/>
<path fill-rule="evenodd" clip-rule="evenodd" d="M86.9561 181.4C86.3265 181.989 85.7014 182.57 85.135 183.032C83.677 184.224 83.7746 185.954 84.0791 186.909C85.7052 186.166 88.1849 184.742 89.6287 183.581C91.2905 182.244 91.9798 181.077 92.2921 180.274C92.2736 179.838 92.0513 178.911 91.2965 178.348C91.2374 178.304 91.1522 178.277 91.011 178.295C90.8641 178.314 90.6763 178.379 90.4468 178.5C89.988 178.741 89.436 179.163 88.8299 179.685C88.2836 180.156 87.7086 180.695 87.1347 181.233C87.0751 181.289 87.0156 181.344 86.9561 181.4ZM90.933 177.676C91.1896 177.644 91.449 177.684 91.6696 177.848C92.6709 178.595 92.916 179.804 92.9174 180.327L92.9176 180.384L92.8975 180.437C92.5531 181.355 91.8001 182.635 90.0198 184.067C88.4317 185.345 85.6732 186.904 84.0272 187.615L83.7425 187.738L83.6178 187.454C83.1943 186.489 82.8002 184.134 84.7402 182.549C85.2877 182.102 85.8978 181.536 86.5296 180.945C86.5892 180.889 86.6491 180.833 86.709 180.776C87.281 180.241 87.8658 179.693 88.4225 179.213C89.0345 178.685 89.6312 178.223 90.1565 177.947C90.4191 177.809 90.6822 177.708 90.933 177.676Z" fill="black"/>
<path d="M85.3385 176.301L79.8405 181.34C80.278 181.12 81.2383 181.568 81.4463 181.754L87.0135 176.506L85.3385 176.301Z" fill="#554B58"/>
<path fill-rule="evenodd" clip-rule="evenodd" d="M85.2336 175.974L87.7113 176.277L81.4517 182.178L81.2381 181.986C81.2165 181.967 81.1461 181.918 81.0266 181.857C80.9135 181.799 80.7747 181.739 80.6301 181.69C80.4842 181.641 80.3416 181.607 80.2187 181.596C80.0905 181.584 80.0158 181.601 79.9808 181.618L79.6297 181.11L85.2336 175.974ZM80.6303 181.039C80.6981 181.057 80.7647 181.077 80.8288 181.098C81.005 181.158 81.1726 181.231 81.3117 181.302C81.346 181.32 81.38 181.338 81.413 181.357L86.3156 176.735L85.4433 176.628L80.6303 181.039Z" fill="black"/>
<path d="M87.9206 176.573L81.9986 182.157C82.4445 181.932 83.2973 182.539 83.5422 182.794L86.4576 179.912L89.4563 176.848L87.9206 176.573Z" fill="#554B58"/>
<path fill-rule="evenodd" clip-rule="evenodd" d="M87.8209 176.238L90.0917 176.645L86.6788 180.132L83.5364 183.239L83.3171 183.011C83.2206 182.91 82.9744 182.714 82.7019 182.573C82.5671 182.503 82.4398 182.453 82.3322 182.432C82.2216 182.41 82.1639 182.423 82.1389 182.436L81.7845 181.93L87.8209 176.238ZM82.726 181.9C82.8173 181.934 82.906 181.976 82.9896 182.019C83.1882 182.122 83.3779 182.249 83.5295 182.368L86.2364 179.692L88.8208 177.051L88.0203 176.908L82.726 181.9Z" fill="black"/>
<path d="M62.5584 182.777L65.3477 183.245C65.9525 183.29 68.0953 181.775 68.4866 181.997C68.8779 182.219 67.1509 184.351 66.6634 184.655C66.1755 184.842 65.1163 185.329 64.7827 185.776C64.3656 186.335 64.5059 186.614 65.3477 188.286C66.0211 189.624 65.5379 189.82 65.2121 189.752C64.9325 189.543 64.2475 189.084 63.7447 188.918C63.2419 188.752 62.3465 187.876 62.1351 187.109C62.1351 187.109 62.5279 185.304 62.4062 184.178C62.263 182.853 62.5584 182.777 62.5584 182.777Z" fill="#F7F3F8"/>
<path fill-rule="evenodd" clip-rule="evenodd" d="M62.48 182.475C62.4806 182.475 62.4813 182.475 62.5584 182.777L62.4813 182.475L62.5451 182.459L65.3794 182.934C65.4021 182.934 65.4548 182.927 65.5469 182.898C65.647 182.866 65.7689 182.818 65.9096 182.754C66.1687 182.637 66.466 182.481 66.7716 182.321C66.7986 182.307 66.8255 182.293 66.8526 182.278C67.18 182.107 67.5161 181.933 67.7966 181.817C67.9362 181.759 68.0755 181.709 68.2011 181.683C68.3084 181.661 68.4854 181.638 68.6407 181.726C68.8607 181.851 68.8658 182.085 68.8499 182.204C68.8325 182.334 68.7779 182.473 68.7161 182.6C68.589 182.862 68.3812 183.176 68.1552 183.481C67.9271 183.789 67.6711 184.099 67.4395 184.353C67.2172 184.597 66.9915 184.818 66.8283 184.92L66.803 184.935L66.7752 184.946C66.542 185.036 66.1682 185.198 65.8149 185.392C65.4472 185.593 65.1549 185.799 65.0328 185.963C64.9393 186.088 64.8975 186.171 64.8795 186.244C64.8627 186.312 64.8603 186.398 64.8956 186.537C64.9731 186.844 65.1963 187.292 65.6264 188.146C65.8018 188.494 65.9097 188.783 65.9614 189.024C66.0126 189.261 66.0142 189.475 65.947 189.655C65.8752 189.848 65.7353 189.973 65.5732 190.033C65.4225 190.088 65.2686 190.083 65.1476 190.057L65.0806 190.043L65.0256 190.002C64.7486 189.795 64.0981 189.364 63.6469 189.215C63.3211 189.107 62.9281 188.801 62.6025 188.452C62.2722 188.098 61.9588 187.643 61.8343 187.192L61.8139 187.118L61.8303 187.043L61.8304 187.042L61.8312 187.038L61.8342 187.024C61.8369 187.011 61.841 186.992 61.8461 186.967C61.8563 186.917 61.8708 186.844 61.8879 186.752C61.9222 186.569 61.9666 186.313 62.0073 186.023C62.0898 185.435 62.1525 184.734 62.096 184.211C62.0227 183.533 62.0561 183.134 62.13 182.89C62.1679 182.765 62.2199 182.67 62.2845 182.599C62.3169 182.564 62.3514 182.536 62.3862 182.515C62.4034 182.505 62.4203 182.497 62.4364 182.49C62.4445 182.487 62.4522 182.484 62.4597 182.481C62.4635 182.48 62.4672 182.479 62.4708 182.478L62.4761 182.476L62.4787 182.476L62.48 182.475ZM62.4569 187.095C62.5575 187.394 62.784 187.732 63.0589 188.026C63.3595 188.349 63.6656 188.564 63.8426 188.622C64.3566 188.792 65.0126 189.222 65.3304 189.452C65.3434 189.451 65.3527 189.449 65.3577 189.447C65.3578 189.447 65.3577 189.447 65.3577 189.447C65.3587 189.445 65.3605 189.442 65.3622 189.438C65.3724 189.41 65.3889 189.329 65.3514 189.155C65.3146 188.984 65.2303 188.747 65.069 188.427L65.0416 188.372C64.6454 187.585 64.3873 187.073 64.2906 186.69C64.2378 186.481 64.2259 186.288 64.2737 186.094C64.3205 185.905 64.4175 185.744 64.5326 185.59C64.7441 185.306 65.1482 185.045 65.5155 184.844C65.8814 184.644 66.2639 184.476 66.5192 184.376C66.6067 184.314 66.7699 184.161 66.9784 183.932C67.1956 183.694 67.4382 183.401 67.6539 183.11C67.8637 182.827 68.0394 182.558 68.1431 182.351C68.11 182.363 68.0742 182.377 68.0357 182.393C67.7855 182.497 67.4747 182.657 67.1419 182.831C67.114 182.846 67.086 182.861 67.0579 182.875C66.7567 183.033 66.4434 183.197 66.167 183.322C66.0155 183.391 65.8678 183.451 65.7334 183.493C65.6059 183.533 65.4604 183.567 65.3246 183.557L65.3103 183.556L62.7145 183.12C62.6811 183.268 62.6543 183.57 62.7164 184.144C62.7817 184.749 62.7088 185.514 62.6253 186.109C62.583 186.411 62.5369 186.677 62.5013 186.867C62.4835 186.962 62.4683 187.039 62.4575 187.092C62.4573 187.093 62.4571 187.094 62.4569 187.095ZM68.3844 182.287C68.3844 182.287 68.3843 182.287 68.384 182.287L68.3844 182.287ZM65.3566 189.449C65.3566 189.449 65.3567 189.449 65.357 189.449L65.3566 189.449Z" fill="black"/>
<path d="M65.2105 182.842L62.7054 182.842L62.2129 183.714L62.2129 186.492L61.8432 188.9L62.7054 191.841L64.5815 193.443L67.6857 193.758L76.911 191.514C76.2509 191.426 71.8564 191.701 70.9828 191.202C69.8907 190.578 69.2667 190.266 68.3306 189.642C67.3946 188.706 66.4586 187.939 66.4586 186.492C66.4586 184.973 68.2251 182.729 68.3306 181.998L65.2105 182.842Z" fill="#160E1B" fill-opacity="0.4"/>
<path d="M82.6833 188.238C82.7747 189.022 76.1517 191.555 75.819 191.826C77.1466 192.307 88.1425 188.868 89.1877 188.034L92.6238 184.703L93.0357 182.271L92.7591 179.472L92.3443 179.322C92.3443 179.322 92.5827 180.681 91.5756 181.842C90.5685 183.002 90.5456 183.058 89.5476 183.87C88.4515 184.761 87.2075 185.274 86.2714 186.054C85.9047 186.742 82.5919 187.454 82.6833 188.238Z" fill="#160E1B" fill-opacity="0.4"/>
</g>
</svg>
