<svg width="188" height="291" viewBox="0 0 188 291" fill="none" xmlns="http://www.w3.org/2000/svg">
<g filter="url(#filter0_d)">
<path d="M77.2988 110.644L79.6166 99.3127C86.8276 104.335 91.592 104.463 97.5153 102.918L99.4468 110.902C99.5755 113.649 97.7728 119.014 89.5317 118.499C81.2906 117.984 77.9427 113.048 77.2988 110.644Z" fill="#9B4B35"/>
<path fill-rule="evenodd" clip-rule="evenodd" d="M79.4717 98.9505C79.5936 98.9018 79.7317 98.9176 79.8394 98.9926C83.4134 101.482 86.3533 102.739 89.1121 103.193C91.8701 103.648 94.4824 103.306 97.4167 102.541C97.5179 102.514 97.6256 102.53 97.7154 102.583C97.8052 102.637 97.8696 102.725 97.8942 102.826L99.8257 110.81C99.8315 110.834 99.8351 110.859 99.8362 110.883C99.9044 112.338 99.4641 114.474 97.9171 116.185C96.3566 117.911 93.72 119.151 89.5072 118.888C81.0979 118.362 77.6089 113.309 76.922 110.745C76.9063 110.686 76.9045 110.625 76.9166 110.566L79.2344 99.2345C79.2607 99.1059 79.3499 98.9992 79.4717 98.9505ZM79.8807 99.967L77.6997 110.63C78.3587 112.908 81.5858 117.611 89.5559 118.109C93.5842 118.361 95.9695 117.176 97.3385 115.662C98.7079 114.147 99.1101 112.248 99.0586 110.956L97.229 103.394C94.3891 104.105 91.7679 104.421 88.9853 103.963C86.2091 103.505 83.3044 102.282 79.8807 99.967Z" fill="black"/>
<path d="M92.4727 113.156C86.4669 114.088 81.6571 104.487 80.0029 99.5701C87.9883 104.984 92.5646 103.977 97.2535 102.946L97.308 102.934C98.1562 105.91 98.4786 112.224 92.4727 113.156Z" fill="#5D2D20"/>
<path d="M75.4962 57.9788C69.2124 62.7174 70.2596 72.4391 71.6331 76.7313C71.0362 76.863 70.4218 77.1526 69.8304 77.6799C68.1891 79.1434 67.2551 83.8607 70.7317 86.0497C71.3059 86.4112 72.2777 86.7171 73.3071 86.7533C73.9939 89.7579 76.3976 96.9948 80.0031 99.5701C84.5099 102.789 91.4633 106.008 101.25 101.502C111.036 96.9948 112.581 87.5949 110.392 74.8471C108.203 62.0993 102.537 55.661 96.4852 53.6007C90.4332 51.5405 83.351 52.0555 75.4962 57.9788Z" fill="#9B4B35"/>
<path fill-rule="evenodd" clip-rule="evenodd" d="M96.3594 53.9701C90.4372 51.954 83.489 52.44 75.7309 58.2903C72.7077 60.5701 71.4271 64.063 71.0812 67.5609C70.7525 70.885 71.2743 74.1651 71.9045 76.2882C72.8096 76.1694 73.6507 76.3587 74.3048 76.6052C75.0435 76.8836 75.5729 77.2457 75.7355 77.3722C75.9056 77.5045 75.9362 77.7495 75.804 77.9195C75.6717 78.0896 75.4267 78.1202 75.2566 77.988C75.1455 77.9015 74.6839 77.5817 74.0297 77.3351C73.376 77.0887 72.5591 76.9264 71.7171 77.1123C71.1857 77.2296 70.6317 77.488 70.0898 77.9712C69.3732 78.6101 68.7556 80.0367 68.7517 81.5939C68.7479 83.1269 69.3391 84.7122 70.9394 85.7198C71.446 86.0388 72.3482 86.3295 73.3207 86.3637C74.4179 86.4023 75.5164 86.1135 76.23 85.281C76.3702 85.1175 76.6164 85.0985 76.78 85.2387C76.9435 85.3789 76.9624 85.6251 76.8223 85.7886C76.0224 86.7218 74.8875 87.086 73.8011 87.1399C74.1816 88.6514 74.9024 90.9288 75.9156 93.1617C77.0477 95.6567 78.5152 98.0283 80.2296 99.2529C82.457 100.844 85.2685 102.42 88.7165 103.05C92.1584 103.678 96.2621 103.369 101.086 101.148C105.878 98.9409 108.634 95.5527 109.938 91.1541C111.248 86.7324 111.098 81.2656 110.008 74.9133C107.833 62.248 102.228 55.9679 96.3594 53.9701ZM72.9941 87.1256C73.3702 88.675 74.1248 91.1027 75.2053 93.484C76.3481 96.0025 77.8853 98.537 79.7763 99.8877C82.0557 101.516 84.9744 103.159 88.5764 103.817C92.1845 104.476 96.4506 104.141 101.413 101.856C106.407 99.5558 109.317 95.9907 110.685 91.3757C112.047 86.7838 111.875 81.1767 110.776 74.7812C108.573 61.9509 102.846 55.3543 96.6108 53.2317C90.429 51.1272 83.2128 51.6714 75.2613 57.6675C72.0006 60.1263 70.663 63.8636 70.3049 67.4842C69.9674 70.8977 70.4942 74.2553 71.1427 76.4624C70.6127 76.638 70.081 76.934 69.5707 77.389C68.646 78.2135 67.976 79.8773 67.9717 81.5919C67.9674 83.3306 68.6474 85.1985 70.5238 86.3799C71.1063 86.7467 72.0182 87.0451 72.9941 87.1256Z" fill="black"/>
<path fill-rule="evenodd" clip-rule="evenodd" d="M101.609 64.4047C100.28 64.3895 98.9206 64.8482 98.0791 65.2793C97.8874 65.3775 97.6524 65.3016 97.5542 65.1099C97.456 64.9182 97.5318 64.6832 97.7235 64.585C98.6418 64.1147 100.128 63.6077 101.617 63.6247C103.124 63.6419 104.675 64.2016 105.585 65.9075C105.687 66.0975 105.615 66.3338 105.425 66.4352C105.234 66.5365 104.998 66.4646 104.897 66.2746C104.158 64.8901 102.92 64.4196 101.609 64.4047ZM85.5425 67.2245C85.5566 67.4395 85.3937 67.6251 85.1787 67.6391C80.6451 67.9348 79.0741 70.9442 78.8422 72.3359C78.8068 72.5484 78.6058 72.6919 78.3933 72.6565C78.1809 72.6211 78.0373 72.4201 78.0728 72.2077C78.3559 70.509 80.1843 67.1831 85.128 66.8607C85.3429 66.8467 85.5285 67.0096 85.5425 67.2245Z" fill="black"/>
<path d="M83.2225 74.5898C83.0164 71.7054 84.2526 71.3706 85.154 71.3706C85.7978 71.3706 86.6734 71.5251 87.0855 74.2035C87.4975 76.8818 86.4416 77.1651 85.7978 77.2938C85.0252 77.4226 83.4285 77.4741 83.2225 74.5898Z" fill="black"/>
<path fill-rule="evenodd" clip-rule="evenodd" d="M83.6271 71.7687C84.0786 71.2621 84.6833 71.1755 85.1537 71.1755C85.4966 71.1755 85.9431 71.2176 86.3484 71.6491C86.7402 72.066 87.07 72.8223 87.2779 74.1737C87.4866 75.5306 87.3331 76.3328 86.9974 76.8159C86.6574 77.3055 86.1624 77.4197 85.8357 77.485L85.8326 77.4856L85.8295 77.4861C85.4325 77.5523 84.7779 77.6083 84.1927 77.2362C83.5986 76.8585 83.133 76.0784 83.0276 74.6036C82.9231 73.1407 83.1794 72.271 83.6271 71.7687ZM83.9182 72.0282C83.574 72.4144 83.3151 73.1543 83.4167 74.5758C83.5173 75.9854 83.9531 76.6217 84.402 76.9071C84.8586 77.1974 85.387 77.1642 85.7623 77.1019C86.0787 77.0385 86.4321 76.9461 86.6771 76.5934C86.9274 76.2331 87.0957 75.5545 86.8924 74.233C86.6883 72.9061 86.3742 72.246 86.0642 71.9161C85.7678 71.6007 85.4545 71.5656 85.1537 71.5656C84.7226 71.5656 84.2586 71.6464 83.9182 72.0282Z" fill="black"/>
<path d="M99.0833 71.6281C98.8773 68.7437 100.113 68.4089 101.015 68.4089C101.659 68.4089 102.534 68.5635 102.946 71.2418C103.358 73.9201 102.302 74.2034 101.659 74.3322C100.886 74.4609 99.2893 74.5124 99.0833 71.6281Z" fill="black"/>
<path fill-rule="evenodd" clip-rule="evenodd" d="M99.4884 68.8071C99.9399 68.3005 100.545 68.2139 101.015 68.2139C101.358 68.2139 101.804 68.256 102.21 68.6874C102.602 69.1044 102.931 69.8606 103.139 71.2121C103.348 72.5689 103.194 73.3711 102.859 73.8543C102.519 74.3438 102.024 74.458 101.697 74.5233L101.694 74.5239L101.691 74.5245C101.294 74.5906 100.639 74.6466 100.054 74.2745C99.46 73.8968 98.9943 73.1167 98.889 71.6419C98.7845 70.1791 99.0407 69.3094 99.4884 68.8071ZM99.7795 69.0666C99.4353 69.4528 99.1765 70.1926 99.278 71.6141C99.3787 73.0237 99.8144 73.66 100.263 73.9454C100.72 74.2357 101.248 74.2025 101.624 74.1403C101.94 74.0768 102.293 73.9845 102.538 73.6317C102.789 73.2715 102.957 72.5928 102.754 71.2714C102.55 69.9445 102.236 69.2843 101.926 68.9545C101.629 68.639 101.316 68.6039 101.015 68.6039C100.584 68.6039 100.12 68.6847 99.7795 69.0666Z" fill="black"/>
<path fill-rule="evenodd" clip-rule="evenodd" d="M94.8823 76.2703C94.0735 76.4557 93.2044 77.1135 92.6454 77.6932C92.4959 77.8483 92.249 77.8528 92.0939 77.7032C91.9388 77.5537 91.9344 77.3068 92.0839 77.1518C92.6837 76.5297 93.6818 75.7453 94.708 75.51C95.2327 75.3897 95.7933 75.4073 96.3052 75.6973C96.8153 75.9863 97.2182 76.5125 97.4963 77.2913C97.8403 78.2546 97.8622 79.0769 97.641 79.7616C97.4199 80.4461 96.9695 80.9508 96.4453 81.3033C95.924 81.6538 95.3221 81.8598 94.7677 81.9537C94.2192 82.0465 93.68 82.0357 93.2827 81.9166C93.0764 81.8547 92.9593 81.6372 93.0212 81.4309C93.0831 81.2246 93.3005 81.1075 93.5068 81.1694C93.7534 81.2434 94.1638 81.2648 94.6375 81.1846C95.1051 81.1054 95.5978 80.9332 96.01 80.656C96.4193 80.3808 96.7416 80.0083 96.8987 79.5218C97.0558 79.0355 97.0615 78.3931 96.7617 77.5537C96.5248 76.8903 96.2194 76.5452 95.9207 76.376C95.6238 76.2078 95.2749 76.1803 94.8823 76.2703Z" fill="black"/>
<path d="M87.9866 87.3373C90.1327 87.3373 94.837 87.2858 96.4852 87.0798C98.1334 86.8738 101.893 85.5346 103.567 84.8908C104.426 84.5903 105.747 84.4124 105.241 86.4359C104.598 89.0113 104.211 94.0331 97.9016 95.5783C92.854 96.8145 89.7035 94.0331 88.7592 92.4879C87.772 91.1574 85.9263 87.2085 87.9866 87.3373Z" fill="#46210F"/>
<path fill-rule="evenodd" clip-rule="evenodd" d="M103.701 85.2571C102.859 85.5811 101.497 86.0779 100.137 86.5204C98.7851 86.9604 97.3995 87.3586 96.5334 87.4669C94.8553 87.6767 90.1222 87.7274 87.9864 87.7274H87.9742L87.962 87.7267C87.7629 87.7142 87.6598 87.7538 87.6065 87.7899C87.5562 87.8241 87.5078 87.884 87.4755 88.003C87.4038 88.2669 87.4447 88.7017 87.6047 89.2576C87.918 90.3466 88.604 91.6247 89.0722 92.2557L89.0826 92.2697L89.0918 92.2847C89.9665 93.7161 92.9588 96.3873 97.8086 95.1996C100.853 94.454 102.438 92.8844 103.354 91.2068C104.085 89.8653 104.391 88.4624 104.65 87.2732C104.722 86.9443 104.79 86.6318 104.863 86.3415C104.982 85.8649 104.979 85.5685 104.935 85.3938C104.897 85.2399 104.828 85.1807 104.754 85.1468C104.658 85.1032 104.51 85.085 104.307 85.1084C104.111 85.1311 103.899 85.1882 103.701 85.2571ZM105.692 85.2036C105.78 85.5553 105.753 85.9955 105.62 86.5307C105.556 86.7856 105.493 87.0726 105.426 87.3836C105.166 88.579 104.83 90.1292 104.038 91.5803C103.022 93.4437 101.259 95.1577 97.9942 95.9573C92.7645 97.238 89.4599 94.3677 88.4354 92.7064C87.917 92.0027 87.194 90.6514 86.855 89.4733C86.6877 88.8918 86.5918 88.2804 86.7227 87.7986C86.7916 87.5447 86.9293 87.3068 87.1685 87.1445C87.4017 86.9863 87.6869 86.93 87.9979 86.9474C90.1594 86.9472 94.8211 86.8948 96.4366 86.6929C97.2187 86.5951 98.5372 86.2208 99.8957 85.7787C101.243 85.3401 102.595 84.8468 103.427 84.5269L103.433 84.5247L103.438 84.5228C103.668 84.4423 103.942 84.3654 104.217 84.3336C104.488 84.3024 104.799 84.3099 105.078 84.4372C105.378 84.5742 105.598 84.8311 105.692 85.2036Z" fill="black"/>
<path d="M91.9782 95.1922C91.8494 94.0333 91.5919 91.0717 96.2275 90.5566C100.863 90.0415 101.507 92.4881 101.764 93.647C100.606 94.9346 95.97 96.9949 91.9782 95.1922Z" fill="#DF1919"/>
<path fill-rule="evenodd" clip-rule="evenodd" d="M100.378 91.7643C99.7151 91.1709 98.521 90.694 96.2706 90.944C94.0399 91.1919 93.0831 92.0118 92.6615 92.8141C92.276 93.5479 92.2901 94.3487 92.3429 94.9249C94.1787 95.6868 96.1556 95.6208 97.8391 95.1999C99.4593 94.7948 100.745 94.0778 101.336 93.5259C101.203 92.9797 100.974 92.2983 100.378 91.7643ZM100.898 91.1833C101.77 91.9642 102.015 92.9754 102.145 93.5621L102.189 93.7583L102.054 93.9077C101.404 94.6306 99.8726 95.4955 98.0283 95.9566C96.169 96.4214 93.9169 96.4954 91.8177 95.5474L91.6152 95.4559L91.5906 95.235C91.5262 94.6551 91.4116 93.516 91.971 92.4513C92.5474 91.3543 93.7796 90.4359 96.1845 90.1687C98.5697 89.9037 100.015 90.3926 100.898 91.1833Z" fill="black"/>
<path d="M41.9997 167.356L44.1448 150C50.8531 151.873 56.6903 157.021 58.7704 159.361L56.8203 162.481C56.1963 164.197 58.2503 171.256 59.3554 174.571C59.8104 175.546 61.9685 176.99 63.0605 178.862C64.4256 181.202 66.7657 181.982 68.3257 183.347C69.5738 184.439 71.5759 189.392 71.6409 191.342C71.2509 192.902 68.7763 191.869 68.3257 190.367C66.9802 185.882 65.0756 186.467 64.0356 184.907L65.0106 187.637C66.7007 190.757 68.2087 197.465 60.7204 199.337C51.3601 201.678 49.02 188.612 48.435 185.492C47.8499 182.372 45.1198 178.082 43.1698 174.961C41.6097 172.465 41.7397 168.851 41.9997 167.356Z" fill="#9B4B35"/>
<path fill-rule="evenodd" clip-rule="evenodd" d="M43.9284 149.676C44.0229 149.613 44.1401 149.594 44.2495 149.625C51.0575 151.525 56.9551 156.732 59.0617 159.102C59.1767 159.231 59.1927 159.421 59.101 159.567L57.1748 162.649C57.1264 162.803 57.0959 163.037 57.0946 163.359C57.0933 163.699 57.1247 164.111 57.1845 164.578C57.304 165.513 57.5333 166.645 57.8186 167.836C58.3862 170.204 59.1679 172.774 59.7176 174.425C59.8065 174.605 59.9859 174.834 60.2568 175.123C60.4744 175.354 60.7298 175.603 61.0107 175.876C61.0859 175.949 61.163 176.024 61.2416 176.101C61.9732 176.817 62.8217 177.678 63.3973 178.665C64.0386 179.764 64.9122 180.505 65.8419 181.149C66.1562 181.367 66.4686 181.568 66.782 181.769C66.9379 181.87 67.0939 181.97 67.2506 182.073C67.7144 182.377 68.1715 182.694 68.5825 183.053C68.9478 183.373 69.3337 183.937 69.701 184.591C70.0748 185.257 70.4508 186.054 70.7876 186.874C71.4539 188.497 71.9955 190.279 72.0306 191.329C72.0318 191.365 72.0279 191.401 72.0191 191.437C71.8915 191.947 71.574 192.284 71.1461 192.429C70.7426 192.565 70.2889 192.514 69.8781 192.371C69.0659 192.089 68.2215 191.377 67.9521 190.479C67.2977 188.298 66.5243 187.397 65.8248 186.846C65.5788 186.653 65.3513 186.508 65.1163 186.358C65.0528 186.317 64.9888 186.276 64.9237 186.234L65.3678 187.478C66.2306 189.082 67.0559 191.612 66.6929 194.013C66.5091 195.23 66.019 196.418 65.0715 197.425C64.1249 198.431 62.7437 199.234 60.8149 199.716C58.3777 200.325 56.3684 199.934 54.7306 198.933C53.1058 197.939 51.8763 196.364 50.9441 194.648C49.1248 191.301 48.377 187.304 48.0721 185.674C48.065 185.636 48.0581 185.599 48.0515 185.564C47.7707 184.066 46.9666 182.257 45.9709 180.412C45.0435 178.693 43.9674 176.972 43.0329 175.478C42.9675 175.374 42.9028 175.27 42.8389 175.168C42.0144 173.849 41.6468 172.254 41.5137 170.819C41.381 169.388 41.4788 168.081 41.6137 167.299L43.7576 149.953C43.7715 149.84 43.8339 149.739 43.9284 149.676ZM44.4756 150.503L42.3867 167.404C42.3859 167.41 42.3849 167.417 42.3838 167.423C42.2596 168.137 42.1637 169.38 42.2904 170.747C42.4174 172.117 42.7648 173.578 43.5004 174.755C43.5649 174.858 43.6304 174.963 43.6966 175.069C44.6288 176.559 45.7176 178.299 46.6574 180.041C47.6605 181.901 48.514 183.798 48.8182 185.42C48.8239 185.451 48.8298 185.482 48.8359 185.515C49.1406 187.142 49.8699 191.038 51.6295 194.276C52.5255 195.925 53.6727 197.372 55.1375 198.267C56.5894 199.155 58.3827 199.52 60.6257 198.959C62.4411 198.505 63.6795 197.767 64.5034 196.891C65.3264 196.016 65.7578 194.981 65.9217 193.897C66.2522 191.71 65.4897 189.34 64.6676 187.823C64.6581 187.805 64.6499 187.787 64.6432 187.768L63.6682 185.038C63.6019 184.852 63.6844 184.647 63.8604 184.558C64.0364 184.47 64.2507 184.527 64.36 184.69C64.5803 185.021 64.8481 185.243 65.1743 185.465C65.271 185.53 65.3787 185.599 65.4932 185.672C65.7461 185.834 66.0323 186.017 66.3072 186.233C67.1563 186.902 68.008 187.951 68.6992 190.255C68.8802 190.858 69.4984 191.414 70.1337 191.634C70.4466 191.743 70.7128 191.752 70.897 191.689C71.0466 191.639 71.1771 191.532 71.2485 191.298C71.2004 190.386 70.7153 188.752 70.0661 187.171C69.7382 186.372 69.3756 185.605 69.021 184.973C68.6599 184.331 68.3275 183.867 68.0688 183.64C67.6997 183.317 67.2792 183.024 66.8229 182.725C66.6778 182.63 66.5276 182.533 66.3746 182.435C66.0548 182.229 65.7226 182.015 65.3979 181.79C64.4262 181.118 63.4473 180.299 62.7235 179.058C62.2071 178.173 61.4305 177.377 60.6963 176.659C60.6218 176.586 60.5475 176.514 60.474 176.442C60.1913 176.167 59.9191 175.903 59.6883 175.657C59.4019 175.352 59.1438 175.041 59.0018 174.736C58.9955 174.723 58.99 174.709 58.9853 174.695C58.4303 173.03 57.637 170.425 57.06 168.017C56.7717 166.814 56.5354 165.652 56.4107 164.677C56.3485 164.19 56.3131 163.742 56.3146 163.356C56.3161 162.976 56.3528 162.625 56.4536 162.348C56.463 162.322 56.475 162.297 56.4894 162.274L58.2833 159.404C56.127 157.061 50.7036 152.384 44.4756 150.503Z" fill="black"/>
<path d="M49.2151 152.535C48.7471 152.067 47.07 151.365 44.5349 150.39C43.7549 155.461 42.1558 165.601 41.9998 167.941C41.7398 171.841 43.386 175.529 45.3149 177.886C47.0699 180.032 48.6301 185.297 49.9952 190.952C51.1067 195.557 54.2853 197.972 55.6504 198.557C55.6504 198.557 57.9904 199.532 59.1605 199.142C60.3305 198.752 56.4304 198.557 54.8703 197.192C53.6962 196.165 51.6853 191.862 50.9702 189.977C50.6452 187.052 49.8001 181.397 48.0451 179.642C46.2793 177.876 44.5348 172.231 43.9499 169.891C43.3333 167.424 49.8001 153.12 49.2151 152.535Z" fill="#5D2D20"/>
<path d="M109.277 137.52C109.589 135.648 114.218 129.459 116.493 126.599C119.288 133.75 124.917 149.337 125.073 154.485C125.229 159.634 126.698 164.951 127.413 166.966C129.363 168.916 130.338 173.596 130.143 176.716C129.558 179.446 129.558 180.812 127.413 182.372C124.659 184.375 122.148 182.567 120.783 181.397C120.364 181.038 118.722 179.192 119.808 175.936C120.393 174.181 118.638 172.036 118.248 172.426C117.728 174.311 117.858 175.156 117.858 176.716C117.858 178.471 118.443 178.471 118.248 179.446C118.083 180.268 117.507 180.851 116.103 179.446C114.699 178.042 114.543 176.521 114.543 174.766C114.543 173.011 114.687 171.425 115.323 170.281C118.248 165.016 115.323 155.071 114.543 152.34C113.763 149.61 110.642 141.095 109.277 137.52Z" fill="#9B4B35"/>
<path fill-rule="evenodd" clip-rule="evenodd" d="M116.609 125.826L116.856 126.457C118.255 130.038 120.364 135.729 122.143 141.172C123.032 143.893 123.841 146.556 124.437 148.864C125.031 151.163 125.422 153.14 125.463 154.474C125.615 159.502 127.036 164.705 127.752 166.755C128.768 167.81 129.5 169.515 129.96 171.306C130.432 173.144 130.633 175.135 130.532 176.741L130.53 176.77L130.524 176.798C130.453 177.133 130.389 177.452 130.328 177.757C130.148 178.661 129.993 179.439 129.726 180.124C129.355 181.079 128.768 181.868 127.642 182.687C126.156 183.768 124.71 183.827 123.463 183.447C122.239 183.075 121.219 182.285 120.529 181.693C120.027 181.262 118.288 179.261 119.438 175.813C119.679 175.088 119.444 174.235 119.057 173.574C118.88 173.273 118.687 173.038 118.527 172.896C118.212 174.166 118.224 174.918 118.24 175.94C118.243 176.18 118.247 176.436 118.247 176.716C118.247 177.538 118.382 177.931 118.493 178.243C118.498 178.256 118.503 178.27 118.507 178.284C118.561 178.433 118.622 178.602 118.654 178.791C118.69 179.008 118.687 179.239 118.63 179.523C118.544 179.955 118.312 180.536 117.721 180.663C117.435 180.724 117.133 180.657 116.829 180.502C116.526 180.346 116.194 180.089 115.827 179.722C114.308 178.204 114.152 176.546 114.152 174.766C114.152 173.011 114.293 171.332 114.981 170.092C116.378 167.578 116.397 163.887 115.935 160.412C115.492 157.076 114.62 154.03 114.209 152.595C114.195 152.544 114.181 152.495 114.167 152.448C113.393 149.737 110.279 141.238 108.913 137.659L108.875 137.56L108.892 137.456C108.984 136.909 109.368 136.114 109.879 135.231C110.399 134.33 111.085 133.282 111.828 132.208C113.315 130.061 115.046 127.791 116.187 126.357L116.609 125.826ZM109.682 137.486C111.066 141.117 114.139 149.511 114.917 152.233C114.931 152.281 114.946 152.332 114.961 152.385C115.372 153.823 116.258 156.915 116.708 160.309C117.173 163.805 117.192 167.719 115.663 170.471C115.082 171.518 114.932 173.012 114.932 174.766C114.932 176.497 115.089 177.881 116.378 179.171C116.713 179.506 116.98 179.703 117.184 179.807C117.389 179.912 117.504 179.911 117.558 179.9C117.648 179.88 117.787 179.76 117.865 179.37C117.906 179.167 117.903 179.032 117.884 178.92C117.865 178.803 117.827 178.697 117.767 178.531L117.758 178.505C117.626 178.134 117.467 177.65 117.467 176.716C117.467 176.451 117.463 176.204 117.46 175.968C117.441 174.834 117.427 173.934 117.871 172.323L117.899 172.223L117.972 172.151C118.159 171.963 118.4 171.972 118.561 172.019C118.717 172.065 118.862 172.16 118.986 172.263C119.241 172.473 119.506 172.798 119.73 173.18C120.171 173.933 120.521 175.03 120.178 176.06C119.156 179.124 120.701 180.813 121.036 181.101C121.711 181.679 122.629 182.378 123.69 182.701C124.728 183.017 125.915 182.979 127.183 182.056C128.203 181.315 128.688 180.641 128.999 179.842C129.239 179.225 129.376 178.541 129.551 177.664C129.612 177.356 129.678 177.025 129.755 176.663C129.846 175.154 129.656 173.257 129.205 171.5C128.747 169.719 128.038 168.143 127.137 167.242L127.075 167.18L127.045 167.097C126.322 165.057 124.841 159.698 124.683 154.497C124.645 153.258 124.275 151.355 123.682 149.06C123.091 146.773 122.288 144.127 121.402 141.414C119.73 136.3 117.765 130.962 116.376 127.376C115.264 128.795 113.771 130.772 112.469 132.652C111.732 133.717 111.06 134.746 110.554 135.621C110.078 136.444 109.777 137.086 109.682 137.486Z" fill="black"/>
<path d="M116.297 151.756C115.517 149.026 111.877 140.705 109.667 137.13C110.642 140.445 113.957 148.441 115.322 153.706C115.962 156.175 116.716 160.015 116.882 162.676C117.071 165.7 116.608 167.487 116.297 169.111C116.817 168.201 117.545 165.913 117.857 164.041C118.247 161.701 117.268 155.152 116.297 151.756Z" fill="#5D2D20"/>
<path d="M120.783 174.377C120.315 173.128 119.223 172.296 118.833 172.231C120.198 173.792 120.003 175.547 119.808 177.107C119.652 178.355 119.808 179.447 120.198 180.227L121.563 181.592C121.238 181.072 120.939 180.11 120.783 179.642C120.627 179.174 120.588 178.862 120.783 177.887C121.108 177.237 121.251 175.625 120.783 174.377Z" fill="#5D2D20"/>
<path d="M77.1406 110.331C72.0704 110.396 62.5121 108.71 57.0548 116.766C52.9596 122.811 43.2092 136.852 43.4042 149.527C47.2394 150.957 55.6897 154.949 58.8099 159.473C58.8099 159.798 58.4978 160.76 57.2498 162.008C56.0017 163.256 58.2898 170.978 59.5899 174.683C61.15 177.219 67.6632 181.158 84.3559 183.654C101.049 186.15 109.902 176.634 113.607 171.368C113.607 165.323 112.066 146.468 107.367 133.732L109.317 138.802C108.693 136.93 113.867 130.092 116.532 126.907C116.844 124.254 112.372 116.701 110.097 113.256C106.821 109.824 102.817 109.876 99.5665 110.916C98.6304 117.156 93.0662 118.456 90.4011 118.326C81.5088 118.014 77.8556 112.866 77.1406 110.331Z" fill="#FF8B00"/>
<path fill-rule="evenodd" clip-rule="evenodd" d="M74.7679 109.896C75.6399 109.924 76.4387 109.95 77.1355 109.941L77.4346 109.937L77.5158 110.225C78.184 112.594 81.6886 117.63 90.4147 117.936L90.42 117.937L90.42 117.937C91.6907 117.999 93.6694 117.717 95.4336 116.674C97.1816 115.64 98.7314 113.853 99.1807 110.858L99.2166 110.618L99.4475 110.544C102.781 109.478 106.963 109.408 110.379 112.987L110.403 113.012L110.422 113.041C111.565 114.772 113.26 117.534 114.631 120.2C115.317 121.533 115.926 122.85 116.345 124.006C116.757 125.145 117.009 126.19 116.919 126.952L116.906 127.068L116.831 127.157C115.505 128.742 113.554 131.236 112.016 133.562C111.246 134.726 110.587 135.837 110.16 136.764C109.947 137.229 109.797 137.636 109.718 137.973C109.637 138.319 109.643 138.546 109.687 138.679L109.396 138.783C112.824 151.033 113.997 166.079 113.997 171.368V171.492L113.926 171.593C110.18 176.916 101.2 186.567 84.2981 184.04C75.9319 182.789 70.0974 181.173 66.1492 179.544C62.2175 177.921 60.1037 176.263 59.2576 174.888L59.2356 174.852L59.2217 174.813C58.5687 172.951 57.6667 170.079 57.0838 167.511C56.7928 166.228 56.5779 165.006 56.5167 164.018C56.4861 163.525 56.4928 163.074 56.5535 162.697C56.6126 162.33 56.7315 161.975 56.9739 161.732C57.5743 161.132 57.9401 160.61 58.1539 160.21C58.3119 159.915 58.38 159.7 58.4059 159.576C56.8777 157.431 54.0966 155.381 51.1783 153.677C48.2179 151.947 45.1671 150.601 43.2679 149.893L43.0183 149.8L43.0142 149.533C42.9152 143.103 45.3363 136.357 48.2717 130.486C51.0624 124.905 54.338 120.076 56.4127 117.018C56.5225 116.856 56.6289 116.699 56.7317 116.547C59.5376 112.405 63.403 110.772 67.181 110.167C69.8652 109.737 72.5525 109.824 74.7679 109.896ZM59.1931 159.588C59.166 159.838 59.0546 160.18 58.8416 160.578C58.5873 161.053 58.1731 161.636 57.5255 162.284C57.4559 162.353 57.3732 162.512 57.3236 162.821C57.2757 163.119 57.2665 163.506 57.2952 163.97C57.3526 164.896 57.557 166.071 57.8445 167.338C58.4145 169.85 59.2978 172.669 59.9436 174.514C60.6743 175.671 62.5974 177.234 66.4468 178.823C70.3184 180.421 76.0869 182.023 84.4134 183.268C100.791 185.717 109.511 176.471 113.217 171.245C113.196 165.092 111.646 146.457 107.001 133.867L107.731 133.592L107.733 133.597L109.128 137.226C109.217 136.975 109.326 136.712 109.452 136.438C109.903 135.458 110.587 134.309 111.366 133.132C112.895 130.82 114.818 128.354 116.154 126.751C116.186 126.183 115.995 125.332 115.611 124.272C115.208 123.159 114.616 121.875 113.938 120.557C112.59 117.937 110.922 115.216 109.791 113.5C106.734 110.318 103.026 110.277 99.913 111.217C99.3795 114.318 97.7162 116.231 95.8306 117.346C93.9136 118.479 91.7792 118.783 90.3847 118.716C81.638 118.408 77.7933 113.492 76.8541 110.723C76.1771 110.724 75.4403 110.7 74.6577 110.674C72.4639 110.603 69.9101 110.519 67.3044 110.937C63.9034 111.482 60.4941 112.877 57.8973 116.264C60.0753 116.02 62.9746 115.979 65.7789 116.882C69.0099 117.923 72.0982 120.213 73.8012 124.821L73.0695 125.092C71.4574 120.729 68.5653 118.599 65.5398 117.625C62.572 116.669 59.4601 116.822 57.2808 117.128C57.2092 117.233 57.136 117.341 57.0614 117.451C54.9862 120.51 51.7363 125.301 48.9694 130.835C46.0957 136.582 43.7647 143.09 43.7915 149.257C45.7371 150 48.695 151.322 51.5718 153.003C54.3521 154.627 57.1008 156.611 58.7686 158.758C61.3575 154.209 65.0441 147.506 68.0559 141.532C69.6208 138.428 71.0003 135.528 71.9487 133.232C72.4232 132.083 72.7863 131.094 73.0111 130.311C73.1235 129.919 73.1991 129.586 73.2377 129.315C73.2773 129.038 73.2736 128.854 73.2496 128.746L74.0111 128.577C74.0651 128.82 74.0545 129.113 74.01 129.425C73.9645 129.744 73.879 130.114 73.7608 130.526C73.5245 131.35 73.149 132.369 72.6696 133.53C71.7102 135.852 70.3205 138.773 68.7524 141.883C65.6331 148.07 61.7947 155.032 59.1931 159.588Z" fill="black"/>
<path d="M64.2673 168.923C61.3031 167.987 59.5221 162.293 59.0021 159.563C58.69 160.655 57.442 161.773 56.8569 162.488C56.7009 164.672 58.547 171.718 59.587 174.774C60.0514 176.631 67.7774 180.429 74.7976 181.794C81.0379 183.007 87.3968 184.971 95.0784 183.549C105.609 181.599 111.654 174.579 113.604 171.263L113.409 165.413C109.054 167.753 98.1986 172.824 89.6183 174.384C78.8928 176.334 67.9724 170.093 64.2673 168.923Z" fill="#740687" fill-opacity="0.8"/>
<path fill-rule="evenodd" clip-rule="evenodd" d="M57.2395 162.638C57.2232 163.14 57.3021 163.902 57.4561 164.836C57.6215 165.839 57.868 167.011 58.1528 168.214C58.7227 170.621 59.4409 173.134 59.9561 174.648L59.9613 174.663L59.9652 174.679C59.9991 174.814 60.1163 175.017 60.3689 175.284C60.6149 175.544 60.9605 175.833 61.398 176.144C62.2723 176.765 63.479 177.445 64.9001 178.115C67.7415 179.456 71.3973 180.735 74.8719 181.411C75.914 181.613 76.9554 181.836 78.0022 182.059C83.2704 183.184 88.6766 184.338 95.0072 183.165C105.296 181.26 111.241 174.447 113.21 171.162L113.04 166.05C108.362 168.503 97.9846 173.259 89.6879 174.767C84.234 175.759 78.7509 174.666 74.1903 173.194C71.9074 172.458 69.8477 171.624 68.132 170.904C67.7754 170.754 67.4349 170.61 67.1112 170.472C65.8651 169.944 64.867 169.522 64.1496 169.295C63.3122 169.031 62.5868 168.44 61.9678 167.7C61.3471 166.957 60.8137 166.04 60.3647 165.081C59.6778 163.613 59.1747 162.017 58.8578 160.725C58.6939 160.969 58.5115 161.202 58.3305 161.417C58.112 161.678 57.8858 161.925 57.6822 162.146L57.6709 162.159C57.507 162.337 57.361 162.496 57.2395 162.638ZM57.733 160.916C58.1518 160.417 58.4949 159.918 58.6269 159.456L59.385 159.49C59.6405 160.831 60.2073 162.905 61.0712 164.75C61.503 165.673 62.0031 166.526 62.5663 167.199C63.1311 167.875 63.7399 168.348 64.3845 168.551C65.1408 168.79 66.1869 169.233 67.4388 169.764C67.7576 169.899 68.0899 170.04 68.434 170.184C70.1431 170.902 72.1787 171.726 74.4297 172.452C78.9369 173.906 84.2768 174.958 89.5483 174C98.0672 172.451 108.879 167.404 113.224 165.069L113.778 164.772L113.998 171.363L113.94 171.461C111.95 174.845 105.82 181.956 95.1493 183.932C88.6526 185.135 83.0758 183.943 77.8038 182.815C76.7666 182.594 75.7413 182.374 74.723 182.176C71.1774 181.487 67.46 180.185 64.5673 178.821C63.1213 178.139 61.8707 177.436 60.9464 176.78C60.4846 176.452 60.0956 176.13 59.8027 175.821C59.5215 175.524 59.2986 175.208 59.2129 174.885C58.6884 173.342 57.9662 170.812 57.3938 168.394C57.1065 167.18 56.8558 165.99 56.6865 164.963C56.5188 163.945 56.4252 163.056 56.4677 162.46L56.4766 162.337L56.5549 162.241C56.7044 162.058 56.8926 161.853 57.0865 161.642C57.0935 161.634 57.1005 161.627 57.1075 161.619C57.3122 161.396 57.5272 161.161 57.733 160.916Z" fill="black"/>
<path d="M62.3171 153.323L59.002 159.563C59.392 161.968 61.0422 167.408 63.2921 168.533C65.6322 169.703 70.7024 171.588 73.2375 172.433C85.718 177.308 93.1283 173.603 97.0285 172.433C100.929 171.263 113.214 166.193 113.409 165.413C113.565 164.789 112.824 159.108 112.434 156.248C106.194 158.328 92.7773 162.605 89.0331 163.073C84.353 163.658 72.8475 161.903 69.7274 160.538C67.2313 159.446 63.7471 155.273 62.3171 153.323Z" fill="#004CFF" fill-opacity="0.8"/>
<path fill-rule="evenodd" clip-rule="evenodd" d="M62.2644 152.591L62.6318 153.092C63.3384 154.056 64.5562 155.573 65.9045 156.983C67.2648 158.405 68.7136 159.669 69.8839 160.181C71.3886 160.839 74.995 161.614 78.8493 162.151C82.6984 162.687 86.7003 162.972 88.985 162.686C90.817 162.457 95.0711 161.283 99.6852 159.892C104.283 158.505 109.193 156.917 112.311 155.878L112.757 155.729L112.821 156.195C113.016 157.626 113.299 159.765 113.514 161.624C113.621 162.554 113.712 163.417 113.766 164.089C113.793 164.424 113.812 164.716 113.818 164.947C113.824 165.158 113.822 165.369 113.788 165.508C113.759 165.625 113.69 165.711 113.647 165.759C113.597 165.814 113.538 165.866 113.478 165.914C113.357 166.01 113.196 166.115 113.009 166.226C112.633 166.45 112.11 166.722 111.487 167.025C110.238 167.633 108.555 168.38 106.76 169.136C103.175 170.648 99.1125 172.216 97.1408 172.807C96.7071 172.937 96.2221 173.102 95.685 173.285C93.8636 173.903 91.4434 174.726 88.3968 175.088C84.4352 175.558 79.4009 175.258 73.1051 172.8C70.5638 171.953 65.4812 170.064 63.1179 168.882C62.4681 168.557 61.8972 167.942 61.4046 167.214C60.9075 166.479 60.4665 165.592 60.0892 164.677C59.3352 162.848 58.817 160.857 58.6172 159.625L58.5962 159.496L62.2644 152.591ZM62.3736 154.048L59.4087 159.629C59.6135 160.812 60.1054 162.669 60.8104 164.38C61.1756 165.266 61.5934 166.1 62.0508 166.777C62.5125 167.46 62.9917 167.947 63.4668 168.185C65.7808 169.342 70.829 171.219 73.3611 172.064L73.3705 172.067L73.3797 172.07C79.56 174.484 84.4682 174.769 88.3049 174.313C91.2601 173.962 93.572 173.177 95.3894 172.56C95.943 172.372 96.4506 172.2 96.9166 172.06C98.8451 171.481 102.875 169.929 106.457 168.418C108.246 167.663 109.914 166.923 111.145 166.324C111.762 166.024 112.262 165.763 112.61 165.556C112.785 165.451 112.912 165.366 112.994 165.302C113.012 165.288 113.026 165.276 113.036 165.267C113.037 165.255 113.038 165.24 113.039 165.223C113.041 165.159 113.041 165.074 113.038 164.968C113.033 164.758 113.015 164.481 112.989 164.151C112.936 163.493 112.846 162.64 112.739 161.714C112.547 160.054 112.301 158.169 112.111 156.766C108.979 157.806 104.303 159.314 99.9104 160.638C95.3202 162.023 90.994 163.221 89.0818 163.46C86.6863 163.76 82.5954 163.46 78.7417 162.923C74.8932 162.387 71.1867 161.602 69.5713 160.895C68.2456 160.315 66.7042 158.947 65.3409 157.522C64.1781 156.306 63.1124 155.014 62.3736 154.048Z" fill="black"/>
<path d="M73.6184 130.474C73.6816 130.084 73.7495 129.704 73.8225 129.336C73.9211 129.435 73.8422 129.834 73.6184 130.474C72.1628 139.467 73.2375 154.118 73.2375 158.978C73.2375 164.048 66.8023 179.258 66.8023 179.258C65.0472 178.803 61.225 177.308 59.977 174.968C58.4169 172.043 56.2718 164.438 56.8569 162.488C57.7019 161.578 59.158 159.836 59.002 159.368C63.6018 150.906 72.0713 134.904 73.6184 130.474Z" fill="#160E1B" fill-opacity="0.4"/>
<path d="M85.7177 121.146C81.5954 119.628 77.6574 113.801 76.9424 110.226C78.5024 113.736 83.4325 118.639 90.7879 118.416C97.2232 118.221 99.5633 113.541 99.5633 111.201C100.733 111.786 98.7958 118.387 96.8332 120.171C94.6881 122.121 89.4229 122.511 85.7177 121.146Z" fill="#160E1B" fill-opacity="0.4"/>
<path d="M66.8024 144.742L62.5122 153.128C63.9423 155.208 66.8024 158.978 69.9225 160.733C77.3328 162.683 82.793 163.073 87.8632 163.073C92.9334 163.073 112.434 156.443 112.434 155.858C112.434 155.273 110.484 144.742 110.484 144.742C110.484 144.742 96.6386 148.188 90.3983 149.228C84.9381 150.138 74.7977 149.423 73.4326 149.228C72.3406 149.072 68.5574 146.172 66.8024 144.742Z" fill="#008126" fill-opacity="0.8"/>
<path fill-rule="evenodd" clip-rule="evenodd" d="M66.6748 144.135L67.0487 144.44C67.9217 145.151 69.2991 146.228 70.5917 147.144C71.2385 147.603 71.8587 148.018 72.381 148.326C72.6422 148.48 72.8739 148.604 73.0688 148.694C73.2701 148.786 73.4077 148.83 73.4878 148.841C74.1473 148.935 77.0054 149.162 80.3901 149.252C83.7758 149.341 87.6438 149.291 90.3342 148.842C93.4401 148.325 98.4499 147.206 102.693 146.215C104.812 145.719 106.736 145.257 108.131 144.918C108.828 144.748 109.393 144.61 109.784 144.513C109.979 144.465 110.131 144.428 110.233 144.402L110.39 144.364C110.39 144.364 110.39 144.364 110.484 144.742C110.868 144.671 110.868 144.671 110.868 144.671L110.951 145.125C111.005 145.414 111.081 145.828 111.172 146.326C111.355 147.323 111.599 148.658 111.843 150.011C112.087 151.364 112.331 152.737 112.514 153.808C112.605 154.344 112.682 154.805 112.736 155.152C112.763 155.325 112.784 155.472 112.799 155.586C112.813 155.689 112.824 155.791 112.824 155.857C112.824 155.996 112.757 156.092 112.728 156.129C112.692 156.175 112.652 156.21 112.622 156.234C112.56 156.284 112.483 156.331 112.405 156.375C112.244 156.465 112.018 156.573 111.743 156.693C111.189 156.935 110.399 157.245 109.443 157.598C107.528 158.304 104.926 159.19 102.167 160.057C99.4078 160.923 96.4868 161.773 93.9354 162.406C91.3981 163.036 89.1849 163.463 87.8632 163.463C82.7664 163.463 77.272 163.07 69.8232 161.11L69.7749 161.097L69.7313 161.073C66.5239 159.268 63.6196 155.427 62.1908 153.348L62.0591 153.157L66.6748 144.135ZM110.484 144.742L110.868 144.671L110.792 144.263L110.39 144.364L110.484 144.742ZM110.176 145.22C110.114 145.235 110.045 145.252 109.97 145.271C109.579 145.367 109.014 145.506 108.315 145.676C106.919 146.015 104.992 146.478 102.87 146.974C98.6299 147.965 93.5967 149.09 90.4624 149.612C87.6926 150.074 83.7603 150.121 80.3695 150.031C76.9777 149.942 74.083 149.714 73.3775 149.613C73.1845 149.586 72.9651 149.504 72.7435 149.403C72.5157 149.298 72.2589 149.159 71.9846 148.998C71.4355 148.674 70.7954 148.245 70.1405 147.781C69.0029 146.974 67.8043 146.048 66.9308 145.347L62.9656 153.097C64.4263 155.197 67.1448 158.703 70.0705 160.368C77.4176 162.297 82.8308 162.683 87.8632 162.683C89.0766 162.683 91.2023 162.281 93.7475 161.649C96.2784 161.021 99.1832 160.176 101.933 159.312C104.683 158.449 107.273 157.567 109.173 156.866C110.124 156.515 110.897 156.211 111.43 155.978C111.698 155.861 111.896 155.766 112.023 155.695C112.024 155.694 112.025 155.693 112.026 155.693C112.026 155.691 112.026 155.689 112.026 155.687C112.012 155.582 111.991 155.442 111.965 155.272C111.912 154.931 111.836 154.474 111.745 153.94C111.563 152.872 111.319 151.502 111.075 150.15C110.832 148.797 110.588 147.463 110.405 146.467C110.314 145.969 110.238 145.555 110.184 145.266L110.176 145.22Z" fill="black"/>
<path d="M71.6774 134.797L66.8022 144.742C68.8173 146.302 72.2625 149.033 73.4325 149.228C75.7408 149.612 82.7929 149.813 89.4231 149.423C94.6001 149.118 105.609 146.042 110.484 144.742C110.016 141.778 108.339 136.487 107.559 134.407C105.414 137.137 78.5027 137.917 76.5526 137.527C74.9926 137.215 72.6525 135.577 71.6774 134.797Z" fill="#FFED00" fill-opacity="0.8"/>
<path fill-rule="evenodd" clip-rule="evenodd" d="M107.68 133.621L107.924 134.27C108.707 136.359 110.395 141.679 110.869 144.681L110.924 145.029L110.584 145.119C110.126 145.241 109.613 145.379 109.055 145.53C106.651 146.176 103.417 147.047 100.158 147.835C96.1527 148.803 92.0741 149.657 89.446 149.812C82.8084 150.202 75.7209 150.004 73.3683 149.612C72.9955 149.55 72.5038 149.305 71.9873 148.999C71.4543 148.683 70.8406 148.267 70.2071 147.814C69.1228 147.037 67.961 146.135 67.0193 145.404C66.8606 145.281 66.7082 145.163 66.5634 145.051L66.312 144.856L71.5412 134.188L71.921 134.492C72.3969 134.873 73.2118 135.467 74.0975 136.004C74.9935 136.546 75.9196 137.003 76.629 137.144C76.8292 137.185 77.4215 137.216 78.3612 137.227C79.2822 137.237 80.4972 137.228 81.9099 137.198C84.735 137.137 88.3428 136.991 91.9563 136.748C95.5716 136.504 99.1842 136.164 102.022 135.716C103.443 135.491 104.658 135.242 105.579 134.967C106.04 134.83 106.417 134.689 106.706 134.546C107.002 134.4 107.171 134.269 107.252 134.166L107.68 133.621ZM78.3522 138.007C77.4387 137.996 76.7634 137.967 76.476 137.909C75.6254 137.739 74.6014 137.221 73.6936 136.671C72.9807 136.239 72.3133 135.772 71.8168 135.398L67.2922 144.629C67.3602 144.681 67.4295 144.735 67.5 144.79C68.4425 145.522 69.5904 146.413 70.6612 147.18C71.2872 147.628 71.8801 148.029 72.3851 148.328C72.9066 148.637 73.2843 148.807 73.4965 148.843C75.7604 149.22 82.7771 149.423 89.4001 149.033C91.9489 148.883 95.9632 148.047 99.9749 147.077C103.222 146.291 106.444 145.424 108.848 144.777C109.272 144.663 109.671 144.556 110.04 144.457C109.552 141.712 108.179 137.296 107.383 135.062C107.279 135.127 107.168 135.188 107.051 135.246C106.709 135.415 106.286 135.57 105.802 135.714C104.833 136.003 103.579 136.26 102.144 136.486C99.2723 136.94 95.6331 137.282 92.0087 137.526C88.3826 137.77 84.7629 137.917 81.9267 137.978C80.5087 138.008 79.2846 138.018 78.3522 138.007Z" fill="black"/>
<path d="M104.829 120.171C104.829 116.115 101.709 112.371 99.9536 111.006C103.074 109.836 107.126 110.364 109.314 112.761C113.409 117.246 116.529 124.462 116.529 126.802C111.849 131.794 109.769 136.552 109.314 138.307L107.559 134.212C106.649 131.222 104.829 124.228 104.829 120.171Z" fill="#E50202" fill-opacity="0.8"/>
<path fill-rule="evenodd" clip-rule="evenodd" d="M100.737 111.157C101.567 111.912 102.549 113.031 103.381 114.374C104.403 116.024 105.219 118.046 105.219 120.171C105.219 122.155 105.666 124.884 106.234 127.508C106.797 130.114 107.474 132.589 107.926 134.078L109.263 137.197C110.094 134.957 112.193 130.89 116.135 126.652C116.105 126.127 115.929 125.344 115.607 124.374C115.257 123.317 114.746 122.072 114.106 120.756C112.825 118.121 111.041 115.23 109.026 113.024C107.116 110.932 103.637 110.324 100.737 111.157ZM99.8166 110.64C103.044 109.43 107.279 109.953 109.602 112.498C111.682 114.776 113.505 117.736 114.808 120.415C115.46 121.756 115.985 123.033 116.348 124.128C116.707 125.212 116.919 126.151 116.919 126.801V126.955L116.814 127.068C112.172 132.019 110.128 136.721 109.691 138.405L109.405 139.509L107.192 134.345L107.186 134.325C106.728 132.821 106.043 130.314 105.471 127.673C104.902 125.04 104.439 122.243 104.439 120.171C104.439 118.24 103.694 116.361 102.718 114.784C101.741 113.208 100.553 111.966 99.7141 111.313L99.1636 110.885L99.8166 110.64Z" fill="black"/>
<path d="M46.9115 134.017C44.3764 139.867 43.4014 145.717 43.4014 149.422C49.0566 151.372 55.1018 155.467 58.807 159.368C61.9271 153.517 69.0644 140.257 71.8725 134.797C74.5803 129.531 73.9526 125.761 73.2376 124.656C69.8054 116.076 61.0171 115.751 57.0519 116.661C54.7118 120.626 48.8052 129.647 46.9115 134.017Z" fill="#E50202" fill-opacity="0.8"/>
<path fill-rule="evenodd" clip-rule="evenodd" d="M57.3013 117.006C56.659 118.088 55.7708 119.52 54.7812 121.115C53.9464 122.461 53.0396 123.924 52.1474 125.39C50.139 128.691 48.2036 132.016 47.2692 134.172C44.8171 139.831 43.8401 145.485 43.7931 149.147C49.2468 151.086 55.0061 154.95 58.7148 158.712C59.4435 157.347 60.3544 155.646 61.3598 153.768C64.8231 147.299 69.4073 138.738 71.5255 134.619C72.8564 132.031 73.36 129.825 73.449 128.146C73.5389 126.45 73.2055 125.325 72.91 124.869L72.8894 124.837L72.8753 124.801C71.2074 120.632 68.249 118.479 65.2212 117.47C62.2625 116.484 59.2362 116.593 57.3013 117.006ZM73.5861 124.478C71.8193 120.09 68.6753 117.799 65.4678 116.73C62.267 115.664 59.0046 115.813 56.9645 116.281L56.8011 116.319L56.7159 116.463C56.0701 117.557 55.1554 119.032 54.1267 120.691C53.2923 122.036 52.3828 123.502 51.481 124.985C49.4776 128.278 47.5129 131.648 46.5535 133.862C43.998 139.759 43.0112 145.662 43.0112 149.423V149.701L43.2741 149.791C48.8662 151.72 54.859 155.779 58.5241 159.637L58.8965 160.029L59.151 159.552C59.9148 158.119 60.9201 156.242 62.0439 154.143C65.5075 147.674 70.0977 139.101 72.2192 134.975C73.5961 132.298 74.1326 129.986 74.2279 128.187C74.3208 126.436 73.9957 125.138 73.5861 124.478Z" fill="black"/>
<mask id="mask0" mask-type="alpha" maskUnits="userSpaceOnUse" x="20" y="65" width="148" height="198">
<rect x="20" y="65.7644" width="147.426" height="196.958" fill="#C4C4C4"/>
</mask>
<g mask="url(#mask0)">
<path d="M51.786 229.104C51.591 227.544 55.6862 207.263 56.6612 204.728C56.8837 204.149 57.196 202.262 57.5529 199.657C58.8063 200.047 63.8765 199.657 65.8266 195.562C66.9967 192.637 66.2166 189.907 64.0715 185.032C65.8266 186.592 66.9967 186.982 67.9717 189.517C68.4217 190.687 68.7517 192.247 71.0918 192.247C72.0669 191.467 71.4818 190.297 71.0918 188.737C70.3118 186.592 69.7268 185.227 68.5567 183.667C67.9717 182.887 63.4865 181.132 62.3165 177.622C76.552 184.057 89.5697 184.076 90.7876 184.057C103.268 183.862 111.133 175.477 113.604 171.381C113.344 177.102 114.189 188.152 115.164 191.077C116.139 193.417 116.529 208.433 116.724 210.383C116.88 211.943 119.064 220.133 119.454 225.008C119.454 227.934 119.61 230.781 119.454 232.029C119.259 233.589 107.875 239.524 104.633 240.219C101.903 240.804 99.303 241.259 98.1979 241.584C97.9379 241.259 97.6129 239.439 97.2229 238.854C96.4657 237.718 94.1027 224.228 94.1027 220.913V208.433C94.1027 206.405 92.0227 201.738 90.9826 199.657C90.1376 199.982 88.1745 201.023 87.0825 202.583C85.9904 204.143 82.7273 215.453 81.0372 220.913C80.5822 227.349 80.3586 239.404 78.8921 240.219C77.1371 241.194 69.1418 240.804 66.0216 240.219C62.9015 239.634 55.6862 236.709 54.3212 235.344C52.4612 233.484 51.942 230.352 51.786 229.104Z" fill="#F22152"/>
<path fill-rule="evenodd" clip-rule="evenodd" d="M90.7814 183.667C103.083 183.475 110.843 175.203 113.269 171.18L113.993 171.399C113.864 174.237 114.009 178.411 114.309 182.247C114.459 184.163 114.647 185.99 114.858 187.517C115.069 189.043 115.299 190.245 115.529 190.941C115.668 191.28 115.784 191.805 115.887 192.436C115.994 193.085 116.09 193.88 116.179 194.768C116.357 196.544 116.503 198.707 116.625 200.854C116.744 202.95 116.84 205.022 116.917 206.709C117 208.494 117.062 209.848 117.112 210.344C117.148 210.706 117.307 211.484 117.542 212.557C117.629 212.955 117.726 213.39 117.829 213.854C118.001 214.627 118.19 215.48 118.382 216.37C118.996 219.221 119.645 222.511 119.842 224.977L119.844 224.993V225.009C119.844 226.055 119.864 227.089 119.882 228.048C119.889 228.425 119.897 228.791 119.902 229.141C119.921 230.367 119.923 231.42 119.841 232.077C119.816 232.272 119.715 232.452 119.605 232.601C119.49 232.757 119.337 232.92 119.159 233.086C118.803 233.417 118.312 233.792 117.732 234.19C116.571 234.988 115.015 235.906 113.371 236.792C111.725 237.679 109.983 238.539 108.447 239.222C106.921 239.901 105.569 240.418 104.715 240.6C103.67 240.824 102.644 241.029 101.715 241.215C101.428 241.272 101.149 241.328 100.883 241.382C99.7481 241.61 98.8405 241.802 98.3078 241.958L98.0567 242.032L97.8932 241.828C97.8258 241.744 97.7755 241.639 97.7377 241.549C97.6971 241.452 97.6577 241.341 97.6196 241.223C97.5546 241.023 97.4867 240.784 97.4184 240.544C97.4069 240.504 97.3954 240.464 97.384 240.424C97.3026 240.139 97.2199 239.856 97.1345 239.609C97.0464 239.355 96.9662 239.172 96.8982 239.07C96.8233 238.958 96.7567 238.801 96.6963 238.635C96.633 238.461 96.5659 238.246 96.496 237.999C96.356 237.505 96.1998 236.864 96.035 236.122C95.7053 234.639 95.3378 232.736 94.9945 230.768C94.3105 226.847 93.7126 222.611 93.7126 220.913V208.433C93.7126 207.98 93.5944 207.35 93.3857 206.604C93.179 205.865 92.8912 205.039 92.5688 204.205C91.9885 202.705 91.3028 201.198 90.7955 200.16C89.8811 200.576 88.3095 201.51 87.4018 202.806C87.2916 202.964 87.1348 203.276 86.9379 203.745C86.7448 204.205 86.5239 204.789 86.2821 205.468C85.7987 206.826 85.2374 208.551 84.656 210.402C83.9605 212.617 83.2406 214.999 82.5927 217.142C82.1614 218.568 81.762 219.889 81.4229 220.986C81.323 222.408 81.2341 224.103 81.1402 225.893C81.1287 226.111 81.1172 226.33 81.1056 226.551C80.9978 228.598 80.8811 230.738 80.7327 232.703C80.5845 234.666 80.4037 236.466 80.166 237.831C80.0474 238.512 79.9123 239.099 79.7545 239.549C79.6757 239.774 79.5872 239.976 79.4855 240.142C79.3865 240.304 79.2565 240.463 79.0814 240.56C78.8109 240.71 78.449 240.821 78.0423 240.905C77.6297 240.991 77.145 241.055 76.6133 241.101C75.5495 241.194 74.2732 241.219 72.9613 241.194C70.3412 241.145 67.5388 240.9 65.9496 240.602C64.3491 240.302 61.7353 239.412 59.3644 238.435C58.1751 237.944 57.0369 237.428 56.1068 236.946C55.192 236.471 54.4342 236.009 54.0452 235.62C53.0543 234.629 52.4349 233.316 52.0436 232.115C51.651 230.91 51.4783 229.788 51.3989 229.152C51.381 229.009 51.3897 228.801 51.4091 228.568C51.4294 228.324 51.4648 228.018 51.5128 227.66C51.609 226.945 51.7577 226.009 51.9439 224.927C52.3164 222.762 52.8413 219.998 53.4023 217.205C53.9634 214.411 54.5613 211.586 55.0802 209.3C55.5956 207.029 56.0408 205.254 56.297 204.588C56.392 204.341 56.5202 203.764 56.6722 202.886C56.8215 202.023 56.9881 200.905 57.1664 199.605L57.2289 199.148L57.6687 199.285C57.9156 199.362 58.4124 199.413 59.074 199.369C59.7252 199.325 60.5042 199.191 61.3041 198.922C62.9018 198.385 64.5513 197.324 65.469 195.406C66.565 192.654 65.8611 190.068 63.7144 185.189L64.3305 184.74C64.7162 185.083 65.0814 185.373 65.4274 185.648C66.5973 186.576 67.5485 187.331 68.3356 189.377C68.3827 189.5 68.427 189.621 68.4706 189.74C68.6515 190.235 68.8194 190.694 69.1268 191.077C69.459 191.49 69.9744 191.825 70.9471 191.855C71.0718 191.732 71.1441 191.605 71.1856 191.473C71.2392 191.301 71.2492 191.094 71.2166 190.833C71.1838 190.571 71.1113 190.277 71.0174 189.938C70.9902 189.84 70.961 189.737 70.9308 189.631C70.8613 189.386 70.7865 189.123 70.7183 188.851C69.9456 186.728 69.3762 185.41 68.2446 183.901C68.2106 183.856 68.1207 183.773 67.9414 183.644C67.771 183.522 67.5522 183.382 67.291 183.217C67.2328 183.18 67.1728 183.142 67.111 183.103C66.6243 182.797 66.0326 182.424 65.4264 181.983C64.0672 180.995 62.5708 179.618 61.9463 177.745L61.6643 176.899L62.477 177.266C76.6386 183.668 89.5912 183.686 90.7814 183.667ZM91.5434 199.914C92.0535 200.964 92.7244 202.446 93.2963 203.924C93.6239 204.771 93.9211 205.622 94.1369 206.394C94.3508 207.158 94.4926 207.871 94.4926 208.433V220.913C94.4926 222.531 95.0761 226.697 95.7629 230.634C96.105 232.595 96.4702 234.485 96.7965 235.953C96.9597 236.688 97.1123 237.313 97.2465 237.787C97.3137 238.024 97.375 238.219 97.4294 238.369C97.4868 238.526 97.5275 238.608 97.5472 238.638C97.6742 238.828 97.7809 239.092 97.8716 239.354C97.9649 239.623 98.0528 239.925 98.134 240.209C98.1459 240.251 98.1576 240.292 98.1692 240.333C98.238 240.574 98.3013 240.797 98.3615 240.982C98.3781 241.033 98.3939 241.08 98.4089 241.122C98.9846 240.974 99.795 240.805 100.729 240.617C100.998 240.563 101.278 240.507 101.567 240.449C102.494 240.264 103.513 240.06 104.551 239.838C105.318 239.673 106.605 239.188 108.13 238.509C109.646 237.835 111.371 236.984 113.001 236.105C114.632 235.226 116.161 234.323 117.291 233.548C117.856 233.159 118.312 232.809 118.628 232.515C118.786 232.367 118.901 232.242 118.976 232.14C119.056 232.03 119.067 231.98 119.067 231.98C119.141 231.389 119.142 230.395 119.122 229.154C119.117 228.809 119.11 228.446 119.102 228.071C119.084 227.114 119.064 226.073 119.064 225.024C118.869 222.617 118.233 219.382 117.62 216.535C117.428 215.645 117.24 214.799 117.069 214.029C116.965 213.564 116.868 213.127 116.78 212.724C116.549 211.671 116.377 210.84 116.335 210.422C116.284 209.911 116.22 208.514 116.136 206.693C116.058 205.004 115.963 202.951 115.847 200.898C115.725 198.755 115.579 196.604 115.403 194.845C115.315 193.966 115.22 193.189 115.118 192.562C115.013 191.924 114.906 191.474 114.803 191.227L114.798 191.214L114.793 191.2C114.537 190.432 114.298 189.161 114.085 187.623C113.872 186.077 113.682 184.235 113.531 182.308C113.275 179.032 113.13 175.496 113.173 172.739C110.026 177.143 102.37 184.266 90.7935 184.447C89.5745 184.466 77.0201 184.447 63.0732 178.384C63.7334 179.598 64.8123 180.572 65.8852 181.353C66.4689 181.777 67.0382 182.136 67.5261 182.443C67.5879 182.482 67.6484 182.52 67.7075 182.557C67.9673 182.721 68.2041 182.873 68.3955 183.01C68.578 183.141 68.7562 183.283 68.8686 183.433C70.0736 185.04 70.6743 186.448 71.4582 188.604L71.4651 188.623L71.47 188.642C71.5364 188.908 71.6075 189.158 71.6773 189.404C71.7083 189.513 71.7392 189.621 71.7692 189.73C71.8642 190.073 71.9502 190.413 71.9906 190.736C72.0311 191.06 72.0288 191.39 71.9301 191.705C71.8292 192.028 71.6355 192.312 71.3353 192.552L71.2285 192.637H71.0917C69.8185 192.637 69.0331 192.205 68.5189 191.565C68.1223 191.072 67.9009 190.461 67.7194 189.96C67.6807 189.853 67.6439 189.752 67.6075 189.657C66.915 187.857 66.1591 187.232 65.067 186.363C66.7275 190.354 67.2943 192.943 66.1886 195.707L66.1839 195.719L66.1786 195.73C65.145 197.9 63.2878 199.078 61.5526 199.662C60.6845 199.953 59.8391 200.099 59.1262 200.147C58.6554 200.179 58.2276 200.168 57.8822 200.123C57.7247 201.253 57.5762 202.236 57.4408 203.019C57.2917 203.88 57.1526 204.536 57.0251 204.868C56.7938 205.469 56.3615 207.179 55.8409 209.473C55.3238 211.751 54.7273 214.569 54.1671 217.358C53.6069 220.147 53.0835 222.904 52.7126 225.059C52.5271 226.138 52.3802 227.062 52.2859 227.764C52.2387 228.116 52.2052 228.407 52.1864 228.633C52.1668 228.87 52.1663 229.003 52.1729 229.055C52.2494 229.668 52.4144 230.735 52.7853 231.874C53.1576 233.016 53.7277 234.199 54.5968 235.068C54.8903 235.362 55.5463 235.776 56.4658 236.253C57.3701 236.722 58.4866 237.229 59.6618 237.713C62.0198 238.686 64.5737 239.551 66.0933 239.836C67.6243 240.123 70.3796 240.366 72.9759 240.414C74.2723 240.438 75.5188 240.414 76.5453 240.324C77.0587 240.279 77.511 240.219 77.8838 240.141C78.2624 240.063 78.5342 239.972 78.7026 239.878C78.7107 239.874 78.7544 239.843 78.82 239.735C78.8828 239.633 78.95 239.486 79.0185 239.291C79.1554 238.9 79.2819 238.361 79.3976 237.697C79.6285 236.371 79.807 234.602 79.9549 232.645C80.1026 230.689 80.2188 228.558 80.3267 226.51C80.3383 226.289 80.3498 226.07 80.3612 225.852C80.456 224.045 80.5462 222.325 80.648 220.886L80.6512 220.841L80.6645 220.798C81.0026 219.706 81.4056 218.373 81.8423 216.928C82.4922 214.778 83.2166 212.383 83.9118 210.169C84.494 208.315 85.0589 206.578 85.5473 205.206C85.7914 204.521 86.0177 203.922 86.2187 203.443C86.4159 202.974 86.6 202.592 86.7628 202.359C87.9184 200.708 89.9639 199.631 90.8424 199.293L90.8647 199.285L90.8879 199.279C91.4054 199.15 92.6187 198.817 93.3727 198.515L93.6624 199.24C93.043 199.487 92.1574 199.747 91.5434 199.914Z" fill="black"/>
<path d="M95.0775 189.322C95.7015 187.606 95.3375 184.967 95.0775 183.862C94.4924 183.862 90.5923 184.252 90.5923 184.252C90.5923 184.252 90.9173 188.022 90.7873 189.712L95.0775 189.322Z" fill="#E95F80"/>
<path fill-rule="evenodd" clip-rule="evenodd" d="M90.5925 184.252L90.2039 184.285L90.2075 184.327C90.2098 184.355 90.2132 184.396 90.2175 184.449C90.2261 184.554 90.2382 184.708 90.2523 184.897C90.2807 185.275 90.317 185.796 90.3494 186.37C90.4145 187.527 90.4614 188.867 90.3987 189.682L90.3633 190.142L95.3596 189.688L95.4442 189.455C95.7823 188.526 95.8452 187.376 95.7988 186.345C95.7522 185.307 95.5925 184.347 95.4573 183.773L95.3866 183.472H95.0777C94.7618 183.472 93.6147 183.572 92.5796 183.669C92.0547 183.717 91.5483 183.766 91.1732 183.803C90.9856 183.821 90.8308 183.836 90.7228 183.847L90.5539 183.864C90.5539 183.864 90.5537 183.864 90.5925 184.252ZM91.0122 184.602C91.0177 184.673 91.0237 184.752 91.0302 184.838C91.0588 185.22 91.0955 185.746 91.1282 186.326C91.1826 187.292 91.227 188.426 91.2001 189.283L94.7873 188.957C95.0089 188.206 95.06 187.279 95.0196 186.38C94.9831 185.568 94.8733 184.806 94.766 184.266C94.3001 184.296 93.4658 184.37 92.6518 184.445C92.1285 184.494 91.6233 184.543 91.2489 184.579C91.1626 184.588 91.0832 184.595 91.0122 184.602ZM90.5925 184.252L90.5539 183.864L90.1709 183.902L90.2039 184.285L90.5925 184.252Z" fill="black"/>
<path d="M113.603 177.622C113.993 180.547 96.8327 189.322 95.0776 189.322C95.4677 187.957 95.5457 185.071 95.0776 183.667C99.5628 183.082 108.533 179.182 113.603 171.576V177.622Z" fill="#991635"/>
<path fill-rule="evenodd" clip-rule="evenodd" d="M113.993 170.288V177.599C114.023 177.871 113.952 178.144 113.833 178.4C113.709 178.666 113.521 178.939 113.29 179.215C112.83 179.765 112.16 180.367 111.36 180.991C109.758 182.242 107.576 183.624 105.339 184.907C103.1 186.192 100.793 187.385 98.9334 188.258C98.0041 188.695 97.1822 189.053 96.5341 189.303C96.2104 189.428 95.9252 189.528 95.6889 189.597C95.4636 189.663 95.2475 189.712 95.0777 189.712C94.9553 189.712 94.8401 189.655 94.7664 189.557C94.6927 189.459 94.6691 189.333 94.7027 189.215C94.8841 188.58 94.9999 187.556 95.0095 186.506C95.0191 185.451 94.9211 184.43 94.7077 183.79L94.5581 183.341L95.0273 183.28C97.2075 182.996 100.522 181.896 103.925 179.917C107.324 177.94 110.785 175.102 113.279 171.36L113.993 170.288ZM95.57 183.988C95.7338 184.71 95.7976 185.626 95.7895 186.513C95.7821 187.323 95.7142 188.143 95.5933 188.811C95.7786 188.752 95.9995 188.673 96.2532 188.576C96.878 188.334 97.6817 187.984 98.6019 187.552C100.441 186.689 102.729 185.505 104.951 184.231C107.175 182.955 109.32 181.594 110.88 180.376C111.662 179.766 112.283 179.203 112.692 178.714C112.897 178.469 113.04 178.254 113.125 178.071C113.212 177.885 113.228 177.757 113.217 177.673L113.213 177.648V172.807C110.716 176.171 107.481 178.751 104.317 180.591C101.062 182.485 97.8571 183.608 95.57 183.988Z" fill="black"/>
<path d="M70.3115 186.592C73.8997 189.244 85.4571 189.777 90.7874 189.712V184.252C81.739 184.72 68.1665 180.157 62.5112 177.817C63.2913 180.352 67.9714 182.887 68.7515 183.667C69.3755 184.291 70.0515 185.877 70.3115 186.592Z" fill="#991635"/>
<path fill-rule="evenodd" clip-rule="evenodd" d="M61.8945 177.14L62.6601 177.456C65.4726 178.62 70.2629 180.34 75.4757 181.71C80.6958 183.082 86.3041 184.093 90.7669 183.863L91.1771 183.841V190.098L90.7918 190.102C88.1143 190.135 83.8756 190.018 79.8517 189.559C77.8399 189.329 75.8736 189.014 74.1793 188.586C72.4949 188.161 71.0392 187.615 70.0794 186.906L69.9849 186.836L69.9447 186.725C69.819 186.38 69.5905 185.818 69.3183 185.269C69.0401 184.707 68.7385 184.206 68.4754 183.943C68.3124 183.78 67.914 183.501 67.3352 183.101C67.3164 183.088 67.2974 183.075 67.2783 183.062C66.7294 182.683 66.0619 182.223 65.3935 181.709C64.7025 181.179 64.0008 180.585 63.419 179.955C62.8409 179.33 62.3579 178.646 62.1382 177.932L61.8945 177.14ZM63.302 178.558C63.4891 178.844 63.7221 179.134 63.9917 179.426C64.5313 180.009 65.1946 180.573 65.8686 181.091C66.5209 181.592 67.1742 182.042 67.7253 182.423C67.7431 182.435 67.7608 182.447 67.7783 182.459L67.7853 182.464C68.3249 182.837 68.8009 183.165 69.027 183.391C69.3879 183.752 69.7364 184.356 70.0172 184.922C70.2761 185.445 70.4965 185.975 70.6357 186.345C71.4744 186.932 72.772 187.426 74.3702 187.83C76.0187 188.246 77.9477 188.556 79.9401 188.784C83.7367 189.217 87.7337 189.343 90.3971 189.326V184.659C85.8845 184.817 80.3643 183.802 75.2775 182.465C70.569 181.227 66.2031 179.707 63.302 178.558Z" fill="black"/>
<path d="M107.363 189.712C106.583 188.308 106.323 185.292 106.388 183.862C107.558 183.407 110.678 181.327 113.603 178.792C113.603 180.976 114.643 188.282 115.163 191.663C112.043 195.758 108.338 191.468 107.363 189.712Z" fill="#E95F80"/>
<path fill-rule="evenodd" clip-rule="evenodd" d="M113.993 177.938V178.792C113.993 179.854 114.249 182.199 114.575 184.729C114.899 187.247 115.289 189.915 115.549 191.603L115.574 191.767L115.473 191.899C114.65 192.979 113.755 193.548 112.835 193.716C111.921 193.883 111.043 193.642 110.273 193.224C108.747 192.397 107.531 190.818 107.022 189.902C106.595 189.133 106.328 187.967 106.172 186.851C106.015 185.723 105.964 184.587 105.998 183.844L106.01 183.591L106.246 183.499C106.784 183.289 107.824 182.68 109.115 181.786C110.396 180.9 111.896 179.755 113.348 178.497L113.993 177.938ZM106.77 184.123C106.758 184.808 106.81 185.775 106.945 186.743C107.098 187.843 107.351 188.887 107.704 189.523C108.17 190.362 109.294 191.806 110.645 192.538C111.312 192.9 112.007 193.074 112.695 192.948C113.347 192.829 114.049 192.432 114.752 191.555C114.492 189.857 114.116 187.273 113.801 184.828C113.542 182.818 113.321 180.881 113.243 179.611C111.967 180.681 110.682 181.651 109.559 182.428C108.418 183.217 107.423 183.823 106.77 184.123Z" fill="black"/>
<path d="M66.2163 191.272C66.8403 190.492 66.8013 188.542 66.8013 187.567L64.6562 185.812L66.2163 191.272Z" fill="#E95F80"/>
<path fill-rule="evenodd" clip-rule="evenodd" d="M63.939 184.721L67.1913 187.382V187.567C67.1913 187.618 67.1915 187.672 67.1916 187.729C67.1926 188.207 67.194 188.878 67.131 189.53C67.0957 189.896 67.0392 190.268 66.9472 190.604C66.8563 190.937 66.7238 191.262 66.5209 191.516L66.0489 192.106L63.939 184.721ZM65.3735 186.903L66.2731 190.052C66.308 189.863 66.3346 189.663 66.3546 189.456C66.4128 188.853 66.4125 188.231 66.4116 187.752L65.3735 186.903Z" fill="black"/>
<path d="M56.6608 233.199C55.3243 232.308 52.6956 229.624 51.7856 228.324C51.4735 230.352 53.2156 233.719 53.9307 234.954C55.4907 236.319 59.5303 238.431 63.291 239.634C68.1662 241.194 78.5016 240.999 79.0866 240.219C79.5547 239.595 79.8017 238.009 79.8667 237.294C73.0414 239.049 68.9462 238.074 65.8261 237.294C62.9883 236.585 58.4158 234.369 56.6608 233.199Z" fill="#991635"/>
<path fill-rule="evenodd" clip-rule="evenodd" d="M51.5481 227.304L52.1053 228.1C52.5409 228.722 53.4068 229.7 54.3403 230.64C55.2756 231.582 56.2438 232.452 56.8773 232.874C57.7303 233.443 59.2912 234.28 61.0005 235.065C62.7099 235.85 64.5369 236.57 65.9209 236.916C69.0111 237.688 73.0337 238.648 79.7698 236.916L80.3054 236.779L80.2553 237.329C80.2215 237.701 80.1411 238.294 80.0083 238.877C79.8798 239.442 79.6874 240.068 79.3989 240.453C79.2944 240.592 79.1329 240.671 79.0123 240.72C78.8755 240.775 78.709 240.822 78.5243 240.863C78.1534 240.945 77.6643 241.012 77.0933 241.065C75.9484 241.17 74.4348 241.219 72.7921 241.194C69.5175 241.145 65.6671 240.804 63.1724 240.006C61.2696 239.397 59.3003 238.56 57.6095 237.703C55.9256 236.849 54.4911 235.962 53.6741 235.247L53.6256 235.205L53.5934 235.149C53.2296 234.521 52.6052 233.352 52.1097 232.078C51.6217 230.822 51.2273 229.389 51.4003 228.264L51.5481 227.304ZM52.1827 229.457C52.2787 230.176 52.5235 230.989 52.8367 231.795C53.2986 232.983 53.8807 234.083 54.2359 234.702C54.9889 235.347 56.3315 236.18 57.9621 237.007C59.6213 237.848 61.5522 238.668 63.4101 239.263C65.7906 240.024 69.5455 240.366 72.8037 240.414C74.4273 240.438 75.912 240.39 77.0219 240.288C77.5782 240.237 78.0307 240.173 78.356 240.101C78.5194 240.065 78.6398 240.029 78.721 239.996C78.7589 239.981 78.7802 239.97 78.7903 239.964C78.9638 239.718 79.1232 239.251 79.2477 238.704C79.3178 238.396 79.3724 238.084 79.4123 237.809C72.8263 239.397 68.7971 238.439 65.7318 237.672C64.278 237.309 62.3999 236.566 60.6748 235.774C58.9497 234.981 57.3468 234.125 56.4446 233.523C55.7417 233.055 54.7274 232.137 53.7867 231.189C53.207 230.605 52.6421 229.997 52.1827 229.457Z" fill="black"/>
<path d="M104.438 236.904C102.133 237.711 98.848 238.529 97.418 238.659L98.198 241.584C98.263 241.519 99.858 241.454 105.218 239.829C111.654 237.879 116.984 234.239 119.454 232.224V228.714C115.164 234.174 108.338 235.539 104.438 236.904Z" fill="#991635"/>
<path fill-rule="evenodd" clip-rule="evenodd" d="M119.843 227.586V232.409L119.7 232.526C117.205 234.562 111.83 238.233 105.331 240.203C102.642 241.018 100.892 241.443 99.8025 241.673C99.2573 241.789 98.8787 241.855 98.6326 241.896C98.5945 241.902 98.5604 241.908 98.5299 241.913C98.4759 241.922 98.433 241.929 98.3983 241.935L97.9949 242.339L96.9214 238.313L97.3821 238.271C98.7661 238.145 102.017 237.338 104.309 236.536C104.942 236.315 105.643 236.095 106.391 235.86C110.343 234.621 115.616 232.967 119.147 228.473L119.843 227.586ZM106.569 236.624C105.839 236.853 105.164 237.063 104.567 237.273C102.464 238.008 99.5376 238.76 97.91 238.993L98.4801 241.131C98.4878 241.129 98.4956 241.128 98.5035 241.127C98.7421 241.087 99.1095 241.023 99.6412 240.91C100.705 240.685 102.433 240.266 105.105 239.456C111.354 237.562 116.559 234.054 119.063 232.038V229.784C115.392 233.869 110.272 235.468 106.569 236.624Z" fill="black"/>
<path d="M64.8513 186.007L65.4364 188.347C66.0864 188.824 65.6314 188.737 66.2164 191.857C67.1036 196.589 65.0464 197.513 63.2913 198.878C61.8872 199.97 59.0661 200.113 57.8311 200.048L57.051 203.948L55.101 212.528L51.5908 228.714C51.5908 228.714 54.7109 236.514 54.906 235.929C55.6687 233.641 55.101 220.328 55.101 220.328C55.686 217.208 57.4411 206.288 57.8311 204.923C58.1699 203.737 58.2211 201.413 59.5861 201.023C61.5362 200.243 63.0963 200.243 64.8513 198.683C66.6305 197.101 68.1665 195.367 68.7515 194.392C69.2195 193.612 70.5066 192.897 70.8966 192.637L69.7265 192.442L67.5815 188.932L64.8513 186.007Z" fill="#160E1B" fill-opacity="0.4"/>
<path d="M94.4923 198.098L91.1772 199.853C92.7373 200.789 94.0373 206.548 94.4923 209.408V225.009L96.4425 219.744C96.6375 217.793 95.6234 204.728 95.4674 203.168C95.3114 201.608 95.1424 198.878 94.4923 198.098Z" fill="#160E1B" fill-opacity="0.4"/>
<path d="M47.8857 245.094C46.9106 242.364 51.0058 237.099 53.3458 234.759C53.6059 235.279 53.2288 234.642 54.3208 235.734C55.6859 237.099 63.6812 239.439 64.4612 240.024C65.2413 240.609 75.3817 241.194 76.9417 240.804C78.1898 240.492 80.4519 240.284 81.4269 240.219C82.792 240.934 85.8731 242.832 87.2772 244.704C89.0322 247.045 86.7146 252.344 85.5221 253.09C83.962 254.065 82.402 254.65 80.2569 255.43C77.5755 256.405 74.6017 255.82 68.3614 254.065C65.654 253.303 58.0261 251.92 52.9559 249.97C50.4208 248.605 48.8715 247.855 47.8857 245.094Z" fill="#3CD367"/>
<path fill-rule="evenodd" clip-rule="evenodd" d="M53.4531 234.1L53.6951 234.584C53.7245 234.643 53.7463 234.688 53.7622 234.721C53.8917 234.802 54.1121 234.973 54.597 235.458C54.7286 235.59 54.9647 235.754 55.3069 235.945C55.6431 236.133 56.0583 236.333 56.5292 236.541C57.4708 236.956 58.6129 237.391 59.7447 237.805C60.3115 238.012 60.8961 238.221 61.4469 238.418C61.9676 238.605 62.4579 238.78 62.8744 238.933C63.3158 239.095 63.7036 239.242 64.0073 239.367C64.2941 239.486 64.5519 239.604 64.6956 239.712C64.6933 239.71 64.6937 239.71 64.6975 239.712C64.7081 239.717 64.7458 239.735 64.8284 239.761C64.9283 239.792 65.0638 239.825 65.2346 239.859C65.5753 239.927 66.0302 239.995 66.5682 240.06C67.6426 240.19 69.0237 240.305 70.4329 240.39C71.8417 240.475 73.2728 240.53 74.4466 240.539C75.0338 240.543 75.5532 240.537 75.9716 240.517C76.3993 240.497 76.6938 240.464 76.8475 240.426C78.1335 240.104 80.4277 239.895 81.4014 239.83L81.511 239.823L81.6083 239.873C82.3056 240.239 83.4326 240.901 84.5646 241.71C85.6909 242.515 86.8512 243.486 87.5896 244.47C88.0955 245.145 88.2899 246.007 88.3014 246.892C88.313 247.78 88.1413 248.725 87.8791 249.606C87.6167 250.488 87.259 251.32 86.8868 251.985C86.7008 252.317 86.5082 252.612 86.3185 252.853C86.1328 253.088 85.9335 253.293 85.7292 253.42C84.1293 254.42 82.5318 255.017 80.3905 255.796C77.5691 256.822 74.4643 256.186 68.2562 254.44C67.4504 254.213 66.2098 253.932 64.7208 253.595C63.7247 253.369 62.6174 253.119 61.4548 252.842C58.5736 252.157 55.3774 251.318 52.8163 250.333L52.7931 250.324L52.7714 250.313C52.6776 250.262 52.5848 250.212 52.4932 250.163C51.3609 249.555 50.3891 249.033 49.5876 248.352C48.7034 247.601 48.0325 246.664 47.5187 245.225C47.2339 244.428 47.332 243.49 47.6263 242.541C47.9227 241.585 48.4338 240.567 49.0404 239.576C50.2537 237.596 51.883 235.67 53.0704 234.483L53.4531 234.1ZM48.3713 242.772C48.0988 243.651 48.0506 244.395 48.2533 244.963C48.7254 246.285 49.3221 247.103 50.0927 247.758C50.8281 248.383 51.7273 248.866 52.8859 249.489C52.9626 249.53 53.0403 249.572 53.1193 249.614C55.6246 250.575 58.767 251.401 61.6353 252.083C62.7689 252.353 63.8637 252.601 64.8572 252.826C66.3684 253.169 67.6452 253.458 68.4674 253.689C74.7397 255.453 77.5827 255.987 80.124 255.063C82.2729 254.282 83.7955 253.709 85.3158 252.759C85.4096 252.7 85.5435 252.576 85.7059 252.37C85.8644 252.169 86.0348 251.909 86.2063 251.603C86.5493 250.991 86.8849 250.212 87.1315 249.384C87.3785 248.554 87.5317 247.689 87.5214 246.902C87.5112 246.112 87.3371 245.434 86.9655 244.938C86.2998 244.051 85.2175 243.136 84.111 242.345C83.0619 241.595 82.017 240.975 81.3432 240.616C80.3179 240.688 78.2034 240.891 77.0367 241.182C76.8004 241.241 76.4368 241.276 76.0083 241.296C75.5705 241.317 75.0356 241.324 74.4406 241.319C73.2499 241.31 71.8047 241.255 70.3859 241.169C68.9675 241.083 67.5697 240.967 66.4746 240.835C65.9279 240.769 65.4504 240.698 65.0811 240.624C64.8969 240.587 64.7331 240.548 64.598 240.506C64.475 240.468 64.3339 240.416 64.2276 240.336C64.1763 240.298 64.0136 240.214 63.7086 240.088C63.4204 239.968 63.0449 239.826 62.6058 239.665C62.167 239.504 61.6915 239.334 61.1851 239.153C60.648 238.961 60.0763 238.757 59.4769 238.538C58.3418 238.123 57.1803 237.68 56.2145 237.255C55.7317 237.042 55.2923 236.831 54.9268 236.627C54.5675 236.426 54.2551 236.219 54.0454 236.01C53.5077 235.472 53.3582 235.387 53.3302 235.372L53.3298 235.371L53.3201 235.366C53.3168 235.364 53.3112 235.361 53.3057 235.358C52.1909 236.521 50.7768 238.235 49.7056 239.984C49.1177 240.944 48.6416 241.9 48.3713 242.772Z" fill="black"/>
<path d="M70.1167 235.734C69.5317 236.904 69.5317 239.634 71.6768 242.559C72.6128 241.779 78.697 240.414 81.2321 240.219C81.4271 238.789 81.1151 235.695 80.6471 233.979C80.0621 231.834 70.7018 234.564 70.1167 235.734Z" fill="#196B31"/>
<path fill-rule="evenodd" clip-rule="evenodd" d="M70.4887 235.878C70.4709 235.898 70.4654 235.909 70.4653 235.909C70.4653 235.909 70.4654 235.908 70.4654 235.908C69.9829 236.874 69.9078 239.304 71.7815 242.033C71.8798 241.982 71.9865 241.932 72.0977 241.885C72.3737 241.766 72.7104 241.643 73.0877 241.521C73.8428 241.276 74.7813 241.023 75.7647 240.79C77.5714 240.362 79.5605 239.993 80.8772 239.859C80.9279 239.188 80.8956 238.24 80.7999 237.244C80.689 236.089 80.4968 234.911 80.2707 234.081C80.2404 233.97 80.1486 233.852 79.9026 233.751C79.6517 233.648 79.2892 233.587 78.826 233.573C77.9041 233.547 76.6972 233.716 75.4676 233.994C74.2422 234.27 73.0189 234.648 72.0712 235.027C71.5964 235.216 71.1998 235.402 70.9094 235.572C70.7641 235.656 70.6528 235.732 70.574 235.798C70.535 235.83 70.5073 235.857 70.4887 235.878ZM80.1985 233.03C80.5785 233.185 80.9073 233.451 81.0232 233.876C81.2651 234.763 81.463 235.989 81.5763 237.169C81.6892 238.343 81.7222 239.511 81.6184 240.272L81.5759 240.584L81.2619 240.608C80.0242 240.703 77.8922 241.088 75.9446 241.549C74.9731 241.779 74.0566 242.027 73.3285 242.263C72.9641 242.381 72.6521 242.495 72.4063 242.601C72.1517 242.711 71.9979 242.799 71.9263 242.859L71.6075 243.125L71.3621 242.79C69.1602 239.787 69.0976 236.9 69.7678 235.56C69.8396 235.416 69.9581 235.295 70.0757 235.198C70.1985 235.096 70.349 234.995 70.5167 234.898C70.8525 234.702 71.2876 234.5 71.7818 234.302C72.772 233.907 74.0351 233.517 75.296 233.233C76.5527 232.949 77.8321 232.765 78.8481 232.794C79.3538 232.808 79.8231 232.876 80.1985 233.03Z" fill="black"/>
<path d="M49.695 239.329C49.7473 239.209 49.8045 239.115 49.8574 239.049C49.8071 239.134 49.7527 239.228 49.695 239.329C49.4902 239.798 49.3604 240.661 49.8574 241.779C50.6375 243.534 52.0025 244.899 52.0025 246.069C52.0025 247.239 53.3461 247.824 54.3212 249.384C55.1012 250.632 54.7112 250.554 54.1262 250.359C52.7611 249.579 50.7935 249.111 49.8574 248.019C48.6874 246.654 47.5173 245.094 47.7123 243.729C47.8563 242.721 49.0073 240.53 49.695 239.329Z" fill="#196B31"/>
<path fill-rule="evenodd" clip-rule="evenodd" d="M49.3465 239.153C49.4077 239.016 49.4783 238.899 49.5528 238.805L50.1935 239.247C50.1473 239.325 50.0974 239.411 50.0445 239.503C49.8886 239.875 49.767 240.616 50.2137 241.621C50.514 242.296 50.9019 242.908 51.2761 243.497C51.37 243.645 51.4631 243.792 51.5538 243.938C51.9833 244.63 52.3924 245.356 52.3924 246.069C52.3924 246.488 52.6235 246.827 53.0804 247.314C53.1594 247.398 53.2443 247.485 53.3335 247.578C53.7383 247.995 54.2307 248.504 54.6518 249.178C54.8506 249.496 54.9881 249.75 55.0656 249.95C55.1043 250.05 55.1351 250.154 55.1448 250.257C55.1543 250.358 55.1463 250.497 55.0622 250.626C54.9723 250.764 54.839 250.825 54.73 250.848C54.6289 250.869 54.5314 250.862 54.4579 250.851C54.3112 250.83 54.1449 250.777 54.0028 250.73L53.9661 250.717L53.9326 250.698C53.4773 250.438 52.9628 250.219 52.4208 249.988C52.1754 249.883 51.9244 249.776 51.6707 249.662C50.8892 249.31 50.0907 248.891 49.5612 248.273C48.9735 247.588 48.3676 246.833 47.9336 246.067C47.5028 245.306 47.2106 244.483 47.3262 243.674C47.4077 243.103 47.7582 242.253 48.1474 241.434C48.5408 240.607 49.0004 239.758 49.3465 239.153ZM49.2072 241.05C49.0859 241.287 48.9659 241.529 48.8519 241.769C48.4577 242.598 48.1608 243.348 48.0983 243.784C48.0189 244.341 48.2142 244.98 48.6122 245.682C49.007 246.379 49.5711 247.086 50.1535 247.766C50.56 248.24 51.2134 248.601 51.991 248.951C52.2106 249.05 52.4419 249.148 52.677 249.249C53.1973 249.47 53.7359 249.7 54.2065 249.958C54.1511 249.856 54.0801 249.735 53.9904 249.591C53.6172 248.994 53.1929 248.555 52.7911 248.139C52.6965 248.041 52.603 247.945 52.5118 247.848C52.0532 247.359 51.6124 246.821 51.6124 246.069C51.6124 245.613 51.339 245.071 50.891 244.349C50.8086 244.217 50.7212 244.079 50.6309 243.937C50.2543 243.344 49.8271 242.671 49.5009 241.938C49.362 241.625 49.2671 241.328 49.2072 241.05Z" fill="black"/>
<path d="M72.0669 252.115C69.4148 252.427 57.2462 246.785 51.396 244.314C51.396 244.574 51.318 246.109 51.786 247.045C52.3711 248.215 53.1511 248.8 52.7611 249.775C54.7112 250.75 65.4366 253.48 71.6768 255.04C77.9171 256.6 78.8921 255.625 80.0622 255.43C81.2322 255.235 84.5474 253.675 85.3274 253.285C85.9514 252.973 87.1475 249.775 87.6675 248.215C85.5224 252.7 75.382 251.725 72.0669 252.115Z" fill="#8DDAA3"/>
<path fill-rule="evenodd" clip-rule="evenodd" d="M51.0058 243.726L51.5476 243.955C52.6574 244.423 53.9862 245.002 55.4312 245.632C57.8173 246.672 60.5203 247.85 63.0783 248.897C65.128 249.736 67.0701 250.485 68.6617 251.004C69.4578 251.264 70.1596 251.464 70.7394 251.589C71.3295 251.716 71.757 251.758 72.0212 251.727C72.7427 251.642 73.7729 251.62 74.9424 251.596C75.1547 251.591 75.3717 251.586 75.5922 251.581C77.0413 251.548 78.6717 251.493 80.2618 251.313C81.8547 251.131 83.3854 250.826 84.6405 250.301C85.8959 249.776 86.836 249.049 87.3155 248.046L88.0374 248.338C87.7752 249.124 87.3424 250.324 86.8949 251.371C86.6716 251.893 86.4408 252.386 86.2226 252.772C86.1137 252.965 86.0032 253.139 85.8937 253.28C85.7917 253.412 85.6607 253.554 85.5017 253.633C85.1051 253.832 84.0747 254.322 82.9955 254.788C82.4558 255.021 81.9003 255.25 81.4036 255.433C80.9141 255.613 80.4578 255.759 80.1262 255.814C79.9486 255.844 79.7877 255.89 79.5863 255.949C79.4829 255.979 79.3689 256.012 79.2365 256.047C78.8642 256.147 78.4116 256.243 77.795 256.282C76.5689 256.359 74.7215 256.203 71.5821 255.418C68.4616 254.638 64.2173 253.565 60.5085 252.564C58.6543 252.064 56.9314 251.581 55.5486 251.162C54.1783 250.747 53.1091 250.384 52.5865 250.123L52.2656 249.963L52.3988 249.629C52.5364 249.286 52.4824 249.02 52.2944 248.665C52.2087 248.503 52.1024 248.337 51.9768 248.14C51.9554 248.106 51.9334 248.072 51.9109 248.037C51.7601 247.8 51.5927 247.53 51.4371 247.219C51.1679 246.68 51.0664 246 51.0264 245.454C50.9929 244.996 51.0008 244.59 51.0045 244.401C51.0053 244.363 51.0058 244.333 51.0058 244.314V243.726ZM51.7825 244.902C51.785 245.051 51.7913 245.218 51.8044 245.397C51.8424 245.917 51.9359 246.472 52.1348 246.87C52.2717 247.144 52.4212 247.386 52.569 247.618C52.5896 247.65 52.6104 247.683 52.6312 247.715C52.7557 247.91 52.8818 248.107 52.9838 248.3C53.1849 248.68 53.3155 249.086 53.229 249.558C53.7576 249.777 54.6374 250.071 55.7748 250.416C57.1465 250.831 58.8606 251.312 60.7116 251.811C64.4131 252.809 68.6516 253.881 71.7713 254.661C74.8722 255.436 76.6324 255.573 77.7464 255.503C78.2999 255.469 78.7004 255.383 79.0351 255.293C79.1283 255.269 79.2227 255.241 79.3176 255.214C79.5448 255.148 79.7748 255.082 79.9979 255.045C80.2513 255.003 80.6482 254.88 81.1337 254.701C81.6121 254.525 82.1535 254.302 82.6863 254.072C83.7522 253.612 84.7694 253.127 85.1528 252.936C85.1525 252.936 85.1527 252.936 85.1535 252.935C85.1599 252.93 85.2022 252.899 85.2776 252.802C85.3549 252.702 85.4444 252.563 85.5435 252.388C85.7413 252.038 85.959 251.575 86.1777 251.064C86.3095 250.756 86.4403 250.433 86.5658 250.112C86.0846 250.474 85.5342 250.773 84.9415 251.021C83.5884 251.587 81.9745 251.903 80.3499 252.088C78.7223 252.272 77.0619 252.328 75.6103 252.361C75.3842 252.366 75.1639 252.371 74.9498 252.376C73.7761 252.401 72.7931 252.422 72.1123 252.502C71.7135 252.549 71.1805 252.482 70.5746 252.351C69.9586 252.218 69.2289 252.009 68.4198 251.745C66.801 251.217 64.8382 250.46 62.7828 249.618C60.2216 248.57 57.4945 247.382 55.0994 246.338C53.8872 245.81 52.7601 245.319 51.7825 244.902Z" fill="black"/>
<path d="M77.5269 247.434C74.7188 248.058 73.8868 250.685 73.8218 251.92C76.0319 252.05 79.9521 251.86 82.4021 251.335C85.1322 250.75 86.6273 249.775 87.4723 248.995C87.7323 248.475 88.0963 247.122 87.4723 245.874C86.6923 244.314 81.0371 246.654 77.5269 247.434Z" fill="#F7F3F8"/>
<path fill-rule="evenodd" clip-rule="evenodd" d="M80.5623 247.016C79.5281 247.32 78.5041 247.617 77.6117 247.815C75.3142 248.326 74.4504 250.313 74.2538 251.55C76.4867 251.635 80.0558 251.438 82.3206 250.953C84.9275 250.395 86.3528 249.479 87.1532 248.758C87.3774 248.261 87.65 247.101 87.1237 246.049C87.0824 245.966 87.0024 245.888 86.8348 245.829C86.6603 245.767 86.4138 245.734 86.0899 245.74C85.4421 245.752 84.5885 245.913 83.6182 246.155C82.7436 246.374 81.7987 246.652 80.8558 246.93C80.7579 246.959 80.66 246.988 80.5623 247.016ZM87.0956 245.094C87.4003 245.202 87.6676 245.392 87.8213 245.7C88.5196 247.096 88.1134 248.585 87.8213 249.169L87.7894 249.233L87.737 249.281C86.8365 250.112 85.2767 251.117 82.484 251.716C79.9927 252.25 76.0364 252.44 73.7991 252.309L73.4121 252.286L73.4325 251.899C73.5017 250.584 74.3855 247.733 77.4425 247.054C78.3052 246.862 79.3043 246.573 80.3422 246.268C80.4401 246.239 80.5385 246.21 80.637 246.181C81.5768 245.904 82.5377 245.621 83.429 245.398C84.4088 245.153 85.3346 244.973 86.0762 244.96C86.447 244.954 86.7978 244.988 87.0956 245.094Z" fill="black"/>
<path d="M81.6222 240.414L72.6519 242.949C73.2641 242.949 74.0844 243.989 74.2119 244.314L83.3773 241.584L81.6222 240.414Z" fill="#554B58"/>
<path fill-rule="evenodd" clip-rule="evenodd" d="M81.6887 239.99L84.2848 241.721L73.9794 244.79L73.8485 244.457C73.8352 244.423 73.7839 244.329 73.6849 244.194C73.5913 244.065 73.4702 243.92 73.3361 243.784C73.2008 243.648 73.0606 243.529 72.9297 243.448C72.793 243.363 72.7005 243.339 72.6515 243.339L72.5454 242.574L81.6887 239.99ZM73.7023 243.058C73.768 243.115 73.8309 243.175 73.8905 243.236C74.0539 243.401 74.2 243.576 74.3152 243.734C74.3436 243.773 74.3713 243.813 74.3976 243.852L82.469 241.448L81.555 240.838L73.7023 243.058Z" fill="black"/>
<path d="M84.3524 242.169L74.6021 245.075C75.2261 245.075 75.8371 246.232 75.9671 246.654L80.8423 245.075L85.9125 243.339L84.3524 242.169Z" fill="#554B58"/>
<path fill-rule="evenodd" clip-rule="evenodd" d="M84.4289 241.74L86.7358 243.47L80.9651 245.445L75.7103 247.148L75.5939 246.769C75.5427 246.603 75.3779 246.246 75.1532 245.935C75.042 245.781 74.9276 245.654 74.8195 245.57C74.7085 245.483 74.6366 245.465 74.6016 245.465L74.4902 244.701L84.4289 241.74ZM75.5583 245.197C75.6407 245.287 75.7167 245.383 75.7856 245.478C75.9494 245.705 76.0896 245.954 76.1921 246.172L80.7186 244.705L85.0884 243.209L84.2751 242.599L75.5583 245.197Z" fill="black"/>
<path d="M52.5661 232.614L55.4913 236.709C56.1413 237.099 58.4943 237.606 58.8064 238.074C59.1184 238.542 56.7913 239.179 56.0763 239.244C55.4263 239.179 53.9702 239.127 53.3462 239.439C52.5661 239.829 52.5661 240.219 52.5661 242.559C52.5661 244.431 51.9161 244.379 51.5911 244.119C51.3961 243.729 50.8891 242.832 50.4211 242.364C49.953 241.896 49.446 240.414 49.641 239.439C49.641 239.439 51.0937 237.645 51.5911 236.319C52.1761 234.759 52.5661 232.614 52.5661 232.614Z" fill="#F7F3F8"/>
<path fill-rule="evenodd" clip-rule="evenodd" d="M52.3473 231.636L55.7572 236.41C55.8892 236.478 56.0965 236.559 56.367 236.652C56.5684 236.722 56.7861 236.793 57.012 236.866C57.1385 236.907 57.2675 236.949 57.3977 236.992C57.7526 237.109 58.1111 237.233 58.4036 237.36C58.5497 237.424 58.6889 237.492 58.8069 237.566C58.9173 237.634 59.0451 237.729 59.1307 237.858C59.1889 237.945 59.2252 238.049 59.2249 238.164C59.2246 238.276 59.1899 238.372 59.1475 238.448C59.0683 238.588 58.9414 238.692 58.8317 238.767C58.6038 238.923 58.2815 239.062 57.9576 239.177C57.3058 239.41 56.5118 239.596 56.1115 239.632L56.0744 239.636L56.0373 239.632C55.7266 239.601 55.2177 239.573 54.7147 239.59C54.191 239.608 53.7489 239.674 53.5205 239.788C53.3456 239.875 53.2521 239.945 53.1912 240.016C53.1341 240.082 53.0833 240.177 53.0442 240.352C52.9586 240.738 52.956 241.364 52.956 242.559C52.956 243.047 52.914 243.43 52.8369 243.727C52.7606 244.021 52.6421 244.261 52.4657 244.425C52.2769 244.6 52.0506 244.66 51.8361 244.636C51.6367 244.613 51.468 244.52 51.3473 244.424L51.2804 244.37L51.2421 244.294C51.0489 243.907 50.5652 243.06 50.1451 242.64C49.8419 242.337 49.5752 241.774 49.4079 241.201C49.2382 240.62 49.1436 239.937 49.2584 239.362L49.2773 239.268L49.3378 239.194L49.3385 239.193L49.3412 239.189L49.3527 239.175C49.3629 239.162 49.3782 239.143 49.398 239.118C49.4375 239.068 49.4949 238.994 49.5655 238.902C49.7067 238.716 49.9002 238.455 50.1088 238.154C50.5314 237.544 50.9951 236.797 51.2258 236.182C51.5095 235.425 51.7487 234.518 51.918 233.793C52.0023 233.431 52.0686 233.118 52.1137 232.896C52.1362 232.785 52.1535 232.696 52.165 232.636C52.1708 232.605 52.1752 232.582 52.1781 232.567L52.1813 232.549L52.1822 232.544L52.3473 231.636ZM52.7687 233.568C52.7412 233.693 52.7108 233.828 52.6777 233.97C52.5057 234.707 52.2575 235.652 51.9562 236.456C51.6895 237.167 51.1782 237.98 50.7501 238.598C50.5332 238.911 50.3325 239.182 50.1858 239.374C50.1125 239.471 50.0525 239.548 50.0106 239.601C50.0098 239.602 50.009 239.603 50.0083 239.604C49.9524 239.994 50.0154 240.499 50.1566 240.982C50.3111 241.511 50.5319 241.924 50.6967 242.088C51.1752 242.567 51.6659 243.416 51.8917 243.85C51.9065 243.857 51.918 243.86 51.9247 243.861C51.9248 243.861 51.9246 243.861 51.9247 243.861C51.9268 243.859 51.9305 243.857 51.9351 243.853C51.9617 243.828 52.0261 243.746 52.0819 243.531C52.1368 243.32 52.176 243.008 52.176 242.559L52.176 242.483C52.1759 241.382 52.1759 240.664 52.2828 240.183C52.3413 239.92 52.4367 239.697 52.599 239.508C52.7575 239.323 52.9564 239.198 53.1716 239.09C53.5672 238.892 54.1651 238.828 54.688 238.81C55.2109 238.792 55.7344 238.82 56.0754 238.852C56.4063 238.815 57.1041 238.654 57.6951 238.443C57.9479 238.352 58.1586 238.261 58.3052 238.177C58.2456 238.145 58.1747 238.111 58.0925 238.076C57.8356 237.964 57.5068 237.849 57.1531 237.732C57.0321 237.692 56.9073 237.652 56.7826 237.612C56.5511 237.536 56.3196 237.461 56.1119 237.389C55.7987 237.281 55.4926 237.165 55.2905 237.043L55.2209 237.002L52.7687 233.568Z" fill="black"/>
<path d="M55.4912 236.709L52.7611 233.004L52.1761 234.564L50.616 238.269L48.666 240.609L47.6909 244.314L48.666 247.239L51.7861 249.579L55.4912 250.554C54.8412 250.034 53.6972 248.721 54.3212 247.629C54.9452 246.537 56.4013 246.524 57.0513 246.654C57.3113 246.004 57.7533 244.236 57.4413 242.364C57.1293 240.492 58.2213 238.594 58.8064 237.879L55.4912 236.709Z" fill="#160E1B" fill-opacity="0.4"/>
<path d="M73.042 255.235C73.562 255.105 74.485 254.416 74.7971 253.48C75.1091 252.544 75.9671 251.725 76.7471 251.139C78.3072 250.164 80.6892 250.008 82.4024 249.579C83.9624 249.189 84.5475 249.189 86.3025 248.409C87.7066 247.785 87.7378 247.536 87.6941 247.461L87.6676 247.434C87.6676 247.434 87.6832 247.442 87.6941 247.461L88.0576 247.824L86.8875 251.139L85.1325 253.675L79.4772 255.625C77.8522 256.015 74.29 256.483 73.042 255.235Z" fill="#160E1B" fill-opacity="0.4"/>
<path d="M98.6445 252.449C96.546 250.449 98.1983 244.314 98.1984 241.195C98.6644 241.543 100.584 241.692 102.099 241.389C105.024 240.804 113.293 236.703 114.189 236.319C115.554 235.734 121.45 236.602 122.668 235.552C123.643 234.712 125.57 233.509 126.411 233.013C127.952 233.038 131.558 233.348 133.654 234.388C136.274 235.689 136.587 241.465 135.857 242.667C134.902 244.24 133.771 245.464 132.206 247.125C130.249 249.202 127.33 250.016 120.967 251.255C118.206 251.792 110.771 253.986 105.365 254.524C102.487 254.445 100.766 254.472 98.6445 252.449Z" fill="#3CD367"/>
<path fill-rule="evenodd" clip-rule="evenodd" d="M97.8081 240.417L98.4312 240.882C98.4766 240.916 98.6135 240.977 98.8735 241.033C99.1182 241.086 99.4285 241.126 99.778 241.147C100.478 241.188 101.303 241.151 102.022 241.007C103.432 240.725 106.186 239.575 108.744 238.423C110.013 237.851 111.22 237.286 112.166 236.838C112.41 236.723 112.638 236.615 112.846 236.517C113.436 236.237 113.863 236.034 114.035 235.961C114.258 235.865 114.545 235.809 114.85 235.774C115.161 235.737 115.522 235.719 115.909 235.71C116.463 235.698 117.093 235.705 117.732 235.712C117.983 235.715 118.236 235.718 118.486 235.72C119.384 235.726 120.26 235.718 120.982 235.644C121.343 235.608 121.654 235.556 121.906 235.487C122.162 235.415 122.324 235.333 122.413 235.257C123.417 234.391 125.373 233.172 126.213 232.677L126.308 232.621L126.417 232.623C127.205 232.635 128.509 232.72 129.884 232.934C131.252 233.147 132.725 233.492 133.827 234.039C134.582 234.414 135.143 235.096 135.552 235.882C135.961 236.67 136.233 237.592 136.395 238.496C136.557 239.402 136.612 240.306 136.578 241.067C136.561 241.447 136.522 241.797 136.461 242.098C136.401 242.392 136.315 242.664 136.19 242.87C135.21 244.482 134.052 245.734 132.489 247.392C130.431 249.577 127.371 250.405 121.041 251.637C120.22 251.797 118.985 252.104 117.503 252.472C116.512 252.719 115.411 252.993 114.248 253.268C111.366 253.952 108.134 254.64 105.404 254.912L105.379 254.914L105.354 254.914C105.248 254.911 105.143 254.908 105.039 254.905C103.754 254.871 102.651 254.842 101.629 254.594C100.501 254.321 99.4809 253.785 98.3751 252.732C97.7606 252.146 97.4497 251.288 97.3038 250.345C97.157 249.398 97.169 248.312 97.2451 247.215C97.3109 246.267 97.4259 245.293 97.5343 244.376C97.5516 244.23 97.5686 244.085 97.5853 243.943C97.7078 242.894 97.8081 241.948 97.8081 241.195L97.8081 240.417ZM98.0746 250.226C98.209 251.094 98.4786 251.753 98.9133 252.167C99.9292 253.135 100.83 253.598 101.813 253.836C102.751 254.064 103.771 254.091 105.086 254.126C105.173 254.128 105.261 254.131 105.351 254.133C108.021 253.865 111.199 253.19 114.068 252.509C115.201 252.241 116.291 251.97 117.28 251.724C118.783 251.351 120.054 251.035 120.892 250.872C127.288 249.627 130.067 248.826 131.922 246.857C133.49 245.193 134.592 243.997 135.523 242.465C135.58 242.37 135.644 242.199 135.697 241.942C135.748 241.691 135.783 241.383 135.799 241.032C135.83 240.331 135.779 239.485 135.627 238.634C135.475 237.781 135.223 236.94 134.859 236.242C134.495 235.541 134.035 235.013 133.48 234.738C132.486 234.244 131.108 233.914 129.764 233.705C128.49 233.507 127.278 233.423 126.514 233.405C125.631 233.931 123.834 235.062 122.923 235.847C122.707 236.033 122.418 236.154 122.114 236.238C121.805 236.324 121.445 236.382 121.06 236.421C120.292 236.498 119.379 236.506 118.481 236.5C118.221 236.498 117.963 236.495 117.709 236.492C117.075 236.485 116.467 236.478 115.927 236.49C115.551 236.498 115.217 236.516 114.94 236.549C114.657 236.582 114.46 236.627 114.342 236.678C114.185 236.745 113.782 236.936 113.203 237.211C112.991 237.311 112.755 237.423 112.499 237.544C111.552 237.992 110.34 238.56 109.064 239.134C106.532 240.275 103.69 241.469 102.175 241.772C101.379 241.931 100.487 241.97 99.732 241.925C99.3541 241.903 99.0024 241.859 98.7087 241.796C98.6634 241.786 98.618 241.775 98.5731 241.764C98.5396 242.448 98.4544 243.226 98.36 244.033C98.3432 244.178 98.326 244.323 98.3087 244.47C98.2002 245.388 98.0876 246.341 98.0233 247.269C97.9486 248.345 97.941 249.363 98.0746 250.226Z" fill="black"/>
<path d="M114.292 234.092C114.296 235.4 115.523 237.839 118.755 239.487C119.24 238.369 124.061 234.414 126.237 233.1C125.768 231.735 124.098 229.112 122.909 227.789C121.422 226.137 114.289 232.784 114.292 234.092Z" fill="#196B31"/>
<path fill-rule="evenodd" clip-rule="evenodd" d="M114.689 234.054C114.682 234.08 114.682 234.091 114.682 234.091C114.682 234.091 114.682 234.091 114.682 234.091C114.685 235.17 115.711 237.375 118.612 238.97C118.676 238.88 118.749 238.788 118.827 238.695C119.02 238.465 119.266 238.204 119.548 237.925C120.112 237.367 120.837 236.719 121.611 236.069C123.032 234.874 124.643 233.65 125.758 232.938C125.502 232.316 125.047 231.483 124.513 230.637C123.895 229.656 123.193 228.689 122.619 228.05C122.542 227.965 122.406 227.9 122.141 227.921C121.871 227.942 121.519 228.049 121.1 228.246C120.265 228.637 119.263 229.331 118.289 230.132C117.319 230.929 116.396 231.817 115.72 232.581C115.381 232.964 115.11 233.309 114.927 233.591C114.835 233.732 114.77 233.85 114.729 233.943C114.709 233.99 114.696 234.027 114.689 234.054ZM122.081 227.143C122.491 227.111 122.904 227.201 123.198 227.529C123.813 228.212 124.541 229.218 125.173 230.221C125.802 231.219 126.356 232.247 126.606 232.973L126.708 233.271L126.439 233.434C125.376 234.076 123.645 235.378 122.112 236.666C121.348 237.308 120.641 237.941 120.097 238.479C119.824 238.749 119.597 238.991 119.425 239.196C119.247 239.408 119.149 239.557 119.112 239.642L118.947 240.023L118.577 239.834C115.26 238.142 113.906 235.592 113.902 234.093C113.902 233.932 113.953 233.772 114.014 233.632C114.078 233.485 114.167 233.328 114.273 233.165C114.485 232.839 114.783 232.463 115.136 232.064C115.842 231.266 116.795 230.35 117.794 229.529C118.789 228.711 119.849 227.971 120.769 227.54C121.227 227.325 121.677 227.174 122.081 227.143Z" fill="black"/>
<path d="M97.6679 246.486C97.6608 246.356 97.6696 246.246 97.6871 246.163C97.6806 246.262 97.6742 246.37 97.6679 246.486C97.6959 246.997 97.9678 247.826 98.9147 248.602C100.401 249.818 102.234 250.424 102.76 251.469C103.286 252.514 104.749 252.432 106.321 253.387C107.579 254.152 107.196 254.257 106.586 254.346C105.016 254.263 103.048 254.73 101.721 254.175C100.062 253.482 98.3152 252.615 97.8756 251.308C97.5511 250.343 97.5936 247.868 97.6679 246.486Z" fill="#196B31"/>
<path fill-rule="evenodd" clip-rule="evenodd" d="M97.2773 246.485C97.2708 246.336 97.2808 246.199 97.3054 246.082L98.0762 246.188C98.0703 246.279 98.0643 246.379 98.0585 246.485C98.0864 246.887 98.3108 247.603 99.1618 248.3C99.7338 248.768 100.355 249.14 100.954 249.498C101.105 249.588 101.254 249.677 101.401 249.767C102.095 250.192 102.787 250.657 103.108 251.294C103.296 251.668 103.655 251.867 104.282 252.096C104.39 252.135 104.506 252.175 104.627 252.218C105.176 252.409 105.845 252.642 106.524 253.054C106.844 253.249 107.082 253.414 107.241 253.558C107.32 253.629 107.394 253.708 107.449 253.796C107.503 253.882 107.559 254.01 107.542 254.163C107.523 254.327 107.432 254.441 107.345 254.51C107.264 254.575 107.173 254.612 107.103 254.636C106.963 254.683 106.79 254.71 106.642 254.732L106.604 254.738L106.565 254.736C106.041 254.708 105.483 254.743 104.895 254.781C104.629 254.798 104.357 254.815 104.079 254.827C103.223 254.864 102.321 254.849 101.57 254.535C100.737 254.187 99.8563 253.785 99.1242 253.296C98.3976 252.811 97.7663 252.207 97.5058 251.432C97.322 250.886 97.2527 249.969 97.2322 249.062C97.2115 248.146 97.2404 247.182 97.2773 246.485ZM98.0058 248.242C98.0043 248.509 98.0061 248.779 98.0121 249.045C98.0328 249.963 98.1045 250.765 98.2452 251.184C98.4243 251.716 98.8861 252.199 99.5574 252.647C100.223 253.092 101.045 253.471 101.871 253.815C102.447 254.056 103.193 254.085 104.045 254.048C104.286 254.037 104.537 254.022 104.792 254.005C105.356 253.97 105.941 253.932 106.477 253.951C106.382 253.885 106.264 253.809 106.119 253.721C105.517 253.355 104.941 253.154 104.395 252.963C104.266 252.918 104.139 252.874 104.014 252.828C103.385 252.598 102.749 252.315 102.411 251.644C102.206 251.236 101.718 250.876 100.994 250.432C100.86 250.351 100.72 250.267 100.576 250.181C99.9728 249.821 99.2888 249.412 98.6675 248.903C98.4028 248.686 98.1845 248.464 98.0058 248.242Z" fill="black"/>
<path d="M123.399 247.847C121.171 249.318 107.765 249.75 101.429 250.174C101.546 250.406 102.166 251.812 103.005 252.437C104.053 253.219 105.013 253.391 105.103 254.437C107.283 254.431 118.091 252.047 124.366 250.635C130.642 249.222 131.074 247.913 132.031 247.213C132.989 246.512 135.248 243.628 135.77 242.929C136.187 242.37 135.817 238.975 135.58 237.348C135.681 242.319 126.185 246.008 123.399 247.847Z" fill="#8DDAA3"/>
<path fill-rule="evenodd" clip-rule="evenodd" d="M100.816 249.824L101.403 249.785C102.605 249.704 104.052 249.624 105.626 249.537C108.224 249.392 111.168 249.229 113.924 249.014C116.132 248.842 118.204 248.638 119.859 248.386C120.686 248.26 121.403 248.123 121.978 247.974C122.562 247.823 122.962 247.668 123.184 247.521C123.791 247.121 124.701 246.638 125.735 246.09C125.922 245.991 126.114 245.889 126.309 245.785C127.588 245.104 129.02 244.322 130.359 243.445C131.7 242.567 132.93 241.606 133.815 240.573C134.7 239.54 135.213 238.467 135.19 237.356L135.966 237.292C136.086 238.112 136.239 239.379 136.31 240.515C136.345 241.082 136.36 241.625 136.339 242.069C136.328 242.29 136.308 242.495 136.274 242.67C136.242 242.834 136.189 243.02 136.082 243.162C135.817 243.518 135.118 244.419 134.363 245.321C133.986 245.771 133.592 246.225 133.231 246.612C132.875 246.994 132.533 247.329 132.262 247.527C132.116 247.634 131.994 247.748 131.84 247.89C131.761 247.963 131.674 248.044 131.572 248.135C131.284 248.392 130.923 248.682 130.39 248.993C129.329 249.613 127.609 250.305 124.452 251.015C121.314 251.721 117.04 252.671 113.278 253.445C111.397 253.832 109.641 254.176 108.217 254.424C106.806 254.669 105.688 254.826 105.104 254.827L104.745 254.828L104.715 254.471C104.683 254.102 104.515 253.889 104.188 253.656C104.038 253.55 103.868 253.449 103.668 253.33C103.634 253.31 103.599 253.289 103.563 253.268C103.321 253.124 103.05 252.958 102.772 252.75C102.289 252.39 101.892 251.828 101.611 251.358C101.375 250.965 101.2 250.598 101.118 250.428C101.102 250.393 101.089 250.366 101.08 250.349L100.816 249.824ZM102.038 250.525C102.107 250.657 102.188 250.804 102.281 250.958C102.548 251.405 102.881 251.859 103.238 252.125C103.483 252.308 103.726 252.457 103.962 252.598C103.995 252.617 104.028 252.637 104.061 252.657C104.26 252.775 104.462 252.894 104.639 253.02C104.99 253.269 105.289 253.573 105.424 254.033C105.995 253.992 106.913 253.859 108.084 253.655C109.496 253.41 111.243 253.068 113.12 252.681C116.876 251.909 121.143 250.96 124.281 250.254C127.399 249.552 129.033 248.883 129.996 248.32C130.475 248.04 130.794 247.783 131.053 247.553C131.125 247.489 131.197 247.422 131.27 247.355C131.443 247.194 131.619 247.031 131.801 246.898C132.009 246.746 132.308 246.458 132.661 246.08C133.009 245.707 133.393 245.265 133.765 244.82C134.51 243.93 135.201 243.039 135.457 242.696C135.457 242.696 135.457 242.696 135.458 242.695C135.461 242.688 135.485 242.641 135.508 242.52C135.533 242.396 135.55 242.232 135.56 242.031C135.579 241.63 135.566 241.118 135.531 240.563C135.51 240.229 135.482 239.882 135.449 239.538C135.182 240.078 134.825 240.593 134.407 241.081C133.453 242.194 132.154 243.203 130.786 244.098C129.415 244.995 127.957 245.791 126.675 246.474C126.476 246.58 126.281 246.683 126.092 246.783C125.055 247.334 124.186 247.794 123.614 248.172C123.279 248.393 122.773 248.574 122.173 248.729C121.563 248.887 120.817 249.029 119.976 249.157C118.293 249.413 116.199 249.619 113.985 249.792C111.226 250.007 108.255 250.172 105.647 250.317C104.327 250.39 103.099 250.458 102.038 250.525Z" fill="black"/>
<path d="M126.172 241.211C123.945 243.031 124.382 245.751 124.88 246.883C126.912 246.006 130.328 244.073 132.28 242.503C134.456 240.752 135.353 239.209 135.757 238.132C135.755 237.551 135.473 236.18 134.354 235.346C132.956 234.303 128.957 238.936 126.172 241.211Z" fill="#F7F3F8"/>
<path fill-rule="evenodd" clip-rule="evenodd" d="M128.695 239.473C127.908 240.21 127.127 240.935 126.419 241.513C124.596 243.002 124.718 245.166 125.099 246.359C127.132 245.431 130.231 243.651 132.036 242.199C134.113 240.527 134.975 239.069 135.365 238.065C135.342 237.52 135.064 236.362 134.121 235.658C134.047 235.603 133.94 235.57 133.764 235.592C133.58 235.615 133.345 235.697 133.059 235.847C132.485 236.149 131.795 236.677 131.038 237.33C130.355 237.918 129.636 238.592 128.918 239.264C128.844 239.333 128.77 239.403 128.695 239.473ZM133.666 234.818C133.987 234.778 134.311 234.827 134.587 235.033C135.839 235.966 136.145 237.478 136.147 238.131L136.147 238.203L136.122 238.27C135.691 239.417 134.75 241.016 132.525 242.806C130.54 244.403 127.092 246.353 125.034 247.241L124.678 247.395L124.522 247.04C123.993 245.835 123.5 242.89 125.925 240.909C126.61 240.35 127.372 239.643 128.162 238.903C128.237 238.834 128.311 238.764 128.386 238.693C129.101 238.023 129.832 237.339 130.528 236.739C131.293 236.079 132.039 235.502 132.696 235.157C133.024 234.984 133.353 234.858 133.666 234.818Z" fill="black"/>
<path d="M126.673 233.099L119.801 239.397C120.347 239.121 121.548 239.682 121.808 239.914L128.767 233.355L126.673 233.099Z" fill="#554B58"/>
<path fill-rule="evenodd" clip-rule="evenodd" d="M126.542 232.69L129.639 233.069L121.815 240.445L121.548 240.206C121.521 240.181 121.433 240.121 121.284 240.044C121.142 239.972 120.969 239.896 120.788 239.835C120.605 239.774 120.427 239.732 120.274 239.718C120.113 239.703 120.02 239.724 119.976 239.746L119.537 239.11L126.542 232.69ZM120.788 239.022C120.873 239.044 120.956 239.069 121.036 239.096C121.256 239.17 121.466 239.261 121.64 239.35C121.683 239.372 121.725 239.395 121.766 239.418L127.895 233.642L126.804 233.508L120.788 239.022Z" fill="black"/>
<path d="M129.901 233.439L122.498 240.419C123.056 240.138 124.122 240.897 124.428 241.216L128.072 237.613L131.821 233.783L129.901 233.439Z" fill="#554B58"/>
<path fill-rule="evenodd" clip-rule="evenodd" d="M129.776 233.02L132.615 233.528L128.349 237.888L124.42 241.771L124.146 241.486C124.026 241.36 123.718 241.115 123.377 240.938C123.209 240.851 123.05 240.789 122.915 240.762C122.777 240.734 122.705 240.751 122.674 240.767L122.231 240.135L129.776 233.02ZM123.408 240.097C123.522 240.141 123.633 240.192 123.737 240.246C123.985 240.375 124.222 240.534 124.412 240.683L127.796 237.337L131.026 234.036L130.025 233.857L123.408 240.097Z" fill="black"/>
<path d="M98.1979 241.194L101.685 241.779C102.44 241.836 105.119 239.942 105.608 240.219C106.097 240.497 103.939 243.161 103.329 243.541C102.719 243.775 101.395 244.384 100.978 244.943C100.457 245.642 100.632 245.99 101.685 248.08C102.526 249.753 101.922 249.998 101.515 249.912C101.166 249.652 100.309 249.078 99.6808 248.871C99.0523 248.663 97.933 247.567 97.6688 246.609C97.6688 246.609 98.1598 244.353 98.0076 242.945C97.8287 241.289 98.1979 241.194 98.1979 241.194Z" fill="#F7F3F8"/>
<path fill-rule="evenodd" clip-rule="evenodd" d="M98.1001 240.817C98.1009 240.817 98.1017 240.816 98.1982 241.194L98.1017 240.816L98.1815 240.796L101.724 241.391C101.753 241.39 101.819 241.381 101.934 241.345C102.059 241.306 102.211 241.244 102.387 241.165C102.711 241.018 103.083 240.824 103.465 240.624C103.498 240.606 103.532 240.588 103.566 240.571C103.975 240.357 104.395 240.139 104.746 239.994C104.92 239.921 105.094 239.859 105.252 239.827C105.386 239.799 105.607 239.77 105.801 239.88C106.076 240.036 106.082 240.329 106.063 240.478C106.041 240.64 105.973 240.813 105.895 240.972C105.736 241.3 105.477 241.693 105.194 242.074C104.909 242.459 104.589 242.846 104.3 243.164C104.022 243.468 103.74 243.745 103.536 243.872L103.504 243.892L103.469 243.905C103.178 244.017 102.71 244.221 102.269 244.462C101.809 244.714 101.444 244.971 101.291 245.176C101.174 245.333 101.122 245.437 101.1 245.528C101.079 245.613 101.076 245.72 101.12 245.894C101.217 246.277 101.496 246.837 102.033 247.905C102.252 248.341 102.387 248.702 102.452 249.002C102.516 249.299 102.518 249.566 102.434 249.792C102.344 250.033 102.169 250.189 101.967 250.264C101.778 250.333 101.586 250.326 101.435 250.294L101.351 250.276L101.282 250.225C100.936 249.967 100.123 249.427 99.5588 249.241C99.1516 249.107 98.6602 248.724 98.2533 248.287C97.8404 247.845 97.4486 247.277 97.2931 246.712L97.2675 246.62L97.288 246.526L97.2882 246.525L97.2891 246.52L97.2929 246.503C97.2963 246.487 97.3013 246.463 97.3077 246.431C97.3205 246.369 97.3386 246.277 97.36 246.163C97.4029 245.934 97.4585 245.614 97.5093 245.251C97.6124 244.516 97.6907 243.64 97.6201 242.987C97.5285 242.139 97.5703 241.64 97.6627 241.335C97.71 241.179 97.775 241.059 97.8557 240.971C97.8963 240.927 97.9394 240.893 97.9829 240.867C98.0045 240.854 98.0255 240.843 98.0457 240.835C98.0557 240.831 98.0655 240.827 98.0748 240.824C98.0795 240.823 98.0841 240.821 98.0886 240.82L98.0952 240.818L98.0985 240.817L98.1001 240.817ZM98.0713 246.591C98.197 246.965 98.4802 247.387 98.8237 247.755C99.1996 248.158 99.5822 248.427 99.8034 248.5C100.446 248.713 101.266 249.25 101.663 249.537C101.679 249.536 101.691 249.534 101.697 249.531C101.697 249.531 101.697 249.532 101.697 249.531C101.699 249.529 101.701 249.525 101.703 249.52C101.716 249.485 101.736 249.383 101.689 249.166C101.643 248.953 101.538 248.656 101.336 248.256L101.302 248.188C100.807 247.204 100.484 246.563 100.363 246.086C100.297 245.824 100.283 245.583 100.342 245.34C100.401 245.104 100.522 244.902 100.666 244.71C100.93 244.355 101.435 244.029 101.894 243.778C102.352 243.528 102.83 243.317 103.149 243.192C103.258 243.115 103.463 242.924 103.723 242.638C103.995 242.34 104.298 241.973 104.568 241.61C104.83 241.256 105.049 240.92 105.179 240.661C105.138 240.676 105.093 240.694 105.045 240.714C104.732 240.844 104.344 241.044 103.927 241.262C103.893 241.28 103.858 241.298 103.823 241.317C103.446 241.514 103.054 241.719 102.709 241.875C102.52 241.961 102.335 242.037 102.167 242.089C102.007 242.139 101.826 242.181 101.656 242.168L101.638 242.167L98.3933 241.622C98.3515 241.807 98.318 242.185 98.3957 242.903C98.4772 243.658 98.3862 244.614 98.2818 245.359C98.2289 245.736 98.1713 246.068 98.1268 246.306C98.1045 246.425 98.0855 246.521 98.072 246.587C98.0718 246.588 98.0715 246.589 98.0713 246.591ZM105.481 240.581C105.481 240.581 105.48 240.581 105.48 240.581L105.481 240.581ZM101.696 249.534C101.696 249.534 101.696 249.534 101.696 249.533L101.696 249.534Z" fill="black"/>
<path d="M101.513 241.275L98.3815 241.275L97.7659 242.364L97.7659 245.837L97.3039 248.848L98.3815 252.524L100.727 254.526L104.607 254.92L116.139 252.115C115.313 252.005 109.82 252.349 108.728 251.725C107.363 250.945 106.583 250.555 105.413 249.775C104.243 248.605 103.073 247.646 103.073 245.837C103.073 243.939 105.281 241.134 105.413 240.219L101.513 241.275Z" fill="#160E1B" fill-opacity="0.4"/>
<path d="M123.354 248.019C123.468 248.999 115.19 252.166 114.774 252.505C116.433 253.106 130.178 248.807 131.485 247.764L135.78 243.601L136.295 240.561L135.949 237.062L135.43 236.874C135.43 236.874 135.728 238.574 134.47 240.024C133.211 241.475 133.182 241.545 131.934 242.559C130.564 243.673 129.009 244.314 127.839 245.289C127.381 246.15 123.24 247.039 123.354 248.019Z" fill="#160E1B" fill-opacity="0.4"/>
</g>
</g>
<defs>
<filter id="filter0_d" x="0" y="0.722168" width="187.426" height="290" filterUnits="userSpaceOnUse" color-interpolation-filters="sRGB">
<feFlood flood-opacity="0" result="BackgroundImageFix"/>
<feColorMatrix in="SourceAlpha" type="matrix" values="0 0 0 0 0 0 0 0 0 0 0 0 0 0 0 0 0 0 127 0"/>
<feOffset dy="8"/>
<feGaussianBlur stdDeviation="10"/>
<feColorMatrix type="matrix" values="0 0 0 0 0.740608 0 0 0 0 0.132788 0 0 0 0 0.954167 0 0 0 1 0"/>
<feBlend mode="normal" in2="BackgroundImageFix" result="effect1_dropShadow"/>
<feBlend mode="normal" in="SourceGraphic" in2="effect1_dropShadow" result="shape"/>
</filter>
</defs>
</svg>
