<svg width="64" height="64" viewBox="0 0 64 64" fill="none" xmlns="http://www.w3.org/2000/svg">
<rect width="64" height="64" rx="4" fill="white"/>
<path d="M28.063 52.6223L29.2018 47.0547C32.7448 49.5222 35.0858 49.5854 37.9961 48.8262L38.9452 52.7488C39.0084 54.0986 38.1227 56.7348 34.0735 56.4817C30.0243 56.2286 28.3793 53.8033 28.063 52.6223Z" fill="white"/>
<path fill-rule="evenodd" clip-rule="evenodd" d="M29.1304 46.876C29.1903 46.8521 29.2582 46.8598 29.3111 46.8967C31.0671 48.1197 32.5116 48.7373 33.8671 48.9606C35.2222 49.1839 36.5057 49.0161 37.9475 48.64C37.9972 48.627 38.0501 48.6346 38.0942 48.661C38.1384 48.6874 38.17 48.7304 38.1821 48.7804L39.1311 52.703C39.134 52.7149 39.1357 52.727 39.1363 52.7391C39.1698 53.4539 38.9535 54.5032 38.1934 55.3441C37.4266 56.1923 36.1312 56.8016 34.0613 56.6722C29.9294 56.4139 28.2151 53.9312 27.8776 52.6711C27.8699 52.6424 27.869 52.6123 27.875 52.5832L29.0138 47.0155C29.0267 46.9524 29.0705 46.8999 29.1304 46.876ZM29.3314 47.3755L28.2597 52.6147C28.5835 53.7339 30.1692 56.0449 34.0852 56.2897C36.0644 56.4134 37.2365 55.8311 37.9091 55.0871C38.5819 54.3427 38.7795 53.4097 38.7542 52.775L37.8553 49.0592C36.4599 49.4087 35.172 49.5641 33.8048 49.3388C32.4407 49.114 31.0136 48.5131 29.3314 47.3755Z" fill="black"/>
<path d="M35.5185 53.8561C32.5676 54.3138 30.2044 49.5965 29.3916 47.1807C33.3151 49.8405 35.5636 49.3461 37.8675 48.8395L37.8942 48.8336C38.311 50.2959 38.4694 53.3983 35.5185 53.8561Z" fill="#DADADA"/>
<path d="M27.1783 26.7458C24.0908 29.0741 24.6053 33.8508 25.2802 35.9598C24.9869 36.0245 24.685 36.1668 24.3944 36.4259C23.588 37.1449 23.1291 39.4628 24.8373 40.5383C25.1194 40.716 25.5969 40.8663 26.1027 40.8841C26.4401 42.3603 27.6211 45.9162 29.3927 47.1815C31.6071 48.7632 35.0235 50.3449 39.8319 48.1305C44.6403 45.9162 45.3996 41.2976 44.324 35.034C43.2484 28.7704 40.4646 25.607 37.491 24.5947C34.5174 23.5824 31.0376 23.8355 27.1783 26.7458Z" fill="white"/>
<path fill-rule="evenodd" clip-rule="evenodd" d="M37.428 24.7754C34.5182 23.7848 31.1043 24.0236 27.2924 26.8981C25.807 28.0182 25.1778 29.7344 25.0078 31.4532C24.8463 33.0864 25.1027 34.6981 25.4123 35.7412C25.857 35.6829 26.2703 35.7759 26.5917 35.897C26.9546 36.0338 27.2147 36.2117 27.2947 36.2739C27.3782 36.3389 27.3933 36.4593 27.3283 36.5428C27.2633 36.6263 27.1429 36.6414 27.0594 36.5764C27.0048 36.5339 26.7779 36.3768 26.4565 36.2557C26.1353 36.1346 25.734 36.0548 25.3203 36.1461C25.0592 36.2038 24.7869 36.3308 24.5207 36.5682C24.1686 36.8821 23.8652 37.583 23.8632 38.3482C23.8614 39.1014 24.1519 39.8804 24.9382 40.3754C25.187 40.5321 25.6303 40.675 26.1082 40.6918C26.6473 40.7108 27.187 40.5689 27.5376 40.1598C27.6065 40.0795 27.7275 40.0702 27.8078 40.139C27.8882 40.2079 27.8975 40.3289 27.8286 40.4092C27.4356 40.8677 26.878 41.0467 26.3442 41.0732C26.5311 41.8159 26.8853 42.9348 27.3832 44.032C27.9394 45.2578 28.6604 46.4231 29.5028 47.0248C30.5972 47.8066 31.9786 48.5809 33.6727 48.8903C35.3639 49.1992 37.3802 49.0474 39.7505 47.9557C42.1048 46.8715 43.4588 45.2068 44.0995 43.0455C44.7435 40.8729 44.6699 38.1869 44.1339 35.0657C43.0653 28.8427 40.3116 25.757 37.428 24.7754ZM25.9477 41.0662C26.1325 41.8274 26.5032 43.0203 27.0341 44.1903C27.5956 45.4278 28.3509 46.6731 29.28 47.3367C30.4 48.1367 31.8341 48.9441 33.6039 49.2673C35.3767 49.5911 37.4728 49.4266 39.9109 48.3039C42.365 47.1737 43.7948 45.422 44.4669 43.1544C45.1357 40.8982 45.0512 38.1432 44.5116 35.0008C43.4291 28.6967 40.6152 25.4555 37.5515 24.4126C34.5141 23.3786 30.9685 23.6459 27.0616 26.5921C25.4596 27.8002 24.8023 29.6365 24.6264 31.4154C24.4605 33.0927 24.7194 34.7424 25.038 35.8268C24.7776 35.9131 24.5164 36.0585 24.2656 36.2821C23.8113 36.6872 23.4821 37.5047 23.48 38.3472C23.4779 39.2015 23.812 40.1193 24.7339 40.6998C25.0202 40.88 25.4682 41.0266 25.9477 41.0662Z" fill="black"/>
<path d="M27.2356 45.9038H28.2896C27.8297 45.6738 26.5649 42.4864 25.99 40.9214C24.7444 40.9214 23.1155 39.6758 23.6904 37.5679C24.1503 35.8815 25.5428 35.7793 26.1816 35.939C26.2774 35.8113 26.5074 35.4216 26.6607 34.8851C26.814 34.3485 26.2136 33.4798 25.6067 33.1604C25.8303 33.0965 25.7984 32.8155 26.1816 31.819C26.5649 30.8225 26.2774 29.9346 25.8942 29.6152C26.1177 29.6472 26.3732 29.5769 27.1398 29.0403C27.9063 28.5038 27.7785 27.156 27.6188 26.5491C27.8743 26.7408 28.6345 27.0474 29.631 26.7408C30.6274 26.4342 31.1321 25.2716 31.2598 24.7287C31.5473 25.0161 32.4288 25.5527 33.6552 25.3994C34.8816 25.2461 35.316 24.569 35.3799 24.2496C35.8589 25.4952 36.5296 25.7826 37.7752 25.9743C38.7717 26.1276 39.5319 26.0381 39.6915 25.6868C39.6915 26.3256 39.864 27.1432 40.5539 27.9864C41.2438 28.8295 41.9911 28.9126 42.2786 28.9445C44.4823 32.2022 45.6321 40.4423 44.0032 43.8917C44.4504 43.8917 45.5148 43.9046 46.0153 43.6042C46.9735 43.0293 47.0693 41.8476 47.2609 41.113C47.9955 41.5921 49.733 42.3778 50.8061 41.6879C51.8792 40.9981 52.0198 38.4622 51.9559 37.2804C52.7543 37.504 54.6387 37.5104 55.7885 35.7474C56.9383 33.9844 55.6288 31.9467 54.8303 31.1483C55.3094 30.8608 55.5969 30.765 56.1717 28.8487C56.6317 27.3157 55.1497 25.7826 54.3513 25.2077C54.7026 24.4412 55.2902 22.5249 54.8303 20.9919C54.3704 19.4588 52.1475 18.6923 51.0935 18.5007C51.4449 17.8619 51.7451 16.0287 50.1354 13.8057C48.5257 11.5828 46.1431 12.3046 45.153 12.9434C45.4085 11.602 45.1722 8.7467 42.1827 8.05684C39.1933 7.36697 37.4239 9.55794 36.9129 10.7397C36.9768 10.3245 36.7213 9.43657 35.1882 9.20662C33.6552 8.97666 32.8887 9.74957 32.697 10.1648C32.4096 9.14274 31.279 7.11785 29.0561 7.1945C26.8332 7.27115 26.0219 9.20661 25.8942 10.1648C25.6706 10.037 24.9743 9.85816 23.9779 10.1648C22.9814 10.4714 22.0935 11.5701 21.7741 12.0811C21.1992 11.2187 19.3787 11.1229 18.0373 12.0811C16.9642 12.8476 16.8237 14.2529 16.8876 14.8597C16.6001 14.7 15.7378 14.5723 14.588 15.3388C13.4382 16.1053 13.0869 17.4467 13.055 18.0216C10.6021 17.4084 8.90297 20.5767 8.36001 22.2375C7.74679 24.0771 9.31816 25.5591 10.1805 26.0701C9.92499 26.1978 9.27984 26.7599 8.74328 27.9864C8.20671 29.2128 8.96685 30.4776 9.41398 30.9566C8.45583 30.9566 7.01861 32.3939 7.21024 34.5976C7.36354 36.3606 8.29614 37.2485 8.74328 37.4721C7.88094 37.7595 7.40187 39.58 8.74328 41.5921C9.81641 43.2018 12.0649 42.71 13.055 42.2628C13.055 43.0293 13.4765 44.8882 15.1629 46.1912C16.8492 47.4943 19.251 46.2871 20.2411 45.5205C19.9537 46.2232 20.1261 47.7434 23.1155 48.2034C26.105 48.6633 27.1078 46.8619 27.2356 45.9038Z" fill="#7B371F"/>
<path fill-rule="evenodd" clip-rule="evenodd" d="M31.4625 8.39925C30.8947 7.80479 30.1063 7.34924 29.0614 7.38527C28.0124 7.42144 27.3034 7.89314 26.8371 8.46893C26.3661 9.05054 26.1429 9.73939 26.0829 10.1893L26.0452 10.4718L25.7979 10.3304C25.6299 10.2344 24.9905 10.0525 24.033 10.3472C23.5767 10.4876 23.1315 10.8152 22.7546 11.1827C22.3798 11.5483 22.0875 11.9386 21.9354 12.1819L21.7781 12.4336L21.6134 12.1866C21.3753 11.8294 20.8519 11.6007 20.1886 11.5892C19.5335 11.5779 18.7836 11.7819 18.1475 12.2363C17.6543 12.5885 17.3707 13.0907 17.2179 13.586C17.0647 14.0828 17.0475 14.5597 17.0769 14.8389L17.1155 15.2055L16.7932 15.0265C16.5858 14.9112 15.8016 14.7584 14.693 15.4975C13.6112 16.2187 13.275 17.4918 13.2451 18.0315L13.2322 18.263L13.0072 18.2068C11.8838 17.9259 10.9142 18.5015 10.1349 19.4015C9.35716 20.2996 8.80715 21.4819 8.54091 22.2963L8.54057 22.2973C8.25716 23.1475 8.47485 23.9177 8.87722 24.5482C9.28202 25.1824 9.86629 25.6611 10.2769 25.9045L10.5792 26.0836L10.265 26.2407C10.0631 26.3416 9.4434 26.8606 8.9176 28.0624C8.67382 28.6196 8.72153 29.1909 8.89005 29.6897C9.05923 30.1904 9.34573 30.6032 9.55283 30.8251L9.85373 31.1475H9.41274C9.01928 31.1475 8.47118 31.4539 8.03544 32.0616C7.6067 32.6596 7.30809 33.5244 7.39991 34.5803C7.54787 36.2819 8.44453 37.1083 8.82774 37.2999L9.24153 37.5068L8.80264 37.6531C8.47723 37.7616 8.16372 38.1923 8.10664 38.9C8.05071 39.5935 8.25108 40.5095 8.90148 41.4851C9.39252 42.2216 10.1535 42.4852 10.9342 42.5065C11.7188 42.5279 12.4996 42.3021 12.9748 42.0874L13.2453 41.9653V42.2621C13.2453 42.9824 13.649 44.7794 15.2788 46.0389C16.0581 46.641 17.0117 46.6722 17.9152 46.4454C18.8193 46.2184 19.6437 45.739 20.1225 45.3683L20.688 44.9305L20.4172 45.5923C20.2953 45.8904 20.2664 46.3748 20.6034 46.8397C20.9424 47.3074 21.6752 47.7873 23.1434 48.0132C24.595 48.2365 25.5364 47.9083 26.1277 47.435C26.7248 46.957 26.9862 46.3142 27.0444 45.8777L27.0666 45.7114H27.8659C27.7966 45.6053 27.7232 45.4792 27.6473 45.3387C27.4513 44.9761 27.2296 44.5016 27.006 43.9891C26.5809 43.0148 26.1434 41.8907 25.8536 41.1079C25.2077 41.0668 24.5022 40.7344 24.0106 40.1588C23.4778 39.5351 23.2004 38.6311 23.5043 37.5167C23.7486 36.6209 24.2491 36.1263 24.7897 35.8854C25.2579 35.6767 25.7427 35.6639 26.093 35.7243C26.1957 35.5571 26.3583 35.2407 26.4752 34.8317C26.5287 34.6445 26.4541 34.3541 26.256 34.0436C26.0633 33.7416 25.7845 33.4704 25.5162 33.3292L25.0934 33.1067L25.5528 32.9754L25.5533 32.9753C25.563 32.9725 25.5664 32.9715 25.577 32.9559C25.5952 32.9289 25.6173 32.8795 25.6513 32.7778C25.6676 32.7292 25.6856 32.6717 25.7066 32.6048C25.7688 32.4065 25.8568 32.1256 26.0015 31.7494C26.1804 31.2843 26.2011 30.8491 26.1357 30.4975C26.0694 30.1407 25.9179 29.8847 25.7703 29.7617L25.2513 29.3292L25.92 29.4248C26.0591 29.4446 26.2552 29.424 27.0286 28.8826C27.3434 28.6623 27.4926 28.261 27.5346 27.8029C27.576 27.3498 27.5077 26.8839 27.4323 26.5972L27.2922 26.0648L27.7326 26.3951C27.9403 26.5509 28.6369 26.845 29.5734 26.5569C30.0145 26.4211 30.3581 26.0919 30.6109 25.7157C30.8633 25.34 31.0129 24.9354 31.072 24.684L31.1508 24.3492L31.3941 24.5924C31.6443 24.8427 32.4686 25.3537 33.6302 25.2085C34.7898 25.0635 35.1458 24.4358 35.1907 24.2113L35.3203 23.5634L35.5575 24.18C35.7876 24.7783 36.0543 25.1232 36.394 25.3462C36.7406 25.5736 37.1843 25.6889 37.8031 25.7841C38.2912 25.8592 38.71 25.8728 39.0192 25.8293C39.1739 25.8075 39.2928 25.7725 39.377 25.7298C39.4609 25.6873 39.4993 25.6432 39.5159 25.6068L39.8819 25.6861C39.8819 26.2868 40.0428 27.0599 40.701 27.8643C41.3414 28.647 42.0249 28.7229 42.2953 28.753L42.3864 28.7631L42.436 28.8364C43.5629 30.5022 44.4063 33.412 44.767 36.3219C44.9479 37.7808 45.0086 39.2483 44.9208 40.571C44.8419 41.7602 44.6423 42.8428 44.2952 43.6986C44.4942 43.6968 44.7314 43.6903 44.971 43.669C45.3537 43.6348 45.7059 43.5649 45.9155 43.4392C46.3433 43.1825 46.5852 42.7879 46.7443 42.352C46.8533 42.0538 46.9173 41.7594 46.9781 41.4793C47.0092 41.3367 47.0394 41.1978 47.0743 41.0639L47.1415 40.8064L47.3644 40.9518C47.7179 41.1824 48.3169 41.4887 48.9531 41.6525C49.5954 41.818 50.2322 41.8275 50.7012 41.526C50.9272 41.3807 51.1173 41.1288 51.2722 40.7933C51.4264 40.4594 51.5388 40.0576 51.6177 39.6329C51.7756 38.7833 51.7946 37.8696 51.7633 37.29L51.7489 37.0231L52.0063 37.0952C52.7564 37.3052 54.5386 37.3104 55.6267 35.642C56.1599 34.8245 56.1283 33.94 55.8574 33.1473C55.5853 32.3509 55.0767 31.6661 54.6936 31.283L54.52 31.1095L54.7305 30.9832C54.7524 30.9701 54.7735 30.9575 54.794 30.9453C55.0023 30.8217 55.1447 30.7371 55.3054 30.5008C55.4912 30.2276 55.7001 29.7492 55.9869 28.7929C56.1941 28.1022 55.9689 27.3952 55.5706 26.7713C55.1734 26.1489 54.6218 25.6388 54.238 25.3625L54.1101 25.2704L54.1758 25.1271C54.3448 24.7584 54.5745 24.1035 54.705 23.3537C54.8357 22.6023 54.8636 21.7731 54.6455 21.0462C54.4372 20.3517 53.8203 19.809 53.0915 19.4106C52.3678 19.015 51.5687 18.7813 51.058 18.6885L50.7961 18.6408L50.9244 18.4076C51.2345 17.8437 51.5522 16.09 49.9789 13.9174C49.2117 12.8578 48.2714 12.5088 47.407 12.4923C46.532 12.4756 45.7257 12.8004 45.2557 13.1037L44.8798 13.3461L44.9635 12.9068C45.086 12.264 45.0899 11.2542 44.7064 10.3284C44.3272 9.41277 43.5676 8.57262 42.1384 8.24281C40.7018 7.91129 39.5667 8.27129 38.7263 8.8532C37.8798 9.43925 37.3309 10.2522 37.0876 10.815L36.7223 10.7098C36.7461 10.5546 36.7122 10.2838 36.4998 10.0242C36.2896 9.76726 35.8907 9.50519 35.1586 9.39538C33.7078 9.17776 33.0249 9.9083 32.8698 10.2443L32.652 10.7162L32.5113 10.2159C32.3747 9.72998 32.034 8.99744 31.4625 8.39925ZM32.7535 9.73758C32.5606 9.24456 32.2284 8.64615 31.7397 8.13451C31.1146 7.48017 30.2263 6.96161 29.0482 7.00223C27.8744 7.04271 27.0662 7.57707 26.5393 8.22771C26.0943 8.77711 25.8497 9.40865 25.7451 9.89785C25.3731 9.78544 24.7338 9.73055 23.9203 9.98086C23.3801 10.1471 22.8831 10.5221 22.4871 10.9083C22.1853 11.2026 21.9334 11.512 21.7563 11.7612C21.3893 11.3982 20.8109 11.2166 20.1952 11.206C19.461 11.1934 18.63 11.4206 17.9247 11.9244C17.3448 12.3386 17.0216 12.9223 16.8517 13.473C16.7265 13.8791 16.6823 14.2743 16.6817 14.5851C16.2133 14.4831 15.4258 14.5483 14.4805 15.1786C13.3925 15.9039 12.984 17.1066 12.8852 17.7898C11.6512 17.5797 10.6198 18.256 9.84516 19.1506C9.02455 20.0983 8.45358 21.3302 8.1768 22.1767C7.84726 23.1659 8.10862 24.0563 8.55415 24.7544C8.92101 25.3292 9.4177 25.783 9.8341 26.0741C9.48753 26.3591 8.99009 26.9406 8.56647 27.9088C8.27369 28.578 8.33776 29.2524 8.52695 29.8124C8.66116 30.2096 8.86055 30.5567 9.05089 30.8165C8.58484 30.947 8.09956 31.3145 7.72396 31.8383C7.24246 32.5099 6.91827 33.4655 7.01809 34.6135C7.15038 36.1348 7.84587 37.0477 8.36962 37.4571C8.00817 37.7355 7.77422 38.2541 7.72462 38.8692C7.66078 39.6608 7.89158 40.6611 8.58259 41.6977C9.16468 42.5708 10.0645 42.8662 10.9238 42.8896C11.6493 42.9094 12.3626 42.7371 12.8766 42.5425C12.9649 43.4593 13.4788 45.1323 15.0445 46.3421C15.9515 47.043 17.042 47.0598 18.0085 46.8171C18.7529 46.6302 19.4413 46.2859 19.9518 45.9567C19.9349 46.2966 20.0209 46.6891 20.2931 47.0647C20.7158 47.6478 21.564 48.158 23.0852 48.392C24.623 48.6286 25.6778 48.2861 26.3672 47.7342C26.9809 47.2429 27.2886 46.5987 27.3955 46.0947H28.2883L28.374 45.7316C28.374 45.7316 28.3705 45.7297 28.3632 45.7238C28.3552 45.7174 28.3447 45.7078 28.3317 45.6941C28.3055 45.6666 28.2739 45.6277 28.2373 45.5761C28.164 45.473 28.0788 45.3311 27.9844 45.1565C27.796 44.8079 27.5793 44.3446 27.3573 43.8359C26.9138 42.8192 26.4553 41.6349 26.1686 40.8546L26.1225 40.729H25.9887C25.424 40.729 24.7579 40.4437 24.302 39.9099C23.8527 39.3839 23.6031 38.6111 23.8741 37.6176C24.0896 36.8271 24.5153 36.4273 24.9457 36.2355C25.3854 36.0395 25.8484 36.0528 26.1339 36.1242L26.2573 36.155L26.3337 36.0533C26.4442 35.9059 26.6843 35.4949 26.8437 34.937C26.9435 34.5876 26.7946 34.1753 26.5791 33.8375C26.4077 33.5688 26.1737 33.3142 25.9193 33.1303C25.9574 33.0629 25.9867 32.9833 26.0148 32.8995C26.0336 32.8434 26.0532 32.7808 26.0754 32.71C26.1374 32.5122 26.2195 32.2504 26.3592 31.887C26.5636 31.3557 26.5908 30.8487 26.5125 30.4274C26.4654 30.1744 26.379 29.9467 26.2655 29.7629C26.4959 29.687 26.7918 29.5162 27.2484 29.1966C27.7002 28.8804 27.8703 28.3395 27.9162 27.8378C27.9462 27.5103 27.9253 27.1807 27.884 26.9022C28.2963 27.059 28.9318 27.1553 29.6861 26.9232C30.2414 26.7523 30.6484 26.347 30.929 25.9295C31.1287 25.6323 31.2707 25.3197 31.3607 25.0591C31.8023 25.3692 32.6222 25.7207 33.6777 25.5888C34.59 25.4747 35.1139 25.0796 35.3725 24.7113C35.5894 25.1428 35.8504 25.4479 36.1837 25.6666C36.6037 25.9422 37.1181 26.0665 37.7449 26.1629C38.2533 26.2411 38.7128 26.2595 39.0727 26.2088C39.2395 26.1853 39.3921 26.146 39.5205 26.0861C39.5868 26.6876 39.8183 27.3908 40.4043 28.107C41.0782 28.9306 41.8119 29.0784 42.167 29.1238C43.2204 30.7284 44.0342 33.5256 44.3867 36.3691C44.5652 37.8086 44.6243 39.2515 44.5384 40.5457C44.4523 41.8426 44.2214 42.9775 43.8287 43.8091L43.6996 44.0826H44.002C44.0189 44.0826 44.0367 44.0826 44.0555 44.0826C44.2825 44.0828 44.6405 44.0832 45.005 44.0507C45.3914 44.0162 45.8217 43.9424 46.1127 43.7678C46.643 43.4496 46.9282 42.9659 47.1043 42.4835C47.2218 42.162 47.2971 41.8176 47.3612 41.5239C47.3695 41.4863 47.3775 41.4495 47.3854 41.4138C47.7678 41.6343 48.2968 41.8792 48.8575 42.0237C49.5358 42.1984 50.3044 42.2367 50.9085 41.8484C51.2191 41.6487 51.4489 41.3249 51.6202 40.954C51.7922 40.5814 51.9122 40.1461 51.9945 39.7029C52.1378 38.932 52.171 38.1166 52.1559 37.5211C53.0986 37.6878 54.8445 37.5429 55.9478 35.8513C56.5644 34.9058 56.5162 33.8899 56.2201 33.0234C55.9635 32.2724 55.517 31.6195 55.1317 31.189C55.2963 31.0847 55.4588 30.9568 55.6223 30.7163C55.8437 30.3907 56.066 29.8631 56.354 28.903C56.6068 28.0606 56.321 27.2346 55.8937 26.5651C55.5066 25.9587 54.9888 25.4562 54.5866 25.1446C54.7583 24.7361 54.9614 24.116 55.0826 23.4193C55.2185 22.6377 55.2545 21.7422 55.0126 20.9361C54.7611 20.0975 54.0366 19.4904 53.2754 19.0743C52.6145 18.7131 51.8991 18.4809 51.3663 18.3605C51.6888 17.5166 51.7811 15.7526 50.2894 13.6926C49.4469 12.5292 48.391 12.1277 47.4143 12.1091C46.6389 12.0943 45.919 12.3203 45.3961 12.5835C45.4624 11.9058 45.4064 11.0168 45.0605 10.1817C44.6381 9.16185 43.7848 8.22942 42.2246 7.86936C40.6717 7.51102 39.4274 7.90157 38.5081 8.5381C37.8328 9.00563 37.3336 9.6049 37.0111 10.1357C36.9614 10.0176 36.8914 9.89763 36.7965 9.7816C36.5117 9.43335 36.0164 9.1365 35.2154 9.01636C33.9441 8.82566 33.1467 9.2901 32.7535 9.73758Z" fill="black"/>
</svg>
