<svg width="64" height="64" viewBox="0 0 64 64" fill="none" xmlns="http://www.w3.org/2000/svg">
<rect width="64" height="64" rx="4" fill="white"/>
<path d="M8.42601 38.8149C8.32052 37.971 10.5357 27.0004 11.0632 25.629C11.1835 25.3162 11.3524 24.2953 11.5455 22.8864C12.2235 23.0974 14.9662 22.8864 16.0211 20.6712C16.654 19.0889 16.232 17.612 15.0717 14.9749C16.0211 15.8188 16.654 16.0297 17.1814 17.4011C17.4248 18.034 17.6034 18.8779 18.8692 18.8779C19.3966 18.4559 19.0802 17.823 18.8692 16.9791C18.4472 15.8188 18.1308 15.0804 17.4979 14.2365C17.1814 13.8145 14.7552 12.8652 14.1223 10.9664C21.8228 14.4475 28.8645 14.4577 29.5233 14.4475C36.2745 14.342 40.5291 9.80604 41.8653 7.59082C41.7246 10.6851 42.1817 16.6627 42.7092 18.245C43.2366 19.5108 43.4476 27.6333 43.5531 28.6881C43.6375 29.532 44.8189 33.9625 45.0299 36.5996C45.0299 38.1819 45.1143 39.722 45.0299 40.3972C44.9244 41.2411 38.7664 44.4519 37.0129 44.8276C35.5361 45.1441 34.1296 45.3902 33.5318 45.566C33.3912 45.3902 33.2154 44.4057 33.0044 44.0892C32.5948 43.4748 31.3166 36.1777 31.3166 34.3844V27.6333C31.3166 26.5362 30.1914 24.0116 29.6288 22.8864C29.1717 23.0622 28.1098 23.6248 27.5191 24.4687C26.9284 25.3126 25.1632 31.4308 24.249 34.3844C24.0029 37.8655 23.8819 44.3869 23.0887 44.8276C22.1393 45.355 17.8143 45.1441 16.1265 44.8276C14.4388 44.5111 10.5358 42.9288 9.79735 42.1904C8.79122 41.1843 8.5104 39.49 8.42601 38.8149Z" fill="#F22152"/>
<path fill-rule="evenodd" clip-rule="evenodd" d="M29.5201 14.2371C36.1747 14.1331 40.3719 9.65885 41.6846 7.48242L42.076 7.60097C42.0063 9.13585 42.0847 11.3942 42.247 13.469C42.3281 14.5056 42.4299 15.4935 42.544 16.3196C42.6581 17.1452 42.7827 17.7955 42.9071 18.172C42.982 18.3554 43.045 18.6392 43.1008 18.9804C43.1582 19.3318 43.2106 19.7619 43.2586 20.242C43.3547 21.2025 43.434 22.373 43.5 23.5343C43.5644 24.6681 43.616 25.7888 43.658 26.7014C43.7024 27.6668 43.7362 28.3993 43.763 28.6677C43.7826 28.8635 43.8687 29.2843 43.9959 29.8649C44.0429 30.0798 44.0953 30.3154 44.1511 30.5666C44.244 30.9846 44.3465 31.4459 44.4503 31.9276C44.7824 33.4695 45.1334 35.2491 45.2402 36.5834L45.2409 36.5918V36.6002C45.2409 37.1662 45.2517 37.7257 45.2617 38.2442C45.2657 38.4485 45.2695 38.6464 45.2725 38.8358C45.283 39.4987 45.2836 40.0686 45.2392 40.4239C45.226 40.5295 45.1711 40.6265 45.1118 40.7072C45.0498 40.7918 44.9671 40.8798 44.8708 40.9694C44.6779 41.1489 44.4122 41.3518 44.0988 41.5671C43.4706 41.9986 42.6289 42.4948 41.7395 42.9742C40.8494 43.454 39.9072 43.9194 39.0762 44.2888C38.2504 44.656 37.519 44.9355 37.0571 45.0345C36.4921 45.1555 35.9368 45.2664 35.4346 45.3668C35.279 45.3978 35.1285 45.4279 34.9844 45.4569C34.3705 45.5806 33.8795 45.6842 33.5914 45.769L33.4555 45.8089L33.3671 45.6984C33.3306 45.6528 33.3034 45.596 33.283 45.5475C33.261 45.4953 33.2397 45.4348 33.2191 45.3712C33.1839 45.2629 33.1472 45.134 33.1103 45.0041C33.1041 44.9824 33.0979 44.9606 33.0916 44.9389C33.0476 44.7848 33.0029 44.6317 32.9567 44.4984C32.9091 44.3609 32.8656 44.2619 32.8289 44.2068C32.7884 44.146 32.7524 44.0612 32.7197 43.9713C32.6854 43.8771 32.6491 43.7609 32.6113 43.6274C32.5356 43.36 32.4511 43.0132 32.3619 42.6121C32.1836 41.8094 31.9848 40.7803 31.7991 39.7157C31.4291 37.5948 31.1057 35.3034 31.1057 34.385V27.6338C31.1057 27.389 31.0417 27.0478 30.9289 26.6444C30.817 26.2446 30.6613 25.7979 30.4869 25.3471C30.173 24.5356 29.8021 23.7203 29.5277 23.1586C29.0331 23.3836 28.183 23.8888 27.6919 24.5902C27.6323 24.6754 27.5475 24.8445 27.441 25.0981C27.3366 25.3469 27.2171 25.6626 27.0863 26.03C26.8248 26.7646 26.5211 27.6978 26.2067 28.6992C25.8304 29.8973 25.441 31.1855 25.0905 32.3447C24.8572 33.1165 24.6412 33.8311 24.4578 34.4241C24.4037 35.1937 24.3556 36.1106 24.3048 37.0789C24.2986 37.1967 24.2924 37.3153 24.2861 37.4344C24.2278 38.5421 24.1647 39.6996 24.0844 40.7626C24.0042 41.8243 23.9064 42.798 23.7779 43.5362C23.7137 43.9046 23.6406 44.2222 23.5553 44.4655C23.5126 44.5871 23.4648 44.6965 23.4097 44.7865C23.3562 44.8741 23.2859 44.96 23.1911 45.0126C23.0448 45.0939 22.849 45.1535 22.629 45.1991C22.4059 45.2455 22.1437 45.2802 21.856 45.3053C21.2806 45.3557 20.5902 45.3688 19.8806 45.3556C18.4633 45.3291 16.9473 45.1967 16.0877 45.0355C15.2219 44.8732 13.808 44.3917 12.5255 43.8629C11.8822 43.5976 11.2665 43.3181 10.7634 43.0574C10.2685 42.8009 9.85862 42.5506 9.64818 42.3402C9.11215 41.8041 8.77711 41.094 8.56545 40.4445C8.35305 39.7927 8.25966 39.1855 8.21668 38.8416C8.20703 38.7645 8.21173 38.652 8.22221 38.5259C8.23318 38.3938 8.25234 38.2281 8.27832 38.0347C8.33033 37.6476 8.41076 37.1416 8.51149 36.5562C8.71302 35.385 8.99691 33.8897 9.30042 32.3788C9.60394 30.8678 9.92736 29.3397 10.208 28.103C10.4869 26.8747 10.7277 25.9142 10.8663 25.5539C10.9176 25.4203 10.987 25.1083 11.0692 24.6333C11.15 24.1664 11.2401 23.5618 11.3365 22.8583L11.3704 22.6115L11.6082 22.6855C11.7418 22.7271 12.0105 22.7548 12.3684 22.7308C12.7207 22.7072 13.1421 22.6346 13.5748 22.4892C14.439 22.1987 15.3313 21.6244 15.8277 20.5871C16.4206 19.0983 16.0398 17.6996 14.8786 15.0604L15.2119 14.8178C15.4205 15.0032 15.618 15.16 15.8052 15.3085C16.4381 15.8107 16.9526 16.219 17.3783 17.3259C17.4039 17.3923 17.4278 17.4578 17.4514 17.5223C17.5492 17.7899 17.6401 18.0384 17.8063 18.2452C17.986 18.4687 18.2649 18.65 18.791 18.6663C18.8585 18.5999 18.8976 18.5313 18.92 18.4595C18.949 18.3666 18.9544 18.2546 18.9368 18.1135C18.919 17.9716 18.8799 17.8129 18.8291 17.6293C18.8143 17.5761 18.7985 17.5205 18.7822 17.463C18.7446 17.3307 18.7041 17.1882 18.6672 17.0416C18.2493 15.893 17.9413 15.1799 17.3291 14.3636C17.3108 14.3392 17.2621 14.2942 17.1651 14.2248C17.0729 14.1588 16.9546 14.0827 16.8133 13.9935C16.7818 13.9736 16.7493 13.9532 16.716 13.9321C16.4527 13.7664 16.1326 13.5649 15.8047 13.3264C15.0694 12.7917 14.26 12.0471 13.9222 11.0337L13.7696 10.576L14.2092 10.7747C21.8697 14.2377 28.8762 14.2471 29.5201 14.2371ZM29.9323 23.0256C30.2082 23.5937 30.5711 24.3951 30.8805 25.1948C31.0577 25.653 31.2185 26.1134 31.3352 26.5307C31.4509 26.9443 31.5276 27.3302 31.5276 27.6338V34.385C31.5276 35.2599 31.8433 37.5136 32.2148 39.6432C32.3998 40.7038 32.5973 41.7263 32.7738 42.5206C32.8622 42.9181 32.9447 43.2561 33.0173 43.5124C33.0536 43.6407 33.0868 43.7461 33.1162 43.8271C33.1473 43.9125 33.1693 43.9567 33.18 43.9727C33.2487 44.0758 33.3063 44.2186 33.3554 44.3602C33.4059 44.5059 33.4535 44.6693 33.4974 44.8229C33.5038 44.8455 33.5102 44.8678 33.5164 44.8898C33.5536 45.0204 33.5879 45.1406 33.6205 45.2411C33.6294 45.2686 33.6379 45.2938 33.6461 45.3166C33.9575 45.2364 34.3958 45.1451 34.9011 45.0433C35.0465 45.014 35.1979 44.9837 35.3542 44.9525C35.8558 44.8523 36.4069 44.7423 36.9687 44.6219C37.3835 44.533 38.0795 44.2702 38.9048 43.9033C39.7249 43.5387 40.6575 43.0781 41.5393 42.6028C42.4218 42.1271 43.249 41.6389 43.8599 41.2193C44.166 41.009 44.4124 40.8196 44.5833 40.6605C44.6689 40.5809 44.731 40.513 44.7716 40.4576C44.8151 40.3984 44.8206 40.3714 44.8205 40.3716C44.8605 40.0517 44.8612 39.514 44.8506 38.8425C44.8476 38.6559 44.8438 38.4599 44.8399 38.2567C44.8299 37.7393 44.819 37.1762 44.8189 36.6087C44.7139 35.3067 44.3695 33.5567 44.0378 32.0164C43.9342 31.5353 43.8324 31.0776 43.7398 30.661C43.6839 30.4094 43.6313 30.1728 43.5837 29.9552C43.4589 29.3854 43.3658 28.9358 43.3432 28.7097C43.3155 28.4333 43.2807 27.6779 43.2352 26.6926C43.1931 25.7793 43.1418 24.6684 43.0787 23.5582C43.0129 22.3988 42.9339 21.2354 42.8388 20.284C42.7912 19.8081 42.7398 19.3877 42.6843 19.0485C42.628 18.7038 42.57 18.4601 42.5144 18.3267L42.5115 18.3196L42.509 18.3123C42.3705 17.8965 42.241 17.2092 42.126 16.3773C42.0105 15.5408 41.9079 14.5443 41.8264 13.5019C41.6878 11.73 41.6093 9.8174 41.6326 8.32577C39.9303 10.7079 35.7887 14.5611 29.5267 14.659C28.8672 14.6693 22.0761 14.6588 14.5318 11.3793C14.8889 12.0361 15.4725 12.5631 16.0529 12.9852C16.3686 13.2148 16.6765 13.4087 16.9405 13.5749C16.9739 13.5959 17.0067 13.6165 17.0386 13.6367C17.1791 13.7255 17.3072 13.8076 17.4107 13.8817C17.5095 13.9524 17.6059 14.0294 17.6667 14.1105C18.3185 14.9796 18.6434 15.7415 19.0675 16.9076L19.0712 16.9179L19.0739 16.9285C19.1098 17.0722 19.1482 17.2075 19.186 17.3403C19.2028 17.3994 19.2195 17.4581 19.2357 17.5168C19.2871 17.7024 19.3336 17.8865 19.3555 18.0611C19.3774 18.2365 19.3761 18.4145 19.3228 18.5854C19.2682 18.7601 19.1634 18.9133 19.001 19.0432L18.9432 19.0894H18.8692C18.1805 19.0894 17.7557 18.8555 17.4775 18.5096C17.263 18.2428 17.1432 17.9122 17.045 17.6413C17.0241 17.5835 17.0042 17.5285 16.9845 17.4774C16.6099 16.5034 16.201 16.1655 15.6103 15.6953C16.5085 17.8541 16.8151 19.2547 16.217 20.7501L16.2144 20.7563L16.2115 20.7624C15.6525 21.9365 14.6478 22.5736 13.7092 22.8891C13.2396 23.047 12.7823 23.126 12.3966 23.1518C12.142 23.1689 11.9106 23.1633 11.7238 23.1385C11.6386 23.75 11.5582 24.2819 11.485 24.7053C11.4043 25.1712 11.3291 25.526 11.2601 25.7053C11.135 26.0306 10.9011 26.9558 10.6195 28.1964C10.3398 29.4288 10.0171 30.9533 9.7141 32.4618C9.41105 33.9705 9.12796 35.4617 8.92732 36.6277C8.82696 37.211 8.74752 37.7112 8.69651 38.0909C8.67099 38.2809 8.65285 38.4388 8.64271 38.5608C8.63207 38.6888 8.63182 38.7609 8.63536 38.7893C8.67676 39.1205 8.76599 39.698 8.96663 40.3137C9.16801 40.9317 9.47645 41.5717 9.94654 42.0418C10.1053 42.2006 10.4602 42.425 10.9575 42.6828C11.4467 42.9363 12.0507 43.2106 12.6864 43.4728C13.9619 43.9988 15.3434 44.4667 16.1654 44.6208C16.9936 44.7761 18.484 44.9074 19.8885 44.9337C20.5897 44.9468 21.264 44.9336 21.8193 44.885C22.097 44.8607 22.3416 44.8279 22.5433 44.786C22.7481 44.7435 22.8952 44.6943 22.9862 44.6437C22.9906 44.6413 23.0142 44.6245 23.0497 44.5665C23.0837 44.5109 23.12 44.4316 23.1571 44.3259C23.2312 44.1146 23.2996 43.8232 23.3622 43.4638C23.4871 42.7466 23.5837 41.7897 23.6636 40.7308C23.7435 39.6732 23.8064 38.5202 23.8647 37.4122C23.871 37.2931 23.8772 37.1745 23.8834 37.0565C23.9347 36.0789 23.9835 35.1488 24.0386 34.3701L24.0403 34.3458L24.0475 34.3226C24.2304 33.7318 24.4484 33.0106 24.6846 32.2293C25.0362 31.0664 25.428 29.7704 25.8041 28.5728C26.119 27.5699 26.4246 26.6307 26.6888 25.8885C26.8208 25.5175 26.9433 25.1937 27.052 24.9348C27.1586 24.6808 27.2582 24.4741 27.3463 24.3483C27.9714 23.4552 29.0779 22.8728 29.5531 22.69L29.5652 22.6854L29.5777 22.6823C29.8576 22.6123 30.514 22.4323 30.9218 22.2691L31.0785 22.6609C30.7434 22.7949 30.2644 22.9356 29.9323 23.0256Z" fill="black"/>
<path d="M31.8442 17.2964C32.1817 16.3681 31.9848 14.9405 31.8442 14.3428C31.5277 14.3428 29.418 14.5537 29.418 14.5537C29.418 14.5537 29.5938 16.5932 29.5235 17.5074L31.8442 17.2964Z" fill="#E95F80"/>
<path fill-rule="evenodd" clip-rule="evenodd" d="M29.418 14.5538L29.2078 14.5719L29.2097 14.5945C29.211 14.6095 29.2128 14.6317 29.2151 14.6603C29.2198 14.7174 29.2263 14.8002 29.234 14.9025C29.2493 15.107 29.269 15.3892 29.2865 15.6996C29.3217 16.3251 29.3471 17.0501 29.3131 17.4912L29.294 17.7401L31.9967 17.4944L32.0425 17.3685C32.2253 16.8657 32.2594 16.2439 32.2343 15.6862C32.2091 15.1247 32.1227 14.6053 32.0496 14.2945L32.0113 14.1318H31.8442C31.6733 14.1318 31.0528 14.1861 30.4929 14.2382C30.209 14.2646 29.935 14.291 29.7321 14.3108C29.6306 14.3207 29.5469 14.329 29.4885 14.3348L29.3971 14.3438C29.3971 14.3438 29.397 14.3439 29.418 14.5538ZM29.645 14.7433C29.648 14.7815 29.6513 14.8242 29.6548 14.871C29.6702 15.0774 29.6901 15.3622 29.7078 15.6759C29.7372 16.1985 29.7612 16.8119 29.7467 17.2753L31.6871 17.0989C31.807 16.6928 31.8346 16.1913 31.8128 15.7051C31.793 15.2656 31.7336 14.8535 31.6756 14.5615C31.4236 14.5777 30.9723 14.6174 30.532 14.6584C30.2489 14.6847 29.9756 14.711 29.7731 14.7308C29.7264 14.7354 29.6834 14.7396 29.645 14.7433ZM29.418 14.5538L29.3971 14.3438L29.1899 14.3646L29.2078 14.5719L29.418 14.5538Z" fill="black"/>
<path d="M41.8655 10.9674C42.0764 12.5496 32.7936 17.2965 31.8442 17.2965C32.0552 16.5581 32.0974 14.9969 31.8442 14.2374C34.2704 13.921 39.1228 11.8112 41.8655 7.69727V10.9674Z" fill="#991635"/>
<path fill-rule="evenodd" clip-rule="evenodd" d="M42.0763 7V10.9544C42.0921 11.1017 42.0537 11.2493 41.9892 11.3877C41.9222 11.5318 41.8207 11.6796 41.696 11.8286C41.4466 12.1263 41.0844 12.4521 40.6518 12.7897C39.7849 13.4661 38.6049 14.2135 37.3948 14.9078C36.1835 15.6028 34.9356 16.2483 33.9297 16.7206C33.427 16.9567 32.9825 17.1505 32.6319 17.2858C32.4568 17.3534 32.3025 17.4074 32.1747 17.4449C32.0528 17.4805 31.9359 17.5071 31.8441 17.5071C31.7779 17.5071 31.7155 17.476 31.6756 17.4231C31.6358 17.3703 31.623 17.3018 31.6412 17.2381C31.7394 16.8946 31.802 16.3409 31.8072 15.7725C31.8124 15.202 31.7593 14.6499 31.6439 14.3037L31.563 14.0609L31.8168 14.0278C32.9962 13.8739 34.7892 13.2791 36.63 12.2086C38.4687 11.1392 40.3405 9.60366 41.6898 7.57977L42.0763 7ZM32.1104 14.4106C32.199 14.8013 32.2335 15.2968 32.2291 15.7764C32.2251 16.2148 32.1884 16.6585 32.123 17.0195C32.2232 16.9878 32.3427 16.9452 32.4799 16.8922C32.8179 16.7618 33.2527 16.5724 33.7504 16.3387C34.7455 15.8715 35.9831 15.2314 37.1848 14.5419C38.3877 13.8517 39.5482 13.1157 40.3922 12.457C40.815 12.1271 41.1508 11.8224 41.3725 11.5577C41.4832 11.4254 41.5605 11.309 41.6067 11.2097C41.6533 11.1096 41.6622 11.0401 41.6562 10.9948L41.6543 10.9809V8.3627C40.3031 10.1822 38.5535 11.578 36.8421 12.5733C35.081 13.5975 33.3475 14.2049 32.1104 14.4106Z" fill="black"/>
<path d="M18.4475 15.8192C20.3884 17.2538 26.6403 17.5421 29.5236 17.5069V14.5533C24.629 14.8065 17.2871 12.3381 14.228 11.0723C14.65 12.4436 17.1817 13.8149 17.6036 14.2369C17.9412 14.5744 18.3068 15.4324 18.4475 15.8192Z" fill="#991635"/>
<path fill-rule="evenodd" clip-rule="evenodd" d="M13.8945 10.7061L14.3086 10.8774C15.83 11.507 18.4213 12.4374 21.2411 13.1785C24.0648 13.9206 27.0985 14.4676 29.5126 14.3427L29.7345 14.3312V17.7155L29.5261 17.718C28.0777 17.7357 25.7849 17.6722 23.6082 17.4239C22.52 17.2998 21.4563 17.1291 20.5398 16.8977C19.6286 16.6677 18.8412 16.3727 18.322 15.9889L18.2709 15.9511L18.2492 15.8913C18.1811 15.7043 18.0576 15.4004 17.9103 15.1033C17.7598 14.7997 17.5967 14.5285 17.4544 14.3861C17.3662 14.298 17.1507 14.147 16.8376 13.9309C16.8274 13.9239 16.8171 13.9168 16.8068 13.9097C16.5099 13.7048 16.1488 13.4556 15.7873 13.178C15.4135 12.891 15.0339 12.5696 14.7192 12.2292C14.4065 11.8911 14.1452 11.5208 14.0263 11.1344L13.8945 10.7061ZM14.6559 11.473C14.7571 11.6279 14.8831 11.785 15.029 11.9428C15.3208 12.2584 15.6796 12.5634 16.0442 12.8433C16.3971 13.1143 16.7505 13.3582 17.0486 13.5639C17.0582 13.5705 17.0678 13.5771 17.0773 13.5837L17.081 13.5863C17.373 13.7878 17.6304 13.9655 17.7527 14.0878C17.948 14.283 18.1365 14.6095 18.2884 14.9159C18.4284 15.1985 18.5476 15.4855 18.6229 15.6856C19.0766 16.0033 19.7785 16.2703 20.6431 16.4886C21.5348 16.7137 22.5783 16.8818 23.656 17.0047C25.7097 17.2389 27.8719 17.3072 29.3126 17.298V14.7737C26.8715 14.859 23.8855 14.3097 21.1338 13.5866C18.5869 12.9172 16.2252 12.0946 14.6559 11.473Z" fill="black"/>
<path d="M38.4901 17.5069C38.0682 16.7474 37.9275 15.1158 37.9627 14.3423C38.5956 14.0961 40.2834 12.9709 41.8657 11.5996C41.8657 12.7811 42.4283 16.7333 42.7096 18.5617C41.0218 20.7769 39.0176 18.4562 38.4901 17.5069Z" fill="#E95F80"/>
<path fill-rule="evenodd" clip-rule="evenodd" d="M42.0762 11.1377V11.5997C42.0762 12.174 42.2146 13.4427 42.3909 14.8112C42.5665 16.1734 42.7772 17.6168 42.9177 18.5298L42.9313 18.6184L42.8769 18.6897C42.4315 19.2743 41.9473 19.5818 41.4499 19.6726C40.9551 19.7629 40.4805 19.6326 40.0637 19.4066C39.2384 18.959 38.5805 18.1049 38.3052 17.6094C38.0743 17.1937 37.9297 16.5631 37.8456 15.9591C37.7606 15.349 37.7332 14.7346 37.7515 14.3328L37.7577 14.1955L37.8858 14.1457C38.1768 14.0326 38.739 13.7029 39.4377 13.2195C40.1305 12.7402 40.942 12.1207 41.7271 11.4403L42.0762 11.1377ZM38.1689 14.4833C38.1624 14.8542 38.1906 15.3772 38.2635 15.9008C38.3464 16.4958 38.4831 17.0607 38.6741 17.4045C38.9263 17.8584 39.5342 18.6394 40.2649 19.0357C40.626 19.2316 41.0019 19.3254 41.3741 19.2575C41.7268 19.1931 42.1065 18.9779 42.4868 18.5038C42.3462 17.5852 42.1429 16.1875 41.9725 14.8651C41.8323 13.7776 41.7128 12.7295 41.6706 12.0428C40.98 12.6218 40.2849 13.1465 39.6778 13.5665C39.0605 13.9935 38.5219 14.321 38.1689 14.4833Z" fill="black"/>
<path d="M16.2321 18.3511C16.5696 17.9291 16.5485 16.8743 16.5485 16.3468L15.3882 15.3975L16.2321 18.3511Z" fill="#E95F80"/>
<path fill-rule="evenodd" clip-rule="evenodd" d="M15.0005 14.8076L16.7598 16.2471V16.347C16.7598 16.3746 16.7599 16.4039 16.7599 16.4347C16.7605 16.6931 16.7613 17.0561 16.7272 17.409C16.7081 17.607 16.6775 17.8077 16.6277 17.9899C16.5786 18.1698 16.5069 18.3458 16.3971 18.4831L16.1418 18.8022L15.0005 14.8076ZM15.7765 15.9877L16.2631 17.6909C16.282 17.5891 16.2964 17.4805 16.3072 17.3684C16.3387 17.0425 16.3385 16.7058 16.338 16.4471L15.7765 15.9877Z" fill="black"/>
<path d="M11.0634 41.0307C10.3405 40.5488 8.91855 39.0968 8.42628 38.3936C8.2575 39.4906 9.19985 41.312 9.58664 41.9801C10.4305 42.7185 12.6157 43.8608 14.65 44.5118C17.2872 45.3557 22.8779 45.2502 23.1944 44.8282C23.4476 44.4907 23.5812 43.6327 23.6164 43.2459C19.9243 44.1953 17.7091 43.6679 16.0213 43.2459C14.4863 42.8622 12.0128 41.6636 11.0634 41.0307Z" fill="#991635"/>
<path fill-rule="evenodd" clip-rule="evenodd" d="M8.29764 37.8418L8.59907 38.2724C8.8347 38.609 9.3031 39.1376 9.80806 39.6463C10.314 40.156 10.8377 40.6266 11.1804 40.855C11.6418 41.1626 12.4862 41.6151 13.4108 42.0399C14.3355 42.4647 15.3238 42.8539 16.0724 43.0411C17.744 43.459 19.92 43.9784 23.5638 43.0415L23.8535 42.967L23.8264 43.2649C23.8081 43.466 23.7647 43.7866 23.6928 44.1022C23.6233 44.4075 23.5192 44.7465 23.3631 44.9547C23.3066 45.03 23.2193 45.0728 23.154 45.099C23.08 45.1288 22.99 45.1542 22.8901 45.1762C22.6894 45.2206 22.4249 45.257 22.1159 45.2854C21.4966 45.3423 20.6779 45.3688 19.7893 45.3555C18.0179 45.3291 15.9351 45.1444 14.5857 44.7126C13.5564 44.3832 12.4911 43.9303 11.5765 43.4667C10.6656 43.005 9.88963 42.5254 9.44767 42.1387L9.42146 42.1158L9.40402 42.0856C9.20727 41.7458 8.86947 41.1133 8.60145 40.424C8.33748 39.7451 8.12414 38.9695 8.21772 38.3613L8.29764 37.8418ZM8.64095 39.0065C8.69289 39.3953 8.82532 39.8354 8.99471 40.2711C9.24459 40.9137 9.55947 41.509 9.75159 41.8437C10.1589 42.1924 10.8852 42.6433 11.7672 43.0904C12.6648 43.5453 13.7092 43.9891 14.7142 44.3107C16.0019 44.7227 18.0331 44.9073 19.7956 44.9336C20.6738 44.9467 21.477 44.9204 22.0773 44.8652C22.3783 44.8376 22.623 44.8031 22.799 44.7642C22.8874 44.7447 22.9525 44.7253 22.9964 44.7076C23.017 44.6994 23.0285 44.6932 23.0339 44.69C23.1278 44.5572 23.214 44.3046 23.2814 44.0086C23.3193 43.8421 23.3488 43.6733 23.3704 43.5245C19.8078 44.3832 17.6283 43.865 15.9701 43.4505C15.1837 43.2539 14.1678 42.852 13.2346 42.4233C12.3014 41.9946 11.4344 41.5314 10.9464 41.2061C10.5662 40.9526 10.0175 40.4562 9.5086 39.9436C9.19504 39.6277 8.88946 39.2985 8.64095 39.0065Z" fill="black"/>
<path d="M36.9074 43.0349C35.6606 43.4713 33.8834 43.914 33.1099 43.9843L33.5318 45.5666C33.567 45.5314 34.4297 45.4959 37.3293 44.6172C40.8104 43.5624 43.6937 41.5933 45.0299 40.5033V38.6045C42.7091 41.5581 39.0171 42.2965 36.9074 43.0349Z" fill="#991635"/>
<path fill-rule="evenodd" clip-rule="evenodd" d="M45.2411 37.9941V40.6031L45.1635 40.6664C43.8138 41.7674 40.9063 43.7535 37.3908 44.8188C35.9362 45.2596 34.9897 45.4897 34.4003 45.6143C34.1054 45.6766 33.9006 45.7124 33.7674 45.7347C33.7468 45.7382 33.7284 45.7412 33.7119 45.744C33.6827 45.7488 33.6595 45.7527 33.6407 45.756L33.4225 45.9742L32.8418 43.7965L33.091 43.7738C33.8397 43.7058 35.5982 43.2693 36.838 42.8354C37.1802 42.7156 37.5595 42.5967 37.9643 42.4697C40.1018 41.7994 42.9542 40.9047 44.8642 38.4738L45.2411 37.9941ZM38.0608 42.8831C37.6658 43.0065 37.3007 43.1205 36.9773 43.2337C35.8402 43.6317 34.257 44.0381 33.3766 44.1644L33.6849 45.3207C33.6891 45.32 33.6933 45.3193 33.6976 45.3186C33.8267 45.2969 34.0254 45.2622 34.313 45.2015C34.8887 45.0798 35.8234 44.8528 37.2684 44.415C40.649 43.3905 43.4645 41.4928 44.8191 40.4023V39.1827C42.8333 41.3926 40.0636 42.2577 38.0608 42.8831Z" fill="black"/>
<path d="M15.4939 15.5029L15.8104 16.7688C16.162 17.0266 15.9158 16.9797 16.2323 18.6675C16.7122 21.2271 15.5994 21.7266 14.65 22.465C13.8905 23.0558 12.3645 23.1331 11.6964 23.098L11.2744 25.2077L10.2196 29.8491L8.3208 38.6045C8.3208 38.6045 10.0086 42.824 10.1141 42.5075C10.5267 41.2697 10.2196 34.0686 10.2196 34.0686C10.536 32.3808 11.4854 26.4735 11.6964 25.7351C11.8797 25.0936 11.9073 23.8364 12.6458 23.6254C13.7006 23.2035 14.5445 23.2035 15.4939 22.3596C16.4563 21.5041 17.2872 20.5663 17.6036 20.0389C17.8568 19.6169 18.553 19.2301 18.764 19.0895L18.1311 18.984L16.9707 17.0852L15.4939 15.5029Z" fill="#160E1B" fill-opacity="0.4"/>
<path d="M31.5276 22.043L29.7344 22.9923C30.5783 23.4987 31.2815 26.614 31.5276 28.1611V36.6001L32.5825 33.752C32.688 32.6971 32.1394 25.6294 32.0551 24.7855C31.9707 23.9417 31.8792 22.4649 31.5276 22.043Z" fill="#160E1B" fill-opacity="0.4"/>
<path d="M6.31654 47.4658C5.78911 45.989 8.00431 43.1408 9.27015 41.875C9.4108 42.1563 9.20683 41.8117 9.79756 42.4024C10.536 43.1408 14.8609 44.4067 15.2829 44.7231C15.7048 45.0396 21.1901 45.3561 22.034 45.1451C22.7091 44.9763 23.9328 44.8638 24.4602 44.8286C25.1986 45.2154 26.8653 46.2421 27.6248 47.2548C28.5742 48.5207 27.3205 51.3876 26.6754 51.7907C25.8315 52.3182 24.9876 52.6346 23.8273 53.0566C22.3768 53.584 20.7682 53.2676 17.3926 52.3182C15.9281 51.9063 11.8019 51.1578 9.0592 50.103C7.68787 49.3645 6.8498 48.959 6.31654 47.4658Z" fill="#3CD367"/>
<path fill-rule="evenodd" clip-rule="evenodd" d="M9.32799 41.5186L9.45889 41.7804C9.47482 41.8122 9.48661 41.8366 9.49523 41.8544C9.56528 41.8984 9.68446 41.9906 9.94678 42.253C10.018 42.3242 10.1457 42.4133 10.3308 42.5167C10.5126 42.6181 10.7372 42.7264 10.992 42.8387C11.5013 43.0633 12.1191 43.2987 12.7314 43.5226C13.0379 43.6347 13.3542 43.7478 13.6521 43.8543C13.9338 43.955 14.199 44.0499 14.4243 44.1325C14.6631 44.2201 14.8729 44.2996 15.0371 44.3677C15.1923 44.432 15.3318 44.4958 15.4095 44.5541C15.4082 44.5531 15.4084 44.5532 15.4105 44.5542C15.4162 44.5569 15.4366 44.5667 15.4813 44.5805C15.5354 44.5972 15.6087 44.6151 15.701 44.6336C15.8853 44.6706 16.1314 44.7074 16.4224 44.7425C17.0036 44.8127 17.7507 44.875 18.513 44.921C19.275 44.967 20.0492 44.9965 20.6841 45.0014C21.0017 45.0039 21.2827 45.0002 21.509 44.9895C21.7404 44.9786 21.8997 44.9609 21.9829 44.9401C22.6785 44.7662 23.9195 44.6529 24.4462 44.6178L24.5055 44.6139L24.5581 44.6415C24.9354 44.8391 25.545 45.1975 26.1573 45.6351C26.7666 46.0705 27.3942 46.5954 27.7936 47.1279C28.0673 47.4928 28.1725 47.959 28.1787 48.4379C28.1849 48.9182 28.0921 49.4298 27.9503 49.9062C27.8083 50.3833 27.6148 50.8334 27.4135 51.1928C27.3128 51.3724 27.2087 51.5321 27.1061 51.6623C27.0056 51.7898 26.8978 51.9003 26.7873 51.9694C25.9219 52.5102 25.0577 52.8334 23.8994 53.2546C22.3732 53.8095 20.6937 53.4655 17.3355 52.521C16.8997 52.3984 16.2286 52.2464 15.4231 52.0639C14.8843 51.9419 14.2853 51.8062 13.6564 51.6566C12.0979 51.2859 10.3689 50.8324 8.98351 50.2996L8.97101 50.2948L8.95922 50.2884C8.90849 50.2611 8.85833 50.2342 8.80874 50.2075C8.19624 49.8786 7.67055 49.5963 7.23702 49.2279C6.75872 48.8214 6.39583 48.3147 6.1179 47.5365C5.96384 47.1051 6.01688 46.5979 6.17606 46.0845C6.33643 45.5671 6.61291 45.0165 6.941 44.4808C7.59735 43.4092 8.47868 42.3679 9.12101 41.7255L9.32799 41.5186ZM6.57908 46.2094C6.43169 46.6848 6.40561 47.0875 6.51526 47.3945C6.7706 48.1095 7.09337 48.5521 7.51025 48.9064C7.90806 49.2444 8.39444 49.5058 9.02118 49.8427C9.06265 49.8649 9.10472 49.8876 9.14743 49.9105C10.5026 50.4305 12.2025 50.8771 13.7541 51.2461C14.3672 51.392 14.9595 51.5262 15.4969 51.648C16.3144 51.8332 17.005 51.9897 17.4498 52.1148C20.8427 53.0691 22.3805 53.3579 23.7552 52.858C24.9177 52.4353 25.7413 52.1255 26.5636 51.6115C26.6144 51.5798 26.6869 51.5126 26.7747 51.4011C26.8604 51.2924 26.9526 51.1521 27.0454 50.9865C27.2309 50.6553 27.4124 50.2341 27.5458 49.7858C27.6795 49.3369 27.7623 48.8691 27.7568 48.4433C27.7512 48.016 27.6571 47.6491 27.4561 47.3811C27.096 46.901 26.5105 46.4062 25.912 45.9784C25.3444 45.5728 24.7792 45.2373 24.4148 45.0429C23.8601 45.0822 22.7163 45.1917 22.0852 45.3495C21.9574 45.3814 21.7607 45.4 21.5289 45.411C21.2921 45.4221 21.0028 45.4258 20.6809 45.4233C20.0368 45.4184 19.255 45.3885 18.4875 45.3422C17.7203 45.2959 16.9642 45.233 16.3718 45.1614C16.0761 45.1257 15.8178 45.0874 15.618 45.0473C15.5184 45.0273 15.4297 45.0062 15.3567 44.9836C15.2901 44.963 15.2138 44.9347 15.1563 44.8916C15.1286 44.8708 15.0406 44.8258 14.8756 44.7575C14.7197 44.6928 14.5166 44.6158 14.279 44.5286C14.0417 44.4416 13.7844 44.3497 13.5105 44.2518C13.22 44.1479 12.9107 44.0374 12.5865 43.9189C11.9725 43.6944 11.3442 43.4551 10.8217 43.2248C10.5606 43.1097 10.3229 42.9954 10.1252 42.8851C9.93083 42.7766 9.76182 42.6647 9.64842 42.5513C9.35752 42.2604 9.27666 42.2147 9.26153 42.2062L9.2613 42.2061L9.25604 42.2031C9.25427 42.2021 9.25124 42.2005 9.24825 42.1988C8.64523 42.8277 7.88029 43.7551 7.30082 44.7012C6.98282 45.2204 6.72527 45.7378 6.57908 46.2094Z" fill="black"/>
<path d="M18.342 42.4016C18.0255 43.0345 18.0255 44.5113 19.1859 46.0936C19.6922 45.6717 22.9834 44.9333 24.3547 44.8278C24.4602 44.0542 24.2914 42.3805 24.0382 41.4522C23.7218 40.2919 18.6585 41.7687 18.342 42.4016Z" fill="#196B31"/>
<path fill-rule="evenodd" clip-rule="evenodd" d="M18.5431 42.4798C18.5335 42.4906 18.5305 42.4961 18.5304 42.4961C18.5304 42.4961 18.5305 42.496 18.5305 42.496C18.2695 43.0181 18.2289 44.333 19.2424 45.8091C19.2956 45.7814 19.3533 45.7546 19.4135 45.7287C19.5627 45.6644 19.7449 45.5983 19.949 45.532C20.3574 45.3995 20.8651 45.2628 21.3971 45.1368C22.3743 44.9053 23.4504 44.7056 24.1626 44.6333C24.19 44.27 24.1726 43.7571 24.1208 43.2182C24.0608 42.594 23.9568 41.9563 23.8345 41.5077C23.8181 41.4476 23.7685 41.3837 23.6354 41.3291C23.4997 41.2735 23.3036 41.24 23.053 41.2329C22.5543 41.2188 21.9015 41.3103 21.2363 41.4603C20.5735 41.6097 19.9118 41.8143 19.3991 42.019C19.1423 42.1216 18.9277 42.2223 18.7707 42.3138C18.692 42.3596 18.6319 42.4008 18.5892 42.4362C18.5681 42.4538 18.5532 42.4684 18.5431 42.4798ZM23.7954 40.9387C24.001 41.023 24.1789 41.1668 24.2416 41.3967C24.3724 41.8765 24.4795 42.5398 24.5408 43.1779C24.6018 43.813 24.6197 44.4446 24.5635 44.8563L24.5405 45.0251L24.3707 45.0382C23.7012 45.0897 22.5479 45.2978 21.4944 45.5474C20.9689 45.6719 20.4731 45.8055 20.0792 45.9334C19.8821 45.9973 19.7133 46.059 19.5804 46.1162C19.4427 46.1755 19.3595 46.2235 19.3208 46.2557L19.1483 46.3994L19.0156 46.2184C17.8244 44.5942 17.7906 43.0323 18.1531 42.3073C18.192 42.2295 18.2561 42.1644 18.3197 42.1116C18.3861 42.0564 18.4675 42.0021 18.5582 41.9492C18.7399 41.8434 18.9753 41.7339 19.2426 41.6272C19.7782 41.4133 20.4614 41.2025 21.1435 41.0486C21.8233 40.8954 22.5154 40.7956 23.065 40.8112C23.3385 40.8189 23.5924 40.8555 23.7954 40.9387Z" fill="black"/>
<path d="M7.29503 44.3468C7.32333 44.282 7.35427 44.2311 7.38288 44.1953C7.35567 44.2416 7.32623 44.2923 7.29503 44.3468C7.18424 44.6005 7.11399 45.0671 7.38288 45.6721C7.80483 46.6215 8.54323 47.3599 8.54323 47.9928C8.54323 48.6258 9.27005 48.9422 9.79748 49.7861C10.2194 50.4612 10.0085 50.419 9.692 50.3135C8.95359 49.8916 7.88922 49.6384 7.38288 49.0477C6.74996 48.3093 6.11704 47.4654 6.22252 46.727C6.30038 46.182 6.92299 44.9964 7.29503 44.3468Z" fill="#196B31"/>
<path fill-rule="evenodd" clip-rule="evenodd" d="M7.1066 44.2513C7.13973 44.1776 7.1779 44.1138 7.21819 44.0635L7.56478 44.3022C7.53977 44.3448 7.51278 44.3912 7.48419 44.441C7.39986 44.6421 7.33409 45.0427 7.57573 45.5864C7.73816 45.9519 7.94798 46.2825 8.15037 46.6014C8.2012 46.6815 8.25157 46.7609 8.30059 46.8398C8.53295 47.2142 8.75426 47.607 8.75426 47.9928C8.75426 48.2193 8.87925 48.4027 9.12642 48.6659C9.16913 48.7114 9.21507 48.7588 9.26331 48.8086C9.48226 49.0347 9.74866 49.3098 9.97644 49.6742C10.084 49.8463 10.1584 49.9837 10.2003 50.0919C10.2212 50.1458 10.2379 50.2021 10.2431 50.2578C10.2482 50.3127 10.2439 50.3879 10.1984 50.4578C10.1498 50.5323 10.0777 50.5653 10.0187 50.5775C9.96405 50.5889 9.91132 50.5851 9.87154 50.5794C9.79218 50.568 9.70223 50.5393 9.62534 50.5136L9.60552 50.507L9.58738 50.4967C9.34108 50.3559 9.06277 50.2373 8.76959 50.1124C8.63686 50.0559 8.50108 49.998 8.36385 49.9362C7.94108 49.7459 7.50919 49.5191 7.22275 49.185C6.90483 48.814 6.57708 48.4056 6.3423 47.9913C6.10929 47.5801 5.95123 47.1346 6.01373 46.6971C6.05783 46.3884 6.24746 45.9283 6.45798 45.4855C6.67075 45.0379 6.91937 44.5788 7.1066 44.2513ZM7.03124 45.2774C6.96565 45.4059 6.90074 45.5369 6.83906 45.6667C6.6258 46.1153 6.46519 46.5205 6.43143 46.7568C6.38844 47.0577 6.4941 47.4033 6.70941 47.7833C6.92295 48.1601 7.22812 48.5429 7.54312 48.9104C7.76303 49.1669 8.11649 49.3621 8.53709 49.5515C8.65588 49.605 8.78102 49.6583 8.90818 49.7126C9.18961 49.8325 9.48098 49.9568 9.73553 50.0961C9.7056 50.0411 9.66718 49.9756 9.61863 49.8979C9.41675 49.5749 9.18724 49.3374 8.96993 49.1126C8.91871 49.0596 8.86817 49.0073 8.81883 48.9547C8.57073 48.6905 8.33231 48.3992 8.33231 47.9928C8.33231 47.7457 8.18442 47.4528 7.94209 47.0624C7.89752 46.9906 7.85024 46.9161 7.80139 46.8392C7.59766 46.5185 7.36656 46.1547 7.19015 45.7578C7.11496 45.5886 7.06366 45.428 7.03124 45.2774Z" fill="black"/>
<path d="M19.3966 51.2624C17.962 51.4312 11.3796 48.3791 8.21504 47.043C8.21504 47.1836 8.17287 48.0134 8.42603 48.5198C8.74249 49.1527 9.16444 49.4692 8.95347 49.9966C10.0083 50.524 15.8101 52.0008 19.1857 52.8447C22.5612 53.6886 23.0887 53.1612 23.7216 53.0557C24.3545 52.9502 26.1478 52.1063 26.5697 51.8954C26.9073 51.7266 27.5543 49.9966 27.8356 49.1527C26.6752 51.5789 21.1899 51.0515 19.3966 51.2624Z" fill="#8DDAA3"/>
<path fill-rule="evenodd" clip-rule="evenodd" d="M8.0041 46.7256L8.29713 46.8493C8.89751 47.1028 9.61626 47.416 10.3979 47.7566C11.6886 48.319 13.1508 48.9561 14.5345 49.5225C15.6433 49.9764 16.6938 50.3815 17.5548 50.6624C17.9854 50.8029 18.365 50.9111 18.6787 50.9789C18.9979 51.0479 19.2291 51.0704 19.372 51.0536C19.7624 51.0077 20.3196 50.9959 20.9522 50.9824C21.0671 50.98 21.1845 50.9775 21.3038 50.9748C22.0876 50.9566 22.9695 50.9271 23.8297 50.8294C24.6914 50.7314 25.5193 50.5662 26.1983 50.2823C26.8774 49.9983 27.3859 49.6048 27.6453 49.0624L28.0358 49.2201C27.8939 49.6456 27.6598 50.2949 27.4178 50.8609C27.297 51.1433 27.1721 51.4099 27.0541 51.6188C26.9952 51.723 26.9354 51.8174 26.8762 51.8937C26.821 51.9648 26.7501 52.0417 26.6641 52.0848C26.4496 52.192 25.8922 52.4574 25.3085 52.7095C25.0165 52.8355 24.716 52.9591 24.4473 53.0582C24.1825 53.1558 23.9357 53.2346 23.7563 53.2645C23.6603 53.2805 23.5732 53.3057 23.4643 53.3373C23.4083 53.3534 23.3467 53.3713 23.275 53.3904C23.0737 53.4442 22.8288 53.4967 22.4953 53.5175C21.8321 53.559 20.8327 53.4747 19.1345 53.0501C17.4465 52.6281 15.1506 52.0475 13.1444 51.5064C12.1414 51.2358 11.2094 50.9748 10.4614 50.7481C9.72019 50.5234 9.14182 50.3273 8.85915 50.186L8.68553 50.0992L8.75762 49.9189C8.83202 49.7329 8.8028 49.5892 8.70112 49.3972C8.65474 49.3096 8.59727 49.2196 8.5293 49.1132C8.51773 49.0951 8.50585 49.0765 8.49367 49.0573C8.41209 48.9292 8.32155 48.7832 8.23737 48.6148C8.09176 48.3236 8.03684 47.9557 8.01522 47.6603C7.9971 47.4127 8.00139 47.193 8.00338 47.0909C8.00379 47.0699 8.0041 47.0539 8.0041 47.0437V46.7256ZM8.42422 47.3617C8.42559 47.4421 8.42896 47.5327 8.43604 47.6295C8.45664 47.9109 8.50721 48.211 8.61477 48.4261C8.68882 48.5742 8.7697 48.7052 8.84965 48.8308C8.8608 48.8483 8.87205 48.8659 8.88332 48.8836C8.95066 48.9889 9.01887 49.0955 9.07403 49.1997C9.18285 49.4053 9.25345 49.6249 9.20666 49.88C9.49262 49.9987 9.96856 50.1578 10.5838 50.3443C11.3258 50.5691 12.253 50.8289 13.2543 51.099C15.2565 51.6391 17.5493 52.2189 19.2369 52.6408C20.9143 53.0601 21.8664 53.134 22.469 53.0964C22.7684 53.0777 22.9851 53.0312 23.1661 52.9828C23.2165 52.9693 23.2676 52.9546 23.3189 52.9398C23.4418 52.9043 23.5662 52.8684 23.6869 52.8483C23.824 52.8255 24.0387 52.7592 24.3013 52.6623C24.5601 52.5669 24.853 52.4466 25.1412 52.3221C25.7178 52.0731 26.268 51.8111 26.4754 51.7074C26.4752 51.7074 26.4754 51.7074 26.4758 51.707C26.4792 51.7045 26.5021 51.6875 26.5429 51.635C26.5847 51.5811 26.6331 51.5061 26.6867 51.4112C26.7937 51.2219 26.9115 50.9715 27.0298 50.6949C27.1011 50.5282 27.1719 50.3537 27.2397 50.1797C26.9794 50.3756 26.6817 50.5375 26.3611 50.6716C25.6291 50.9777 24.7562 51.1487 23.8773 51.2486C22.9969 51.3486 22.0988 51.3784 21.3135 51.3966C21.1912 51.3994 21.072 51.402 20.9563 51.4044C20.3213 51.418 19.7896 51.4293 19.4213 51.4727C19.2056 51.498 18.9173 51.4621 18.5896 51.3913C18.2563 51.3193 17.8616 51.2063 17.4239 51.0635C16.5483 50.7778 15.4865 50.3681 14.3747 49.913C12.9892 49.3459 11.5141 48.7032 10.2185 48.1387C9.56274 47.853 8.95303 47.5873 8.42422 47.3617Z" fill="black"/>
<path d="M22.3504 48.7313C20.8314 49.0688 20.3814 50.4894 20.3462 51.1575C21.5417 51.2278 23.6623 51.125 24.9876 50.841C26.4644 50.5246 27.2731 49.9971 27.7303 49.5752C27.8709 49.2939 28.0678 48.5625 27.7303 47.8874C27.3083 47.0435 24.2492 48.3093 22.3504 48.7313Z" fill="#F7F3F8"/>
<path fill-rule="evenodd" clip-rule="evenodd" d="M23.9923 48.5052C23.4329 48.6697 22.879 48.83 22.3962 48.9373C21.1534 49.2134 20.6862 50.2884 20.5798 50.9575C21.7877 51.0035 23.7183 50.8973 24.9434 50.6348C26.3536 50.3326 27.1246 49.8376 27.5575 49.4472C27.6788 49.1785 27.8263 48.5513 27.5416 47.9818C27.5193 47.9372 27.476 47.8951 27.3853 47.8629C27.2909 47.8294 27.1576 47.8118 26.9824 47.8149C26.632 47.821 26.1702 47.9081 25.6453 48.0394C25.1723 48.1576 24.6611 48.3082 24.151 48.4584C24.0981 48.474 24.0452 48.4896 23.9923 48.5052ZM27.5264 47.4653C27.6912 47.5237 27.8358 47.6267 27.919 47.7931C28.2967 48.5486 28.077 49.3535 27.919 49.6696L27.9017 49.7041L27.8734 49.7302C27.3863 50.1799 26.5425 50.7236 25.0318 51.0473C23.6842 51.3361 21.5441 51.4393 20.3338 51.3681L20.1245 51.3558L20.1355 51.1464C20.173 50.4352 20.6511 48.8928 22.3047 48.5254C22.7713 48.4217 23.3118 48.2655 23.8732 48.1004C23.9262 48.0848 23.9794 48.0691 24.0327 48.0534C24.5411 47.9037 25.0609 47.7505 25.543 47.63C26.073 47.4975 26.5738 47.4 26.975 47.393C27.1756 47.3895 27.3653 47.4081 27.5264 47.4653Z" fill="black"/>
<path d="M24.5658 44.9336L19.7134 46.3049C20.0446 46.3049 20.4883 46.8675 20.5573 47.0433L25.5151 45.5665L24.5658 44.9336Z" fill="#554B58"/>
<path fill-rule="evenodd" clip-rule="evenodd" d="M24.6017 44.7041L26.006 45.6403L20.4315 47.3008L20.3606 47.1204C20.3535 47.1021 20.3257 47.0514 20.2722 46.978C20.2215 46.9086 20.156 46.8299 20.0835 46.7566C20.0103 46.6826 19.9345 46.6187 19.8636 46.5747C19.7897 46.5287 19.7396 46.5159 19.7131 46.5159L19.6558 46.1019L24.6017 44.7041ZM20.2816 46.3635C20.3171 46.3948 20.3512 46.4272 20.3834 46.4597C20.4717 46.549 20.5508 46.644 20.6131 46.7295C20.6285 46.7505 20.6435 46.7719 20.6577 46.7932L25.0238 45.4926L24.5294 45.163L20.2816 46.3635Z" fill="black"/>
<path d="M26.0424 45.8828L20.7681 47.4546C21.1056 47.4546 21.4361 48.0805 21.5065 48.309L24.1436 47.4546L26.8863 46.5157L26.0424 45.8828Z" fill="#554B58"/>
<path fill-rule="evenodd" clip-rule="evenodd" d="M26.0842 45.6504L27.3321 46.5863L24.2105 47.6548L21.368 48.5758L21.305 48.3712C21.2773 48.2811 21.1882 48.088 21.0666 47.9197C21.0065 47.8364 20.9446 47.7679 20.8861 47.7222C20.8261 47.6752 20.7872 47.6656 20.7683 47.6656L20.708 47.2525L26.0842 45.6504ZM21.2858 47.5206C21.3303 47.5693 21.3715 47.6211 21.4087 47.6727C21.4973 47.7954 21.5732 47.93 21.6286 48.0478L24.0772 47.2545L26.4409 46.4454L26.001 46.1155L21.2858 47.5206Z" fill="black"/>
<path d="M8.84817 40.7139L10.4305 42.9291C10.7821 43.1401 12.0549 43.4143 12.2237 43.6675C12.3925 43.9207 11.1337 44.2652 10.7469 44.3004C10.3953 44.2652 9.60767 44.2371 9.27012 44.4059C8.84817 44.6169 8.84817 44.8278 8.84817 46.0937C8.84817 47.1064 8.49655 47.0782 8.32074 46.9376C8.21525 46.7266 7.94098 46.2414 7.68782 45.9882C7.43465 45.735 7.16037 44.9333 7.26587 44.4059C7.26587 44.4059 8.05169 43.4356 8.32074 42.7181C8.63718 41.8742 8.84817 40.7139 8.84817 40.7139Z" fill="#F7F3F8"/>
<path fill-rule="evenodd" clip-rule="evenodd" d="M8.72988 40.1855L10.5744 42.7679C10.6458 42.8043 10.758 42.8481 10.9043 42.8988C11.0132 42.9365 11.131 42.9747 11.2532 43.0143C11.3216 43.0365 11.3914 43.0592 11.4619 43.0824C11.6538 43.1458 11.8478 43.213 12.0059 43.2818C12.085 43.3162 12.1603 43.3532 12.2241 43.3929C12.2839 43.4301 12.353 43.4813 12.3993 43.5508C12.4308 43.5979 12.4504 43.6545 12.4502 43.7168C12.45 43.7772 12.4313 43.8292 12.4084 43.8699C12.3655 43.9458 12.2969 44.0023 12.2375 44.0428C12.1143 44.1269 11.9399 44.202 11.7647 44.2647C11.4121 44.3906 10.9826 44.4911 10.7661 44.5108L10.746 44.5126L10.726 44.5106C10.5579 44.4938 10.2826 44.4785 10.0105 44.4878C9.72723 44.4975 9.48805 44.5331 9.36449 44.5949C9.26992 44.6422 9.21933 44.6798 9.18639 44.7182C9.1555 44.7542 9.128 44.8053 9.10689 44.9003C9.06054 45.1088 9.05917 45.4473 9.05917 46.094C9.05917 46.3578 9.03644 46.5651 8.99472 46.7258C8.95346 46.8848 8.88937 47.0145 8.79392 47.1031C8.6918 47.1978 8.56941 47.2306 8.45339 47.2174C8.34551 47.205 8.25424 47.1548 8.18897 47.1026L8.15279 47.0737L8.13206 47.0322C8.02755 46.8232 7.76587 46.3649 7.53866 46.1377C7.37463 45.9736 7.23035 45.6692 7.13986 45.3593C7.04807 45.045 6.99691 44.6753 7.05902 44.3648L7.06922 44.3138L7.10193 44.2734L7.10232 44.273L7.1038 44.2711L7.11 44.2634C7.11553 44.2565 7.1238 44.2461 7.13449 44.2325C7.15587 44.2054 7.18691 44.1656 7.22509 44.1155C7.30152 44.0152 7.40619 43.8741 7.51899 43.7112C7.74759 43.3811 7.99842 42.9771 8.12322 42.6443C8.27667 42.2351 8.4061 41.7444 8.49769 41.3519C8.54329 41.1565 8.57912 40.9871 8.60352 40.8667C8.61572 40.8066 8.62504 40.7587 8.6313 40.726C8.63443 40.7097 8.63679 40.6971 8.63835 40.6887L8.6401 40.6793L8.64061 40.6765L8.72988 40.1855ZM8.95782 41.2306C8.94295 41.2982 8.92651 41.371 8.9086 41.4478C8.81559 41.8464 8.6813 42.3578 8.51831 42.7925C8.37406 43.1771 8.09746 43.6171 7.86589 43.9515C7.74861 44.1208 7.64001 44.2672 7.56068 44.3713C7.52099 44.4233 7.48854 44.4649 7.46589 44.4937C7.46547 44.4942 7.46505 44.4948 7.46463 44.4953C7.43439 44.7066 7.4685 44.9795 7.54488 45.241C7.62845 45.5272 7.7479 45.7502 7.83703 45.8393C8.09584 46.0981 8.36129 46.5573 8.48343 46.7925C8.49145 46.7961 8.49767 46.7977 8.5013 46.7981C8.50137 46.7982 8.50124 46.7981 8.5013 46.7981C8.50244 46.7974 8.50443 46.7961 8.5069 46.7938C8.52133 46.7804 8.55613 46.7361 8.5863 46.6198C8.616 46.5054 8.63722 46.3365 8.63722 46.094L8.63722 46.0528C8.63719 45.457 8.63717 45.0689 8.69499 44.8087C8.72662 44.6664 8.77824 44.546 8.86602 44.4436C8.95176 44.3436 9.0594 44.2757 9.17579 44.2175C9.38979 44.1105 9.71321 44.0758 9.99607 44.0661C10.2789 44.0565 10.5621 44.0712 10.7466 44.0887C10.9256 44.0688 11.303 43.9816 11.6227 43.8673C11.7594 43.8185 11.8734 43.7689 11.9527 43.7235C11.9205 43.7064 11.8821 43.6881 11.8377 43.6687C11.6987 43.6083 11.5209 43.5463 11.3295 43.4831C11.264 43.4615 11.1966 43.4396 11.1291 43.4177C11.0039 43.377 10.8787 43.3364 10.7663 43.2975C10.5969 43.2389 10.4313 43.1759 10.322 43.1103L10.2843 43.0877L8.95782 41.2306Z" fill="black"/>
<path d="M10.4304 42.9291L8.95359 40.9248L8.63713 41.7687L7.79324 43.7729L6.73837 45.0388L6.21094 47.043L6.73837 48.6253L8.42616 49.8912L10.4304 50.4186C10.0788 50.1373 9.45992 49.427 9.79748 48.8363C10.135 48.2456 10.9227 48.2385 11.2743 48.3089C11.4149 47.9572 11.654 47.0008 11.4853 45.9882C11.3165 44.9755 11.9072 43.9488 12.2237 43.562L10.4304 42.9291Z" fill="#160E1B" fill-opacity="0.4"/>
<path d="M19.9243 52.9509C20.2056 52.8806 20.7049 52.5079 20.8737 52.0015C21.0425 51.4952 21.5066 51.0522 21.9286 50.7357C22.7725 50.2083 24.061 50.1235 24.9877 49.8918C25.8316 49.6808 26.148 49.6808 27.0974 49.2589C27.8569 48.9213 27.8738 48.7863 27.8502 48.7458L27.8358 48.7314C27.8358 48.7314 27.8443 48.7357 27.8502 48.7458L28.0468 48.9424L27.4139 50.7357L26.4645 52.107L23.4054 53.1619C22.5263 53.3729 20.5994 53.626 19.9243 52.9509Z" fill="#160E1B" fill-opacity="0.4"/>
<path d="M33.7736 51.4442C32.6384 50.3622 33.5322 47.0438 33.5322 45.3563C33.7844 45.5443 34.8228 45.6253 35.642 45.4615C37.2243 45.145 41.6974 42.9266 42.1821 42.7188C42.9205 42.4023 46.11 42.8718 46.7689 42.3039C47.296 41.8495 48.3384 41.1988 48.7937 40.9303C49.6272 40.9437 51.5775 41.1113 52.7113 41.6744C54.1285 42.3781 54.2978 45.5026 53.9029 46.1527C53.3863 47.0033 52.7748 47.6654 51.9281 48.5641C50.8697 49.6874 49.2906 50.1281 45.8486 50.7979C44.3553 51.0885 40.3332 52.2754 37.4091 52.5664C35.8522 52.5235 34.9213 52.5381 33.7736 51.4442Z" fill="#3CD367"/>
<path fill-rule="evenodd" clip-rule="evenodd" d="M33.3209 44.936L33.658 45.1873C33.6825 45.2056 33.7565 45.2386 33.8972 45.269C34.0296 45.2976 34.1974 45.3192 34.3865 45.3304C34.7654 45.3528 35.2114 45.3325 35.6002 45.2547C36.3629 45.1022 37.8529 44.4805 39.2366 43.8572C39.9232 43.5479 40.5759 43.2418 41.0877 42.9999C41.2197 42.9375 41.3429 42.8791 41.4552 42.8259C41.7746 42.6744 42.0055 42.565 42.0986 42.525C42.2194 42.4733 42.3744 42.4433 42.5394 42.424C42.7079 42.4044 42.903 42.3943 43.1125 42.3896C43.4123 42.3828 43.7526 42.3867 44.0987 42.3907C44.2344 42.3923 44.371 42.3939 44.5064 42.3948C44.9923 42.3982 45.4657 42.3936 45.8565 42.354C46.0517 42.3343 46.2203 42.3064 46.3561 42.2686C46.495 42.2301 46.5825 42.1858 46.6308 42.1442C47.1739 41.6761 48.2315 41.0169 48.6861 40.7487L48.7373 40.7185L48.7967 40.7195C49.2225 40.7263 49.9282 40.7723 50.6719 40.8879C51.4119 41.0029 52.2085 41.1895 52.8047 41.4855C53.2132 41.6884 53.5168 42.0575 53.7377 42.4824C53.9592 42.9087 54.1063 43.4073 54.1939 43.8966C54.2816 44.3866 54.3112 44.8757 54.293 45.2872C54.2838 45.4929 54.2626 45.6824 54.2295 45.8448C54.1971 46.0038 54.1505 46.151 54.0828 46.2624C53.553 47.1347 52.9265 47.8119 52.0813 48.7089C50.9676 49.8909 49.3128 50.3388 45.8885 51.0052C45.4441 51.0917 44.7763 51.2576 43.9748 51.4569C43.4387 51.5901 42.8427 51.7383 42.2137 51.8875C40.6549 52.2571 38.9067 52.6295 37.4296 52.7765L37.4163 52.7779L37.4029 52.7775C37.3453 52.7759 37.2884 52.7744 37.2321 52.7729C36.5371 52.7545 35.9407 52.7387 35.3878 52.6046C34.7778 52.4566 34.2258 52.1672 33.6276 51.597C33.2952 51.2802 33.1271 50.8161 33.0481 50.3062C32.9687 49.7936 32.9752 49.2064 33.0164 48.6129C33.0519 48.1002 33.1142 47.5733 33.1728 47.0771C33.1821 46.9982 33.1914 46.9201 33.2004 46.8429C33.2667 46.2756 33.3209 45.764 33.3209 45.3565L33.3209 44.936ZM33.4651 50.2417C33.5378 50.7111 33.6836 51.0675 33.9187 51.2916C34.4683 51.8154 34.9556 52.0656 35.4872 52.1946C35.9946 52.3176 36.5465 52.3324 37.2578 52.3515C37.3049 52.3527 37.3526 52.354 37.4011 52.3553C38.8454 52.2104 40.5645 51.8449 42.1163 51.4769C42.7296 51.3315 43.3189 51.185 43.8537 51.0521C44.6672 50.85 45.3545 50.6792 45.8079 50.591C49.2676 49.9177 50.7711 49.4842 51.7742 48.4196C52.6224 47.5193 53.2187 46.8723 53.7222 46.0434C53.7532 45.9922 53.7877 45.8996 53.8161 45.7605C53.8437 45.6249 53.863 45.4581 53.8714 45.2685C53.8882 44.8893 53.8609 44.4314 53.7785 43.971C53.696 43.5099 53.5597 43.0549 53.3633 42.677C53.1662 42.2978 52.9171 42.0125 52.617 41.8635C52.0795 41.5965 51.3341 41.4178 50.6071 41.3048C49.9178 41.1977 49.2621 41.1523 48.8492 41.1425C48.3714 41.427 47.399 42.0391 46.9063 42.4638C46.7898 42.5642 46.6335 42.6295 46.469 42.6752C46.3014 42.7217 46.1069 42.7528 45.8989 42.7738C45.4833 42.8159 44.9896 42.8202 44.5035 42.8167C44.363 42.8158 44.2234 42.8141 44.086 42.8126C43.743 42.8086 43.4141 42.8048 43.1221 42.8114C42.9184 42.816 42.7381 42.8256 42.5883 42.8431C42.4349 42.861 42.3287 42.8855 42.2649 42.9129C42.1796 42.9494 41.9618 43.0526 41.6485 43.2012C41.5338 43.2556 41.4064 43.316 41.268 43.3814C40.7553 43.6237 40.0999 43.931 39.4099 44.2419C38.0402 44.8589 36.5025 45.5046 35.683 45.6685C35.2526 45.7546 34.7698 45.7757 34.3616 45.7516C34.1572 45.7395 33.967 45.7158 33.8081 45.6815C33.7835 45.6762 33.759 45.6704 33.7347 45.6643C33.7166 46.0345 33.6705 46.455 33.6195 46.8919C33.6103 46.97 33.601 47.0488 33.5917 47.1279C33.533 47.6248 33.4721 48.1404 33.4373 48.6421C33.3969 49.2243 33.3928 49.7751 33.4651 50.2417Z" fill="black"/>
<path d="M42.2377 41.514C42.2397 42.2217 42.9037 43.5408 44.6517 44.4323C44.9142 43.8278 47.5218 41.6883 48.6993 40.9775C48.4456 40.2391 47.5423 38.82 46.8987 38.1047C46.0943 37.2106 42.2358 40.8064 42.2377 41.514Z" fill="#196B31"/>
<path fill-rule="evenodd" clip-rule="evenodd" d="M42.4525 41.493C42.4488 41.507 42.4486 41.5133 42.4486 41.5133C42.4486 41.5133 42.4486 41.5132 42.4486 41.5132C42.4502 42.0969 43.0052 43.2896 44.5742 44.1524C44.6093 44.1037 44.6488 44.0538 44.6908 44.0036C44.7953 43.8791 44.9282 43.7381 45.0807 43.5872C45.3859 43.2851 45.7779 42.9347 46.1965 42.583C46.9652 41.9367 47.8366 41.2746 48.4402 40.8897C48.3013 40.5529 48.0551 40.1026 47.7666 39.6446C47.4323 39.114 47.0527 38.5911 46.7417 38.2455C46.7001 38.1992 46.627 38.1644 46.4836 38.1755C46.3374 38.1868 46.1472 38.2451 45.9202 38.3514C45.4684 38.5631 44.9264 38.9383 44.3997 39.3714C43.8748 39.8029 43.3758 40.2832 43.0099 40.6966C42.8267 40.9036 42.6803 41.0901 42.5812 41.2425C42.5315 41.3187 42.4963 41.3826 42.4742 41.4334C42.4632 41.4585 42.4564 41.4783 42.4525 41.493ZM46.451 37.7548C46.6725 37.7376 46.896 37.7861 47.0554 37.9633C47.388 38.333 47.7819 38.8773 48.1236 39.4197C48.4637 39.9595 48.7636 40.5156 48.8986 40.9086L48.954 41.0697L48.8081 41.1578C48.2333 41.5048 47.2967 42.2093 46.468 42.9059C46.0546 43.2534 45.6718 43.5958 45.3775 43.8871C45.2302 44.0328 45.1072 44.1638 45.0142 44.2747C44.9178 44.3896 44.8651 44.4698 44.845 44.5161L44.7556 44.722L44.5556 44.62C42.7614 43.7048 42.0288 42.3249 42.0266 41.5143C42.0264 41.4274 42.0543 41.3404 42.0874 41.2647C42.122 41.1855 42.1702 41.1004 42.2275 41.0124C42.3421 40.8361 42.5032 40.6325 42.6939 40.4169C43.0762 39.9851 43.5916 39.4895 44.1317 39.0454C44.67 38.6028 45.2433 38.2026 45.7412 37.9693C45.989 37.8532 46.2322 37.7718 46.451 37.7548Z" fill="black"/>
<path d="M33.2454 48.2181C33.2415 48.1475 33.2463 48.0882 33.2558 48.0433C33.2523 48.0969 33.2488 48.1554 33.2454 48.2181C33.2605 48.4945 33.4076 48.943 33.9198 49.3624C34.7236 50.0207 35.7152 50.3482 35.9998 50.9135C36.2844 51.4789 37.0759 51.4347 37.9264 51.9513C38.6069 52.3646 38.3995 52.4218 38.0694 52.4698C37.2201 52.425 36.1556 52.6775 35.4377 52.3775C34.5403 52.0026 33.5955 51.5334 33.3577 50.8264C33.1822 50.3046 33.2052 48.9657 33.2454 48.2181Z" fill="#196B31"/>
<path fill-rule="evenodd" clip-rule="evenodd" d="M33.0338 48.2181C33.0303 48.1373 33.0357 48.0632 33.049 48.0001L33.466 48.0575C33.4627 48.1067 33.4595 48.1604 33.4564 48.2177C33.4715 48.4352 33.5929 48.8226 34.0532 49.1996C34.3626 49.453 34.6987 49.654 35.0228 49.8478C35.1043 49.8965 35.1849 49.9447 35.2642 49.9932C35.6401 50.2231 36.0144 50.4744 36.1879 50.8191C36.2897 51.0214 36.4838 51.129 36.823 51.2529C36.8816 51.2743 36.9439 51.2961 37.0094 51.3189C37.3066 51.4224 37.6683 51.5483 38.0356 51.7714C38.209 51.8767 38.3373 51.966 38.4234 52.0438C38.4663 52.0825 38.5065 52.1253 38.5362 52.1727C38.5655 52.2195 38.5955 52.2886 38.5862 52.3714C38.5763 52.4598 38.5267 52.5217 38.4796 52.5592C38.4358 52.5939 38.387 52.6142 38.3489 52.627C38.2729 52.6526 38.1796 52.6673 38.0994 52.679L38.0788 52.682L38.0579 52.6809C37.7746 52.6659 37.4727 52.6852 37.1547 52.7054C37.0107 52.7146 36.8634 52.724 36.7131 52.7305C36.2498 52.7506 35.7621 52.7422 35.356 52.5725C34.9053 52.3842 34.4289 52.1668 34.0329 51.9023C33.6398 51.6398 33.2983 51.3129 33.1574 50.894C33.058 50.5985 33.0205 50.1023 33.0094 49.6121C32.9982 49.1166 33.0138 48.5947 33.0338 48.2181ZM33.4279 49.1684C33.4271 49.3127 33.428 49.4589 33.4313 49.6025C33.4425 50.0991 33.4813 50.5333 33.5574 50.7595C33.6543 51.0477 33.9041 51.3088 34.2672 51.5514C34.6274 51.792 35.0721 51.9966 35.5187 52.1832C35.8305 52.3135 36.2339 52.3289 36.6948 52.3089C36.8249 52.3033 36.9607 52.2947 37.0987 52.2859C37.404 52.2666 37.7201 52.2465 38.0101 52.2565C37.9587 52.2208 37.8949 52.1796 37.8166 52.132C37.491 51.9343 37.1792 51.8254 36.884 51.7223C36.8145 51.698 36.7458 51.674 36.6781 51.6492C36.3377 51.5248 35.9937 51.3718 35.811 51.0088C35.6999 50.7881 35.4361 50.593 35.0441 50.3532C34.972 50.3091 34.8963 50.2639 34.8181 50.2172C34.4919 50.0223 34.1219 49.8013 33.7858 49.526C33.6426 49.4088 33.5246 49.2883 33.4279 49.1684Z" fill="black"/>
<path d="M47.1644 48.9546C45.9589 49.7505 38.7071 49.9841 35.2797 50.2137C35.3429 50.3393 35.6784 51.0995 36.1322 51.4379C36.6995 51.8609 37.2187 51.9538 37.2674 52.5198C38.4468 52.5166 44.293 51.2269 47.6875 50.4628C51.082 49.6987 51.316 48.9905 51.8338 48.6116C52.3517 48.2328 53.574 46.6727 53.856 46.2945C54.0817 45.992 53.8817 44.1558 53.7535 43.2756C53.808 45.9644 48.6713 47.9598 47.1644 48.9546Z" fill="#8DDAA3"/>
<path fill-rule="evenodd" clip-rule="evenodd" d="M34.9482 50.0242L35.2655 50.003C35.9158 49.9594 36.6986 49.916 37.5499 49.8687C38.9557 49.7907 40.5482 49.7022 42.0388 49.586C43.2332 49.4928 44.3538 49.3823 45.249 49.246C45.6968 49.1779 46.0846 49.1039 46.3952 49.0234C46.7114 48.9415 46.928 48.8576 47.0481 48.7783C47.3761 48.5618 47.8685 48.3007 48.4276 48.0042C48.5291 47.9504 48.6328 47.8954 48.7381 47.8393C49.4301 47.4707 50.2045 47.0477 50.9289 46.5736C51.6545 46.0987 52.3198 45.5789 52.7985 45.02C53.2774 44.4609 53.5546 43.8808 53.5424 43.2797L53.9621 43.245C54.0268 43.6888 54.1096 44.374 54.1479 44.9884C54.167 45.295 54.1754 45.5892 54.1639 45.8289C54.1581 45.9485 54.1472 46.0597 54.1286 46.1545C54.1113 46.2428 54.0826 46.3433 54.0251 46.4204C53.8817 46.6127 53.5032 47.1004 53.0951 47.588C52.891 47.8319 52.6782 48.0774 52.4828 48.2867C52.2902 48.493 52.1051 48.6743 51.9583 48.7817C51.8797 48.8392 51.8133 48.9008 51.7302 48.978C51.6875 49.0176 51.6405 49.0613 51.5851 49.1106C51.4294 49.2492 51.2343 49.4061 50.9458 49.5747C50.372 49.91 49.4415 50.284 47.7337 50.6684C46.0363 51.0505 43.7245 51.5643 41.6892 51.9831C40.6717 52.1924 39.7218 52.3783 38.9518 52.5121C38.1887 52.6448 37.5839 52.7297 37.2679 52.7306L37.0738 52.7311L37.0571 52.5377C37.0399 52.3381 36.9492 52.2229 36.772 52.097C36.6912 52.0396 36.5994 51.9851 36.4909 51.9207C36.4724 51.9097 36.4534 51.8984 36.4339 51.8868C36.3034 51.809 36.1569 51.7193 36.006 51.6068C35.745 51.4122 35.5305 51.1082 35.3784 50.8541C35.2509 50.6411 35.1559 50.4429 35.1118 50.3509C35.1027 50.3319 35.0958 50.3175 35.0912 50.3083L34.9482 50.0242ZM35.6094 50.4035C35.6468 50.4747 35.6906 50.5541 35.7404 50.6374C35.8853 50.8794 36.0655 51.1248 36.2583 51.2685C36.391 51.3675 36.5221 51.4481 36.65 51.5244C36.6679 51.535 36.6858 51.5457 36.7038 51.5564C36.8113 51.6202 36.9202 51.6848 37.0163 51.753C37.206 51.8877 37.3678 52.0521 37.4407 52.301C37.7495 52.2785 38.2461 52.2065 38.8795 52.0964C39.6434 51.9637 40.5884 51.7788 41.6042 51.5698C43.6354 51.1518 45.944 50.6388 47.6411 50.2568C49.3279 49.8771 50.2116 49.515 50.7329 49.2104C50.9919 49.059 51.1645 48.9201 51.3045 48.7955C51.3435 48.7608 51.3825 48.7246 51.4216 48.6883C51.5155 48.6014 51.6105 48.5134 51.7092 48.4412C51.8214 48.3591 51.9833 48.2034 52.1744 47.9988C52.3626 47.7972 52.5701 47.558 52.7715 47.3172C53.1746 46.8356 53.5482 46.3541 53.6869 46.1682C53.6867 46.1684 53.6868 46.1682 53.687 46.1677C53.689 46.1639 53.7018 46.1385 53.7146 46.0732C53.7277 46.0063 53.7372 45.9175 53.7424 45.8086C53.7529 45.5915 53.7455 45.3149 53.7268 45.0146C53.7155 44.8336 53.7002 44.6459 53.6826 44.46C53.5382 44.7521 53.3451 45.0305 53.119 45.2944C52.6028 45.897 51.9 46.4423 51.1599 46.9267C50.4186 47.4119 49.6297 47.8424 48.9365 48.2117C48.8285 48.2692 48.7232 48.3251 48.6209 48.3793C48.0599 48.6769 47.5901 48.9262 47.2806 49.1305C47.0993 49.2502 46.8256 49.3477 46.5011 49.4318C46.171 49.5173 45.7677 49.5939 45.3125 49.6632C44.4019 49.8018 43.2693 49.9132 42.0716 50.0066C40.5791 50.1231 38.9725 50.2123 37.5614 50.2907C36.8473 50.3304 36.1832 50.3672 35.6094 50.4035Z" fill="black"/>
<path d="M48.664 45.3649C47.459 46.3494 47.6958 47.8206 47.9648 48.4332C49.0642 47.9584 50.9121 46.9131 51.9682 46.0635C53.145 45.1168 53.6302 44.282 53.8487 43.6996C53.8479 43.3851 53.6949 42.6433 53.0898 42.1921C52.3335 41.628 50.1702 44.1342 48.664 45.3649Z" fill="#F7F3F8"/>
<path fill-rule="evenodd" clip-rule="evenodd" d="M50.0292 44.4245C49.6035 44.823 49.1808 45.2153 48.7979 45.5282C47.812 46.3337 47.878 47.5039 48.0839 48.1494C49.1834 47.6473 50.8601 46.6844 51.8363 45.899C52.96 44.995 53.4261 44.2062 53.6373 43.6629C53.6248 43.3683 53.4745 42.7417 52.9641 42.3611C52.9241 42.3313 52.8665 42.3131 52.7711 42.3252C52.6717 42.3377 52.5447 42.3819 52.3896 42.4634C52.0793 42.6265 51.7061 42.9119 51.2963 43.2652C50.9269 43.5835 50.538 43.9478 50.15 44.3114C50.1097 44.3491 50.0694 44.3869 50.0292 44.4245ZM52.7183 41.9065C52.8918 41.8847 53.0672 41.9116 53.2163 42.0228C53.8934 42.5278 54.0591 43.3456 54.0601 43.6989L54.0602 43.7375L54.0467 43.7736C53.8138 44.3943 53.3046 45.2593 52.1008 46.2278C51.027 47.0917 49.1618 48.1462 48.0488 48.6268L47.8563 48.7099L47.772 48.5179C47.4856 47.8658 47.2191 46.2732 48.5309 45.2014C48.9011 44.899 49.3136 44.5164 49.7408 44.1165C49.7812 44.0787 49.8216 44.0408 49.8622 44.0028C50.2489 43.6405 50.6443 43.27 51.0208 42.9455C51.4346 42.5889 51.8381 42.2766 52.1933 42.0899C52.3708 41.9966 52.5487 41.9279 52.7183 41.9065Z" fill="black"/>
<path d="M48.9352 40.9773L45.2177 44.3841C45.5135 44.2351 46.1628 44.5381 46.3035 44.6641L50.0678 41.1157L48.9352 40.9773Z" fill="#554B58"/>
<path fill-rule="evenodd" clip-rule="evenodd" d="M48.8645 40.7555L50.5398 40.9603L46.3073 44.9501L46.1629 44.8207C46.1482 44.8076 46.1006 44.7749 46.0198 44.7334C45.9433 44.6941 45.8495 44.6533 45.7517 44.6204C45.6531 44.5873 45.5566 44.5643 45.4736 44.5569C45.3869 44.549 45.3364 44.56 45.3127 44.572L45.0753 44.228L48.8645 40.7555ZM45.7519 44.1803C45.7977 44.1922 45.8427 44.2059 45.8861 44.2205C46.0052 44.2605 46.1185 44.3097 46.2126 44.3581C46.2358 44.37 46.2588 44.3823 46.2811 44.3949L49.5961 41.27L49.0062 41.1979L45.7519 44.1803Z" fill="black"/>
<path d="M50.6813 41.1606L46.677 44.9361C46.9785 44.7843 47.5551 45.1948 47.7207 45.3673L49.692 43.4183L51.7196 41.3465L50.6813 41.1606Z" fill="#554B58"/>
<path fill-rule="evenodd" clip-rule="evenodd" d="M50.614 40.9341L52.1495 41.209L49.8418 43.567L47.7169 45.6678L47.5687 45.5133C47.5034 45.4453 47.337 45.3129 47.1527 45.2173C47.0616 45.1699 46.9755 45.1366 46.9027 45.122C46.8279 45.107 46.7889 45.116 46.772 45.1245L46.5324 44.7826L50.614 40.9341ZM47.169 44.7623C47.2307 44.7857 47.2907 44.8135 47.3472 44.8428C47.4815 44.9125 47.6098 44.9987 47.7123 45.079L49.5426 43.2694L51.2901 41.4838L50.7489 41.3869L47.169 44.7623Z" fill="black"/>
<path d="M33.532 45.356L35.418 45.6725C35.827 45.7028 37.2759 44.6784 37.5405 44.8286C37.8051 44.9788 36.6373 46.4201 36.3077 46.6254C35.9778 46.7521 35.2616 47.0812 35.036 47.3837C34.754 47.7619 34.8489 47.9503 35.418 49.081C35.8734 49.9855 35.5467 50.1185 35.3264 50.0719C35.1373 49.9309 34.6742 49.6208 34.3342 49.5085C33.9942 49.3962 33.3887 48.8035 33.2458 48.2849C33.2458 48.2849 33.5114 47.0649 33.4291 46.3031C33.3323 45.407 33.532 45.356 33.532 45.356Z" fill="#F7F3F8"/>
<path fill-rule="evenodd" clip-rule="evenodd" d="M33.4791 45.1517C33.4795 45.1516 33.4799 45.1514 33.5321 45.3559L33.4799 45.1514L33.5231 45.1404L35.4396 45.462C35.4549 45.4616 35.4906 45.4568 35.5529 45.4373C35.6205 45.4161 35.703 45.383 35.7981 45.34C35.9733 45.2606 36.1743 45.1553 36.381 45.0471C36.3992 45.0376 36.4174 45.028 36.4357 45.0185C36.6571 44.9027 36.8843 44.785 37.074 44.7063C37.1684 44.6671 37.2626 44.6337 37.3475 44.6162C37.4201 44.6012 37.5398 44.5854 37.6448 44.645C37.7935 44.7294 37.797 44.8878 37.7862 44.9683C37.7745 45.0562 37.7376 45.1497 37.6957 45.2358C37.6098 45.4128 37.4693 45.6257 37.3165 45.8318C37.1623 46.0398 36.9892 46.2495 36.8326 46.4212C36.6823 46.586 36.5297 46.7356 36.4193 46.8043L36.4022 46.815L36.3834 46.8222C36.2257 46.8828 35.973 46.9929 35.7341 47.1235C35.4854 47.2595 35.2878 47.3989 35.2052 47.5096C35.142 47.5944 35.1137 47.6507 35.1016 47.6999C35.0902 47.746 35.0886 47.8039 35.1125 47.8982C35.1648 48.1054 35.3158 48.4083 35.6066 48.9859C35.7252 49.2215 35.7981 49.417 35.8331 49.5793C35.8677 49.7398 35.8688 49.8845 35.8234 50.0065C35.7748 50.1371 35.6802 50.2214 35.5706 50.2617C35.4687 50.2992 35.3646 50.2954 35.2829 50.2781L35.2375 50.2685L35.2004 50.2408C35.013 50.1011 34.5732 49.8094 34.2681 49.7087C34.0478 49.6359 33.7821 49.4288 33.5619 49.1928C33.3386 48.9533 33.1267 48.6461 33.0425 48.3408L33.0287 48.2907L33.0398 48.2399L33.0399 48.2393L33.0404 48.237L33.0424 48.2273C33.0443 48.2186 33.047 48.2056 33.0504 48.1887C33.0573 48.1549 33.0672 48.1053 33.0787 48.0434C33.1019 47.9195 33.132 47.7464 33.1595 47.5502C33.2152 47.1526 33.2576 46.6789 33.2194 46.3255C33.1699 45.8669 33.1925 45.597 33.2425 45.4321C33.2681 45.3477 33.3032 45.2829 33.3469 45.2353C33.3688 45.2113 33.3921 45.1926 33.4157 45.1786C33.4273 45.1716 33.4387 45.166 33.4496 45.1615C33.4551 45.1593 33.4603 45.1574 33.4654 45.1557C33.4679 45.1549 33.4704 45.1541 33.4728 45.1534L33.4764 45.1524L33.4782 45.1519L33.4791 45.1517ZM33.4635 48.275C33.5315 48.4773 33.6847 48.7057 33.8705 48.905C34.0738 49.123 34.2808 49.2685 34.4005 49.308C34.748 49.4228 35.1916 49.7136 35.4064 49.8687C35.4152 49.8683 35.4215 49.867 35.4249 49.8657C35.425 49.8657 35.4249 49.8658 35.4249 49.8657C35.4256 49.8646 35.4268 49.8625 35.428 49.8593C35.4348 49.8409 35.446 49.7856 35.4207 49.6682C35.3958 49.5527 35.3388 49.3923 35.2297 49.1757L35.2112 49.1389C34.9433 48.6068 34.7687 48.2601 34.7034 48.0017C34.6676 47.8603 34.6596 47.7296 34.692 47.5987C34.7236 47.4708 34.7892 47.3617 34.867 47.2574C35.01 47.0656 35.2833 46.8892 35.5316 46.7534C35.779 46.618 36.0376 46.5042 36.2103 46.4368C36.2694 46.3949 36.3798 46.2915 36.5208 46.1368C36.6676 45.9759 36.8317 45.7773 36.9776 45.5805C37.1194 45.3892 37.2382 45.2074 37.3083 45.0674C37.2859 45.0757 37.2617 45.0852 37.2357 45.096C37.0665 45.1662 36.8564 45.2746 36.6313 45.3924C36.6125 45.4022 36.5936 45.4121 36.5746 45.4221C36.3709 45.5287 36.159 45.6397 35.9721 45.7243C35.8697 45.7707 35.7698 45.8115 35.6789 45.84C35.5927 45.8669 35.4944 45.8895 35.4025 45.8827L35.3928 45.882L33.6376 45.5875C33.6151 45.6876 33.597 45.8916 33.6389 46.2802C33.6831 46.6887 33.6338 47.206 33.5773 47.6088C33.5487 47.8128 33.5176 47.9924 33.4935 48.121C33.4815 48.1854 33.4712 48.2371 33.4639 48.273C33.4637 48.2736 33.4636 48.2743 33.4635 48.275ZM37.4715 45.0244C37.4715 45.0244 37.4714 45.0244 37.4712 45.0244L37.4715 45.0244ZM35.4242 49.867C35.4242 49.867 35.4243 49.8669 35.4244 49.8668L35.4242 49.867Z" fill="black"/>
<path d="M35.3253 45.3997L33.6314 45.3997L33.2984 45.9892L33.2984 47.8676L33.0485 49.4962L33.6314 51.485L34.9 52.5679L36.999 52.7807L43.2368 51.2636C42.7905 51.2042 39.8191 51.3902 39.2283 51.0526C38.4899 50.6307 38.068 50.4197 37.4351 49.9977C36.8021 49.3648 36.1692 48.8462 36.1692 47.8676C36.1692 46.8409 37.3637 45.3235 37.4351 44.8289L35.3253 45.3997Z" fill="#160E1B" fill-opacity="0.4"/>
<path d="M47.1398 49.048C47.2016 49.5781 42.7233 51.2913 42.4984 51.4742C43.396 51.7994 50.8312 49.4738 51.5379 48.9101L53.8613 46.6578L54.1398 45.0133L53.9528 43.1209L53.6722 43.0192C53.6722 43.0192 53.8335 43.9384 53.1525 44.7231C52.4716 45.5077 52.4561 45.5455 51.7812 46.0944C51.0401 46.6971 50.1989 47.0438 49.566 47.5712C49.318 48.0367 47.078 48.5179 47.1398 49.048Z" fill="#160E1B" fill-opacity="0.4"/>
</svg>
