<svg width="64" height="64" viewBox="0 0 64 64" fill="none" xmlns="http://www.w3.org/2000/svg">
<rect width="64" height="64" rx="4" fill="white"/>
<path d="M26.7887 7.27404C23.9775 7.31009 18.6778 6.37535 15.6519 10.8422C13.3812 14.194 7.97502 21.979 8.08314 29.0071C10.2096 29.8 14.895 32.013 16.625 34.5215C16.625 34.7017 16.452 35.2351 15.76 35.9271C15.068 36.6191 16.3367 40.9009 17.0575 42.9552C17.9225 44.3609 21.5339 46.545 30.7893 47.929C40.0448 49.313 44.9537 44.0365 47.0081 41.1171C47.0081 37.7652 46.1534 27.3108 43.5481 20.249L44.6293 23.0603C44.2833 22.0223 47.1522 18.2307 48.6299 16.4647C48.8029 14.9942 46.3233 10.8061 45.0618 8.89593C43.2453 6.99293 41.0252 7.02175 39.2231 7.59842C38.7041 11.0584 35.6189 11.7792 34.1412 11.7072C29.2107 11.5342 27.1852 8.67967 26.7887 7.27404Z" fill="#BD22F3"/>
<path fill-rule="evenodd" clip-rule="evenodd" d="M25.4732 7.03297C25.9566 7.04865 26.3996 7.06301 26.7859 7.05805L26.9518 7.05593L26.9968 7.21558C27.3673 8.52905 29.3105 11.3215 34.1487 11.4913L34.1517 11.4914L34.1517 11.4914C34.8562 11.5258 35.9534 11.3699 36.9315 10.7914C37.9008 10.2183 38.76 9.22735 39.0092 7.56658L39.0291 7.43366L39.1571 7.3927C41.0056 6.80118 43.3243 6.76275 45.2182 8.74685L45.2315 8.76085L45.2422 8.777C45.876 9.73672 46.8156 11.2682 47.576 12.7465C47.9561 13.4854 48.2938 14.2155 48.5261 14.8569C48.7547 15.4883 48.8943 16.0678 48.8446 16.4902L48.8371 16.5542L48.7957 16.6037C48.0602 17.4828 46.9789 18.8655 46.1261 20.155C45.6992 20.8005 45.3337 21.4164 45.097 21.9308C44.9786 22.1882 44.8955 22.4138 44.8518 22.6007C44.807 22.7926 44.8099 22.9186 44.8344 22.9921L44.6732 23.05C46.5741 29.8421 47.2242 38.1845 47.2242 41.1174V41.1858L47.1848 41.2418C45.1079 44.1933 40.1286 49.5444 30.7573 48.1431C26.1186 47.4494 22.8836 46.5538 20.6944 45.6503C18.5144 44.7506 17.3424 43.8312 16.8733 43.0688L16.8611 43.049L16.8534 43.0271C16.4913 41.9951 15.9912 40.4027 15.668 38.9784C15.5066 38.2672 15.3875 37.5898 15.3535 37.0419C15.3366 36.7684 15.3403 36.5187 15.3739 36.3094C15.4067 36.1058 15.4726 35.9089 15.607 35.7745C15.9399 35.4415 16.1428 35.152 16.2613 34.9306C16.3489 34.7669 16.3867 34.6478 16.401 34.579C15.5537 33.3895 14.0117 32.2532 12.3936 31.3079C10.7521 30.349 9.06057 29.6027 8.00753 29.21L7.86913 29.1584L7.86686 29.0107C7.812 25.4452 9.15442 21.7048 10.782 18.4496C12.3293 15.3549 14.1455 12.6777 15.2959 10.982C15.3567 10.8923 15.4158 10.8053 15.4728 10.7211C17.0285 8.42453 19.1717 7.5189 21.2665 7.18328C22.7548 6.94483 24.2448 6.99314 25.4732 7.03297ZM16.8375 34.5856C16.8225 34.7241 16.7607 34.9141 16.6426 35.1347C16.5016 35.398 16.2719 35.7212 15.9129 36.0803C15.8743 36.1189 15.8285 36.2071 15.801 36.3781C15.7744 36.5435 15.7693 36.7579 15.7852 37.0152C15.817 37.5289 15.9304 38.1801 16.0898 38.8827C16.4058 40.2755 16.8955 41.8385 17.2536 42.8614C17.6588 43.5028 18.7251 44.3697 20.8594 45.2506C23.0061 46.1365 26.2045 47.025 30.8213 47.7153C39.9022 49.0732 44.737 43.9467 46.7916 41.0488C46.7802 37.6376 45.9206 27.3048 43.3451 20.3241L43.7498 20.1716L43.7509 20.1744L44.5248 22.1864C44.5739 22.0476 44.6345 21.9014 44.7041 21.75C44.9543 21.2064 45.3335 20.5694 45.7653 19.9164C46.6131 18.6346 47.6795 17.2673 48.4204 16.3784C48.4382 16.0638 48.3322 15.5919 48.1194 15.0042C47.8959 14.387 47.5673 13.6751 47.1914 12.9443C46.4442 11.4918 45.5196 9.98308 44.892 9.03161C43.197 7.26693 41.1411 7.2443 39.4152 7.76535C39.1194 9.48505 38.1972 10.5454 37.1517 11.1637C36.0888 11.7922 34.9053 11.9609 34.1321 11.9235C29.2824 11.7528 27.1507 9.02706 26.6299 7.49161C26.2545 7.49203 25.846 7.47873 25.412 7.4646C24.1957 7.42498 22.7797 7.37886 21.3349 7.61033C19.4492 7.91246 17.5589 8.6858 16.119 10.5638C17.3266 10.4287 18.9342 10.4061 20.4891 10.9069C22.2806 11.4839 23.9929 12.7536 24.9371 15.3087L24.5315 15.4586C23.6376 13.0399 22.0341 11.8589 20.3565 11.3186C18.711 10.7886 16.9855 10.8733 15.7772 11.0429C15.7375 11.1014 15.6969 11.1612 15.6555 11.2223C14.5049 12.9184 12.703 15.5747 11.1688 18.643C9.57549 21.8297 8.28298 25.438 8.29786 28.8573C9.37661 29.2692 11.0167 30.0026 12.6118 30.9345C14.1533 31.8351 15.6774 32.9349 16.6021 34.1252C18.0376 31.6033 20.0817 27.8863 21.7516 24.5742C22.6193 22.8532 23.3842 21.245 23.91 19.9721C24.1731 19.3352 24.3744 18.7868 24.4991 18.3525C24.5614 18.1353 24.6033 17.9508 24.6247 17.8005C24.6467 17.6466 24.6446 17.5447 24.6313 17.4849L25.0535 17.3911C25.0835 17.526 25.0776 17.6884 25.0529 17.8615C25.0277 18.0383 24.9803 18.2435 24.9148 18.4718C24.7837 18.9284 24.5756 19.4937 24.3097 20.1372C23.7778 21.425 23.0072 23.0444 22.1378 24.7689C20.4083 28.1992 18.28 32.0597 16.8375 34.5856Z" fill="black"/>
<path d="M24.8356 18.4434C24.8706 18.227 24.9083 18.0164 24.9488 17.8125C25.0035 17.8672 24.9597 18.0882 24.8356 18.4434C24.0285 23.4297 24.6244 31.5532 24.6244 34.2475C24.6244 37.0587 21.0563 45.4924 21.0563 45.4924C20.0832 45.2402 17.9639 44.4112 17.2719 43.1137C16.4069 41.4918 15.2176 37.275 15.542 36.1937C16.0105 35.6891 16.8178 34.7232 16.7313 34.4637C19.2818 29.7722 23.9778 20.8994 24.8356 18.4434Z" fill="#160E1B" fill-opacity="0.4"/>
<path d="M38.6657 21.9625C38.6657 24.2556 36.8814 26.1145 34.6805 26.1145C32.4795 26.1145 30.6953 24.2556 30.6953 21.9625C30.6953 19.6695 32.4795 17.8105 34.6805 17.8105C36.8814 17.8105 38.6657 19.6695 38.6657 21.9625Z" fill="#C4F0F7"/>
<path fill-rule="evenodd" clip-rule="evenodd" d="M34.6805 26.0064C36.8176 26.0064 38.5575 24.2001 38.5575 21.9625C38.5575 19.725 36.8176 17.9187 34.6805 17.9187C32.5434 17.9187 30.8034 19.725 30.8034 21.9625C30.8034 24.2001 32.5434 26.0064 34.6805 26.0064ZM34.6805 26.1145C36.8814 26.1145 38.6657 24.2556 38.6657 21.9625C38.6657 19.6695 36.8814 17.8105 34.6805 17.8105C32.4795 17.8105 30.6953 19.6695 30.6953 21.9625C30.6953 24.2556 32.4795 26.1145 34.6805 26.1145Z" fill="black"/>
<path d="M31.6221 19.3907C31.7803 19.6242 31.7952 19.8532 32.0386 19.98C32.1242 20.0246 32.1812 20.1104 32.27 20.1514C32.3619 20.194 32.478 20.1808 32.5708 20.2345C32.9502 20.4541 33.2418 20.4893 33.2418 21.0059C33.2418 21.145 33.4269 21.0964 33.4269 21.247V21.6461C33.4269 21.8202 33.491 22.2274 33.2598 22.2809C33.1484 22.3067 33.0104 22.2661 33.0104 22.4283V22.8622C33.0104 23.1217 33.0145 23.2866 32.9179 23.5131C32.8303 23.7184 32.5873 23.8299 32.4962 24.0435C32.4108 24.2437 32.1867 24.404 32.1774 24.6569C32.1734 24.7655 32.0859 25.139 32.2031 25.1739C32.2879 25.1991 32.3461 25.2986 32.4319 25.3185C32.5388 25.3433 32.5708 25.1953 32.6402 25.0908C32.7933 24.8605 33.016 24.5757 33.2649 24.456C33.575 24.3069 33.9133 24.3569 34.2496 24.3569C34.5007 24.3569 34.6578 24.3227 34.8358 24.1372C34.9519 24.0163 35.0365 23.7997 35.206 23.7354C35.3056 23.6977 35.5722 23.6501 35.638 23.5747C35.6609 23.5484 35.7394 23.2023 35.7408 23.1515C35.7442 23.0327 35.7641 22.8633 35.7305 22.7497C35.6669 22.5343 35.5915 22.3376 35.5531 22.1175C35.5216 21.9367 35.674 21.9697 35.7845 21.8738C35.8965 21.7766 35.9723 21.6299 36.075 21.5229C36.1945 21.3984 36.3105 21.3781 36.4453 21.2979C36.5177 21.2547 36.6936 21.1913 36.7358 21.1211C36.842 20.9441 36.8052 20.5097 36.8052 20.2961C36.8052 19.845 36.225 19.5963 35.8616 19.538C35.6302 19.5009 35.5094 19.2909 35.5094 19.0532C35.5094 18.8179 35.9223 18.6484 36.0905 18.6166C36.2707 18.5824 36.2494 18.23 36.0905 18.1827C36.0316 18.1651 35.9293 18.0306 35.8771 17.9898C35.7956 17.9261 35.657 17.8478 35.5557 17.8478H34.3962C34.2398 17.8478 33.7029 17.7594 33.576 17.8585C33.5079 17.9118 33.3772 18.0355 33.2881 18.0407C33.1583 18.0482 33.1095 18.1597 32.9873 18.188C32.7659 18.2393 32.605 18.4294 32.4448 18.5496C32.1418 18.7769 31.7948 19.0307 31.6221 19.3907Z" fill="#86BD7A"/>
<path fill-rule="evenodd" clip-rule="evenodd" d="M34.2247 17.7821C34.3001 17.7889 34.36 17.7941 34.396 17.7941H35.5556C35.6182 17.7941 35.6869 17.8177 35.747 17.8465C35.8083 17.8759 35.8666 17.9135 35.9102 17.9475C35.9267 17.9604 35.9454 17.9792 35.9631 17.9976C35.9725 18.0075 35.9809 18.0164 35.9893 18.0254C35.999 18.0357 36.0087 18.046 36.02 18.0578C36.0394 18.0779 36.0578 18.096 36.0743 18.1098C36.0921 18.1248 36.1024 18.1302 36.1058 18.1312C36.1635 18.1484 36.2044 18.192 36.2304 18.2405C36.2564 18.2891 36.27 18.3471 36.2716 18.4034C36.2731 18.4596 36.2627 18.5182 36.2363 18.5671C36.2093 18.617 36.1645 18.6579 36.1004 18.6701C36.0227 18.6848 35.8836 18.7327 35.7649 18.8051C35.7057 18.8412 35.6542 18.8818 35.6179 18.9252C35.5818 18.9685 35.5633 19.0113 35.5633 19.0536C35.5633 19.2756 35.6743 19.4536 35.8701 19.485C36.0578 19.5151 36.3013 19.5941 36.4994 19.725C36.6969 19.8556 36.8591 20.0449 36.8591 20.2964C36.8591 20.333 36.8603 20.3787 36.8617 20.4296C36.864 20.5189 36.8668 20.6242 36.8642 20.7241C36.8622 20.804 36.8567 20.8844 36.8446 20.9568C36.8327 21.0284 36.8137 21.0965 36.782 21.1493C36.7656 21.1766 36.7393 21.199 36.7137 21.2169C36.6872 21.2355 36.6565 21.2526 36.6265 21.2681C36.6015 21.281 36.5757 21.2933 36.5523 21.3045C36.5476 21.3067 36.543 21.3089 36.5385 21.311C36.5108 21.3243 36.4885 21.3354 36.4728 21.3447C36.4258 21.3727 36.3785 21.3949 36.3356 21.415C36.3155 21.4245 36.2963 21.4335 36.2786 21.4424C36.2212 21.4714 36.168 21.5043 36.1139 21.5607C36.0718 21.6045 36.0345 21.6555 35.9945 21.7102C35.9886 21.7182 35.9827 21.7263 35.9766 21.7344C35.9309 21.7966 35.8808 21.862 35.8198 21.915C35.7864 21.944 35.7507 21.9625 35.7194 21.9766C35.7066 21.9823 35.6955 21.987 35.6855 21.9912C35.6687 21.9983 35.6551 22.0041 35.6414 22.0116C35.6224 22.022 35.6136 22.0309 35.6089 22.0406C35.604 22.0507 35.5995 22.0699 35.6062 22.1086C35.633 22.2621 35.6777 22.4021 35.7246 22.5494C35.7438 22.6095 35.7634 22.6708 35.7822 22.7347C35.8015 22.7998 35.8046 22.8775 35.8034 22.9499C35.8028 22.9867 35.801 23.0234 35.7992 23.0578C35.7989 23.0626 35.7987 23.0674 35.7984 23.0721C35.7969 23.1014 35.7954 23.1285 35.7947 23.1534C35.7942 23.1716 35.7879 23.2077 35.7803 23.2462C35.7722 23.2869 35.7614 23.3364 35.75 23.385C35.7385 23.4336 35.7263 23.4818 35.7154 23.5199C35.7099 23.5389 35.7046 23.556 35.6997 23.5697C35.6972 23.5765 35.6946 23.5832 35.6919 23.5891C35.6897 23.5938 35.6854 23.6027 35.6786 23.6106C35.6538 23.639 35.6154 23.66 35.5783 23.6762C35.5394 23.6932 35.4944 23.7081 35.45 23.7214C35.4145 23.7319 35.3783 23.7418 35.3451 23.7508C35.3366 23.7531 35.3284 23.7553 35.3204 23.7575C35.2799 23.7686 35.2471 23.778 35.2251 23.7863C35.1559 23.8126 35.1002 23.8715 35.0443 23.9475C35.0264 23.9718 35.0097 23.996 34.9927 24.0208C34.983 24.035 34.9731 24.0493 34.9629 24.0639C34.9357 24.1027 34.9067 24.1417 34.8747 24.175C34.7809 24.2727 34.6901 24.3331 34.5875 24.3681C34.486 24.4028 34.3768 24.4113 34.2495 24.4113C34.1809 24.4113 34.1122 24.4092 34.0445 24.4072C34.0282 24.4067 34.012 24.4062 33.9958 24.4058C33.9121 24.4034 33.8301 24.4019 33.7493 24.4049C33.5878 24.4109 33.434 24.435 33.2882 24.5051C33.054 24.6177 32.8382 24.8906 32.6851 25.1211C32.6696 25.1443 32.6559 25.1706 32.6414 25.1989C32.6403 25.2011 32.6392 25.2032 32.6381 25.2054C32.625 25.2309 32.6109 25.2585 32.5955 25.2826C32.5789 25.3086 32.5575 25.3359 32.5285 25.3542C32.4971 25.3739 32.4603 25.3809 32.4196 25.3715C32.3626 25.3583 32.3173 25.3198 32.2834 25.291L32.282 25.2897C32.2435 25.257 32.2168 25.2347 32.1876 25.226C32.1274 25.2081 32.1049 25.15 32.0959 25.1045C32.0863 25.0556 32.0868 24.9965 32.0907 24.9396C32.0947 24.882 32.1026 24.8224 32.1095 24.7716L32.111 24.7611C32.1175 24.7137 32.1224 24.6774 32.1232 24.6552C32.1285 24.5127 32.1945 24.3986 32.2639 24.2998C32.2813 24.275 32.2992 24.2507 32.3166 24.2271L32.3175 24.226C32.3347 24.2027 32.3514 24.1801 32.3673 24.1575C32.3997 24.1115 32.4272 24.0675 32.4463 24.0226C32.4966 23.9047 32.588 23.8165 32.6694 23.7378L32.6707 23.7367C32.7555 23.6547 32.8293 23.583 32.868 23.4922C32.9564 23.285 32.9563 23.1342 32.9562 22.8899C32.9562 22.8809 32.9562 22.8718 32.9562 22.8626V22.4286C32.9562 22.3808 32.9664 22.34 32.9905 22.3082C33.0148 22.2761 33.0478 22.2602 33.0788 22.2517C33.1086 22.2435 33.1413 22.2408 33.1687 22.2386L33.1698 22.2385C33.1991 22.2361 33.2243 22.234 33.2475 22.2286C33.2877 22.2193 33.3154 22.1955 33.3359 22.158C33.3574 22.1188 33.37 22.0658 33.3761 22.0038C33.3822 21.9424 33.3815 21.8764 33.3792 21.8136C33.3783 21.7923 33.3773 21.7708 33.3763 21.7499C33.3745 21.7116 33.3727 21.6755 33.3727 21.6465V21.2473C33.3727 21.2225 33.3657 21.2106 33.3581 21.2024C33.3481 21.1916 33.3335 21.183 33.3093 21.1705C33.3079 21.1697 33.3064 21.169 33.3049 21.1682C33.2842 21.1575 33.2552 21.1425 33.2324 21.1197C33.2048 21.0921 33.1876 21.0553 33.1876 21.0063C33.1876 20.882 33.17 20.7905 33.1403 20.7196C33.1108 20.6492 33.0682 20.5963 33.0137 20.5506C32.9583 20.5042 32.8907 20.4653 32.8105 20.4233C32.789 20.412 32.7666 20.4005 32.7433 20.3886C32.6812 20.3568 32.6135 20.3221 32.5435 20.2816C32.5066 20.2603 32.4635 20.2513 32.411 20.2425C32.4065 20.2417 32.4019 20.241 32.3972 20.2402C32.3508 20.2326 32.2963 20.2236 32.2471 20.2009C32.1945 20.1765 32.1525 20.1394 32.117 20.1078L32.1142 20.1053C32.078 20.073 32.0482 20.0464 32.0135 20.0283C31.8783 19.9579 31.8071 19.8584 31.7504 19.7509C31.7308 19.7137 31.7135 19.6771 31.6962 19.6406C31.6623 19.5687 31.6284 19.497 31.5772 19.4214C31.5664 19.4055 31.5649 19.385 31.5732 19.3677C31.7472 19.005 32.0901 18.7481 32.3842 18.5277C32.3936 18.5207 32.4029 18.5137 32.4122 18.5067C32.4505 18.478 32.4893 18.4448 32.5305 18.4091C32.5332 18.4067 32.536 18.4044 32.5387 18.402C32.5771 18.3688 32.6174 18.3339 32.6596 18.3008C32.7499 18.2299 32.8529 18.1639 32.9749 18.1357C33.0192 18.1254 33.0509 18.1019 33.0921 18.0712C33.0955 18.0687 33.099 18.0661 33.1025 18.0635C33.1474 18.0302 33.2031 17.9918 33.2848 17.9871C33.2964 17.9864 33.3136 17.9814 33.3364 17.9697C33.3587 17.9584 33.3829 17.9426 33.4079 17.9243C33.4406 17.9005 33.4695 17.8764 33.496 17.8543C33.5123 17.8408 33.5277 17.8279 33.5426 17.8163C33.5666 17.7975 33.5969 17.7856 33.6275 17.7777C33.6587 17.7695 33.6941 17.7645 33.7313 17.7615C33.8056 17.7556 33.8923 17.7575 33.978 17.7624C34.0591 17.767 34.1409 17.7745 34.2121 17.7809C34.2163 17.7813 34.2205 17.7817 34.2247 17.7821ZM33.4808 21.2473V21.6465C33.4808 21.6731 33.4824 21.7045 33.4841 21.7406C33.4852 21.7619 33.4863 21.7849 33.4872 21.8095C33.4896 21.8737 33.4905 21.9456 33.4837 22.0144C33.477 22.0827 33.4623 22.1523 33.4307 22.21C33.3982 22.2694 33.3473 22.3165 33.2719 22.334C33.2409 22.3411 33.2087 22.3438 33.1819 22.346L33.1781 22.3463C33.1485 22.3487 33.126 22.3509 33.1075 22.3559C33.0902 22.3607 33.0817 22.3667 33.0767 22.3734C33.0714 22.3804 33.0643 22.3954 33.0643 22.4286V22.8626C33.0643 22.8735 33.0643 22.8844 33.0644 22.8951C33.0645 23.136 33.0647 23.3068 32.9674 23.5347C32.9198 23.6465 32.8314 23.7318 32.7516 23.8088L32.7458 23.8144C32.6614 23.8959 32.5864 23.97 32.5458 24.065C32.5222 24.1203 32.4897 24.1714 32.4557 24.2197C32.4391 24.2434 32.4218 24.2668 32.4048 24.2898L32.4036 24.2914C32.3861 24.3151 32.3689 24.3383 32.3524 24.3619C32.286 24.4564 32.2354 24.549 32.2313 24.6592C32.2303 24.6871 32.2245 24.7288 32.2185 24.773C32.2179 24.7774 32.2173 24.7818 32.2167 24.7862C32.2097 24.8371 32.2023 24.8935 32.1986 24.9471C32.1948 25.0016 32.1952 25.0491 32.202 25.0835C32.2054 25.1006 32.2097 25.1113 32.2136 25.1173C32.2154 25.12 32.2167 25.1213 32.2173 25.1218C32.2175 25.122 32.2177 25.1221 32.2179 25.1222C32.2181 25.1223 32.2182 25.1223 32.2184 25.1224C32.2708 25.138 32.3137 25.1746 32.3463 25.2024C32.3482 25.2041 32.3501 25.2058 32.352 25.2074C32.3898 25.2395 32.416 25.2597 32.444 25.2662C32.4568 25.2691 32.464 25.267 32.4709 25.2627C32.48 25.2569 32.491 25.2453 32.5044 25.2243C32.5169 25.2048 32.5287 25.1818 32.5424 25.155L32.5451 25.1497C32.5595 25.1217 32.5757 25.0903 32.595 25.0613C32.748 24.831 32.9778 24.5344 33.2414 24.4076C33.4057 24.3286 33.576 24.3031 33.7453 24.2968C33.8298 24.2937 33.9148 24.2953 33.9988 24.2977C34.0154 24.2982 34.032 24.2987 34.0485 24.2992C34.116 24.3012 34.1827 24.3032 34.2495 24.3032C34.3733 24.3032 34.4681 24.2946 34.5525 24.2658C34.6357 24.2374 34.7124 24.188 34.7967 24.1001C34.8227 24.073 34.8478 24.0396 34.8744 24.0017C34.8833 23.9891 34.8926 23.9756 34.902 23.9618C34.9198 23.936 34.9384 23.9089 34.9572 23.8834C35.0151 23.8047 35.0864 23.7232 35.1868 23.6852C35.2145 23.6747 35.2523 23.664 35.2919 23.6532C35.3003 23.6509 35.3088 23.6486 35.3174 23.6463C35.3505 23.6373 35.3851 23.6279 35.4191 23.6177C35.462 23.6049 35.5021 23.5915 35.5349 23.5771C35.5659 23.5636 35.5849 23.5515 35.5943 23.5424C35.5952 23.5403 35.5964 23.5373 35.5979 23.5331C35.6017 23.5226 35.6063 23.508 35.6114 23.4901C35.6217 23.4543 35.6335 23.4079 35.6447 23.3602C35.6559 23.3127 35.6664 23.2645 35.6742 23.2252C35.6824 23.1837 35.6864 23.1575 35.6866 23.1503C35.6874 23.124 35.6889 23.0953 35.6905 23.0662C35.6907 23.0615 35.691 23.0568 35.6912 23.0521C35.693 23.0178 35.6947 22.9828 35.6953 22.9481C35.6965 22.8777 35.6929 22.8139 35.6785 22.7654C35.6611 22.7063 35.6424 22.6478 35.6237 22.5892C35.5759 22.439 35.5279 22.2884 35.4997 22.1272C35.4907 22.0755 35.4934 22.031 35.5117 21.9934C35.5301 21.9554 35.5605 21.9327 35.5894 21.9168C35.6076 21.9068 35.6301 21.8972 35.6503 21.8886C35.6592 21.8849 35.6676 21.8813 35.675 21.878C35.7023 21.8657 35.7271 21.8523 35.7489 21.8333C35.7999 21.7891 35.8438 21.7326 35.8896 21.6703C35.8953 21.6626 35.9011 21.6547 35.9069 21.6467C35.9464 21.5927 35.9884 21.5353 36.0359 21.4858C36.1013 21.4177 36.1658 21.3782 36.2299 21.3459C36.2531 21.3342 36.2749 21.324 36.2963 21.314C36.3362 21.2953 36.3747 21.2772 36.4175 21.2518C36.438 21.2395 36.4648 21.2265 36.4918 21.2135C36.4965 21.2113 36.5013 21.209 36.5061 21.2067C36.5295 21.1955 36.5535 21.184 36.577 21.1719C36.6053 21.1574 36.631 21.1428 36.6517 21.1284C36.6732 21.1133 36.6846 21.1014 36.6893 21.0936C36.7107 21.0579 36.7269 21.0053 36.738 20.939C36.7489 20.8735 36.7541 20.7987 36.7561 20.7213C36.7587 20.6227 36.7561 20.5258 36.7537 20.4394C36.7523 20.3873 36.751 20.339 36.751 20.2964C36.751 20.097 36.6231 19.9364 36.4398 19.8152C36.2569 19.6944 36.0287 19.6199 35.853 19.5918C35.5858 19.5489 35.4552 19.3069 35.4552 19.0536C35.4552 18.9781 35.4884 18.9116 35.5349 18.8559C35.5814 18.8003 35.6435 18.7525 35.7086 18.7128C35.8384 18.6337 35.9897 18.581 36.0803 18.5638C36.1063 18.5589 36.1264 18.5429 36.1412 18.5157C36.1565 18.4874 36.1646 18.4486 36.1635 18.4064C36.1623 18.3644 36.1521 18.3233 36.135 18.2915C36.1179 18.2595 36.0966 18.2413 36.0749 18.2348C36.0488 18.2271 36.0242 18.209 36.0047 18.1926C35.9838 18.175 35.9623 18.1536 35.9422 18.1328C35.932 18.1223 35.9202 18.1097 35.9091 18.0979C35.9002 18.0885 35.8918 18.0795 35.885 18.0724C35.867 18.0537 35.8533 18.0403 35.8436 18.0327C35.8057 18.0031 35.754 17.9697 35.7003 17.944C35.6455 17.9178 35.5942 17.9022 35.5556 17.9022H34.396C34.3539 17.9022 34.2881 17.8964 34.2149 17.8898C34.2109 17.8894 34.2068 17.889 34.2027 17.8886C34.1312 17.8822 34.051 17.8749 33.9718 17.8703C33.8878 17.8655 33.8068 17.8639 33.7399 17.8693C33.7064 17.872 33.6778 17.8763 33.6548 17.8823C33.6312 17.8884 33.6169 17.8955 33.6092 17.9015C33.5993 17.9092 33.5862 17.92 33.5712 17.9325C33.5422 17.9566 33.5059 17.9866 33.4717 18.0116C33.4444 18.0316 33.4149 18.0511 33.3855 18.0661C33.3567 18.0807 33.3241 18.0931 33.2911 18.095C33.2431 18.0978 33.2094 18.1189 33.1669 18.1504C33.1631 18.1532 33.1592 18.1561 33.1552 18.1591C33.1161 18.1884 33.0668 18.2254 32.9993 18.241C32.9 18.264 32.8119 18.3188 32.7263 18.3859C32.6863 18.4173 32.6478 18.4506 32.6091 18.4841C32.6065 18.4864 32.6039 18.4886 32.6012 18.4909C32.5603 18.5263 32.5189 18.5619 32.4771 18.5932C32.4705 18.5982 32.4639 18.6031 32.4573 18.608C32.165 18.8272 31.8505 19.0631 31.6841 19.3873C31.731 19.4612 31.7667 19.5364 31.7988 19.6042C31.8152 19.6386 31.8306 19.6711 31.8461 19.7005C31.8973 19.7977 31.9552 19.8761 32.0634 19.9324C32.1105 19.9569 32.1495 19.9918 32.1829 20.0216C32.1849 20.0235 32.1869 20.0253 32.1889 20.027C32.2255 20.0597 32.2564 20.086 32.2925 20.1027C32.3276 20.119 32.3676 20.1256 32.4172 20.1339C32.421 20.1345 32.4249 20.1352 32.4288 20.1358C32.4806 20.1445 32.5419 20.1557 32.5977 20.188C32.6651 20.2271 32.729 20.2598 32.7904 20.2912C32.8142 20.3034 32.8376 20.3154 32.8607 20.3275C32.9418 20.37 33.0183 20.4133 33.0832 20.4678C33.149 20.5229 33.203 20.5894 33.24 20.6778C33.2768 20.7656 33.2957 20.8722 33.2957 21.0063C33.2957 21.0268 33.3017 21.0361 33.3088 21.0432C33.3191 21.0535 33.3338 21.0613 33.3591 21.0745L33.36 21.0749C33.382 21.0864 33.4132 21.1026 33.4376 21.129C33.4647 21.1584 33.4808 21.1969 33.4808 21.2473Z" fill="black"/>
<path d="M35.4683 25.9712C35.6507 25.7364 35.9959 25.5949 36.1722 25.3588C36.2283 25.2837 36.2359 25.159 36.2762 25.075C36.3187 24.9864 36.3507 24.8856 36.3982 24.8007C36.4642 24.6828 36.6377 24.5315 36.7734 24.524C36.9905 24.5121 36.959 24.1373 37.0378 23.9731C37.1171 23.8077 37.2081 23.6607 37.3632 23.5798C37.5013 23.5079 37.6021 23.5068 37.7599 23.5068C37.8886 23.5068 37.9824 23.5704 38.1057 23.5704C38.2019 23.5704 38.1504 23.9013 38.1373 23.9625C38.1307 23.9933 38.1094 24.0935 38.0752 24.1002C38.0049 24.1139 37.9912 24.2183 37.9531 24.2603C37.9108 24.307 37.8732 24.3475 37.8311 24.3969C37.7801 24.4566 37.7532 24.5483 37.7045 24.6041C37.529 24.8052 37.3592 25.0948 37.1101 25.2128C36.9915 25.269 36.908 25.4023 36.7892 25.4518C36.7329 25.4752 36.6558 25.5228 36.6106 25.5624C36.545 25.6201 36.4712 25.6281 36.3959 25.6684C36.3283 25.7047 36.2382 25.7501 36.1586 25.7532C36.0995 25.7555 35.9082 25.7912 35.8739 25.8379C35.8375 25.8875 35.7476 25.8972 35.6953 25.9274C35.5771 25.9958 35.5146 25.9712 35.4683 25.9712Z" fill="#86BD7A"/>
<path fill-rule="evenodd" clip-rule="evenodd" d="M37.7597 23.5612C37.6025 23.5612 37.5135 23.5628 37.3881 23.6281C37.2495 23.7003 37.165 23.833 37.0864 23.9968C37.07 24.031 37.0582 24.0789 37.0467 24.1376C37.0436 24.1531 37.0406 24.1693 37.0375 24.186C37.0293 24.2296 37.0206 24.2761 37.0098 24.3192C36.9947 24.3789 36.9738 24.4403 36.9387 24.4883C36.9019 24.5387 36.8491 24.5744 36.7762 24.5784C36.7246 24.5812 36.658 24.613 36.5928 24.6639C36.5286 24.714 36.474 24.7761 36.4452 24.8275C36.4232 24.8668 36.4044 24.9106 36.3852 24.9573C36.382 24.9652 36.3787 24.9731 36.3755 24.9812C36.3596 25.02 36.3431 25.0605 36.3248 25.0988C36.3105 25.1285 36.301 25.1641 36.2898 25.2062C36.2873 25.2154 36.2848 25.225 36.2821 25.2348C36.2683 25.2855 36.2502 25.3448 36.2154 25.3915C36.1214 25.5174 35.9836 25.6166 35.8539 25.7097L35.8524 25.7108C35.7586 25.7783 35.6688 25.8428 35.5941 25.9137C35.6147 25.9078 35.6391 25.8978 35.6681 25.881C35.6854 25.871 35.7045 25.8634 35.7216 25.8572C35.7295 25.8543 35.7377 25.8515 35.7454 25.8488L35.7474 25.8481C35.7559 25.8452 35.7639 25.8424 35.7717 25.8396C35.8054 25.8271 35.8225 25.8168 35.8302 25.8063C35.8483 25.7816 35.8792 25.766 35.9034 25.7558C35.9305 25.7444 35.9624 25.7347 35.9935 25.7268C36.0552 25.7112 36.1218 25.7008 36.1564 25.6995C36.2214 25.697 36.3007 25.6584 36.3703 25.6211C36.4021 25.6041 36.4349 25.5917 36.463 25.5811C36.4715 25.5779 36.4795 25.5749 36.4869 25.572C36.5208 25.5586 36.5489 25.5449 36.5749 25.5222C36.6246 25.4785 36.7068 25.4279 36.7683 25.4022C36.8174 25.3817 36.8612 25.343 36.913 25.2954C36.9152 25.2933 36.9174 25.2913 36.9196 25.2893C36.9669 25.2456 37.0217 25.1951 37.0868 25.1643C37.2008 25.1103 37.2995 25.0155 37.3936 24.9049C37.4388 24.8518 37.482 24.7962 37.5251 24.7407L37.5298 24.7347C37.5741 24.6776 37.6186 24.6205 37.6636 24.5689C37.6828 24.547 37.6987 24.5166 37.7187 24.4776L37.7199 24.4754C37.7382 24.4397 37.7601 24.3969 37.7898 24.3622C37.824 24.3221 37.8554 24.2875 37.8881 24.2517C37.8963 24.2427 37.9045 24.2336 37.9129 24.2244C37.9169 24.22 37.9222 24.2116 37.9296 24.1962C37.9317 24.1919 37.9344 24.1861 37.9374 24.1797C37.9425 24.1686 37.9486 24.1556 37.9539 24.1453C37.9702 24.1134 37.9987 24.066 38.0534 24.0502C38.057 24.0444 38.0611 24.0352 38.0654 24.0228C38.0723 24.0033 38.0776 23.9817 38.0812 23.9656C38.0824 23.9602 38.0835 23.9554 38.0843 23.9515C38.0843 23.9515 38.0843 23.9515 38.0843 23.9515C38.0903 23.9234 38.1059 23.8287 38.1083 23.7424C38.1095 23.6985 38.1071 23.6616 38.1007 23.6373C38.0992 23.6318 38.0977 23.6277 38.0964 23.6247C38.0315 23.6233 37.9743 23.6067 37.9237 23.5921L37.9197 23.5909C37.8642 23.5749 37.8154 23.5612 37.7597 23.5612ZM38.19 23.9741C38.1971 23.9411 38.2138 23.8397 38.2164 23.7453C38.2177 23.6988 38.2157 23.6492 38.2052 23.6095C38.1999 23.5898 38.1914 23.5679 38.1763 23.5501C38.1597 23.5306 38.1356 23.5167 38.1055 23.5167C38.0528 23.5167 38.0057 23.5032 37.9497 23.487L37.949 23.4868C37.8947 23.4711 37.8324 23.4531 37.7597 23.4531C37.6014 23.4531 37.4888 23.4537 37.3381 23.5322C37.1663 23.6217 37.069 23.7831 36.9889 23.95C36.9659 23.998 36.9521 24.0584 36.9406 24.1167C36.9371 24.1344 36.9338 24.1521 36.9305 24.1696C36.9226 24.2119 36.9149 24.2531 36.9049 24.2928C36.8908 24.3488 36.874 24.3937 36.8515 24.4245C36.8307 24.4528 36.806 24.4685 36.7703 24.4704C36.6861 24.475 36.5981 24.5226 36.5263 24.5787C36.4533 24.6356 36.3881 24.7082 36.3509 24.7747C36.3254 24.8202 36.3045 24.8693 36.2852 24.9163C36.2817 24.9247 36.2783 24.9331 36.2749 24.9413C36.2591 24.9801 36.2441 25.017 36.2273 25.052C36.2082 25.0918 36.1955 25.1397 36.1843 25.1819C36.1821 25.1903 36.18 25.1985 36.1778 25.2063C36.1638 25.2578 36.1499 25.2984 36.1287 25.3268C36.0465 25.4369 35.9235 25.5266 35.7908 25.6219C35.788 25.624 35.7852 25.626 35.7824 25.628C35.6554 25.7193 35.5203 25.8163 35.4254 25.9384C35.4128 25.9547 35.4105 25.9767 35.4196 25.9953C35.4286 26.0138 35.4475 26.0256 35.4681 26.0256C35.4742 26.0256 35.4802 26.0262 35.4894 26.027C35.493 26.0274 35.497 26.0277 35.5018 26.0282C35.5172 26.0295 35.5362 26.0307 35.5583 26.0292C35.6035 26.0263 35.6566 26.0126 35.7223 25.9746C35.7311 25.9695 35.7429 25.9645 35.7585 25.9588C35.7655 25.9562 35.7729 25.9537 35.7807 25.951L35.7827 25.9504C35.7911 25.9474 35.8001 25.9443 35.8091 25.941C35.8426 25.9286 35.8886 25.9094 35.9173 25.8703C35.9171 25.8706 35.9172 25.8705 35.9178 25.8701C35.9198 25.8686 35.9273 25.8631 35.9453 25.8555C35.9656 25.847 35.9917 25.8388 36.0201 25.8316C36.0774 25.8171 36.1361 25.8085 36.1606 25.8075C36.2546 25.8039 36.3556 25.7516 36.4213 25.7164C36.4463 25.7031 36.4698 25.6942 36.4964 25.6841C36.506 25.6805 36.516 25.6767 36.5266 25.6725C36.5648 25.6575 36.6064 25.6383 36.6462 25.6034C36.6868 25.5678 36.7588 25.5233 36.8099 25.502C36.8795 25.473 36.9369 25.4203 36.9862 25.3749L36.9875 25.3737C37.0392 25.3261 37.0831 25.2857 37.1331 25.262C37.2682 25.198 37.3789 25.089 37.4759 24.975C37.5228 24.92 37.5673 24.8627 37.61 24.8076L37.6152 24.801C37.6598 24.7435 37.7024 24.6889 37.7451 24.64C37.7738 24.6072 37.7952 24.5654 37.8133 24.5302L37.8149 24.527C37.8347 24.4884 37.8514 24.4565 37.8721 24.4323C37.905 24.3937 37.935 24.3607 37.9675 24.3251C37.9758 24.3159 37.9843 24.3066 37.993 24.297C38.0081 24.2804 38.0189 24.26 38.0269 24.2435C38.0311 24.2348 38.0344 24.2276 38.0375 24.2209C38.0415 24.2122 38.0452 24.2042 38.05 24.1947C38.0665 24.1626 38.0773 24.1552 38.0854 24.1536C38.0972 24.1513 38.1072 24.1464 38.1154 24.1406C38.1292 24.1307 38.1384 24.1181 38.1438 24.1097C38.154 24.0937 38.1617 24.0751 38.1675 24.0586C38.1751 24.0368 38.181 24.014 38.1851 23.9965C38.1872 23.9875 38.1888 23.98 38.1899 23.9747C38.1899 23.9747 38.1899 23.9747 38.1899 23.9747L38.19 23.9741ZM38.051 24.0539C38.051 24.0539 38.051 24.0539 38.051 24.0539L38.051 24.0539ZM38.0503 24.0547C38.0503 24.0547 38.0503 24.0547 38.0503 24.0547C38.0503 24.0547 38.0505 24.0544 38.051 24.0539M38.051 24.0539C38.0506 24.0544 38.0503 24.0547 38.0503 24.0547L38.051 24.0539ZM38.0503 24.0547C38.0503 24.0547 38.0503 24.0547 38.0503 24.0547L38.0503 24.0547Z" fill="black"/>
<g clip-path="url(#clip0)">
<g filter="url(#filter0_d)">
<path d="M31.1356 20.7031C30.4047 20.7031 30.0379 21.1902 29.9522 21.5504C29.8894 21.8141 29.9845 22.122 30.0136 22.4588C30.0392 22.7578 30.209 23.0087 30.3829 23.0596C30.6331 23.3835 30.899 23.3696 31.3457 23.3696C32.2177 23.3696 32.5444 22.7005 32.5444 21.9313C32.5443 21.3433 32.1404 20.7031 31.1356 20.7031Z" fill="#FFE51E"/>
</g>
<g filter="url(#filter1_d)">
<path fill-rule="evenodd" clip-rule="evenodd" d="M30.1213 22.4495L30.1213 22.4496C30.1327 22.582 30.176 22.7028 30.234 22.7944C30.2935 22.8884 30.3608 22.9404 30.4132 22.9558L30.447 22.9656L30.4685 22.9935C30.5793 23.137 30.6875 23.2 30.816 23.231C30.944 23.2618 31.0929 23.2617 31.2973 23.2615C31.3131 23.2615 31.3292 23.2615 31.3457 23.2615C31.75 23.2615 32.0158 23.1085 32.1844 22.8755C32.3569 22.6372 32.4362 22.3031 32.4362 21.9313M30.0573 21.5754C30.1333 21.2562 30.4623 20.8112 31.1356 20.8112C31.6139 20.8112 31.9362 20.9629 32.1391 21.172C32.3434 21.3826 32.4362 21.6612 32.4362 21.9313M30.0573 21.5754C30.0307 21.6874 30.0365 21.8141 30.0557 21.9634C30.0621 22.0134 30.0704 22.0676 30.079 22.1241C30.0948 22.2278 30.1118 22.3396 30.1213 22.4495M29.9522 21.5504C30.0379 21.1902 30.4047 20.7031 31.1356 20.7031C32.1404 20.7031 32.5443 21.3433 32.5444 21.9313C32.5444 22.7005 32.2177 23.3696 31.3457 23.3696C31.3277 23.3696 31.3101 23.3697 31.2927 23.3697C30.8777 23.3702 30.623 23.3705 30.3829 23.0596C30.209 23.0087 30.0392 22.7578 30.0136 22.4588C30.0043 22.3517 29.9884 22.2474 29.973 22.1466C29.94 21.9305 29.9094 21.7302 29.9522 21.5504Z" fill="black"/>
</g>
<g filter="url(#filter2_d)">
<path d="M32.2061 21.9947C32.1217 21.8748 32.0137 21.7783 31.7769 21.744C31.8657 21.7858 31.9507 21.9301 31.9619 22.0099C31.973 22.0897 31.9841 22.1542 31.9138 22.0745C31.6321 21.755 31.3254 21.8808 31.0215 21.6856C30.8092 21.5493 30.7445 21.3984 30.7445 21.3984C30.7445 21.3984 30.7187 21.5997 30.3967 21.8049C30.3034 21.8644 30.1921 21.9968 30.1303 22.1923C30.0858 22.3328 30.0908 22.4199 30.1018 22.5189C30.2154 23.1493 30.6326 23.5052 31.2201 23.5052C31.8071 23.5052 32.2237 23.2203 32.3377 22.5607C32.3398 22.5323 32.342 22.5039 32.342 22.475C32.342 22.2282 32.3023 22.1315 32.2061 21.9947Z" fill="#F3D2A2"/>
</g>
<g filter="url(#filter3_d)">
<path fill-rule="evenodd" clip-rule="evenodd" d="M32.2061 21.9947C32.1525 21.9185 32.0893 21.8517 31.9896 21.8044C31.9324 21.7773 31.8632 21.7565 31.7769 21.744C31.8291 21.7686 31.8799 21.8285 31.9153 21.8899C31.927 21.9104 31.9371 21.931 31.9449 21.9505C31.9524 21.9693 31.9578 21.9871 31.9607 22.0028C31.9612 22.0052 31.9616 22.0076 31.9619 22.0099C31.9623 22.0125 31.9626 22.0151 31.963 22.0177C31.9636 22.0217 31.9641 22.0258 31.9647 22.0297C31.9647 22.0297 31.9647 22.0297 31.9647 22.0297C31.9743 22.0996 31.9782 22.1475 31.9138 22.0745C31.9031 22.0624 31.8923 22.0508 31.8815 22.0399C31.8759 22.0343 31.8704 22.0288 31.8648 22.0235C31.8604 22.0193 31.8561 22.0153 31.8517 22.0114C31.7062 21.8794 31.5546 21.8488 31.4007 21.8178C31.2752 21.7925 31.1481 21.7669 31.0215 21.6856C30.9285 21.6259 30.8638 21.5633 30.8205 21.5119C30.765 21.446 30.7445 21.3984 30.7445 21.3984C30.7445 21.3984 30.7382 21.4479 30.6926 21.5227C30.6462 21.5989 30.5591 21.7014 30.3967 21.8049C30.3034 21.8644 30.1921 21.9968 30.1303 22.1923C30.0858 22.3328 30.0908 22.4199 30.1018 22.5189C30.2154 23.1493 30.6326 23.5052 31.2201 23.5052C31.8071 23.5052 32.2237 23.2203 32.3377 22.5607L32.3379 22.5572C32.34 22.53 32.342 22.5027 32.342 22.475C32.342 22.2282 32.3023 22.1315 32.2061 21.9947ZM32.0691 21.9956C32.0861 22.0142 32.102 22.0346 32.1177 22.0569L32.2061 21.9947L32.1177 22.0569C32.1628 22.121 32.1895 22.1686 32.2067 22.2251C32.2243 22.2828 32.2339 22.3567 32.2339 22.475C32.2339 22.4976 32.2323 22.5203 32.2303 22.5474C32.1762 22.8548 32.0544 23.0631 31.8886 23.1959C31.7212 23.3301 31.4965 23.397 31.2201 23.397C30.9489 23.397 30.7241 23.3153 30.5544 23.167C30.3849 23.0189 30.2625 22.7974 30.2088 22.5033C30.1991 22.4145 30.1956 22.3442 30.2334 22.225L30.2334 22.2249C30.2888 22.0496 30.3862 21.9398 30.4548 21.8961C30.61 21.7972 30.7055 21.6964 30.764 21.6113C30.812 21.6633 30.877 21.7213 30.9631 21.7766L30.9631 21.7766C31.1084 21.8699 31.2582 21.8998 31.384 21.9249C31.4079 21.9296 31.4309 21.9342 31.4528 21.939C31.5922 21.9696 31.7135 22.0108 31.8327 22.146M32.0691 21.9956C32.0694 21.9978 32.0697 22 32.07 22.0023C32.0724 22.0191 32.0751 22.0381 32.0766 22.0548L32.0766 22.0549C32.078 22.069 32.081 22.1015 32.0723 22.1318C32.0677 22.1478 32.0535 22.1858 32.0111 22.2069C31.9669 22.229 31.9263 22.2161 31.9081 22.2078C31.8757 22.1932 31.8495 22.1651 31.8327 22.146M31.862 22.0857C31.862 22.0865 31.8619 22.0864 31.862 22.0856C31.862 22.0856 31.862 22.0857 31.862 22.0857ZM32.0095 22.0181C32.0095 22.0181 32.0093 22.0179 32.0089 22.0176C32.0093 22.0179 32.0095 22.018 32.0095 22.0181Z" fill="black"/>
</g>
<path d="M31.6727 22.7448C31.6355 22.7066 31.5833 22.7259 31.5378 22.7438C31.4922 22.7619 31.3885 22.8146 31.2203 22.8146C31.0521 22.8146 30.9484 22.7619 30.9029 22.7438C30.8573 22.7258 30.8051 22.7066 30.7679 22.7448C30.759 22.754 30.7519 22.7648 30.7471 22.7768C30.7422 22.7888 30.7397 22.8016 30.7397 22.8146C30.7397 22.8275 30.7422 22.8403 30.7471 22.8523C30.7519 22.8643 30.759 22.8751 30.7679 22.8843C30.7806 22.8974 30.954 23.0119 31.2203 23.0119C31.4866 23.0119 31.66 22.8974 31.6727 22.8843C31.6816 22.8751 31.6887 22.8643 31.6936 22.8523C31.6984 22.8403 31.7009 22.8275 31.7009 22.8146C31.7009 22.8016 31.6984 22.7888 31.6936 22.7768C31.6887 22.7648 31.6816 22.754 31.6727 22.7448ZM31.3164 22.6172H31.1242C31.0987 22.6172 31.0743 22.6068 31.0562 22.5883C31.0382 22.5698 31.0281 22.5447 31.0281 22.5186C31.0281 22.4924 31.0382 22.4673 31.0562 22.4488C31.0743 22.4303 31.0987 22.4199 31.1242 22.4199H31.3164C31.3419 22.4199 31.3664 22.4303 31.3844 22.4488C31.4024 22.4673 31.4125 22.4924 31.4125 22.5186C31.4125 22.5447 31.4024 22.5698 31.3844 22.5883C31.3664 22.6068 31.3419 22.6172 31.3164 22.6172Z" fill="#C1694F"/>
<path d="M30.8359 22.42C30.8104 22.42 30.7859 22.4096 30.7679 22.3911C30.7499 22.3726 30.7397 22.3475 30.7397 22.3213V22.2227C30.7397 22.1965 30.7499 22.1714 30.7679 22.1529C30.7859 22.1344 30.8104 22.124 30.8359 22.124C30.8613 22.124 30.8858 22.1344 30.9038 22.1529C30.9218 22.1714 30.932 22.1965 30.932 22.2227V22.3213C30.932 22.3475 30.9218 22.3726 30.9038 22.3911C30.8858 22.4096 30.8613 22.42 30.8359 22.42ZM31.6047 22.42C31.5793 22.42 31.5548 22.4096 31.5368 22.3911C31.5188 22.3726 31.5086 22.3475 31.5086 22.3213V22.2227C31.5086 22.1965 31.5188 22.1714 31.5368 22.1529C31.5548 22.1344 31.5793 22.124 31.6047 22.124C31.6302 22.124 31.6547 22.1344 31.6727 22.1529C31.6907 22.1714 31.7009 22.1965 31.7009 22.2227V22.3213C31.7009 22.3475 31.6907 22.3726 31.6727 22.3911C31.6547 22.4096 31.6302 22.42 31.6047 22.42Z" fill="#662113"/>
</g>
<g clip-path="url(#clip1)">
<g filter="url(#filter4_d)">
<path d="M34.5955 19.7168C33.8647 19.7168 33.4978 20.2039 33.4121 20.5641C33.3494 20.8278 33.4445 21.1357 33.4735 21.4725C33.4992 21.7714 33.6689 22.0224 33.8429 22.0732C34.0931 22.3972 34.359 22.3833 34.8056 22.3833C35.6776 22.3833 36.0043 21.7142 36.0043 20.945C36.0042 20.357 35.6004 19.7168 34.5955 19.7168Z" fill="#60352A"/>
</g>
<g filter="url(#filter5_d)">
<path fill-rule="evenodd" clip-rule="evenodd" d="M33.5813 21.4632L33.5813 21.4633C33.5926 21.5957 33.636 21.7165 33.694 21.8081C33.7534 21.9021 33.8207 21.9541 33.8732 21.9694L33.907 21.9793L33.9285 22.0071C34.0393 22.1507 34.1475 22.2137 34.2759 22.2446C34.404 22.2755 34.5529 22.2754 34.7573 22.2752C34.7731 22.2752 34.7892 22.2752 34.8056 22.2752C35.21 22.2752 35.4758 22.1222 35.6444 21.8892C35.8169 21.6509 35.8962 21.3167 35.8962 20.945M34.5955 19.8249C33.9223 19.8249 33.5933 20.2699 33.5173 20.5891C33.4907 20.701 33.4964 20.8277 33.5156 20.9771C33.5221 21.0271 33.5303 21.0812 33.5389 21.1378C33.5547 21.2414 33.5718 21.3533 33.5813 21.4632M33.5173 20.5891L33.4121 20.5641L33.5173 20.5891ZM34.5955 19.8249C35.0738 19.8249 35.3962 19.9765 35.5991 20.1857L34.5955 19.8249ZM35.5991 20.1857C35.8034 20.3962 35.8961 20.6749 35.8962 20.945L35.5991 20.1857ZM33.4121 20.5641C33.4978 20.2039 33.8647 19.7168 34.5955 19.7168C35.6004 19.7168 36.0042 20.357 36.0043 20.945C36.0043 21.7142 35.6776 22.3833 34.8056 22.3833C34.7877 22.3833 34.77 22.3833 34.7527 22.3833C34.3377 22.3839 34.083 22.3842 33.8429 22.0732C33.6689 22.0224 33.4992 21.7714 33.4735 21.4725C33.4643 21.3653 33.4484 21.2611 33.433 21.1603C33.3999 20.9442 33.3693 20.7439 33.4121 20.5641Z" fill="black"/>
</g>
<g filter="url(#filter6_d)">
<path d="M35.6661 21.0084C35.5817 20.8884 35.4737 20.7919 35.2368 20.7577C35.3256 20.7994 35.4107 20.9438 35.4219 21.0236C35.433 21.1034 35.4441 21.1679 35.3738 21.0882C35.0921 20.7687 34.7854 20.8944 34.4815 20.6993C34.2692 20.563 34.2045 20.4121 34.2045 20.4121C34.2045 20.4121 34.1787 20.6134 33.8567 20.8186C33.7634 20.8781 33.6521 21.0105 33.5903 21.206C33.5458 21.3465 33.5508 21.4336 33.5617 21.5326C33.6753 22.163 34.0925 22.5188 34.6801 22.5188C35.267 22.5188 35.6837 22.234 35.7976 21.5744C35.7998 21.546 35.802 21.5176 35.802 21.4887C35.802 21.2419 35.7623 21.1451 35.6661 21.0084Z" fill="#AF7E57"/>
</g>
<g filter="url(#filter7_d)">
<path fill-rule="evenodd" clip-rule="evenodd" d="M35.6661 21.0084C35.6124 20.9321 35.5493 20.8654 35.4495 20.8181C35.3924 20.7909 35.3231 20.7702 35.2368 20.7577C35.289 20.7822 35.3399 20.8422 35.3753 20.9036C35.387 20.924 35.397 20.9446 35.4049 20.9642C35.4124 20.983 35.4178 21.0008 35.4207 21.0165C35.4211 21.0189 35.4215 21.0213 35.4219 21.0236C35.4222 21.0262 35.4226 21.0288 35.4229 21.0313C35.4235 21.0354 35.4241 21.0394 35.4246 21.0434C35.4246 21.0434 35.4246 21.0434 35.4246 21.0434C35.4343 21.1133 35.4381 21.1612 35.3738 21.0882C35.3631 21.076 35.3523 21.0645 35.3415 21.0536C35.3359 21.0479 35.3303 21.0425 35.3247 21.0372C35.3204 21.033 35.3161 21.029 35.3117 21.025C35.1661 20.893 35.0145 20.8625 34.8607 20.8315C34.7351 20.8062 34.6081 20.7806 34.4815 20.6993C34.3884 20.6395 34.3237 20.577 34.2804 20.5256C34.2249 20.4597 34.2045 20.4121 34.2045 20.4121C34.2045 20.4121 34.1982 20.4615 34.1526 20.5364C34.1062 20.6125 34.0191 20.7151 33.8567 20.8186C33.7634 20.8781 33.6521 21.0105 33.5903 21.206C33.5458 21.3465 33.5508 21.4336 33.5617 21.5326C33.6753 22.163 34.0925 22.5188 34.6801 22.5188C35.267 22.5188 35.6837 22.234 35.7976 21.5744L35.7979 21.5709C35.7999 21.5436 35.802 21.5164 35.802 21.4887C35.802 21.2419 35.7623 21.1451 35.6661 21.0084ZM35.529 21.0093C35.546 21.0279 35.562 21.0483 35.5776 21.0706L35.6661 21.0084L35.5776 21.0706C35.6227 21.1347 35.6495 21.1823 35.6667 21.2388C35.6842 21.2964 35.6938 21.3704 35.6938 21.4887C35.6938 21.5113 35.6922 21.534 35.6902 21.5611C35.6362 21.8684 35.5144 22.0768 35.3486 22.2096C35.1812 22.3437 34.9565 22.4107 34.6801 22.4107C34.4089 22.4107 34.184 22.329 34.0143 22.1807C33.8449 22.0326 33.7224 21.8111 33.6688 21.517C33.6591 21.4281 33.6556 21.3579 33.6933 21.2387L33.6934 21.2386C33.7488 21.0633 33.8462 20.9535 33.9148 20.9098M35.529 21.0093C35.5293 21.0115 35.5297 21.0137 35.53 21.016C35.5323 21.0328 35.535 21.0518 35.5366 21.0684L35.5366 21.0685C35.5379 21.0827 35.541 21.1152 35.5323 21.1455C35.5277 21.1615 35.5135 21.1994 35.4711 21.2206C35.4269 21.2427 35.3862 21.2297 35.368 21.2215C35.3356 21.2069 35.3095 21.1788 35.2927 21.1597C35.1735 21.0245 35.0521 20.9833 34.9128 20.9527C34.8909 20.9479 34.8679 20.9433 34.844 20.9385C34.7182 20.9135 34.5684 20.8836 34.4231 20.7903L34.4231 20.7903C34.337 20.735 34.272 20.677 34.224 20.625C34.1655 20.7101 34.07 20.8109 33.9148 20.9098M35.3219 21.0994C35.3219 21.1001 35.3219 21.1001 35.3219 21.0993C35.3219 21.0993 35.3219 21.0993 35.3219 21.0994ZM35.4694 21.0317C35.4694 21.0317 35.4692 21.0316 35.4688 21.0312C35.4692 21.0315 35.4694 21.0317 35.4694 21.0317Z" fill="black"/>
</g>
<path d="M35.1327 21.7585C35.0955 21.7203 35.0433 21.7395 34.9977 21.7575C34.9522 21.7755 34.8485 21.8282 34.6803 21.8282C34.5121 21.8282 34.4084 21.7755 34.3628 21.7575C34.3173 21.7394 34.2651 21.7203 34.2279 21.7585C34.219 21.7676 34.2119 21.7785 34.207 21.7905C34.2022 21.8024 34.1997 21.8153 34.1997 21.8282C34.1997 21.8412 34.2022 21.854 34.207 21.866C34.2119 21.8779 34.219 21.8888 34.2279 21.898C34.2406 21.9111 34.414 22.0255 34.6803 22.0255C34.9466 22.0255 35.12 21.9111 35.1327 21.898C35.1416 21.8888 35.1487 21.8779 35.1535 21.866C35.1584 21.854 35.1609 21.8412 35.1609 21.8282C35.1609 21.8153 35.1584 21.8024 35.1535 21.7905C35.1487 21.7785 35.1416 21.7676 35.1327 21.7585ZM34.7764 21.6309H34.5842C34.5587 21.6309 34.5342 21.6205 34.5162 21.602C34.4982 21.5835 34.4881 21.5584 34.4881 21.5323C34.4881 21.5061 34.4982 21.481 34.5162 21.4625C34.5342 21.444 34.5587 21.4336 34.5842 21.4336H34.7764C34.8019 21.4336 34.8263 21.444 34.8444 21.4625C34.8624 21.481 34.8725 21.5061 34.8725 21.5323C34.8725 21.5584 34.8624 21.5835 34.8444 21.602C34.8263 21.6205 34.8019 21.6309 34.7764 21.6309Z" fill="#915A34"/>
<path d="M34.2958 21.4337C34.2703 21.4337 34.2459 21.4233 34.2279 21.4048C34.2098 21.3863 34.1997 21.3612 34.1997 21.335V21.2364C34.1997 21.2102 34.2098 21.1851 34.2279 21.1666C34.2459 21.1481 34.2703 21.1377 34.2958 21.1377C34.3213 21.1377 34.3458 21.1481 34.3638 21.1666C34.3818 21.1851 34.3919 21.2102 34.3919 21.2364V21.335C34.3919 21.3612 34.3818 21.3863 34.3638 21.4048C34.3458 21.4233 34.3213 21.4337 34.2958 21.4337ZM35.0647 21.4337C35.0392 21.4337 35.0148 21.4233 34.9967 21.4048C34.9787 21.3863 34.9686 21.3612 34.9686 21.335V21.2364C34.9686 21.2102 34.9787 21.1851 34.9967 21.1666C35.0148 21.1481 35.0392 21.1377 35.0647 21.1377C35.0902 21.1377 35.1146 21.1481 35.1327 21.1666C35.1507 21.1851 35.1608 21.2102 35.1608 21.2364V21.335C35.1608 21.3612 35.1507 21.3863 35.1327 21.4048C35.1146 21.4233 35.0902 21.4337 35.0647 21.4337Z" fill="#662113"/>
</g>
<g clip-path="url(#clip2)">
<g filter="url(#filter8_d)">
<path d="M38.0555 20.7031C37.3247 20.7031 36.9578 21.1902 36.8721 21.5504C36.8093 21.8141 36.9045 22.122 36.9335 22.4588C36.9591 22.7578 37.1289 23.0087 37.3028 23.0596C37.553 23.3835 37.819 23.3696 38.2656 23.3696C39.1376 23.3696 39.4643 22.7005 39.4643 21.9313C39.4642 21.3433 39.0603 20.7031 38.0555 20.7031Z" fill="#0B0200"/>
</g>
<g filter="url(#filter9_d)">
<path fill-rule="evenodd" clip-rule="evenodd" d="M37.0412 22.4495L37.0412 22.4496C37.0526 22.582 37.0959 22.7028 37.1539 22.7944C37.2134 22.8884 37.2807 22.9404 37.3332 22.9558L37.3669 22.9656L37.3884 22.9935C37.4992 23.137 37.6074 23.2 37.7359 23.231C37.8639 23.2618 38.0128 23.2617 38.2172 23.2615C38.233 23.2615 38.2491 23.2615 38.2656 23.2615C38.6699 23.2615 38.9357 23.1085 39.1044 22.8755C39.2768 22.6372 39.3562 22.3031 39.3562 21.9313M38.0555 20.8112C37.3823 20.8112 37.0532 21.2562 36.9773 21.5754C36.9506 21.6874 36.9564 21.8141 36.9756 21.9634C36.982 22.0134 36.9903 22.0676 36.9989 22.1241C37.0147 22.2278 37.0317 22.3396 37.0412 22.4495M36.9773 21.5754L36.8721 21.5504L36.9773 21.5754ZM38.0555 20.8112C38.5338 20.8112 38.8562 20.9629 39.0591 21.172L38.0555 20.8112ZM39.0591 21.172C39.2633 21.3826 39.3561 21.6612 39.3562 21.9313L39.0591 21.172ZM36.8721 21.5504C36.9578 21.1902 37.3247 20.7031 38.0555 20.7031C39.0603 20.7031 39.4642 21.3433 39.4643 21.9313C39.4643 22.7005 39.1376 23.3696 38.2656 23.3696C38.2476 23.3696 38.23 23.3697 38.2126 23.3697C37.7976 23.3702 37.543 23.3705 37.3028 23.0596C37.1289 23.0087 36.9591 22.7578 36.9335 22.4588C36.9243 22.3517 36.9083 22.2474 36.8929 22.1466C36.8599 21.9305 36.8293 21.7302 36.8721 21.5504Z" fill="black"/>
</g>
<g filter="url(#filter10_d)">
<path d="M39.126 21.9947C39.0416 21.8748 38.9336 21.7783 38.6968 21.744C38.7856 21.7858 38.8707 21.9301 38.8818 22.0099C38.893 22.0897 38.904 22.1542 38.8338 22.0745C38.5521 21.755 38.2454 21.8808 37.9415 21.6856C37.7292 21.5493 37.6645 21.3984 37.6645 21.3984C37.6645 21.3984 37.6386 21.5997 37.3166 21.8049C37.2233 21.8644 37.112 21.9968 37.0502 22.1923C37.0057 22.3328 37.0107 22.4199 37.0217 22.5189C37.1353 23.1493 37.5525 23.5052 38.14 23.5052C38.727 23.5052 39.1436 23.2203 39.2576 22.5607C39.2597 22.5323 39.2619 22.5039 39.2619 22.475C39.2619 22.2282 39.2222 22.1315 39.126 21.9947Z" fill="#7C533E"/>
</g>
<g filter="url(#filter11_d)">
<path fill-rule="evenodd" clip-rule="evenodd" d="M39.126 21.9947C39.0724 21.9185 39.0092 21.8517 38.9095 21.8044C38.8523 21.7773 38.7831 21.7565 38.6968 21.744C38.749 21.7686 38.7999 21.8285 38.8352 21.8899C38.847 21.9104 38.857 21.931 38.8648 21.9505C38.8723 21.9693 38.8778 21.9871 38.8807 22.0028C38.8811 22.0052 38.8815 22.0076 38.8818 22.0099C38.8822 22.0125 38.8825 22.0151 38.8829 22.0177C38.8835 22.0217 38.884 22.0258 38.8846 22.0297C38.8846 22.0297 38.8846 22.0297 38.8846 22.0297C38.8942 22.0996 38.8981 22.1475 38.8338 22.0745C38.823 22.0624 38.8122 22.0508 38.8014 22.0399C38.7959 22.0343 38.7903 22.0288 38.7847 22.0235C38.7804 22.0193 38.776 22.0153 38.7717 22.0114C38.6261 21.8794 38.4745 21.8488 38.3206 21.8178C38.1951 21.7925 38.068 21.7669 37.9415 21.6856C37.8484 21.6259 37.7837 21.5633 37.7404 21.5119C37.6849 21.446 37.6645 21.3984 37.6645 21.3984C37.6645 21.3984 37.6581 21.4479 37.6125 21.5227C37.5661 21.5989 37.4791 21.7014 37.3166 21.8049C37.2233 21.8644 37.112 21.9968 37.0502 22.1923C37.0057 22.3328 37.0107 22.4199 37.0217 22.5189C37.1353 23.1493 37.5525 23.5052 38.14 23.5052C38.727 23.5052 39.1436 23.2203 39.2576 22.5607L39.2579 22.5572C39.2599 22.53 39.2619 22.5027 39.2619 22.475C39.2619 22.2282 39.2222 22.1315 39.126 21.9947ZM38.989 21.9956C39.006 22.0142 39.0219 22.0346 39.0376 22.0569L39.126 21.9947L39.0376 22.0569C39.0827 22.121 39.1094 22.1686 39.1266 22.2251C39.1442 22.2828 39.1538 22.3567 39.1538 22.475C39.1538 22.4976 39.1522 22.5203 39.1502 22.5474C39.0961 22.8548 38.9743 23.0631 38.8086 23.1959C38.6411 23.3301 38.4165 23.397 38.14 23.397C37.8689 23.397 37.644 23.3153 37.4743 23.167C37.3049 23.0189 37.1824 22.7974 37.1287 22.5033C37.119 22.4145 37.1155 22.3442 37.1533 22.225L37.1533 22.2249C37.2087 22.0496 37.3061 21.9398 37.3748 21.8961C37.5299 21.7972 37.6255 21.6964 37.6839 21.6113C37.732 21.6633 37.7969 21.7213 37.883 21.7766L37.883 21.7766C38.0283 21.8699 38.1781 21.8998 38.304 21.9249C38.3278 21.9296 38.3508 21.9342 38.3728 21.939C38.5121 21.9696 38.6334 22.0108 38.7526 22.146M38.989 21.9956C38.9893 21.9978 38.9896 22 38.9899 22.0023C38.9923 22.0191 38.995 22.0381 38.9965 22.0548L38.9965 22.0549C38.9979 22.069 39.0009 22.1015 38.9923 22.1318C38.9877 22.1478 38.9734 22.1858 38.9311 22.2069C38.8868 22.229 38.8462 22.2161 38.828 22.2078C38.7956 22.1932 38.7695 22.1651 38.7526 22.146M38.7819 22.0857C38.7819 22.0865 38.7819 22.0864 38.7819 22.0856C38.7819 22.0856 38.7819 22.0857 38.7819 22.0857ZM38.9294 22.0181C38.9294 22.0181 38.9292 22.0179 38.9288 22.0176C38.9292 22.0179 38.9294 22.018 38.9294 22.0181Z" fill="black"/>
</g>
<path d="M38.5926 22.7448C38.5554 22.7066 38.5033 22.7259 38.4577 22.7438C38.4121 22.7619 38.3084 22.8146 38.1402 22.8146C37.972 22.8146 37.8683 22.7619 37.8228 22.7438C37.7772 22.7258 37.725 22.7066 37.6878 22.7448C37.6789 22.754 37.6718 22.7648 37.667 22.7768C37.6622 22.7888 37.6597 22.8016 37.6597 22.8146C37.6597 22.8275 37.6622 22.8403 37.667 22.8523C37.6718 22.8643 37.6789 22.8751 37.6878 22.8843C37.7005 22.8974 37.8739 23.0119 38.1402 23.0119C38.4066 23.0119 38.5799 22.8974 38.5926 22.8843C38.6016 22.8751 38.6087 22.8643 38.6135 22.8523C38.6183 22.8403 38.6208 22.8275 38.6208 22.8146C38.6208 22.8016 38.6183 22.7888 38.6135 22.7768C38.6087 22.7648 38.6016 22.754 38.5926 22.7448ZM38.2364 22.6172H38.0441C38.0186 22.6172 37.9942 22.6068 37.9762 22.5883C37.9581 22.5698 37.948 22.5447 37.948 22.5186C37.948 22.4924 37.9581 22.4673 37.9762 22.4488C37.9942 22.4303 38.0186 22.4199 38.0441 22.4199H38.2364C38.2618 22.4199 38.2863 22.4303 38.3043 22.4488C38.3223 22.4673 38.3325 22.4924 38.3325 22.5186C38.3325 22.5447 38.3223 22.5698 38.3043 22.5883C38.2863 22.6068 38.2618 22.6172 38.2364 22.6172Z" fill="#3D2E24"/>
<path d="M37.7558 22.42C37.7303 22.42 37.7058 22.4096 37.6878 22.3911C37.6698 22.3726 37.6597 22.3475 37.6597 22.3213V22.2227C37.6597 22.1965 37.6698 22.1714 37.6878 22.1529C37.7058 22.1344 37.7303 22.124 37.7558 22.124C37.7813 22.124 37.8057 22.1344 37.8237 22.1529C37.8418 22.1714 37.8519 22.1965 37.8519 22.2227V22.3213C37.8519 22.3475 37.8418 22.3726 37.8237 22.3911C37.8057 22.4096 37.7813 22.42 37.7558 22.42ZM38.5247 22.42C38.4992 22.42 38.4747 22.4096 38.4567 22.3911C38.4387 22.3726 38.4286 22.3475 38.4286 22.3213V22.2227C38.4286 22.1965 38.4387 22.1714 38.4567 22.1529C38.4747 22.1344 38.4992 22.124 38.5247 22.124C38.5502 22.124 38.5746 22.1344 38.5926 22.1529C38.6107 22.1714 38.6208 22.1965 38.6208 22.2227V22.3213C38.6208 22.3475 38.6107 22.3726 38.5926 22.3911C38.5746 22.4096 38.5502 22.42 38.5247 22.42Z" fill="black"/>
</g>
<path d="M31.5448 13.2708C29.2591 12.4287 27.0757 9.19811 26.6792 7.21582C27.5442 9.16207 30.2777 11.8806 34.3561 11.7571C37.9242 11.6489 39.2217 9.05394 39.2217 7.75644C39.8704 8.08082 38.7961 11.7409 37.7079 12.7302C36.5186 13.8114 33.5992 14.0277 31.5448 13.2708Z" fill="#160E1B" fill-opacity="0.4"/>
<path d="M7.30441 38.8965L8.49378 29.2734C12.2133 30.3114 15.4498 33.1659 16.6031 34.4634L15.5219 36.1934C15.1759 37.1449 16.3148 41.059 16.9275 42.8972C17.1798 43.4378 18.3764 44.2379 18.9819 45.2759C19.7388 46.5734 21.0362 47.0059 21.9012 47.7628C22.5932 48.3683 23.7033 51.1146 23.7394 52.1959C23.5231 53.0609 22.151 52.4879 21.9012 51.6553C21.1552 49.1684 20.0992 49.4928 19.5225 48.6278L20.0631 50.1415C21.0002 51.8715 21.8364 55.591 17.6844 56.629C12.4944 57.9265 11.1969 50.6821 10.8725 48.9522C10.5481 47.2222 9.03441 44.8434 7.95316 43.1134C7.08816 41.7294 7.16024 39.7255 7.30441 38.8965Z" fill="white"/>
<path fill-rule="evenodd" clip-rule="evenodd" d="M8.3738 29.0939C8.42619 29.059 8.4912 29.0487 8.55185 29.0656C12.3266 30.119 15.5967 33.0061 16.7647 34.3202C16.8285 34.3919 16.8373 34.4971 16.7865 34.5785L15.7184 36.2873C15.6916 36.3723 15.6747 36.5021 15.674 36.6805C15.6733 36.8695 15.6907 37.0975 15.7238 37.3568C15.7901 37.8753 15.9172 38.5027 16.0754 39.1628C16.3902 40.4762 16.8235 41.9009 17.1283 42.8164C17.1776 42.9165 17.2771 43.0434 17.4273 43.2033C17.548 43.3317 17.6896 43.4695 17.8453 43.621C17.887 43.6616 17.9298 43.7032 17.9734 43.7458C18.379 44.1425 18.8494 44.6202 19.1686 45.1674C19.5242 45.7769 20.0086 46.1878 20.524 46.5447C20.6983 46.6653 20.8716 46.7769 21.0453 46.8887C21.1317 46.9443 21.2183 47 21.3051 47.0569C21.5623 47.2256 21.8157 47.4011 22.0436 47.6005C22.2461 47.7777 22.4601 48.0908 22.6638 48.4534C22.8711 48.8223 23.0795 49.2645 23.2663 49.7192C23.6357 50.6188 23.936 51.6067 23.9554 52.1891C23.9561 52.2092 23.954 52.2293 23.9491 52.2488C23.8783 52.5318 23.7023 52.7188 23.4651 52.7988C23.2413 52.8742 22.9897 52.846 22.762 52.7669C22.3116 52.6107 21.8435 52.2159 21.6941 51.7178C21.3312 50.5084 20.9024 50.0089 20.5146 49.7037C20.3782 49.5963 20.252 49.5159 20.1217 49.4328C20.0865 49.4103 20.051 49.3876 20.0149 49.3642L20.2612 50.0537C20.7396 50.943 21.1972 52.3458 20.9959 53.6775C20.894 54.3521 20.6223 55.0109 20.0969 55.5693C19.572 56.1272 18.8062 56.5719 17.7368 56.8392C16.3854 57.1771 15.2713 56.9603 14.3632 56.4051C13.4623 55.8542 12.7806 54.9806 12.2638 54.0296C11.255 52.1734 10.8404 49.9572 10.6713 49.0534C10.6674 49.0323 10.6636 49.012 10.6599 48.9924C10.5042 48.162 10.0584 47.1593 9.50628 46.1359C8.9921 45.1828 8.3954 44.2288 7.87727 43.4004C7.84102 43.3425 7.80515 43.2851 7.76972 43.2285C7.31255 42.497 7.10871 41.6128 7.03496 40.8172C6.96138 40.0234 7.01557 39.2987 7.09038 38.8652L8.27911 29.2473C8.28683 29.1849 8.3214 29.1288 8.3738 29.0939ZM8.6772 29.5524L7.51897 38.9235C7.51853 38.927 7.51801 38.9305 7.5174 38.934C7.44851 39.3301 7.39534 40.0192 7.46561 40.7773C7.53603 41.5369 7.72865 42.3467 8.13648 42.9992C8.17227 43.0565 8.20857 43.1145 8.2453 43.1732C8.76217 43.9995 9.36585 44.9646 9.88693 45.9305C10.4431 46.9615 10.9163 48.0132 11.085 48.9127C11.0882 48.9297 11.0915 48.9473 11.0948 48.9653C11.2638 49.8677 11.6682 52.0279 12.6438 53.8231C13.1406 54.7372 13.7767 55.5395 14.5889 56.0361C15.3939 56.5283 16.3882 56.7306 17.6319 56.4196C18.6384 56.168 19.3251 55.7585 19.7819 55.273C20.2382 54.788 20.4774 54.2142 20.5683 53.6129C20.7515 52.4002 20.3288 51.0865 19.8729 50.2449C19.8677 50.2352 19.8631 50.2251 19.8594 50.2147L19.3188 48.7009C19.2821 48.5981 19.3278 48.484 19.4254 48.435C19.523 48.3859 19.6418 48.4174 19.7024 48.5083C19.8245 48.6915 19.9731 48.8148 20.1539 48.9375C20.2075 48.9739 20.2672 49.0121 20.3307 49.0527C20.471 49.1424 20.6296 49.2439 20.782 49.3638C21.2528 49.7343 21.7251 50.3162 22.1083 51.5936C22.2087 51.9282 22.5515 52.2361 22.9037 52.3583C23.0772 52.4185 23.2248 52.4234 23.3269 52.3889C23.4099 52.361 23.4822 52.3017 23.5218 52.1718C23.4951 51.666 23.2262 50.7601 22.8662 49.8835C22.6844 49.4408 22.4834 49.0153 22.2867 48.6652C22.0865 48.3088 21.9022 48.0515 21.7588 47.926C21.5541 47.7469 21.321 47.5845 21.068 47.4186C20.9875 47.3659 20.9043 47.3123 20.8194 47.2577C20.6421 47.1435 20.4579 47.025 20.2779 46.9003C19.7391 46.5273 19.1963 46.0733 18.795 45.3853C18.5087 44.8945 18.0781 44.4531 17.671 44.0551C17.6297 44.0147 17.5885 43.9746 17.5477 43.935C17.391 43.7825 17.2401 43.6357 17.1121 43.4994C16.9533 43.3304 16.8102 43.1577 16.7315 42.989C16.728 42.9815 16.7249 42.9738 16.7223 42.966C16.4146 42.0429 15.9747 40.5986 15.6548 39.2636C15.495 38.5965 15.3639 37.9522 15.2948 37.4117C15.2603 37.1415 15.2407 36.8933 15.2415 36.6789C15.2423 36.4682 15.2627 36.2737 15.3186 36.12C15.3238 36.1057 15.3304 36.0921 15.3384 36.0792L16.3331 34.4878C15.1375 33.1886 12.1304 30.5953 8.6772 29.5524Z" fill="black"/>
<path d="M11.3052 30.6796C11.0457 30.4201 10.1158 30.0309 8.71022 29.4902C8.27772 32.3015 7.3911 37.924 7.3046 39.2215C7.16043 41.384 8.07322 43.4286 9.14272 44.7358C10.1158 45.9252 10.9809 48.8446 11.7378 51.9802C12.354 54.5334 14.1165 55.8727 14.8734 56.1971C14.8734 56.1971 16.1708 56.7377 16.8196 56.5214C17.4683 56.3052 15.3058 56.1971 14.4408 55.4402C13.7899 54.8706 12.6748 52.4848 12.2784 51.4396C12.0982 49.8177 11.6296 46.6821 10.6565 45.709C9.67741 44.7298 8.71017 41.6002 8.38585 40.3027C8.04398 38.935 11.6296 31.004 11.3052 30.6796Z" fill="#DADADA"/>
<path d="M44.6074 22.3538C44.7804 21.3158 47.3466 17.8847 48.608 16.2988C50.1578 20.2634 53.279 28.9062 53.3655 31.7607C53.452 34.6152 54.2666 37.5634 54.663 38.6807C55.7443 39.7619 56.2849 42.3569 56.1768 44.0869C55.8524 45.6006 55.8524 46.3575 54.663 47.2225C53.1359 48.3332 51.7437 47.3306 50.9868 46.6819C50.7546 46.4829 49.8444 45.4597 50.4462 43.6544C50.7705 42.6813 49.7974 41.4919 49.5812 41.7082C49.2928 42.7534 49.3649 43.2219 49.3649 44.0869C49.3649 45.06 49.6893 45.06 49.5812 45.6006C49.4901 46.0561 49.1703 46.3791 48.3918 45.6006C47.6133 44.8221 47.5268 43.9788 47.5268 43.0057C47.5268 42.0325 47.607 41.1528 47.9593 40.5188C49.5812 37.5994 47.9593 32.085 47.5268 30.5713C47.0943 29.0576 45.3643 24.3361 44.6074 22.3538Z" fill="white"/>
<path fill-rule="evenodd" clip-rule="evenodd" d="M48.6725 15.8701L48.8093 16.22C49.5853 18.2051 50.7545 21.3609 51.7409 24.3788C52.234 25.8876 52.6822 27.3642 53.0128 28.6439C53.3421 29.9186 53.5591 31.0143 53.5815 31.754C53.666 34.5419 54.4537 37.4271 54.8509 38.5634C55.4141 39.1482 55.8203 40.0938 56.0752 41.0866C56.3369 42.1061 56.448 43.2101 56.3924 44.1003L56.3914 44.1164L56.388 44.1321C56.3483 44.3177 56.313 44.4947 56.2793 44.6638C56.1794 45.1647 56.0933 45.5965 55.9456 45.9763C55.7397 46.5059 55.4141 46.9434 54.79 47.3973C53.966 47.9966 53.1645 48.0293 52.4729 47.8188C51.7944 47.6122 51.2288 47.1742 50.8459 46.846C50.5674 46.6073 49.6036 45.4976 50.2408 43.5859C50.3749 43.1836 50.2443 42.7107 50.0296 42.3445C49.9317 42.1774 49.8246 42.0475 49.7361 41.9687C49.5614 42.6726 49.5679 43.0898 49.5767 43.6562C49.5788 43.7895 49.581 43.9312 49.581 44.0868C49.581 44.5421 49.6553 44.7603 49.717 44.9331C49.7197 44.9406 49.7224 44.9481 49.7251 44.9557C49.755 45.0388 49.7886 45.1325 49.8061 45.2373C49.8262 45.3575 49.8245 45.4855 49.793 45.643C49.7451 45.8825 49.6166 46.2047 49.2893 46.2748C49.1307 46.3087 48.9631 46.2718 48.7946 46.1856C48.6263 46.0995 48.4422 45.957 48.2387 45.7535C47.3966 44.9114 47.3104 43.9922 47.3104 43.0056C47.3104 42.0322 47.3881 41.1012 47.7701 40.4137C48.5445 39.0197 48.5549 36.9735 48.2989 35.0463C48.0532 33.197 47.5698 31.5081 47.342 30.7121C47.3339 30.6838 47.3261 30.6566 47.3187 30.6306C46.8892 29.1276 45.1629 24.4154 44.4052 22.4309L44.3843 22.3761L44.3939 22.3182C44.4445 22.0148 44.6578 21.574 44.9407 21.0845C45.2295 20.5849 45.6096 20.0037 46.0216 19.4086C46.8459 18.2178 47.8058 16.9596 48.4386 16.1641L48.6725 15.8701ZM44.8316 22.3352C45.5989 24.3484 47.3032 29.0022 47.7345 30.5118C47.7422 30.5385 47.7502 30.5664 47.7585 30.5956C47.9868 31.3932 48.4776 33.1078 48.7276 34.9894C48.9851 36.9277 48.9956 39.0983 48.1481 40.6237C47.8256 41.2043 47.7428 42.0327 47.7428 43.0056C47.7428 43.9652 47.8296 44.7327 48.5445 45.4476C48.7302 45.6334 48.8781 45.7425 48.9916 45.8005C49.1048 45.8584 49.1687 45.8583 49.1988 45.8518C49.2488 45.8411 49.3257 45.7741 49.3689 45.5581C49.3915 45.4453 49.3899 45.3705 49.3795 45.3084C49.3687 45.2435 49.3478 45.185 49.3148 45.0927L49.3097 45.0786C49.2363 44.873 49.1485 44.6046 49.1485 44.0868C49.1485 43.9396 49.1463 43.8028 49.1442 43.6717C49.134 43.0433 49.126 42.5442 49.3725 41.6506L49.3877 41.5955L49.4281 41.5552C49.532 41.4513 49.6653 41.456 49.7545 41.4822C49.8411 41.5077 49.9218 41.5605 49.9907 41.6174C50.1317 41.7339 50.2788 41.9143 50.4028 42.1258C50.6476 42.5435 50.8414 43.1519 50.6511 43.7227C50.0848 45.4217 50.9414 46.3582 51.1273 46.5176C51.5013 46.8381 52.0103 47.2258 52.5988 47.405C53.1744 47.5803 53.8325 47.5589 54.5356 47.0475C55.1009 46.6364 55.3701 46.263 55.5425 45.8195C55.6755 45.4777 55.7511 45.0985 55.8482 44.6124C55.8822 44.4416 55.919 44.2576 55.9617 44.0574C56.0119 43.2202 55.9065 42.1689 55.6563 41.1942C55.4029 40.2072 55.0096 39.3332 54.5099 38.8335L54.4754 38.7989L54.459 38.7529C54.0577 37.6219 53.2366 34.6508 53.1492 31.7671C53.1284 31.0797 52.9228 30.0246 52.5941 28.752C52.2666 27.4845 51.8215 26.0174 51.3298 24.5131C50.4029 21.6774 49.3134 18.7176 48.5434 16.7294C47.9267 17.5158 47.0988 18.6124 46.3772 19.6548C45.9683 20.2454 45.5956 20.8158 45.3151 21.301C45.0514 21.7572 44.8844 22.1133 44.8316 22.3352Z" fill="black"/>
<path d="M48.4995 30.2471C48.067 28.7333 46.0487 24.12 44.8232 22.1377C45.3639 23.9758 47.202 28.4089 47.9589 31.3283C48.3138 32.6975 48.7319 34.8263 48.8239 36.302C48.9284 37.9785 48.672 38.9693 48.4995 39.8702C48.7878 39.3656 49.1915 38.0969 49.3645 37.0589C49.5807 35.7614 49.0375 32.1299 48.4995 30.2471Z" fill="#DADADA"/>
<path d="M50.9865 42.789C50.727 42.097 50.1215 41.6357 49.9053 41.5996C50.6621 42.4646 50.554 43.4377 50.4459 44.3027C50.3594 44.9947 50.4459 45.6002 50.6621 46.0327L51.419 46.7896C51.2388 46.5013 51.073 45.9679 50.9865 45.7084C50.9 45.4489 50.8784 45.2759 50.9865 44.7352C51.1667 44.3748 51.246 43.481 50.9865 42.789Z" fill="#DADADA"/>
<defs>
<filter id="filter0_d" x="29.5877" y="20.7031" width="3.30016" height="3.35355" filterUnits="userSpaceOnUse" color-interpolation-filters="sRGB">
<feFlood flood-opacity="0" result="BackgroundImageFix"/>
<feColorMatrix in="SourceAlpha" type="matrix" values="0 0 0 0 0 0 0 0 0 0 0 0 0 0 0 0 0 0 127 0"/>
<feOffset dy="0.343478"/>
<feGaussianBlur stdDeviation="0.171739"/>
<feColorMatrix type="matrix" values="0 0 0 0 0 0 0 0 0 0 0 0 0 0 0 0 0 0 0.15 0"/>
<feBlend mode="normal" in2="BackgroundImageFix" result="effect1_dropShadow"/>
<feBlend mode="normal" in="SourceGraphic" in2="effect1_dropShadow" result="shape"/>
</filter>
<filter id="filter1_d" x="29.5877" y="20.7031" width="3.30016" height="3.35355" filterUnits="userSpaceOnUse" color-interpolation-filters="sRGB">
<feFlood flood-opacity="0" result="BackgroundImageFix"/>
<feColorMatrix in="SourceAlpha" type="matrix" values="0 0 0 0 0 0 0 0 0 0 0 0 0 0 0 0 0 0 127 0"/>
<feOffset dy="0.343478"/>
<feGaussianBlur stdDeviation="0.171739"/>
<feColorMatrix type="matrix" values="0 0 0 0 0 0 0 0 0 0 0 0 0 0 0 0 0 0 0.15 0"/>
<feBlend mode="normal" in2="BackgroundImageFix" result="effect1_dropShadow"/>
<feBlend mode="normal" in="SourceGraphic" in2="effect1_dropShadow" result="shape"/>
</filter>
<filter id="filter2_d" x="29.7508" y="21.3984" width="2.93473" height="2.79368" filterUnits="userSpaceOnUse" color-interpolation-filters="sRGB">
<feFlood flood-opacity="0" result="BackgroundImageFix"/>
<feColorMatrix in="SourceAlpha" type="matrix" values="0 0 0 0 0 0 0 0 0 0 0 0 0 0 0 0 0 0 127 0"/>
<feOffset dy="0.343478"/>
<feGaussianBlur stdDeviation="0.171739"/>
<feColorMatrix type="matrix" values="0 0 0 0 0 0 0 0 0 0 0 0 0 0 0 0 0 0 0.15 0"/>
<feBlend mode="normal" in2="BackgroundImageFix" result="effect1_dropShadow"/>
<feBlend mode="normal" in="SourceGraphic" in2="effect1_dropShadow" result="shape"/>
</filter>
<filter id="filter3_d" x="29.7508" y="21.3984" width="2.93473" height="2.79368" filterUnits="userSpaceOnUse" color-interpolation-filters="sRGB">
<feFlood flood-opacity="0" result="BackgroundImageFix"/>
<feColorMatrix in="SourceAlpha" type="matrix" values="0 0 0 0 0 0 0 0 0 0 0 0 0 0 0 0 0 0 127 0"/>
<feOffset dy="0.343478"/>
<feGaussianBlur stdDeviation="0.171739"/>
<feColorMatrix type="matrix" values="0 0 0 0 0 0 0 0 0 0 0 0 0 0 0 0 0 0 0.15 0"/>
<feBlend mode="normal" in2="BackgroundImageFix" result="effect1_dropShadow"/>
<feBlend mode="normal" in="SourceGraphic" in2="effect1_dropShadow" result="shape"/>
</filter>
<filter id="filter4_d" x="33.0476" y="19.7168" width="3.30016" height="3.35355" filterUnits="userSpaceOnUse" color-interpolation-filters="sRGB">
<feFlood flood-opacity="0" result="BackgroundImageFix"/>
<feColorMatrix in="SourceAlpha" type="matrix" values="0 0 0 0 0 0 0 0 0 0 0 0 0 0 0 0 0 0 127 0"/>
<feOffset dy="0.343478"/>
<feGaussianBlur stdDeviation="0.171739"/>
<feColorMatrix type="matrix" values="0 0 0 0 0 0 0 0 0 0 0 0 0 0 0 0 0 0 0.15 0"/>
<feBlend mode="normal" in2="BackgroundImageFix" result="effect1_dropShadow"/>
<feBlend mode="normal" in="SourceGraphic" in2="effect1_dropShadow" result="shape"/>
</filter>
<filter id="filter5_d" x="33.0476" y="19.7168" width="3.30016" height="3.35355" filterUnits="userSpaceOnUse" color-interpolation-filters="sRGB">
<feFlood flood-opacity="0" result="BackgroundImageFix"/>
<feColorMatrix in="SourceAlpha" type="matrix" values="0 0 0 0 0 0 0 0 0 0 0 0 0 0 0 0 0 0 127 0"/>
<feOffset dy="0.343478"/>
<feGaussianBlur stdDeviation="0.171739"/>
<feColorMatrix type="matrix" values="0 0 0 0 0 0 0 0 0 0 0 0 0 0 0 0 0 0 0.15 0"/>
<feBlend mode="normal" in2="BackgroundImageFix" result="effect1_dropShadow"/>
<feBlend mode="normal" in="SourceGraphic" in2="effect1_dropShadow" result="shape"/>
</filter>
<filter id="filter6_d" x="33.2107" y="20.4121" width="2.93473" height="2.79368" filterUnits="userSpaceOnUse" color-interpolation-filters="sRGB">
<feFlood flood-opacity="0" result="BackgroundImageFix"/>
<feColorMatrix in="SourceAlpha" type="matrix" values="0 0 0 0 0 0 0 0 0 0 0 0 0 0 0 0 0 0 127 0"/>
<feOffset dy="0.343478"/>
<feGaussianBlur stdDeviation="0.171739"/>
<feColorMatrix type="matrix" values="0 0 0 0 0 0 0 0 0 0 0 0 0 0 0 0 0 0 0.15 0"/>
<feBlend mode="normal" in2="BackgroundImageFix" result="effect1_dropShadow"/>
<feBlend mode="normal" in="SourceGraphic" in2="effect1_dropShadow" result="shape"/>
</filter>
<filter id="filter7_d" x="33.2107" y="20.4121" width="2.93473" height="2.79368" filterUnits="userSpaceOnUse" color-interpolation-filters="sRGB">
<feFlood flood-opacity="0" result="BackgroundImageFix"/>
<feColorMatrix in="SourceAlpha" type="matrix" values="0 0 0 0 0 0 0 0 0 0 0 0 0 0 0 0 0 0 127 0"/>
<feOffset dy="0.343478"/>
<feGaussianBlur stdDeviation="0.171739"/>
<feColorMatrix type="matrix" values="0 0 0 0 0 0 0 0 0 0 0 0 0 0 0 0 0 0 0.15 0"/>
<feBlend mode="normal" in2="BackgroundImageFix" result="effect1_dropShadow"/>
<feBlend mode="normal" in="SourceGraphic" in2="effect1_dropShadow" result="shape"/>
</filter>
<filter id="filter8_d" x="36.5076" y="20.7031" width="3.30016" height="3.35355" filterUnits="userSpaceOnUse" color-interpolation-filters="sRGB">
<feFlood flood-opacity="0" result="BackgroundImageFix"/>
<feColorMatrix in="SourceAlpha" type="matrix" values="0 0 0 0 0 0 0 0 0 0 0 0 0 0 0 0 0 0 127 0"/>
<feOffset dy="0.343478"/>
<feGaussianBlur stdDeviation="0.171739"/>
<feColorMatrix type="matrix" values="0 0 0 0 0 0 0 0 0 0 0 0 0 0 0 0 0 0 0.15 0"/>
<feBlend mode="normal" in2="BackgroundImageFix" result="effect1_dropShadow"/>
<feBlend mode="normal" in="SourceGraphic" in2="effect1_dropShadow" result="shape"/>
</filter>
<filter id="filter9_d" x="36.5076" y="20.7031" width="3.30016" height="3.35355" filterUnits="userSpaceOnUse" color-interpolation-filters="sRGB">
<feFlood flood-opacity="0" result="BackgroundImageFix"/>
<feColorMatrix in="SourceAlpha" type="matrix" values="0 0 0 0 0 0 0 0 0 0 0 0 0 0 0 0 0 0 127 0"/>
<feOffset dy="0.343478"/>
<feGaussianBlur stdDeviation="0.171739"/>
<feColorMatrix type="matrix" values="0 0 0 0 0 0 0 0 0 0 0 0 0 0 0 0 0 0 0.15 0"/>
<feBlend mode="normal" in2="BackgroundImageFix" result="effect1_dropShadow"/>
<feBlend mode="normal" in="SourceGraphic" in2="effect1_dropShadow" result="shape"/>
</filter>
<filter id="filter10_d" x="36.6707" y="21.3984" width="2.93473" height="2.79368" filterUnits="userSpaceOnUse" color-interpolation-filters="sRGB">
<feFlood flood-opacity="0" result="BackgroundImageFix"/>
<feColorMatrix in="SourceAlpha" type="matrix" values="0 0 0 0 0 0 0 0 0 0 0 0 0 0 0 0 0 0 127 0"/>
<feOffset dy="0.343478"/>
<feGaussianBlur stdDeviation="0.171739"/>
<feColorMatrix type="matrix" values="0 0 0 0 0 0 0 0 0 0 0 0 0 0 0 0 0 0 0.15 0"/>
<feBlend mode="normal" in2="BackgroundImageFix" result="effect1_dropShadow"/>
<feBlend mode="normal" in="SourceGraphic" in2="effect1_dropShadow" result="shape"/>
</filter>
<filter id="filter11_d" x="36.6707" y="21.3984" width="2.93473" height="2.79368" filterUnits="userSpaceOnUse" color-interpolation-filters="sRGB">
<feFlood flood-opacity="0" result="BackgroundImageFix"/>
<feColorMatrix in="SourceAlpha" type="matrix" values="0 0 0 0 0 0 0 0 0 0 0 0 0 0 0 0 0 0 127 0"/>
<feOffset dy="0.343478"/>
<feGaussianBlur stdDeviation="0.171739"/>
<feColorMatrix type="matrix" values="0 0 0 0 0 0 0 0 0 0 0 0 0 0 0 0 0 0 0.15 0"/>
<feBlend mode="normal" in2="BackgroundImageFix" result="effect1_dropShadow"/>
<feBlend mode="normal" in="SourceGraphic" in2="effect1_dropShadow" result="shape"/>
</filter>
<clipPath id="clip0">
<rect width="3.46" height="3.55166" fill="white" transform="translate(29.4902 20.1504)"/>
</clipPath>
<clipPath id="clip1">
<rect width="3.46" height="3.55166" fill="white" transform="translate(32.9502 19.1641)"/>
</clipPath>
<clipPath id="clip2">
<rect width="3.46" height="3.55166" fill="white" transform="translate(36.4102 20.1504)"/>
</clipPath>
</defs>
</svg>
