<svg width="64" height="64" viewBox="0 0 64 64" fill="none" xmlns="http://www.w3.org/2000/svg">
<rect width="64" height="64" rx="4" fill="white"/>
<path d="M23.6812 47.6499L25.0929 40.748C29.485 43.8068 32.3869 43.8852 35.9946 42.9441L37.1711 47.8067C37.2495 49.4799 36.1515 52.7478 31.132 52.4341C26.1125 52.1204 24.0733 49.1139 23.6812 47.6499Z" fill="white"/>
<path fill-rule="evenodd" clip-rule="evenodd" d="M25.0045 40.5277C25.0787 40.498 25.1628 40.5077 25.2284 40.5534C27.4053 42.0694 29.1959 42.835 30.8763 43.1119C32.5561 43.3887 34.1472 43.1807 35.9344 42.7145C35.9961 42.6984 36.0617 42.7078 36.1164 42.7405C36.171 42.7732 36.2103 42.8265 36.2253 42.8885L37.4017 47.7511C37.4053 47.7658 37.4074 47.7808 37.4081 47.7959C37.4497 48.6819 37.1815 49.9827 36.2392 51.025C35.2888 52.0765 33.6829 52.8318 31.1169 52.6714C25.9949 52.3513 23.8698 49.2736 23.4514 47.7116C23.4419 47.676 23.4408 47.6386 23.4482 47.6025L24.8599 40.7007C24.8759 40.6224 24.9302 40.5574 25.0045 40.5277ZM25.2536 41.1469L23.9251 47.6416C24.3265 49.029 26.2921 51.8939 31.1466 52.1973C33.6001 52.3506 35.053 51.6288 35.8868 50.7064C36.7209 49.7837 36.9659 48.6271 36.9345 47.8404L35.8201 43.2341C34.0904 43.6674 32.4939 43.8599 30.799 43.5807C29.1081 43.3021 27.3389 42.5571 25.2536 41.1469Z" fill="black"/>
<path d="M32.9233 49.1804C29.2652 49.7478 26.3356 43.9001 25.3281 40.9053C30.1919 44.2025 32.9792 43.5896 35.8351 42.9616L35.8683 42.9543C36.385 44.767 36.5813 48.6129 32.9233 49.1804Z" fill="#DADADA"/>
<path d="M22.5832 15.5721C18.7559 18.4583 19.3937 24.3797 20.2303 26.9941C19.8667 27.0743 19.4925 27.2507 19.1323 27.5719C18.1326 28.4632 17.5637 31.3365 19.6813 32.6698C20.031 32.89 20.6229 33.0763 21.2499 33.0984C21.6682 34.9284 23.1322 39.3364 25.3283 40.905C28.0733 42.8657 32.3085 44.8265 38.2692 42.0814C44.2299 39.3364 45.171 33.611 43.8377 25.8464C42.5044 18.0819 39.0535 14.1604 35.3673 12.9055C31.6811 11.6506 27.3675 11.9644 22.5832 15.5721Z" fill="white"/>
<path fill-rule="evenodd" clip-rule="evenodd" d="M35.2905 13.1307C31.6834 11.9027 27.4513 12.1987 22.726 15.7621C20.8846 17.1506 20.1046 19.2781 19.8939 21.4087C19.6937 23.4334 20.0116 25.4312 20.3954 26.7243C20.9467 26.652 21.459 26.7673 21.8574 26.9175C22.3073 27.087 22.6298 27.3076 22.7288 27.3847C22.8324 27.4652 22.851 27.6144 22.7705 27.718C22.69 27.8216 22.5407 27.8402 22.4371 27.7597C22.3695 27.707 22.0883 27.5122 21.6898 27.362C21.2917 27.212 20.7941 27.1131 20.2813 27.2263C19.9576 27.2977 19.6202 27.4552 19.2901 27.7495C18.8537 28.1386 18.4775 29.0075 18.4751 29.956C18.4728 30.8898 18.8329 31.8554 19.8076 32.4691C20.1161 32.6633 20.6657 32.8404 21.258 32.8613C21.9263 32.8848 22.5954 32.7088 23.03 32.2018C23.1154 32.1022 23.2654 32.0906 23.365 32.176C23.4646 32.2614 23.4761 32.4114 23.3907 32.511C22.9035 33.0794 22.2123 33.3012 21.5506 33.334C21.7823 34.2547 22.2214 35.6418 22.8385 37.0018C23.5281 38.5215 24.4219 39.966 25.4661 40.7119C26.8228 41.681 28.5352 42.6409 30.6353 43.0244C32.7317 43.4073 35.2312 43.2191 38.1696 41.8659C41.088 40.5219 42.7665 38.4582 43.5607 35.779C44.359 33.0858 44.2678 29.7561 43.6034 25.8869C42.2787 18.1726 38.8651 14.3475 35.2905 13.1307ZM21.0591 33.3253C21.2881 34.269 21.7477 35.7477 22.4059 37.1981C23.1019 38.7321 24.0382 40.2758 25.19 41.0985C26.5783 42.0902 28.356 43.0911 30.55 43.4918C32.7476 43.8932 35.3461 43.6893 38.3683 42.2975C41.4106 40.8964 43.183 38.7249 44.0162 35.914C44.8453 33.1171 44.7405 29.7019 44.0716 25.8065C42.7297 17.9917 39.2415 13.9738 35.4436 12.6809C31.6783 11.3991 27.2831 11.7305 22.44 15.3827C20.454 16.8804 19.6392 19.1567 19.4211 21.3619C19.2155 23.4411 19.5364 25.4861 19.9314 26.8305C19.6086 26.9374 19.2848 27.1177 18.9739 27.3949C18.4107 27.897 18.0026 28.9105 18 29.9548C17.9974 31.0138 18.4116 32.1515 19.5545 32.8711C19.9093 33.0945 20.4647 33.2763 21.0591 33.3253Z" fill="black"/>
</svg>
