<svg width="257" height="272" viewBox="0 0 257 272" fill="none" xmlns="http://www.w3.org/2000/svg">
<mask id="mask0" mask-type="alpha" maskUnits="userSpaceOnUse" x="0" y="0" width="257" height="272">
<rect width="257" height="272" fill="#C4C4C4"/>
</mask>
<g mask="url(#mask0)">
<path d="M104.591 216.011H110.091C107.691 214.811 101.091 198.178 98.0906 190.011C91.5905 190.011 83.0907 183.511 86.0906 172.511C88.4905 163.711 95.7572 163.178 99.0906 164.011C99.5906 163.344 100.791 161.311 101.591 158.511C102.391 155.711 99.2572 151.178 96.0906 149.511C97.2572 149.178 97.0906 147.711 99.0906 142.511C101.091 137.311 99.5906 132.678 97.5906 131.011C98.7572 131.178 100.091 130.811 104.091 128.011C108.091 125.211 107.424 118.178 106.591 115.011C107.924 116.011 111.891 117.611 117.091 116.011C122.291 114.411 124.924 108.344 125.591 105.511C127.091 107.011 131.691 109.811 138.091 109.011C144.491 108.211 146.757 104.678 147.091 103.011C149.591 109.511 153.091 111.011 159.591 112.011C164.791 112.811 168.757 112.344 169.591 110.511C169.591 113.844 170.491 118.111 174.091 122.511C177.691 126.911 181.591 127.344 183.091 127.511C194.591 144.511 200.591 187.511 192.091 205.511C194.424 205.511 199.978 205.578 202.591 204.011C207.591 201.011 208.091 194.844 209.091 191.011C212.924 193.511 221.991 197.611 227.591 194.011C233.191 190.411 233.924 177.178 233.591 171.011C237.757 172.178 247.591 172.211 253.591 163.011C259.591 153.811 252.757 143.178 248.591 139.011C251.091 137.511 252.591 137.011 255.591 127.011C257.991 119.011 250.257 111.011 246.091 108.011C247.924 104.011 250.991 94.011 248.591 86.011C246.191 78.011 234.591 74.011 229.091 73.011C230.924 69.6777 232.491 60.111 224.091 48.511C215.691 36.911 203.257 40.6777 198.091 44.011C199.424 37.011 198.191 22.111 182.591 18.511C166.991 14.911 157.757 26.3444 155.091 32.511C155.424 30.3444 154.091 25.711 146.091 24.511C138.091 23.311 134.091 27.3444 133.091 29.511C131.591 24.1777 125.691 13.611 114.091 14.011C102.491 14.411 98.2572 24.511 97.5906 29.511C96.4239 28.8444 92.7906 27.911 87.5906 29.511C82.3906 31.111 77.7572 36.8444 76.0906 39.511C73.0906 35.011 63.5906 34.511 56.5906 39.511C50.9906 43.511 50.2572 50.8444 50.5906 54.011C49.0906 53.1777 44.5906 52.511 38.5906 56.511C32.5906 60.511 30.7573 67.511 30.5906 70.511C17.7906 67.311 8.92393 83.8444 6.09058 92.511C2.89058 102.111 11.0906 109.844 15.5906 112.511C14.2573 113.178 10.8906 116.111 8.09061 122.511C5.29062 128.911 9.25728 135.511 11.5906 138.011C6.59061 138.011 -0.909387 145.511 0.0906128 157.011C0.890613 166.211 5.75728 170.844 8.09061 172.011C3.59061 173.511 1.09061 183.011 8.09061 193.511C13.6906 201.911 25.4239 199.344 30.5906 197.011C30.5906 201.011 32.7906 210.711 41.5906 217.511C50.3906 224.311 62.924 218.011 68.0907 214.011C66.5907 217.678 67.4907 225.611 83.0907 228.011C98.6907 230.411 103.924 221.011 104.591 216.011Z" fill="#D23E18"/>
<path fill-rule="evenodd" clip-rule="evenodd" d="M126.655 20.3018C123.692 17.1997 119.578 14.8224 114.125 15.0105C108.651 15.1992 104.951 17.6608 102.518 20.6654C100.06 23.7005 98.8949 27.2952 98.5818 29.6432L98.3853 31.1169L97.0944 30.3793C96.2181 29.8786 92.8816 28.9293 87.8847 30.4668C85.5033 31.1995 83.1804 32.9091 81.2138 34.827C79.2576 36.7346 77.7321 38.7714 76.9386 40.041L76.1177 41.3545L75.2585 40.0657C74.0159 38.2017 71.2844 37.0081 67.8233 36.9484C64.4047 36.8895 60.4911 37.9539 57.1718 40.3248C54.5982 42.1631 53.1182 44.7839 52.3212 47.3682C51.5217 49.9607 51.4317 52.4493 51.5851 53.9064L51.7865 55.8194L50.1049 54.8852C49.0225 54.2839 44.9301 53.4865 39.1453 57.3431C33.4996 61.1069 31.7455 67.7502 31.5891 70.5665L31.522 71.7747L30.3481 71.4812C24.4856 70.0156 19.4257 73.0193 15.3591 77.7157C11.3006 82.4026 8.43038 88.5722 7.04108 92.8218L7.03926 92.8273C5.56032 97.2641 6.69636 101.283 8.79603 104.573C10.9085 107.883 13.9574 110.381 16.1004 111.651L17.6778 112.586L16.0378 113.405C14.9845 113.932 11.7506 116.64 9.00678 122.912C7.73465 125.82 7.98362 128.801 8.86301 131.403C9.74586 134.017 11.2409 136.171 12.3217 137.329L13.8918 139.011H11.5906C9.53738 139.011 6.67717 140.61 4.40331 143.781C2.16599 146.902 0.607755 151.415 1.08686 156.924C1.859 165.804 6.53814 170.117 8.53783 171.117L10.6972 172.196L8.40685 172.96C6.70874 173.526 5.07272 175.773 4.77488 179.466C4.48301 183.086 5.52863 187.865 8.92267 192.956C11.4851 196.8 15.4562 198.175 19.5304 198.286C23.6246 198.398 27.6988 197.22 30.179 196.1L31.5906 195.462V197.011C31.5906 200.77 33.6969 210.148 42.2021 216.72C46.2687 219.862 51.2451 220.025 55.9596 218.841C60.6774 217.657 64.9795 215.155 67.4785 213.22L70.4291 210.936L69.0162 214.39C68.3798 215.945 68.229 218.473 69.9878 220.899C71.7569 223.34 75.5809 225.844 83.2427 227.023C90.8175 228.188 95.7301 226.475 98.8157 224.005C101.932 221.511 103.296 218.157 103.599 215.879L103.715 215.011H107.886C107.524 214.457 107.142 213.799 106.745 213.066C105.723 211.174 104.566 208.698 103.399 206.023C101.181 200.939 98.8978 195.073 97.3852 190.988C94.0149 190.774 90.3332 189.039 87.7677 186.036C84.9875 182.781 83.5399 178.063 85.1258 172.248C86.4008 167.573 89.0126 164.992 91.8334 163.735C94.2766 162.646 96.8066 162.579 98.6348 162.894C99.1705 162.022 100.019 160.371 100.629 158.236C100.908 157.259 100.519 155.744 99.485 154.124C98.4797 152.548 97.025 151.133 95.6248 150.396L93.4182 149.235L95.8159 148.55L95.8182 148.549C95.8687 148.534 95.8867 148.529 95.942 148.448C96.037 148.307 96.1523 148.049 96.3298 147.519C96.4147 147.265 96.5088 146.965 96.6183 146.616C96.9427 145.581 97.4022 144.115 98.1572 142.152C99.0908 139.725 99.1987 137.454 98.8574 135.619C98.5113 133.757 97.7209 132.421 96.9504 131.779L94.2424 129.523L97.732 130.021C98.4578 130.125 99.4811 130.017 103.517 127.192C105.16 126.042 105.938 123.948 106.157 121.557C106.374 119.193 106.017 116.762 105.624 115.266L104.892 112.487L107.191 114.211C108.274 115.024 111.91 116.559 116.797 115.055C119.098 114.347 120.891 112.629 122.211 110.666C123.528 108.705 124.308 106.594 124.617 105.282L125.028 103.535L126.298 104.804C127.604 106.11 131.905 108.776 137.967 108.019C144.018 107.262 145.876 103.987 146.11 102.815L146.786 99.434L148.024 102.652C149.225 105.774 150.616 107.574 152.389 108.738C154.198 109.924 156.513 110.526 159.743 111.023C162.289 111.415 164.475 111.486 166.089 111.258C166.896 111.145 167.516 110.962 167.956 110.739C168.393 110.518 168.594 110.287 168.68 110.097L170.591 110.511C170.591 113.646 171.43 117.68 174.865 121.878C178.206 125.962 181.774 126.359 183.184 126.515L183.66 126.568L183.919 126.951C189.799 135.643 194.201 150.828 196.083 166.013C197.027 173.626 197.343 181.284 196.885 188.187C196.473 194.392 195.432 200.041 193.621 204.508C194.659 204.498 195.897 204.464 197.147 204.353C199.145 204.175 200.982 203.81 202.076 203.154C204.309 201.814 205.571 199.755 206.401 197.48C206.97 195.924 207.304 194.388 207.621 192.926C207.783 192.182 207.941 191.457 208.123 190.759L208.474 189.415L209.637 190.173C211.482 191.377 214.607 192.975 217.927 193.83C221.279 194.693 224.602 194.743 227.05 193.17C228.229 192.412 229.221 191.097 230.03 189.347C230.834 187.604 231.421 185.507 231.832 183.291C232.656 178.858 232.756 174.09 232.592 171.065L232.517 169.672L233.86 170.048C237.774 171.144 247.075 171.171 252.753 162.465C255.535 158.199 255.37 153.583 253.957 149.447C252.537 145.291 249.883 141.717 247.883 139.718L246.978 138.813L248.076 138.154C248.19 138.085 248.301 138.02 248.408 137.956C249.494 137.311 250.238 136.869 251.076 135.636C252.046 134.21 253.136 131.714 254.633 126.724C255.714 123.12 254.538 119.43 252.46 116.174C250.387 112.926 247.509 110.264 245.506 108.823L244.839 108.342L245.182 107.594C246.063 105.67 247.262 102.253 247.943 98.3397C248.625 94.4188 248.771 90.0915 247.633 86.2984C246.546 82.6743 243.326 79.8422 239.523 77.7635C235.746 75.6989 231.577 74.4795 228.912 73.9949L227.545 73.7464L228.214 72.5291C229.833 69.5864 231.49 60.4349 223.281 49.0976C219.277 43.5684 214.37 41.747 209.859 41.6609C205.293 41.5738 201.085 43.269 198.633 44.8514L196.672 46.1166L197.108 43.824C197.747 40.4697 197.768 35.1998 195.767 30.3687C193.788 25.5908 189.824 21.2065 182.366 19.4855C174.869 17.7555 168.946 19.6341 164.56 22.6707C160.143 25.729 157.278 29.9711 156.008 32.908L154.102 32.359C154.227 31.5493 154.049 30.1362 152.942 28.7817C151.845 27.4406 149.763 26.0731 145.942 25.5C138.371 24.3644 134.808 28.1766 133.999 29.9301L132.862 32.3923L132.128 29.7818C131.415 27.2461 129.637 23.4234 126.655 20.3018ZM133.392 27.2858C132.385 24.713 130.652 21.5902 128.101 18.9203C124.839 15.5057 120.204 12.7997 114.056 13.0117C107.93 13.2229 103.713 16.0114 100.963 19.4067C98.6415 22.2737 97.3649 25.5692 96.8192 28.1221C94.8777 27.5355 91.5418 27.249 87.2965 28.5553C84.4778 29.4226 81.8841 31.3797 79.8174 33.3951C78.2427 34.9308 76.9281 36.5456 76.0038 37.8456C74.0888 35.9517 71.0705 35.0041 67.8578 34.9487C64.0264 34.8826 59.6901 36.0682 56.0093 38.6973C52.983 40.859 51.2963 43.9049 50.41 46.7788C49.7565 48.8979 49.526 50.9598 49.523 52.5817C47.0788 52.0495 42.9692 52.3901 38.0359 55.679C32.3584 59.464 30.2268 65.7401 29.711 69.3051C23.2718 68.209 17.8896 71.7381 13.8472 76.4065C9.56488 81.3518 6.58535 87.7806 5.14097 92.1976C3.42133 97.3597 4.78522 102.006 7.11013 105.649C9.02459 108.649 11.6165 111.017 13.7894 112.536C11.9809 114.023 9.38504 117.057 7.17446 122.11C5.64659 125.603 5.98095 129.121 6.96823 132.044C7.66859 134.117 8.70905 135.928 9.70236 137.284C7.27032 137.965 4.73791 139.882 2.77792 142.616C0.26524 146.12 -1.42652 151.107 -0.905623 157.098C-0.215266 165.037 3.41405 169.8 6.1472 171.937C4.26101 173.39 3.04019 176.096 2.78136 179.306C2.44823 183.436 3.65261 188.657 7.25857 194.066C10.2961 198.622 14.9917 200.163 19.4759 200.286C23.2618 200.389 26.9841 199.49 29.6665 198.474C30.1272 203.259 32.8088 211.989 40.9792 218.302C45.7125 221.96 51.4029 222.047 56.4466 220.781C60.3313 219.806 63.9234 218.009 66.5877 216.291C66.4992 218.065 66.9478 220.113 68.3685 222.073C70.5744 225.116 75.0005 227.778 82.9386 228.999C90.9638 230.234 96.4678 228.447 100.066 225.567C103.268 223.003 104.874 219.641 105.431 217.011H110.091L110.538 215.117C110.538 215.117 110.52 215.107 110.481 215.076C110.44 215.042 110.385 214.992 110.317 214.921C110.18 214.777 110.015 214.574 109.824 214.305C109.442 213.767 108.997 213.027 108.505 212.115C107.521 210.296 106.391 207.879 105.232 205.224C102.918 199.918 100.525 193.738 99.0293 189.666L98.7886 189.011H98.0906C95.1433 189.011 91.6677 187.522 89.2885 184.737C86.9437 181.991 85.6413 177.959 87.0554 172.774C88.1803 168.649 90.4018 166.563 92.6477 165.562C94.9423 164.539 97.3583 164.609 98.8481 164.981L99.4922 165.142L99.8906 164.611C100.467 163.842 101.72 161.697 102.552 158.786C103.073 156.963 102.296 154.811 101.171 153.048C100.277 151.646 99.0556 150.317 97.7282 149.358C97.9268 149.006 98.08 148.591 98.2264 148.153C98.3244 147.861 98.4268 147.534 98.5426 147.165C98.8663 146.132 99.2947 144.766 100.024 142.87C101.09 140.097 101.232 137.451 100.824 135.253C100.578 133.933 100.127 132.744 99.5349 131.785C100.737 131.39 102.281 130.498 104.664 128.83C107.021 127.18 107.909 124.358 108.149 121.74C108.305 120.03 108.196 118.311 107.981 116.857C110.132 117.676 113.449 118.178 117.385 116.967C120.283 116.075 122.407 113.96 123.871 111.781C124.913 110.23 125.654 108.599 126.124 107.24C128.428 108.858 132.706 110.692 138.215 110.003C142.975 109.408 145.709 107.346 147.058 105.424C148.191 107.676 149.553 109.268 151.292 110.41C153.483 111.848 156.168 112.496 159.439 112.999C162.092 113.408 164.489 113.503 166.368 113.239C167.238 113.116 168.034 112.911 168.705 112.599C169.051 115.737 170.259 119.407 173.317 123.144C176.833 127.442 180.662 128.214 182.515 128.45C188.012 136.824 192.259 151.421 194.098 166.259C195.029 173.771 195.338 181.301 194.89 188.054C194.441 194.822 193.236 200.744 191.186 205.084L190.512 206.511H192.091C192.179 206.511 192.272 206.511 192.37 206.511C193.555 206.513 195.422 206.515 197.325 206.345C199.341 206.165 201.587 205.78 203.105 204.869C205.873 203.208 207.361 200.684 208.28 198.167C208.893 196.489 209.286 194.691 209.621 193.159C209.663 192.963 209.705 192.771 209.747 192.584C211.742 193.735 214.502 195.013 217.429 195.767C220.968 196.679 224.979 196.879 228.131 194.852C229.752 193.81 230.952 192.121 231.845 190.185C232.743 188.241 233.369 185.969 233.799 183.656C234.546 179.633 234.72 175.378 234.641 172.271C239.56 173.141 248.671 172.385 254.428 163.557C257.646 158.623 257.394 153.322 255.849 148.8C254.51 144.881 252.181 141.474 250.17 139.228C251.028 138.683 251.877 138.016 252.73 136.761C253.885 135.062 255.045 132.308 256.548 127.298C257.867 122.902 256.376 118.592 254.146 115.098C252.126 111.934 249.424 109.312 247.325 107.686C248.221 105.554 249.281 102.318 249.913 98.6825C250.623 94.6034 250.81 89.9306 249.548 85.7237C248.236 81.3478 244.455 78.1799 240.483 76.0086C237.034 74.1234 233.301 72.9116 230.52 72.2833C232.203 67.8796 232.685 58.6743 224.901 47.9246C220.504 41.8538 214.994 39.7585 209.897 39.6612C205.851 39.584 202.094 40.7632 199.366 42.1369C199.711 38.6002 199.419 33.9611 197.614 29.6034C195.41 24.2814 190.957 19.4156 182.815 17.5367C174.712 15.6667 168.219 17.7047 163.421 21.0264C159.898 23.4662 157.292 26.5934 155.609 29.3632C155.35 28.7471 154.985 28.121 154.49 27.5154C153.003 25.6982 150.419 24.1491 146.239 23.5221C139.605 22.527 135.444 24.9506 133.392 27.2858Z" fill="black"/>
</g>
</svg>
