<svg width="257" height="272" viewBox="0 0 257 272" fill="none" xmlns="http://www.w3.org/2000/svg">
<mask id="mask0" mask-type="alpha" maskUnits="userSpaceOnUse" x="0" y="0" width="257" height="272">
<rect width="257" height="272" fill="#C4C4C4"/>
</mask>
<g mask="url(#mask0)">
<path d="M96.23 165.123C100.234 164.326 104.166 166.835 105 167.5C102.164 159.36 97.0307 141.201 104.237 139.207C105.739 139.041 109.542 139.307 112.745 141.699C113.246 137.38 116.048 128.343 123.255 126.748H129.26C132.864 126.748 136.767 123.093 138.269 121.266L139.27 124.256C145.943 122.927 159.588 118.375 160.79 110.8C167.129 113.292 179.607 120.169 178.806 127.745C181.976 123.093 187.414 110.899 183.811 99.3369C180.308 94.0208 171.9 82.99 166.295 81.3952C159.288 79.4017 147.778 67.4405 120.753 78.9033C114.08 82.5581 100.734 90.6651 100.734 93.8547C98.3987 99.1708 92.7268 110.8 88.7231 114.787C87.5553 114.122 84.319 113.491 80.7157 116.282C76.2115 119.77 75.7111 142.696 79.7148 149.175C82.9177 154.358 88.4982 163.914 90.5 168C92.5 166.114 93.6341 165.64 96.23 165.123Z" fill="black"/>
<path d="M104.5 190C100.096 191.595 95.6682 190.497 94 189.5C96.0018 194.683 104.905 200.674 109.242 203C106.439 200.608 105 193.156 104.5 190Z" fill="black"/>
<path fill-rule="evenodd" clip-rule="evenodd" d="M162.021 78.4313C163.831 79.3395 165.281 80.0671 166.568 80.4334C168.168 80.8884 169.871 81.9802 171.539 83.3515C173.223 84.7365 174.946 86.471 176.586 88.3038C179.866 91.9695 182.873 96.0971 184.646 98.7867C184.697 98.8649 184.738 98.95 184.766 99.0394C186.639 105.051 186.152 111.189 184.817 116.381C183.482 121.571 181.281 125.888 179.633 128.308C179.374 128.686 178.892 128.841 178.462 128.683C178.031 128.525 177.764 128.095 177.812 127.639C177.98 126.046 177.459 124.426 176.386 122.803C175.311 121.176 173.717 119.605 171.86 118.154C168.548 115.567 164.524 113.459 161.488 112.166C160.95 113.84 159.891 115.327 158.557 116.627C156.908 118.234 154.787 119.608 152.537 120.76C148.039 123.064 142.866 124.559 139.465 125.237C138.971 125.335 138.481 125.051 138.321 124.573L137.86 123.194C137.107 123.946 136.172 124.771 135.131 125.508C133.457 126.692 131.372 127.748 129.26 127.748H123.367C120.207 128.487 117.933 130.852 116.36 133.687C114.771 136.55 113.977 139.759 113.739 141.814C113.697 142.17 113.47 142.476 113.141 142.618C112.813 142.759 112.433 142.714 112.147 142.5C109.254 140.34 105.805 140.066 104.428 140.193C103.166 140.575 102.329 141.661 101.892 143.55C101.443 145.488 101.482 148.061 101.845 150.923C102.569 156.626 104.534 163.124 105.944 167.171C106.091 167.592 105.942 168.058 105.578 168.316C105.215 168.573 104.725 168.56 104.377 168.282C104.036 168.011 102.933 167.269 101.445 166.697C99.9552 166.124 98.1738 165.756 96.4253 166.104C95.1482 166.358 94.3189 166.586 93.5803 166.947C92.8488 167.304 92.1489 167.82 91.186 168.728C90.5261 169.35 89.8662 170.015 89.3 171.031C88.7334 172.048 88.2319 173.469 87.9939 175.61C87.3464 181.438 90.6144 186.753 94.4352 188.6C94.4617 188.613 94.4876 188.626 94.5129 188.642C95.1924 189.048 96.5682 189.539 98.3305 189.728C100.075 189.914 102.126 189.796 104.16 189.06C104.44 188.958 104.751 188.987 105.008 189.139C105.265 189.29 105.441 189.549 105.488 189.843C105.735 191.403 106.211 194.004 106.965 196.497C107.342 197.744 107.781 198.942 108.285 199.96C108.795 200.99 109.338 201.767 109.891 202.239C110.28 202.571 110.356 203.142 110.068 203.564C109.78 203.986 109.22 204.123 108.769 203.881C106.551 202.692 103.188 200.579 100.117 198.1C97.2158 195.758 94.4185 192.967 93.2171 190.224C88.7489 187.85 85.2899 181.836 86.0061 175.39C86.2681 173.031 86.8353 171.345 87.5531 170.057C88.0958 169.084 88.7082 168.37 89.2783 167.793C87.0721 163.458 81.9049 154.621 78.8641 149.701C77.7503 147.898 77.0088 145.079 76.5588 141.934C76.1038 138.755 75.9301 135.115 76.0252 131.58C76.1202 128.048 76.4845 124.585 77.1206 121.762C77.4384 120.352 77.8298 119.076 78.303 118.022C78.7685 116.984 79.3523 116.073 80.1034 115.491C83.4873 112.87 86.6898 112.955 88.4824 113.588C90.2821 111.589 92.4393 108.091 94.4754 104.342C96.6259 100.382 98.5795 96.2599 99.7473 93.6144C99.8153 92.9863 100.138 92.3868 100.504 91.8687C100.937 91.257 101.539 90.612 102.241 89.956C103.649 88.6413 105.572 87.1825 107.673 85.7308C111.881 82.8226 116.917 79.8639 120.272 78.0263C120.301 78.0103 120.331 77.9957 120.362 77.9827C134.055 72.1747 143.912 72.2684 151.276 74.1338C154.941 75.0622 157.953 76.4209 160.464 77.6555C161.013 77.925 161.53 78.1848 162.021 78.4313ZM90.8071 166.393C91.4435 165.871 92.0472 165.47 92.7028 165.15C93.6802 164.673 94.7159 164.405 96.0347 164.142C98.2899 163.693 100.476 164.181 102.163 164.83C102.53 164.971 102.878 165.122 103.202 165.275C101.916 161.265 100.47 155.975 99.8607 151.175C99.4869 148.23 99.4156 145.38 99.9431 143.099C100.473 140.806 101.672 138.879 103.971 138.244C104.022 138.229 104.074 138.219 104.127 138.213C105.598 138.051 108.888 138.251 111.997 140.019C112.412 137.883 113.236 135.195 114.611 132.717C116.348 129.586 119.047 126.655 123.039 125.771C123.11 125.756 123.182 125.748 123.255 125.748H129.26C130.753 125.748 132.421 124.976 133.975 123.876C135.507 122.792 136.794 121.485 137.496 120.631C137.727 120.35 138.092 120.216 138.45 120.282C138.808 120.348 139.102 120.603 139.217 120.948L139.935 123.094C143.181 122.375 147.694 120.993 151.626 118.98C153.771 117.881 155.704 116.614 157.161 115.195C158.617 113.776 159.546 112.255 159.802 110.643C159.849 110.344 160.03 110.082 160.293 109.932C160.556 109.781 160.873 109.758 161.155 109.869C164.386 111.139 169.182 113.524 173.091 116.578C175.045 118.105 176.818 119.829 178.055 121.7C178.676 122.641 179.172 123.633 179.483 124.666C180.699 122.384 181.99 119.342 182.88 115.883C184.145 110.965 184.579 105.277 182.897 99.7686C181.157 97.14 178.249 93.1614 175.096 89.6374C173.495 87.8486 171.847 86.1941 170.268 84.8962C168.673 83.5845 167.224 82.6994 166.021 82.3571C164.534 81.9339 162.856 81.0904 161.018 80.1666C160.549 79.9311 160.071 79.6905 159.582 79.4503C157.12 78.2397 154.252 76.9508 150.785 76.0726C143.893 74.3267 134.496 74.1696 121.189 79.8044C117.872 81.6232 112.924 84.5323 108.81 87.3761C106.74 88.8068 104.909 90.2012 103.606 91.4178C102.953 92.0275 102.46 92.5677 102.137 93.0241C101.794 93.5085 101.734 93.7723 101.734 93.8547C101.734 93.9932 101.705 94.1302 101.65 94.2569C100.473 96.9358 98.4589 101.198 96.233 105.296C94.0269 109.358 91.5471 113.386 89.4287 115.495C89.1102 115.812 88.6192 115.878 88.2285 115.656C87.4199 115.196 84.6195 114.523 81.328 117.072C80.953 117.363 80.5359 117.931 80.1276 118.841C79.7269 119.733 79.3715 120.871 79.0716 122.202C78.4722 124.862 78.1171 128.189 78.0244 131.634C77.9318 135.076 78.1022 138.601 78.5386 141.651C78.98 144.736 79.6775 147.212 80.5655 148.649C83.4975 153.394 88.437 161.827 90.8071 166.393ZM96.2131 191.39C96.8027 191.531 97.4427 191.644 98.1176 191.716C99.7868 191.895 101.722 191.832 103.704 191.298C103.986 192.885 104.425 195.007 105.05 197.076C105.346 198.054 105.687 199.032 106.077 199.944C104.567 198.961 102.93 197.8 101.373 196.543C99.3031 194.872 97.456 193.094 96.2131 191.39Z" fill="black"/>
</g>
</svg>
