<svg width="257" height="272" viewBox="0 0 257 272" fill="none" xmlns="http://www.w3.org/2000/svg">
<mask id="mask0" mask-type="alpha" maskUnits="userSpaceOnUse" x="0" y="0" width="257" height="272">
<rect width="257" height="272" fill="#C4C4C4"/>
</mask>
<g mask="url(#mask0)">
<path d="M168.284 117.828C174.676 135.633 187.459 148.626 189.917 148.145C192.375 147.664 197.292 186.643 192.375 198.193C187.459 209.742 168.284 231.397 143.702 233.803C134.197 235.889 110.663 236.21 92.5707 220.81C69.9549 201.561 65.0384 201.561 61.1053 186.162C63.8913 197.711 72.4131 220.329 87.6542 233.803C104.366 248.578 113.711 266.046 139.277 269.414C164.843 272.783 185.492 260.752 192.375 255.459C196.396 252.367 203.519 236.37 206.141 228.029C211.058 210.223 204.666 144.295 204.666 139.483C204.666 134.528 186.475 90.3976 175.167 80.2918C163.86 70.186 145.177 72.1109 118.136 76.9232C91.0957 81.7355 80.7711 102.428 74.8714 109.165C68.9716 115.903 64.0551 143.333 64.5468 151.514C65.0384 159.694 57.1721 170.763 61.1053 186.162C65.0384 201.561 69.9549 201.561 92.5707 220.81C110.663 236.21 134.197 235.889 143.702 233.803C133.705 230.916 113.701 222.224 108.795 207.817C102.895 190.493 98.1427 186.001 100.437 181.831C102.567 175.575 104.446 167.814 120.595 154.882C131.411 146.22 133.377 138.52 139.769 129.377C143.665 123.803 160.382 101.947 168.284 117.828Z" fill="#3CD367"/>
<path fill-rule="evenodd" clip-rule="evenodd" d="M152.533 74.013C143.178 73.8347 131.837 75.5007 118.312 77.9077C96.2943 81.826 85.6445 96.3718 79.177 105.205C77.8336 107.04 76.6706 108.629 75.6237 109.824C74.2834 111.355 72.9208 114.175 71.6434 117.806C70.3783 121.402 69.2362 125.676 68.2893 130.011C66.3874 138.719 65.3079 147.508 65.545 151.454C65.6774 153.657 65.2459 156.005 64.6335 158.456C64.3453 159.609 64.0113 160.806 63.6686 162.034L63.6001 162.28C63.2322 163.599 62.8556 164.958 62.5062 166.371C61.1115 172.01 60.1655 178.442 62.0741 185.914C63.0459 189.719 64.0647 192.517 65.3753 194.88C66.6814 197.236 68.3006 199.203 70.5216 201.318C72.7568 203.447 75.5762 205.703 79.2891 208.659L79.6563 208.951C83.292 211.845 87.737 215.383 93.2188 220.049C108.801 233.311 128.533 234.712 139.443 233.478C134.798 231.831 129.118 229.331 123.806 225.976C116.867 221.594 110.41 215.662 107.848 208.139C105.514 201.285 103.368 196.469 101.755 192.85C101.341 191.921 100.962 191.072 100.625 190.287C99.0335 186.588 98.1643 183.976 99.5173 181.429C99.6276 181.104 99.7379 180.774 99.8502 180.437C100.803 177.579 101.904 174.279 104.415 170.324C107.244 165.868 111.835 160.616 119.969 154.102C125.275 149.853 128.401 145.851 130.997 141.773C132.032 140.148 132.979 138.517 133.954 136.838C134.211 136.395 134.47 135.948 134.734 135.497C135.99 133.347 137.328 131.124 138.949 128.804C140.906 126.004 146.137 119.031 151.93 114.752C154.812 112.624 157.994 111.04 161.078 111.149C162.105 111.186 163.09 111.407 164.024 111.83C161.213 107.795 157.405 104.346 153.378 101.514C147.39 97.3039 141.02 94.5322 137.012 93.2768L137.609 91.3682C141.796 92.6794 148.356 95.538 154.528 99.8778C160.691 104.211 166.571 110.094 169.226 117.49C172.378 126.273 177.112 133.878 181.358 139.222C183.482 141.894 185.468 143.981 187.054 145.36C187.85 146.051 188.522 146.544 189.043 146.844C189.303 146.994 189.502 147.082 189.642 147.126C189.708 147.147 189.747 147.154 189.764 147.156C190.18 147.088 190.525 147.244 190.748 147.409C190.966 147.569 191.126 147.777 191.243 147.957C191.479 148.321 191.687 148.812 191.875 149.357C192.258 150.466 192.643 152.048 193.011 153.947C193.749 157.759 194.445 162.985 194.908 168.575C195.371 174.166 195.604 180.147 195.41 185.469C195.218 190.753 194.602 195.515 193.295 198.584C190.763 204.533 184.631 212.955 176.058 220.191C167.489 227.423 156.387 233.551 143.858 234.793C134.13 236.908 110.296 237.211 91.9225 221.572C86.466 216.928 82.0428 213.407 78.4078 210.514L78.0435 210.224C74.3509 207.284 71.4549 204.969 69.1423 202.767C68.2833 201.948 67.5013 201.143 66.7847 200.322C71.2233 211.33 78.315 224.212 88.3165 233.054C92.5293 236.779 96.2738 240.669 99.8959 244.434L99.9033 244.441C103.532 248.212 107.033 251.851 110.802 255.132C118.315 261.672 126.866 266.77 139.408 268.423C164.611 271.744 184.997 259.871 191.765 254.666C192.613 254.014 193.731 252.577 195.002 250.516C196.252 248.491 197.585 245.974 198.881 243.279C201.473 237.891 203.887 231.861 205.182 227.746C206.369 223.432 206.893 216.101 206.985 207.348C207.077 198.618 206.74 188.58 206.249 178.934C205.758 169.291 205.113 160.051 204.591 152.917C204.474 151.321 204.363 149.826 204.261 148.454C203.91 143.729 203.666 140.453 203.666 139.483C203.666 139.291 203.617 138.919 203.484 138.334C203.355 137.769 203.162 137.061 202.906 136.224C202.395 134.551 201.648 132.403 200.711 129.918C198.839 124.951 196.221 118.676 193.249 112.238C190.277 105.799 186.958 99.211 183.684 93.6118C180.393 87.9844 177.202 83.4512 174.501 81.0374C169.096 76.207 161.873 74.1911 152.533 74.013ZM60.1347 186.403C62.9413 198.033 71.5279 220.881 86.9918 234.553C91.1349 238.215 94.8255 242.049 98.4548 245.82L98.4942 245.861C102.101 249.609 105.653 253.301 109.489 256.64C117.218 263.369 126.122 268.69 139.147 270.406C165.075 273.822 185.987 261.633 192.985 256.251C194.148 255.357 195.428 253.636 196.704 251.566C198.003 249.462 199.369 246.878 200.684 244.146C203.311 238.684 205.767 232.554 207.095 228.329L207.1 228.312L207.105 228.295C208.373 223.703 208.893 216.124 208.985 207.369C209.077 198.58 208.738 188.496 208.246 178.832C207.754 169.167 207.108 159.91 206.585 152.771C206.464 151.12 206.351 149.587 206.247 148.19C205.9 143.513 205.666 140.372 205.666 139.483C205.666 139.055 205.573 138.502 205.434 137.891C205.291 137.261 205.083 136.503 204.819 135.639C204.291 133.911 203.528 131.72 202.583 129.212C200.692 124.196 198.055 117.877 195.065 111.4C192.076 104.924 188.727 98.2747 185.41 92.6022C182.11 86.958 178.787 82.1852 175.834 79.5462C169.931 74.2708 162.159 72.1962 152.571 72.0134C142.997 71.8308 131.477 73.5334 117.961 75.9387C95.051 80.0158 83.8448 95.3859 77.44 104.17C76.1595 105.927 75.0709 107.42 74.119 108.507C72.5094 110.345 71.0451 113.48 69.7567 117.142C68.456 120.84 67.2935 125.198 66.3353 129.585C64.4269 138.322 63.294 147.338 63.5486 151.573C63.662 153.46 63.2945 155.564 62.6932 157.971C62.4118 159.097 62.0848 160.269 61.7401 161.504L61.6736 161.743C61.3059 163.061 60.922 164.446 60.5647 165.891C59.1328 171.68 58.1124 178.479 60.1347 186.403ZM143.795 232.789C155.748 231.568 166.433 225.698 174.768 218.663C183.157 211.582 189.071 203.402 191.455 197.801C192.607 195.095 193.22 190.654 193.411 185.396C193.602 180.176 193.374 174.277 192.915 168.74C192.456 163.202 191.769 158.051 191.048 154.328C190.686 152.46 190.322 150.986 189.985 150.01C189.846 149.608 189.724 149.328 189.628 149.152C189.415 149.137 189.214 149.089 189.036 149.032C188.715 148.931 188.381 148.771 188.045 148.577C187.371 148.189 186.591 147.607 185.743 146.87C184.041 145.391 181.971 143.207 179.793 140.466C175.444 134.993 170.602 127.22 167.363 118.222C165.506 114.518 163.269 113.228 161.007 113.148C158.612 113.063 155.89 114.314 153.118 116.361C147.604 120.434 142.528 127.175 140.588 129.95C139.014 132.202 137.709 134.37 136.461 136.506C136.204 136.946 135.949 137.385 135.694 137.825C134.716 139.508 133.743 141.184 132.685 142.847C129.996 147.07 126.731 151.249 121.22 155.663C113.206 162.081 108.783 167.175 106.103 171.396C103.73 175.135 102.701 178.216 101.749 181.067C101.627 181.432 101.506 181.794 101.384 182.153L101.355 182.236L101.313 182.313C100.434 183.912 100.792 185.615 102.462 189.496C102.79 190.259 103.162 191.093 103.57 192.01C105.184 195.63 107.375 200.544 109.742 207.495C112.086 214.379 118.084 219.997 124.874 224.285C131.557 228.506 138.867 231.348 143.795 232.789Z" fill="black"/>
<path d="M99.0001 208C95.8001 200.8 98.1667 189 99.5 184C102.5 193 109.1 213.2 117.5 220C125.9 226.8 137 232.5 141.5 234.5H125.5C121.167 234 111.4 232.3 107 229.5C101.5 226 103 217 99.0001 208Z" fill="#160E1B" fill-opacity="0.2"/>
<path d="M152 262.5C140.4 264.9 118.5 258.5 109 255C122.5 267.5 137.5 270 145.5 270.5C153.5 271 181 268 193.5 255C206 242 209 208 207 220C205.4 229.6 195.333 244.667 190.5 251C182.5 253.833 163.6 260.1 152 262.5Z" fill="#160E1B" fill-opacity="0.2"/>
</g>
</svg>
