<svg width="378" height="505" viewBox="0 0 378 505" fill="none" xmlns="http://www.w3.org/2000/svg">
<mask id="mask0" mask-type="alpha" maskUnits="userSpaceOnUse" x="0" y="0" width="378" height="505">
<rect width="378" height="505" fill="#C4C4C4"/>
</mask>
<g mask="url(#mask0)">
<path d="M81.4999 418.803C80.9999 414.803 91.4999 362.803 93.9999 356.303C94.5703 354.82 95.3711 349.981 96.2863 343.303C99.5 344.303 112.5 343.303 117.5 332.803C120.5 325.303 118.5 318.303 113 305.803C117.5 309.803 120.5 310.803 123 317.303C124.154 320.303 125 324.303 131 324.303C133.5 322.303 132 319.303 131 315.303C129 309.803 127.5 306.303 124.5 302.303C123 300.303 111.5 295.803 108.5 286.803C145 303.303 178.377 303.352 181.5 303.303C213.5 302.803 233.667 281.303 240 270.803C239.333 285.469 241.5 313.803 244 321.303C246.5 327.303 247.5 365.803 248 370.803C248.4 374.803 254 395.803 255 408.303C255 415.803 255.4 423.103 255 426.303C254.5 430.303 225.311 445.522 217 447.303C210 448.803 203.333 449.969 200.5 450.803C199.833 449.969 199 445.303 198 443.803C196.059 440.891 190 406.303 190 397.803V365.803C190 360.603 184.667 348.636 182 343.303C179.833 344.136 174.8 346.803 172 350.803C169.2 354.803 160.833 383.803 156.5 397.803C155.333 414.303 154.76 445.214 151 447.303C146.5 449.803 126 448.803 118 447.303C110 445.803 91.5 438.303 88 434.803C83.231 430.034 81.8999 422.003 81.4999 418.803Z" fill="#F22152"/>
<path fill-rule="evenodd" clip-rule="evenodd" d="M181.485 302.303C213.027 301.81 232.921 280.602 239.144 270.286L240.999 270.848C240.668 278.123 241.04 288.828 241.81 298.662C242.194 303.576 242.676 308.258 243.217 312.174C243.758 316.087 244.349 319.17 244.938 320.954C245.293 321.823 245.592 323.169 245.856 324.786C246.128 326.452 246.377 328.49 246.605 330.766C247.06 335.319 247.436 340.867 247.749 346.371C248.054 351.745 248.298 357.057 248.497 361.383C248.708 365.959 248.868 369.431 248.995 370.703C249.088 371.631 249.496 373.626 250.099 376.378C250.322 377.397 250.57 378.513 250.835 379.704C251.275 381.685 251.761 383.872 252.253 386.155C253.827 393.463 255.491 401.898 255.997 408.223L256 408.263V408.303C256 410.986 256.051 413.637 256.099 416.095C256.118 417.063 256.136 418.001 256.15 418.899C256.2 422.041 256.203 424.743 255.992 426.427C255.93 426.927 255.669 427.387 255.389 427.77C255.094 428.171 254.702 428.588 254.246 429.013C253.332 429.863 252.072 430.825 250.587 431.845C247.609 433.891 243.62 436.243 239.404 438.515C235.185 440.789 230.719 442.995 226.78 444.746C222.866 446.487 219.399 447.811 217.21 448.281C214.531 448.854 211.899 449.38 209.519 449.856C208.782 450.003 208.068 450.145 207.385 450.283C204.475 450.869 202.148 451.36 200.782 451.762L200.138 451.951L199.719 451.427C199.546 451.211 199.417 450.942 199.321 450.712C199.216 450.465 199.115 450.178 199.018 449.877C198.851 449.363 198.677 448.752 198.502 448.137C198.472 448.034 198.443 447.93 198.414 447.827C198.205 447.097 197.993 446.372 197.774 445.739C197.548 445.088 197.342 444.619 197.168 444.357C196.976 444.069 196.805 443.667 196.651 443.241C196.488 442.795 196.316 442.244 196.137 441.611C195.778 440.344 195.377 438.7 194.955 436.799C194.109 432.994 193.167 428.116 192.287 423.07C190.533 413.017 189 402.156 189 397.803V365.803C189 364.642 188.697 363.025 188.162 361.113C187.632 359.218 186.894 357.1 186.067 354.964C184.58 351.117 182.822 347.253 181.521 344.59C179.176 345.657 175.147 348.051 172.819 351.376C172.537 351.78 172.135 352.581 171.63 353.784C171.135 354.963 170.568 356.459 169.948 358.201C168.709 361.683 167.27 366.106 165.779 370.852C163.996 376.532 162.15 382.637 160.489 388.132C159.383 391.79 158.359 395.178 157.49 397.988C157.233 401.636 157.005 405.982 156.764 410.572C156.735 411.13 156.706 411.692 156.676 412.257C156.399 417.507 156.1 422.994 155.72 428.032C155.34 433.065 154.876 437.68 154.267 441.179C153.963 442.925 153.616 444.43 153.212 445.584C153.01 446.16 152.783 446.679 152.522 447.105C152.268 447.521 151.935 447.927 151.486 448.177C150.792 448.562 149.864 448.845 148.822 449.061C147.764 449.281 146.521 449.445 145.158 449.565C142.43 449.803 139.158 449.865 135.794 449.803C129.076 449.677 121.891 449.05 117.816 448.286C113.712 447.516 107.01 445.234 100.931 442.727C97.8821 441.47 94.9636 440.145 92.5791 438.909C90.2335 437.694 88.2905 436.507 87.293 435.51C84.7523 432.969 83.1642 429.603 82.161 426.524C81.1542 423.435 80.7116 420.557 80.5078 418.927C80.4621 418.561 80.4844 418.028 80.534 417.43C80.586 416.804 80.6768 416.019 80.8 415.102C81.0465 413.267 81.4277 410.869 81.9052 408.094C82.8604 402.543 84.2061 395.455 85.6447 388.293C87.0833 381.131 88.6163 373.888 89.9468 368.027C91.2683 362.204 92.4097 357.652 93.0667 355.944C93.3102 355.311 93.639 353.832 94.0286 351.58C94.4115 349.367 94.8387 346.501 95.2957 343.167L95.456 341.997L96.5836 342.348C97.2168 342.545 98.4905 342.676 100.187 342.563C101.857 342.451 103.854 342.107 105.905 341.417C110.001 340.04 114.231 337.318 116.584 332.402C119.394 325.345 117.589 318.715 112.085 306.205L113.664 305.055C114.653 305.934 115.59 306.677 116.477 307.381C119.477 309.762 121.916 311.697 123.933 316.944C124.054 317.258 124.168 317.569 124.28 317.874C124.743 319.143 125.174 320.321 125.962 321.301C126.814 322.36 128.136 323.22 130.63 323.297C130.949 322.982 131.135 322.657 131.241 322.317C131.379 321.877 131.404 321.346 131.32 320.677C131.236 320.004 131.051 319.252 130.81 318.382C130.74 318.13 130.665 317.866 130.588 317.594C130.409 316.966 130.218 316.291 130.043 315.596C128.062 310.152 126.602 306.772 123.7 302.903C123.613 302.787 123.383 302.574 122.923 302.245C122.486 301.932 121.925 301.571 121.255 301.148C121.106 301.054 120.952 300.957 120.794 300.857C119.546 300.072 118.029 299.117 116.474 297.986C112.989 295.452 109.153 291.922 107.551 287.119L106.828 284.95L108.912 285.892C145.222 302.306 178.433 302.351 181.485 302.303ZM183.438 343.96C184.746 346.653 186.466 350.451 187.933 354.242C188.773 356.414 189.535 358.596 190.088 360.574C190.637 362.535 191 364.363 191 365.803V397.803C191 401.95 192.496 412.632 194.257 422.726C195.134 427.754 196.071 432.6 196.907 436.365C197.326 438.249 197.717 439.851 198.061 441.066C198.233 441.674 198.391 442.174 198.53 442.558C198.677 442.963 198.782 443.172 198.832 443.248C199.158 443.737 199.431 444.414 199.664 445.085C199.903 445.775 200.129 446.55 200.337 447.278C200.367 447.385 200.397 447.491 200.427 447.595C200.603 448.214 200.766 448.784 200.92 449.26C200.963 449.391 201.003 449.51 201.042 449.618C202.518 449.238 204.595 448.805 206.99 448.322C207.68 448.184 208.397 448.04 209.138 447.892C211.516 447.417 214.128 446.896 216.791 446.325C218.757 445.904 222.056 444.658 225.967 442.919C229.855 441.191 234.275 439.008 238.455 436.755C242.638 434.5 246.559 432.186 249.454 430.197C250.905 429.2 252.073 428.303 252.883 427.548C253.289 427.171 253.584 426.849 253.776 426.587C253.982 426.306 254.008 426.178 254.008 426.179C254.197 424.663 254.201 422.114 254.15 418.931C254.136 418.047 254.118 417.117 254.1 416.154C254.052 413.702 254.001 411.033 254 408.343C253.502 402.171 251.87 393.877 250.298 386.576C249.806 384.296 249.324 382.126 248.885 380.151C248.62 378.959 248.371 377.837 248.145 376.806C247.554 374.105 247.112 371.974 247.005 370.902C246.874 369.592 246.709 366.012 246.493 361.341C246.294 357.012 246.051 351.747 245.752 346.484C245.439 340.989 245.065 335.474 244.614 330.965C244.389 328.709 244.145 326.716 243.882 325.109C243.615 323.475 243.34 322.32 243.077 321.687L243.063 321.654L243.051 321.619C242.395 319.648 241.781 316.39 241.236 312.447C240.688 308.483 240.202 303.759 239.816 298.818C239.159 290.42 238.787 281.354 238.897 274.284C230.829 285.575 211.198 303.839 181.516 304.303C178.39 304.351 146.201 304.302 110.441 288.757C112.134 291.87 114.9 294.368 117.651 296.369C119.147 297.457 120.607 298.376 121.858 299.164C122.017 299.264 122.172 299.362 122.323 299.457C122.989 299.878 123.596 300.267 124.087 300.618C124.555 300.953 125.012 301.319 125.3 301.703C128.39 305.822 129.93 309.434 131.94 314.961L131.958 315.01L131.97 315.06C132.141 315.741 132.323 316.382 132.502 317.012C132.581 317.292 132.66 317.57 132.737 317.848C132.981 318.729 133.201 319.601 133.305 320.429C133.409 321.26 133.403 322.104 133.15 322.914C132.891 323.742 132.394 324.468 131.625 325.084L131.351 325.303H131C127.736 325.303 125.722 324.194 124.404 322.554C123.387 321.29 122.819 319.723 122.354 318.439C122.255 318.165 122.16 317.904 122.067 317.662C120.291 313.045 118.353 311.443 115.553 309.215C119.81 319.447 121.264 326.086 118.429 333.174L118.417 333.204L118.403 333.233C115.753 338.798 110.991 341.818 106.542 343.313C104.316 344.061 102.148 344.436 100.321 344.558C99.1136 344.639 98.0166 344.613 97.1312 344.495C96.7273 347.393 96.3465 349.915 95.9993 351.921C95.6171 354.13 95.2603 355.812 94.9334 356.662C94.3404 358.204 93.2319 362.589 91.8971 368.469C90.5713 374.311 89.0418 381.537 87.6055 388.687C86.1691 395.838 84.8272 402.906 83.8762 408.433C83.4005 411.198 83.024 413.569 82.7822 415.368C82.6612 416.269 82.5752 417.017 82.5272 417.596C82.4767 418.203 82.4756 418.544 82.4924 418.679C82.6886 420.249 83.1115 422.986 84.0625 425.905C85.0171 428.834 86.479 431.867 88.7072 434.096C89.4598 434.848 91.1418 435.912 93.4993 437.134C95.8179 438.335 98.6807 439.636 101.694 440.878C107.74 443.371 114.288 445.589 118.184 446.32C122.11 447.056 129.174 447.678 135.831 447.803C139.155 447.865 142.351 447.802 144.983 447.572C146.3 447.457 147.459 447.301 148.415 447.103C149.386 446.901 150.083 446.668 150.514 446.429C150.535 446.417 150.647 446.337 150.815 446.062C150.977 445.799 151.149 445.423 151.324 444.922C151.676 443.921 152 442.539 152.296 440.836C152.889 437.436 153.346 432.901 153.725 427.882C154.104 422.869 154.402 417.403 154.679 412.152C154.708 411.587 154.738 411.025 154.767 410.466C155.01 405.832 155.242 401.423 155.503 397.732L155.511 397.617L155.545 397.507C156.412 394.707 157.445 391.288 158.565 387.585C160.231 382.073 162.088 375.93 163.871 370.253C165.364 365.5 166.812 361.048 168.064 357.53C168.69 355.772 169.271 354.237 169.786 353.009C170.292 351.805 170.763 350.826 171.181 350.229C174.144 345.996 179.389 343.236 181.641 342.369L181.698 342.347L181.758 342.333C183.084 342.001 186.196 341.148 188.129 340.374L188.872 342.231C187.283 342.867 185.013 343.533 183.438 343.96Z" fill="black"/>
<path d="M192.5 316.803C194.1 312.403 193.167 305.636 192.5 302.803C191 302.803 181 303.803 181 303.803C181 303.803 181.833 313.469 181.5 317.803L192.5 316.803Z" fill="#E95F80"/>
<path fill-rule="evenodd" clip-rule="evenodd" d="M181 303.803L180.004 303.889L180.013 303.996C180.019 304.067 180.028 304.172 180.039 304.307C180.061 304.578 180.092 304.971 180.128 305.456C180.201 306.425 180.294 307.763 180.377 309.234C180.544 312.199 180.664 315.635 180.503 317.726L180.412 318.906L193.223 317.741L193.44 317.144C194.307 314.761 194.468 311.814 194.349 309.17C194.23 306.509 193.82 304.047 193.474 302.574L193.292 301.803H192.5C191.69 301.803 188.749 302.06 186.095 302.307C184.749 302.432 183.451 302.557 182.489 302.651C182.008 302.698 181.611 302.737 181.334 302.765L180.901 302.808C180.901 302.808 180.901 302.808 181 303.803ZM182.076 304.701C182.09 304.882 182.106 305.085 182.122 305.306C182.196 306.284 182.29 307.635 182.374 309.121C182.513 311.598 182.627 314.506 182.558 316.702L191.756 315.866C192.324 313.941 192.455 311.565 192.351 309.26C192.258 307.177 191.976 305.223 191.701 303.839C190.506 303.916 188.367 304.104 186.28 304.298C184.939 304.423 183.643 304.548 182.683 304.642C182.462 304.663 182.258 304.683 182.076 304.701ZM181 303.803L180.901 302.808L179.919 302.906L180.004 303.889L181 303.803Z" fill="black"/>
<path d="M240 286.803C241 294.303 197 316.803 192.5 316.803C193.5 313.303 193.7 305.903 192.5 302.303C204 300.803 227 290.803 240 271.303V286.803Z" fill="#991635"/>
<path fill-rule="evenodd" clip-rule="evenodd" d="M241 268V286.744C241.075 287.442 240.893 288.141 240.587 288.798C240.27 289.481 239.789 290.181 239.197 290.887C238.016 292.298 236.299 293.843 234.248 295.443C230.139 298.649 224.546 302.192 218.81 305.483C213.069 308.777 207.154 311.837 202.386 314.075C200.003 315.194 197.896 316.113 196.234 316.754C195.404 317.075 194.673 317.331 194.067 317.508C193.489 317.677 192.935 317.803 192.5 317.803C192.186 317.803 191.891 317.655 191.702 317.405C191.513 317.154 191.452 316.83 191.539 316.528C192.004 314.9 192.3 312.275 192.325 309.581C192.35 306.877 192.098 304.26 191.551 302.619L191.168 301.468L192.371 301.311C197.961 300.582 206.46 297.763 215.185 292.688C223.9 287.62 232.773 280.341 239.168 270.748L241 268ZM193.762 303.126C194.182 304.978 194.346 307.326 194.325 309.599C194.306 311.678 194.132 313.78 193.822 315.492C194.297 315.341 194.864 315.139 195.514 314.888C197.116 314.27 199.177 313.373 201.536 312.265C206.252 310.05 212.119 307.016 217.815 303.748C223.517 300.476 229.017 296.988 233.018 293.866C235.022 292.302 236.613 290.858 237.664 289.603C238.189 288.976 238.555 288.424 238.774 287.954C238.995 287.479 239.037 287.15 239.009 286.935L239 286.869V274.459C232.595 283.083 224.302 289.7 216.19 294.417C207.843 299.272 199.626 302.151 193.762 303.126Z" fill="black"/>
<path d="M129 309.803C138.2 316.603 167.833 317.969 181.5 317.803V303.803C158.3 305.003 123.5 293.303 109 287.303C111 293.803 123 300.303 125 302.303C126.6 303.903 128.333 307.969 129 309.803Z" fill="#991635"/>
<path fill-rule="evenodd" clip-rule="evenodd" d="M107.42 285.567L109.383 286.379C116.594 289.363 128.876 293.773 142.242 297.286C155.626 300.803 170.006 303.396 181.449 302.804L182.5 302.75V318.791L181.512 318.803C174.647 318.886 163.779 318.585 153.462 317.409C148.304 316.821 143.262 316.011 138.918 314.915C134.599 313.824 130.867 312.426 128.406 310.607L128.163 310.428L128.06 310.144C127.738 309.258 127.152 307.817 126.454 306.409C125.741 304.97 124.968 303.684 124.293 303.01C123.875 302.592 122.854 301.877 121.37 300.852C121.321 300.819 121.273 300.785 121.224 300.752C119.816 299.78 118.105 298.599 116.391 297.283C114.619 295.923 112.82 294.4 111.328 292.786C109.846 291.183 108.608 289.428 108.044 287.597L107.42 285.567ZM111.028 289.202C111.508 289.936 112.106 290.681 112.797 291.429C114.18 292.925 115.881 294.37 117.609 295.697C119.282 296.981 120.957 298.137 122.37 299.113C122.415 299.144 122.461 299.175 122.506 299.206L122.524 299.219C123.907 300.174 125.128 301.016 125.707 301.596C126.633 302.521 127.526 304.069 128.246 305.521C128.91 306.86 129.475 308.221 129.832 309.169C131.983 310.675 135.31 311.941 139.407 312.975C143.634 314.042 148.58 314.839 153.688 315.422C163.423 316.532 173.671 316.856 180.5 316.812V304.847C168.93 305.251 154.776 302.648 141.733 299.22C129.661 296.047 118.467 292.148 111.028 289.202Z" fill="black"/>
<path d="M224 317.803C222 314.203 221.333 306.469 221.5 302.803C224.5 301.636 232.5 296.303 240 289.803C240 295.403 242.667 314.136 244 322.803C236 333.303 226.5 322.303 224 317.803Z" fill="#E95F80"/>
<path fill-rule="evenodd" clip-rule="evenodd" d="M241 287.613V289.803C241 292.525 241.656 298.538 242.492 305.025C243.324 311.482 244.323 318.323 244.988 322.651L245.053 323.071L244.796 323.409C242.684 326.18 240.389 327.637 238.031 328.068C235.686 328.496 233.436 327.878 231.461 326.807C227.549 324.685 224.431 320.637 223.126 318.288C222.031 316.318 221.346 313.329 220.947 310.466C220.544 307.574 220.415 304.662 220.501 302.757L220.531 302.107L221.138 301.871C222.517 301.334 225.182 299.772 228.494 297.48C231.778 295.208 235.624 292.272 239.345 289.047L241 287.613ZM222.48 303.471C222.449 305.229 222.582 307.708 222.928 310.19C223.321 313.01 223.969 315.688 224.874 317.317C226.07 319.469 228.951 323.17 232.414 325.049C234.126 325.977 235.908 326.422 237.672 326.1C239.344 325.795 241.144 324.775 242.946 322.527C242.28 318.174 241.316 311.548 240.508 305.281C239.844 300.126 239.278 295.158 239.077 291.903C235.804 294.647 232.509 297.134 229.632 299.125C226.706 301.149 224.153 302.702 222.48 303.471Z" fill="black"/>
<path d="M118.5 321.803C120.1 319.803 120 314.803 120 312.303L114.5 307.803L118.5 321.803Z" fill="#E95F80"/>
<path fill-rule="evenodd" clip-rule="evenodd" d="M112.661 305.006L121 311.829V312.303C121 312.434 121.001 312.572 121.001 312.718C121.003 313.943 121.007 315.664 120.846 317.336C120.755 318.275 120.61 319.226 120.374 320.09C120.141 320.943 119.801 321.777 119.281 322.427L118.071 323.94L112.661 305.006ZM116.339 310.6L118.646 318.673C118.735 318.19 118.804 317.675 118.855 317.144C119.004 315.599 119.003 314.003 119.001 312.777L116.339 310.6Z" fill="black"/>
<path d="M94 429.303C90.5734 427.018 83.8333 420.136 81.5 416.803C80.7 422.003 85.1667 430.636 87 433.803C91 437.303 101.357 442.717 111 445.803C123.5 449.803 150 449.303 151.5 447.303C152.7 445.703 153.333 441.636 153.5 439.803C136 444.303 125.5 441.803 117.5 439.803C110.224 437.984 98.5 432.303 94 429.303Z" fill="#991635"/>
<path fill-rule="evenodd" clip-rule="evenodd" d="M80.8906 414.188L82.3193 416.229C83.4362 417.825 85.6563 420.33 88.0498 422.742C90.4479 425.157 92.9304 427.388 94.5548 428.471C96.7417 429.929 100.744 432.074 105.127 434.087C109.51 436.1 114.194 437.945 117.743 438.833C125.666 440.813 135.98 443.276 153.251 438.834L154.624 438.481L154.496 439.893C154.409 440.847 154.203 442.366 153.863 443.862C153.533 445.309 153.04 446.916 152.3 447.903C152.032 448.26 151.618 448.463 151.309 448.587C150.958 448.728 150.531 448.848 150.058 448.953C149.107 449.163 147.853 449.336 146.388 449.47C143.453 449.74 139.572 449.866 135.36 449.803C126.964 449.677 117.092 448.802 110.695 446.755C105.817 445.194 100.767 443.047 96.4321 440.85C92.1145 438.662 88.4365 436.388 86.3416 434.555L86.2174 434.447L86.1347 434.304C85.2021 432.693 83.601 429.695 82.3306 426.428C81.0794 423.21 80.0682 419.534 80.5117 416.651L80.8906 414.188ZM82.5178 419.709C82.764 421.552 83.3917 423.638 84.1946 425.703C85.379 428.749 86.8715 431.57 87.7822 433.157C89.7129 434.81 93.1553 436.947 97.3363 439.066C101.59 441.222 106.541 443.326 111.305 444.85C117.408 446.803 127.036 447.678 135.39 447.803C139.553 447.865 143.36 447.74 146.205 447.479C147.632 447.348 148.792 447.184 149.626 447C150.045 446.908 150.354 446.816 150.562 446.732C150.659 446.693 150.714 446.663 150.74 446.648C151.184 446.019 151.593 444.821 151.913 443.418C152.092 442.629 152.232 441.829 152.334 441.124C135.448 445.194 125.117 442.738 117.258 440.773C113.53 439.841 108.715 437.936 104.292 435.904C99.8683 433.872 95.7585 431.677 93.4454 430.135C91.6432 428.933 89.0424 426.58 86.6304 424.151C85.1442 422.653 83.6957 421.093 82.5178 419.709Z" fill="black"/>
<path d="M216.5 438.803C210.591 440.871 202.167 442.969 198.5 443.303L200.5 450.803C200.667 450.636 204.756 450.468 218.5 446.303C235 441.303 248.667 431.969 255 426.803V417.803C244 431.803 226.5 435.303 216.5 438.803Z" fill="#991635"/>
<path fill-rule="evenodd" clip-rule="evenodd" d="M256 414.911V427.278L255.632 427.578C249.235 432.797 235.454 442.21 218.79 447.26C211.896 449.349 207.409 450.44 204.615 451.031C203.218 451.326 202.247 451.495 201.616 451.601C201.518 451.618 201.431 451.632 201.353 451.645C201.214 451.668 201.104 451.686 201.015 451.702L199.981 452.736L197.228 442.414L198.41 442.307C201.958 441.984 210.294 439.916 216.17 437.859C217.792 437.291 219.59 436.727 221.509 436.126C231.64 432.948 245.16 428.708 254.214 417.185L256 414.911ZM221.966 438.085C220.094 438.67 218.363 439.21 216.83 439.747C211.44 441.633 203.936 443.559 199.763 444.158L201.225 449.639C201.244 449.636 201.264 449.632 201.285 449.629C201.897 449.526 202.839 449.362 204.202 449.074C206.931 448.497 211.361 447.421 218.21 445.346C234.234 440.49 247.579 431.495 254 426.326V420.545C244.587 431.02 231.459 435.12 221.966 438.085Z" fill="black"/>
<path d="M115 308.303L116.5 314.303C118.167 315.525 117 315.303 118.5 323.303C120.775 335.435 115.5 337.803 111 341.303C107.4 344.103 100.167 344.469 97 344.303L95 354.303L90 376.303L81 417.803C81 417.803 89 437.803 89.5 436.303C91.4558 430.435 90 396.303 90 396.303C91.5 388.303 96 360.303 97 356.803C97.8687 353.762 98 347.803 101.5 346.803C106.5 344.803 110.5 344.803 115 340.803C119.562 336.748 123.5 332.303 125 329.803C126.2 327.803 129.5 325.969 130.5 325.303L127.5 324.803L122 315.803L115 308.303Z" fill="#160E1B" fill-opacity="0.4"/>
<path d="M191 339.303L182.5 343.803C186.5 346.203 189.833 360.969 191 368.302V408.303L196 394.803C196.5 389.803 193.9 356.302 193.5 352.302C193.1 348.302 192.667 341.303 191 339.303Z" fill="#160E1B" fill-opacity="0.4"/>
<path d="M71.4999 459.803C69 452.803 79.4999 439.303 85.4999 433.303C86.1665 434.636 85.1998 433.003 87.9998 435.803C91.4998 439.303 112 445.303 114 446.803C116 448.303 142 449.803 146 448.803C149.2 448.003 155 447.47 157.5 447.303C161 449.136 168.9 454.003 172.5 458.803C177 464.803 171.057 478.392 168 480.303C164 482.803 160 484.303 154.5 486.303C147.625 488.803 140 487.303 124 482.803C117.058 480.85 97.5 477.303 84.5 472.303C78 468.803 74.0276 466.88 71.4999 459.803Z" fill="#3CD367"/>
<path fill-rule="evenodd" clip-rule="evenodd" d="M85.7739 431.615L86.3943 432.856C86.4698 433.007 86.5257 433.122 86.5666 433.207C86.8986 433.415 87.4635 433.852 88.7069 435.096C89.0444 435.433 89.6495 435.856 90.5272 436.346C91.389 436.827 92.4536 437.34 93.661 437.872C96.0754 438.937 99.0035 440.053 101.906 441.114C103.359 441.645 104.858 442.181 106.27 442.686C107.605 443.163 108.862 443.613 109.93 444.005C111.062 444.42 112.056 444.797 112.835 445.119C113.57 445.424 114.231 445.726 114.6 446.003C114.594 445.998 114.595 445.999 114.604 446.003C114.632 446.016 114.728 446.063 114.94 446.128C115.196 446.207 115.544 446.292 115.982 446.38C116.855 446.555 118.022 446.729 119.401 446.896C122.156 447.229 125.697 447.524 129.31 447.742C132.922 447.96 136.592 448.1 139.601 448.123C141.107 448.135 142.439 448.117 143.511 448.067C144.608 448.015 145.363 447.931 145.757 447.833C149.054 447.008 154.937 446.471 157.433 446.305L157.714 446.286L157.964 446.417C159.752 447.354 162.641 449.052 165.544 451.127C168.432 453.191 171.407 455.679 173.3 458.203C174.597 459.932 175.095 462.142 175.125 464.412C175.155 466.689 174.714 469.113 174.042 471.371C173.369 473.633 172.452 475.767 171.498 477.47C171.021 478.321 170.527 479.078 170.041 479.695C169.565 480.3 169.054 480.823 168.53 481.151C164.428 483.715 160.332 485.246 154.842 487.243C147.607 489.873 139.647 488.242 123.729 483.765C121.663 483.184 118.482 482.464 114.664 481.599C112.11 481.021 109.271 480.378 106.29 479.669C98.9029 477.911 90.7078 475.762 84.1411 473.236L84.0818 473.213L84.0259 473.183C83.7855 473.054 83.5477 472.926 83.3127 472.8C80.4094 471.241 77.9177 469.903 75.8628 468.156C73.5957 466.23 71.8756 463.828 70.5582 460.139C69.828 458.094 70.0794 455.691 70.8339 453.257C71.5941 450.804 72.9046 448.195 74.4597 445.655C77.5707 440.576 81.7482 435.64 84.7928 432.596L85.7739 431.615ZM72.7442 453.849C72.0456 456.103 71.922 458.011 72.4417 459.466C73.652 462.855 75.1819 464.953 77.1579 466.632C79.0435 468.235 81.3489 469.474 84.3196 471.07C84.5162 471.176 84.7156 471.283 84.918 471.392C91.3417 473.857 99.3987 475.973 106.753 477.723C109.66 478.414 112.467 479.05 115.014 479.627C118.889 480.505 122.163 481.247 124.271 481.84C140.353 486.363 147.642 487.732 154.158 485.363C159.668 483.359 163.572 481.891 167.47 479.455C167.71 479.304 168.054 478.986 168.47 478.457C168.876 477.942 169.313 477.277 169.753 476.492C170.633 474.922 171.493 472.926 172.125 470.801C172.759 468.673 173.151 466.456 173.125 464.438C173.099 462.412 172.653 460.673 171.7 459.403C169.993 457.127 167.218 454.782 164.381 452.754C161.691 450.831 159.012 449.241 157.284 448.32C154.655 448.506 149.234 449.025 146.242 449.773C145.637 449.924 144.704 450.013 143.605 450.064C142.483 450.117 141.112 450.135 139.586 450.123C136.533 450.099 132.827 449.958 129.19 449.738C125.553 449.519 121.969 449.221 119.161 448.882C117.759 448.712 116.535 448.531 115.588 448.341C115.116 448.246 114.696 448.146 114.349 448.039C114.034 447.941 113.672 447.807 113.4 447.603C113.268 447.504 112.851 447.291 112.069 446.967C111.33 446.661 110.367 446.295 109.241 445.882C108.116 445.47 106.897 445.034 105.599 444.57C104.222 444.078 102.756 443.554 101.219 442.992C98.3086 441.928 95.3304 440.794 92.8542 439.702C91.6163 439.156 90.4895 438.615 89.5525 438.092C88.6313 437.578 87.8302 437.047 87.2927 436.51C85.9138 435.131 85.5306 434.914 85.4588 434.874L85.4577 434.873L85.4328 434.859C85.4245 434.855 85.4101 434.847 85.3959 434.839C82.5376 437.82 78.9119 442.216 76.1652 446.7C74.6579 449.161 73.4371 451.614 72.7442 453.849Z" fill="black"/>
<path d="M128.5 435.803C127 438.803 127 445.803 132.5 453.303C134.9 451.303 150.5 447.803 157 447.303C157.5 443.636 156.7 435.703 155.5 431.303C154 425.803 130 432.803 128.5 435.803Z" fill="#196B31"/>
<path fill-rule="evenodd" clip-rule="evenodd" d="M129.454 436.173C129.409 436.225 129.394 436.251 129.394 436.251C129.394 436.251 129.394 436.25 129.395 436.25C128.157 438.725 127.965 444.958 132.769 451.954C133.021 451.823 133.295 451.696 133.58 451.573C134.287 451.268 135.151 450.955 136.118 450.641C138.054 450.012 140.46 449.365 142.982 448.767C147.614 447.67 152.714 446.724 156.09 446.381C156.22 444.659 156.138 442.228 155.892 439.673C155.608 436.715 155.115 433.692 154.535 431.566C154.457 431.281 154.222 430.978 153.591 430.719C152.948 430.456 152.019 430.297 150.831 430.263C148.467 430.196 145.373 430.63 142.22 431.341C139.078 432.049 135.942 433.019 133.512 433.989C132.294 434.475 131.277 434.953 130.533 435.387C130.16 435.604 129.875 435.799 129.673 435.967C129.573 436.05 129.502 436.119 129.454 436.173ZM154.35 428.869C155.325 429.268 156.167 429.95 156.465 431.04C157.085 433.314 157.592 436.458 157.883 439.482C158.172 442.492 158.257 445.486 157.991 447.438L157.882 448.238L157.077 448.3C153.903 448.544 148.437 449.53 143.443 450.713C140.952 451.304 138.602 451.937 136.735 452.543C135.801 452.846 135.001 453.138 134.371 453.41C133.718 453.691 133.324 453.918 133.14 454.071L132.323 454.752L131.694 453.894C126.048 446.195 125.888 438.792 127.606 435.356C127.79 434.987 128.094 434.679 128.395 434.428C128.71 434.167 129.096 433.909 129.526 433.659C130.387 433.157 131.503 432.638 132.77 432.132C135.309 431.118 138.547 430.119 141.78 429.39C145.002 428.663 148.283 428.19 150.888 428.264C152.184 428.301 153.388 428.474 154.35 428.869Z" fill="black"/>
<path d="M76.1385 445.021C76.2727 444.714 76.4193 444.472 76.5549 444.303C76.426 444.522 76.2864 444.762 76.1385 445.021C75.6134 446.223 75.2804 448.435 76.5549 451.303C78.5549 455.803 82.0549 459.303 82.0549 462.303C82.0549 465.303 85.5 466.803 88 470.803C90 474.003 89 473.803 87.5 473.303C84 471.303 78.955 470.103 76.5549 467.303C73.5549 463.803 70.5549 459.803 71.0549 456.303C71.424 453.72 74.3751 448.1 76.1385 445.021Z" fill="#196B31"/>
<path fill-rule="evenodd" clip-rule="evenodd" d="M75.2452 444.569C75.4023 444.219 75.5832 443.917 75.7742 443.678L77.417 444.81C77.2984 445.011 77.1705 445.232 77.035 445.468C76.6352 446.421 76.3235 448.32 77.4688 450.897C78.2388 452.629 79.2333 454.196 80.1926 455.708C80.4336 456.087 80.6723 456.464 80.9047 456.838C82.006 458.612 83.055 460.474 83.055 462.303C83.055 463.377 83.6474 464.246 84.819 465.493C85.0215 465.709 85.2392 465.934 85.4679 466.17C86.5057 467.241 87.7684 468.545 88.8481 470.273C89.3577 471.088 89.7104 471.74 89.9091 472.252C90.0081 472.508 90.0873 472.775 90.112 473.039C90.1363 473.299 90.116 473.656 89.9002 473.987C89.6698 474.34 89.328 474.496 89.0485 474.554C88.7894 474.608 88.5394 474.59 88.3509 474.563C87.9747 474.509 87.5483 474.373 87.1839 474.251L87.0899 474.22L87.004 474.171C85.8365 473.504 84.5173 472.942 83.1277 472.35C82.4986 472.082 81.855 471.808 81.2045 471.515C79.2006 470.612 77.1534 469.538 75.7958 467.954C74.2888 466.195 72.7353 464.26 71.6225 462.296C70.518 460.347 69.7689 458.235 70.0651 456.161C70.2741 454.698 71.1729 452.517 72.1708 450.418C73.1793 448.297 74.3578 446.12 75.2452 444.569ZM74.888 449.432C74.5771 450.041 74.2694 450.662 73.9771 451.277C72.9662 453.403 72.205 455.324 72.045 456.444C71.8412 457.871 72.342 459.509 73.3625 461.31C74.3747 463.096 75.8212 464.91 77.3143 466.652C78.3566 467.868 80.032 468.793 82.0256 469.691C82.5887 469.945 83.1819 470.197 83.7846 470.454C85.1186 471.023 86.4996 471.612 87.7062 472.272C87.5643 472.012 87.3822 471.701 87.1521 471.333C86.1952 469.802 85.1073 468.676 84.0773 467.61C83.8345 467.359 83.5949 467.111 83.3611 466.862C82.1851 465.61 81.055 464.229 81.055 462.303C81.055 461.132 80.354 459.743 79.2054 457.893C78.9941 457.552 78.77 457.2 78.5385 456.835C77.5728 455.315 76.4774 453.59 75.6412 451.709C75.2849 450.907 75.0417 450.146 74.888 449.432Z" fill="black"/>
<path d="M133.5 477.803C126.7 478.603 95.5 464.136 80.5 457.803C80.5 458.47 80.3002 462.403 81.5002 464.803C83.0002 467.803 85.0002 469.303 84.0002 471.803C89.0002 474.303 116.5 481.303 132.5 485.303C148.5 489.303 151 486.803 154 486.303C157 485.803 165.5 481.803 167.5 480.803C169.1 480.003 172.167 471.803 173.5 467.803C168 479.303 142 476.803 133.5 477.803Z" fill="#8DDAA3"/>
<path fill-rule="evenodd" clip-rule="evenodd" d="M79.5 456.295L80.889 456.882C83.7347 458.083 87.1416 459.568 90.8465 461.182C96.9645 463.848 103.895 466.868 110.454 469.552C115.709 471.704 120.689 473.624 124.77 474.955C126.811 475.621 128.61 476.134 130.097 476.456C131.61 476.783 132.706 476.889 133.383 476.81C135.233 476.592 137.875 476.536 140.873 476.472C141.418 476.461 141.974 476.449 142.54 476.436C146.255 476.35 150.435 476.21 154.512 475.747C158.597 475.283 162.521 474.5 165.739 473.154C168.958 471.808 171.368 469.942 172.598 467.371L174.449 468.119C173.777 470.136 172.667 473.213 171.52 475.896C170.947 477.235 170.355 478.498 169.796 479.489C169.517 479.983 169.233 480.43 168.953 480.792C168.691 481.129 168.355 481.493 167.947 481.697C166.93 482.206 164.289 483.464 161.522 484.658C160.138 485.256 158.713 485.842 157.44 486.311C156.185 486.774 155.015 487.148 154.165 487.289C153.709 487.365 153.297 487.485 152.78 487.634C152.515 487.711 152.223 487.795 151.883 487.886C150.929 488.141 149.768 488.39 148.188 488.488C145.044 488.685 140.307 488.285 132.258 486.273C124.257 484.273 113.374 481.521 103.865 478.956C99.1107 477.674 94.6931 476.436 91.1476 475.361C87.6342 474.297 84.8928 473.367 83.5529 472.697L82.73 472.286L83.0717 471.431C83.4243 470.55 83.2858 469.869 82.8039 468.958C82.584 468.543 82.3116 468.117 81.9895 467.612C81.9346 467.526 81.8783 467.438 81.8206 467.348C81.4339 466.74 81.0047 466.048 80.6057 465.25C79.9156 463.87 79.6552 462.126 79.5528 460.726C79.4669 459.552 79.4872 458.511 79.4966 458.027C79.4986 457.927 79.5 457.851 79.5 457.803V456.295ZM81.4914 459.31C81.4979 459.691 81.5138 460.121 81.5474 460.58C81.645 461.913 81.8848 463.336 82.3946 464.356C82.7456 465.058 83.1289 465.678 83.5079 466.274C83.5608 466.357 83.6141 466.44 83.6675 466.524C83.9867 467.023 84.31 467.529 84.5714 468.022C85.0872 468.997 85.4219 470.038 85.2001 471.247C86.5555 471.81 88.8114 472.564 91.7277 473.447C95.2447 474.513 99.6396 475.745 104.386 477.025C113.876 479.585 124.744 482.333 132.743 484.333C140.693 486.32 145.207 486.671 148.063 486.492C149.482 486.404 150.509 486.183 151.367 485.954C151.606 485.89 151.848 485.82 152.091 485.75C152.674 485.582 153.264 485.412 153.836 485.316C154.485 485.208 155.503 484.894 156.748 484.435C157.975 483.983 159.363 483.412 160.729 482.822C163.462 481.642 166.07 480.4 167.053 479.908C167.052 479.909 167.053 479.908 167.055 479.907C167.071 479.895 167.179 479.814 167.373 479.565C167.571 479.31 167.8 478.954 168.055 478.505C168.562 477.607 169.12 476.421 169.681 475.11C170.019 474.319 170.354 473.492 170.676 472.668C169.442 473.596 168.031 474.363 166.511 474.999C163.042 476.45 158.904 477.261 154.738 477.734C150.565 478.208 146.308 478.349 142.586 478.435C142.006 478.449 141.441 478.461 140.892 478.473C137.883 478.537 135.363 478.591 133.617 478.796C132.594 478.916 131.228 478.746 129.674 478.41C128.095 478.069 126.224 477.533 124.149 476.857C119.999 475.503 114.966 473.56 109.696 471.403C103.129 468.715 96.137 465.669 89.996 462.993C86.8879 461.639 83.9979 460.38 81.4914 459.31Z" fill="black"/>
<path d="M147.5 465.803C140.3 467.403 138.167 474.136 138 477.303C143.667 477.636 153.718 477.149 160 475.803C167 474.303 170.833 471.803 173 469.803C173.667 468.47 174.6 465.003 173 461.803C171 457.803 156.5 463.803 147.5 465.803Z" fill="#F7F3F8"/>
<path fill-rule="evenodd" clip-rule="evenodd" d="M155.282 464.731C152.631 465.511 150.005 466.271 147.717 466.779C141.826 468.088 139.611 473.183 139.107 476.355C144.833 476.573 153.984 476.069 159.791 474.825C166.475 473.393 170.129 471.046 172.181 469.196C172.756 467.922 173.455 464.949 172.106 462.25C172 462.039 171.795 461.839 171.365 461.687C170.918 461.528 170.286 461.444 169.455 461.459C167.794 461.488 165.605 461.901 163.118 462.523C160.875 463.084 158.452 463.797 156.035 464.509C155.784 464.583 155.533 464.657 155.282 464.731ZM172.034 459.802C172.815 460.079 173.5 460.567 173.895 461.356C175.685 464.937 174.643 468.752 173.895 470.25L173.813 470.414L173.678 470.538C171.369 472.669 167.37 475.246 160.21 476.781C153.822 478.149 143.678 478.639 137.941 478.301L136.949 478.243L137.001 477.25C137.179 473.879 139.445 466.568 147.283 464.827C149.495 464.335 152.057 463.595 154.718 462.812C154.969 462.738 155.221 462.664 155.474 462.59C157.884 461.88 160.347 461.154 162.633 460.583C165.145 459.955 167.518 459.493 169.42 459.459C170.371 459.443 171.27 459.531 172.034 459.802Z" fill="black"/>
<path d="M158 447.803L135 454.303C136.57 454.303 138.673 456.97 139 457.803L162.5 450.803L158 447.803Z" fill="#554B58"/>
<path fill-rule="evenodd" clip-rule="evenodd" d="M158.171 446.715L164.828 451.153L138.405 459.024L138.069 458.168C138.035 458.081 137.903 457.841 137.65 457.493C137.41 457.164 137.099 456.791 136.755 456.444C136.408 456.093 136.049 455.79 135.713 455.582C135.363 455.364 135.126 455.303 135 455.303L134.728 453.34L158.171 446.715ZM137.694 454.581C137.863 454.729 138.024 454.883 138.177 455.037C138.596 455.46 138.971 455.91 139.266 456.315C139.339 456.415 139.41 456.516 139.477 456.617L160.172 450.453L157.829 448.89L137.694 454.581Z" fill="black"/>
<path d="M165 452.303L140 459.753C141.6 459.753 143.167 462.72 143.5 463.803L156 459.753L169 455.303L165 452.303Z" fill="#554B58"/>
<path fill-rule="evenodd" clip-rule="evenodd" d="M165.197 451.201L171.112 455.637L156.316 460.702L142.843 465.067L142.544 464.097C142.413 463.67 141.991 462.755 141.414 461.957C141.129 461.562 140.836 461.238 140.559 461.021C140.274 460.798 140.09 460.753 140 460.753L139.715 458.795L165.197 451.201ZM142.453 460.065C142.664 460.296 142.859 460.542 143.036 460.786C143.456 461.368 143.815 462.006 144.078 462.564L155.684 458.804L166.888 454.969L164.803 453.405L142.453 460.065Z" fill="black"/>
<path d="M83.5001 427.803L91.0001 438.303C92.6667 439.303 98.7 440.603 99.5 441.803C100.3 443.003 94.3334 444.636 92.5001 444.803C90.8334 444.636 87.1001 444.503 85.5001 445.303C83.5001 446.303 83.5001 447.303 83.5001 453.303C83.5001 458.103 81.8334 457.97 81.0001 457.303C80.5001 456.303 79.2001 454.003 78.0001 452.803C76.8001 451.603 75.5 447.803 76.0001 445.303C76.0001 445.303 79.7248 440.704 81.0001 437.303C82.5 433.303 83.5001 427.803 83.5001 427.803Z" fill="#F7F3F8"/>
<path fill-rule="evenodd" clip-rule="evenodd" d="M82.9395 425.297L91.6825 437.537C92.0209 437.71 92.5525 437.918 93.2461 438.158C93.7624 438.337 94.3206 438.518 94.8998 438.705C95.2241 438.811 95.555 438.918 95.8889 439.028C96.7986 439.329 97.718 439.647 98.4678 439.973C98.8426 440.136 99.1994 440.312 99.502 440.5C99.7851 440.676 100.113 440.919 100.332 441.248C100.481 441.472 100.574 441.74 100.574 442.035C100.573 442.322 100.484 442.568 100.375 442.761C100.172 443.121 99.8467 443.388 99.5654 443.58C98.9812 443.979 98.1549 444.335 97.3242 444.632C95.6531 445.229 93.6174 445.705 92.5908 445.799L92.4958 445.807L92.4008 445.798C91.604 445.718 90.2992 445.646 89.0094 445.69C87.6669 445.736 86.5332 445.904 85.9475 446.197C85.4992 446.421 85.2594 446.6 85.1033 446.782C84.9569 446.953 84.8265 447.194 84.7265 447.645C84.5068 448.633 84.5003 450.237 84.5003 453.303C84.5003 454.553 84.3925 455.536 84.1948 456.298C83.9992 457.051 83.6954 457.666 83.243 458.086C82.759 458.535 82.1788 458.69 81.6289 458.628C81.1176 458.569 80.685 458.331 80.3756 458.084L80.2041 457.946L80.1059 457.75C79.6105 456.759 78.3701 454.587 77.2932 453.51C76.5156 452.732 75.8318 451.289 75.4029 449.821C74.9678 448.331 74.7253 446.579 75.0197 445.107L75.0681 444.865L75.2231 444.674L75.2249 444.671L75.2319 444.663L75.2613 444.626C75.2875 444.593 75.3267 444.544 75.3774 444.48C75.4788 444.351 75.6259 444.162 75.8069 443.925C76.1691 443.45 76.6652 442.781 77.1999 442.009C78.2835 440.444 79.4724 438.529 80.064 436.952C80.7913 435.012 81.4048 432.686 81.8389 430.826C82.055 429.899 82.2249 429.097 82.3405 428.526C82.3983 428.241 82.4426 428.014 82.4722 427.859C82.487 427.782 82.4982 427.722 82.5056 427.682L82.5139 427.638L82.5163 427.624L82.9395 425.297ZM84.0199 430.251C83.9494 430.571 83.8715 430.916 83.7866 431.28C83.3457 433.169 82.7092 435.594 81.9366 437.654C81.2529 439.477 79.9418 441.562 78.8442 443.147C78.2883 443.95 77.7735 444.644 77.3975 445.137C77.2094 445.384 77.0556 445.581 76.9482 445.718C76.9462 445.72 76.9442 445.723 76.9423 445.725C76.7989 446.727 76.9606 448.02 77.3227 449.26C77.7188 450.616 78.2849 451.673 78.7074 452.096C79.9342 453.322 81.1924 455.499 81.7713 456.614C81.8093 456.631 81.8388 456.639 81.856 456.641C81.8563 456.641 81.8557 456.641 81.856 456.641C81.8614 456.637 81.8709 456.631 81.8826 456.62C81.951 456.556 82.1159 456.346 82.2589 455.795C82.3997 455.253 82.5003 454.453 82.5003 453.303L82.5003 453.108C82.5001 450.284 82.5 448.444 82.7741 447.211C82.924 446.536 83.1687 445.966 83.5848 445.48C83.9912 445.006 84.5014 444.684 85.0531 444.408C86.0674 443.901 87.6004 443.737 88.9411 443.691C90.2818 443.645 91.624 443.715 92.4985 443.798C93.3469 443.704 95.1358 443.29 96.6513 442.749C97.2994 442.517 97.8397 442.282 98.2155 442.067C98.0628 441.986 97.8809 441.899 97.6701 441.807C97.0116 441.521 96.1685 441.227 95.2616 440.927C94.9512 440.825 94.6314 440.721 94.3116 440.617C93.718 440.425 93.1246 440.232 92.5919 440.048C91.7888 439.77 91.0041 439.471 90.4858 439.16L90.3074 439.053L84.0199 430.251Z" fill="black"/>
<path d="M91 438.303L84 428.803L82.5 432.803L78.5 442.303L73.5 448.303L71 457.803L73.5 465.303L81.5 471.303L91 473.803C89.3333 472.47 86.4 469.103 88 466.303C89.6 463.503 93.3333 463.47 95 463.803C95.6667 462.136 96.8 457.603 96 452.803C95.2 448.003 98 443.136 99.5 441.303L91 438.303Z" fill="#160E1B" fill-opacity="0.4"/>
<path d="M136 485.803C137.333 485.47 139.7 483.703 140.5 481.303C141.3 478.903 143.5 476.803 145.5 475.303C149.5 472.803 155.607 472.401 160 471.303C164 470.303 165.5 470.303 170 468.303C173.6 466.703 173.68 466.063 173.568 465.871L173.5 465.803C173.5 465.803 173.54 465.823 173.568 465.871L174.5 466.803L171.5 475.303L167 481.803L152.5 486.803C148.333 487.803 139.2 489.003 136 485.803Z" fill="#160E1B" fill-opacity="0.4"/>
<path d="M201.644 478.661C196.263 473.532 200.5 457.803 200.5 449.804C201.695 450.696 206.617 451.079 210.5 450.303C218 448.803 239.202 438.288 241.5 437.303C245 435.803 260.118 438.028 263.241 435.336C265.74 433.183 270.68 430.098 272.839 428.825C276.789 428.889 286.034 429.684 291.408 432.352C298.125 435.688 298.927 450.498 297.056 453.58C294.607 457.611 291.709 460.75 287.695 465.009C282.679 470.333 275.194 472.422 258.879 475.597C251.801 476.975 232.736 482.601 218.876 483.98C211.497 483.777 207.084 483.846 201.644 478.661Z" fill="#3CD367"/>
<path fill-rule="evenodd" clip-rule="evenodd" d="M199.5 447.811L201.098 449.003C201.214 449.09 201.565 449.246 202.232 449.39C202.859 449.526 203.655 449.628 204.551 449.681C206.347 449.787 208.461 449.691 210.304 449.322C213.919 448.599 220.982 445.652 227.54 442.698C230.795 441.232 233.888 439.781 236.314 438.635C236.94 438.339 237.524 438.062 238.056 437.81C239.57 437.092 240.664 436.573 241.106 436.384C241.679 436.138 242.413 435.996 243.195 435.905C243.994 435.812 244.919 435.764 245.912 435.742C247.333 435.709 248.946 435.728 250.586 435.747C251.23 435.754 251.877 435.762 252.519 435.766C254.822 435.783 257.066 435.761 258.918 435.573C259.843 435.48 260.642 435.347 261.286 435.168C261.945 434.986 262.36 434.776 262.588 434.579C265.163 432.36 270.175 429.235 272.33 427.964L272.573 427.821L272.855 427.825C274.873 427.858 278.218 428.076 281.743 428.624C285.25 429.169 289.026 430.053 291.852 431.457C293.789 432.418 295.228 434.168 296.274 436.182C297.325 438.202 298.022 440.566 298.437 442.885C298.853 445.207 298.993 447.526 298.906 449.476C298.863 450.451 298.763 451.349 298.606 452.119C298.452 452.873 298.231 453.571 297.91 454.099C295.399 458.233 292.429 461.443 288.423 465.695C283.145 471.297 275.301 473.42 259.07 476.579C256.963 476.989 253.798 477.776 249.999 478.72C247.458 479.352 244.633 480.054 241.652 480.761C234.263 482.513 225.976 484.278 218.975 484.975L218.912 484.981L218.849 484.98C218.576 484.972 218.306 484.965 218.039 484.958C214.745 484.871 211.918 484.796 209.297 484.16C206.406 483.459 203.789 482.087 200.954 479.384C199.378 477.883 198.581 475.683 198.207 473.266C197.831 470.836 197.862 468.053 198.057 465.24C198.225 462.81 198.52 460.312 198.798 457.96C198.842 457.586 198.886 457.216 198.929 456.85C199.243 454.161 199.5 451.736 199.5 449.804L199.5 447.811ZM200.184 472.96C200.528 475.185 201.219 476.874 202.334 477.937C204.939 480.419 207.249 481.605 209.769 482.217C212.173 482.8 214.79 482.87 218.161 482.96C218.384 482.966 218.61 482.972 218.84 482.979C225.686 482.292 233.834 480.559 241.19 478.815C244.097 478.126 246.89 477.431 249.425 476.802C253.281 475.844 256.539 475.034 258.688 474.616C275.087 471.424 282.213 469.37 286.968 464.323C290.988 460.056 293.815 456.989 296.201 453.06C296.348 452.818 296.512 452.379 296.646 451.72C296.777 451.077 296.869 450.286 296.908 449.388C296.988 447.59 296.859 445.42 296.468 443.237C296.077 441.052 295.431 438.895 294.5 437.104C293.566 435.307 292.385 433.954 290.963 433.248C288.415 431.983 284.882 431.135 281.436 430.6C278.168 430.092 275.061 429.877 273.103 429.831C270.839 431.179 266.23 434.081 263.894 436.094C263.342 436.569 262.601 436.879 261.821 437.095C261.027 437.316 260.105 437.463 259.119 437.563C257.149 437.762 254.809 437.783 252.505 437.766C251.839 437.762 251.177 437.754 250.526 437.747C248.9 437.728 247.342 437.71 245.957 437.741C244.992 437.763 244.137 437.809 243.427 437.891C242.7 437.976 242.197 438.092 241.894 438.222C241.49 438.395 240.458 438.885 238.972 439.589C238.429 439.846 237.825 440.133 237.169 440.443C234.739 441.591 231.632 443.048 228.362 444.521C221.87 447.446 214.581 450.506 210.696 451.283C208.656 451.691 206.368 451.792 204.433 451.677C203.464 451.62 202.563 451.508 201.809 451.345C201.693 451.32 201.577 451.293 201.462 451.264C201.376 453.018 201.157 455.011 200.915 457.082C200.872 457.453 200.828 457.826 200.784 458.201C200.506 460.556 200.217 463 200.052 465.378C199.86 468.138 199.841 470.748 200.184 472.96Z" fill="black"/>
<path d="M241.765 431.593C241.774 434.947 244.921 441.2 253.207 445.426C254.451 442.56 266.811 432.419 272.392 429.05C271.19 425.55 266.908 418.824 263.858 415.433C260.045 411.195 241.756 428.239 241.765 431.593Z" fill="#196B31"/>
<path fill-rule="evenodd" clip-rule="evenodd" d="M242.783 431.495C242.766 431.561 242.765 431.591 242.765 431.591C242.765 431.591 242.765 431.591 242.765 431.591C242.772 434.357 245.403 440.011 252.84 444.1C253.006 443.869 253.193 443.633 253.393 443.395C253.888 442.805 254.518 442.137 255.241 441.421C256.688 439.989 258.546 438.329 260.529 436.661C264.173 433.598 268.303 430.46 271.165 428.635C270.507 427.039 269.339 424.905 267.972 422.734C266.387 420.218 264.588 417.74 263.114 416.102C262.917 415.882 262.57 415.718 261.89 415.77C261.197 415.824 260.296 416.1 259.22 416.604C257.078 417.607 254.509 419.386 252.013 421.439C249.525 423.484 247.16 425.76 245.425 427.72C244.557 428.701 243.863 429.585 243.393 430.307C243.158 430.669 242.991 430.972 242.886 431.212C242.834 431.332 242.802 431.425 242.783 431.495ZM261.736 413.776C262.786 413.695 263.845 413.924 264.601 414.764C266.177 416.517 268.044 419.097 269.664 421.667C271.276 424.226 272.698 426.862 273.338 428.725L273.6 429.489L272.909 429.906C270.184 431.551 265.745 434.89 261.816 438.192C259.857 439.839 258.043 441.462 256.648 442.843C255.95 443.534 255.366 444.154 254.925 444.68C254.469 445.225 254.219 445.605 254.124 445.824L253.7 446.8L252.752 446.317C244.247 441.979 240.775 435.438 240.765 431.596C240.764 431.184 240.896 430.772 241.053 430.413C241.217 430.037 241.445 429.634 241.717 429.217C242.26 428.381 243.023 427.416 243.928 426.395C245.739 424.347 248.183 421.999 250.743 419.894C253.294 417.796 256.012 415.898 258.371 414.793C259.546 414.243 260.699 413.856 261.736 413.776Z" fill="black"/>
<path d="M199.14 463.371C199.122 463.037 199.145 462.755 199.189 462.543C199.173 462.797 199.156 463.074 199.14 463.371C199.212 464.682 199.909 466.807 202.337 468.795C206.147 471.915 210.847 473.468 212.196 476.147C213.545 478.827 217.296 478.618 221.328 481.066C224.553 483.025 223.57 483.296 222.006 483.524C217.98 483.312 212.934 484.508 209.532 483.086C205.278 481.309 200.8 479.085 199.673 475.734C198.841 473.261 198.95 466.915 199.14 463.371Z" fill="#196B31"/>
<path fill-rule="evenodd" clip-rule="evenodd" d="M198.139 463.369C198.122 462.986 198.148 462.635 198.211 462.336L200.187 462.608C200.172 462.841 200.157 463.096 200.142 463.368C200.213 464.398 200.789 466.235 202.971 468.022C204.437 469.223 206.03 470.175 207.567 471.094C207.953 471.325 208.335 471.553 208.711 471.783C210.493 472.873 212.267 474.064 213.089 475.698C213.572 476.657 214.492 477.167 216.099 477.754C216.377 477.856 216.673 477.959 216.983 478.067C218.392 478.557 220.106 479.154 221.847 480.212C222.669 480.711 223.277 481.134 223.685 481.503C223.888 481.687 224.079 481.889 224.22 482.114C224.359 482.336 224.501 482.663 224.457 483.056C224.41 483.475 224.175 483.768 223.951 483.946C223.744 484.11 223.513 484.207 223.332 484.267C222.972 484.388 222.53 484.458 222.15 484.514L222.052 484.528L221.953 484.523C220.61 484.452 219.179 484.543 217.672 484.639C216.989 484.683 216.291 484.727 215.578 484.758C213.383 484.853 211.071 484.813 209.146 484.009C207.009 483.116 204.751 482.086 202.874 480.832C201.011 479.588 199.393 478.038 198.725 476.053C198.253 474.652 198.076 472.3 198.023 469.977C197.97 467.628 198.044 465.154 198.139 463.369ZM200.007 467.874C200.003 468.558 200.007 469.251 200.023 469.931C200.076 472.285 200.26 474.343 200.62 475.416C201.08 476.781 202.264 478.019 203.985 479.169C205.692 480.309 207.8 481.279 209.917 482.164C211.395 482.781 213.307 482.854 215.492 482.76C216.109 482.733 216.752 482.692 217.406 482.651C218.853 482.559 220.352 482.464 221.726 482.511C221.482 482.342 221.18 482.146 220.809 481.921C219.266 480.984 217.788 480.468 216.389 479.979C216.059 479.864 215.733 479.75 215.413 479.633C213.799 479.043 212.169 478.318 211.303 476.597C210.776 475.551 209.525 474.626 207.667 473.49C207.326 473.281 206.967 473.066 206.596 472.845C205.05 471.921 203.296 470.873 201.703 469.569C201.024 469.013 200.465 468.442 200.007 467.874Z" fill="black"/>
<path d="M265.116 466.859C259.402 470.632 225.029 471.739 208.783 472.827C209.083 473.423 210.673 477.026 212.824 478.63C215.513 480.635 217.974 481.075 218.205 483.758C223.795 483.743 251.506 477.63 267.596 474.008C283.685 470.386 284.794 467.029 287.249 465.234C289.704 463.438 295.497 456.043 296.834 454.251C297.904 452.817 296.956 444.113 296.348 439.941C296.606 452.686 272.259 462.144 265.116 466.859Z" fill="#8DDAA3"/>
<path fill-rule="evenodd" clip-rule="evenodd" d="M207.212 471.93L208.717 471.829C211.799 471.623 215.509 471.417 219.544 471.193C226.208 470.823 233.756 470.404 240.822 469.853C246.483 469.411 251.794 468.888 256.038 468.242C258.16 467.919 259.998 467.568 261.471 467.186C262.969 466.798 263.996 466.401 264.565 466.025C266.12 464.999 268.454 463.761 271.104 462.356C271.585 462.101 272.077 461.84 272.576 461.574C275.856 459.827 279.527 457.822 282.96 455.575C286.399 453.324 289.553 450.859 291.822 448.21C294.092 445.56 295.406 442.811 295.348 439.961L297.337 439.797C297.644 441.901 298.037 445.148 298.218 448.061C298.309 449.514 298.348 450.909 298.294 452.045C298.266 452.612 298.215 453.139 298.127 453.588C298.044 454.007 297.908 454.483 297.636 454.849C296.956 455.76 295.162 458.071 293.228 460.383C292.26 461.539 291.252 462.703 290.325 463.695C289.412 464.672 288.535 465.532 287.839 466.041C287.467 466.313 287.152 466.606 286.758 466.971C286.556 467.159 286.333 467.366 286.07 467.6C285.333 468.257 284.408 469 283.04 469.8C280.32 471.389 275.91 473.162 267.815 474.984C259.769 476.795 248.812 479.23 239.164 481.215C234.341 482.207 229.839 483.088 226.189 483.723C222.572 484.351 219.706 484.754 218.208 484.758L217.288 484.761L217.209 483.844C217.127 482.898 216.697 482.352 215.857 481.755C215.474 481.483 215.039 481.225 214.525 480.919C214.437 480.867 214.347 480.814 214.255 480.759C213.636 480.39 212.942 479.965 212.227 479.432C210.989 478.509 209.973 477.068 209.252 475.864C208.647 474.854 208.197 473.915 207.988 473.478C207.945 473.389 207.912 473.32 207.89 473.277L207.212 471.93ZM210.347 473.728C210.524 474.065 210.731 474.442 210.968 474.837C211.655 475.984 212.508 477.147 213.422 477.828C214.051 478.297 214.673 478.679 215.279 479.041C215.364 479.091 215.449 479.142 215.534 479.193C216.044 479.495 216.56 479.801 217.015 480.125C217.914 480.763 218.681 481.542 219.027 482.722C220.49 482.615 222.844 482.274 225.847 481.752C229.467 481.123 233.947 480.247 238.761 479.256C248.389 477.275 259.332 474.843 267.376 473.033C275.371 471.233 279.56 469.516 282.031 468.073C283.259 467.355 284.077 466.697 284.74 466.106C284.925 465.942 285.11 465.77 285.296 465.598C285.74 465.186 286.191 464.769 286.659 464.427C287.19 464.038 287.958 463.3 288.864 462.33C289.756 461.374 290.739 460.241 291.694 459.099C293.605 456.816 295.376 454.534 296.033 453.653C296.032 453.654 296.032 453.653 296.034 453.651C296.043 453.633 296.103 453.512 296.164 453.203C296.226 452.885 296.271 452.465 296.296 451.949C296.345 450.919 296.311 449.608 296.222 448.185C296.168 447.327 296.096 446.437 296.013 445.556C295.328 446.941 294.413 448.26 293.341 449.511C290.894 452.367 287.563 454.952 284.055 457.248C280.541 459.548 276.802 461.589 273.516 463.339C273.004 463.612 272.505 463.876 272.02 464.134C269.361 465.544 267.134 466.726 265.667 467.694C264.808 468.261 263.511 468.724 261.972 469.122C260.408 469.528 258.496 469.891 256.339 470.219C252.023 470.876 246.654 471.404 240.977 471.847C233.903 472.399 226.287 472.822 219.599 473.193C216.214 473.381 213.067 473.556 210.347 473.728Z" fill="black"/>
<path d="M272.225 449.846C266.514 454.512 267.636 461.486 268.911 464.389C274.122 462.139 282.881 457.184 287.887 453.157C293.465 448.67 295.765 444.713 296.801 441.952C296.796 440.462 296.071 436.946 293.203 434.807C289.618 432.133 279.365 444.013 272.225 449.846Z" fill="#F7F3F8"/>
<path fill-rule="evenodd" clip-rule="evenodd" d="M278.694 445.389C276.677 447.278 274.673 449.137 272.858 450.62C268.185 454.438 268.498 459.985 269.474 463.045C274.685 460.665 282.633 456.101 287.26 452.378C292.586 448.093 294.795 444.354 295.797 441.779C295.737 440.383 295.025 437.413 292.606 435.608C292.416 435.467 292.143 435.381 291.691 435.438C291.22 435.498 290.618 435.707 289.882 436.094C288.412 436.867 286.643 438.22 284.7 439.894C282.949 441.403 281.106 443.13 279.267 444.853C279.076 445.032 278.885 445.211 278.694 445.389ZM291.44 433.454C292.263 433.35 293.094 433.478 293.801 434.005C297.011 436.399 297.796 440.275 297.801 441.95L297.801 442.133L297.737 442.304C296.633 445.246 294.22 449.346 288.514 453.936C283.424 458.031 274.583 463.029 269.307 465.307L268.395 465.701L267.995 464.791C266.638 461.701 265.375 454.152 271.593 449.071C273.347 447.638 275.303 445.825 277.328 443.929C277.519 443.75 277.711 443.57 277.903 443.39C279.736 441.673 281.61 439.917 283.394 438.379C285.356 436.688 287.268 435.208 288.952 434.323C289.794 433.881 290.637 433.555 291.44 433.454Z" fill="black"/>
<path d="M273.51 429.047L255.889 445.195C257.291 444.489 260.369 445.925 261.036 446.522L278.879 429.703L273.51 429.047Z" fill="#554B58"/>
<path fill-rule="evenodd" clip-rule="evenodd" d="M273.174 427.998L281.115 428.969L261.053 447.88L260.369 447.267C260.299 447.205 260.074 447.05 259.691 446.853C259.328 446.667 258.883 446.474 258.42 446.318C257.952 446.161 257.495 446.052 257.101 446.016C256.69 445.979 256.451 446.032 256.339 446.088L255.213 444.458L273.174 427.998ZM258.421 444.231C258.638 444.288 258.851 444.353 259.057 444.422C259.621 444.612 260.158 444.845 260.604 445.074C260.714 445.131 260.823 445.189 260.929 445.249L276.642 430.437L273.846 430.095L258.421 444.231Z" fill="black"/>
<path d="M281.786 429.919L262.806 447.814C264.235 447.095 266.968 449.04 267.753 449.858L277.097 440.62L286.708 430.8L281.786 429.919Z" fill="#554B58"/>
<path fill-rule="evenodd" clip-rule="evenodd" d="M281.466 428.846L288.744 430.148L277.806 441.325L267.735 451.283L267.032 450.55C266.722 450.228 265.934 449.601 265.06 449.147C264.628 448.923 264.22 448.765 263.875 448.696C263.521 448.625 263.336 448.667 263.256 448.708L262.12 447.087L281.466 428.846ZM265.137 446.991C265.43 447.102 265.714 447.233 265.982 447.372C266.619 447.703 267.227 448.111 267.713 448.492L276.388 439.915L284.671 431.451L282.106 430.992L265.137 446.991Z" fill="black"/>
<path d="M200.5 449.803L209.44 451.303C211.378 451.447 218.246 446.591 219.5 447.303C220.754 448.015 215.219 454.846 213.656 455.82C212.093 456.42 208.698 457.98 207.629 459.414C206.292 461.206 206.742 462.1 209.44 467.459C211.598 471.746 210.049 472.376 209.005 472.156C208.109 471.487 205.914 470.018 204.302 469.485C202.691 468.953 199.821 466.143 199.143 463.686C199.143 463.686 200.402 457.903 200.012 454.292C199.553 450.044 200.5 449.803 200.5 449.803Z" fill="#F7F3F8"/>
<path fill-rule="evenodd" clip-rule="evenodd" d="M200.249 448.835C200.251 448.834 200.253 448.834 200.5 449.803L200.253 448.834L200.457 448.782L209.541 450.306C209.614 450.304 209.783 450.281 210.078 450.189C210.399 450.088 210.79 449.932 211.241 449.727C212.071 449.351 213.024 448.852 214.003 448.339C214.09 448.294 214.176 448.249 214.263 448.204C215.312 447.655 216.389 447.097 217.288 446.724C217.736 446.538 218.182 446.38 218.585 446.297C218.929 446.226 219.496 446.151 219.994 446.433C220.699 446.834 220.715 447.584 220.664 447.966C220.609 448.382 220.434 448.826 220.235 449.234C219.828 450.073 219.162 451.082 218.438 452.059C217.707 453.045 216.886 454.038 216.144 454.852C215.432 455.633 214.708 456.343 214.185 456.668L214.104 456.719L214.015 456.753C213.268 457.04 212.07 457.562 210.937 458.182C209.759 458.826 208.822 459.487 208.431 460.012C208.131 460.413 207.997 460.68 207.939 460.913C207.885 461.132 207.878 461.406 207.991 461.854C208.239 462.835 208.955 464.271 210.333 467.009C210.895 468.126 211.241 469.052 211.407 469.822C211.571 470.582 211.576 471.268 211.361 471.847C211.13 472.466 210.682 472.865 210.163 473.056C209.68 473.234 209.186 473.216 208.799 473.134L208.584 473.089L208.408 472.957C207.52 472.295 205.435 470.912 203.989 470.435C202.945 470.09 201.685 469.108 200.641 467.99C199.583 466.854 198.578 465.398 198.179 463.951L198.114 463.714L198.166 463.473L198.167 463.47L198.169 463.459L198.179 463.413C198.188 463.372 198.201 463.311 198.217 463.23C198.25 463.07 198.296 462.835 198.351 462.542C198.461 461.954 198.603 461.134 198.734 460.204C198.998 458.319 199.199 456.074 199.018 454.399C198.783 452.225 198.89 450.946 199.127 450.164C199.248 449.764 199.415 449.457 199.622 449.231C199.726 449.118 199.837 449.029 199.948 448.963C200.003 448.93 200.057 448.903 200.109 448.882C200.135 448.871 200.16 448.862 200.184 448.854C200.196 448.85 200.208 448.846 200.219 448.843L200.236 448.838L200.245 448.836L200.249 448.835ZM200.175 463.639C200.497 464.598 201.223 465.681 202.104 466.625C203.068 467.659 204.049 468.348 204.616 468.536C206.263 469.08 208.366 470.458 209.384 471.193C209.426 471.192 209.456 471.185 209.472 471.179C209.472 471.179 209.472 471.179 209.472 471.179C209.475 471.174 209.481 471.164 209.486 471.149C209.519 471.061 209.572 470.8 209.452 470.243C209.334 469.696 209.064 468.935 208.547 467.908L208.459 467.734C207.189 465.212 206.362 463.569 206.052 462.344C205.882 461.674 205.844 461.054 205.998 460.434C206.148 459.827 206.459 459.31 206.827 458.816C207.505 457.907 208.801 457.071 209.977 456.427C211.15 455.785 212.376 455.246 213.195 454.926C213.475 454.728 213.998 454.237 214.666 453.505C215.362 452.742 216.14 451.8 216.831 450.868C217.504 449.961 218.067 449.099 218.399 448.436C218.293 448.475 218.178 448.52 218.055 448.571C217.253 448.904 216.257 449.418 215.19 449.976C215.101 450.022 215.011 450.069 214.921 450.117C213.956 450.622 212.951 451.148 212.066 451.549C211.58 451.769 211.107 451.963 210.676 452.097C210.267 452.225 209.801 452.332 209.366 452.3L209.32 452.297L201 450.901C200.893 451.375 200.807 452.342 201.006 454.184C201.216 456.12 200.982 458.572 200.715 460.482C200.579 461.449 200.431 462.3 200.317 462.909C200.26 463.214 200.211 463.46 200.177 463.63C200.176 463.633 200.175 463.636 200.175 463.639ZM219.172 448.232C219.172 448.232 219.172 448.232 219.171 448.232ZM209.468 471.186C209.468 471.186 209.469 471.185 209.469 471.184Z" fill="black"/>
<path d="M209 450.008L200.971 450.008L199.393 452.803L199.393 461.706L198.208 469.426L200.971 478.853L206.984 483.985L216.933 484.994L246.5 477.803C244.384 477.521 230.3 478.403 227.5 476.803C224 474.803 222 473.803 219 471.803C216 468.803 213 466.344 213 461.706C213 456.84 218.662 449.647 219 447.303L209 450.008Z" fill="#160E1B" fill-opacity="0.4"/>
<path d="M265 467.303C265.293 469.816 244.066 477.936 243 478.803C247.255 480.344 282.497 469.321 285.847 466.649L296.86 455.973L298.179 448.179L297.293 439.209L295.963 438.727C295.963 438.727 296.728 443.084 293.5 446.803C290.272 450.522 290.199 450.701 287 453.303C283.487 456.16 279.5 457.803 276.5 460.303C275.325 462.509 264.707 464.79 265 467.303Z" fill="#160E1B" fill-opacity="0.4"/>
</g>
</svg>
