<svg width="378" height="505" viewBox="0 0 378 505" fill="none" xmlns="http://www.w3.org/2000/svg">
<mask id="mask0" mask-type="alpha" maskUnits="userSpaceOnUse" x="0" y="0" width="378" height="505">
<rect width="378" height="505" fill="#C4C4C4"/>
</mask>
<g mask="url(#mask0)">
<path d="M53.9999 129.042C63.1999 129.442 82.4999 134.542 90.9999 137.042L82.9999 149.042C75.6665 146.875 60.7 141.942 57.5 141.542C54.3 141.142 51.5 142.042 50 144.542C48.5 147.042 53.5 150.042 51 154.042C46 159.042 38.5 156.542 34.4999 153.542C31.9701 151.645 30.5001 147.042 30.5 143.542C30.4998 132.474 42.4999 128.542 53.9999 129.042Z" fill="#1BA0B1"/>
<path fill-rule="evenodd" clip-rule="evenodd" d="M37.4766 131.066C42.1225 128.654 48.1897 127.788 54.0433 128.043C58.7465 128.247 65.9535 129.643 72.989 131.28C80.0479 132.923 87.0166 134.828 91.282 136.082L92.5857 136.466L83.4232 150.21L82.7165 150.001C80.4441 149.329 77.4339 148.391 74.2748 147.406C72.3293 146.8 70.3273 146.175 68.4062 145.585C65.8789 144.809 63.4884 144.09 61.5327 143.54C59.549 142.983 58.088 142.623 57.376 142.534C54.4153 142.164 52.0845 143.011 50.8575 145.056C50.6858 145.343 50.6567 145.671 50.8289 146.218C50.9686 146.662 51.191 147.11 51.4632 147.658C51.5617 147.856 51.6666 148.068 51.7765 148.297C52.5535 149.915 53.3901 152.104 51.848 154.572L51.7876 154.668L51.7071 154.749C48.9384 157.518 45.4785 158.188 42.251 157.784C39.0489 157.384 36.0134 155.927 33.8999 154.342C32.4201 153.232 31.3318 151.408 30.6148 149.494C29.8914 147.562 29.5 145.418 29.5 143.542C29.4999 137.558 32.7822 133.504 37.4766 131.066ZM38.3982 132.841C34.2176 135.012 31.4999 138.458 31.5 143.542C31.5 145.166 31.8438 147.073 32.4878 148.792C33.1383 150.529 34.0498 151.954 35.0999 152.742C36.9864 154.157 39.701 155.45 42.499 155.8C45.2372 156.142 47.9926 155.58 50.2098 153.417C51.0926 151.925 50.6815 150.637 49.9735 149.162C49.8972 149.003 49.814 148.836 49.7281 148.663C49.4358 148.076 49.1123 147.426 48.9211 146.818C48.6558 145.975 48.5642 144.991 49.1425 144.027C50.9155 141.072 54.1847 140.12 57.624 140.55C58.512 140.661 60.1218 141.067 62.0735 141.615C64.0533 142.171 66.4626 142.896 68.9936 143.673C70.9355 144.27 72.947 144.897 74.8956 145.505C77.7235 146.386 80.4191 147.227 82.5774 147.873L89.4117 137.621C85.1377 136.391 78.8713 134.702 72.5358 133.228C65.4962 131.59 58.4533 130.236 53.9564 130.041C48.31 129.795 42.6272 130.646 38.3982 132.841Z" fill="black"/>
<path d="M272.296 419.194C266.832 414.154 269.867 397.323 272.396 389.223C273.606 390.095 271.991 389.097 275.771 390.277C280.496 391.753 301.438 387.552 303.906 387.953C306.374 388.353 330.1 377.614 333.179 374.871C335.642 372.677 340.531 369.513 342.668 368.205C346.62 368.204 355.876 368.848 361.293 371.429C368.063 374.654 369.107 389.449 367.286 392.561C364.903 396.632 362.057 399.817 358.113 404.142C353.184 409.547 345.734 411.758 329.473 415.198C322.418 416.691 303.448 422.627 289.613 424.232C282.231 424.149 277.82 424.29 272.296 419.194Z" fill="#CA0B89"/>
<path fill-rule="evenodd" clip-rule="evenodd" d="M271.855 387.601L272.981 388.412C273.118 388.511 273.221 388.587 273.296 388.643C273.687 388.673 274.39 388.799 276.069 389.323C276.524 389.465 277.257 389.559 278.261 389.585C279.248 389.611 280.429 389.572 281.746 389.483C284.378 389.305 287.49 388.934 290.553 388.527C292.087 388.323 293.663 388.102 295.149 387.894C296.553 387.697 297.875 387.512 299.003 387.363C300.198 387.205 301.253 387.078 302.093 387.002C302.886 386.931 303.612 386.892 304.066 386.966C304.059 386.964 304.06 386.964 304.071 386.964C304.101 386.963 304.208 386.959 304.426 386.918C304.69 386.87 305.037 386.784 305.465 386.658C306.32 386.408 307.434 386.021 308.733 385.528C311.328 384.544 314.602 383.162 317.903 381.678C321.204 380.195 324.519 378.615 327.196 377.239C328.534 376.551 329.706 375.917 330.633 375.374C331.58 374.819 332.21 374.395 332.513 374.124C335.051 371.864 340.012 368.658 342.146 367.352L342.387 367.205L342.668 367.205C344.687 367.204 348.035 367.368 351.568 367.858C355.084 368.346 358.874 369.169 361.723 370.526C363.674 371.456 365.142 373.181 366.221 375.178C367.304 377.181 368.04 379.533 368.493 381.845C368.946 384.161 369.124 386.476 369.07 388.428C369.042 389.403 368.956 390.303 368.812 391.076C368.671 391.832 368.461 392.533 368.149 393.066C365.706 397.241 362.788 400.499 358.852 404.815C353.666 410.503 345.857 412.754 329.68 416.177C327.581 416.621 324.429 417.459 320.646 418.465C318.115 419.138 315.302 419.886 312.332 420.642C304.973 422.514 296.717 424.414 289.728 425.225L289.665 425.233L289.601 425.232C289.328 425.229 289.058 425.226 288.792 425.223C285.496 425.19 282.668 425.161 280.038 424.568C277.135 423.914 274.497 422.585 271.618 419.929C270.022 418.457 269.129 416.211 268.667 413.705C268.203 411.18 268.152 408.26 268.351 405.289C268.749 399.346 270.158 393.035 271.442 388.925L271.855 387.601ZM270.634 413.343C271.062 415.663 271.838 417.411 272.974 418.459C275.619 420.899 277.948 422.047 280.477 422.617C282.891 423.161 285.508 423.189 288.881 423.224C289.104 423.226 289.33 423.229 289.56 423.231C296.394 422.433 304.513 420.568 311.839 418.704C314.734 417.967 317.516 417.227 320.04 416.556C323.88 415.536 327.124 414.673 329.266 414.22C345.611 410.762 352.703 408.591 357.374 403.468C361.325 399.136 364.101 396.023 366.423 392.056C366.566 391.811 366.722 391.369 366.846 390.708C366.967 390.063 367.045 389.271 367.07 388.372C367.121 386.573 366.956 384.405 366.53 382.23C366.103 380.051 365.422 377.905 364.462 376.129C363.498 374.347 362.296 373.014 360.862 372.331C358.294 371.108 354.748 370.318 351.293 369.839C348.018 369.385 344.907 369.22 342.95 369.206C340.707 370.591 336.146 373.567 333.844 375.618C333.377 376.033 332.592 376.544 331.643 377.1C330.674 377.668 329.467 378.32 328.11 379.018C325.395 380.414 322.047 382.008 318.723 383.502C315.4 384.996 312.087 386.395 309.443 387.398C308.122 387.899 306.954 388.307 306.027 388.578C305.565 388.713 305.146 388.819 304.79 388.885C304.465 388.945 304.082 388.994 303.746 388.94C303.584 388.913 303.115 388.918 302.272 388.994C301.475 389.066 300.453 389.189 299.264 389.346C298.076 389.503 296.794 389.683 295.428 389.874C293.98 390.077 292.439 390.294 290.817 390.51C287.745 390.918 284.581 391.296 281.881 391.478C280.531 391.569 279.281 391.613 278.209 391.584C277.154 391.557 276.198 391.459 275.473 391.232C273.611 390.651 273.171 390.637 273.089 390.634L273.088 390.634L273.059 390.633C273.05 390.633 273.033 390.633 273.017 390.632C271.869 394.599 270.698 400.176 270.346 405.423C270.153 408.302 270.211 411.041 270.634 413.343Z" fill="black"/>
<path d="M311.644 371.479C311.708 374.833 314.957 381.033 323.31 385.123C324.507 382.238 336.7 371.897 342.226 368.437C340.967 364.957 336.576 358.301 333.471 354.961C329.589 350.786 311.58 368.126 311.644 371.479Z" fill="#A1086D"/>
<path fill-rule="evenodd" clip-rule="evenodd" d="M312.661 371.364C312.644 371.431 312.644 371.461 312.644 371.461C312.644 371.461 312.644 371.46 312.644 371.46C312.696 374.226 315.419 379.836 322.922 383.804C323.084 383.57 323.268 383.331 323.463 383.09C323.948 382.491 324.568 381.813 325.279 381.086C326.702 379.631 328.533 377.94 330.489 376.24C334.082 373.118 338.161 369.913 340.992 368.042C340.308 366.457 339.106 364.342 337.703 362.193C336.078 359.704 334.238 357.256 332.738 355.642C332.537 355.425 332.188 355.266 331.509 355.33C330.817 355.395 329.92 355.686 328.852 356.207C326.728 357.245 324.188 359.066 321.725 361.159C319.271 363.244 316.943 365.559 315.241 367.547C314.389 368.542 313.709 369.437 313.251 370.167C313.022 370.532 312.86 370.838 312.759 371.08C312.709 371.2 312.678 371.294 312.661 371.364ZM331.322 353.339C332.371 353.24 333.434 353.453 334.203 354.28C335.808 356.006 337.716 358.556 339.378 361.1C341.031 363.632 342.496 366.244 343.166 368.097L343.441 368.856L342.756 369.284C340.059 370.974 335.675 374.384 331.801 377.75C329.868 379.429 328.081 381.081 326.708 382.484C326.022 383.187 325.449 383.817 325.016 384.35C324.569 384.901 324.325 385.286 324.233 385.506L323.826 386.489L322.87 386.021C314.296 381.822 310.717 375.339 310.644 371.498C310.636 371.086 310.762 370.672 310.913 370.31C311.071 369.932 311.293 369.525 311.557 369.104C312.087 368.26 312.835 367.282 313.722 366.246C315.5 364.169 317.905 361.781 320.43 359.635C322.947 357.495 325.633 355.554 327.975 354.41C329.14 353.841 330.287 353.436 331.322 353.339Z" fill="black"/>
<path d="M269.543 403.948C269.52 403.613 269.537 403.332 269.579 403.119C269.566 403.373 269.554 403.65 269.543 403.948C269.636 405.257 270.368 407.37 272.828 409.319C276.688 412.376 281.413 413.852 282.805 416.509C284.198 419.166 287.946 418.896 292.017 421.279C295.273 423.185 294.295 423.472 292.734 423.725C288.706 423.578 283.68 424.857 280.254 423.491C275.973 421.783 271.459 419.633 270.277 416.3C269.405 413.841 269.411 407.494 269.543 403.948Z" fill="#A1086D"/>
<path fill-rule="evenodd" clip-rule="evenodd" d="M268.542 403.962C268.519 403.579 268.539 403.228 268.597 402.928L270.578 403.168C270.566 403.401 270.555 403.656 270.545 403.928C270.633 404.957 271.238 406.784 273.449 408.535C274.935 409.712 276.543 410.638 278.095 411.532C278.484 411.757 278.87 411.979 279.25 412.203C281.049 413.263 282.842 414.425 283.691 416.045C284.189 416.996 285.118 417.491 286.734 418.052C287.014 418.149 287.311 418.247 287.623 418.35C289.04 418.818 290.763 419.387 292.522 420.416C293.352 420.901 293.966 421.315 294.38 421.677C294.587 421.857 294.781 422.057 294.925 422.279C295.067 422.498 295.215 422.824 295.177 423.217C295.137 423.637 294.907 423.934 294.686 424.115C294.482 424.283 294.252 424.383 294.073 424.447C293.714 424.574 293.274 424.651 292.894 424.712L292.797 424.728L292.698 424.724C291.354 424.675 289.925 424.79 288.419 424.911C287.737 424.965 287.04 425.021 286.328 425.063C284.134 425.194 281.822 425.193 279.884 424.42C277.733 423.562 275.459 422.568 273.561 421.345C271.679 420.132 270.035 418.609 269.335 416.635C268.841 415.242 268.625 412.893 268.534 410.57C268.443 408.223 268.476 405.748 268.542 403.962ZM270.483 408.436C270.49 409.119 270.506 409.812 270.533 410.493C270.624 412.845 270.841 414.9 271.22 415.966C271.701 417.324 272.905 418.543 274.645 419.664C276.371 420.777 278.494 421.712 280.625 422.562C282.113 423.155 284.026 423.197 286.209 423.067C286.825 423.03 287.468 422.979 288.121 422.927C289.566 422.811 291.063 422.692 292.438 422.717C292.192 422.552 291.886 422.361 291.511 422.142C289.953 421.23 288.467 420.738 287.06 420.272C286.729 420.162 286.401 420.054 286.079 419.942C284.456 419.378 282.814 418.68 281.92 416.973C281.376 415.936 280.111 415.032 278.234 413.926C277.889 413.722 277.527 413.514 277.153 413.298C275.592 412.4 273.821 411.381 272.207 410.103C271.519 409.558 270.95 408.996 270.483 408.436Z" fill="black"/>
<path d="M335.567 406.36C329.916 410.225 295.565 411.893 279.339 413.245C279.649 413.836 281.297 417.412 283.474 418.981C286.195 420.942 288.663 421.343 288.938 424.021C294.527 423.915 322.134 417.351 338.163 413.467C354.192 409.584 355.246 406.209 357.671 404.374C360.096 402.538 365.768 395.05 367.076 393.236C368.121 391.785 367.032 383.098 366.356 378.936C366.822 391.675 342.632 401.529 335.567 406.36Z" fill="#FFBEE9"/>
<path fill-rule="evenodd" clip-rule="evenodd" d="M277.754 412.374L279.256 412.249C282.335 411.992 286.041 411.726 290.072 411.436C296.729 410.957 304.269 410.415 311.325 409.749C316.978 409.215 322.28 408.605 326.513 407.89C328.63 407.532 330.462 407.151 331.928 406.746C333.42 406.333 334.44 405.919 335.003 405.534C336.541 404.483 338.854 403.207 341.481 401.759C341.958 401.496 342.445 401.227 342.94 400.953C346.191 399.153 349.829 397.088 353.225 394.786C356.627 392.479 359.74 389.964 361.966 387.278C364.192 384.591 365.461 381.82 365.357 378.973L367.343 378.776C367.684 380.874 368.129 384.115 368.358 387.024C368.473 388.476 368.535 389.869 368.499 391.006C368.481 391.573 368.438 392.101 368.357 392.552C368.282 392.972 368.153 393.451 367.887 393.82C367.222 394.743 365.466 397.083 363.57 399.426C362.621 400.597 361.632 401.778 360.722 402.784C359.825 403.777 358.962 404.651 358.274 405.171C357.906 405.449 357.596 405.747 357.208 406.119C357.009 406.31 356.789 406.52 356.531 406.758C355.804 407.427 354.891 408.186 353.537 409.007C350.843 410.641 346.462 412.485 338.398 414.439C330.383 416.381 319.467 418.995 309.853 421.137C305.047 422.207 300.56 423.162 296.92 423.856C293.314 424.543 290.455 424.992 288.957 425.021L288.037 425.038L287.943 424.123C287.846 423.179 287.407 422.639 286.558 422.057C286.17 421.791 285.731 421.54 285.212 421.243C285.123 421.192 285.033 421.14 284.939 421.086C284.315 420.728 283.614 420.314 282.89 419.792C281.638 418.89 280.598 417.466 279.857 416.274C279.236 415.274 278.771 414.342 278.555 413.909C278.51 413.82 278.476 413.752 278.454 413.709L277.754 412.374ZM280.917 414.12C281.1 414.455 281.313 414.828 281.556 415.219C282.262 416.355 283.134 417.503 284.059 418.17C284.696 418.629 285.323 419.001 285.935 419.352C286.021 419.401 286.107 419.45 286.193 419.5C286.707 419.794 287.228 420.091 287.689 420.407C288.598 421.031 289.378 421.798 289.743 422.972C291.204 422.841 293.553 422.462 296.546 421.891C300.156 421.203 304.62 420.253 309.418 419.184C319.013 417.047 329.914 414.437 337.928 412.495C345.893 410.565 350.053 408.781 352.5 407.297C353.716 406.56 354.523 405.888 355.177 405.287C355.359 405.119 355.541 404.945 355.724 404.77C356.162 404.351 356.605 403.926 357.067 403.576C357.593 403.179 358.348 402.428 359.238 401.444C360.114 400.474 361.079 399.324 362.015 398.167C363.888 395.854 365.622 393.543 366.264 392.651C366.264 392.652 366.264 392.651 366.265 392.649C366.274 392.631 366.333 392.509 366.388 392.199C366.446 391.88 366.484 391.459 366.5 390.943C366.533 389.913 366.476 388.602 366.365 387.181C366.297 386.324 366.21 385.435 366.112 384.556C365.451 385.951 364.557 387.285 363.506 388.554C361.106 391.45 357.817 394.088 354.347 396.441C350.871 398.798 347.166 400.899 343.909 402.703C343.402 402.984 342.907 403.257 342.426 403.522C339.79 404.976 337.583 406.193 336.132 407.185C335.282 407.766 333.993 408.25 332.461 408.674C330.903 409.104 328.998 409.499 326.846 409.862C322.541 410.589 317.182 411.205 311.513 411.74C304.448 412.407 296.841 412.954 290.16 413.435C286.778 413.678 283.634 413.904 280.917 414.12Z" fill="black"/>
<path d="M342.398 389.233C336.763 393.992 337.999 400.946 339.321 403.828C344.495 401.493 353.172 396.396 358.112 392.288C363.616 387.71 365.851 383.717 366.841 380.94C366.813 379.449 366.031 375.945 363.128 373.854C359.5 371.239 349.441 383.284 342.398 389.233Z" fill="#F7F3F8"/>
<path fill-rule="evenodd" clip-rule="evenodd" d="M348.794 384.671C346.807 386.593 344.834 388.484 343.043 389.997C338.433 393.89 338.836 399.431 339.862 402.475C345.034 400.01 352.906 395.317 357.472 391.519C362.728 387.148 364.876 383.374 365.835 380.782C365.752 379.387 364.992 376.429 362.543 374.665C362.352 374.527 362.077 374.445 361.626 374.51C361.156 374.577 360.557 374.796 359.829 375.194C358.371 375.991 356.624 377.373 354.709 379.078C352.983 380.616 351.168 382.372 349.357 384.126C349.169 384.307 348.981 384.489 348.794 384.671ZM361.343 372.53C362.164 372.413 362.997 372.527 363.713 373.042C366.961 375.383 367.809 379.246 367.841 380.921L367.845 381.103L367.783 381.276C366.727 384.235 364.381 388.374 358.751 393.057C353.728 397.234 344.97 402.376 339.733 404.74L338.827 405.149L338.412 404.245C337.005 401.177 335.619 393.65 341.753 388.469C343.484 387.007 345.409 385.162 347.403 383.233C347.591 383.051 347.78 382.869 347.969 382.685C349.774 380.938 351.62 379.152 353.379 377.585C355.312 375.863 357.2 374.352 358.869 373.439C359.704 372.983 360.541 372.644 361.343 372.53Z" fill="black"/>
<path d="M343.344 368.415L325.988 384.848C327.379 384.12 330.479 385.506 331.156 386.092L348.722 368.984L343.344 368.415Z" fill="#C5C1C8"/>
<path fill-rule="evenodd" clip-rule="evenodd" d="M342.991 367.373L350.946 368.214L331.195 387.449L330.501 386.848C330.431 386.787 330.203 386.635 329.816 386.445C329.451 386.264 329.003 386.078 328.537 385.93C328.067 385.781 327.608 385.679 327.214 385.65C326.802 385.62 326.564 385.676 326.453 385.734L325.301 384.122L342.991 367.373ZM328.504 383.844C328.722 383.897 328.936 383.958 329.143 384.024C329.71 384.205 330.251 384.429 330.701 384.651C330.812 384.706 330.922 384.762 331.028 384.82L346.498 369.754L343.697 369.458L328.504 383.844Z" fill="black"/>
<path d="M351.633 369.152L332.947 387.355C334.364 386.612 337.129 388.513 337.927 389.318L347.119 379.928L356.568 369.953L351.633 369.152Z" fill="#C5C1C8"/>
<path fill-rule="evenodd" clip-rule="evenodd" d="M351.296 368.085L358.594 369.268L347.839 380.622L337.931 390.743L337.217 390.022C336.902 389.705 336.103 389.09 335.223 388.651C334.787 388.434 334.376 388.282 334.03 388.219C333.675 388.154 333.49 388.199 333.411 388.241L332.249 386.639L351.296 368.085ZM335.264 386.493C335.559 386.6 335.845 386.727 336.115 386.861C336.757 387.181 337.372 387.58 337.864 387.953L346.398 379.235L354.542 370.637L351.97 370.22L335.264 386.493Z" fill="black"/>
<path d="M268.072 385.28L279.589 391.099C281.529 391.211 287.477 389.563 288.742 390.254C290.008 390.946 285.481 395.162 283.934 396.16C282.381 396.786 279.012 398.401 277.966 399.852C276.659 401.666 277.123 402.552 279.908 407.867C282.136 412.118 280.598 412.774 279.55 412.57C278.643 411.916 276.424 410.483 274.804 409.977C273.184 409.471 270.269 406.708 269.552 404.262C269.552 404.262 270.716 398.459 270.267 394.855C269.739 390.616 268.072 385.28 268.072 385.28Z" fill="#F7F3F8"/>
<path fill-rule="evenodd" clip-rule="evenodd" d="M266.412 383.321L279.838 390.105C280.218 390.1 280.785 390.038 281.511 389.928C282.051 389.847 282.629 389.748 283.23 389.646C283.566 389.589 283.909 389.53 284.256 389.473C285.201 389.317 286.163 389.172 286.978 389.113C287.386 389.083 287.784 389.073 288.139 389.099C288.471 389.124 288.874 389.187 289.222 389.377C289.458 389.505 289.664 389.7 289.801 389.962C289.933 390.216 289.969 390.475 289.962 390.696C289.949 391.109 289.785 391.498 289.625 391.798C289.293 392.423 288.726 393.122 288.128 393.77C286.925 395.075 285.343 396.441 284.477 397L284.397 397.052L284.308 397.088C283.565 397.387 282.376 397.929 281.254 398.566C280.086 399.23 279.16 399.906 278.777 400.437C278.484 400.844 278.355 401.113 278.301 401.347C278.251 401.566 278.247 401.841 278.368 402.286C278.632 403.263 279.371 404.687 280.794 407.403C281.374 408.51 281.735 409.431 281.913 410.197C282.09 410.955 282.106 411.641 281.9 412.223C281.68 412.845 281.238 413.252 280.722 413.452C280.242 413.637 279.748 413.627 279.359 413.552L279.144 413.51L278.966 413.381C278.067 412.734 275.96 411.385 274.506 410.931C273.457 410.603 272.181 409.643 271.119 408.541C270.042 407.423 269.014 405.984 268.592 404.543L268.523 404.307L268.571 404.065L268.572 404.062L268.574 404.051L268.583 404.005C268.591 403.964 268.603 403.902 268.618 403.822C268.648 403.661 268.691 403.425 268.741 403.131C268.841 402.542 268.97 401.719 269.085 400.787C269.319 398.898 269.483 396.651 269.275 394.979C269.019 392.923 268.482 390.578 268.003 388.729C267.765 387.808 267.543 387.018 267.38 386.459C267.299 386.179 267.233 385.958 267.187 385.807C267.165 385.731 267.147 385.674 267.135 385.635L267.122 385.592L267.118 385.579L266.412 383.321ZM269.668 387.207C269.755 387.524 269.846 387.865 269.94 388.227C270.426 390.105 270.987 392.548 271.259 394.731C271.5 396.664 271.307 399.119 271.07 401.033C270.95 402.002 270.816 402.855 270.712 403.467C270.66 403.773 270.616 404.019 270.584 404.189C270.583 404.192 270.583 404.196 270.582 404.199C270.92 405.152 271.664 406.223 272.56 407.153C273.54 408.171 274.532 408.844 275.102 409.022C276.758 409.539 278.883 410.883 279.913 411.602C279.955 411.599 279.985 411.593 280.001 411.586C280.001 411.586 280.001 411.586 280.001 411.586C280.004 411.581 280.009 411.571 280.015 411.556C280.046 411.468 280.094 411.205 279.965 410.651C279.838 410.105 279.556 409.349 279.022 408.331L278.932 408.158C277.621 405.657 276.767 404.027 276.437 402.808C276.257 402.141 276.209 401.522 276.352 400.899C276.492 400.29 276.794 399.768 277.155 399.268C277.818 398.348 279.099 397.49 280.266 396.827C281.432 396.165 282.653 395.604 283.466 395.271C284.174 394.794 285.567 393.597 286.658 392.414C287.124 391.908 287.494 391.449 287.727 391.084C287.554 391.083 287.353 391.091 287.123 391.107C286.407 391.159 285.524 391.29 284.581 391.446C284.259 391.499 283.927 391.556 283.596 391.612C282.981 391.717 282.366 391.822 281.808 391.906C280.968 392.033 280.135 392.132 279.531 392.098L279.323 392.086L269.668 387.207Z" fill="black"/>
<path d="M279.589 391.099L268.979 385.934L269.507 390.173L270.373 400.444L268.73 408.08L270.925 417.655L276.62 423.137L286.491 424.739L296.066 422.544C293.971 422.136 289.81 420.516 289.928 417.293C290.045 414.07 293.337 412.308 294.968 411.829C294.785 410.044 293.684 405.502 290.748 401.622C287.811 397.742 288.032 392.131 288.51 389.811L279.589 391.099Z" fill="#160E1B" fill-opacity="0.4"/>
<path d="M341.495 412.286C342.521 411.371 343.798 408.708 343.392 406.211C342.987 403.714 343.961 400.833 345.036 398.576C347.419 394.505 352.642 391.314 356.023 388.302C359.102 385.56 360.43 384.864 363.488 381.003C365.934 377.915 365.708 377.311 365.519 377.193L365.428 377.165C365.428 377.165 365.472 377.164 365.519 377.193L366.778 377.586L368.066 386.508L367.097 394.354L356.574 405.513C353.348 408.332 345.815 413.635 341.495 412.286Z" fill="#160E1B" fill-opacity="0.4"/>
<path d="M226.653 454.471C220.777 449.918 222.355 432.889 224.18 424.602C225.46 425.367 223.765 424.511 227.632 425.362C232.466 426.427 252.971 420.444 255.464 420.631C257.957 420.818 280.673 408.081 283.505 405.084C285.771 402.687 290.371 399.114 292.388 397.628C296.324 397.288 305.602 397.134 311.22 399.24C318.243 401.873 320.553 416.524 319.006 419.78C316.982 424.041 314.419 427.459 310.861 432.106C306.414 437.914 299.182 440.756 283.276 445.58C276.376 447.673 257.985 455.216 244.338 458.003C236.977 458.554 232.594 459.073 226.653 454.471Z" fill="#CA0B89"/>
<path fill-rule="evenodd" clip-rule="evenodd" d="M223.502 423.032L224.693 423.744C224.838 423.83 224.947 423.897 225.027 423.946C225.419 423.943 226.13 424.008 227.848 424.386C228.314 424.488 229.051 424.519 230.054 424.459C231.04 424.4 232.213 424.259 233.517 424.058C236.125 423.654 239.193 423.018 242.21 422.349C243.72 422.014 245.272 421.659 246.734 421.324C248.116 421.007 249.418 420.709 250.528 420.464C251.705 420.205 252.746 419.987 253.576 419.839C254.36 419.7 255.08 419.599 255.539 419.633C255.532 419.633 255.533 419.633 255.543 419.631C255.573 419.628 255.68 419.614 255.893 419.556C256.152 419.484 256.49 419.369 256.907 419.207C257.737 418.884 258.814 418.403 260.066 417.801C262.566 416.598 265.709 414.94 268.871 413.178C272.032 411.416 275.199 409.558 277.748 407.957C279.023 407.156 280.135 406.424 281.012 405.804C281.908 405.17 282.5 404.693 282.779 404.397C285.113 401.927 289.781 398.307 291.795 396.823L292.021 396.655L292.302 396.631C294.313 396.458 297.663 396.333 301.225 396.518C304.77 396.702 308.617 397.197 311.571 398.304C313.595 399.063 315.205 400.656 316.453 402.553C317.704 404.456 318.638 406.736 319.288 409.001C319.939 411.268 320.315 413.56 320.428 415.509C320.485 416.484 320.476 417.387 320.399 418.169C320.323 418.935 320.174 419.651 319.909 420.209C317.833 424.579 315.206 428.075 311.655 432.713C306.976 438.826 299.39 441.738 283.567 446.537C281.513 447.16 278.444 448.266 274.762 449.593C272.298 450.481 269.56 451.468 266.666 452.476C259.495 454.973 251.432 457.575 244.539 458.983L244.476 458.996L244.413 459C244.141 459.021 243.872 459.041 243.606 459.061C240.32 459.311 237.499 459.525 234.828 459.16C231.88 458.758 229.137 457.66 226.041 455.261C224.324 453.931 223.242 451.77 222.567 449.313C221.887 446.838 221.586 443.933 221.529 440.956C221.415 435.001 222.277 428.592 223.203 424.387L223.502 423.032ZM224.495 448.784C225.12 451.059 226.044 452.734 227.265 453.68C230.11 455.884 232.529 456.828 235.098 457.179C237.55 457.513 240.16 457.316 243.523 457.062C243.745 457.045 243.971 457.028 244.2 457.011C250.94 455.628 258.869 453.073 266.008 450.587C268.829 449.604 271.537 448.629 273.995 447.743C277.733 446.397 280.891 445.259 282.986 444.623C298.973 439.775 305.853 437.003 310.067 431.498C313.631 426.842 316.13 423.503 318.103 419.351C318.224 419.095 318.342 418.641 318.408 417.972C318.473 417.319 318.483 416.523 318.431 415.625C318.327 413.829 317.977 411.683 317.366 409.552C316.753 407.418 315.89 405.338 314.781 403.652C313.668 401.959 312.356 400.734 310.869 400.177C308.205 399.178 304.604 398.696 301.122 398.515C297.82 398.344 294.706 398.447 292.754 398.601C290.639 400.173 286.35 403.53 284.232 405.771C283.803 406.225 283.065 406.801 282.167 407.436C281.25 408.086 280.104 408.839 278.812 409.651C276.227 411.275 273.028 413.151 269.845 414.925C266.662 416.698 263.481 418.377 260.933 419.603C259.66 420.215 258.531 420.722 257.631 421.071C257.182 421.246 256.774 421.388 256.425 421.484C256.106 421.571 255.729 421.653 255.39 421.628C255.226 421.615 254.759 421.66 253.926 421.808C253.138 421.948 252.13 422.159 250.959 422.417C249.789 422.675 248.527 422.965 247.183 423.273C245.758 423.6 244.24 423.948 242.643 424.302C239.617 424.973 236.497 425.621 233.823 426.034C232.486 426.241 231.245 426.391 230.174 426.455C229.12 426.518 228.16 426.502 227.417 426.339C225.513 425.92 225.073 425.944 224.991 425.948L224.99 425.948L224.961 425.95C224.952 425.95 224.936 425.951 224.919 425.952C224.116 430.003 223.428 435.66 223.528 440.918C223.583 443.803 223.876 446.527 224.495 448.784Z" fill="black"/>
<path d="M261.759 403.553C262.111 406.889 265.88 412.787 274.553 416.146C275.499 413.168 286.759 401.818 291.967 397.897C290.414 394.538 285.467 388.284 282.087 385.222C277.861 381.396 261.408 400.218 261.759 403.553Z" fill="#A2086D"/>
<path fill-rule="evenodd" clip-rule="evenodd" d="M262.763 403.352C262.752 403.42 262.754 403.449 262.754 403.449C262.754 403.449 262.754 403.449 262.754 403.449C263.044 406.2 266.238 411.556 274.054 414.864C274.195 414.618 274.357 414.363 274.532 414.106C274.964 413.469 275.522 412.74 276.168 411.954C277.461 410.382 279.14 408.541 280.943 406.679C284.256 403.26 288.044 399.716 290.704 397.609C289.886 396.089 288.507 394.085 286.925 392.065C285.092 389.724 283.049 387.443 281.416 385.964C281.197 385.765 280.835 385.637 280.164 385.758C279.481 385.883 278.612 386.249 277.593 386.861C275.565 388.077 273.191 390.109 270.917 392.406C268.651 394.694 266.531 397.2 265.006 399.327C264.242 400.392 263.642 401.342 263.248 402.108C263.051 402.492 262.916 402.81 262.836 403.06C262.796 403.184 262.774 403.28 262.763 403.352ZM279.807 383.791C280.844 383.602 281.921 383.723 282.758 384.481C284.505 386.063 286.626 388.439 288.499 390.831C290.364 393.212 292.048 395.689 292.874 397.477L293.213 398.21L292.568 398.696C290.026 400.61 285.951 404.385 282.38 408.071C280.599 409.909 278.96 411.709 277.713 413.225C277.089 413.983 276.572 414.66 276.187 415.228C275.789 415.817 275.579 416.221 275.507 416.448L275.185 417.462L274.192 417.078C265.289 413.631 261.167 407.479 260.765 403.658C260.722 403.248 260.811 402.825 260.931 402.452C261.055 402.061 261.242 401.637 261.469 401.194C261.924 400.308 262.585 399.27 263.38 398.161C264.974 395.94 267.164 393.354 269.496 390.998C271.82 388.651 274.33 386.486 276.564 385.146C277.677 384.478 278.784 383.976 279.807 383.791Z" fill="black"/>
<path d="M222.602 439.517C222.549 439.186 222.543 438.904 222.566 438.688C222.575 438.942 222.587 439.22 222.602 439.517C222.807 440.813 223.717 442.856 226.335 444.586C230.444 447.301 235.278 448.366 236.893 450.893C238.509 453.421 242.219 452.83 246.48 454.854C249.888 456.474 248.938 456.844 247.405 457.23C243.379 457.43 238.481 459.135 234.951 458.068C230.539 456.735 225.857 454.98 224.393 451.761C223.313 449.386 222.774 443.061 222.602 439.517Z" fill="#A2086D"/>
<path fill-rule="evenodd" clip-rule="evenodd" d="M221.605 439.617C221.549 439.238 221.539 438.886 221.572 438.582L223.565 438.651C223.574 438.884 223.585 439.139 223.598 439.411C223.774 440.429 224.534 442.197 226.887 443.752C228.468 444.797 230.15 445.582 231.773 446.339C232.18 446.529 232.584 446.718 232.981 446.908C234.865 447.81 236.751 448.814 237.736 450.355C238.314 451.26 239.281 451.673 240.94 452.093C241.227 452.166 241.532 452.238 241.851 452.314C243.303 452.658 245.069 453.077 246.909 453.951C247.778 454.364 248.425 454.723 248.869 455.048C249.09 455.21 249.301 455.392 249.463 455.601C249.624 455.808 249.799 456.119 249.795 456.514C249.792 456.936 249.588 457.251 249.384 457.451C249.194 457.636 248.974 457.755 248.8 457.834C248.454 457.991 248.022 458.106 247.649 458.2L247.553 458.224L247.454 458.229C246.111 458.296 244.697 458.532 243.207 458.782C242.533 458.895 241.843 459.01 241.137 459.114C238.963 459.432 236.659 459.629 234.662 459.025C232.445 458.356 230.094 457.561 228.099 456.505C226.118 455.458 224.35 454.082 223.483 452.175C222.871 450.829 222.454 448.508 222.165 446.202C221.872 443.871 221.693 441.403 221.605 439.617ZM223.923 443.908C223.989 444.588 224.064 445.277 224.149 445.953C224.442 448.289 224.835 450.317 225.304 451.347C225.9 452.659 227.204 453.769 229.034 454.737C230.849 455.698 233.044 456.447 235.241 457.111C236.774 457.574 238.684 457.452 240.847 457.135C241.458 457.045 242.094 456.939 242.74 456.831C244.17 456.592 245.651 456.344 247.024 456.251C246.764 456.108 246.443 455.944 246.051 455.758C244.42 454.983 242.897 454.62 241.455 454.277C241.116 454.196 240.78 454.116 240.449 454.032C238.784 453.61 237.088 453.055 236.051 451.432C235.42 450.445 234.082 449.653 232.117 448.712C231.756 448.539 231.377 448.362 230.986 448.18C229.353 447.419 227.502 446.556 225.784 445.42C225.052 444.937 224.437 444.426 223.923 443.908Z" fill="black"/>
<path d="M288.589 436.251C283.29 440.587 249.21 445.198 233.16 447.939C233.519 448.501 235.468 451.923 237.772 453.299C240.651 455.019 243.144 455.206 243.648 457.851C249.207 457.265 276.149 448.355 291.785 443.11C307.421 437.864 308.182 434.411 310.44 432.375C312.699 430.338 317.707 422.39 318.854 420.471C319.772 418.935 317.94 410.374 316.91 406.285C318.468 418.937 295.213 430.832 288.589 436.251Z" fill="#FFBEE9"/>
<path fill-rule="evenodd" clip-rule="evenodd" d="M231.505 447.207L232.991 446.953C236.036 446.433 239.706 445.849 243.698 445.215C250.288 444.166 257.755 442.979 264.727 441.709C270.314 440.692 275.544 439.629 279.699 438.553C281.778 438.015 283.57 437.478 284.996 436.949C286.447 436.409 287.428 435.909 287.956 435.477C289.398 434.298 291.593 432.828 294.086 431.16C294.538 430.857 295.001 430.547 295.47 430.232C298.554 428.159 302.001 425.79 305.187 423.204C308.379 420.614 311.264 417.84 313.251 414.973C315.239 412.106 316.265 409.236 315.917 406.408L317.879 406.041C318.399 408.103 319.121 411.293 319.599 414.172C319.837 415.608 320.019 416.991 320.081 418.127C320.112 418.694 320.114 419.223 320.072 419.679C320.033 420.104 319.946 420.592 319.713 420.983C319.13 421.959 317.581 424.442 315.893 426.939C315.048 428.188 314.163 429.448 313.343 430.53C312.535 431.595 311.75 432.54 311.11 433.117C310.767 433.426 310.484 433.749 310.129 434.153C309.947 434.361 309.746 434.589 309.509 434.849C308.842 435.578 307.998 436.412 306.719 437.346C304.176 439.205 299.969 441.419 292.103 444.058C284.284 446.681 273.632 450.222 264.238 453.181C259.542 454.661 255.153 455.997 251.587 457.001C248.053 457.995 245.242 458.688 243.753 458.845L242.838 458.942L242.666 458.038C242.488 457.105 242.004 456.606 241.108 456.098C240.699 455.867 240.24 455.654 239.697 455.403C239.605 455.36 239.51 455.316 239.412 455.27C238.759 454.967 238.025 454.615 237.259 454.157C235.934 453.366 234.776 452.036 233.936 450.912C233.231 449.969 232.687 449.081 232.435 448.668C232.383 448.583 232.343 448.518 232.317 448.477L231.505 447.207ZM234.807 448.675C235.018 448.993 235.262 449.346 235.538 449.715C236.338 450.786 237.306 451.856 238.285 452.44C238.959 452.843 239.616 453.159 240.256 453.457C240.345 453.499 240.435 453.54 240.525 453.582C241.063 453.83 241.607 454.082 242.094 454.358C243.053 454.901 243.896 455.598 244.36 456.736C245.805 456.481 248.112 455.901 251.045 455.075C254.583 454.08 258.949 452.751 263.637 451.274C273.013 448.32 283.65 444.784 291.467 442.162C299.237 439.555 303.229 437.42 305.539 435.732C306.687 434.893 307.434 434.154 308.034 433.499C308.201 433.316 308.367 433.127 308.534 432.937C308.935 432.481 309.34 432.02 309.771 431.632C310.26 431.191 310.948 430.378 311.75 429.321C312.54 428.279 313.402 427.051 314.236 425.819C315.903 423.352 317.432 420.901 317.996 419.958C317.995 419.959 317.995 419.958 317.996 419.955C318.004 419.936 318.052 419.81 318.08 419.496C318.11 419.174 318.112 418.751 318.084 418.235C318.028 417.206 317.859 415.906 317.626 414.499C317.485 413.651 317.322 412.773 317.149 411.905C316.61 413.352 315.834 414.759 314.895 416.113C312.753 419.203 309.703 422.115 306.448 424.757C303.187 427.404 299.676 429.815 296.586 431.892C296.104 432.215 295.635 432.53 295.179 432.835C292.678 434.51 290.583 435.912 289.222 437.025C288.426 437.677 287.182 438.27 285.693 438.823C284.178 439.386 282.313 439.943 280.2 440.489C275.974 441.583 270.687 442.657 265.085 443.677C258.104 444.948 250.572 446.146 243.956 447.199C240.608 447.731 237.495 448.227 234.807 448.675Z" fill="black"/>
<path d="M293.924 418.601C288.719 423.826 290.547 430.649 292.112 433.407C297.066 430.636 305.273 424.813 309.842 420.296C314.932 415.263 316.816 411.092 317.565 408.24C317.409 406.758 316.328 403.334 313.257 401.499C309.418 399.205 300.431 412.069 293.924 418.601Z" fill="#F7F3F8"/>
<path fill-rule="evenodd" clip-rule="evenodd" d="M299.904 413.507C298.09 415.592 296.287 417.646 294.632 419.307C290.374 423.582 291.251 429.068 292.534 432.012C297.476 429.113 304.916 423.761 309.139 419.585C314 414.779 315.815 410.834 316.548 408.17C316.347 406.787 315.335 403.905 312.744 402.357C312.541 402.236 312.261 402.179 311.817 402.282C311.354 402.389 310.777 402.659 310.085 403.118C308.701 404.037 307.079 405.564 305.318 407.427C303.73 409.107 302.073 411.013 300.419 412.915C300.247 413.113 300.076 413.31 299.904 413.507ZM311.365 400.333C312.173 400.146 313.013 400.188 313.77 400.64C317.207 402.694 318.384 406.47 318.56 408.135L318.579 408.317L318.532 408.494C317.734 411.533 315.752 415.858 310.545 421.007C305.899 425.6 297.615 431.475 292.6 434.28L291.732 434.765L291.242 433.9C289.576 430.964 287.549 423.584 293.215 417.895C294.815 416.29 296.575 414.287 298.396 412.194C298.567 411.997 298.74 411.798 298.913 411.6C300.561 409.704 302.246 407.766 303.864 406.054C305.643 404.172 307.394 402.504 308.978 401.452C309.771 400.926 310.576 400.516 311.365 400.333Z" fill="black"/>
<path d="M293.079 397.779L277.198 415.642C278.521 414.797 281.729 415.911 282.454 416.437L298.486 397.884L293.079 397.779Z" fill="#C5C1C8"/>
<path fill-rule="evenodd" clip-rule="evenodd" d="M292.638 396.771L300.636 396.926L282.61 417.786L281.866 417.246C281.791 417.191 281.55 417.06 281.149 416.904C280.77 416.755 280.307 416.608 279.83 416.501C279.349 416.392 278.883 416.331 278.488 416.335C278.076 416.341 277.843 416.417 277.737 416.485L276.451 414.977L292.638 396.771ZM279.618 414.425C279.84 414.459 280.059 414.502 280.271 414.55C280.851 414.681 281.41 414.858 281.877 415.041C281.992 415.085 282.106 415.133 282.217 415.181L296.336 398.843L293.52 398.788L279.618 414.425Z" fill="black"/>
<path d="M301.4 397.802L284.346 417.542C285.695 416.68 288.612 418.336 289.476 419.07L297.828 408.926L306.386 398.176L301.4 397.802Z" fill="#C5C1C8"/>
<path fill-rule="evenodd" clip-rule="evenodd" d="M300.973 396.767L308.346 397.32L298.606 409.555L289.603 420.489L288.83 419.832C288.489 419.543 287.64 419 286.725 418.638C286.272 418.458 285.85 418.343 285.5 418.309C285.14 418.275 284.96 418.336 284.885 418.384L283.59 416.888L300.973 396.767ZM286.582 416.484C286.884 416.565 287.18 416.667 287.461 416.778C288.128 417.042 288.774 417.386 289.297 417.715L297.051 408.297L304.427 399.032L301.828 398.837L286.582 416.484Z" fill="black"/>
<path d="M219.533 421.044L231.507 425.853C233.45 425.799 239.234 423.645 240.554 424.225C241.874 424.806 237.726 429.395 236.271 430.523C234.777 431.28 231.559 433.178 230.642 434.714C229.495 436.633 230.034 437.476 233.265 442.532C235.849 446.576 234.373 447.361 233.312 447.248C232.352 446.675 230.018 445.437 228.361 445.072C226.703 444.707 223.562 442.205 222.637 439.829C222.637 439.829 223.299 433.948 222.542 430.396C221.652 426.217 219.533 421.044 219.533 421.044Z" fill="#F7F3F8"/>
<path fill-rule="evenodd" clip-rule="evenodd" d="M217.711 419.235L231.67 424.841C232.048 424.804 232.608 424.693 233.321 424.522C233.853 424.394 234.42 424.246 235.01 424.093C235.34 424.007 235.676 423.919 236.017 423.832C236.945 423.595 237.891 423.369 238.699 423.24C239.102 423.175 239.497 423.131 239.854 423.127C240.187 423.123 240.594 423.151 240.956 423.31C241.202 423.418 241.425 423.594 241.583 423.843C241.737 424.085 241.795 424.34 241.807 424.561C241.83 424.974 241.7 425.375 241.566 425.688C241.289 426.339 240.784 427.084 240.244 427.781C239.157 429.184 237.698 430.682 236.884 431.313L236.808 431.372L236.723 431.415C236.009 431.777 234.87 432.418 233.807 433.15C232.701 433.911 231.836 434.664 231.5 435.226C231.243 435.657 231.137 435.936 231.104 436.173C231.072 436.396 231.093 436.67 231.251 437.104C231.598 438.055 232.456 439.41 234.107 441.993C234.78 443.047 235.219 443.933 235.463 444.681C235.703 445.421 235.779 446.103 235.623 446.7C235.457 447.34 235.052 447.783 234.555 448.026C234.093 448.252 233.6 448.285 233.206 448.243L232.988 448.219L232.799 448.107C231.848 447.539 229.633 446.376 228.146 446.048C227.072 445.812 225.719 444.964 224.566 443.958C223.397 442.937 222.25 441.591 221.705 440.192L221.616 439.962L221.643 439.717L221.643 439.715L221.645 439.703L221.65 439.657C221.654 439.615 221.661 439.552 221.669 439.471C221.685 439.308 221.707 439.07 221.732 438.772C221.781 438.177 221.839 437.346 221.874 436.407C221.944 434.506 221.915 432.252 221.564 430.604C221.132 428.578 220.397 426.288 219.761 424.486C219.444 423.589 219.155 422.821 218.945 422.278C218.84 422.007 218.755 421.792 218.697 421.645C218.668 421.572 218.645 421.516 218.63 421.478L218.613 421.436L218.608 421.424L217.711 419.235ZM221.289 422.827C221.402 423.135 221.522 423.468 221.647 423.82C222.293 425.65 223.062 428.035 223.52 430.187C223.926 432.092 223.944 434.555 223.873 436.482C223.836 437.457 223.776 438.319 223.725 438.937C223.7 439.247 223.676 439.496 223.659 439.668C223.659 439.671 223.658 439.675 223.658 439.678C224.077 440.599 224.909 441.602 225.882 442.451C226.946 443.381 227.992 443.967 228.576 444.095C230.27 444.468 232.502 445.625 233.591 446.252C233.632 446.246 233.661 446.237 233.676 446.229C233.677 446.229 233.676 446.229 233.676 446.229C233.679 446.223 233.684 446.213 233.688 446.198C233.711 446.107 233.737 445.841 233.561 445.3C233.387 444.767 233.041 444.039 232.422 443.07L232.317 442.905C230.796 440.526 229.805 438.976 229.372 437.789C229.135 437.14 229.034 436.527 229.123 435.894C229.21 435.276 229.467 434.73 229.783 434.201C230.365 433.227 231.568 432.263 232.673 431.502C233.778 430.742 234.947 430.078 235.728 429.677C236.393 429.141 237.677 427.829 238.663 426.557C239.084 426.012 239.413 425.523 239.613 425.14C239.441 425.154 239.241 425.178 239.014 425.215C238.305 425.328 237.436 425.534 236.511 425.77C236.194 425.851 235.869 425.936 235.543 426.02C234.94 426.178 234.336 426.335 233.788 426.467C232.961 426.665 232.139 426.836 231.535 426.853L231.327 426.859L221.289 422.827Z" fill="black"/>
<path d="M231.507 425.853L220.493 421.618L221.383 425.796L223.128 435.955L222.146 443.703L225.155 453.055L231.3 458.028L241.272 458.776L250.623 455.767C248.501 455.541 244.216 454.284 244.057 451.063C243.897 447.842 247.025 445.803 248.609 445.187C248.273 443.423 246.787 438.993 243.528 435.379C240.269 431.765 240.008 426.157 240.285 423.804L231.507 425.853Z" fill="#160E1B" fill-opacity="0.4"/>
<path d="M295.004 441.646C295.948 440.647 296.99 437.884 296.372 435.431C295.754 432.978 296.477 430.024 297.354 427.683C299.379 423.422 304.309 419.795 307.419 416.504C310.251 413.508 311.515 412.7 314.229 408.592C316.401 405.305 316.124 404.722 315.926 404.621L315.832 404.6C315.832 404.6 315.877 404.596 315.926 404.621L317.214 404.904L319.263 413.682L318.971 421.583L309.445 433.604C306.473 436.69 299.423 442.62 295.004 441.646Z" fill="#160E1B" fill-opacity="0.4"/>
<path d="M181.5 303.042C190.833 302.708 212.2 299.342 223 288.542L223 288.542C236.5 275.042 239.5 272.042 240 270.542C240.4 269.342 239.167 254.375 238.5 247.042C239.167 246.542 241.8 246.042 247 248.042C247.5 251.375 247.9 259.542 245.5 265.542C242.5 273.042 240.5 274.542 244.5 290.042C245.5 291.208 248.1 293.642 250.5 294.042C252.9 294.442 252.5 290.542 252 288.542C251.167 286.875 250 281.542 252 273.542C253.667 273.708 256.8 275.442 256 281.042C255 288.042 253.5 297.542 267 301.042C280.5 304.542 283.5 284.542 282.5 273.542C294.5 288.875 319.5 328.042 323.5 358.042C320.333 360.542 313.5 366.542 311.5 370.542C311.5 372.375 312.7 377.142 317.5 381.542C317.5 382.542 315 385.242 305 388.042C299.667 388.708 288.8 390.042 288 390.042C287 390.042 285 386.042 281.5 385.042C280.029 384.621 276.88 386.056 273.5 388.566C272.884 389.024 272.26 389.517 271.637 390.042C267.549 393.484 263.509 398.263 262 403.042C261.667 404.208 262.6 407.942 269 413.542C266.5 415.375 260.4 419.342 256 420.542C251.6 421.742 245.5 424.542 232 426.542L217 423.042L206.5 391.542C208.5 372.875 206.3 329.042 181.5 303.042Z" fill="#D9AD12"/>
<path fill-rule="evenodd" clip-rule="evenodd" d="M239.563 247.689C239.891 251.343 240.327 256.516 240.648 261.021C240.819 263.428 240.957 265.652 241.027 267.353C241.062 268.203 241.081 268.933 241.078 269.494C241.076 269.774 241.069 270.024 241.054 270.232C241.041 270.411 241.017 270.652 240.949 270.858C240.766 271.406 240.393 271.988 239.812 272.713C239.222 273.452 238.353 274.415 237.099 275.731C234.591 278.365 230.46 282.496 223.727 289.229L223.707 289.249C218.13 294.825 209.897 298.427 201.973 300.679C195.135 302.622 188.434 303.586 183.678 303.925C195.33 316.922 201.743 333.851 205.03 349.84C208.425 366.362 208.504 381.978 207.517 391.431L217.772 422.195L232.042 425.525C242.052 424.028 247.869 422.109 252.055 420.728C253.427 420.275 254.625 419.88 255.737 419.577C257.811 419.011 260.347 417.771 262.715 416.412C264.512 415.38 266.174 414.302 267.402 413.451C264.706 410.963 263.058 408.831 262.102 407.116C261.57 406.163 261.245 405.325 261.079 404.615C260.918 403.923 260.891 403.284 261.039 402.767L261.042 402.754L261.046 402.741C262.577 397.895 266.522 393.15 270.517 389.683C267.603 377.976 263.427 361.48 259.323 345.795C256.374 334.523 253.463 323.675 251.086 315.326C249.897 311.15 248.844 307.608 247.987 304.952C247.558 303.624 247.182 302.526 246.864 301.687C246.537 300.821 246.299 300.303 246.156 300.079C244.949 298.181 242.605 296.899 239.972 296.098C237.368 295.307 234.668 295.042 233 295.042V293.042C234.832 293.042 237.732 293.327 240.554 294.185C243.346 295.034 246.251 296.503 247.844 299.005C248.111 299.424 248.411 300.123 248.735 300.98C249.069 301.863 249.457 302.995 249.89 304.338C250.758 307.026 251.818 310.594 253.009 314.778C255.391 323.143 258.304 333.999 261.253 345.268L274.049 386.947C275.376 386.04 276.659 385.303 277.809 384.791C278.549 384.463 279.256 384.216 279.902 384.083C280.535 383.952 281.188 383.913 281.775 384.08C283.799 384.659 285.331 386.082 286.415 387.23C286.689 387.521 286.943 387.803 287.169 388.053C287.399 388.308 287.594 388.523 287.769 388.701C287.931 388.867 288.048 388.972 288.131 389.034C288.147 389.033 288.165 389.031 288.185 389.03C288.301 389.021 288.454 389.007 288.644 388.988C289.021 388.951 289.527 388.897 290.133 388.829C291.344 388.694 292.94 388.507 294.681 388.299C298.13 387.886 302.136 387.392 304.802 387.059C309.71 385.68 312.718 384.343 314.477 383.264C315.362 382.722 315.901 382.262 316.207 381.919C316.247 381.875 316.282 381.833 316.312 381.796C311.741 377.354 310.5 372.6 310.5 370.542V370.306L310.606 370.095C311.687 367.931 314.006 365.33 316.362 363.016C318.534 360.882 320.826 358.908 322.432 357.615C320.352 342.922 313.246 325.993 305.118 310.763C297.748 296.953 289.578 284.614 283.668 276.717C283.76 281.876 283.07 288.083 281.119 293.092C279.926 296.157 278.223 298.87 275.841 300.58C273.417 302.322 270.388 302.953 266.749 302.01C259.742 300.193 256.425 296.741 255.111 292.661C253.875 288.823 254.482 284.588 254.968 281.191C254.982 281.094 254.996 280.997 255.01 280.9C255.381 278.302 254.824 276.759 254.134 275.866C253.71 275.317 253.202 274.969 252.738 274.767C251.109 282.053 252.228 286.762 252.894 288.094L252.944 288.193L252.97 288.299C253.233 289.35 253.489 290.96 253.331 292.308C253.253 292.972 253.06 293.72 252.576 294.283C252.029 294.921 251.238 295.178 250.336 295.028C248.901 294.789 247.497 293.969 246.376 293.13C245.237 292.278 244.284 291.327 243.741 290.693L243.59 290.516L243.532 290.292C241.527 282.523 240.984 278.121 241.382 274.677C241.689 272.015 242.569 269.939 243.627 267.444C243.93 266.729 244.248 265.978 244.572 265.17C245.713 262.317 246.203 258.901 246.338 255.749C246.458 252.954 246.297 250.423 246.09 248.769C243.844 247.954 242.171 247.656 241.005 247.603C240.375 247.575 239.905 247.619 239.578 247.686C239.573 247.687 239.568 247.688 239.563 247.689ZM288.203 389.082C288.204 389.083 288.201 389.081 288.194 389.077C288.199 389.08 288.203 389.081 288.203 389.082ZM272.339 388.191L271.631 385.884C271.835 386.7 272.034 387.498 272.228 388.277C272.265 388.248 272.302 388.219 272.339 388.191ZM241.095 245.605C242.619 245.674 244.684 246.08 247.359 247.108L247.903 247.317L247.989 247.893C248.248 249.623 248.477 252.562 248.337 255.835C248.197 259.099 247.687 262.766 246.429 265.913C246.064 266.824 245.722 267.634 245.406 268.379C244.38 270.806 243.64 272.555 243.368 274.906C243.019 277.932 243.464 281.979 245.409 289.561C245.888 290.093 246.665 290.848 247.574 291.529C248.603 292.298 249.699 292.894 250.664 293.055C250.954 293.104 251.018 293.029 251.055 292.985L251.058 292.981C251.159 292.863 251.284 292.587 251.344 292.076C251.458 291.108 251.28 289.824 251.054 288.882C250.095 286.849 249.027 281.31 251.03 273.299L251.24 272.461L252.1 272.547C253.179 272.655 254.64 273.25 255.716 274.643C256.81 276.058 257.419 278.182 256.99 281.183L256.974 281.292C256.47 284.819 255.922 288.656 257.014 292.048C258.075 295.343 260.758 298.39 267.251 300.074C270.362 300.88 272.771 300.324 274.674 298.956C276.621 297.558 278.137 295.239 279.256 292.366C281.495 286.616 281.995 279.032 281.504 273.632L281.197 270.254L283.288 272.925C289.324 280.638 298.605 294.312 306.882 309.821C315.15 325.313 322.467 342.731 324.491 357.91L324.567 358.474L324.12 358.827C322.56 360.058 320.088 362.159 317.763 364.443C315.503 366.663 313.477 368.965 312.507 370.772C312.606 372.489 313.779 376.774 318.176 380.805L318.5 381.102V381.542C318.5 382.162 318.145 382.752 317.699 383.252C317.224 383.784 316.513 384.362 315.523 384.969C313.54 386.185 310.319 387.591 305.27 389.005L305.198 389.025L305.124 389.034C302.456 389.367 298.404 389.868 294.919 390.285C293.176 390.493 291.573 390.681 290.355 390.817C289.181 390.948 288.272 391.042 288 391.042C287.561 391.042 287.21 390.833 286.999 390.684C286.768 390.52 286.544 390.309 286.341 390.101C286.132 389.889 285.91 389.643 285.685 389.394L285.643 389.347C285.426 389.107 285.201 388.859 284.961 388.603C283.92 387.501 282.701 386.425 281.225 386.003C281.076 385.961 280.784 385.943 280.307 386.041C279.843 386.137 279.277 386.328 278.622 386.619C277.314 387.2 275.746 388.144 274.096 389.369C273.497 389.814 272.888 390.295 272.281 390.807C268.264 394.189 264.391 398.811 262.959 403.324C262.94 403.403 262.912 403.666 263.027 404.159C263.142 404.653 263.388 405.316 263.849 406.142C264.769 407.795 266.519 410.042 269.659 412.789L270.597 413.611L269.591 414.348C268.313 415.285 266.132 416.756 263.71 418.146C261.303 419.529 258.589 420.872 256.263 421.507C255.239 421.786 254.101 422.162 252.775 422.599C248.567 423.989 242.469 426.002 232.147 427.531L231.958 427.559L216.228 423.889L205.483 391.652L205.506 391.435C206.495 382.199 206.449 366.678 203.071 350.243C199.691 333.802 192.999 316.546 180.776 303.732L179.241 302.122L181.464 302.042C186.057 301.878 193.652 300.964 201.427 298.755C209.22 296.54 217.07 293.058 222.293 287.835C229.048 281.079 233.162 276.966 235.651 274.352C236.897 273.044 237.716 272.132 238.25 271.464C238.773 270.811 238.968 270.457 239.043 270.251C239.044 270.239 239.052 270.19 239.059 270.089C239.07 269.942 239.076 269.741 239.078 269.482C239.081 268.967 239.064 268.273 239.029 267.436C238.96 265.764 238.823 263.564 238.653 261.163C238.312 256.363 237.837 250.795 237.504 247.132L237.454 246.577L237.9 246.242C238.231 245.994 238.68 245.827 239.179 245.726C239.695 245.621 240.333 245.571 241.095 245.605Z" fill="black"/>
<path d="M94.5 466.417L98.5 391.917C99.3334 392.084 101.1 392.317 101.5 391.917C101.9 391.517 108 441.417 111 466.417C123.333 467.251 151.5 463.917 165.5 443.917L104 389.417C104 389.417 105 387.917 105 386.917L179 428.417C187.667 413.251 200.6 374.017 183 338.417L105.5 381.417C105.5 379.817 104.5 378.25 104 377.917L173 321.917C170.5 313.917 150.5 288.542 111.5 291.542L108 286.917C103.6 284.517 100.833 279.584 100 277.417C143.5 269.542 206.5 293.88 206.5 378.417C206.5 463.542 149.5 479.917 105.5 479.917C58.4761 479.917 1 453.542 1 378.417C1 319.217 41.3333 291.875 61.5 285.542C63.9 288.342 68 295.875 69.5 299.542C52.7 302.742 37.3333 321.251 32 329.917L96.5 378.417C95.5 379.417 94.8334 380.417 94.5 381.417L22.5 349.417C16.1667 366.917 9.70002 407.217 34.5 428.417C54.3334 414.084 94 385.617 94 386.417C94 387.217 94.6667 388.417 95 388.917L47 443.917C50.6667 449.751 65.3 462.417 94.5 466.417Z" fill="#554B58"/>
<path d="M98.5 376.917L95 343.917C97 344.417 99.5 344.417 102 343.917L101.501 376.853C101.508 376.874 101.507 376.896 101.5 376.917L101.501 376.853C101.439 376.67 100.793 376.495 98.5 376.917Z" fill="#554B58"/>
<path fill-rule="evenodd" clip-rule="evenodd" d="M170.157 292.458C191.633 308.339 207.5 335.875 207.5 378.417C207.5 421.225 193.152 446.929 173.098 461.89C153.099 476.811 127.595 480.917 105.5 480.917C81.8216 480.917 55.4608 474.28 34.9964 458.124C14.4952 441.939 0 416.267 0 378.417C0 318.678 40.7234 291.019 61.2004 284.588L61.8299 284.39L62.2593 284.891C63.5288 286.372 65.1945 289.031 66.7093 291.727C68.2322 294.437 69.6538 297.277 70.4255 299.163L70.8887 300.295L69.6871 300.524C61.5558 302.073 53.681 307.355 47.1289 313.414C40.9724 319.106 36.0754 325.399 33.3361 329.671L97.6093 378L93.8547 342.6L95.2426 342.947C97.069 343.404 99.4155 343.414 101.804 342.937L103.019 342.694L102.502 376.789C102.516 376.953 102.492 377.112 102.443 377.251L100.506 376.903C100.508 376.991 100.523 377.082 100.554 377.174C100.626 377.385 100.755 377.515 100.842 377.581C100.926 377.645 100.993 377.669 101.009 377.674C101.036 377.683 100.988 377.663 100.807 377.658C100.455 377.647 99.8001 377.695 98.681 377.901L97.7137 378.079L98.0215 378.31L97.2071 379.124C96.2811 380.05 95.7191 380.922 95.4487 381.733L95.1004 382.778L23.0826 350.77C20.0743 359.498 17.1655 373.287 17.8239 387.483C18.4973 402.001 22.8901 416.808 34.5576 427.142C44.4676 419.982 58.9748 409.549 71.1083 400.927C77.307 396.522 82.8897 392.588 86.9242 389.804C88.9401 388.412 90.5765 387.304 91.7121 386.566C92.2767 386.199 92.7329 385.914 93.0552 385.73C93.2083 385.643 93.3684 385.558 93.5082 385.501C93.5574 385.481 93.7058 385.42 93.8866 385.405C93.9636 385.398 94.2147 385.382 94.4817 385.532C94.8475 385.737 95 386.104 95 386.417C95 386.595 95.09 386.932 95.2868 387.369C95.4699 387.776 95.6922 388.153 95.8321 388.363L96.2562 388.999L48.2568 443.998C52.2956 449.706 66.3003 461.291 93.56 465.274L97.5634 390.71L98.6961 390.937C99.08 391.013 99.6788 391.105 100.211 391.131C100.48 391.144 100.697 391.139 100.846 391.118C100.874 391.115 100.896 391.111 100.914 391.107C101.051 391.007 101.244 390.919 101.487 390.915C101.794 390.909 102.014 391.042 102.126 391.129C102.312 391.274 102.398 391.449 102.416 391.485L102.418 391.488C102.472 391.597 102.503 391.706 102.517 391.755C102.552 391.881 102.587 392.045 102.622 392.224C102.693 392.593 102.783 393.137 102.888 393.826C103.101 395.211 103.385 397.232 103.722 399.74C104.398 404.757 105.292 411.742 106.267 419.518C108.175 434.729 110.393 452.978 111.893 465.468C118.006 465.769 127.572 465.073 137.327 462.025C147.276 458.916 157.334 453.388 164.162 444.068L102.685 389.588L103.167 388.863L103.168 388.862L103.174 388.854C103.179 388.846 103.188 388.832 103.199 388.814C103.222 388.777 103.257 388.722 103.299 388.653C103.383 388.512 103.495 388.316 103.606 388.095C103.852 387.603 104 387.162 104 386.917L104 385.21L178.616 427.056C182.799 419.435 187.838 406.372 189.858 390.95C191.919 375.221 190.834 357.098 182.562 339.804L104.5 383.116V381.417C104.5 380.814 104.307 380.175 104.041 379.635C103.91 379.369 103.769 379.145 103.645 378.98C103.508 378.796 103.432 378.74 103.445 378.749L102.316 377.996L171.823 321.584C171.108 319.739 169.539 317.046 167.047 314.008C164.269 310.622 160.385 306.859 155.373 303.43C145.358 296.579 130.832 291.058 111.577 292.539L111.032 292.581L107.33 287.689C105.051 286.398 103.222 284.502 101.861 282.678C100.462 280.802 99.5168 278.946 99.0667 277.776L98.6329 276.648L99.8219 276.433C121.808 272.453 148.72 276.607 170.157 292.458ZM105.278 389.214L166.831 443.76L166.319 444.491C159.151 454.732 148.385 460.665 137.923 463.934C127.462 467.203 117.212 467.839 110.933 467.415L110.106 467.359L110.007 466.536C108.507 454.037 106.232 435.314 104.283 419.767C103.308 411.992 102.415 405.015 101.74 400.007C101.403 397.502 101.121 395.495 100.912 394.13C100.852 393.741 100.799 393.408 100.752 393.132C100.539 393.142 100.321 393.139 100.114 393.128C99.8899 393.118 99.6613 393.098 99.4394 393.073L95.4403 467.555L94.3643 467.408C64.9607 463.38 50.02 450.601 46.1534 444.449L45.7577 443.82L93.7696 388.806C93.666 388.616 93.5608 388.407 93.4632 388.19C93.4219 388.099 93.3798 388.001 93.3386 387.898C93.1775 388 92.9985 388.115 92.8016 388.243C91.6905 388.965 90.073 390.061 88.0602 391.45C84.0374 394.226 78.4638 398.154 72.2668 402.557C59.8739 411.364 45.0013 422.062 35.0858 429.228L34.4482 429.689L33.8502 429.177C21.1618 418.331 16.5248 402.641 15.8261 387.576C15.1273 372.51 18.3564 357.928 21.5597 349.077L21.9251 348.067L93.983 380.093C94.258 379.569 94.606 379.057 95.0204 378.556L30.6709 330.169L31.1484 329.393C33.8604 324.986 39.0927 318.121 45.7711 311.945C52.1233 306.072 59.8782 300.734 68.0972 298.817C67.3225 297.103 66.1849 294.876 64.9657 292.707C63.6323 290.334 62.2412 288.101 61.1556 286.703C41.0933 293.314 2 320.384 2 378.417C2 415.692 16.2428 440.77 36.2357 456.554C56.2653 472.367 82.1545 478.917 105.5 478.917C127.405 478.917 152.401 474.836 171.902 460.287C191.348 445.78 205.5 420.734 205.5 378.417C205.5 336.422 189.867 309.521 168.968 294.067C148.435 278.883 122.71 274.668 101.433 278.184C101.897 279.123 102.578 280.294 103.464 281.482C104.757 283.215 106.446 284.931 108.479 286.039L108.668 286.142L111.969 290.505C131.444 289.131 146.237 294.757 156.502 301.779C161.677 305.319 165.7 309.213 168.593 312.74C171.472 316.249 173.277 319.449 173.954 321.619L174.157 322.266L105.431 378.044C105.571 378.256 105.708 378.494 105.834 378.75C105.996 379.077 106.147 379.449 106.264 379.85L183.432 337.034L183.896 337.974C192.807 355.997 193.976 374.916 191.842 391.21C189.708 407.495 184.265 421.219 179.868 428.913L179.376 429.775L105.65 388.428C105.565 388.638 105.475 388.829 105.394 388.989C105.355 389.067 105.317 389.142 105.278 389.214ZM100.519 375.659L100.982 345.103C99.3046 345.336 97.6434 345.356 96.1364 345.15L99.3831 375.762C99.8309 375.701 100.206 375.669 100.519 375.659Z" fill="black"/>
<path d="M72.5002 307.042C71.3002 301.442 69.6669 300.042 69.0002 300.042C53.4002 302.442 37.8335 321.042 32.0002 330.042C55.5 347.042 96.0751 378.467 96.5 378.042C97 377.542 98 377.042 98.5 376.542L94.5002 343.542C79.0002 339.542 73.8945 313.549 72.5002 307.042Z" fill="#1BA0B1"/>
<path d="M113 306.042C112 305.042 116 313.042 118.5 321.042C120 329.542 119 339.542 102.5 343.542L101.5 376.542C103.1 377.342 103.834 377.875 104 378.042L173 322.042C159.5 294.542 126 289.542 111.5 291.542L115 295.542C122 299.542 124.5 302.042 126 304.042C127.2 305.642 130.167 313.208 131.5 317.042C132.167 319.208 133.3 323.642 130.5 324.042C127 324.542 124.5 321.042 124 319.542C123.5 318.042 122.851 314.392 120 311.542C117 308.542 114.118 307.16 113 306.042Z" fill="#1BA0B1"/>
<path d="M105 387.042C105.334 386.708 105.9 385.042 105.5 381.042L183 338.542C201 376.542 187.167 414.542 179 428.542L105 387.042Z" fill="#1BA0B1"/>
<path d="M101.5 392.042C102.167 391.708 103.6 390.742 104 389.542L165.5 444.042C161 450.542 146.2 466.542 111 466.542L101.5 392.042Z" fill="#1BA0B1"/>
<path d="M95.0002 389.042C95.5002 390.042 96.0002 391.042 98.5002 392.042C99.1567 392.304 95.5002 441.042 94.5002 466.542C82.8335 465.042 57.0001 458.442 47.0002 444.042L95.0002 389.042Z" fill="#1BA0B1"/>
<path d="M22.5002 349.542L94.5002 381.542C94.1669 382.375 93.5002 384.042 94.0002 386.542L64.5002 406.542L34.5002 428.542C23.0001 419.042 8.00004 392.042 22.5002 349.542Z" fill="#1BA0B1"/>
<path fill-rule="evenodd" clip-rule="evenodd" d="M113.513 292.324L115.642 294.757C122.6 298.748 125.2 301.309 126.8 303.442C127.17 303.935 127.619 304.796 128.083 305.783C128.56 306.798 129.092 308.03 129.625 309.324C130.69 311.911 131.771 314.778 132.445 316.713L132.451 316.73L132.456 316.748C132.791 317.835 133.282 319.606 133.3 321.193C133.309 321.983 133.204 322.842 132.808 323.565C132.381 324.345 131.655 324.887 130.642 325.032C128.502 325.337 126.719 324.407 125.461 323.289C124.217 322.184 123.362 320.789 123.051 319.858C122.958 319.578 122.865 319.252 122.761 318.889C122.247 317.1 121.484 314.44 119.293 312.249C117.852 310.808 116.435 309.751 115.223 308.907C115.12 308.835 115.014 308.762 114.909 308.689C114.964 308.824 115.022 308.963 115.081 309.105C115.171 309.323 115.265 309.55 115.362 309.785C116.55 312.661 118.19 316.697 119.455 320.744L119.474 320.805L119.485 320.868C120.248 325.195 120.414 330.088 118.136 334.443C115.906 338.707 111.443 342.253 103.477 344.327L102.519 375.941C103.063 376.227 103.491 376.476 103.82 376.683C103.872 376.715 103.922 376.747 103.97 376.779L171.746 321.772C165.087 308.741 153.776 300.964 142.275 296.666C131.533 292.652 120.699 291.704 113.513 292.324ZM102.319 342.557C110.351 340.599 114.417 337.237 116.364 333.516C118.326 329.765 118.253 325.433 117.526 321.279C116.294 317.346 114.694 313.408 113.513 310.549C113.419 310.319 113.326 310.096 113.237 309.88C112.771 308.755 112.385 307.822 112.149 307.188C112.021 306.845 111.892 306.474 111.856 306.204C111.847 306.136 111.828 305.979 111.864 305.798C111.898 305.627 112.061 305.114 112.651 304.982C113.078 304.886 113.398 305.092 113.459 305.131L113.462 305.133C113.571 305.203 113.655 305.283 113.707 305.335C113.921 305.548 114.249 305.802 114.719 306.133C114.972 306.311 115.222 306.482 115.496 306.668C115.758 306.846 116.041 307.039 116.366 307.266C117.624 308.142 119.148 309.275 120.707 310.835C123.31 313.438 124.229 316.703 124.72 318.45C124.808 318.761 124.881 319.023 124.949 319.226C125.138 319.794 125.783 320.9 126.79 321.794C127.782 322.676 128.998 323.246 130.359 323.052C130.745 322.997 130.928 322.835 131.054 322.604C131.213 322.315 131.308 321.855 131.3 321.216C131.285 319.951 130.881 318.431 130.55 317.353C129.889 315.455 128.824 312.632 127.775 310.085C127.25 308.808 126.731 307.609 126.273 306.635C125.802 305.633 125.431 304.949 125.2 304.642C123.811 302.79 121.437 300.372 114.504 296.41L114.358 296.327L109.526 290.805L111.363 290.551C118.783 289.528 130.95 290.299 142.975 294.793C155.017 299.292 167.005 307.561 173.898 321.601L174.249 322.316L103.93 379.386L103.293 378.749C103.282 378.74 103.134 378.614 102.755 378.376C102.383 378.142 101.829 377.824 101.053 377.436L100.481 377.15L101.465 344.698C100.531 344.836 99.4217 344.997 98.55 345.041C98.4458 345.046 98.346 345.051 98.2495 345.057C97.7382 345.085 97.3184 345.108 96.8059 345.055C96.483 345.021 96.1247 344.958 95.6668 344.857L99.5513 376.905L99.2071 377.249C98.8856 377.57 98.4397 377.867 98.0982 378.095L98.0546 378.124C97.6511 378.393 97.3717 378.584 97.2071 378.749C96.8892 379.067 96.5063 379.05 96.4161 379.044C96.2838 379.035 96.1799 379.003 96.1326 378.987C96.0287 378.952 95.9362 378.905 95.8771 378.874C95.7471 378.805 95.5899 378.709 95.4207 378.599C95.0749 378.376 94.5909 378.041 93.9902 377.613C92.7849 376.755 91.0661 375.49 88.9498 373.914C84.7643 370.795 79.0006 366.439 72.5267 361.545L72.3001 361.374C59.1629 351.444 43.1535 339.345 31.414 330.852L30.6443 330.295L31.161 329.498C34.1168 324.938 39.5191 317.971 46.1588 311.833C52.7755 305.715 60.7492 300.3 68.8481 299.054L68.9237 299.042H69.0001C69.4922 299.042 69.9392 299.283 70.2952 299.576C70.67 299.885 71.0426 300.33 71.4034 300.92C72.1248 302.101 72.8645 303.97 73.478 306.832C73.5163 307.011 73.5574 307.205 73.6014 307.412C74.3594 310.978 75.9687 318.55 79.1279 325.834C82.496 333.599 87.4812 340.698 94.75 342.574C96.0076 342.898 96.5863 343.021 97.0127 343.066C97.3563 343.101 97.602 343.088 98.1064 343.061C98.2092 343.056 98.3228 343.049 98.4502 343.043C99.2486 343.003 100.199 342.862 101.099 342.729C101.524 342.666 101.938 342.605 102.319 342.557ZM93.5877 344.325C85.7323 341.958 80.6091 334.275 77.2931 326.63C74.0509 319.155 72.4057 311.409 71.6477 307.84C71.6028 307.629 71.5611 307.432 71.5223 307.251C70.9358 304.514 70.2588 302.883 69.6969 301.963C69.4161 301.504 69.1803 301.249 69.0238 301.12C68.9935 301.095 68.9682 301.076 68.948 301.063C61.513 302.277 53.9823 307.323 47.5165 313.301C41.39 318.965 36.3326 325.36 33.3617 329.793C45.0443 338.266 60.6611 350.069 73.5061 359.778L73.7269 359.945C80.2055 364.842 85.9647 369.196 90.1447 372.31C92.2593 373.885 93.9637 375.139 95.1505 375.984C95.6729 376.356 96.0866 376.643 96.3874 376.842C96.5661 376.712 96.7449 376.593 96.9018 376.489L96.9452 376.46C97.1389 376.331 97.304 376.219 97.4416 376.12L93.5877 344.325ZM112.293 306.749C112.294 306.749 112.294 306.75 112.294 306.75C112.291 306.747 112.29 306.746 112.293 306.749ZM183.45 337.155L183.904 338.114C202.101 376.53 188.118 414.896 179.864 429.046L179.368 429.895L103.359 387.268L104.258 386.37C104.268 386.35 104.296 386.296 104.332 386.193C104.398 386.006 104.475 385.709 104.535 385.279C104.654 384.42 104.7 383.086 104.505 381.141L104.439 380.483L183.45 337.155ZM106.555 381.604C106.691 383.324 106.646 384.614 106.516 385.555C106.458 385.968 106.383 386.322 106.295 386.621L178.624 427.185C186.676 412.818 199.323 376.447 182.545 339.932L106.555 381.604ZM21.9069 348.184L95.7863 381.019L95.4264 381.919C95.1166 382.693 94.539 384.137 94.9807 386.346L95.111 386.997L65.0765 407.359L34.4636 429.809L33.8633 429.313C22.0103 419.521 6.93336 392.071 21.5537 349.219L21.9069 348.184ZM23.0976 350.902L93.24 382.076C92.9465 383 92.6754 384.342 92.9084 386.074L63.9236 405.725L34.5453 427.269C23.5664 417.704 9.55648 391.711 23.0976 350.902ZM95.2275 387.261L95.8945 388.595C96.1444 389.094 96.3334 389.461 96.7072 389.835C97.0836 390.211 97.7047 390.647 98.8715 391.113C99.183 391.238 99.3315 391.472 99.3796 391.555C99.4397 391.658 99.4709 391.753 99.4863 391.804C99.5181 391.911 99.5333 392.015 99.5419 392.085C99.5602 392.235 99.5694 392.42 99.5741 392.618C99.5838 393.022 99.577 393.592 99.5574 394.3C99.5179 395.721 99.4244 397.757 99.2913 400.26C99.0249 405.27 98.5978 412.189 98.1194 419.89L98.0187 421.511C97.0818 436.584 95.9814 454.289 95.4993 466.581L95.4565 467.673L94.3726 467.534C88.4673 466.774 79.0099 464.731 69.7562 461.059C60.5302 457.398 51.3482 452.056 46.1787 444.612L45.734 443.972L95.2275 387.261ZM103.53 387.789L166.827 443.882L166.322 444.611C161.657 451.35 146.564 467.542 111 467.542H110.12L100.418 391.465L101.053 391.147C101.315 391.016 101.767 390.738 102.189 390.367C102.623 389.984 102.932 389.584 103.051 389.226L103.53 387.789ZM48.2742 444.103C53.185 450.741 61.6643 455.696 70.4939 459.2C79.0248 462.585 87.7437 464.561 93.5451 465.402C94.0485 453.147 95.1129 436.021 96.0216 421.401L96.1232 419.766C96.6019 412.062 97.0283 405.153 97.2941 400.154C97.4271 397.653 97.5194 395.639 97.5581 394.245C97.5763 393.59 97.5823 393.086 97.5761 392.736C96.5457 392.272 95.826 391.782 95.293 391.249C95.1225 391.078 94.9754 390.907 94.8465 390.739L48.2742 444.103ZM104.25 391.1C104.015 391.393 103.757 391.65 103.511 391.867C103.198 392.144 102.872 392.382 102.576 392.573L111.88 465.538C144.825 465.285 159.303 450.806 164.163 444.193L104.25 391.1Z" fill="black"/>
<path d="M100.5 376.542C99.3473 376.542 94 378.042 94 384.042C94 391.542 99 392.042 100 392.042C101.861 392.042 105.5 388.542 105.5 383.542C105.5 380.042 103 376.542 100.5 376.542Z" fill="#3CD367"/>
<path fill-rule="evenodd" clip-rule="evenodd" d="M98.665 375.927C99.3893 375.671 100.058 375.542 100.5 375.542C102.212 375.542 103.725 376.711 104.751 378.148C105.8 379.617 106.5 381.567 106.5 383.542C106.5 386.287 105.502 388.621 104.244 390.273C103.615 391.098 102.908 391.771 102.203 392.246C101.521 392.706 100.747 393.042 100 393.042C99.3805 393.042 97.63 392.895 96.0136 391.645C94.3461 390.357 93 388.036 93 384.042C93 380.693 94.5132 378.537 96.2128 377.245C97.0488 376.61 97.9206 376.19 98.665 375.927ZM97.4227 378.838C96.1604 379.797 95 381.39 95 384.042C95 387.547 96.1539 389.226 97.2364 390.063C98.37 390.939 99.6195 391.042 100 391.042C100.184 391.042 100.563 390.94 101.086 390.587C101.587 390.25 102.139 389.735 102.652 389.061C103.679 387.713 104.5 385.797 104.5 383.542C104.5 382.016 103.95 380.467 103.124 379.31C102.275 378.122 101.288 377.542 100.5 377.542C100.366 377.542 99.9337 377.6 99.3312 377.813C98.7487 378.018 98.0676 378.348 97.4227 378.838Z" fill="black"/>
<path d="M268.5 465.542L243.5 462.542C244.7 459.342 244.667 454.542 244 450.542L268.5 451.042C271 451.042 275.167 449.042 277 448.042L370 385.542C373.5 384.542 374.5 387.042 375 387.542C376.768 389.309 378.5 395.042 376 399.542C373.5 404.042 277.114 463.796 274 465.042C271.5 466.042 270 465.542 268.5 465.542Z" fill="#918A93"/>
<path fill-rule="evenodd" clip-rule="evenodd" d="M375.597 386.688C375.668 386.786 375.698 386.823 375.706 386.833C375.708 386.835 375.708 386.836 375.707 386.835C376.795 387.922 377.729 390.028 378.089 392.365C378.454 394.737 378.26 397.534 376.874 400.027C376.717 400.311 376.448 400.595 376.188 400.844C375.905 401.116 375.54 401.431 375.107 401.782C374.24 402.485 373.057 403.372 371.61 404.41C368.714 406.487 364.72 409.204 359.998 412.333C350.553 418.593 338.166 426.528 325.764 434.358C313.362 442.188 300.94 449.917 291.423 455.767C286.665 458.691 282.632 461.147 279.689 462.912C278.218 463.794 277.016 464.505 276.132 465.016C275.287 465.504 274.65 465.859 274.371 465.97C272.23 466.827 270.607 466.693 269.407 466.594C269.072 466.567 268.771 466.542 268.5 466.542H268.44L242.117 463.383L242.564 462.191C243.673 459.233 243.669 454.639 243.014 450.706L242.815 449.517L268.51 450.042C269.556 450.039 271.067 449.605 272.633 448.987C274.146 448.389 275.587 447.671 276.481 447.186L369.573 384.624L369.725 384.58C371.757 384 373.209 384.417 374.225 385.179C374.705 385.539 375.051 385.949 375.297 386.274C375.389 386.396 375.475 386.516 375.542 386.611C375.562 386.639 375.581 386.665 375.597 386.688ZM370.422 386.463C371.797 386.106 372.557 386.428 373.025 386.779C373.295 386.982 373.512 387.229 373.703 387.481C373.775 387.577 373.837 387.663 373.901 387.753C373.924 387.786 373.948 387.82 373.973 387.854C374.048 387.959 374.164 388.12 374.293 388.249C374.973 388.929 375.789 390.573 376.112 392.669C376.43 394.73 376.24 397.05 375.126 399.056C375.126 399.056 375.126 399.056 375.125 399.057C375.116 399.069 375.038 399.176 374.804 399.4C374.576 399.619 374.258 399.895 373.846 400.229C373.025 400.896 371.878 401.756 370.444 402.785C367.578 404.841 363.608 407.541 358.893 410.666C349.466 416.914 337.093 424.84 324.696 432.667C312.301 440.493 299.886 448.217 290.376 454.063C285.621 456.986 281.594 459.437 278.66 461.197C277.193 462.077 276.002 462.781 275.131 463.285C274.695 463.536 274.344 463.735 274.08 463.88C273.948 463.952 273.841 464.008 273.76 464.05C273.719 464.071 273.687 464.086 273.663 464.098C273.655 464.101 273.649 464.104 273.644 464.106C273.632 464.112 273.628 464.114 273.629 464.113C271.964 464.779 270.923 464.697 269.788 464.607C269.4 464.576 269 464.545 268.561 464.542L244.817 461.693C245.61 458.71 245.603 454.917 245.163 451.566L268.49 452.042H268.5C269.953 452.042 271.771 451.477 273.367 450.847C274.998 450.203 276.536 449.434 277.479 448.92L277.519 448.898L370.422 386.463Z" fill="black"/>
<path d="M220.5 455.042C220.5 452.242 223 451.042 224.5 451.042C226.5 451.042 229.5 452.042 229.5 455.042C229.5 458.242 227 459.042 224.5 459.042C222.5 459.042 220.5 457.842 220.5 455.042Z" fill="#3CD367"/>
<path fill-rule="evenodd" clip-rule="evenodd" d="M221.313 451.211C222.303 450.419 223.523 450.042 224.5 450.042C225.637 450.042 227.083 450.321 228.28 451.069C229.521 451.844 230.5 453.14 230.5 455.042C230.5 456.951 229.727 458.284 228.477 459.084C227.302 459.836 225.825 460.042 224.5 460.042C223.312 460.042 222.063 459.686 221.095 458.847C220.104 457.988 219.5 456.701 219.5 455.042C219.5 453.305 220.29 452.029 221.313 451.211ZM222.562 452.773C221.96 453.255 221.5 453.979 221.5 455.042C221.5 456.182 221.896 456.895 222.405 457.336C222.937 457.797 223.688 458.042 224.5 458.042C225.675 458.042 226.698 457.848 227.398 457.399C228.023 457 228.5 456.333 228.5 455.042C228.5 453.944 227.979 453.239 227.22 452.765C226.417 452.263 225.363 452.042 224.5 452.042C223.977 452.042 223.197 452.264 222.562 452.773Z" fill="black"/>
<path fill-rule="evenodd" clip-rule="evenodd" d="M223 431.542C213 431.542 201 437.042 201 457.042C201 471.554 216 477.042 223 477.042C228.5 477.042 244 473.542 244 457.042C244 436.542 233.5 431.542 223 431.542ZM220.5 455.042C220.5 452.242 223 451.042 224.5 451.042C226.5 451.042 229.5 452.042 229.5 455.042C229.5 458.242 227 459.042 224.5 459.042C222.5 459.042 220.5 457.842 220.5 455.042Z" fill="#554B58"/>
<path fill-rule="evenodd" clip-rule="evenodd" d="M207.576 436.053C212.063 431.962 217.832 430.542 223 430.542C228.393 430.542 233.939 431.825 238.133 435.886C242.332 439.952 245 446.632 245 457.042C245 465.672 240.917 470.971 236.104 474.07C231.348 477.132 225.9 478.042 223 478.042C219.299 478.042 213.601 476.609 208.808 473.307C203.979 469.981 200 464.701 200 457.042C200 446.835 203.069 440.162 207.576 436.053ZM208.924 437.531C204.931 441.171 202 447.249 202 457.042C202 463.895 205.521 468.615 209.942 471.66C214.399 474.731 219.701 476.042 223 476.042C225.6 476.042 230.652 475.201 235.021 472.388C239.333 469.612 243 464.912 243 457.042C243 446.952 240.418 440.882 236.742 437.323C233.061 433.758 228.107 432.542 223 432.542C218.168 432.542 212.937 433.871 208.924 437.531ZM221.313 451.211C222.303 450.419 223.523 450.042 224.5 450.042C225.637 450.042 227.083 450.321 228.28 451.069C229.521 451.844 230.5 453.14 230.5 455.042C230.5 456.951 229.727 458.284 228.477 459.084C227.302 459.836 225.825 460.042 224.5 460.042C223.312 460.042 222.063 459.686 221.095 458.847C220.104 457.988 219.5 456.701 219.5 455.042C219.5 453.305 220.29 452.029 221.313 451.211ZM222.562 452.773C221.96 453.255 221.5 453.979 221.5 455.042C221.5 456.182 221.896 456.895 222.405 457.336C222.937 457.797 223.688 458.042 224.5 458.042C225.676 458.042 226.698 457.848 227.399 457.399C228.023 457 228.5 456.333 228.5 455.042C228.5 453.944 227.98 453.239 227.22 452.765C226.417 452.263 225.363 452.042 224.5 452.042C223.977 452.042 223.198 452.264 222.562 452.773Z" fill="black"/>
<path d="M221.5 452.542L202.5 413.542C204.5 407.942 206 395.875 206.5 390.542C213 410.708 225.7 451.042 224.5 451.042C223.3 451.042 221.833 452.042 221.5 452.542Z" fill="#918A93"/>
<path fill-rule="evenodd" clip-rule="evenodd" d="M205.504 390.448L207.452 390.235C210.703 400.321 215.505 415.452 219.344 428.063C221.264 434.367 222.945 440.05 224.072 444.16C224.635 446.212 225.064 447.889 225.316 449.059C225.44 449.638 225.528 450.128 225.563 450.489C225.579 450.656 225.591 450.868 225.562 451.067C225.55 451.157 225.516 451.346 225.397 451.539C225.252 451.773 224.95 452.042 224.5 452.042C224.144 452.042 223.653 452.203 223.163 452.477C222.931 452.607 222.726 452.748 222.569 452.874C222.491 452.938 222.43 452.993 222.387 453.037C222.346 453.077 222.331 453.098 222.331 453.098L221.365 454.547L201.417 413.602L201.558 413.205C202.524 410.502 203.387 406.169 204.075 401.787C204.759 397.427 205.256 393.097 205.504 390.448ZM206.986 395.324C206.734 397.404 206.419 399.745 206.051 402.097C205.394 406.284 204.556 410.576 203.581 413.477L221.834 450.944C221.947 450.871 222.065 450.8 222.187 450.732C222.562 450.521 223.015 450.315 223.5 450.184C223.465 449.988 223.419 449.753 223.36 449.479C223.121 448.366 222.704 446.733 222.144 444.689C221.024 440.607 219.349 434.946 217.431 428.646C214.129 417.8 210.113 405.084 206.986 395.324Z" fill="black"/>
<path d="M13.5 411.542C2.56088 385.284 7.00002 346.875 11.5 330.542C-14 375.542 6.50005 480.542 101 480.042C176.6 479.642 200.167 434.208 202.5 411.542C198.5 419.708 189.1 437.442 183.5 443.042C176.5 450.042 160.5 473.542 110 475.042C59.5 476.542 30.1644 451.542 13.5 411.542Z" fill="#160E1B" fill-opacity="0.2"/>
<path d="M42 422.042C20.4 417.242 20.3333 372.042 23 350.042C7.8 394.442 24.6667 420.542 35 428.042L42 422.042Z" fill="#160E1B" fill-opacity="0.2"/>
<path d="M53.5 436.542L47 444.042C60.1186 460.042 84.4661 465.708 95 466.542V456.042C68.6 453.642 56.3333 442.042 53.5 436.542Z" fill="#160E1B" fill-opacity="0.2"/>
<path d="M159 438.542C139.4 455.742 118.167 458.375 110 457.542L111.5 466.542C144.3 467.342 161.167 451.208 165.5 443.042L159 438.542Z" fill="#160E1B" fill-opacity="0.2"/>
<path d="M96 378.542C96 382.375 97.2 390.342 102 391.542C98 391.708 91.2 389.342 96 378.542Z" fill="#160E1B" fill-opacity="0.2"/>
<path d="M223 451.042L205 402.542L203 414.542L221 452.042C220.2 459.242 223.667 459.375 225.5 458.542C222.3 456.942 222.5 452.875 223 451.042Z" fill="#160E1B" fill-opacity="0.2"/>
<path d="M207.5 437.042C201.348 451.042 206 474.542 228.5 476.542C209.5 480.042 190.7 461.042 207.5 437.042Z" fill="#160E1B" fill-opacity="0.2"/>
<path d="M268.5 460.542C264.5 460.942 250.833 458.042 244.5 456.542V462.542C253.667 463.542 272.3 465.542 273.5 465.542C275 465.542 374.5 403.542 376.5 399.542C378.1 396.342 377.167 393.542 376.5 392.542C367 405.542 273.5 460.042 268.5 460.542Z" fill="#160E1B" fill-opacity="0.2"/>
<path d="M194.5 301.042L181.5 303.542C203.9 320.742 207.5 369.042 206.5 391.042L217.5 422.542L234 426.042L253 421.042C249.5 421.708 240.8 422.342 234 419.542C225.5 416.042 221 392.542 218.5 388.542C216 384.542 212.5 329.542 211 319.542C209.8 311.542 199.5 303.875 194.5 301.042Z" fill="#160E1B" fill-opacity="0.2"/>
<path d="M266 329.042C260 310.642 251.833 304.375 248.5 303.542L273.5 388.542L281 386.042L288 391.042L312 386.042L317.5 381.042L313.5 377.542C306.333 379.875 290.7 383.842 285.5 381.042C279 377.542 273.5 352.042 266 329.042Z" fill="#160E1B" fill-opacity="0.2"/>
<path d="M37 145.542C33.8 150.342 35.6667 153.542 37 154.542C46.6 160.542 51 155.042 52 151.542C51 150.042 49.2 146.442 50 144.042C50.8 141.642 54.3333 141.042 56 141.042L83 149.042L85.5 144.042L49 135.542C45 136.042 40.2 140.742 37 145.542Z" fill="#160E1B" fill-opacity="0.2"/>
</g>
</svg>
