<svg width="378" height="505" viewBox="0 0 378 505" fill="none" xmlns="http://www.w3.org/2000/svg">
<mask id="mask0" mask-type="alpha" maskUnits="userSpaceOnUse" x="0" y="0" width="378" height="505">
<rect width="378" height="505" fill="#C4C4C4"/>
</mask>
<g mask="url(#mask0)">
<path d="M120.344 43.4998C122.344 44.6998 123.177 42.9998 123.344 41.9998L124 36.4998C125 34.9998 125.344 32.9998 127.844 30.4998L127.882 30.4612C129.366 28.9779 130.627 27.7161 133 26.9998C134.656 26.4998 148.011 28.4997 154.344 29.4997C153.344 24.4998 154.844 20.2498 154.344 20.4998C152.744 21.2998 150.511 21.9998 149.844 21.9998C144.677 21.9998 134.044 21.7998 132.844 20.9998C131.644 20.1998 129.011 21.3331 127.844 21.9998C125.344 25.6664 120.044 33.2998 118.844 34.4998C117.344 35.9998 117.844 41.9998 120.344 43.4998Z" fill="#BD22F3"/>
<path fill-rule="evenodd" clip-rule="evenodd" d="M153.887 21.2659C153.232 21.5554 152.532 21.8182 151.899 22.025C151.469 22.1656 151.064 22.2822 150.719 22.3643C150.387 22.4434 150.073 22.4998 149.844 22.4998C147.256 22.4998 143.298 22.4497 139.835 22.2993C138.104 22.2241 136.489 22.1236 135.227 21.9908C134.598 21.9244 134.047 21.8491 133.61 21.763C133.392 21.7199 133.195 21.6727 133.026 21.62C132.865 21.5695 132.7 21.5049 132.567 21.4158C132.381 21.2922 132.104 21.2211 131.725 21.2247C131.35 21.2283 130.918 21.3049 130.466 21.4313C129.613 21.6698 128.754 22.0667 128.191 22.3782C126.938 24.2149 125.023 26.9882 123.264 29.4643C122.369 30.7241 121.513 31.9091 120.805 32.8556C120.106 33.7897 119.528 34.523 119.197 34.8533C118.935 35.1159 118.707 35.6441 118.588 36.4054C118.471 37.1474 118.47 38.0359 118.589 38.9337C118.709 39.8315 118.947 40.7175 119.296 41.4587C119.648 42.2054 120.092 42.7656 120.601 43.071C121.045 43.3376 121.381 43.4165 121.624 43.4123C121.86 43.4083 122.049 43.3258 122.211 43.1909C122.557 42.9021 122.773 42.3696 122.849 41.9285L123.518 36.3219L123.584 36.2224C123.814 35.8772 124.011 35.4964 124.221 35.0631C124.276 34.949 124.333 34.8307 124.391 34.7087C124.55 34.3756 124.721 34.0156 124.917 33.6429C125.458 32.6083 126.197 31.4394 127.49 30.1462C127.49 30.1462 127.49 30.1462 127.49 30.1462L127.547 30.0891C129.025 28.6117 130.363 27.2737 132.856 26.5211C133.148 26.4328 133.614 26.414 134.141 26.4227C134.693 26.4317 135.388 26.4738 136.185 26.5406C137.78 26.6743 139.811 26.9098 141.982 27.1914C146.021 27.7152 150.563 28.4009 153.728 28.8968C153.364 26.598 153.487 24.5022 153.66 22.9748C153.719 22.4525 153.788 21.965 153.843 21.5779C153.859 21.4648 153.874 21.3602 153.887 21.2659ZM154.653 23.0873C154.469 24.7183 154.348 26.9732 154.834 29.4017L154.975 30.1056L154.266 29.9936C151.101 29.4939 146.184 28.7447 141.854 28.1831C139.688 27.9022 137.674 27.669 136.101 27.5371C135.314 27.4711 134.645 27.4311 134.125 27.4226C133.58 27.4136 133.266 27.4417 133.145 27.4784C130.903 28.1553 129.718 29.3329 128.236 30.8147L128.197 30.8533C126.991 32.0601 126.308 33.1412 125.802 34.1066C125.617 34.4615 125.457 34.7961 125.301 35.1241C125.241 35.2498 125.181 35.3745 125.121 35.499C124.925 35.9038 124.723 36.3002 124.483 36.6752L123.839 42.0705L123.837 42.082C123.744 42.6387 123.461 43.4498 122.852 43.9586C122.534 44.2237 122.13 44.4038 121.642 44.4122C121.161 44.4205 120.642 44.2619 120.087 43.9285C119.346 43.4839 118.79 42.7316 118.391 41.8845C117.99 41.032 117.729 40.043 117.598 39.0658C117.468 38.0887 117.466 37.1022 117.6 36.2504C117.73 35.4179 118.003 34.6337 118.49 34.1462C118.76 33.8765 119.294 33.2056 120.004 32.2564C120.706 31.3196 121.556 30.1421 122.449 28.8852C124.234 26.3719 126.182 23.5497 127.431 21.7181L127.496 21.6228L127.596 21.5656C128.205 21.2174 129.194 20.7486 130.197 20.4682C130.699 20.328 131.223 20.2295 131.716 20.2248C132.205 20.2201 132.707 20.3074 133.121 20.5837C133.137 20.5946 133.196 20.6253 133.325 20.6657C133.447 20.7038 133.606 20.7429 133.804 20.7819C134.198 20.8598 134.716 20.9313 135.332 20.9963C136.563 21.1259 138.155 21.2254 139.878 21.3002C143.323 21.4498 147.265 21.4998 149.844 21.4998C149.948 21.4998 150.164 21.4686 150.487 21.3915C150.799 21.3173 151.177 21.2089 151.589 21.0745C152.413 20.8052 153.347 20.4391 154.12 20.0526C154.182 20.0217 154.288 19.981 154.421 19.9907C154.572 20.0017 154.699 20.0727 154.787 20.1706C154.864 20.2562 154.899 20.3477 154.915 20.4042C154.933 20.4645 154.941 20.5216 154.945 20.5667C154.959 20.7295 154.937 20.9462 154.91 21.1589C154.888 21.3432 154.859 21.5437 154.827 21.7677C154.774 22.1344 154.712 22.5638 154.653 23.0873Z" fill="black"/>
<path d="M165.344 9.49977C156.403 11.288 155.088 17.9998 154.677 21.391C152.688 37.8454 161.844 43.8368 174.077 41.5609C187.844 38.9997 182.036 18.2063 181.042 16.614C180.047 15.0216 177.844 6.99976 165.344 9.49977Z" fill="#BD22F3"/>
<path fill-rule="evenodd" clip-rule="evenodd" d="M177.184 11.9041C175.085 10.1291 171.573 8.76385 165.442 9.9901C161.1 10.8584 158.654 12.9068 157.232 15.115C155.797 17.3425 155.377 19.7752 155.174 21.4511C154.19 29.5907 155.976 35.0114 159.382 38.1312C162.792 41.2559 167.956 42.1912 173.986 41.0693C177.283 40.456 179.379 38.7648 180.683 36.5525C181.999 34.3198 182.524 31.526 182.595 28.7115C182.666 25.9026 182.284 23.1145 181.82 20.9273C181.588 19.8347 181.338 18.8972 181.116 18.1874C180.887 17.4558 180.703 17.0161 180.618 16.8789C180.48 16.6582 180.335 16.3636 180.166 16.0182C179.624 14.9155 178.829 13.2947 177.184 11.9041ZM181.138 15.7138C181.273 15.9923 181.38 16.2115 181.466 16.3491C181.629 16.61 181.845 17.1684 182.07 17.8888C182.302 18.631 182.561 19.5991 182.798 20.7199C183.273 22.9593 183.668 25.8282 183.595 28.7368C183.522 31.6399 182.98 34.6242 181.544 37.0603C180.096 39.5169 177.755 41.3852 174.169 42.0525C167.966 43.2065 162.434 42.2841 158.706 38.8685C154.972 35.448 153.176 29.6458 154.181 21.3311C154.389 19.6157 154.831 16.9969 156.391 14.5736C157.964 12.131 160.647 9.92938 165.246 9.00952C171.615 7.73576 175.454 9.13143 177.83 11.1405C179.668 12.6943 180.616 14.6426 181.138 15.7138Z" fill="black"/>
<path d="M165.873 11.917C158.084 13.4748 156.938 19.3216 156.581 22.2758C154.848 36.6095 162.824 41.8288 173.481 39.8461C185.473 37.6151 180.414 19.5015 179.548 18.1144C178.681 16.7272 176.762 9.73923 165.873 11.917Z" fill="#160E1B" fill-opacity="0.7"/>
<path fill-rule="evenodd" clip-rule="evenodd" d="M176.187 14.0115C174.359 12.4653 171.299 11.276 165.958 12.3442C162.176 13.1007 160.045 14.885 158.806 16.8087C157.557 18.749 157.19 20.8682 157.014 22.3281C156.156 29.4187 157.712 34.1408 160.679 36.8585C163.65 39.5805 168.148 40.3953 173.401 39.418C176.273 38.8837 178.099 37.4104 179.235 35.4833C180.381 33.5384 180.839 31.1046 180.901 28.6529C180.963 26.2059 180.63 23.7772 180.226 21.8718C180.024 20.9201 179.805 20.1033 179.612 19.485C179.413 18.8478 179.253 18.4647 179.178 18.3452C179.058 18.153 178.932 17.8963 178.784 17.5954C178.313 16.6349 177.62 15.223 176.187 14.0115ZM179.631 17.3303C179.749 17.5729 179.842 17.7638 179.917 17.8837C180.059 18.111 180.247 18.5974 180.443 19.2249C180.646 19.8715 180.871 20.7148 181.078 21.6912C181.491 23.6419 181.836 26.1412 181.772 28.6749C181.708 31.2038 181.236 33.8035 179.985 35.9256C178.724 38.0656 176.685 39.6932 173.561 40.2744C168.157 41.2798 163.338 40.4762 160.091 37.5008C156.838 34.5212 155.273 29.4668 156.149 22.2236C156.33 20.7293 156.714 18.448 158.074 16.337C159.444 14.2092 161.781 12.2913 165.787 11.49C171.335 10.3804 174.68 11.5962 176.75 13.3463C178.351 14.6999 179.177 16.3971 179.631 17.3303Z" fill="black"/>
<path opacity="0.4" d="M166.492 14.9003C159.015 16.3958 157.915 22.0087 157.572 24.8447C155.908 38.6051 163.565 43.6156 173.795 41.7123C185.308 39.5705 180.451 22.1814 179.619 20.8498C178.787 19.5181 176.945 12.8097 166.492 14.9003Z" fill="#160E1B"/>
<path d="M205.939 0.978776C196.998 2.76698 195.683 9.47878 195.273 12.87C193.283 29.3244 202.439 35.3158 214.673 33.0399C228.439 30.4788 222.632 9.68534 221.637 8.09298C220.642 6.50063 218.439 -1.52123 205.939 0.978776Z" fill="#BD22F3"/>
<path fill-rule="evenodd" clip-rule="evenodd" d="M217.779 3.38309C215.68 1.60812 212.168 0.242856 206.037 1.4691C201.695 2.33745 199.249 4.38579 197.827 6.59404C196.392 8.82146 195.972 11.2542 195.769 12.9301C194.785 21.0697 196.571 26.4904 199.977 29.6102C203.387 32.7349 208.551 33.6702 214.581 32.5483C217.878 31.935 219.974 30.2438 221.278 28.0315C222.593 25.7988 223.119 23.005 223.19 20.1905C223.261 17.3816 222.879 14.5935 222.415 12.4063C222.183 11.3137 221.933 10.3762 221.711 9.66638C221.482 8.93481 221.298 8.49508 221.213 8.35795C221.075 8.13722 220.93 7.84263 220.761 7.4972C220.219 6.39453 219.424 4.77374 217.779 3.38309ZM221.733 7.19283C221.868 7.47128 221.975 7.69048 222.061 7.82809C222.224 8.08905 222.44 8.64744 222.665 9.3678C222.897 10.11 223.156 11.0781 223.393 12.1989C223.868 14.4383 224.263 17.3073 224.19 20.2158C224.116 23.1189 223.575 26.1032 222.139 28.5393C220.691 30.9959 218.35 32.8642 214.764 33.5315C208.561 34.6855 203.029 33.7631 199.301 30.3475C195.567 26.927 193.771 21.1249 194.776 12.8101C194.984 11.0947 195.425 8.4759 196.986 6.05256C198.559 3.61005 201.242 1.40838 205.841 0.488524C212.21 -0.785236 216.049 0.61043 218.425 2.61947C220.263 4.1733 221.211 6.12158 221.733 7.19283Z" fill="black"/>
<path d="M188.5 19.4998C186 19.9998 184.011 21.4998 183.344 22.4998C183.511 23.6665 183 27.2349 183 28.4998C183 29.9998 186.704 24.8797 189.344 23.9998C192.344 22.9998 195 24.4998 196 25.9998L195.083 20.4998C192.083 18.9998 190.051 19.1897 188.5 19.4998Z" fill="#BD22F3"/>
<path fill-rule="evenodd" clip-rule="evenodd" d="M194.633 20.8358C191.881 19.5185 190.029 19.7039 188.598 19.9901C187.416 20.2266 186.35 20.7009 185.501 21.2354C184.736 21.7173 184.173 22.2313 183.861 22.6366C183.886 22.9551 183.88 23.3534 183.86 23.7752C183.835 24.3045 183.786 24.9082 183.733 25.5075C183.709 25.7679 183.685 26.0259 183.662 26.2767C183.602 26.9303 183.546 27.534 183.518 27.9992C183.843 27.7325 184.266 27.327 184.772 26.8428C184.793 26.8224 184.815 26.8018 184.836 26.7812C185.463 26.1814 186.188 25.4916 186.925 24.8961C187.654 24.307 188.438 23.7748 189.186 23.5255C191.597 22.7218 193.811 23.4096 195.244 24.5019L194.633 20.8358ZM188.402 19.0096C190.033 18.6834 192.184 18.4912 195.307 20.0526L195.535 20.1665L196.493 25.9176L195.584 26.2772C194.695 24.9442 192.265 23.553 189.502 24.4742C188.93 24.6648 188.261 25.1026 187.553 25.6741C186.853 26.2393 186.157 26.9008 185.528 27.5035C185.492 27.5374 185.457 27.5713 185.422 27.605C184.848 28.1546 184.313 28.6673 183.914 28.9575C183.805 29.0369 183.692 29.1105 183.58 29.1656C183.477 29.2164 183.326 29.2761 183.156 29.2732C182.947 29.2696 182.742 29.1708 182.618 28.9701C182.517 28.8082 182.5 28.6289 182.5 28.4998C182.5 27.9744 182.583 27.08 182.67 26.1475C182.692 25.9051 182.715 25.6602 182.736 25.4185C182.79 24.8218 182.837 24.2355 182.861 23.7281C182.885 23.2107 182.883 22.8109 182.849 22.5705L182.822 22.3814L182.928 22.2225C183.313 21.6449 184.038 20.9748 184.968 20.3893C185.906 19.7988 187.085 19.2731 188.402 19.0096Z" fill="black"/>
<path d="M189.344 21.4999C187.493 22.1167 183.96 24.3102 183.5 24.9999C183 25.4999 183.5 27.6275 183.5 28.4999C183.5 29.5344 187.523 24.6067 189.344 23.9999C191.413 23.3102 195.31 24.4654 196 25.4999L195.5 22.4999C193.431 21.4654 190.378 21.155 189.344 21.4999Z" fill="#160E1B" fill-opacity="0.4"/>
<path d="M206.529 2.91704C198.74 4.47478 197.595 10.3216 197.237 13.2758C195.504 27.6095 203.48 32.8288 214.137 30.8461C226.129 28.6151 221.07 10.5015 220.204 9.11438C219.337 7.72724 217.418 0.73923 206.529 2.91704Z" fill="#160E1B" fill-opacity="0.7"/>
<path fill-rule="evenodd" clip-rule="evenodd" d="M216.844 5.01153C215.015 3.46532 211.956 2.27601 206.615 3.34422C202.832 4.10066 200.702 5.885 199.463 7.80866C198.213 9.74902 197.846 11.8682 197.67 13.3281C196.812 20.4187 198.369 25.1408 201.335 27.8585C204.306 30.5805 208.804 31.3953 214.058 30.418C216.929 29.8837 218.755 28.4104 219.891 26.4833C221.037 24.5384 221.495 22.1046 221.557 19.6529C221.619 17.2059 221.286 14.7772 220.882 12.8718C220.68 11.9201 220.462 11.1033 220.268 10.485C220.069 9.84776 219.909 9.4647 219.834 9.34524C219.714 9.15295 219.588 8.89633 219.441 8.59542C218.969 7.63486 218.276 6.22296 216.844 5.01153ZM220.287 8.33029C220.405 8.57285 220.498 8.76379 220.573 8.88367C220.715 9.111 220.903 9.59742 221.1 10.2249C221.302 10.8715 221.527 11.7148 221.734 12.6912C222.148 14.6419 222.492 17.1412 222.428 19.6749C222.364 22.2038 221.892 24.8035 220.641 26.9256C219.38 29.0656 217.341 30.6932 214.217 31.2744C208.813 32.2798 203.995 31.4762 200.747 28.5008C197.494 25.5212 195.929 20.4668 196.805 13.2236C196.986 11.7293 197.371 9.44799 198.73 7.33697C200.101 5.20924 202.437 3.29132 206.444 2.49002C211.992 1.38042 215.336 2.59621 217.406 4.34633C219.007 5.6999 219.833 7.3971 220.287 8.33029Z" fill="black"/>
<path d="M121 39.4998C120.508 40.6653 119.344 41.8332 119.344 42.4998L121.844 43.9998L122.844 43.4998L123.344 41.4998L124.5 34.4998L128.5 29.9998C129.667 27.8332 132.544 26.4998 133.344 26.4998C134.144 26.4998 140.011 27.1665 142.844 27.4998L154.344 29.4998L153.844 27.4998L146.844 26.4998C142.511 25.9998 133.444 25.0998 131.844 25.4998C130.244 25.8998 127.333 27.3332 126.5 28.9998L122.844 34.4998C122.511 35.4998 121.844 37.4998 121 39.4998Z" fill="#160E1B" fill-opacity="0.4"/>
<path opacity="0.4" d="M207.148 6.90035C199.671 8.39578 198.571 14.0087 198.228 16.8447C196.564 30.6051 204.221 35.6156 214.452 33.7123C225.964 31.5705 221.108 14.1814 220.276 12.8498C219.444 11.5181 217.601 4.80965 207.148 6.90035Z" fill="#160E1B"/>
<path d="M81.5001 418.918C81.0001 414.918 91.5001 362.918 94.0001 356.418C94.5704 354.935 95.3712 350.096 96.2864 343.418C99.5001 344.418 112.5 343.418 117.5 332.918C120.5 325.418 118.5 318.418 113 305.918C117.5 309.918 120.5 310.918 123 317.418C124.154 320.418 125 324.418 131 324.418C133.5 322.418 132 319.418 131 315.418C129 309.918 127.5 306.418 124.5 302.418C123 300.418 111.5 295.918 108.5 286.918C145 303.418 178.377 303.467 181.5 303.418C213.5 302.918 233.667 281.418 240 270.918C239.333 285.585 241.5 313.918 244 321.418C246.5 327.418 247.5 365.918 248 370.918C248.4 374.918 254 395.918 255 408.418C255 415.918 255.4 423.218 255 426.418C254.5 430.418 225.311 445.637 217 447.418C210 448.918 203.333 450.085 200.5 450.918C199.833 450.085 199 445.418 198 443.918C196.059 441.006 190 406.418 190 397.918V365.918C190 360.718 184.667 348.751 182 343.418C179.833 344.251 174.8 346.918 172 350.918C169.2 354.918 160.833 383.918 156.5 397.918C155.333 414.418 154.76 445.329 151 447.418C146.5 449.918 126 448.918 118 447.418C110 445.918 91.5001 438.418 88.0001 434.918C83.2312 430.149 81.9001 422.118 81.5001 418.918Z" fill="#71DCEA"/>
<path fill-rule="evenodd" clip-rule="evenodd" d="M181.485 302.418C213.027 301.925 232.921 280.718 239.144 270.401L240.999 270.963C240.668 278.239 241.04 288.943 241.81 298.777C242.194 303.691 242.676 308.373 243.217 312.289C243.758 316.202 244.349 319.285 244.938 321.069C245.293 321.938 245.592 323.284 245.856 324.901C246.128 326.567 246.377 328.605 246.605 330.881C247.06 335.434 247.436 340.982 247.749 346.486C248.054 351.861 248.298 357.173 248.497 361.498C248.708 366.074 248.868 369.546 248.995 370.818C249.088 371.746 249.496 373.741 250.099 376.493C250.322 377.512 250.57 378.628 250.835 379.819C251.275 381.8 251.761 383.987 252.253 386.27C253.827 393.578 255.491 402.014 255.997 408.338L256 408.378V408.418C256 411.101 256.051 413.753 256.099 416.21C256.118 417.179 256.136 418.117 256.15 419.015C256.2 422.157 256.203 424.858 255.992 426.542C255.93 427.043 255.669 427.502 255.389 427.885C255.094 428.286 254.702 428.703 254.246 429.128C253.332 429.978 252.072 430.94 250.587 431.96C247.609 434.006 243.62 436.358 239.404 438.63C235.185 440.905 230.719 443.11 226.78 444.862C222.866 446.602 219.399 447.926 217.21 448.396C214.531 448.97 211.899 449.495 209.519 449.971C208.782 450.118 208.068 450.261 207.385 450.398C204.475 450.984 202.148 451.476 200.782 451.877L200.138 452.067L199.719 451.543C199.546 451.326 199.417 451.057 199.321 450.827C199.216 450.58 199.115 450.293 199.018 449.992C198.851 449.478 198.677 448.867 198.502 448.252C198.472 448.149 198.443 448.046 198.414 447.943C198.205 447.212 197.993 446.487 197.774 445.855C197.548 445.203 197.342 444.734 197.168 444.473C196.976 444.184 196.805 443.782 196.651 443.356C196.488 442.91 196.316 442.359 196.137 441.726C195.778 440.459 195.377 438.815 194.955 436.914C194.109 433.109 193.167 428.231 192.287 423.185C190.533 413.132 189 402.271 189 397.918V365.918C189 364.757 188.697 363.14 188.162 361.228C187.632 359.333 186.894 357.215 186.067 355.079C184.58 351.232 182.822 347.368 181.521 344.705C179.176 345.772 175.147 348.167 172.819 351.491C172.537 351.895 172.135 352.697 171.63 353.899C171.135 355.078 170.568 356.574 169.948 358.316C168.709 361.798 167.27 366.221 165.779 370.967C163.996 376.647 162.15 382.752 160.489 388.247C159.383 391.905 158.359 395.293 157.49 398.103C157.233 401.751 157.005 406.097 156.764 410.687C156.735 411.245 156.706 411.807 156.676 412.372C156.399 417.622 156.1 423.109 155.72 428.147C155.34 433.18 154.876 437.795 154.267 441.294C153.963 443.04 153.616 444.546 153.212 445.699C153.01 446.275 152.783 446.794 152.522 447.221C152.268 447.636 151.935 448.043 151.486 448.292C150.792 448.677 149.864 448.96 148.822 449.176C147.764 449.396 146.521 449.56 145.158 449.68C142.43 449.918 139.158 449.981 135.794 449.918C129.076 449.792 121.891 449.165 117.816 448.401C113.712 447.631 107.01 445.349 100.931 442.842C97.8821 441.585 94.9636 440.26 92.5791 439.024C90.2335 437.809 88.2905 436.622 87.293 435.625C84.7523 433.084 83.1642 429.718 82.161 426.639C81.1542 423.55 80.7116 420.672 80.5078 419.042C80.4621 418.676 80.4844 418.143 80.534 417.545C80.586 416.919 80.6768 416.134 80.8 415.217C81.0465 413.382 81.4277 410.984 81.9052 408.209C82.8604 402.658 84.2061 395.57 85.6447 388.408C87.0833 381.246 88.6163 374.004 89.9468 368.142C91.2683 362.319 92.4097 357.767 93.0667 356.059C93.3102 355.426 93.639 353.947 94.0286 351.696C94.4115 349.483 94.8387 346.617 95.2957 343.282L95.456 342.112L96.5836 342.463C97.2168 342.66 98.4905 342.792 100.187 342.678C101.857 342.566 103.854 342.222 105.905 341.532C110.001 340.156 114.231 337.434 116.584 332.517C119.394 325.46 117.589 318.83 112.085 306.321L113.664 305.17C114.653 306.05 115.59 306.792 116.477 307.496C119.477 309.877 121.916 311.812 123.933 317.059C124.054 317.373 124.168 317.684 124.28 317.99C124.743 319.258 125.174 320.436 125.962 321.416C126.814 322.475 128.136 323.335 130.63 323.412C130.949 323.098 131.135 322.772 131.241 322.432C131.379 321.992 131.404 321.461 131.32 320.792C131.236 320.12 131.051 319.367 130.81 318.497C130.74 318.245 130.665 317.981 130.588 317.709C130.409 317.081 130.218 316.406 130.043 315.711C128.062 310.267 126.602 306.887 123.7 303.018C123.613 302.902 123.383 302.689 122.923 302.36C122.486 302.047 121.925 301.686 121.255 301.263C121.106 301.169 120.952 301.072 120.794 300.973C119.546 300.187 118.029 299.232 116.474 298.102C112.989 295.567 109.153 292.038 107.551 287.234L106.828 285.065L108.912 286.007C145.222 302.421 178.433 302.466 181.485 302.418ZM183.438 344.075C184.746 346.768 186.466 350.567 187.933 354.357C188.773 356.529 189.535 358.711 190.088 360.689C190.637 362.65 191 364.478 191 365.918V397.918C191 402.065 192.496 412.747 194.257 422.841C195.134 427.869 196.071 432.715 196.907 436.48C197.326 438.364 197.717 439.966 198.061 441.181C198.233 441.789 198.391 442.289 198.53 442.673C198.677 443.078 198.782 443.287 198.832 443.363C199.158 443.852 199.431 444.529 199.664 445.2C199.903 445.891 200.129 446.665 200.337 447.393C200.367 447.5 200.397 447.606 200.427 447.71C200.603 448.329 200.766 448.899 200.92 449.375C200.963 449.506 201.003 449.625 201.042 449.733C202.518 449.353 204.595 448.92 206.99 448.438C207.68 448.299 208.397 448.155 209.138 448.007C211.516 447.532 214.128 447.011 216.791 446.44C218.757 446.019 222.056 444.773 225.967 443.034C229.855 441.306 234.275 439.123 238.455 436.87C242.638 434.615 246.559 432.301 249.454 430.312C250.905 429.315 252.073 428.418 252.883 427.664C253.289 427.286 253.584 426.964 253.776 426.702C253.982 426.421 254.008 426.293 254.008 426.294C254.197 424.778 254.201 422.229 254.15 419.046C254.136 418.162 254.118 417.232 254.1 416.27C254.052 413.817 254.001 411.148 254 408.458C253.502 402.287 251.87 393.992 250.298 386.691C249.806 384.411 249.324 382.241 248.885 380.266C248.62 379.074 248.371 377.952 248.145 376.921C247.554 374.22 247.112 372.089 247.005 371.017C246.874 369.707 246.709 366.127 246.493 361.456C246.294 357.127 246.051 351.862 245.752 346.6C245.439 341.104 245.065 335.59 244.614 331.08C244.389 328.824 244.145 326.832 243.882 325.224C243.615 323.59 243.34 322.435 243.077 321.802L243.063 321.769L243.051 321.734C242.395 319.763 241.781 316.506 241.236 312.563C240.688 308.598 240.202 303.874 239.816 298.933C239.159 290.535 238.787 281.469 238.897 274.399C230.829 285.69 211.198 303.954 181.516 304.418C178.39 304.467 146.201 304.417 110.441 288.872C112.134 291.985 114.9 294.483 117.651 296.484C119.147 297.572 120.607 298.492 121.858 299.279C122.017 299.379 122.172 299.477 122.323 299.572C122.989 299.993 123.596 300.382 124.087 300.734C124.555 301.069 125.012 301.434 125.3 301.818C128.39 305.938 129.93 309.549 131.94 315.076L131.958 315.125L131.97 315.175C132.141 315.856 132.323 316.498 132.502 317.127C132.581 317.407 132.66 317.685 132.737 317.964C132.981 318.844 133.201 319.716 133.305 320.544C133.409 321.375 133.403 322.219 133.15 323.029C132.891 323.857 132.394 324.583 131.625 325.199L131.351 325.418H131C127.736 325.418 125.722 324.309 124.404 322.67C123.387 321.405 122.819 319.838 122.354 318.554C122.255 318.28 122.16 318.019 122.067 317.777C120.291 313.16 118.353 311.558 115.553 309.33C119.81 319.563 121.264 326.201 118.429 333.289L118.417 333.319L118.403 333.348C115.753 338.913 110.991 341.933 106.542 343.428C104.316 344.176 102.148 344.551 100.321 344.673C99.1136 344.754 98.0166 344.728 97.1312 344.61C96.7273 347.508 96.3465 350.03 95.9993 352.037C95.6171 354.245 95.2603 355.927 94.9334 356.777C94.3404 358.319 93.2319 362.704 91.8971 368.585C90.5713 374.426 89.0418 381.652 87.6055 388.802C86.1691 395.953 84.8272 403.022 83.8762 408.548C83.4005 411.313 83.024 413.684 82.7822 415.484C82.6612 416.384 82.5752 417.133 82.5272 417.711C82.4767 418.318 82.4756 418.659 82.4924 418.794C82.6886 420.364 83.1115 423.101 84.0625 426.02C85.0171 428.949 86.479 431.983 88.7072 434.211C89.4598 434.963 91.1418 436.027 93.4993 437.249C95.8179 438.45 98.6807 439.751 101.694 440.993C107.74 443.487 114.288 445.704 118.184 446.435C122.11 447.171 129.174 447.794 135.831 447.918C139.155 447.98 142.351 447.917 144.983 447.687C146.3 447.572 147.459 447.416 148.415 447.218C149.386 447.016 150.083 446.783 150.514 446.544C150.535 446.532 150.647 446.453 150.815 446.177C150.977 445.914 151.149 445.538 151.324 445.037C151.676 444.036 152 442.654 152.296 440.951C152.889 437.551 153.346 433.016 153.725 427.997C154.104 422.984 154.402 417.518 154.679 412.267C154.708 411.702 154.738 411.14 154.767 410.581C155.01 405.947 155.242 401.538 155.503 397.847L155.511 397.732L155.545 397.622C156.412 394.822 157.445 391.403 158.565 387.7C160.231 382.188 162.088 376.045 163.871 370.368C165.364 365.615 166.812 361.163 168.064 357.645C168.69 355.887 169.271 354.352 169.786 353.124C170.292 351.92 170.763 350.941 171.181 350.344C174.144 346.111 179.389 343.351 181.641 342.485L181.698 342.463L181.758 342.448C183.084 342.116 186.196 341.263 188.129 340.489L188.872 342.346C187.283 342.982 185.013 343.648 183.438 344.075Z" fill="black"/>
<path d="M192.5 316.918C194.1 312.518 193.167 305.751 192.5 302.918C191 302.918 181 303.918 181 303.918C181 303.918 181.833 313.585 181.5 317.918L192.5 316.918Z" fill="#1BA0B1"/>
<path fill-rule="evenodd" clip-rule="evenodd" d="M181 303.918L180.004 304.004L180.013 304.111C180.019 304.182 180.028 304.287 180.039 304.423C180.061 304.694 180.092 305.086 180.128 305.571C180.2 306.54 180.294 307.878 180.377 309.349C180.544 312.314 180.664 315.75 180.503 317.841L180.412 319.021L193.223 317.856L193.44 317.26C194.307 314.876 194.468 311.929 194.349 309.285C194.229 306.624 193.82 304.162 193.474 302.689L193.292 301.918H192.5C191.69 301.918 188.749 302.175 186.095 302.422C184.749 302.547 183.451 302.672 182.489 302.766C182.008 302.813 181.611 302.852 181.334 302.88L180.901 302.923C180.901 302.923 180.901 302.923 181 303.918ZM182.076 304.816C182.09 304.997 182.106 305.2 182.122 305.421C182.196 306.4 182.29 307.75 182.374 309.237C182.513 311.714 182.627 314.621 182.558 316.818L191.755 315.981C192.324 314.056 192.455 311.68 192.351 309.375C192.257 307.292 191.976 305.339 191.701 303.954C190.506 304.031 188.367 304.219 186.28 304.414C184.938 304.538 183.643 304.663 182.683 304.757C182.462 304.778 182.258 304.798 182.076 304.816ZM181 303.918L180.901 302.923L179.919 303.021L180.004 304.004L181 303.918Z" fill="black"/>
<path d="M240 286.918C241 294.418 197 316.918 192.5 316.918C193.5 313.418 193.7 306.018 192.5 302.418C204 300.918 227 290.918 240 271.418V286.918Z" fill="#2CCADF"/>
<path fill-rule="evenodd" clip-rule="evenodd" d="M241 268.115V286.859C241.075 287.557 240.893 288.257 240.588 288.913C240.27 289.596 239.789 290.296 239.198 291.002C238.016 292.414 236.299 293.958 234.248 295.558C230.139 298.764 224.546 302.307 218.81 305.598C213.069 308.892 207.154 311.952 202.386 314.19C200.003 315.309 197.896 316.228 196.234 316.869C195.404 317.19 194.673 317.446 194.067 317.623C193.489 317.792 192.935 317.918 192.5 317.918C192.186 317.918 191.891 317.771 191.702 317.52C191.513 317.27 191.452 316.945 191.539 316.643C192.004 315.015 192.301 312.39 192.325 309.696C192.35 306.992 192.098 304.375 191.551 302.734L191.168 301.583L192.371 301.426C197.961 300.697 206.46 297.878 215.185 292.803C223.9 287.735 232.773 280.456 239.168 270.863L241 268.115ZM193.762 303.241C194.182 305.093 194.346 307.441 194.325 309.715C194.306 311.793 194.132 313.896 193.822 315.607C194.297 315.456 194.864 315.255 195.514 315.004C197.116 314.385 199.177 313.488 201.536 312.38C206.253 310.165 212.119 307.131 217.815 303.863C223.517 300.592 229.017 297.103 233.018 293.981C235.022 292.417 236.614 290.973 237.664 289.718C238.189 289.091 238.555 288.539 238.774 288.069C238.995 287.594 239.038 287.265 239.009 287.05L239 286.984V274.574C232.595 283.199 224.302 289.815 216.19 294.532C207.843 299.387 199.627 302.266 193.762 303.241Z" fill="black"/>
<path d="M129 309.918C138.2 316.718 167.833 318.085 181.5 317.918V303.918C158.3 305.118 123.5 293.418 109 287.418C111 293.918 123 300.418 125 302.418C126.6 304.018 128.333 308.085 129 309.918Z" fill="#2CCADF"/>
<path fill-rule="evenodd" clip-rule="evenodd" d="M107.42 285.682L109.383 286.494C116.594 289.478 128.876 293.888 142.242 297.401C155.626 300.918 170.006 303.511 181.449 302.919L182.5 302.865V318.906L181.512 318.918C174.647 319.002 163.779 318.701 153.462 317.524C148.304 316.936 143.262 316.126 138.918 315.03C134.599 313.939 130.867 312.541 128.406 310.722L128.163 310.543L128.06 310.26C127.738 309.373 127.152 307.933 126.454 306.524C125.741 305.085 124.968 303.8 124.293 303.125C123.875 302.707 122.854 301.992 121.37 300.967C121.321 300.934 121.273 300.9 121.224 300.867C119.816 299.895 118.105 298.714 116.391 297.399C114.619 296.038 112.82 294.515 111.328 292.901C109.846 291.298 108.608 289.543 108.044 287.712L107.42 285.682ZM111.028 289.317C111.508 290.051 112.106 290.796 112.797 291.544C114.18 293.04 115.881 294.485 117.609 295.812C119.282 297.097 120.957 298.252 122.37 299.228C122.415 299.259 122.461 299.29 122.506 299.321L122.524 299.334C123.907 300.289 125.128 301.131 125.707 301.711C126.633 302.636 127.526 304.184 128.246 305.636C128.91 306.976 129.475 308.336 129.832 309.284C131.983 310.79 135.31 312.056 139.407 313.09C143.634 314.157 148.58 314.954 153.688 315.537C163.423 316.647 173.671 316.971 180.5 316.927V304.962C168.93 305.367 154.776 302.763 141.733 299.335C129.661 296.162 118.467 292.263 111.028 289.317Z" fill="black"/>
<path d="M224 317.918C222 314.318 221.333 306.585 221.5 302.918C224.5 301.751 232.5 296.418 240 289.918C240 295.518 242.667 314.251 244 322.918C236 333.418 226.5 322.418 224 317.918Z" fill="#1BA0B1"/>
<path fill-rule="evenodd" clip-rule="evenodd" d="M241 287.728V289.918C241 292.64 241.656 298.653 242.492 305.14C243.324 311.597 244.323 318.438 244.988 322.766L245.053 323.186L244.796 323.524C242.684 326.295 240.389 327.753 238.031 328.183C235.686 328.611 233.436 327.993 231.461 326.922C227.549 324.8 224.431 320.752 223.126 318.404C222.031 316.433 221.346 313.444 220.947 310.581C220.544 307.689 220.415 304.777 220.501 302.872L220.531 302.222L221.138 301.986C222.517 301.449 225.182 299.887 228.494 297.595C231.778 295.324 235.624 292.387 239.345 289.162L241 287.728ZM222.48 303.586C222.449 305.344 222.582 307.823 222.928 310.305C223.321 313.125 223.969 315.803 224.874 317.432C226.07 319.584 228.951 323.285 232.414 325.164C234.126 326.092 235.908 326.537 237.672 326.215C239.344 325.91 241.144 324.89 242.946 322.643C242.28 318.289 241.316 311.664 240.508 305.396C239.844 300.241 239.278 295.273 239.077 292.018C235.804 294.762 232.509 297.249 229.632 299.24C226.706 301.264 224.153 302.817 222.48 303.586Z" fill="black"/>
<path d="M118.5 321.918C120.1 319.918 120 314.918 120 312.418L114.5 307.918L118.5 321.918Z" fill="#1BA0B1"/>
<path fill-rule="evenodd" clip-rule="evenodd" d="M112.661 305.121L121 311.944V312.418C121 312.549 121 312.687 121.001 312.833C121.003 314.058 121.007 315.779 120.845 317.451C120.755 318.39 120.61 319.342 120.374 320.205C120.141 321.058 119.801 321.892 119.281 322.543L118.071 324.055L112.661 305.121ZM116.339 310.715L118.646 318.788C118.735 318.305 118.803 317.79 118.855 317.259C119.004 315.714 119.003 314.119 119.001 312.892L116.339 310.715Z" fill="black"/>
<path d="M94.0001 429.418C90.5735 427.133 83.8334 420.251 81.5001 416.918C80.7001 422.118 85.1668 430.751 87.0001 433.918C91.0001 437.418 101.358 442.832 111 445.918C123.5 449.918 150 449.418 151.5 447.418C152.7 445.818 153.333 441.751 153.5 439.918C136 444.418 125.5 441.918 117.5 439.918C110.224 438.099 98.5001 432.418 94.0001 429.418Z" fill="#2CCADF"/>
<path fill-rule="evenodd" clip-rule="evenodd" d="M80.8906 414.303L82.3193 416.344C83.4362 417.94 85.6563 420.446 88.0498 422.857C90.4479 425.273 92.9304 427.503 94.5548 428.586C96.7417 430.044 100.744 432.189 105.127 434.202C109.51 436.216 114.194 438.061 117.743 438.948C125.666 440.929 135.98 443.391 153.251 438.949L154.624 438.596L154.496 440.008C154.409 440.962 154.203 442.481 153.863 443.977C153.533 445.425 153.04 447.031 152.3 448.018C152.032 448.375 151.618 448.578 151.309 448.702C150.958 448.843 150.531 448.963 150.058 449.068C149.107 449.278 147.853 449.451 146.388 449.586C143.453 449.855 139.572 449.981 135.36 449.918C126.964 449.792 117.092 448.917 110.695 446.87C105.817 445.309 100.767 443.163 96.4321 440.965C92.1145 438.777 88.4365 436.503 86.3416 434.67L86.2174 434.562L86.1347 434.419C85.2021 432.808 83.601 429.81 82.3306 426.543C81.0794 423.325 80.0682 419.649 80.5117 416.766L80.8906 414.303ZM82.5178 419.824C82.764 421.667 83.3917 423.753 84.1946 425.818C85.379 428.864 86.8715 431.685 87.7822 433.272C89.7129 434.925 93.1553 437.062 97.3363 439.181C101.59 441.338 106.541 443.441 111.305 444.965C117.408 446.919 127.036 447.793 135.39 447.918C139.553 447.98 143.36 447.855 146.205 447.594C147.632 447.463 148.792 447.3 149.626 447.115C150.045 447.023 150.354 446.931 150.562 446.847C150.659 446.808 150.714 446.778 150.74 446.764C151.184 446.134 151.593 444.936 151.913 443.533C152.092 442.744 152.232 441.944 152.334 441.239C135.448 445.309 125.117 442.853 117.258 440.888C113.53 439.956 108.715 438.051 104.292 436.019C99.8683 433.987 95.7585 431.792 93.4454 430.25C91.6432 429.048 89.0424 426.696 86.6304 424.266C85.1442 422.769 83.6957 421.208 82.5178 419.824Z" fill="black"/>
<path d="M216.5 438.918C210.591 440.986 202.167 443.085 198.5 443.418L200.5 450.918C200.667 450.751 204.756 450.583 218.5 446.418C235 441.418 248.667 432.085 255 426.918V417.918C244 431.918 226.5 435.418 216.5 438.918Z" fill="#2CCADF"/>
<path fill-rule="evenodd" clip-rule="evenodd" d="M256 415.027V427.393L255.632 427.693C249.235 432.912 235.454 442.325 218.79 447.375C211.896 449.464 207.409 450.555 204.615 451.146C203.218 451.441 202.247 451.61 201.616 451.716C201.518 451.733 201.431 451.747 201.353 451.76C201.214 451.783 201.104 451.802 201.015 451.817L199.981 452.851L197.228 442.529L198.41 442.422C201.958 442.099 210.294 440.031 216.17 437.974C217.792 437.406 219.59 436.842 221.509 436.241C231.64 433.063 245.16 428.823 254.214 417.3L256 415.027ZM221.966 438.2C220.094 438.785 218.363 439.325 216.83 439.862C211.44 441.748 203.936 443.674 199.763 444.273L201.225 449.754C201.244 449.751 201.264 449.747 201.285 449.744C201.897 449.641 202.839 449.477 204.202 449.189C206.931 448.612 211.361 447.536 218.21 445.461C234.234 440.605 247.579 431.61 254 426.441V420.661C244.587 431.135 231.459 435.235 221.966 438.2Z" fill="black"/>
<path d="M115 308.418L116.5 314.418C118.167 315.64 117 315.418 118.5 323.418C120.775 335.55 115.5 337.918 111 341.418C107.4 344.218 100.167 344.585 97.0001 344.418L95.0001 354.418L90.0001 376.418L81.0001 417.918C81.0001 417.918 89.0001 437.918 89.5001 436.418C91.4559 430.551 90.0001 396.418 90.0001 396.418C91.5001 388.418 96.0001 360.418 97.0001 356.918C97.8689 353.877 98.0001 347.918 101.5 346.918C106.5 344.918 110.5 344.918 115 340.918C119.562 336.863 123.5 332.418 125 329.918C126.2 327.918 129.5 326.085 130.5 325.418L127.5 324.918L122 315.918L115 308.418Z" fill="#160E1B" fill-opacity="0.4"/>
<path d="M191 339.418L182.5 343.918C186.5 346.318 189.833 361.084 191 368.418V408.418L196 394.918C196.5 389.918 193.9 356.417 193.5 352.418C193.1 348.418 192.667 341.418 191 339.418Z" fill="#160E1B" fill-opacity="0.4"/>
<path d="M71.5001 459.918C69.0001 452.918 79.5 439.418 85.5 433.418C86.1667 434.751 85.1999 433.118 87.9999 435.918C91.4999 439.418 112 445.418 114 446.918C116 448.418 142 449.918 146 448.918C149.2 448.118 155 447.585 157.5 447.418C161 449.251 168.9 454.118 172.5 458.918C177 464.918 171.057 478.507 168 480.418C164 482.918 160 484.418 154.5 486.418C147.625 488.918 140 487.418 124 482.918C117.058 480.966 97.5001 477.418 84.5001 472.418C78.0001 468.918 74.0277 466.995 71.5001 459.918Z" fill="#ED9F29"/>
<path fill-rule="evenodd" clip-rule="evenodd" d="M85.7739 431.73L86.3943 432.971C86.4698 433.122 86.5257 433.237 86.5666 433.322C86.8986 433.53 87.4635 433.967 88.7069 435.211C89.0444 435.548 89.6495 435.971 90.5272 436.461C91.389 436.942 92.4536 437.455 93.661 437.987C96.0754 439.052 99.0035 440.168 101.906 441.229C103.359 441.76 104.858 442.296 106.27 442.801C107.605 443.278 108.862 443.728 109.93 444.12C111.062 444.535 112.056 444.912 112.835 445.234C113.57 445.539 114.231 445.842 114.6 446.118C114.594 446.113 114.595 446.114 114.604 446.119C114.632 446.132 114.728 446.178 114.94 446.243C115.196 446.322 115.544 446.407 115.982 446.495C116.855 446.67 118.022 446.844 119.401 447.011C122.156 447.344 125.697 447.639 129.31 447.857C132.922 448.075 136.592 448.215 139.601 448.238C141.107 448.25 142.439 448.232 143.511 448.182C144.608 448.13 145.363 448.046 145.757 447.948C149.054 447.123 154.937 446.587 157.433 446.42L157.714 446.401L157.964 446.532C159.752 447.469 162.641 449.168 165.544 451.242C168.432 453.306 171.407 455.794 173.3 458.318C174.597 460.047 175.095 462.257 175.125 464.527C175.155 466.804 174.714 469.228 174.042 471.487C173.369 473.748 172.452 475.882 171.498 477.585C171.021 478.436 170.527 479.194 170.041 479.811C169.565 480.415 169.054 480.938 168.53 481.266C164.428 483.83 160.332 485.361 154.842 487.358C147.607 489.988 139.647 488.357 123.729 483.881C121.663 483.3 118.482 482.579 114.664 481.714C112.11 481.136 109.271 480.493 106.29 479.784C98.9029 478.026 90.7078 475.877 84.1411 473.351L84.0818 473.328L84.0259 473.298C83.7855 473.169 83.5477 473.041 83.3127 472.915C80.4094 471.356 77.9177 470.018 75.8628 468.271C73.5957 466.345 71.8756 463.943 70.5582 460.254C69.828 458.21 70.0794 455.806 70.8339 453.372C71.5941 450.92 72.9046 448.31 74.4597 445.771C77.5707 440.691 81.7482 435.755 84.7928 432.711L85.7739 431.73ZM72.7442 453.964C72.0456 456.218 71.922 458.126 72.4417 459.582C73.652 462.97 75.1819 465.068 77.1579 466.747C79.0435 468.35 81.3489 469.589 84.3196 471.185C84.5162 471.291 84.7156 471.398 84.918 471.507C91.3417 473.972 99.3987 476.089 106.753 477.838C109.66 478.529 112.467 479.165 115.014 479.743C118.889 480.621 122.163 481.362 124.271 481.955C140.353 486.478 147.642 487.848 154.158 485.478C159.668 483.475 163.572 482.006 167.47 479.57C167.71 479.42 168.054 479.101 168.47 478.572C168.876 478.057 169.313 477.392 169.753 476.607C170.633 475.038 171.493 473.041 172.125 470.916C172.759 468.788 173.151 466.571 173.125 464.553C173.099 462.527 172.653 460.788 171.7 459.518C169.993 457.242 167.218 454.897 164.381 452.869C161.691 450.946 159.012 449.356 157.284 448.435C154.655 448.621 149.234 449.14 146.242 449.888C145.637 450.039 144.704 450.128 143.605 450.179C142.483 450.232 141.112 450.25 139.586 450.238C136.533 450.215 132.827 450.073 129.19 449.854C125.553 449.634 121.969 449.336 119.161 448.997C117.759 448.827 116.535 448.646 115.588 448.456C115.116 448.361 114.696 448.261 114.349 448.154C114.034 448.056 113.672 447.922 113.4 447.718C113.268 447.619 112.851 447.406 112.069 447.082C111.33 446.776 110.367 446.41 109.241 445.997C108.116 445.585 106.897 445.149 105.599 444.685C104.222 444.193 102.756 443.669 101.219 443.107C98.3086 442.043 95.3304 440.909 92.8542 439.817C91.6163 439.271 90.4895 438.73 89.5525 438.207C88.6313 437.693 87.8302 437.163 87.2927 436.625C85.9138 435.246 85.5306 435.03 85.4588 434.989L85.4577 434.988L85.4328 434.975C85.4245 434.97 85.4101 434.962 85.3959 434.954C82.5376 437.935 78.9119 442.331 76.1652 446.815C74.6579 449.276 73.4371 451.729 72.7442 453.964Z" fill="black"/>
<path d="M128.5 435.918C127 438.918 127 445.918 132.5 453.418C134.9 451.418 150.5 447.918 157 447.418C157.5 443.751 156.7 435.818 155.5 431.418C154 425.918 130 432.918 128.5 435.918Z" fill="#C66409"/>
<path fill-rule="evenodd" clip-rule="evenodd" d="M129.454 436.288C129.409 436.34 129.394 436.366 129.394 436.366C129.394 436.366 129.394 436.366 129.395 436.365C128.157 438.84 127.965 445.073 132.769 452.069C133.021 451.938 133.295 451.811 133.58 451.688C134.287 451.383 135.151 451.07 136.118 450.756C138.054 450.127 140.46 449.48 142.982 448.882C147.614 447.785 152.714 446.839 156.09 446.496C156.22 444.774 156.138 442.343 155.892 439.789C155.608 436.83 155.115 433.807 154.535 431.681C154.457 431.396 154.222 431.093 153.591 430.834C152.948 430.571 152.019 430.412 150.831 430.378C148.467 430.312 145.373 430.745 142.22 431.456C139.078 432.164 135.942 433.134 133.512 434.104C132.294 434.591 131.277 435.068 130.533 435.502C130.16 435.719 129.875 435.914 129.673 436.082C129.573 436.165 129.502 436.234 129.454 436.288ZM154.35 428.984C155.325 429.383 156.167 430.065 156.465 431.155C157.085 433.429 157.592 436.573 157.883 439.597C158.172 442.608 158.257 445.601 157.991 447.553L157.882 448.353L157.077 448.415C153.903 448.659 148.437 449.645 143.443 450.829C140.952 451.419 138.602 452.052 136.735 452.658C135.801 452.961 135.001 453.253 134.371 453.525C133.718 453.806 133.324 454.033 133.14 454.186L132.323 454.867L131.694 454.009C126.048 446.31 125.888 438.907 127.606 435.471C127.79 435.102 128.094 434.794 128.395 434.543C128.71 434.282 129.096 434.024 129.526 433.774C130.387 433.272 131.503 432.753 132.77 432.247C135.309 431.233 138.547 430.234 141.78 429.505C145.002 428.778 148.283 428.306 150.888 428.379C152.184 428.416 153.388 428.589 154.35 428.984Z" fill="black"/>
<path d="M76.1387 445.136C76.2728 444.829 76.4194 444.587 76.5551 444.418C76.4261 444.637 76.2866 444.878 76.1387 445.136C75.6135 446.338 75.2806 448.55 76.5551 451.418C78.5551 455.918 82.055 459.418 82.055 462.418C82.055 465.418 85.5001 466.918 88.0001 470.918C90.0001 474.118 89.0001 473.918 87.5001 473.418C84.0001 471.418 78.9551 470.218 76.5551 467.418C73.555 463.918 70.555 459.918 71.055 456.418C71.4241 453.835 74.3752 448.215 76.1387 445.136Z" fill="#C66409"/>
<path fill-rule="evenodd" clip-rule="evenodd" d="M75.2452 444.684C75.4023 444.334 75.5832 444.032 75.7742 443.793L77.417 444.925C77.2984 445.126 77.1705 445.347 77.035 445.583C76.6352 446.536 76.3235 448.435 77.4688 451.012C78.2388 452.744 79.2333 454.311 80.1926 455.823C80.4336 456.202 80.6723 456.579 80.9047 456.953C82.006 458.727 83.055 460.589 83.055 462.418C83.055 463.492 83.6474 464.361 84.819 465.608C85.0215 465.824 85.2392 466.049 85.4679 466.285C86.5057 467.357 87.7684 468.66 88.8481 470.388C89.3577 471.203 89.7104 471.855 89.9091 472.368C90.0081 472.623 90.0873 472.89 90.112 473.154C90.1363 473.414 90.116 473.771 89.9002 474.102C89.6698 474.455 89.328 474.611 89.0485 474.669C88.7894 474.723 88.5394 474.705 88.3509 474.678C87.9747 474.624 87.5483 474.488 87.1839 474.367L87.0899 474.335L87.004 474.286C85.8365 473.619 84.5173 473.057 83.1277 472.465C82.4986 472.197 81.855 471.923 81.2045 471.63C79.2006 470.727 77.1534 469.653 75.7958 468.069C74.2888 466.311 72.7353 464.375 71.6225 462.411C70.518 460.462 69.7689 458.35 70.0651 456.276C70.2741 454.813 71.1729 452.633 72.1708 450.534C73.1793 448.412 74.3578 446.236 75.2452 444.684ZM74.888 449.547C74.5771 450.156 74.2694 450.777 73.9771 451.392C72.9662 453.519 72.205 455.439 72.045 456.559C71.8412 457.986 72.342 459.624 73.3625 461.425C74.3747 463.211 75.8212 465.025 77.3143 466.767C78.3566 467.983 80.032 468.908 82.0256 469.806C82.5887 470.06 83.1819 470.312 83.7846 470.569C85.1186 471.138 86.4996 471.727 87.7062 472.388C87.5643 472.127 87.3822 471.816 87.1521 471.448C86.1952 469.917 85.1073 468.791 84.0773 467.726C83.8345 467.474 83.5949 467.226 83.3611 466.977C82.1851 465.725 81.055 464.344 81.055 462.418C81.055 461.247 80.354 459.858 79.2054 458.008C78.9941 457.667 78.77 457.315 78.5385 456.95C77.5728 455.43 76.4774 453.705 75.6412 451.824C75.2849 451.022 75.0417 450.261 74.888 449.547Z" fill="black"/>
<path d="M133.5 477.918C126.7 478.718 95.5002 464.251 80.5002 457.918C80.5002 458.585 80.3003 462.518 81.5003 464.918C83.0003 467.918 85.0003 469.418 84.0003 471.918C89.0003 474.418 116.5 481.418 132.5 485.418C148.5 489.418 151 486.918 154 486.418C157 485.918 165.5 481.918 167.5 480.918C169.1 480.118 172.167 471.918 173.5 467.918C168 479.418 142 476.918 133.5 477.918Z" fill="#E8BC7A"/>
<path fill-rule="evenodd" clip-rule="evenodd" d="M79.5 456.41L80.889 456.997C83.7347 458.198 87.1416 459.683 90.8465 461.297C96.9645 463.963 103.895 466.983 110.454 469.668C115.709 471.819 120.689 473.739 124.77 475.07C126.811 475.736 128.61 476.249 130.097 476.571C131.61 476.898 132.706 477.005 133.383 476.925C135.233 476.707 137.875 476.651 140.873 476.587C141.418 476.576 141.974 476.564 142.54 476.551C146.255 476.465 150.435 476.325 154.512 475.862C158.597 475.398 162.521 474.615 165.739 473.269C168.958 471.923 171.368 470.057 172.598 467.487L174.449 468.234C173.777 470.251 172.667 473.328 171.52 476.011C170.947 477.35 170.355 478.613 169.796 479.604C169.517 480.098 169.233 480.545 168.953 480.907C168.691 481.244 168.355 481.609 167.947 481.812C166.93 482.321 164.289 483.579 161.522 484.774C160.138 485.371 158.713 485.957 157.44 486.427C156.185 486.889 155.015 487.263 154.165 487.404C153.709 487.48 153.297 487.6 152.78 487.749C152.515 487.826 152.223 487.911 151.883 488.001C150.929 488.256 149.768 488.505 148.188 488.604C145.044 488.8 140.307 488.4 132.258 486.388C124.257 484.388 113.374 481.636 103.865 479.071C99.1107 477.789 94.6931 476.551 91.1476 475.477C87.6342 474.412 84.8928 473.482 83.5529 472.812L82.73 472.401L83.0717 471.547C83.4243 470.665 83.2858 469.984 82.8039 469.073C82.584 468.658 82.3116 468.232 81.9895 467.727C81.9346 467.642 81.8783 467.553 81.8206 467.463C81.4339 466.855 81.0047 466.163 80.6057 465.365C79.9156 463.985 79.6552 462.241 79.5528 460.841C79.4669 459.667 79.4872 458.626 79.4966 458.142C79.4986 458.042 79.5 457.967 79.5 457.918V456.41ZM81.4914 459.425C81.4979 459.807 81.5138 460.236 81.5474 460.695C81.645 462.029 81.8848 463.451 82.3946 464.471C82.7456 465.173 83.1289 465.793 83.5079 466.389C83.5608 466.472 83.6141 466.555 83.6675 466.639C83.9867 467.138 84.31 467.644 84.5714 468.138C85.0872 469.112 85.4219 470.153 85.2001 471.362C86.5555 471.925 88.8114 472.679 91.7277 473.563C95.2447 474.629 99.6396 475.86 104.386 477.14C113.876 479.7 124.744 482.448 132.743 484.448C140.693 486.436 145.207 486.786 148.063 486.607C149.482 486.519 150.509 486.298 151.367 486.069C151.606 486.005 151.848 485.935 152.091 485.865C152.674 485.697 153.264 485.527 153.836 485.432C154.485 485.323 155.503 485.009 156.748 484.55C157.975 484.098 159.363 483.527 160.729 482.937C163.462 481.757 166.07 480.515 167.053 480.024C167.052 480.024 167.053 480.024 167.055 480.022C167.071 480.01 167.179 479.929 167.373 479.681C167.571 479.425 167.8 479.069 168.055 478.62C168.562 477.722 169.12 476.536 169.681 475.225C170.019 474.434 170.354 473.607 170.676 472.783C169.442 473.711 168.031 474.478 166.511 475.114C163.042 476.565 158.904 477.376 154.738 477.849C150.565 478.323 146.308 478.465 142.586 478.551C142.006 478.564 141.441 478.576 140.892 478.588C137.883 478.652 135.363 478.706 133.617 478.911C132.594 479.031 131.228 478.861 129.674 478.525C128.095 478.184 126.224 477.649 124.149 476.972C119.999 475.618 114.966 473.676 109.696 471.518C103.129 468.83 96.137 465.784 89.996 463.108C86.8879 461.754 83.9979 460.495 81.4914 459.425Z" fill="black"/>
<path d="M147.5 465.918C140.3 467.518 138.167 474.251 138 477.418C143.667 477.751 153.718 477.264 160 475.918C167 474.418 170.833 471.918 173 469.918C173.667 468.585 174.6 465.118 173 461.918C171 457.918 156.5 463.918 147.5 465.918Z" fill="#F7F3F8"/>
<path fill-rule="evenodd" clip-rule="evenodd" d="M155.282 464.846C152.631 465.626 150.005 466.386 147.717 466.894C141.826 468.203 139.611 473.298 139.107 476.47C144.833 476.688 153.984 476.185 159.791 474.94C166.475 473.508 170.129 471.161 172.181 469.311C172.756 468.038 173.455 465.064 172.106 462.365C172 462.154 171.795 461.954 171.365 461.802C170.918 461.643 170.286 461.559 169.455 461.574C167.794 461.603 165.605 462.016 163.118 462.638C160.875 463.199 158.452 463.912 156.035 464.625C155.784 464.698 155.533 464.772 155.282 464.846ZM172.034 459.917C172.815 460.194 173.5 460.682 173.895 461.471C175.685 465.052 174.643 468.867 173.895 470.365L173.813 470.529L173.678 470.653C171.369 472.784 167.37 475.361 160.21 476.896C153.822 478.265 143.678 478.754 137.941 478.416L136.949 478.358L137.001 477.365C137.179 473.994 139.445 466.684 147.283 464.942C149.495 464.45 152.057 463.71 154.718 462.927C154.969 462.853 155.221 462.779 155.474 462.705C157.884 461.995 160.347 461.269 162.633 460.698C165.145 460.07 167.518 459.608 169.42 459.574C170.371 459.558 171.27 459.646 172.034 459.917Z" fill="black"/>
<path d="M158 447.918L135 454.418C136.57 454.418 138.673 457.085 139 457.918L162.5 450.918L158 447.918Z" fill="#918A93"/>
<path fill-rule="evenodd" clip-rule="evenodd" d="M158.171 446.83L164.828 451.268L138.405 459.139L138.069 458.283C138.035 458.197 137.904 457.957 137.65 457.609C137.41 457.279 137.099 456.906 136.755 456.559C136.408 456.208 136.049 455.906 135.713 455.697C135.363 455.479 135.126 455.418 135 455.418L134.728 453.456L158.171 446.83ZM137.694 454.696C137.863 454.844 138.024 454.998 138.177 455.152C138.596 455.575 138.971 456.025 139.266 456.43C139.339 456.53 139.41 456.632 139.477 456.732L160.172 450.568L157.829 449.006L137.694 454.696Z" fill="black"/>
<path d="M165 452.418L140 459.868C141.6 459.868 143.167 462.835 143.5 463.918L156 459.868L169 455.418L165 452.418Z" fill="#918A93"/>
<path fill-rule="evenodd" clip-rule="evenodd" d="M165.197 451.316L171.112 455.752L156.316 460.817L142.843 465.182L142.544 464.212C142.413 463.785 141.99 462.87 141.414 462.072C141.129 461.677 140.836 461.353 140.559 461.136C140.274 460.913 140.09 460.868 140 460.868L139.714 458.91L165.197 451.316ZM142.453 460.18C142.664 460.411 142.859 460.657 143.036 460.901C143.456 461.483 143.815 462.121 144.078 462.68L155.684 458.919L166.888 455.084L164.803 453.52L142.453 460.18Z" fill="black"/>
<path d="M83.5002 427.918L91.0002 438.418C92.6669 439.418 98.7001 440.718 99.5001 441.918C100.3 443.118 94.3335 444.751 92.5002 444.918C90.8335 444.751 87.1002 444.618 85.5002 445.418C83.5002 446.418 83.5002 447.418 83.5002 453.418C83.5002 458.218 81.8335 458.085 81.0002 457.418C80.5002 456.418 79.2002 454.118 78.0002 452.918C76.8002 451.718 75.5001 447.918 76.0002 445.418C76.0002 445.418 79.7249 440.819 81.0002 437.418C82.5001 433.418 83.5002 427.918 83.5002 427.918Z" fill="#F7F3F8"/>
<path fill-rule="evenodd" clip-rule="evenodd" d="M82.9394 425.412L91.6824 437.653C92.0208 437.825 92.5524 438.033 93.246 438.273C93.7622 438.452 94.3204 438.633 94.8997 438.821C95.224 438.926 95.5549 439.033 95.8887 439.143C96.7985 439.444 97.7179 439.762 98.4677 440.088C98.8425 440.251 99.1993 440.427 99.5019 440.615C99.785 440.791 100.113 441.034 100.332 441.363C100.481 441.587 100.574 441.855 100.573 442.15C100.573 442.437 100.484 442.683 100.375 442.876C100.172 443.236 99.8466 443.504 99.5653 443.696C98.9811 444.094 98.1548 444.45 97.3241 444.747C95.653 445.344 93.6173 445.821 92.5907 445.914L92.4956 445.922L92.4007 445.913C91.6039 445.833 90.2991 445.761 89.0093 445.805C87.6667 445.851 86.533 446.02 85.9474 446.312C85.4991 446.537 85.2593 446.715 85.1032 446.897C84.9567 447.068 84.8264 447.31 84.7264 447.76C84.5067 448.748 84.5002 450.353 84.5002 453.418C84.5002 454.668 84.3924 455.651 84.1946 456.413C83.9991 457.166 83.6953 457.781 83.2429 458.201C82.7588 458.65 82.1787 458.806 81.6288 458.743C81.1175 458.684 80.6849 458.446 80.3755 458.199L80.204 458.062L80.1057 457.865C79.6103 456.874 78.37 454.702 77.2931 453.625C76.5155 452.848 75.8317 451.404 75.4027 449.936C74.9677 448.446 74.7252 446.694 75.0196 445.222L75.0679 444.98L75.223 444.789L75.2248 444.786L75.2318 444.778L75.2612 444.741C75.2874 444.708 75.3266 444.659 75.3773 444.595C75.4786 444.466 75.6258 444.277 75.8067 444.04C76.169 443.565 76.6651 442.896 77.1998 442.124C78.2834 440.559 79.4723 438.644 80.0638 437.067C80.7912 435.127 81.4047 432.801 81.8388 430.941C82.0549 430.015 82.2247 429.212 82.3404 428.641C82.3982 428.356 82.4424 428.129 82.4721 427.974C82.4869 427.897 82.4981 427.837 82.5055 427.797L82.5138 427.753L82.5162 427.74L82.9394 425.412ZM84.0198 430.366C83.9493 430.686 83.8714 431.031 83.7865 431.395C83.3456 433.285 82.7091 435.709 81.9365 437.769C81.2528 439.592 79.9417 441.677 78.8441 443.263C78.2882 444.065 77.7734 444.759 77.3974 445.252C77.2093 445.499 77.0555 445.696 76.9481 445.833C76.9461 445.835 76.9441 445.838 76.9421 445.84C76.7988 446.842 76.9605 448.135 77.3225 449.375C77.7186 450.731 78.2848 451.788 78.7073 452.211C79.934 453.438 81.1923 455.614 81.7712 456.729C81.8092 456.746 81.8387 456.754 81.8559 456.756C81.8562 456.756 81.8556 456.756 81.8559 456.756C81.8613 456.752 81.8707 456.746 81.8824 456.735C81.9509 456.671 82.1158 456.461 82.2588 455.91C82.3996 455.368 82.5002 454.568 82.5002 453.418L82.5002 453.223C82.5 450.399 82.4999 448.559 82.774 447.326C82.9239 446.651 83.1686 446.081 83.5847 445.595C83.991 445.121 84.5012 444.799 85.053 444.524C86.0673 444.016 87.6003 443.852 88.941 443.806C90.2817 443.76 91.6239 443.83 92.4984 443.913C93.3468 443.819 95.1357 443.405 96.6511 442.864C97.2993 442.632 97.8396 442.397 98.2154 442.182C98.0627 442.101 97.8808 442.014 97.67 441.922C97.0115 441.636 96.1684 441.342 95.2615 441.042C94.9511 440.94 94.6313 440.836 94.3114 440.732C93.7179 440.54 93.1245 440.347 92.5918 440.163C91.7887 439.885 91.004 439.586 90.4857 439.275L90.3073 439.168L84.0198 430.366Z" fill="black"/>
<path d="M91.0001 438.418L84.0001 428.918L82.5001 432.918L78.5001 442.418L73.5001 448.418L71.0001 457.918L73.5001 465.418L81.5001 471.418L91.0001 473.918C89.3335 472.585 86.4001 469.218 88.0001 466.418C89.6001 463.618 93.3335 463.585 95.0001 463.918C95.6668 462.251 96.8001 457.718 96.0001 452.918C95.2001 448.118 98.0001 443.251 99.5001 441.418L91.0001 438.418Z" fill="#160E1B" fill-opacity="0.4"/>
<path d="M136 485.918C137.333 485.585 139.7 483.818 140.5 481.418C141.3 479.018 143.5 476.918 145.5 475.418C149.5 472.918 155.608 472.516 160 471.418C164 470.418 165.5 470.418 170 468.418C173.6 466.818 173.68 466.178 173.568 465.986L173.5 465.918C173.5 465.918 173.54 465.938 173.568 465.986L174.5 466.918L171.5 475.418L167 481.918L152.5 486.918C148.333 487.918 139.2 489.118 136 485.918Z" fill="#160E1B" fill-opacity="0.4"/>
<path d="M201.644 478.776C196.263 473.647 200.5 457.918 200.5 449.92C201.695 450.811 206.617 451.195 210.5 450.418C218 448.918 239.202 438.403 241.5 437.418C245 435.918 260.118 438.143 263.241 435.451C265.74 433.298 270.68 430.213 272.839 428.94C276.789 429.004 286.034 429.799 291.408 432.467C298.125 435.803 298.927 450.613 297.056 453.695C294.607 457.726 291.709 460.865 287.695 465.124C282.679 470.449 275.194 472.537 258.879 475.712C251.801 477.09 232.736 482.716 218.876 484.095C211.497 483.892 207.084 483.961 201.644 478.776Z" fill="#ED9F29"/>
<path fill-rule="evenodd" clip-rule="evenodd" d="M199.5 447.926L201.098 449.118C201.214 449.205 201.565 449.361 202.232 449.505C202.859 449.641 203.655 449.743 204.551 449.796C206.347 449.902 208.461 449.806 210.304 449.437C213.919 448.714 220.982 445.767 227.54 442.813C230.795 441.347 233.888 439.896 236.314 438.75C236.94 438.454 237.524 438.177 238.056 437.925C239.57 437.207 240.664 436.688 241.106 436.499C241.679 436.253 242.413 436.111 243.195 436.02C243.994 435.927 244.919 435.879 245.912 435.857C247.333 435.824 248.946 435.843 250.586 435.862C251.23 435.87 251.877 435.877 252.519 435.882C254.822 435.898 257.066 435.876 258.918 435.688C259.843 435.595 260.642 435.462 261.286 435.283C261.945 435.101 262.36 434.891 262.588 434.694C265.163 432.475 270.175 429.35 272.33 428.079L272.573 427.936L272.855 427.94C274.873 427.973 278.218 428.191 281.743 428.739C285.25 429.284 289.026 430.168 291.852 431.572C293.789 432.533 295.228 434.283 296.274 436.297C297.325 438.317 298.022 440.681 298.437 443C298.853 445.323 298.993 447.641 298.906 449.591C298.863 450.566 298.763 451.465 298.606 452.234C298.452 452.988 298.231 453.686 297.91 454.214C295.399 458.348 292.429 461.558 288.423 465.81C283.145 471.412 275.301 473.535 259.07 476.694C256.963 477.104 253.798 477.891 249.999 478.835C247.458 479.467 244.633 480.169 241.652 480.876C234.263 482.628 225.976 484.393 218.975 485.09L218.912 485.097L218.849 485.095C218.576 485.087 218.306 485.08 218.039 485.073C214.745 484.986 211.918 484.911 209.297 484.275C206.406 483.574 203.789 482.202 200.954 479.5C199.378 477.998 198.581 475.798 198.207 473.381C197.831 470.951 197.862 468.168 198.057 465.355C198.225 462.925 198.52 460.427 198.798 458.075C198.842 457.701 198.886 457.331 198.929 456.965C199.243 454.276 199.5 451.851 199.5 449.92L199.5 447.926ZM200.184 473.075C200.528 475.3 201.219 476.989 202.334 478.052C204.939 480.534 207.249 481.72 209.769 482.332C212.173 482.915 214.79 482.985 218.161 483.075C218.384 483.081 218.61 483.087 218.84 483.094C225.686 482.407 233.834 480.675 241.19 478.93C244.097 478.241 246.89 477.547 249.425 476.917C253.281 475.959 256.539 475.149 258.688 474.731C275.087 471.539 282.213 469.485 286.968 464.438C290.988 460.171 293.815 457.104 296.201 453.176C296.348 452.933 296.512 452.494 296.646 451.835C296.777 451.192 296.869 450.401 296.908 449.503C296.988 447.705 296.859 445.535 296.468 443.352C296.077 441.167 295.431 439.01 294.5 437.219C293.566 435.422 292.385 434.069 290.963 433.363C288.415 432.098 284.882 431.251 281.436 430.715C278.168 430.208 275.061 429.992 273.103 429.946C270.839 431.294 266.23 434.196 263.894 436.209C263.342 436.684 262.601 436.994 261.821 437.211C261.027 437.431 260.105 437.578 259.119 437.678C257.149 437.877 254.809 437.898 252.505 437.881C251.839 437.877 251.177 437.869 250.526 437.862C248.9 437.843 247.342 437.825 245.957 437.856C244.992 437.878 244.137 437.924 243.427 438.006C242.7 438.091 242.197 438.207 241.894 438.337C241.49 438.51 240.458 439 238.972 439.704C238.429 439.961 237.825 440.248 237.169 440.558C234.739 441.707 231.632 443.163 228.362 444.637C221.87 447.561 214.581 450.622 210.696 451.399C208.656 451.807 206.368 451.907 204.433 451.792C203.464 451.735 202.563 451.623 201.809 451.46C201.693 451.435 201.577 451.408 201.462 451.379C201.376 453.133 201.157 455.127 200.915 457.198C200.872 457.568 200.828 457.941 200.784 458.316C200.506 460.671 200.217 463.115 200.052 465.493C199.86 468.253 199.841 470.863 200.184 473.075Z" fill="black"/>
<path d="M241.765 431.708C241.774 435.062 244.921 441.315 253.207 445.541C254.451 442.675 266.811 432.534 272.392 429.165C271.19 425.665 266.908 418.939 263.858 415.548C260.045 411.31 241.756 428.354 241.765 431.708Z" fill="#C66409"/>
<path fill-rule="evenodd" clip-rule="evenodd" d="M242.783 431.61C242.766 431.676 242.765 431.706 242.765 431.706C242.765 431.706 242.765 431.706 242.765 431.706C242.772 434.472 245.403 440.126 252.84 444.215C253.006 443.984 253.194 443.748 253.393 443.51C253.888 442.92 254.518 442.252 255.241 441.536C256.688 440.104 258.546 438.444 260.53 436.776C264.174 433.713 268.304 430.575 271.165 428.75C270.507 427.154 269.34 425.02 267.972 422.849C266.387 420.334 264.588 417.855 263.114 416.217C262.917 415.997 262.57 415.833 261.89 415.885C261.198 415.939 260.296 416.215 259.22 416.719C257.079 417.722 254.509 419.501 252.013 421.554C249.525 423.599 247.16 425.876 245.426 427.835C244.557 428.817 243.863 429.7 243.393 430.422C243.158 430.784 242.991 431.087 242.886 431.327C242.834 431.447 242.802 431.54 242.783 431.61ZM261.736 413.891C262.786 413.81 263.845 414.04 264.601 414.879C266.177 416.632 268.044 419.212 269.664 421.783C271.276 424.341 272.698 426.977 273.338 428.84L273.6 429.604L272.909 430.021C270.184 431.666 265.745 435.005 261.816 438.307C259.857 439.954 258.043 441.577 256.648 442.958C255.95 443.649 255.367 444.269 254.926 444.795C254.469 445.34 254.219 445.72 254.124 445.939L253.7 446.915L252.752 446.432C244.247 442.094 240.775 435.553 240.765 431.711C240.764 431.299 240.896 430.887 241.053 430.528C241.217 430.152 241.445 429.749 241.717 429.332C242.26 428.497 243.024 427.531 243.928 426.51C245.74 424.462 248.183 422.114 250.743 420.009C253.294 417.911 256.012 416.014 258.372 414.908C259.546 414.358 260.699 413.972 261.736 413.891Z" fill="black"/>
<path d="M199.14 463.486C199.122 463.152 199.144 462.87 199.189 462.658C199.173 462.912 199.156 463.189 199.14 463.486C199.212 464.797 199.909 466.922 202.337 468.91C206.147 472.03 210.847 473.583 212.196 476.262C213.545 478.942 217.296 478.733 221.328 481.181C224.553 483.14 223.57 483.411 222.006 483.639C217.98 483.427 212.934 484.623 209.531 483.202C205.278 481.424 200.8 479.201 199.673 475.849C198.841 473.376 198.95 467.03 199.14 463.486Z" fill="#C66409"/>
<path fill-rule="evenodd" clip-rule="evenodd" d="M198.139 463.484C198.122 463.101 198.148 462.75 198.211 462.451L200.187 462.723C200.172 462.957 200.157 463.211 200.142 463.483C200.213 464.513 200.789 466.35 202.971 468.137C204.437 469.338 206.03 470.29 207.567 471.209C207.953 471.44 208.335 471.669 208.711 471.899C210.493 472.988 212.267 474.179 213.089 475.813C213.572 476.772 214.492 477.282 216.099 477.869C216.377 477.971 216.673 478.074 216.983 478.182C218.392 478.672 220.106 479.269 221.847 480.327C222.669 480.826 223.277 481.249 223.685 481.618C223.888 481.802 224.079 482.004 224.22 482.229C224.359 482.451 224.501 482.778 224.457 483.171C224.41 483.59 224.175 483.883 223.951 484.061C223.744 484.226 223.513 484.322 223.332 484.382C222.972 484.504 222.53 484.573 222.15 484.629L222.052 484.643L221.953 484.638C220.61 484.567 219.179 484.658 217.672 484.754C216.989 484.798 216.291 484.842 215.578 484.873C213.383 484.968 211.071 484.929 209.146 484.124C207.009 483.232 204.751 482.201 202.874 480.947C201.011 479.703 199.393 478.154 198.725 476.168C198.254 474.767 198.076 472.415 198.023 470.092C197.97 467.743 198.044 465.27 198.139 463.484ZM200.007 467.989C200.003 468.673 200.007 469.366 200.023 470.047C200.076 472.4 200.26 474.458 200.621 475.531C201.08 476.896 202.264 478.134 203.985 479.284C205.692 480.424 207.8 481.394 209.917 482.279C211.395 482.896 213.307 482.969 215.492 482.875C216.109 482.848 216.752 482.807 217.406 482.766C218.853 482.674 220.352 482.579 221.726 482.626C221.482 482.457 221.18 482.262 220.809 482.036C219.266 481.099 217.788 480.583 216.389 480.094C216.059 479.979 215.734 479.865 215.413 479.748C213.799 479.158 212.169 478.433 211.303 476.712C210.776 475.666 209.526 474.741 207.668 473.605C207.326 473.396 206.967 473.181 206.596 472.96C205.05 472.036 203.296 470.989 201.703 469.684C201.025 469.128 200.465 468.557 200.007 467.989Z" fill="black"/>
<path d="M265.116 466.975C259.402 470.747 225.029 471.854 208.783 472.942C209.083 473.538 210.673 477.141 212.824 478.745C215.513 480.75 217.974 481.191 218.205 483.873C223.795 483.858 251.506 477.745 267.596 474.123C283.685 470.501 284.794 467.144 287.249 465.349C289.704 463.553 295.498 456.158 296.834 454.366C297.904 452.932 296.956 444.229 296.348 440.056C296.606 452.801 272.259 462.259 265.116 466.975Z" fill="#E8BC7A"/>
<path fill-rule="evenodd" clip-rule="evenodd" d="M207.212 472.045L208.717 471.945C211.799 471.738 215.509 471.532 219.544 471.308C226.208 470.938 233.756 470.519 240.822 469.968C246.483 469.526 251.794 469.003 256.038 468.357C258.16 468.034 259.998 467.683 261.471 467.301C262.969 466.913 263.996 466.516 264.565 466.14C266.12 465.114 268.454 463.876 271.104 462.471C271.585 462.216 272.077 461.955 272.576 461.689C275.856 459.942 279.527 457.937 282.96 455.69C286.399 453.439 289.553 450.975 291.822 448.325C294.092 445.676 295.406 442.926 295.348 440.077L297.337 439.912C297.644 442.016 298.037 445.264 298.218 448.176C298.309 449.629 298.348 451.024 298.294 452.16C298.266 452.727 298.215 453.254 298.127 453.703C298.044 454.122 297.908 454.598 297.636 454.964C296.956 455.875 295.162 458.187 293.228 460.498C292.26 461.654 291.252 462.818 290.325 463.81C289.412 464.787 288.535 465.647 287.839 466.156C287.467 466.428 287.152 466.721 286.758 467.086C286.556 467.274 286.333 467.481 286.07 467.715C285.333 468.372 284.408 469.116 283.04 469.915C280.32 471.504 275.91 473.277 267.815 475.099C259.769 476.91 248.812 479.345 239.164 481.33C234.341 482.322 229.839 483.204 226.189 483.838C222.572 484.467 219.706 484.869 218.208 484.873L217.288 484.876L217.209 483.959C217.127 483.013 216.697 482.467 215.857 481.87C215.474 481.598 215.039 481.34 214.525 481.034C214.437 480.982 214.347 480.929 214.255 480.874C213.636 480.505 212.942 480.08 212.227 479.547C210.989 478.624 209.973 477.183 209.252 475.979C208.647 474.969 208.197 474.03 207.988 473.594C207.945 473.504 207.912 473.435 207.89 473.392L207.212 472.045ZM210.347 473.843C210.524 474.181 210.731 474.557 210.968 474.952C211.655 476.099 212.508 477.262 213.422 477.943C214.051 478.413 214.673 478.795 215.279 479.156C215.364 479.207 215.449 479.257 215.534 479.308C216.044 479.61 216.56 479.916 217.015 480.24C217.914 480.878 218.681 481.658 219.027 482.837C220.49 482.73 222.844 482.389 225.847 481.867C229.467 481.238 233.947 480.362 238.761 479.371C248.389 477.39 259.332 474.958 267.376 473.148C275.371 471.348 279.56 469.632 282.031 468.188C283.259 467.47 284.077 466.812 284.74 466.221C284.925 466.057 285.11 465.885 285.296 465.713C285.74 465.301 286.191 464.884 286.659 464.542C287.19 464.153 287.958 463.415 288.864 462.445C289.756 461.489 290.739 460.356 291.694 459.214C293.605 456.931 295.376 454.649 296.033 453.768C296.032 453.769 296.032 453.768 296.034 453.766C296.043 453.748 296.103 453.627 296.164 453.318C296.226 453 296.271 452.58 296.296 452.064C296.345 451.034 296.311 449.723 296.222 448.3C296.168 447.442 296.096 446.553 296.013 445.671C295.328 447.056 294.413 448.375 293.341 449.627C290.894 452.483 287.563 455.067 284.055 457.363C280.541 459.663 276.802 461.704 273.516 463.454C273.004 463.727 272.505 463.992 272.02 464.249C269.361 465.659 267.134 466.841 265.667 467.809C264.808 468.376 263.511 468.839 261.972 469.237C260.408 469.643 258.496 470.006 256.339 470.334C252.023 470.991 246.654 471.519 240.977 471.962C233.903 472.514 226.287 472.937 219.599 473.308C216.214 473.496 213.067 473.671 210.347 473.843Z" fill="black"/>
<path d="M272.225 449.961C266.514 454.628 267.636 461.601 268.911 464.504C274.122 462.254 282.881 457.299 287.887 453.272C293.465 448.785 295.765 444.828 296.801 442.068C296.796 440.577 296.071 437.061 293.203 434.922C289.618 432.248 279.365 444.128 272.225 449.961Z" fill="#F7F3F8"/>
<path fill-rule="evenodd" clip-rule="evenodd" d="M278.694 445.504C276.677 447.393 274.673 449.252 272.858 450.735C268.185 454.553 268.498 460.1 269.474 463.16C274.685 460.78 282.633 456.216 287.26 452.493C292.586 448.208 294.795 444.469 295.796 441.894C295.737 440.498 295.025 437.528 292.605 435.724C292.416 435.582 292.143 435.496 291.69 435.553C291.22 435.613 290.618 435.822 289.882 436.209C288.412 436.982 286.643 438.335 284.7 440.009C282.949 441.518 281.106 443.245 279.267 444.968C279.076 445.147 278.885 445.326 278.694 445.504ZM291.44 433.569C292.263 433.465 293.094 433.593 293.801 434.12C297.01 436.514 297.796 440.39 297.801 442.065L297.801 442.248L297.737 442.419C296.633 445.361 294.219 449.461 288.514 454.051C283.424 458.146 274.583 463.145 269.307 465.423L268.395 465.817L267.995 464.907C266.638 461.816 265.375 454.267 271.593 449.187C273.347 447.753 275.303 445.94 277.327 444.044C277.519 443.865 277.71 443.686 277.903 443.505C279.736 441.788 281.61 440.032 283.394 438.494C285.356 436.803 287.268 435.323 288.952 434.438C289.793 433.996 290.636 433.67 291.44 433.569Z" fill="black"/>
<path d="M273.51 429.162L255.889 445.31C257.291 444.604 260.369 446.04 261.036 446.637L278.878 429.818L273.51 429.162Z" fill="#918A93"/>
<path fill-rule="evenodd" clip-rule="evenodd" d="M273.174 428.113L281.115 429.084L261.053 447.995L260.369 447.382C260.299 447.32 260.074 447.165 259.691 446.968C259.328 446.782 258.883 446.589 258.42 446.433C257.952 446.276 257.495 446.167 257.101 446.131C256.691 446.094 256.451 446.147 256.339 446.203L255.214 444.573L273.174 428.113ZM258.421 444.346C258.638 444.403 258.851 444.468 259.057 444.537C259.621 444.727 260.158 444.96 260.604 445.189C260.714 445.246 260.823 445.304 260.929 445.364L276.642 430.552L273.846 430.21L258.421 444.346Z" fill="black"/>
<path d="M281.786 430.034L262.806 447.93C264.235 447.21 266.968 449.155 267.753 449.973L277.097 440.735L286.708 430.915L281.786 430.034Z" fill="#918A93"/>
<path fill-rule="evenodd" clip-rule="evenodd" d="M281.466 428.961L288.744 430.263L277.806 441.44L267.734 451.398L267.032 450.666C266.722 450.343 265.933 449.716 265.06 449.262C264.628 449.038 264.22 448.88 263.875 448.811C263.521 448.74 263.336 448.782 263.255 448.823L262.12 447.202L281.466 428.961ZM265.137 447.106C265.43 447.217 265.714 447.348 265.982 447.487C266.619 447.818 267.227 448.226 267.713 448.607L276.388 440.03L284.671 431.566L282.106 431.107L265.137 447.106Z" fill="black"/>
<path d="M200.5 449.918L209.44 451.418C211.378 451.562 218.246 446.706 219.5 447.418C220.754 448.13 215.219 454.962 213.656 455.935C212.093 456.535 208.698 458.095 207.629 459.529C206.292 461.321 206.742 462.215 209.44 467.574C211.598 471.861 210.049 472.492 209.005 472.271C208.109 471.602 205.914 470.133 204.302 469.6C202.691 469.068 199.821 466.259 199.143 463.801C199.143 463.801 200.402 458.018 200.012 454.407C199.553 450.16 200.5 449.918 200.5 449.918Z" fill="#F7F3F8"/>
<path fill-rule="evenodd" clip-rule="evenodd" d="M200.249 448.95C200.251 448.95 200.253 448.949 200.5 449.918L200.253 448.949L200.457 448.897L209.541 450.421C209.614 450.419 209.783 450.396 210.078 450.304C210.399 450.203 210.79 450.047 211.241 449.843C212.071 449.466 213.024 448.967 214.003 448.455C214.09 448.409 214.176 448.364 214.263 448.319C215.312 447.77 216.389 447.212 217.288 446.839C217.736 446.653 218.182 446.495 218.585 446.412C218.929 446.341 219.496 446.266 219.994 446.548C220.699 446.949 220.715 447.699 220.664 448.081C220.609 448.497 220.434 448.941 220.235 449.349C219.828 450.188 219.162 451.197 218.438 452.174C217.707 453.16 216.886 454.154 216.144 454.967C215.432 455.749 214.708 456.458 214.185 456.784L214.104 456.834L214.015 456.868C213.268 457.155 212.07 457.677 210.937 458.297C209.759 458.941 208.822 459.602 208.431 460.127C208.131 460.529 207.997 460.796 207.939 461.028C207.885 461.247 207.878 461.521 207.991 461.969C208.239 462.95 208.955 464.386 210.333 467.124C210.895 468.241 211.241 469.167 211.407 469.937C211.571 470.697 211.576 471.383 211.361 471.962C211.13 472.581 210.682 472.98 210.163 473.171C209.68 473.349 209.186 473.331 208.799 473.249L208.584 473.204L208.408 473.072C207.52 472.41 205.435 471.028 203.989 470.55C202.945 470.205 201.685 469.224 200.641 468.105C199.583 466.97 198.578 465.513 198.179 464.066L198.114 463.829L198.166 463.588L198.167 463.585L198.169 463.574L198.179 463.528C198.188 463.487 198.201 463.426 198.217 463.345C198.25 463.185 198.296 462.95 198.351 462.657C198.461 462.069 198.603 461.249 198.734 460.319C198.998 458.434 199.199 456.189 199.018 454.514C198.783 452.34 198.89 451.061 199.127 450.279C199.248 449.879 199.415 449.572 199.622 449.346C199.726 449.233 199.837 449.144 199.948 449.078C200.003 449.045 200.057 449.018 200.109 448.997C200.135 448.986 200.16 448.977 200.184 448.969C200.196 448.965 200.208 448.962 200.219 448.958L200.236 448.953L200.245 448.951L200.249 448.95ZM200.175 463.754C200.497 464.713 201.223 465.796 202.104 466.741C203.068 467.774 204.049 468.463 204.616 468.651C206.263 469.195 208.366 470.573 209.384 471.309C209.426 471.307 209.456 471.3 209.472 471.294C209.472 471.294 209.472 471.295 209.472 471.294C209.475 471.289 209.481 471.279 209.486 471.264C209.519 471.177 209.572 470.915 209.452 470.358C209.334 469.811 209.064 469.05 208.547 468.024L208.459 467.849C207.189 465.327 206.362 463.684 206.052 462.459C205.882 461.789 205.844 461.169 205.998 460.549C206.148 459.942 206.459 459.426 206.827 458.931C207.505 458.022 208.801 457.186 209.977 456.542C211.15 455.9 212.376 455.361 213.195 455.041C213.475 454.843 213.998 454.353 214.666 453.62C215.362 452.857 216.14 451.915 216.831 450.983C217.504 450.076 218.067 449.214 218.399 448.551C218.293 448.59 218.178 448.635 218.055 448.686C217.253 449.019 216.257 449.533 215.19 450.091C215.101 450.138 215.011 450.185 214.921 450.232C213.956 450.737 212.951 451.263 212.066 451.664C211.58 451.884 211.107 452.078 210.676 452.212C210.267 452.34 209.801 452.448 209.366 452.415L209.32 452.412L201 451.016C200.893 451.49 200.807 452.457 201.006 454.299C201.216 456.235 200.982 458.687 200.715 460.597C200.579 461.564 200.431 462.415 200.317 463.024C200.26 463.33 200.211 463.575 200.177 463.745C200.176 463.748 200.175 463.751 200.175 463.754ZM219.172 448.347C219.172 448.347 219.172 448.347 219.171 448.347ZM209.468 471.301C209.468 471.301 209.469 471.3 209.469 471.299Z" fill="black"/>
<path d="M209 450.123L200.971 450.124L199.393 452.918L199.393 461.821L198.208 469.541L200.971 478.968L206.984 484.1L216.933 485.109L246.5 477.918C244.384 477.636 230.3 478.518 227.5 476.918C224 474.918 222 473.918 219 471.918C216 468.918 213 466.46 213 461.821C213 456.955 218.662 449.762 219 447.418L209 450.123Z" fill="#160E1B" fill-opacity="0.4"/>
<path d="M265 467.418C265.293 469.931 244.066 478.051 243 478.918C247.255 480.46 282.497 469.436 285.847 466.764L296.86 456.089L298.179 448.294L297.293 439.324L295.963 438.842C295.963 438.842 296.728 443.199 293.5 446.918C290.272 450.637 290.199 450.817 287 453.418C283.487 456.275 279.5 457.918 276.5 460.418C275.325 462.624 264.707 464.905 265 467.418Z" fill="#160E1B" fill-opacity="0.4"/>
<path d="M120.593 306.418C121.793 303.218 124.426 301.751 125.593 301.418C126.593 301.002 118.093 291.918 115.093 291.918C112.093 291.918 109.593 299.418 107.093 303.418C104.593 307.418 95.0928 313.418 93.0928 314.918C91.0928 316.418 88.0928 316.918 81.5928 318.918C75.0928 320.918 76.0928 333.418 75.0928 336.918C74.0928 340.418 79.5928 344.918 86.0928 343.918C91.2928 343.118 90.2594 341.585 89.0928 340.918C87.9261 340.085 85.3927 338.118 84.5927 336.918C83.5927 335.418 82.0927 326.418 91.0927 325.918C100.093 325.418 109.593 314.418 110.593 312.418C111.393 310.818 113.926 309.418 115.093 308.918C116.426 309.418 119.393 309.618 120.593 306.418Z" fill="#791E1E"/>
<path fill-rule="evenodd" clip-rule="evenodd" d="M109.423 300.157C108.791 301.421 108.156 302.66 107.517 303.683C106.854 304.743 105.75 305.905 104.467 307.063C103.177 308.226 101.679 309.408 100.204 310.506C98.7279 311.606 97.269 312.625 96.0565 313.462C95.7583 313.668 95.476 313.862 95.2125 314.043C94.3976 314.604 93.7627 315.04 93.3928 315.318C92.3196 316.123 90.9987 316.643 89.1785 317.208C88.3718 317.458 87.4552 317.721 86.4087 318.02C86.2708 318.06 86.1307 318.1 85.9883 318.141C84.7626 318.492 83.3601 318.897 81.7398 319.396C80.273 319.847 79.2062 320.893 78.4129 322.324C77.6154 323.763 77.112 325.56 76.7723 327.444C76.4332 329.324 76.263 331.255 76.1143 332.954L76.1068 333.039C75.9637 334.674 75.8356 336.138 75.5735 337.055C75.1615 338.497 76.0713 340.305 78.0661 341.695C80.0264 343.061 82.8973 343.904 86.0167 343.424C87.2964 343.227 88.1599 342.989 88.7207 342.746C89.2959 342.498 89.4745 342.277 89.5215 342.169C89.5512 342.1 89.5577 342.009 89.4414 341.847C89.3188 341.677 89.1017 341.499 88.8447 341.352L88.8227 341.339L88.8021 341.325C88.2094 340.901 87.2732 340.193 86.3818 339.437C85.5048 338.693 84.6203 337.861 84.1767 337.195C83.8634 336.725 83.5693 335.791 83.4252 334.702C83.2783 333.593 83.2765 332.246 83.6076 330.922C83.9397 329.594 84.6105 328.274 85.8169 327.255C87.0249 326.234 88.7289 325.548 91.065 325.419C95.3958 325.178 99.9148 322.394 103.52 319.348C105.312 317.834 106.858 316.273 108.016 314.969C109.187 313.649 109.928 312.63 110.146 312.194C110.603 311.279 111.522 310.47 112.419 309.845C113.33 309.211 114.285 308.72 114.896 308.458L115.08 308.379L115.268 308.45C115.86 308.672 116.826 308.827 117.762 308.573C118.667 308.327 119.582 307.69 120.125 306.242C121.278 303.166 123.686 301.597 125.079 301.064C124.953 300.823 124.724 300.483 124.4 300.064C123.715 299.177 122.669 298.02 121.493 296.869C120.317 295.719 119.025 294.589 117.849 293.751C117.261 293.331 116.712 292.992 116.229 292.759C115.737 292.522 115.356 292.418 115.093 292.418C114.557 292.418 113.964 292.756 113.299 293.488C112.644 294.21 111.994 295.231 111.343 296.41C110.801 297.389 110.271 298.455 109.741 299.519C109.635 299.732 109.529 299.945 109.423 300.157ZM112.559 292.816C113.284 292.017 114.128 291.418 115.093 291.418C115.579 291.418 116.121 291.597 116.663 291.858C117.215 292.124 117.815 292.498 118.43 292.937C119.661 293.815 120.994 294.982 122.192 296.154C123.391 297.327 124.47 298.519 125.192 299.452C125.549 299.915 125.835 300.335 126 300.669C126.079 300.828 126.154 301.014 126.171 301.198C126.179 301.293 126.175 301.424 126.115 301.558C126.049 301.707 125.931 301.819 125.785 301.88L125.758 301.891L125.73 301.899C124.684 302.197 122.195 303.57 121.061 306.593C120.404 308.346 119.235 309.209 118.024 309.538C116.943 309.832 115.859 309.693 115.115 309.455C114.557 309.708 113.755 310.133 112.991 310.666C112.13 311.266 111.382 311.957 111.04 312.641C110.758 313.206 109.936 314.311 108.764 315.633C107.578 316.969 105.998 318.564 104.165 320.112C100.521 323.191 95.7896 326.158 91.1205 326.417C88.9565 326.537 87.4731 327.164 86.4623 328.018C85.4499 328.874 84.8708 329.992 84.5778 331.164C84.2839 332.34 84.2821 333.556 84.4165 334.571C84.5536 335.607 84.822 336.36 85.0087 336.64C85.3651 337.175 86.1473 337.926 87.0287 338.674C87.8857 339.401 88.7886 340.085 89.3636 340.497C89.6833 340.683 90.0222 340.942 90.2534 341.264C90.4965 341.602 90.6551 342.069 90.4389 342.567C90.2402 343.025 89.775 343.38 89.1179 343.664C88.4465 343.955 87.4891 344.209 86.1688 344.412C82.7881 344.932 79.6591 344.024 77.4943 342.516C75.3642 341.031 74.0239 338.839 74.612 336.78C74.8454 335.964 74.9674 334.587 75.1181 332.866C75.2663 331.174 75.4398 329.199 75.7882 327.267C76.136 325.338 76.6638 323.417 77.5383 321.839C78.4168 320.255 79.6625 318.989 81.4457 318.44C83.0754 317.939 84.4854 317.531 85.7128 317.179C85.8555 317.138 85.9956 317.098 86.1333 317.059C87.1819 316.759 88.0868 316.5 88.8821 316.253C90.6868 315.693 91.866 315.213 92.7928 314.518C93.1807 314.227 93.842 313.772 94.6643 313.207C94.9241 313.028 95.2 312.838 95.4884 312.639C96.6978 311.804 98.1451 310.793 99.6066 309.704C101.069 308.615 102.54 307.454 103.797 306.32C105.061 305.18 106.081 304.093 106.669 303.153C107.28 302.176 107.895 300.977 108.528 299.71C108.633 299.501 108.738 299.291 108.843 299.079C109.373 298.015 109.915 296.926 110.468 295.926C111.129 294.73 111.823 293.626 112.559 292.816Z" fill="black"/>
<path d="M118.593 318.418C119.439 319.687 121.093 315.418 121.093 315.418L118.093 311.418C118.093 311.418 116.359 309.075 115.593 309.918C115.067 310.496 115.593 311.918 115.593 311.918C115.593 311.918 117.593 316.918 118.593 318.418Z" fill="#791E1E"/>
<path fill-rule="evenodd" clip-rule="evenodd" d="M115.987 310.236C115.985 310.236 115.98 310.236 115.963 310.254C115.928 310.292 115.886 310.374 115.868 310.531C115.85 310.685 115.861 310.869 115.89 311.059C115.919 311.245 115.962 311.419 115.999 311.548C116.018 311.612 116.034 311.663 116.046 311.697C116.051 311.715 116.056 311.727 116.059 311.735L116.06 311.74L116.079 311.788L116.144 311.948C116.2 312.086 116.282 312.287 116.383 312.532C116.585 313.022 116.865 313.691 117.176 314.406C117.8 315.841 118.524 317.404 118.995 318.119C119.004 318.113 119.014 318.105 119.026 318.096C119.221 317.938 119.468 317.596 119.726 317.145C119.974 316.712 120.199 316.235 120.364 315.863C120.427 315.719 120.481 315.593 120.523 315.492L117.693 311.718L117.691 311.715L117.688 311.711L117.675 311.694C117.664 311.679 117.646 311.656 117.623 311.627C117.577 311.569 117.511 311.485 117.428 311.388C117.261 311.191 117.036 310.942 116.794 310.722C116.543 310.494 116.311 310.332 116.131 310.265C116.046 310.233 116.001 310.234 115.987 310.236C115.987 310.236 115.988 310.236 115.987 310.236ZM121.093 315.418C121.559 315.598 121.559 315.598 121.559 315.599L121.558 315.6L121.557 315.602L121.553 315.613L121.538 315.65C121.526 315.683 121.507 315.73 121.483 315.788C121.434 315.906 121.365 316.072 121.278 316.267C121.107 316.655 120.866 317.166 120.594 317.642C120.332 318.1 120.007 318.588 119.655 318.873C119.479 319.015 119.227 319.164 118.924 319.153C118.589 319.14 118.34 318.94 118.177 318.695C117.647 317.901 116.879 316.231 116.259 314.805C115.945 314.082 115.663 313.407 115.459 312.913C115.357 312.666 115.274 312.464 115.217 312.323L115.152 312.161L115.129 312.104C115.128 312.103 115.128 312.103 115.593 311.918C115.124 312.091 115.124 312.091 115.124 312.091L115.123 312.088L115.121 312.083L115.115 312.068C115.111 312.055 115.104 312.036 115.097 312.014C115.082 311.968 115.061 311.904 115.038 311.825C114.993 311.669 114.939 311.451 114.902 311.21C114.865 310.972 114.843 310.692 114.874 310.417C114.906 310.146 114.995 309.832 115.223 309.581C115.396 309.392 115.612 309.278 115.852 309.245C116.08 309.214 116.297 309.259 116.482 309.328C116.842 309.463 117.188 309.729 117.466 309.982C117.753 310.242 118.009 310.526 118.192 310.742C118.283 310.851 118.358 310.944 118.41 311.01C118.436 311.044 118.457 311.07 118.471 311.089L118.488 311.111L118.492 311.117L118.493 311.119L118.494 311.12L121.659 315.34L121.559 315.599L121.093 315.418ZM115.593 311.918L115.124 312.091L115.129 312.104L115.593 311.918Z" fill="black"/>
<path d="M109.593 273.418L116.093 291.918C121.593 294.918 125.593 300.418 125.593 301.418C125.593 302.218 125.259 302.085 125.093 301.918L131.093 313.418L136.593 310.918V301.418C134.093 289.585 128.393 265.018 125.593 261.418C122.093 256.918 114.593 261.418 110.593 263.918C107.393 265.918 108.593 271.084 109.593 273.418Z" fill="#8508B1"/>
<path fill-rule="evenodd" clip-rule="evenodd" d="M118.429 260.52C115.686 261.373 112.863 263.089 110.858 264.342C109.474 265.207 108.994 266.778 109.018 268.536C109.042 270.287 109.57 272.096 110.052 273.221L110.059 273.236L116.501 291.572C119.242 293.1 121.598 295.218 123.277 297.083C124.135 298.036 124.823 298.931 125.3 299.659C125.538 300.023 125.728 300.352 125.861 300.63C125.983 300.886 126.093 301.171 126.093 301.418C126.093 301.645 126.07 301.849 126.01 302.021C125.978 302.114 125.929 302.213 125.856 302.3L131.317 312.767L136.093 310.596V301.47C134.843 295.557 132.8 286.494 130.721 278.456C129.678 274.424 128.628 270.657 127.665 267.676C127.184 266.186 126.726 264.898 126.305 263.876C125.878 262.841 125.503 262.118 125.198 261.725C123.649 259.733 121.188 259.662 118.429 260.52ZM118.132 259.565C120.998 258.674 124.036 258.602 125.987 261.111C126.382 261.618 126.798 262.45 127.229 263.494C127.665 264.55 128.131 265.865 128.617 267.369C129.589 270.377 130.644 274.166 131.689 278.205C133.779 286.285 135.831 295.393 137.082 301.315L137.093 301.366V311.24L130.868 314.069L124.649 302.149L125.444 301.566C125.442 301.565 125.44 301.564 125.438 301.563C125.418 301.554 125.323 301.52 125.204 301.573C125.097 301.62 125.065 301.695 125.064 301.696C125.064 301.696 125.065 301.695 125.066 301.693C125.074 301.67 125.093 301.591 125.093 301.418C125.093 301.42 125.093 301.421 125.093 301.421C125.092 301.421 125.09 301.394 125.07 301.331C125.048 301.263 125.012 301.173 124.959 301.061C124.851 300.836 124.686 300.547 124.464 300.208C124.019 299.529 123.363 298.674 122.534 297.752C120.872 295.906 118.54 293.822 115.853 292.357L115.685 292.265L109.126 273.599C108.61 272.389 108.044 270.457 108.018 268.55C107.992 266.641 108.511 264.629 110.328 263.494C112.323 262.247 115.249 260.462 118.132 259.565Z" fill="black"/>
<path d="M136.593 310.918L130.593 313.418C133.593 323.418 132.093 323.918 131.093 324.418C130.293 324.818 129.093 324.585 128.593 324.418L174.593 473.418L182.093 470.918L136.593 310.918Z" fill="#C5C1C8"/>
<path fill-rule="evenodd" clip-rule="evenodd" d="M136.92 310.24L182.704 471.241L174.266 474.054L127.828 323.636L128.751 323.944C128.963 324.014 129.346 324.105 129.762 324.131C130.186 324.158 130.583 324.114 130.869 323.971C130.886 323.962 130.903 323.954 130.919 323.946C131.165 323.823 131.332 323.74 131.479 323.569C131.625 323.398 131.788 323.087 131.845 322.437C131.96 321.104 131.614 318.562 130.114 313.562L129.984 313.13L136.92 310.24ZM131.2 313.706C132.595 318.431 132.971 321.027 132.841 322.524C132.772 323.312 132.56 323.844 132.238 324.22C131.953 324.552 131.61 324.721 131.38 324.834C131.358 324.845 131.336 324.855 131.316 324.865C130.802 325.122 130.199 325.161 129.699 325.129C129.57 325.121 129.445 325.108 129.324 325.092L174.92 472.782L181.481 470.595L136.266 311.596L131.2 313.706Z" fill="black"/>
<path d="M170.593 489.418C169.393 484.218 172.426 476.751 174.593 473.418L182.093 470.918C184.426 472.085 188.393 475.218 189.593 476.418C190.793 477.618 193.426 482.585 194.093 485.418C194.093 486.418 194.293 487.218 193.093 488.418C192.569 488.941 190.573 489.011 188.136 489.347L185.093 489.918C181.239 490.888 177.318 492.918 176.593 492.918C174.093 492.918 172.593 491.418 170.593 489.418L170.593 489.418Z" fill="#1B5A62"/>
<path fill-rule="evenodd" clip-rule="evenodd" d="M182.131 470.378L182.316 470.471C183.525 471.075 185.13 472.173 186.568 473.256C188.008 474.34 189.321 475.439 189.946 476.064C190.288 476.406 190.702 476.982 191.132 477.666C191.567 478.359 192.037 479.194 192.488 480.078C193.386 481.836 194.232 483.828 194.579 485.303L194.593 485.36V485.418C194.593 485.517 194.595 485.623 194.598 485.734C194.608 486.104 194.62 486.528 194.532 486.946C194.408 487.534 194.1 488.117 193.446 488.771C193.221 488.996 192.894 489.127 192.577 489.217C192.245 489.312 191.844 489.384 191.403 489.448C190.973 489.51 190.488 489.565 189.971 489.625L189.922 489.631C189.387 489.692 188.815 489.759 188.216 489.841L185.2 490.406C183.314 490.883 181.403 491.619 179.857 492.245C179.587 492.354 179.327 492.461 179.079 492.562C178.623 492.749 178.212 492.917 177.865 493.052C177.597 493.156 177.357 493.244 177.157 493.306C176.973 493.363 176.767 493.418 176.593 493.418C173.885 493.418 172.249 491.781 170.307 489.84L170.232 489.764L170.135 489.659L170.105 489.53C169.477 486.806 169.962 483.54 170.851 480.574C171.743 477.599 173.062 474.855 174.173 473.145L174.269 472.999L182.131 470.378ZM192.845 487.956L188.055 488.854C187.082 488.988 186.031 489.166 184.971 489.433C183.008 489.927 181.037 490.688 179.482 491.318C179.202 491.432 178.937 491.54 178.687 491.642C178.239 491.826 177.842 491.988 177.504 492.119C177.242 492.221 177.027 492.299 176.859 492.351C176.775 492.378 176.709 492.395 176.659 492.406C176.611 492.417 176.592 492.418 176.592 492.418C176.592 492.418 176.592 492.418 176.593 492.418C174.371 492.418 173.021 491.138 171.049 489.167C170.525 486.716 170.956 483.709 171.809 480.861C172.65 478.055 173.881 475.471 174.918 473.836L182.051 471.459C183.157 472.039 184.614 473.036 185.967 474.055C187.394 475.13 188.664 476.196 189.239 476.771C189.497 477.029 189.862 477.525 190.285 478.198C190.702 478.862 191.157 479.67 191.597 480.533C192.471 482.243 193.265 484.123 193.593 485.477C193.594 485.613 193.597 485.736 193.6 485.851C193.608 486.186 193.615 486.447 193.553 486.74C193.482 487.077 193.31 487.463 192.845 487.956Z" fill="black"/>
<path d="M149.093 355.918C147.093 358.318 141.593 358.918 139.093 358.918L141.093 365.418C145.493 367.418 149.593 364.251 151.093 362.418L149.093 355.918Z" fill="#160E1B"/>
<path fill-rule="evenodd" clip-rule="evenodd" d="M149.299 354.889L151.649 362.527L151.48 362.735C150.688 363.702 149.227 365.006 147.381 365.814C145.524 366.626 143.247 366.946 140.886 365.873L140.681 365.78L138.416 358.418H139.093C140.312 358.418 142.273 358.271 144.167 357.831C146.088 357.385 147.82 356.664 148.709 355.598L149.299 354.889ZM139.766 359.405L141.503 365.051C143.47 365.872 145.367 365.603 146.98 364.897C148.531 364.219 149.793 363.145 150.534 362.303L148.858 356.854C147.702 357.82 146.025 358.426 144.393 358.805C142.731 359.191 141.028 359.361 139.766 359.405Z" fill="black"/>
<path d="M158.593 388.418C156.593 390.818 152.093 391.418 149.593 391.418L151.593 398.418C155.993 400.418 159.093 397.751 160.593 395.918L158.593 388.418Z" fill="#160E1B"/>
<path fill-rule="evenodd" clip-rule="evenodd" d="M158.827 387.356L161.142 396.036L160.98 396.234C160.203 397.183 158.992 398.375 157.377 399.065C155.741 399.764 153.719 399.934 151.386 398.873L151.175 398.777L148.93 390.918H149.593C150.809 390.918 152.515 390.771 154.151 390.335C155.8 389.895 157.306 389.181 158.209 388.098L158.827 387.356ZM150.252 391.905L152.009 398.055C153.983 398.89 155.642 398.719 156.984 398.145C158.291 397.587 159.322 396.637 160.043 395.796L158.335 389.391C157.26 390.324 155.829 390.922 154.409 391.301C152.951 391.69 151.454 391.86 150.252 391.905Z" fill="black"/>
<path d="M164.593 409.918C162.926 412.285 158.176 413.377 156.093 413.377L158.093 419.918C161.759 421.89 165.343 418.726 166.593 416.918L164.593 409.918Z" fill="#160E1B"/>
<path fill-rule="evenodd" clip-rule="evenodd" d="M164.786 408.775L167.138 417.008L167.004 417.202C166.341 418.162 165.073 419.466 163.476 420.281C161.866 421.102 159.874 421.444 157.856 420.358L157.675 420.261L155.417 412.877H156.093C157.069 412.877 158.723 412.616 160.337 412.062C161.966 411.503 163.444 410.681 164.184 409.63L164.786 408.775ZM156.76 413.848L158.509 419.57C160.096 420.345 161.662 420.084 163.022 419.39C164.343 418.716 165.427 417.651 166.045 416.823L164.364 410.939C163.393 411.868 162.012 412.544 160.661 413.008C159.273 413.485 157.841 413.763 156.76 413.848Z" fill="black"/>
<path d="M86.0002 344C87.6002 344 89.0001 343 89.5001 342V341.5L87.5001 339.5L84.5001 336.5C84.1668 335.333 83.5001 332.9 83.5001 332.5C83.5001 332.1 84.1668 330.666 84.5001 330L87.0001 327L90.5001 326L96.5001 324.5L102.5 320.5L108.5 315.5L112.5 310.5L115 309.5L117 315.5L119.5 320L120.5 317L121.5 314L118 310L119.5 308C120 307.333 121.1 305.7 121.5 304.5C121.9 303.3 124.333 302 125.5 301.5L124 299L121.5 301.5C120.5 302.5 118.5 306 118 306.5C117.5 307 115.5 306.5 114 306.5C112.5 306.5 107.5 311.5 106.5 314.5C105.5 317.5 98.0001 320.5 96.5001 322C95.0001 323.5 90.0002 324 87.0001 324.5C84 325 83.5002 328 82.0002 330C80.8002 331.6 81.8335 337.333 82.5002 340C83.0002 341.333 84.4002 344 86.0002 344Z" fill="#160E1B" fill-opacity="0.4"/>
<path d="M113.5 276.5C113.1 274.5 110 270.333 108.5 268.5L109.5 273L112 280.5L116.5 292L119.5 294L124 299L125.5 301.5V303.5L130.5 313.5L132 313L130 308C129.333 306.333 128 302.7 128 301.5C128 300.3 124.667 297 123 295.5C121.5 293.833 118.4 290.3 118 289.5C117.5 288.5 114 279 113.5 276.5Z" fill="#160E1B" fill-opacity="0.4"/>
<path d="M134 328.5C132.8 326.9 132.5 323.5 132.5 322C132.1 324.8 129.667 324.5 128.5 324L134 342.5L144.5 375.5L158.5 421L174.5 473L172 479L170.5 484.5V489.5L174.5 492.5L177 493L180.5 491.5C179.333 491 176.7 490 175.5 490C174 490 173.5 487 173.5 484C173.5 481.6 175.833 478.333 177 477C176.2 475.8 176.667 473.5 177 472.5L175.5 471L170.5 454.5L162 426.5L154.5 403L150 388.5C148.667 383.666 145.9 373.6 145.5 372C145 370 142.5 360.5 141.5 359.5C140.7 358.7 139.833 354.833 139.5 353L136 340.5C135.833 337.166 135.2 330.1 134 328.5Z" fill="#160E1B" fill-opacity="0.4"/>
</g>
</svg>
