<svg width="257" height="272" viewBox="0 0 257 272" fill="none" xmlns="http://www.w3.org/2000/svg">
<mask id="mask0" mask-type="alpha" maskUnits="userSpaceOnUse" x="0" y="0" width="257" height="272">
<rect width="257" height="272" fill="#C4C4C4"/>
</mask>
<g mask="url(#mask0)">
<path d="M63.3252 237.82C72.9252 251.42 99.3252 249.154 110.825 246.32L115.825 222.82C108.825 217.82 101.492 199.654 99.3252 190.82C83.7252 189.22 83.3252 171.82 93.3252 165.32C100.325 163.82 102.992 165.487 105.325 167.32C102.525 162.12 109.992 147.154 113.825 140.32C141.025 140.72 157.825 129.487 162.825 123.82V130.32C172.325 135.82 180.825 120.82 179.325 123.82C178.125 126.22 186.825 139.487 191.325 145.82C193.659 151.32 197.925 168.62 196.325 193.82C194.725 219.02 172.325 229.654 161.325 231.82L164.325 243.32C187.925 251.32 213.825 232.987 223.825 222.82C220.825 222.154 214.025 208.22 210.825 157.82C206.825 94.8203 186.825 73.8203 163.825 71.3203C145.425 69.3203 137.159 77.1536 135.325 81.3203C87.8252 79.8203 69.3252 108.82 58.8252 133.82C48.3252 158.82 70.3252 194.32 72.3252 205.32C73.9252 214.12 66.9918 230.654 63.3252 237.82Z" fill="#D23E18"/>
<path fill-rule="evenodd" clip-rule="evenodd" d="M163.717 72.3144C145.626 70.348 137.853 78.0596 136.241 81.723C136.076 82.0965 135.702 82.3327 135.294 82.3198C111.775 81.5771 95.5231 88.3787 83.8514 98.3918C72.151 108.43 64.9749 121.761 59.7473 134.208C54.6487 146.347 57.4095 161.161 61.8369 174.505C63.9616 180.91 66.4479 186.914 68.5783 192.058C68.6593 192.254 68.7397 192.448 68.8196 192.641C70.9782 197.856 72.7851 202.259 73.3092 205.141C74.1581 209.811 72.7447 216.357 70.7513 222.492C68.8395 228.375 66.3298 234.066 64.4946 237.725C69.1149 243.81 77.5225 246.484 86.4469 247.236C95.2382 247.978 104.267 246.831 109.978 245.495L114.715 223.234C113.006 221.869 111.338 219.852 109.768 217.51C108.027 214.913 106.363 211.851 104.86 208.687C102.002 202.673 99.6914 196.214 98.5245 191.732C94.7728 191.224 91.84 189.808 89.714 187.802C87.4606 185.676 86.1661 182.936 85.7363 180.055C84.881 174.322 87.4381 167.954 92.7803 164.482C92.8827 164.415 92.9964 164.368 93.1158 164.342C96.711 163.572 99.2907 163.593 101.318 164.1C102.243 164.331 103.033 164.659 103.733 165.037C103.666 163.994 103.757 162.863 103.946 161.707C104.328 159.373 105.144 156.73 106.153 154.077C108.174 148.766 111.025 143.268 112.953 139.831C113.133 139.511 113.473 139.315 113.84 139.32C140.774 139.716 157.286 128.587 162.075 123.159C162.351 122.847 162.79 122.738 163.179 122.885C163.568 123.032 163.825 123.404 163.825 123.82V129.723C167.808 131.704 171.62 129.768 174.548 127.25C176.046 125.962 177.222 124.591 177.942 123.711C178.044 123.586 178.145 123.46 178.239 123.343C178.443 123.091 178.616 122.875 178.714 122.773C178.738 122.747 178.781 122.704 178.835 122.659C178.862 122.637 178.91 122.6 178.974 122.562C179.021 122.534 179.164 122.452 179.368 122.427C179.622 122.396 180.007 122.458 180.277 122.797C180.485 123.057 180.496 123.33 180.498 123.41C180.501 123.587 180.456 123.728 180.446 123.758L180.445 123.761C180.398 123.91 180.3 124.108 180.22 124.268C180.222 124.262 180.222 124.263 180.221 124.273C180.215 124.314 180.187 124.513 180.289 124.982C180.402 125.499 180.634 126.173 180.981 126.987C181.673 128.609 182.764 130.648 184.05 132.839C186.618 137.214 189.901 142.089 192.141 145.241C192.182 145.3 192.218 145.363 192.246 145.43C194.654 151.106 198.931 168.569 197.323 193.884C196.503 206.802 190.34 215.999 182.997 222.221C176.111 228.055 168.173 231.29 162.557 232.58L165.156 242.542C176.469 246.186 188.364 243.7 198.761 238.972C208.699 234.454 217.153 227.936 222.219 223.007C222.07 222.871 221.926 222.723 221.787 222.565C221.233 221.937 220.664 221.061 220.087 219.923C218.93 217.643 217.677 214.185 216.43 209.214C213.935 199.264 211.429 183.114 209.827 157.884C207.832 126.459 201.852 105.649 193.602 92.4117C185.383 79.225 174.901 73.53 163.717 72.3144ZM134.71 80.3022C137.231 75.5863 146.024 68.3795 163.933 70.3262C175.75 71.6106 186.768 77.6656 195.299 91.3539C203.799 104.992 209.818 126.181 211.823 157.757C213.421 182.927 215.916 198.943 218.37 208.727C219.598 213.623 220.808 216.923 221.87 219.018C222.402 220.067 222.882 220.783 223.286 221.242C223.707 221.718 223.968 221.828 224.042 221.844C224.397 221.923 224.681 222.188 224.784 222.537C224.887 222.885 224.793 223.262 224.538 223.522C219.465 228.679 210.392 235.881 199.589 240.793C188.793 245.703 176.139 248.381 164.004 244.267C163.686 244.159 163.443 243.898 163.358 243.573L160.358 232.073C160.288 231.806 160.332 231.522 160.478 231.289C160.625 231.055 160.862 230.892 161.132 230.839C166.487 229.784 174.675 226.65 181.704 220.695C188.711 214.758 194.548 206.038 195.327 193.757C196.91 168.825 192.715 151.744 190.446 146.31C188.188 143.126 184.908 138.251 182.325 133.852C181.024 131.634 179.884 129.511 179.142 127.772C178.892 127.187 178.68 126.629 178.523 126.116C177.814 126.915 176.911 127.856 175.852 128.766C172.652 131.518 167.662 134.276 162.324 131.186C162.015 131.007 161.825 130.677 161.825 130.32V126.247C155.168 132.335 138.997 141.538 114.409 141.327C112.518 144.739 109.896 149.864 108.022 154.788C107.036 157.381 106.271 159.883 105.92 162.03C105.562 164.221 105.669 165.85 106.206 166.846C106.43 167.263 106.332 167.781 105.969 168.086C105.607 168.39 105.08 168.399 104.707 168.107C103.577 167.218 102.46 166.447 100.833 166.04C99.2228 165.638 97.0206 165.571 93.7176 166.259C89.1636 169.309 86.9778 174.823 87.7144 179.76C88.0846 182.242 89.1901 184.558 91.0866 186.348C92.9804 188.135 95.7155 189.445 99.4273 189.826C99.8479 189.869 100.196 190.172 100.297 190.582C101.361 194.924 103.712 201.61 106.666 207.829C108.142 210.935 109.759 213.905 111.429 216.396C113.109 218.902 114.801 220.859 116.407 222.007C116.73 222.238 116.886 222.639 116.803 223.028L111.803 246.528C111.724 246.903 111.437 247.2 111.065 247.291C105.229 248.729 95.6439 250.019 86.2788 249.229C76.96 248.443 67.5721 245.571 62.5083 238.397C62.294 238.093 62.2657 237.696 62.435 237.365C64.2486 233.82 66.8766 227.944 68.8492 221.874C70.8392 215.75 72.0925 209.63 71.3414 205.499C70.8654 202.881 69.1724 198.722 66.9716 193.406C66.8896 193.208 66.807 193.008 66.7238 192.807C64.5974 187.672 62.0867 181.609 59.9387 175.135C55.491 161.73 52.5018 146.294 57.9033 133.433C63.1757 120.88 70.4996 107.211 82.5492 96.8738C94.5186 86.6053 111.075 79.689 134.71 80.3022Z" fill="black"/>
</g>
</svg>
