<svg width="229" height="380" viewBox="0 0 229 380" fill="none" xmlns="http://www.w3.org/2000/svg">
<path d="M91.9148 150.072L97.8577 121.018C116.347 133.894 128.562 134.224 143.75 130.263L148.702 150.732C149.032 157.776 144.41 171.532 123.28 170.211C102.15 168.891 93.5656 156.235 91.9148 150.072Z" fill="#B6704F"/>
<path fill-rule="evenodd" clip-rule="evenodd" d="M97.4864 120.09C97.7988 119.965 98.1531 120.005 98.4291 120.198C107.593 126.579 115.131 129.802 122.204 130.968C129.276 132.133 135.974 131.258 143.497 129.295C143.757 129.227 144.033 129.267 144.263 129.404C144.493 129.542 144.659 129.767 144.722 130.027L149.674 150.497C149.689 150.559 149.698 150.622 149.701 150.685C149.876 154.415 148.747 159.891 144.78 164.279C140.779 168.705 134.019 171.885 123.218 171.209C101.656 169.862 92.7101 156.906 90.9488 150.331C90.9087 150.181 90.904 150.024 90.9351 149.871L96.8779 120.818C96.9454 120.488 97.174 120.215 97.4864 120.09ZM98.5351 122.696L92.9428 150.036C94.6325 155.877 102.907 167.936 123.342 169.213C133.671 169.859 139.787 166.82 143.297 162.938C146.808 159.053 147.839 154.185 147.707 150.873L143.016 131.482C135.735 133.306 129.014 134.117 121.879 132.941C114.761 131.768 107.313 128.633 98.5351 122.696Z" fill="black"/>
<path d="M130.821 156.513C115.422 158.902 103.089 134.285 98.8481 121.678C119.323 135.559 131.056 132.978 143.079 130.335L143.218 130.304C145.393 137.935 146.22 154.124 130.821 156.513Z" fill="#A44C22"/>
<path d="M87.2926 15.0383C71.1809 27.188 73.866 52.1145 77.3877 63.1197C75.8571 63.4576 74.2819 64.2 72.7654 65.5521C68.5572 69.3043 66.1623 81.3996 75.0765 87.0122C76.5486 87.9391 79.0403 88.7235 81.6798 88.8163C83.4406 96.5199 89.6037 115.075 98.8482 121.679C110.404 129.932 128.232 138.186 153.324 126.631C178.416 115.075 182.378 90.9741 176.766 58.2887C171.153 25.6033 156.626 9.0955 141.108 3.81301C125.591 -1.46948 107.432 -0.148862 87.2926 15.0383Z" fill="#B6704F"/>
<path fill-rule="evenodd" clip-rule="evenodd" d="M140.786 4.75961C125.602 -0.409588 107.786 0.836515 87.8947 15.8367C80.1432 21.682 76.8597 30.6377 75.9728 39.6066C75.1299 48.1295 76.4679 56.5396 78.0838 61.9831C80.4044 61.6786 82.5609 62.1639 84.2381 62.796C86.1321 63.5098 87.4894 64.4383 87.9065 64.7627C88.3425 65.1018 88.421 65.7301 88.0819 66.166C87.7429 66.602 87.1146 66.6805 86.6786 66.3414C86.3937 66.1198 85.21 65.2996 83.5328 64.6675C81.8566 64.0358 79.7621 63.6195 77.6033 64.0961C76.2408 64.3969 74.8203 65.0596 73.4309 66.2985C71.5936 67.9367 70.01 71.5943 70 75.587C69.9902 79.5178 71.5062 83.5825 75.6093 86.1659C76.908 86.9837 79.2214 87.7292 81.7149 87.8169C84.5282 87.9158 87.3447 87.1753 89.1744 85.0407C89.5338 84.6214 90.1651 84.5729 90.5844 84.9323C91.0038 85.2918 91.0523 85.923 90.6929 86.3424C88.6419 88.735 85.7321 89.6687 82.9466 89.8069C83.9222 93.6826 85.7703 99.5216 88.3683 105.247C91.271 111.644 95.0335 117.725 99.4294 120.865C105.14 124.944 112.349 128.985 121.19 130.599C130.015 132.211 140.537 131.419 152.906 125.723C165.192 120.065 172.257 111.377 175.601 100.099C178.961 88.7621 178.577 74.7453 175.78 58.4579C170.204 25.984 155.834 9.8821 140.786 4.75961ZM80.8774 89.7704C81.8418 93.743 83.7765 99.9677 86.547 106.073C89.4771 112.531 93.4184 119.029 98.2669 122.492C104.111 126.667 111.595 130.88 120.83 132.567C130.082 134.257 141.02 133.398 153.743 127.539C166.549 121.641 174.01 112.5 177.518 100.668C181.008 88.8939 180.567 74.5173 177.751 58.1194C172.102 25.2224 157.418 8.3088 141.431 2.86631C125.58 -2.52947 107.078 -1.13433 86.6905 14.2398C78.3303 20.5442 74.9005 30.1266 73.9825 39.4097C73.117 48.1619 74.4678 56.7708 76.1304 62.4299C74.7717 62.8801 73.4084 63.639 72.0999 64.8057C69.7291 66.9196 68.011 71.1857 68.0001 75.582C67.9889 80.04 69.7326 84.8292 74.5437 87.8584C76.0373 88.7988 78.3753 89.564 80.8774 89.7704Z" fill="black"/>
<path fill-rule="evenodd" clip-rule="evenodd" d="M154.246 31.5142C150.841 31.4753 147.354 32.6515 145.196 33.7567C144.705 34.0085 144.102 33.8141 143.85 33.3225C143.598 32.831 143.793 32.2284 144.284 31.9766C146.639 30.7707 150.449 29.4707 154.269 29.5144C158.132 29.5585 162.109 30.9936 164.442 35.3675C164.702 35.8548 164.517 36.4605 164.03 36.7204C163.543 36.9803 162.937 36.796 162.677 36.3087C160.784 32.7588 157.607 31.5526 154.246 31.5142ZM113.052 38.7444C113.088 39.2955 112.671 39.7714 112.12 39.8074C100.495 40.5654 96.4674 48.2816 95.8727 51.8499C95.7819 52.3947 95.2666 52.7627 94.7219 52.6719C94.1771 52.5811 93.8091 52.0659 93.8999 51.5211C94.6258 47.1658 99.3139 38.6382 111.989 37.8116C112.541 37.7756 113.016 38.1933 113.052 38.7444Z" fill="black"/>
<path d="M107.102 57.6284C106.574 50.2329 109.743 49.3745 112.054 49.3745C113.705 49.3745 115.95 49.7707 117.007 56.6379C118.063 63.5052 115.356 64.2315 113.705 64.5617C111.724 64.8918 107.63 65.0239 107.102 57.6284Z" fill="black"/>
<path fill-rule="evenodd" clip-rule="evenodd" d="M108.14 50.3955C109.298 49.0965 110.848 48.8745 112.054 48.8745C112.934 48.8745 114.078 48.9825 115.118 50.0886C116.122 51.1577 116.968 53.0968 117.501 56.5619C118.036 60.0409 117.642 62.0977 116.782 63.3365C115.91 64.5916 114.641 64.8844 113.803 65.052L113.795 65.0535L113.787 65.0549C112.769 65.2245 111.091 65.368 109.591 64.4141C108.067 63.4456 106.873 61.4453 106.603 57.664C106.335 53.9133 106.992 51.6833 108.14 50.3955ZM108.887 51.0608C108.004 52.051 107.34 53.948 107.601 57.5928C107.859 61.2069 108.976 62.8384 110.127 63.5702C111.298 64.3145 112.653 64.2294 113.615 64.0698C114.426 63.9072 115.332 63.6704 115.961 62.766C116.602 61.8422 117.034 60.1022 116.513 56.714C115.989 53.3118 115.184 51.6192 114.389 50.7734C113.629 49.9646 112.826 49.8745 112.054 49.8745C110.949 49.8745 109.759 50.0817 108.887 51.0608Z" fill="black"/>
<path d="M147.77 50.0348C147.242 42.6393 150.411 41.7809 152.722 41.7809C154.373 41.7809 156.618 42.1771 157.675 49.0443C158.731 55.9115 156.024 56.6379 154.373 56.968C152.392 57.2982 148.298 57.4303 147.77 50.0348Z" fill="black"/>
<path fill-rule="evenodd" clip-rule="evenodd" d="M148.808 42.8018C149.966 41.5029 151.516 41.2809 152.722 41.2809C153.602 41.2809 154.746 41.3889 155.786 42.495C156.79 43.5641 157.636 45.5032 158.169 48.9683C158.704 52.4473 158.31 54.504 157.45 55.7428C156.578 56.998 155.309 57.2908 154.471 57.4583L154.463 57.4599L154.455 57.4612C153.437 57.6309 151.759 57.7744 150.259 56.8205C148.735 55.852 147.541 53.8517 147.271 50.0704C147.003 46.3197 147.66 44.0897 148.808 42.8018ZM149.555 43.4672C148.672 44.4574 148.008 46.3544 148.269 49.9992C148.527 53.6133 149.644 55.2448 150.795 55.9766C151.966 56.7209 153.321 56.6358 154.283 56.4762C155.094 56.3136 156 56.0767 156.629 55.1723C157.27 54.2486 157.702 52.5086 157.181 49.1203C156.657 45.7182 155.852 44.0256 155.057 43.1798C154.297 42.371 153.494 42.2809 152.722 42.2809C151.617 42.2809 150.427 42.4881 149.555 43.4672Z" fill="black"/>
<path fill-rule="evenodd" clip-rule="evenodd" d="M136.999 61.9376C134.925 62.413 132.697 64.0994 131.263 65.5859C130.88 65.9834 130.247 65.9949 129.849 65.6116C129.452 65.2282 129.44 64.5951 129.824 64.1976C131.362 62.6026 133.921 60.5913 136.552 59.9882C137.897 59.6797 139.335 59.7249 140.647 60.4683C141.955 61.2093 142.988 62.5585 143.701 64.5554C144.583 67.0251 144.639 69.1336 144.072 70.8891C143.505 72.6441 142.35 73.9383 141.006 74.8421C139.67 75.7409 138.126 76.2691 136.705 76.5097C135.299 76.7478 133.916 76.7201 132.897 76.4145C132.368 76.2558 132.068 75.6984 132.227 75.1694C132.386 74.6404 132.943 74.3402 133.472 74.4989C134.104 74.6885 135.156 74.7434 136.371 74.5378C137.57 74.3348 138.833 73.8932 139.89 73.1824C140.94 72.4768 141.766 71.5217 142.169 70.2744C142.572 69.0276 142.586 67.3805 141.818 65.2281C141.21 63.5272 140.427 62.6424 139.661 62.2085C138.9 61.7772 138.006 61.7068 136.999 61.9376Z" fill="black"/>
<path d="M119.318 90.3138C124.821 90.3138 136.882 90.1817 141.109 89.6535C145.335 89.1252 154.975 85.6916 159.267 84.0408C161.468 83.2705 164.856 82.8143 163.559 88.0027C161.908 94.6058 160.918 107.482 144.74 111.444C131.798 114.613 123.72 107.482 121.299 103.52C118.768 100.108 114.035 89.9836 119.318 90.3138Z" fill="#46210F"/>
<path fill-rule="evenodd" clip-rule="evenodd" d="M159.612 84.9797C157.451 85.8103 153.959 87.0843 150.473 88.2189C147.006 89.347 143.453 90.368 141.233 90.6456C136.93 91.1835 124.794 91.3137 119.318 91.3137H119.287L119.256 91.3117C118.745 91.2798 118.481 91.3813 118.344 91.4739C118.215 91.5614 118.091 91.715 118.008 92.0202C117.824 92.6969 117.929 93.8117 118.339 95.2371C119.143 98.0291 120.902 101.306 122.102 102.924L122.129 102.96L122.152 102.998C124.395 106.669 132.067 113.518 144.502 110.472C152.309 108.561 156.373 104.536 158.719 100.235C160.596 96.7953 161.38 93.1981 162.045 90.149C162.228 89.3058 162.403 88.5045 162.589 87.76C162.895 86.5381 162.888 85.7781 162.776 85.3301C162.676 84.9356 162.5 84.7837 162.31 84.6968C162.065 84.585 161.684 84.5385 161.163 84.5986C160.661 84.6565 160.119 84.803 159.612 84.9797ZM164.715 84.8426C164.942 85.7442 164.873 86.8729 164.529 88.2451C164.366 88.8989 164.206 89.6347 164.033 90.432C163.368 93.497 162.505 97.4717 160.475 101.192C157.869 105.97 153.35 110.365 144.978 112.415C131.569 115.699 123.096 108.339 120.469 104.08C119.14 102.276 117.286 98.8107 116.417 95.7901C115.988 94.2992 115.742 92.7315 116.078 91.496C116.255 90.8452 116.608 90.2353 117.221 89.819C117.819 89.4133 118.55 89.2689 119.348 89.3137C124.89 89.3132 136.842 89.1789 140.984 88.6611C142.99 88.4104 146.37 87.4506 149.854 86.3171C153.309 85.1926 156.776 83.9276 158.908 83.1074L158.922 83.1019L158.937 83.0969C159.526 82.8905 160.227 82.6933 160.934 82.6117C161.627 82.5318 162.425 82.551 163.14 82.8774C163.91 83.2287 164.475 83.8875 164.715 84.8426Z" fill="black"/>
<path d="M129.553 110.453C129.223 107.482 128.562 99.8883 140.448 98.5676C152.334 97.247 153.985 103.52 154.645 106.491C151.673 109.793 139.788 115.075 129.553 110.453Z" fill="#DF1919"/>
<path fill-rule="evenodd" clip-rule="evenodd" d="M151.089 101.665C149.39 100.143 146.328 98.9204 140.558 99.5615C134.839 100.197 132.386 102.299 131.305 104.356C130.316 106.238 130.352 108.291 130.488 109.769C135.195 111.722 140.264 111.553 144.58 110.474C148.734 109.435 152.031 107.597 153.547 106.182C153.206 104.781 152.617 103.034 151.089 101.665ZM152.423 100.175C154.658 102.177 155.287 104.77 155.621 106.274L155.733 106.777L155.388 107.16C153.72 109.014 149.794 111.232 145.065 112.414C140.298 113.606 134.524 113.795 129.141 111.365L128.622 111.13L128.559 110.564C128.394 109.077 128.1 106.156 129.534 103.426C131.012 100.614 134.171 98.2588 140.338 97.5737C146.453 96.8942 150.16 98.1476 152.423 100.175Z" fill="black"/>
<path d="M1.40741 295.482L6.90741 250.982C24.1075 255.782 39.0741 268.982 44.4073 274.982L39.4073 282.982C37.8074 287.382 43.074 305.482 45.9073 313.982C47.074 316.482 52.6073 320.182 55.4073 324.982C58.9073 330.982 64.9073 332.982 68.9073 336.482C72.1073 339.282 77.2407 351.982 77.4073 356.982C76.4073 360.982 70.0625 358.332 68.9073 354.482C65.4574 342.982 60.574 344.482 57.9073 340.482L60.4073 347.482C64.7407 355.482 68.6073 372.682 49.4073 377.482C25.4073 383.482 19.4073 349.982 17.9073 341.982C16.4073 333.982 9.40741 322.982 4.40741 314.982C0.407408 308.582 0.740741 299.315 1.40741 295.482Z" fill="#B6704F"/>
<path fill-rule="evenodd" clip-rule="evenodd" d="M6.35284 250.15C6.59513 249.988 6.89576 249.941 7.1762 250.019C24.6318 254.89 39.7534 268.241 45.1548 274.318C45.4496 274.649 45.4906 275.136 45.2553 275.512L40.3166 283.414C40.1926 283.807 40.1142 284.408 40.111 285.233C40.1077 286.106 40.1882 287.161 40.3415 288.36C40.648 290.757 41.2357 293.659 41.9673 296.712C43.4228 302.785 45.4268 309.373 46.8363 313.607C47.0643 314.069 47.5244 314.656 48.219 315.396C48.7769 315.99 49.4316 316.627 50.1518 317.327C50.3447 317.515 50.5423 317.707 50.744 317.905C52.6198 319.739 54.7952 321.948 56.2711 324.478C57.9153 327.297 60.1554 329.197 62.5391 330.847C63.3448 331.405 64.146 331.921 64.9495 332.438C65.3491 332.695 65.7493 332.953 66.151 333.216C67.3403 333.996 68.5122 334.808 69.5659 335.729C70.5025 336.549 71.492 337.997 72.4339 339.674C73.3923 341.38 74.3563 343.424 75.2199 345.527C76.9282 349.687 78.317 354.256 78.4068 356.949C78.4099 357.042 78.4 357.134 78.3775 357.225C78.0503 358.533 77.2362 359.398 76.1391 359.768C75.1046 360.117 73.9411 359.986 72.8878 359.621C70.8054 358.898 68.6404 357.072 67.9495 354.769C66.2717 349.176 64.2888 346.867 62.4952 345.455C61.8644 344.959 61.2811 344.587 60.6787 344.203C60.5159 344.099 60.3517 343.994 60.1847 343.886L61.3235 347.074C63.5357 351.186 65.6518 357.673 64.7211 363.831C64.2497 366.951 62.9932 369.998 60.5638 372.58C58.1367 375.159 54.5952 377.216 49.6499 378.452C43.4009 380.014 38.249 379.012 34.0498 376.445C29.8836 373.897 26.7313 369.857 24.3412 365.46C19.6763 356.876 17.7591 346.628 16.9772 342.448C16.959 342.351 16.9415 342.257 16.9245 342.166C16.2044 338.326 14.1427 333.689 11.5898 328.957C9.21203 324.549 6.45274 320.138 4.05675 316.307C3.88911 316.039 3.72324 315.774 3.55941 315.512C1.44532 312.13 0.502725 308.041 0.161673 304.362C-0.178611 300.691 0.0720177 297.34 0.417934 295.335L5.91496 250.859C5.95067 250.57 6.11055 250.311 6.35284 250.15ZM7.75584 252.27L2.39985 295.605C2.39784 295.621 2.39543 295.637 2.39262 295.653C2.07406 297.485 1.82815 300.671 2.15313 304.177C2.47875 307.69 3.36948 311.435 5.2554 314.452C5.42093 314.717 5.58876 314.985 5.75862 315.257C8.14877 319.078 10.9404 323.541 13.35 328.007C15.922 332.775 18.1103 337.638 18.8902 341.798C18.905 341.876 18.9201 341.957 18.9357 342.041C19.7169 346.214 21.587 356.203 26.0985 364.505C28.3959 368.732 31.3373 372.442 35.0931 374.738C38.8157 377.014 43.4138 377.95 49.1648 376.512C53.8195 375.348 56.9946 373.455 59.1071 371.209C61.2173 368.967 62.3233 366.313 62.7436 363.533C63.5911 357.925 61.636 351.85 59.5281 347.958C59.5037 347.913 59.4828 347.867 59.4656 347.818L56.9656 340.818C56.7957 340.343 57.0072 339.815 57.4585 339.588C57.9098 339.362 58.4593 339.507 58.7394 339.927C59.3043 340.775 59.9911 341.345 60.8274 341.912C61.0754 342.081 61.3514 342.257 61.6449 342.445C62.2935 342.86 63.0273 343.329 63.732 343.884C65.9092 345.597 68.093 348.288 69.8652 354.195C70.3294 355.742 71.9145 357.166 73.5433 357.731C74.3456 358.01 75.028 358.032 75.5004 357.873C75.8839 357.744 76.2185 357.469 76.4016 356.868C76.2782 354.53 75.0344 350.341 73.3698 346.287C72.5292 344.24 71.5995 342.272 70.6902 340.653C69.7643 339.005 68.9122 337.815 68.2488 337.235C67.3025 336.407 66.2244 335.656 65.0544 334.889C64.6822 334.645 64.2972 334.397 63.905 334.144C63.085 333.616 62.2333 333.068 61.4006 332.492C58.9093 330.767 56.3994 328.667 54.5436 325.486C53.2195 323.216 51.2282 321.175 49.3457 319.335C49.1548 319.148 48.9644 318.963 48.7757 318.779C48.0509 318.074 47.3531 317.395 46.7613 316.765C46.0268 315.983 45.3652 315.185 45.0012 314.405C44.985 314.37 44.9708 314.335 44.9587 314.298C43.5358 310.03 41.5018 303.351 40.0224 297.178C39.2831 294.093 38.6771 291.113 38.3576 288.614C38.1979 287.364 38.1073 286.216 38.1111 285.225C38.1148 284.251 38.2091 283.351 38.4676 282.64C38.4915 282.575 38.5222 282.511 38.5593 282.452L43.1589 275.093C37.63 269.085 23.7245 257.093 7.75584 252.27Z" fill="black"/>
<path d="M19.9073 257.482C18.7073 256.282 14.4073 254.482 7.90735 251.982C5.90735 264.982 1.80735 290.982 1.40735 296.982C0.740684 306.982 4.96166 316.437 9.90735 322.482C14.4072 327.982 18.4075 341.482 21.9075 355.982C24.7574 367.789 32.9073 373.982 36.4075 375.482C36.4075 375.482 42.4073 377.982 45.4073 376.982C48.4073 375.982 38.4073 375.482 34.4073 371.982C31.397 369.348 26.2409 358.315 24.4075 353.482C23.5742 345.982 21.4074 331.482 16.9075 326.982C12.3799 322.454 7.90712 307.982 6.40735 301.982C4.82644 295.657 21.4073 258.982 19.9073 257.482Z" fill="#A44C22"/>
<path d="M173.907 218.982C174.707 214.182 186.574 198.315 192.407 190.982C199.574 209.315 214.007 249.282 214.407 262.482C214.807 275.682 218.574 289.315 220.407 294.482C225.407 299.482 227.907 311.482 227.407 319.482C225.907 326.482 225.907 329.982 220.407 333.982C213.345 339.118 206.907 334.482 203.407 331.482C202.334 330.562 198.125 325.83 200.907 317.482C202.407 312.982 197.907 307.482 196.907 308.482C195.574 313.315 195.907 315.482 195.907 319.482C195.907 323.982 197.407 323.982 196.907 326.482C196.486 328.588 195.007 330.082 191.407 326.482C187.807 322.882 187.407 318.982 187.407 314.482C187.407 309.982 187.778 305.914 189.407 302.982C196.907 289.482 189.407 263.982 187.407 256.982C185.407 249.982 177.407 228.149 173.907 218.982Z" fill="#B6704F"/>
<path fill-rule="evenodd" clip-rule="evenodd" d="M192.706 189L193.339 190.618C196.927 199.798 202.334 214.391 206.895 228.346C209.176 235.324 211.248 242.152 212.777 248.069C214.3 253.964 215.303 259.031 215.407 262.452C215.798 275.344 219.44 288.686 221.277 293.94C223.882 296.645 225.76 301.017 226.938 305.608C228.149 310.323 228.663 315.428 228.405 319.544L228.401 319.619L228.385 319.692C228.201 320.55 228.038 321.368 227.882 322.15C227.42 324.467 227.022 326.463 226.339 328.22C225.387 330.669 223.882 332.692 220.996 334.791C217.185 337.562 213.478 337.713 210.28 336.74C207.143 335.784 204.527 333.759 202.757 332.241C201.469 331.138 197.012 326.006 199.959 317.166C200.579 315.305 199.975 313.119 198.982 311.425C198.529 310.653 198.034 310.052 197.625 309.687C196.817 312.942 196.847 314.872 196.888 317.491C196.897 318.107 196.907 318.762 196.907 319.482C196.907 321.588 197.251 322.597 197.537 323.396C197.549 323.43 197.561 323.465 197.574 323.5C197.712 323.884 197.868 324.318 197.948 324.802C198.041 325.358 198.034 325.95 197.888 326.678C197.666 327.786 197.072 329.276 195.559 329.6C194.825 329.757 194.05 329.586 193.271 329.187C192.493 328.789 191.641 328.13 190.7 327.189C186.806 323.295 186.407 319.044 186.407 314.482C186.407 309.981 186.767 305.676 188.533 302.496C192.114 296.051 192.163 286.588 190.979 277.676C189.842 269.124 187.607 261.314 186.554 257.633C186.516 257.503 186.48 257.377 186.446 257.257C184.46 250.306 176.477 228.516 172.973 219.339L172.876 219.085L172.921 218.818C173.155 217.415 174.141 215.376 175.449 213.113C176.785 210.802 178.542 208.115 180.448 205.363C184.259 199.857 188.699 194.038 191.625 190.36L192.706 189ZM174.945 218.896C178.493 228.206 186.374 249.726 188.369 256.707C188.404 256.831 188.441 256.96 188.48 257.095C189.535 260.783 191.805 268.712 192.961 277.413C194.152 286.376 194.2 296.414 190.281 303.468C188.79 306.152 188.407 309.983 188.407 314.482C188.407 318.92 188.808 322.469 192.114 325.775C192.973 326.634 193.657 327.138 194.182 327.407C194.705 327.675 195.001 327.674 195.14 327.644C195.371 327.595 195.727 327.285 195.927 326.286C196.031 325.764 196.024 325.418 195.976 325.131C195.926 324.831 195.829 324.561 195.676 324.133L195.653 324.068C195.314 323.118 194.907 321.877 194.907 319.482C194.907 318.801 194.897 318.169 194.887 317.562C194.841 314.656 194.803 312.349 195.943 308.216L196.014 307.962L196.2 307.775C196.681 307.295 197.297 307.316 197.71 307.438C198.11 307.555 198.483 307.8 198.802 308.063C199.454 308.601 200.134 309.436 200.708 310.414C201.84 312.346 202.736 315.159 201.856 317.798C199.237 325.655 203.198 329.986 204.058 330.723C205.787 332.205 208.141 333.998 210.863 334.826C213.524 335.637 216.568 335.538 219.819 333.173C222.433 331.272 223.678 329.545 224.475 327.495C225.09 325.914 225.44 324.16 225.889 321.912C226.046 321.123 226.216 320.272 226.414 319.346C226.646 315.475 226.159 310.613 225.001 306.106C223.829 301.542 222.011 297.5 219.7 295.189L219.54 295.029L219.465 294.817C217.609 289.587 213.812 275.847 213.408 262.512C213.311 259.333 212.361 254.454 210.841 248.57C209.327 242.708 207.268 235.924 204.994 228.968C200.708 215.854 195.67 202.168 192.109 192.973C189.257 196.61 185.429 201.681 182.092 206.501C180.201 209.232 178.478 211.87 177.181 214.114C175.961 216.224 175.189 217.87 174.945 218.896Z" fill="black"/>
<path d="M191.907 255.482C189.907 248.482 180.574 227.149 174.907 217.982C177.407 226.482 185.907 246.982 189.407 260.482C191.049 266.814 192.982 276.658 193.407 283.482C193.891 291.234 192.705 295.816 191.907 299.982C193.241 297.649 195.107 291.782 195.907 286.982C196.907 280.982 194.395 264.189 191.907 255.482Z" fill="#A44C22"/>
<path d="M203.407 313.482C202.207 310.282 199.407 308.149 198.407 307.982C201.907 311.982 201.407 316.482 200.907 320.482C200.507 323.682 200.907 326.482 201.907 328.482L205.407 331.982C204.574 330.649 203.807 328.182 203.407 326.982C203.007 325.782 202.907 324.982 203.407 322.482C204.241 320.815 204.607 316.682 203.407 313.482Z" fill="#A44C22"/>
</svg>
