<svg width="190" height="192" viewBox="0 0 190 192" fill="none" xmlns="http://www.w3.org/2000/svg">
<path d="M87.5074 1.26839C74.5074 1.43506 50 -2.88742 36.0073 17.7684C25.5073 33.2684 0.507391 69.2684 1.00739 101.768C10.8407 105.435 32.5074 115.668 40.5074 127.268C40.5074 128.102 39.7074 130.568 36.5074 133.768C33.3074 136.968 39.174 156.768 42.5074 166.268C46.5074 172.768 63.2073 182.868 106.007 189.268C148.807 195.668 171.507 171.268 181.007 157.768C181.007 142.268 177.055 93.9239 165.007 61.2684L170.007 74.2684C168.407 69.4684 181.674 51.9351 188.507 43.7684C189.307 36.9684 177.841 17.6018 172.007 8.76843C163.607 -0.0315695 153.341 0.101724 145.007 2.76839C142.607 18.7684 128.341 22.1017 121.507 21.7684C98.7074 20.9684 89.3407 7.76839 87.5074 1.26839Z" fill="#FF8B00"/>
<path fill-rule="evenodd" clip-rule="evenodd" d="M81.4242 0.152468C83.6598 0.224952 85.708 0.29136 87.4946 0.268456L88.2616 0.258622L88.4698 0.996914C90.183 7.07077 99.1689 19.9839 121.542 20.769L121.556 20.7695L121.556 20.7696C124.814 20.9285 129.888 20.2075 134.411 17.5326C138.893 14.8821 142.866 10.2999 144.018 2.62003L144.111 2.00538L144.703 1.81595C153.251 -0.919381 163.973 -1.09709 172.731 8.07794L172.793 8.14267L172.842 8.21735C175.773 12.6554 180.118 19.7373 183.634 26.5735C185.392 29.9903 186.953 33.3667 188.027 36.3326C189.084 39.2521 189.73 41.9323 189.501 43.8853L189.466 44.1814L189.274 44.4101C185.873 48.4752 180.873 54.8693 176.929 60.8325C174.955 63.8174 173.265 66.6654 172.171 69.0442C171.623 70.2346 171.238 71.2776 171.036 72.1421C170.829 73.0295 170.843 73.612 170.956 73.9522L170.211 74.2196C179.001 105.629 182.007 144.206 182.007 157.768V158.085L181.825 158.344C172.221 171.992 149.195 196.738 105.859 190.257C84.4086 187.05 69.449 182.908 59.3258 178.73C49.2448 174.57 43.8252 170.318 41.6557 166.793L41.5994 166.701L41.5638 166.6C39.8893 161.827 37.5766 154.464 36.0822 147.877C35.336 144.588 34.785 141.456 34.628 138.922C34.5497 137.657 34.5667 136.503 34.7224 135.535C34.8739 134.594 35.1787 133.683 35.8003 133.061C37.3397 131.522 38.2776 130.183 38.8257 129.159C39.2309 128.402 39.4056 127.851 39.4719 127.533C35.5535 122.033 28.4228 116.778 20.9405 112.407C13.3498 107.972 5.52756 104.521 0.658007 102.705L0.0180151 102.467L0.00750801 101.784C-0.246152 85.2958 5.96154 67.999 13.4879 52.9462C20.6433 38.6354 29.0419 26.2553 34.3613 18.414C34.6429 17.999 34.9158 17.5967 35.1794 17.2076C42.3737 6.58745 52.2845 2.39953 61.9714 0.847541C68.8537 -0.255099 75.7439 -0.0317008 81.4242 0.152468ZM41.4904 127.564C41.4208 128.204 41.1351 129.083 40.589 130.103C39.9371 131.321 38.875 132.815 37.2145 134.476C37.036 134.654 36.8242 135.062 36.697 135.853C36.574 136.617 36.5505 137.609 36.6242 138.799C36.7714 141.174 37.2955 144.186 38.0326 147.435C39.494 153.876 41.7587 161.103 43.4145 165.833C45.2881 168.799 50.219 172.808 60.0889 176.882C70.0156 180.979 84.806 185.087 106.155 188.279C148.148 194.559 170.506 170.852 180.007 157.452C179.954 141.677 175.979 93.8951 164.069 61.6145L165.941 60.9094L165.946 60.9223L169.524 70.2264C169.751 69.5843 170.031 68.9083 170.354 68.2083C171.51 65.6943 173.264 62.7486 175.261 59.7293C179.181 53.8016 184.113 47.479 187.539 43.3684C187.621 41.9138 187.131 39.7314 186.147 37.0136C185.113 34.1597 183.594 30.8674 181.856 27.4883C178.4 20.7713 174.124 13.7946 171.223 9.39473C163.384 1.23437 153.877 1.1297 145.896 3.5392C144.528 11.4916 140.264 16.3952 135.429 19.2541C130.514 22.1607 125.041 22.9406 121.466 22.7675C99.0389 21.9782 89.1813 9.37371 86.7732 2.27335C85.0374 2.27531 83.1482 2.21378 81.1414 2.14842C75.5167 1.96523 68.9687 1.75197 62.2878 2.82236C53.5676 4.21947 44.8261 7.7956 38.1678 16.4802C43.7522 15.8553 51.186 15.7507 58.3764 18.0666C66.6606 20.7347 74.5789 26.6065 78.9454 38.4218L77.0694 39.1151C72.9359 27.9303 65.5208 22.4688 57.7633 19.9703C50.1539 17.5195 42.1749 17.9112 36.5871 18.6954C36.4036 18.966 36.216 19.2426 36.0245 19.5249C30.7039 27.3683 22.3711 39.652 15.2768 53.8406C7.9087 68.5768 1.93179 85.2627 2.00059 101.074C6.98904 102.979 14.5732 106.371 21.9493 110.68C29.0779 114.844 36.1257 119.93 40.402 125.435C47.0398 113.772 56.4924 96.5842 64.2144 81.2682C68.2271 73.3095 71.764 65.873 74.1956 59.9866C75.4123 57.0413 76.3433 54.5054 76.9196 52.4972C77.2078 51.4928 77.4018 50.6395 77.5008 49.9447C77.6022 49.233 77.5926 48.7616 77.5312 48.4853L79.4836 48.0514C79.6222 48.6751 79.5949 49.4261 79.4808 50.2268C79.3643 51.0444 79.1449 51.9934 78.842 53.0489C78.236 55.1605 77.2733 57.7746 76.0441 60.7502C73.5841 66.7054 70.021 74.1939 66.0003 82.1686C58.0026 98.0312 48.1608 115.883 41.4904 127.564Z" fill="black"/>
<path d="M54.5002 151.499C46.9002 149.099 42.3335 134.499 41.0002 127.499C40.2002 130.299 37.0001 133.166 35.5001 134.999C35.1001 140.599 39.8334 158.666 42.5001 166.499C43.6908 171.262 63.5001 180.999 81.5001 184.499C97.5001 187.61 113.804 192.647 133.5 188.999C160.5 183.999 176 165.999 181 157.499L180.5 142.499C169.334 148.499 141.5 161.499 119.5 165.499C92.0002 170.499 64.0002 154.499 54.5002 151.499Z" fill="#740687" fill-opacity="0.8"/>
<path fill-rule="evenodd" clip-rule="evenodd" d="M36.4816 135.385C36.4398 136.672 36.642 138.624 37.0368 141.019C37.4609 143.592 38.093 146.597 38.8232 149.681C40.2843 155.854 42.1259 162.297 43.4467 166.177L43.4601 166.216L43.4702 166.257C43.557 166.604 43.8575 167.125 44.5053 167.809C45.136 168.474 46.022 169.217 47.1438 170.013C49.3855 171.605 52.4795 173.35 56.1231 175.068C63.4086 178.504 72.782 181.785 81.6909 183.518C84.3629 184.037 87.033 184.607 89.7171 185.18C103.225 188.063 117.086 191.022 133.318 188.016C159.697 183.131 174.941 165.664 179.991 157.24L179.554 144.133C167.559 150.422 140.952 162.615 119.679 166.483C105.695 169.026 91.6367 166.223 79.9432 162.451C74.0899 160.563 68.809 158.425 64.4099 156.577C63.4955 156.193 62.6225 155.824 61.7924 155.472C58.5975 154.118 56.0383 153.034 54.199 152.453C52.0518 151.775 50.192 150.261 48.6048 148.362C47.0134 146.459 45.6456 144.108 44.4945 141.648C42.7332 137.885 41.4433 133.791 40.6307 130.48C40.2105 131.105 39.7429 131.701 39.2786 132.254C38.7186 132.922 38.1387 133.555 37.6166 134.124L37.5874 134.155C37.1672 134.613 36.7928 135.021 36.4816 135.385ZM37.7467 130.969C38.8205 129.689 39.7002 128.409 40.0386 127.224L41.9825 127.312C42.6376 130.751 44.0909 136.068 46.3059 140.8C47.413 143.166 48.6953 145.352 50.1393 147.08C51.5875 148.812 53.1486 150.024 54.8013 150.546C56.7403 151.158 59.4225 152.295 62.6324 153.655C63.45 154.002 64.3018 154.363 65.1842 154.733C69.5664 156.574 74.7855 158.686 80.5572 160.547C92.1136 164.275 105.805 166.973 119.321 164.515C141.164 160.544 168.886 147.605 180.027 141.618L181.446 140.856L182.009 157.756L181.862 158.006C176.758 166.682 161.041 184.916 133.682 189.982C117.025 193.067 102.726 190.01 89.2083 187.119C86.549 186.551 83.92 185.988 81.3092 185.481C72.2181 183.713 62.6868 180.375 55.27 176.877C51.5625 175.129 48.3558 173.327 45.9859 171.644C44.802 170.803 43.8044 169.977 43.0536 169.184C42.3326 168.424 41.761 167.614 41.5412 166.786C40.1963 162.829 38.3447 156.343 36.877 150.142C36.1405 147.031 35.4976 143.979 35.0634 141.345C34.6335 138.736 34.3936 136.455 34.5027 134.928L34.5253 134.611L34.7262 134.366C35.1094 133.897 35.5919 133.372 36.0892 132.83C36.1071 132.811 36.1251 132.791 36.1431 132.771C36.6679 132.2 37.2191 131.597 37.7467 130.969Z" fill="black"/>
<path d="M49.5 111.499L41 127.499C42 133.666 46.2311 147.615 52 150.499C58 153.499 71 158.332 77.5 160.499C109.5 172.999 128.5 163.499 138.5 160.499C148.5 157.499 180 144.499 180.5 142.499C180.9 140.899 179 126.332 178 118.999C162 124.332 127.6 135.299 118 136.499C106 137.999 76.5 133.499 68.5 129.999C62.1 127.199 53.1667 116.499 49.5 111.499Z" fill="#004CFF" fill-opacity="0.8"/>
<path fill-rule="evenodd" clip-rule="evenodd" d="M49.3642 109.623L50.3063 110.908C52.1181 113.378 55.2404 117.269 58.6976 120.883C62.1853 124.529 65.8999 127.77 68.9008 129.083C72.7588 130.771 82.0054 132.758 91.8879 134.134C101.757 135.508 112.018 136.239 117.876 135.507C122.573 134.92 133.481 131.909 145.311 128.342C157.1 124.787 169.69 120.715 177.684 118.05L178.828 117.669L178.991 118.864C179.491 122.533 180.217 128.016 180.768 132.784C181.044 135.167 181.277 137.381 181.415 139.103C181.485 139.963 181.532 140.712 181.548 141.303C181.563 141.844 181.559 142.386 181.47 142.742C181.395 143.041 181.22 143.262 181.109 143.385C180.982 143.527 180.83 143.661 180.675 143.783C180.365 144.028 179.953 144.298 179.473 144.583C178.509 145.157 177.169 145.855 175.57 146.633C172.368 148.191 168.052 150.105 163.451 152.045C154.26 155.922 143.843 159.94 138.787 161.457C137.675 161.79 136.432 162.213 135.055 162.681C130.385 164.268 124.179 166.377 116.368 167.305C106.21 168.511 93.3022 167.741 77.1597 161.44C70.644 159.267 57.6122 154.423 51.5527 151.394C49.8864 150.56 48.4228 148.984 47.1596 147.116C45.8853 145.231 44.7545 142.958 43.7871 140.611C41.8537 135.921 40.525 130.818 40.0128 127.659L39.959 127.327L49.3642 109.623ZM49.6443 113.359L42.0423 127.668C42.5675 130.7 43.8287 135.464 45.6361 139.849C46.5727 142.121 47.6438 144.261 48.8165 145.996C50.0004 147.747 51.229 148.996 52.4472 149.605C58.3802 152.571 71.3239 157.386 77.8162 159.55L77.8402 159.558L77.8638 159.568C93.7103 165.758 106.295 166.487 116.132 165.319C123.709 164.419 129.637 162.406 134.297 160.824C135.716 160.342 137.018 159.9 138.213 159.541C143.157 158.058 153.49 154.076 162.674 150.203C167.26 148.268 171.539 146.37 174.695 144.834C176.277 144.065 177.558 143.396 178.45 142.864C178.9 142.597 179.226 142.379 179.436 142.213C179.48 142.178 179.516 142.148 179.544 142.124C179.546 142.093 179.548 142.056 179.55 142.012C179.556 141.847 179.556 141.629 179.549 141.358C179.534 140.818 179.49 140.109 179.422 139.264C179.286 137.576 179.056 135.389 178.782 133.014C178.29 128.758 177.657 123.924 177.171 120.329C169.14 122.994 157.151 126.86 145.889 130.257C134.119 133.806 123.027 136.879 118.124 137.491C111.982 138.259 101.493 137.49 91.612 136.115C81.7444 134.741 72.2411 132.727 68.0991 130.915C64.7 129.428 60.7479 125.919 57.2523 122.265C54.2709 119.149 51.5386 115.837 49.6443 113.359Z" fill="black"/>
<path d="M78.4765 52.9167C78.6385 51.9158 78.8128 50.9422 79 49.9991C79.2527 50.2519 79.0503 51.2739 78.4765 52.9167C74.7444 75.9745 77.5 113.54 77.5 125.999C77.5 138.999 61 177.999 61 177.999C56.5 176.832 46.7 172.999 43.5 166.999C39.5 159.499 34 139.999 35.5 134.999C37.6667 132.666 41.4001 128.199 41.0001 126.999C52.794 105.304 74.5098 64.2739 78.4765 52.9167Z" fill="#160E1B" fill-opacity="0.4"/>
<path d="M109.5 28.9991C98.9304 25.1051 88.8333 10.1658 87 0.999146C91 9.99915 103.641 22.5706 122.5 21.9991C139 21.4991 145 9.49915 145 3.49915C148 4.99915 143.032 21.9245 138 26.4991C132.5 31.4991 119 32.4991 109.5 28.9991Z" fill="#160E1B" fill-opacity="0.4"/>
<path d="M61 89.4991L50 110.999C53.6667 116.332 61 125.999 69 130.499C88 135.499 102 136.499 115 136.499C128 136.499 178 119.499 178 117.999C178 116.499 173 89.4991 173 89.4991C173 89.4991 137.5 98.3325 121.5 100.999C107.5 103.332 81.5 101.499 78 100.999C75.2 100.599 65.5 93.1658 61 89.4991Z" fill="#008126" fill-opacity="0.8"/>
<path fill-rule="evenodd" clip-rule="evenodd" d="M60.673 87.9427L61.6317 88.7239C63.8699 90.5476 67.4017 93.3082 70.716 95.6584C72.3744 96.8344 73.9644 97.8977 75.3035 98.6879C75.9735 99.0832 76.5675 99.4023 77.0673 99.6316C77.5832 99.8684 77.9362 99.9798 78.1415 100.009C79.8324 100.251 87.1606 100.833 95.8389 101.062C104.52 101.291 114.437 101.162 121.336 100.013C129.299 98.6855 142.144 95.8178 153.022 93.2754C158.456 92.0054 163.391 90.8186 166.967 89.9493C168.755 89.5147 170.203 89.1594 171.204 88.9129C171.705 88.7896 172.094 88.6935 172.357 88.6283L172.758 88.5288C172.758 88.5287 172.759 88.5287 173 89.4991C173.983 89.317 173.983 89.3171 173.983 89.3174L174.198 90.4808C174.335 91.2223 174.53 92.2831 174.765 93.5608C175.234 96.1161 175.859 99.5391 176.484 103.009C177.109 106.479 177.735 109.998 178.204 112.745C178.439 114.117 178.635 115.301 178.773 116.191C178.842 116.635 178.897 117.011 178.935 117.302C178.97 117.568 179 117.828 179 117.999C179 118.354 178.827 118.6 178.752 118.696C178.661 118.812 178.559 118.902 178.482 118.964C178.323 119.092 178.126 119.213 177.924 119.327C177.511 119.558 176.932 119.833 176.227 120.141C174.808 120.761 172.783 121.556 170.331 122.461C165.422 124.272 158.75 126.543 151.675 128.766C144.6 130.988 137.111 133.166 130.569 134.79C124.064 136.405 118.389 137.499 115 137.499C101.932 137.499 87.8441 136.492 68.7456 131.466L68.6215 131.434L68.5098 131.371C60.286 126.745 52.8395 116.894 49.176 111.566L48.8383 111.074L60.673 87.9427ZM173 89.4991L173.983 89.3174L173.79 88.2721L172.758 88.5288L173 89.4991ZM172.21 90.725C172.051 90.7641 171.875 90.8075 171.683 90.8549C170.68 91.1018 169.23 91.4575 167.439 91.8927C163.859 92.763 158.919 93.9512 153.478 95.2229C142.606 97.7638 129.701 100.646 121.664 101.986C114.563 103.169 104.48 103.291 95.7862 103.061C87.0895 102.832 79.6676 102.248 77.8586 101.989C77.3639 101.918 76.8013 101.71 76.2332 101.449C75.649 101.181 74.9907 100.825 74.2872 100.41C72.8794 99.5797 71.2382 98.4805 69.5591 97.2898C66.6423 95.2215 63.569 92.847 61.3294 91.0509L51.1627 110.922C54.9077 116.306 61.8779 125.296 69.3796 129.565C88.2174 134.51 102.097 135.499 115 135.499C118.111 135.499 123.562 134.469 130.087 132.849C136.577 131.238 144.025 129.073 151.075 126.858C158.126 124.643 164.766 122.382 169.638 120.584C172.077 119.685 174.06 118.905 175.426 118.308C176.113 118.008 176.621 117.764 176.947 117.582C176.949 117.58 176.952 117.579 176.954 117.577C176.954 117.572 176.953 117.567 176.952 117.561C176.917 117.293 176.865 116.935 176.797 116.497C176.661 115.623 176.467 114.451 176.233 113.082C175.765 110.344 175.141 106.832 174.516 103.364C173.891 99.8966 173.266 96.4759 172.798 93.9218C172.563 92.6448 172.368 91.5846 172.231 90.8436L172.21 90.725Z" fill="black"/>
<path d="M73.5 63.9991L61 89.4991C66.1667 93.4991 75 100.499 78 100.999C83.9184 101.986 102 102.499 119 101.499C132.274 100.718 160.5 92.8325 173 89.4991C171.8 81.8991 167.5 68.3325 165.5 62.9991C160 69.9991 91 71.9991 86 70.9991C82 70.1991 76 65.9991 73.5 63.9991Z" fill="#FFED00" fill-opacity="0.8"/>
<path fill-rule="evenodd" clip-rule="evenodd" d="M165.812 60.9833L166.436 62.648C168.445 68.0033 172.772 81.6439 173.988 89.3432L174.128 90.2332L173.258 90.4654C172.082 90.7788 170.766 91.133 169.335 91.518C163.172 93.1766 154.879 95.4079 146.525 97.4283C136.255 99.9121 125.797 102.101 119.059 102.497C102.04 103.498 83.8677 102.991 77.8356 101.986C76.8796 101.826 75.6189 101.199 74.2946 100.414C72.928 99.6036 71.3546 98.5379 69.7302 97.3746C66.9502 95.3837 63.9714 93.0712 61.5568 91.1966C61.1499 90.8807 60.759 90.5772 60.3878 90.2898L59.7433 89.7909L73.1509 62.4393L74.1247 63.2183C75.3449 64.1944 77.4343 65.7188 79.7054 67.0937C82.0026 68.4845 84.3772 69.6548 86.1961 70.0185C86.7093 70.1212 88.2279 70.2019 90.6375 70.2297C92.9988 70.2568 96.1141 70.2336 99.7363 70.1556C106.98 69.9997 116.23 69.6253 125.495 69.0014C134.765 68.3772 144.028 67.5046 151.305 66.3551C154.946 65.7799 158.063 65.1397 160.424 64.4354C161.605 64.0831 162.573 63.7218 163.313 63.3567C164.072 62.9827 164.506 62.6451 164.714 62.3813L165.812 60.9833ZM90.6144 72.2295C88.2721 72.2026 86.5406 72.1271 85.8039 71.9797C83.6227 71.5435 80.9973 70.2138 78.6696 68.8046C76.8417 67.698 75.1305 66.5006 73.8577 65.5413L62.2564 89.2078C62.4309 89.3432 62.6085 89.4811 62.7892 89.6213C65.2058 91.4974 68.1492 93.7824 70.8947 95.7486C72.4996 96.8979 74.0198 97.9259 75.3147 98.6937C76.6519 99.4865 77.6203 99.9221 78.1644 100.013C83.969 100.98 101.96 101.5 118.941 100.501C125.476 100.116 135.769 97.972 146.055 95.4843C154.381 93.4707 162.642 91.2479 168.806 89.5893C169.894 89.2965 170.917 89.0213 171.863 88.7679C170.61 81.7291 167.091 70.4066 165.049 64.679C164.783 64.8462 164.497 65.0028 164.198 65.1503C163.321 65.583 162.237 65.9816 160.996 66.3519C158.511 67.093 155.296 67.7496 151.617 68.3306C144.254 69.4937 134.923 70.3711 125.63 70.9969C116.332 71.623 107.051 71.9986 99.7793 72.1551C96.1437 72.2334 93.005 72.257 90.6144 72.2295Z" fill="black"/>
<path d="M158.5 26.4992C158.5 16.0992 150.5 6.49914 146 2.99914C154 -0.000860929 164.389 1.35371 170 7.49915C180.5 18.9991 188.5 37.4992 188.5 43.4992C176.5 56.2992 171.167 68.4992 170 72.9992L165.5 62.4992C163.167 54.8325 158.5 36.8992 158.5 26.4992Z" fill="#E50202" fill-opacity="0.8"/>
<path fill-rule="evenodd" clip-rule="evenodd" d="M148.008 3.38841C150.138 5.32265 152.655 8.19215 154.788 11.6351C157.409 15.8668 159.5 21.05 159.5 26.4992C159.5 31.5864 160.647 38.5824 162.102 45.3127C163.548 51.9943 165.281 58.3401 166.441 62.1557L169.869 70.154C172 64.4103 177.383 53.9823 187.489 43.1169C187.414 41.7712 186.962 39.7633 186.137 37.2747C185.239 34.5661 183.929 31.3729 182.288 27.9989C179.003 21.2433 174.428 13.8319 169.262 8.17339C164.365 2.81079 155.445 1.25262 148.008 3.38841ZM145.649 2.06279C153.925 -1.04074 164.782 0.301566 170.739 6.82485C176.072 12.6664 180.747 20.255 184.087 27.1243C185.759 30.5628 187.105 33.8385 188.035 36.6455C188.956 39.4246 189.5 41.8318 189.5 43.4992V43.8946L189.23 44.1831C177.329 56.8774 172.087 68.9325 170.968 73.2501L170.234 76.0828L164.559 62.8427L164.543 62.7903C163.37 58.9334 161.612 52.5067 160.148 45.7356C158.687 38.9826 157.5 31.8119 157.5 26.4992C157.5 21.5483 155.592 16.7315 153.087 12.6882C150.584 8.64554 147.537 5.46133 145.386 3.78847L143.975 2.69065L145.649 2.06279Z" fill="black"/>
<path d="M10 61.9991C3.5 76.9992 1 91.9991 1 101.499C15.5 106.499 31 116.999 40.5 126.999C48.5 111.999 66.8 77.9991 74 63.9991C80.9429 50.4991 79.3333 40.8325 77.5 37.9991C68.7 15.9991 46.1667 15.1658 36 17.4991C30 27.6658 14.8554 50.7944 10 61.9991Z" fill="#E50202" fill-opacity="0.8"/>
<path fill-rule="evenodd" clip-rule="evenodd" d="M36.6396 18.3817C34.9929 21.1562 32.7155 24.8283 30.1782 28.9193C28.0379 32.3704 25.7126 36.1196 23.4251 39.8796C18.2755 48.3438 13.3132 56.8684 10.9176 62.3967C4.63022 76.906 2.1252 91.402 2.0046 100.791C15.988 105.765 30.7548 115.672 40.2639 125.317C42.1324 121.817 44.468 117.455 47.0459 112.64C55.9257 96.0553 67.6794 74.1026 73.1107 63.5418C76.5231 56.9066 77.8143 51.2519 78.0425 46.9462C78.2729 42.5981 77.418 39.7132 76.6604 38.5424L76.6076 38.4608L76.5715 38.3705C72.2949 27.679 64.7097 22.1593 56.9464 19.5729C49.3603 17.0455 41.6007 17.3229 36.6396 18.3817ZM78.3939 37.5416C73.864 26.2892 65.8026 20.4153 57.5786 17.6754C49.3719 14.9412 41.0069 15.324 35.7763 16.5245L35.3573 16.6206L35.1388 16.9909C33.4829 19.7967 31.1377 23.5778 28.5001 27.8303C26.3607 31.2797 24.0288 35.0393 21.7164 38.8401C16.5798 47.2831 11.5422 55.9251 9.08244 61.6015C2.52997 76.7226 0 91.8576 0 101.499V102.212L0.674009 102.444C15.0121 107.389 30.3778 117.796 39.775 127.688L40.7299 128.693L41.3824 127.47C43.3408 123.798 45.9183 118.984 48.7997 113.602C57.6806 97.0149 69.4497 75.0335 74.8893 64.4565C78.4197 57.5917 79.7953 51.663 80.0397 47.0521C80.2777 42.5606 79.4443 39.2325 78.3939 37.5416Z" fill="black"/>
</svg>
