<svg width="190" height="192" viewBox="0 0 190 192" fill="none" xmlns="http://www.w3.org/2000/svg">
<path d="M87.5074 1.26839C74.5074 1.43506 50 -2.88742 36.0073 17.7684C25.5073 33.2684 0.507391 69.2684 1.00739 101.768C10.8407 105.435 32.5074 115.668 40.5074 127.268C40.5074 128.102 39.7074 130.568 36.5074 133.768C33.3074 136.968 39.174 156.768 42.5074 166.268C46.5074 172.768 63.2073 182.868 106.007 189.268C148.807 195.668 171.507 171.268 181.007 157.768C181.007 142.268 177.055 93.9239 165.007 61.2684L170.007 74.2684C168.407 69.4684 181.674 51.9351 188.507 43.7684C189.307 36.9684 177.841 17.6018 172.007 8.76843C163.607 -0.0315695 153.341 0.101724 145.007 2.76839C142.607 18.7684 128.341 22.1017 121.507 21.7684C98.7074 20.9684 89.3407 7.76839 87.5074 1.26839Z" fill="#BD22F3"/>
<path fill-rule="evenodd" clip-rule="evenodd" d="M81.4242 0.152468C83.6598 0.224952 85.708 0.29136 87.4946 0.268456L88.2616 0.258622L88.4698 0.996914C90.183 7.07077 99.1689 19.9839 121.542 20.769L121.556 20.7695L121.556 20.7696C124.814 20.9285 129.888 20.2075 134.411 17.5326C138.893 14.8821 142.866 10.2999 144.018 2.62003L144.111 2.00538L144.703 1.81595C153.251 -0.919381 163.973 -1.09709 172.731 8.07794L172.793 8.14267L172.842 8.21735C175.773 12.6554 180.118 19.7373 183.634 26.5735C185.392 29.9903 186.953 33.3667 188.027 36.3326C189.084 39.2521 189.73 41.9323 189.501 43.8853L189.466 44.1814L189.274 44.4101C185.873 48.4752 180.873 54.8693 176.929 60.8325C174.955 63.8174 173.265 66.6654 172.171 69.0442C171.623 70.2346 171.238 71.2776 171.036 72.1421C170.829 73.0295 170.843 73.612 170.956 73.9522L170.211 74.2196C179.001 105.629 182.007 144.206 182.007 157.768V158.085L181.825 158.344C172.221 171.992 149.195 196.738 105.859 190.257C84.4086 187.05 69.449 182.908 59.3258 178.73C49.2448 174.57 43.8252 170.318 41.6557 166.793L41.5994 166.701L41.5638 166.6C39.8893 161.827 37.5766 154.464 36.0822 147.877C35.336 144.588 34.785 141.456 34.628 138.922C34.5497 137.657 34.5667 136.503 34.7224 135.535C34.8739 134.594 35.1787 133.683 35.8003 133.061C37.3397 131.522 38.2776 130.183 38.8257 129.159C39.2309 128.402 39.4056 127.851 39.4719 127.533C35.5535 122.033 28.4228 116.778 20.9405 112.407C13.3498 107.972 5.52756 104.521 0.658007 102.705L0.0180151 102.467L0.00750801 101.784C-0.246152 85.2958 5.96154 67.999 13.4879 52.9462C20.6433 38.6354 29.0419 26.2553 34.3613 18.414C34.6429 17.999 34.9158 17.5967 35.1794 17.2076C42.3737 6.58745 52.2845 2.39953 61.9714 0.847541C68.8537 -0.255099 75.7439 -0.0317008 81.4242 0.152468ZM41.4904 127.564C41.4208 128.204 41.1351 129.083 40.589 130.103C39.9371 131.321 38.875 132.815 37.2145 134.476C37.036 134.654 36.8242 135.062 36.697 135.853C36.574 136.617 36.5505 137.609 36.6242 138.799C36.7714 141.174 37.2955 144.186 38.0326 147.435C39.494 153.876 41.7587 161.103 43.4145 165.833C45.2881 168.799 50.219 172.808 60.0889 176.882C70.0156 180.979 84.806 185.087 106.155 188.279C148.148 194.559 170.506 170.852 180.007 157.452C179.954 141.677 175.979 93.8951 164.069 61.6145L165.941 60.9094L165.946 60.9223L169.524 70.2264C169.751 69.5843 170.031 68.9083 170.354 68.2083C171.51 65.6943 173.264 62.7486 175.261 59.7293C179.181 53.8016 184.113 47.479 187.539 43.3684C187.621 41.9138 187.131 39.7314 186.147 37.0136C185.113 34.1597 183.594 30.8674 181.856 27.4883C178.4 20.7713 174.124 13.7946 171.223 9.39473C163.384 1.23437 153.877 1.1297 145.896 3.5392C144.528 11.4916 140.264 16.3952 135.429 19.2541C130.514 22.1607 125.041 22.9406 121.466 22.7675C99.0389 21.9782 89.1813 9.37371 86.7732 2.27335C85.0374 2.27531 83.1482 2.21378 81.1414 2.14842C75.5167 1.96523 68.9687 1.75197 62.2878 2.82236C53.5676 4.21947 44.8261 7.7956 38.1678 16.4802C43.7522 15.8553 51.186 15.7507 58.3764 18.0666C66.6606 20.7347 74.5789 26.6065 78.9454 38.4218L77.0694 39.1151C72.9359 27.9303 65.5208 22.4688 57.7633 19.9703C50.1539 17.5195 42.1749 17.9112 36.5871 18.6954C36.4036 18.966 36.216 19.2426 36.0245 19.5249C30.7039 27.3683 22.3711 39.652 15.2768 53.8406C7.9087 68.5768 1.93179 85.2627 2.00059 101.074C6.98904 102.979 14.5732 106.371 21.9493 110.68C29.0779 114.844 36.1257 119.93 40.402 125.435C47.0398 113.772 56.4924 96.5842 64.2144 81.2682C68.2271 73.3095 71.764 65.873 74.1956 59.9866C75.4123 57.0413 76.3433 54.5054 76.9196 52.4972C77.2078 51.4928 77.4018 50.6395 77.5008 49.9447C77.6022 49.233 77.5926 48.7616 77.5312 48.4853L79.4836 48.0514C79.6222 48.6751 79.5949 49.4261 79.4808 50.2268C79.3643 51.0444 79.1449 51.9934 78.842 53.0489C78.236 55.1605 77.2733 57.7746 76.0441 60.7502C73.5841 66.7054 70.021 74.1939 66.0003 82.1686C58.0026 98.0312 48.1608 115.883 41.4904 127.564Z" fill="black"/>
<path d="M78.4765 52.9167C78.6385 51.9158 78.8128 50.9422 79 49.9991C79.2527 50.2519 79.0503 51.2739 78.4765 52.9167C74.7444 75.9745 77.5 113.54 77.5 125.999C77.5 138.999 61 177.999 61 177.999C56.5 176.832 46.7 172.999 43.5 166.999C39.5 159.499 34 139.999 35.5 134.999C37.6667 132.666 41.4001 128.199 41.0001 126.999C52.794 105.304 74.5098 64.2739 78.4765 52.9167Z" fill="#160E1B" fill-opacity="0.4"/>
<path d="M142.429 69.1991C142.429 79.803 134.178 88.3991 124 88.3991C113.822 88.3991 105.572 79.803 105.572 69.1991C105.572 58.5953 113.822 49.9991 124 49.9991C134.178 49.9991 142.429 58.5953 142.429 69.1991Z" fill="#C4F0F7"/>
<path fill-rule="evenodd" clip-rule="evenodd" d="M124 87.8991C133.883 87.8991 141.929 79.5464 141.929 69.1991C141.929 58.8519 133.883 50.4991 124 50.4991C114.118 50.4991 106.072 58.8519 106.072 69.1991C106.072 79.5464 114.118 87.8991 124 87.8991ZM124 88.3991C134.178 88.3991 142.429 79.803 142.429 69.1991C142.429 58.5953 134.178 49.9991 124 49.9991C113.822 49.9991 105.572 58.5953 105.572 69.1991C105.572 79.803 113.822 88.3991 124 88.3991Z" fill="black"/>
<path d="M109.857 57.3018C110.589 58.3815 110.658 59.4406 111.783 60.0268C112.179 60.2331 112.443 60.6296 112.853 60.8196C113.278 61.0164 113.815 60.9554 114.244 61.2036C115.999 62.2193 117.347 62.382 117.347 64.771C117.347 65.4143 118.203 65.1892 118.203 65.8858V67.7314C118.203 68.5366 118.5 70.4195 117.43 70.667C116.915 70.7863 116.277 70.5983 116.277 71.3483V73.3549C116.277 74.5549 116.296 75.3177 115.849 76.3649C115.444 77.314 114.321 77.83 113.899 78.8175C113.504 79.7436 112.468 80.4849 112.425 81.654C112.407 82.1565 112.002 83.8833 112.544 84.0447C112.936 84.1614 113.205 84.6216 113.602 84.7136C114.097 84.828 114.244 84.1438 114.565 83.6607C115.273 82.5955 116.303 81.2785 117.454 80.725C118.888 80.0356 120.452 80.2667 122.008 80.2667C123.169 80.2667 123.895 80.1088 124.718 79.251C125.255 78.6918 125.647 77.69 126.43 77.393C126.891 77.2186 128.124 76.9984 128.428 76.6498C128.534 76.528 128.897 74.9277 128.903 74.6927C128.919 74.1436 129.011 73.3599 128.856 72.8347C128.562 71.8384 128.213 70.9292 128.036 69.9114C127.89 69.0751 128.595 69.2279 129.106 68.7843C129.623 68.3347 129.974 67.6564 130.449 67.1616C131.001 66.5861 131.538 66.4922 132.161 66.1211C132.496 65.9216 133.31 65.6284 133.504 65.3036C133.996 64.4849 133.825 62.4762 133.825 61.4885C133.825 59.4027 131.143 58.2524 129.462 57.983C128.392 57.8115 127.833 56.8403 127.833 55.741C127.833 54.6527 129.743 53.8693 130.52 53.722C131.354 53.5641 131.255 51.9341 130.52 51.7154C130.248 51.6343 129.775 51.0122 129.534 50.8235C129.157 50.529 128.516 50.167 128.047 50.167H122.685C121.962 50.167 119.479 49.7582 118.893 50.2166C118.578 50.4627 117.974 51.035 117.561 51.0589C116.961 51.0936 116.735 51.6093 116.17 51.7401C115.147 51.9771 114.403 52.8566 113.662 53.4123C112.261 54.4634 110.656 55.6371 109.857 57.3018Z" fill="#86BD7A"/>
<path fill-rule="evenodd" clip-rule="evenodd" d="M121.893 49.8613C122.242 49.893 122.519 49.917 122.685 49.917H128.047C128.337 49.917 128.655 50.0261 128.933 50.1593C129.216 50.295 129.486 50.469 129.687 50.6265C129.764 50.6861 129.85 50.7727 129.932 50.8581C129.976 50.9037 130.014 50.945 130.053 50.9864C130.098 51.0341 130.143 51.0818 130.195 51.1363C130.285 51.2293 130.37 51.313 130.446 51.377C130.529 51.4464 130.576 51.4711 130.592 51.4758C130.859 51.5552 131.048 51.7568 131.168 51.981C131.288 52.2061 131.351 52.4743 131.358 52.7347C131.365 52.9943 131.317 53.2655 131.195 53.4915C131.07 53.7225 130.863 53.9115 130.567 53.9676C130.208 54.0357 129.564 54.2574 129.015 54.5921C128.742 54.7589 128.503 54.9468 128.336 55.1474C128.169 55.3475 128.083 55.5457 128.083 55.741C128.083 56.7678 128.596 57.5911 129.502 57.7362C130.37 57.8753 131.496 58.2407 132.412 58.846C133.325 59.4497 134.075 60.3252 134.075 61.4885C134.075 61.6575 134.081 61.8688 134.087 62.104C134.098 62.5172 134.111 63.0042 134.099 63.4659C134.089 63.8357 134.064 64.2072 134.008 64.5421C133.953 64.8733 133.865 65.1882 133.719 65.4322C133.643 65.5587 133.521 65.6622 133.403 65.7451C133.28 65.8308 133.139 65.9101 133 65.9816C132.884 66.0412 132.765 66.0981 132.656 66.1499C132.635 66.1603 132.614 66.1704 132.593 66.1803C132.465 66.2417 132.361 66.2928 132.289 66.3359C132.071 66.4653 131.853 66.5681 131.655 66.6612C131.561 66.705 131.473 66.7466 131.391 66.7879C131.125 66.9219 130.88 67.074 130.629 67.3347C130.435 67.5375 130.262 67.7733 130.077 68.0259C130.05 68.063 130.022 68.1004 129.995 68.1381C129.783 68.4256 129.551 68.7281 129.269 68.973C129.115 69.1071 128.95 69.1926 128.805 69.2578C128.746 69.2846 128.694 69.3062 128.648 69.3257C128.571 69.3584 128.508 69.3851 128.444 69.4197C128.356 69.4681 128.316 69.5093 128.294 69.5541C128.272 69.6006 128.251 69.6894 128.282 69.8685C128.406 70.5781 128.612 71.2255 128.829 71.9068C128.918 72.1847 129.008 72.4682 129.096 72.7639C129.184 73.0649 129.199 73.424 129.194 73.7589C129.191 73.9289 129.182 74.0986 129.174 74.2578C129.173 74.2801 129.172 74.3022 129.17 74.3241C129.163 74.4594 129.157 74.5849 129.153 74.6998C129.151 74.784 129.122 74.951 129.086 75.129C129.049 75.3175 128.999 75.5463 128.946 75.771C128.893 75.9954 128.837 76.2185 128.786 76.3947C128.761 76.4824 128.737 76.5617 128.714 76.625C128.702 76.6565 128.69 76.6874 128.678 76.7148C128.668 76.7362 128.648 76.7777 128.616 76.8142C128.502 76.9453 128.324 77.0424 128.152 77.1175C127.973 77.196 127.764 77.2651 127.559 77.3263C127.395 77.3752 127.228 77.4207 127.074 77.4624C127.035 77.473 126.997 77.4834 126.96 77.4935C126.773 77.5447 126.621 77.5882 126.519 77.6268C126.199 77.748 125.942 78.0206 125.683 78.3718C125.601 78.4842 125.523 78.5965 125.445 78.7111C125.4 78.7765 125.354 78.8428 125.307 78.9102C125.181 79.0896 125.047 79.27 124.899 79.4241C124.465 79.8758 124.045 80.1551 123.571 80.3171C123.101 80.4773 122.597 80.5167 122.008 80.5167C121.691 80.5167 121.373 80.5072 121.06 80.4979C120.984 80.4956 120.909 80.4934 120.835 80.4913C120.448 80.4804 120.068 80.4733 119.695 80.4872C118.948 80.5149 118.237 80.6262 117.563 80.9503C116.479 81.4712 115.482 82.7334 114.773 83.7991C114.702 83.9065 114.639 84.0279 114.571 84.159C114.566 84.1689 114.561 84.1789 114.556 84.1889C114.496 84.3068 114.431 84.4344 114.359 84.5459C114.282 84.6661 114.184 84.7923 114.049 84.8769C113.904 84.9682 113.734 85.0007 113.546 84.9571C113.282 84.8961 113.073 84.7179 112.916 84.5846L112.909 84.5788C112.731 84.4274 112.608 84.3246 112.473 84.2843C112.194 84.2014 112.091 83.9327 112.049 83.7222C112.004 83.4964 112.007 83.2229 112.025 82.96C112.044 82.6934 112.08 82.4178 112.112 82.1831L112.119 82.1346C112.149 81.9151 112.172 81.7471 112.175 81.6448C112.2 80.9855 112.505 80.4581 112.826 80.001C112.906 79.8863 112.989 79.7739 113.07 79.665L113.073 79.66C113.153 79.5521 113.231 79.4476 113.304 79.3431C113.454 79.1304 113.581 78.9271 113.669 78.7194C113.902 78.1743 114.324 77.7663 114.701 77.4024L114.707 77.397C115.099 77.018 115.44 76.6864 115.619 76.2668C116.028 75.3084 116.028 74.6111 116.027 73.4814C116.027 73.4399 116.027 73.3977 116.027 73.3549V71.3483C116.027 71.1271 116.074 70.9386 116.186 70.7914C116.298 70.6429 116.451 70.5697 116.594 70.5301C116.732 70.4922 116.883 70.4798 117.01 70.4694L117.015 70.469C117.151 70.4578 117.267 70.4483 117.374 70.4235C117.56 70.3804 117.688 70.2701 117.783 70.0971C117.882 69.9157 117.941 69.6704 117.969 69.3837C117.997 69.0998 117.994 68.7948 117.983 68.5044C117.979 68.4056 117.975 68.3062 117.97 68.2099C117.961 68.0325 117.953 67.8655 117.953 67.7314V65.8858C117.953 65.7706 117.921 65.7158 117.886 65.6778C117.84 65.6277 117.772 65.5884 117.66 65.5302C117.653 65.5268 117.647 65.5234 117.64 65.5198C117.544 65.4702 117.41 65.4009 117.304 65.2954C117.177 65.1678 117.097 64.9975 117.097 64.771C117.097 64.1965 117.016 63.7733 116.879 63.4452C116.742 63.1199 116.545 62.8752 116.293 62.6639C116.037 62.4492 115.724 62.2693 115.353 62.075C115.254 62.023 115.15 61.9698 115.043 61.9148C114.756 61.7677 114.443 61.6073 114.119 61.42C113.948 61.3212 113.749 61.2795 113.506 61.2389C113.485 61.2354 113.464 61.2319 113.442 61.2284C113.227 61.1931 112.975 61.1517 112.748 61.0465C112.505 60.9338 112.311 60.7624 112.146 60.6159L112.134 60.6044C111.966 60.4553 111.828 60.3323 111.668 60.2486C111.043 59.9229 110.713 59.4628 110.451 58.966C110.361 58.7939 110.281 58.6246 110.201 58.4555C110.044 58.123 109.887 57.7915 109.65 57.442C109.6 57.3684 109.593 57.2738 109.632 57.1936C110.437 55.5166 112.022 54.3286 113.382 53.3093C113.426 53.2768 113.469 53.2445 113.512 53.2124C113.689 53.0794 113.868 52.9257 114.059 52.7608C114.071 52.7499 114.084 52.739 114.097 52.728C114.274 52.5746 114.461 52.413 114.656 52.26C115.073 51.9324 115.55 51.6272 116.114 51.4966C116.318 51.4492 116.465 51.3403 116.656 51.1983C116.672 51.1866 116.688 51.1746 116.704 51.1625C116.912 51.0088 117.169 50.8312 117.547 50.8093C117.6 50.8062 117.68 50.7829 117.786 50.729C117.889 50.6766 118.001 50.6036 118.116 50.5192C118.267 50.4088 118.401 50.2976 118.524 50.1953C118.599 50.1327 118.67 50.0734 118.739 50.0196C118.85 49.9327 118.99 49.8778 119.132 49.8409C119.276 49.8033 119.439 49.78 119.611 49.7662C119.955 49.7387 120.356 49.7476 120.752 49.7703C121.127 49.7918 121.506 49.8261 121.835 49.8561C121.854 49.8578 121.874 49.8596 121.893 49.8613ZM118.453 65.8858V67.7314C118.453 67.8544 118.46 67.9996 118.468 68.1667C118.473 68.2654 118.478 68.3717 118.483 68.4855C118.494 68.7823 118.498 69.1145 118.467 69.4329C118.435 69.7486 118.368 70.0707 118.222 70.3372C118.071 70.612 117.836 70.8299 117.487 70.9106C117.344 70.9438 117.195 70.9559 117.071 70.9661L117.053 70.9675C116.916 70.9788 116.812 70.9887 116.727 71.0122C116.647 71.0343 116.608 71.0621 116.584 71.0931C116.56 71.1253 116.527 71.1945 116.527 71.3483V73.3549C116.527 73.4058 116.527 73.4559 116.527 73.5054C116.528 74.6192 116.529 75.409 116.079 76.463C115.859 76.98 115.45 77.3744 115.081 77.7307L115.054 77.7566C114.664 78.1336 114.317 78.476 114.129 78.9156C114.02 79.1709 113.87 79.4076 113.713 79.6308C113.636 79.7402 113.556 79.8487 113.477 79.955L113.472 79.9623C113.391 80.0719 113.311 80.1793 113.235 80.2882C112.928 80.7256 112.694 81.1535 112.675 81.6633C112.67 81.792 112.644 81.9849 112.616 82.1895C112.613 82.2098 112.61 82.2302 112.607 82.2506C112.575 82.486 112.541 82.7465 112.524 82.9946C112.506 83.2463 112.508 83.4662 112.539 83.6253C112.555 83.7043 112.575 83.7537 112.593 83.7814C112.601 83.7942 112.607 83.8 112.61 83.8022C112.611 83.8032 112.612 83.8038 112.613 83.8042C112.614 83.8046 112.615 83.8048 112.615 83.8051C112.858 83.8772 113.056 84.0465 113.207 84.1753C113.216 84.183 113.225 84.1906 113.233 84.198C113.408 84.3465 113.529 84.44 113.659 84.47C113.718 84.4837 113.751 84.4736 113.783 84.4537C113.825 84.4271 113.876 84.3735 113.938 84.2765C113.996 84.1863 114.05 84.0798 114.114 83.9557L114.126 83.9312C114.193 83.8017 114.268 83.6565 114.357 83.5223C115.065 82.4576 116.127 81.0858 117.346 80.4997C118.106 80.1344 118.893 80.0166 119.676 79.9875C120.067 79.973 120.46 79.9806 120.849 79.9915C120.925 79.9936 121.002 79.9959 121.078 79.9982C121.39 80.0075 121.699 80.0167 122.008 80.0167C122.58 80.0167 123.019 79.9772 123.409 79.844C123.794 79.7126 124.148 79.484 124.538 79.0779C124.658 78.9525 124.775 78.7979 124.898 78.6229C124.939 78.5642 124.982 78.502 125.025 78.4383C125.108 78.3187 125.194 78.1935 125.28 78.0756C125.548 77.7118 125.878 77.335 126.342 77.1592C126.47 77.1107 126.645 77.0612 126.828 77.0112C126.867 77.0006 126.906 76.9899 126.946 76.979C127.099 76.9375 127.259 76.8941 127.416 76.8472C127.615 76.788 127.8 76.7257 127.952 76.6594C128.095 76.5967 128.183 76.541 128.227 76.4989C128.231 76.4892 128.236 76.475 128.243 76.4558C128.261 76.4073 128.282 76.3398 128.306 76.2567C128.353 76.0912 128.408 75.8767 128.46 75.6564C128.511 75.4364 128.56 75.2135 128.596 75.032C128.634 74.8401 128.653 74.7189 128.654 74.6857C128.657 74.564 128.664 74.4313 128.671 74.2965C128.672 74.2749 128.674 74.2531 128.675 74.2314C128.683 74.0727 128.691 73.9108 128.694 73.7505C128.699 73.425 128.682 73.1297 128.616 72.9055C128.535 72.6325 128.449 72.3618 128.363 72.0906C128.141 71.3965 127.919 70.6997 127.789 69.9544C127.747 69.7153 127.76 69.5096 127.844 69.3356C127.93 69.16 128.07 69.0548 128.204 68.9814C128.288 68.9351 128.392 68.8909 128.486 68.8513C128.526 68.8339 128.565 68.8174 128.6 68.802C128.726 68.745 128.841 68.6832 128.942 68.5955C129.177 68.3908 129.38 68.1295 129.592 67.8417C129.618 67.8058 129.645 67.7694 129.672 67.7326C129.855 67.4826 130.049 67.2172 130.269 66.9885C130.571 66.6736 130.869 66.491 131.166 66.3415C131.273 66.2875 131.374 66.2402 131.473 66.1938C131.658 66.1073 131.835 66.0239 132.033 65.9063C132.128 65.8497 132.252 65.7892 132.377 65.7294C132.399 65.719 132.421 65.7085 132.443 65.6979C132.551 65.6461 132.662 65.593 132.771 65.5371C132.902 65.4697 133.021 65.4023 133.116 65.3355C133.216 65.2658 133.269 65.2109 133.29 65.175C133.389 65.0096 133.464 64.7664 133.515 64.4599C133.566 64.157 133.59 63.8111 133.599 63.453C133.611 62.9971 133.599 62.549 133.588 62.1498C133.582 61.9085 133.575 61.6851 133.575 61.4885C133.575 60.566 132.984 59.8235 132.136 59.2632C131.291 58.7046 130.235 58.3601 129.423 58.2299C128.187 58.0319 127.583 56.9127 127.583 55.741C127.583 55.3922 127.737 55.0844 127.952 54.8269C128.167 54.5699 128.454 54.3487 128.755 54.1652C129.355 53.7993 130.055 53.5557 130.474 53.4764C130.594 53.4536 130.687 53.3796 130.755 53.2537C130.826 53.1229 130.864 52.9433 130.859 52.7483C130.853 52.5541 130.806 52.364 130.727 52.2169C130.648 52.0691 130.549 51.9849 130.449 51.955C130.328 51.9191 130.215 51.8357 130.124 51.7597C130.028 51.6784 129.928 51.5795 129.835 51.4833C129.788 51.4346 129.734 51.3764 129.682 51.3218C129.641 51.2782 129.602 51.2368 129.571 51.2041C129.488 51.1172 129.424 51.0553 129.38 51.0205C129.204 50.8835 128.965 50.7292 128.717 50.6103C128.463 50.4889 128.226 50.417 128.047 50.417H122.685C122.491 50.417 122.186 50.39 121.848 50.3593C121.829 50.3576 121.81 50.3559 121.791 50.3542C121.461 50.3241 121.09 50.2905 120.724 50.2695C120.335 50.2472 119.961 50.2399 119.651 50.2646C119.497 50.277 119.364 50.297 119.258 50.3247C119.148 50.3532 119.082 50.3858 119.047 50.4136C119.001 50.4492 118.941 50.4994 118.871 50.5571C118.737 50.6683 118.569 50.8073 118.411 50.9229C118.285 51.0153 118.149 51.1053 118.012 51.1746C117.879 51.2424 117.728 51.2996 117.576 51.3085C117.354 51.3213 117.198 51.4188 117.001 51.5644C116.984 51.5773 116.966 51.5908 116.948 51.6047C116.767 51.7402 116.539 51.9115 116.227 51.9837C115.767 52.09 115.36 52.3431 114.964 52.6534C114.779 52.7986 114.601 52.9527 114.422 53.1077C114.41 53.1181 114.398 53.1286 114.386 53.139C114.197 53.3027 114.005 53.4674 113.812 53.6123C113.781 53.6351 113.751 53.6579 113.72 53.6808C112.368 54.6944 110.914 55.785 110.145 57.2845C110.362 57.626 110.527 57.974 110.675 58.2873C110.751 58.4466 110.822 58.5969 110.894 58.7328C111.13 59.182 111.398 59.5445 111.899 59.8051C112.116 59.9186 112.297 60.0798 112.451 60.2177C112.461 60.2261 112.47 60.2345 112.479 60.2427C112.648 60.3935 112.791 60.5154 112.958 60.5927C113.121 60.6679 113.305 60.6986 113.535 60.7368C113.552 60.7397 113.57 60.7427 113.589 60.7457C113.828 60.7859 114.111 60.8378 114.369 60.9872C114.681 61.1676 114.977 61.319 115.26 61.4643C115.37 61.5207 115.479 61.5762 115.585 61.6321C115.961 61.8286 116.314 62.0291 116.614 62.2807C116.919 62.5357 117.168 62.843 117.34 63.2519C117.51 63.6579 117.597 64.151 117.597 64.771C117.597 64.8661 117.625 64.9089 117.658 64.9418C117.705 64.9892 117.773 65.0255 117.891 65.0866L117.894 65.0885C117.996 65.1415 118.14 65.2163 118.253 65.3386C118.379 65.4744 118.453 65.6526 118.453 65.8858Z" fill="black"/>
<path d="M127.643 87.7294C128.486 86.6437 130.083 85.9893 130.898 84.8974C131.157 84.5502 131.193 83.9735 131.379 83.5854C131.576 83.1753 131.723 82.7094 131.943 82.3168C132.248 81.7717 133.051 81.0718 133.678 81.0374C134.682 80.9824 134.536 79.249 134.901 78.4895C135.268 77.725 135.688 77.0449 136.406 76.6711C137.044 76.3385 137.51 76.3336 138.24 76.3336C138.835 76.3336 139.269 76.6275 139.839 76.6275C140.284 76.6275 140.046 78.1576 139.985 78.4405C139.955 78.5831 139.856 79.0466 139.698 79.0775C139.373 79.1409 139.31 79.6236 139.134 79.8179C138.938 80.0339 138.764 80.2212 138.569 80.4494C138.334 80.7257 138.209 81.1497 137.984 81.4076C137.173 82.3376 136.387 83.6769 135.235 84.2223C134.687 84.4822 134.301 85.0985 133.751 85.3275C133.491 85.436 133.135 85.656 132.926 85.8393C132.622 86.1058 132.281 86.1428 131.933 86.3293C131.62 86.4969 131.203 86.7071 130.835 86.7213C130.562 86.7318 129.677 86.8971 129.519 87.1133C129.35 87.3425 128.935 87.3872 128.693 87.527C128.146 87.8434 127.857 87.7294 127.643 87.7294Z" fill="#86BD7A"/>
<path fill-rule="evenodd" clip-rule="evenodd" d="M138.24 76.5836C137.513 76.5836 137.101 76.5907 136.521 76.8928C135.881 77.2265 135.49 77.8403 135.126 78.5977C135.051 78.7556 134.996 78.9775 134.943 79.2486C134.928 79.3203 134.914 79.3956 134.9 79.4728C134.862 79.6743 134.822 79.8892 134.772 80.0886C134.702 80.3648 134.606 80.6486 134.443 80.8705C134.273 81.1035 134.029 81.2686 133.692 81.287C133.453 81.3001 133.145 81.4473 132.844 81.6827C132.547 81.9143 132.294 82.2014 132.161 82.439C132.06 82.621 131.972 82.8233 131.884 83.0395C131.869 83.0758 131.854 83.1125 131.839 83.1496C131.766 83.3291 131.689 83.5166 131.604 83.6935C131.538 83.8309 131.494 83.9956 131.443 84.1903C131.431 84.233 131.42 84.2771 131.407 84.3226C131.343 84.5569 131.26 84.831 131.098 85.047C130.664 85.6295 130.027 86.0879 129.427 86.5188L129.42 86.5239C128.986 86.8357 128.571 87.134 128.226 87.462C128.321 87.4347 128.433 87.3884 128.568 87.3106C128.648 87.2643 128.736 87.2293 128.815 87.2006C128.852 87.1872 128.889 87.1743 128.925 87.162L128.935 87.1587C128.974 87.1452 129.011 87.1324 129.047 87.1191C129.202 87.0617 129.282 87.0137 129.317 86.9653C129.401 86.8513 129.544 86.7789 129.656 86.7319C129.781 86.6791 129.928 86.6343 130.073 86.5978C130.358 86.5256 130.666 86.4776 130.826 86.4714C131.126 86.4598 131.493 86.2814 131.815 86.1089C131.962 86.0302 132.114 85.973 132.244 85.924C132.283 85.9093 132.32 85.8953 132.354 85.8818C132.511 85.8197 132.641 85.7565 132.761 85.6514C132.991 85.4494 133.371 85.2153 133.655 85.0968C133.883 85.002 134.085 84.8229 134.324 84.6026C134.334 84.5932 134.345 84.5838 134.355 84.5744C134.574 84.3724 134.827 84.1391 135.128 83.9964C135.655 83.7468 136.112 83.3085 136.547 82.7972C136.756 82.5515 136.956 82.2943 137.155 82.0375L137.177 82.0097C137.382 81.7457 137.587 81.482 137.796 81.2433C137.884 81.1418 137.958 81.0012 138.05 80.8212L138.056 80.8106C138.14 80.6457 138.242 80.4481 138.379 80.2872C138.537 80.1018 138.683 79.9421 138.833 79.7765C138.871 79.7349 138.91 79.6929 138.948 79.65C138.967 79.6296 138.991 79.5908 139.026 79.5198C139.035 79.5 139.048 79.4732 139.061 79.4436C139.085 79.3921 139.113 79.3319 139.138 79.2844C139.213 79.137 139.345 78.9176 139.598 78.8446C139.614 78.8177 139.634 78.7751 139.654 78.7181C139.685 78.6276 139.71 78.528 139.727 78.4533C139.732 78.4285 139.737 78.4064 139.741 78.3884C139.741 78.3884 139.741 78.3884 139.741 78.3883C139.769 78.2581 139.841 77.8203 139.852 77.4211C139.857 77.2184 139.846 77.0475 139.817 76.9352C139.81 76.91 139.803 76.8909 139.797 76.8771C139.497 76.8704 139.232 76.7939 138.998 76.7261L138.98 76.7207C138.723 76.6465 138.498 76.5836 138.24 76.5836ZM140.23 78.4926C140.262 78.34 140.34 77.8713 140.352 77.4348C140.358 77.2196 140.349 76.9903 140.3 76.8068C140.276 76.7155 140.236 76.6145 140.166 76.5321C140.09 76.4417 139.978 76.3775 139.839 76.3775C139.595 76.3775 139.377 76.3152 139.118 76.2404L139.115 76.2395C138.864 76.1669 138.576 76.0836 138.24 76.0836C137.508 76.0836 136.987 76.0864 136.29 76.4494C135.496 76.8633 135.046 77.6096 134.676 78.3813C134.569 78.6031 134.505 78.8827 134.452 79.1519C134.436 79.2342 134.421 79.3158 134.405 79.3966C134.369 79.5923 134.333 79.7831 134.287 79.9666C134.222 80.2256 134.144 80.433 134.04 80.5753C133.944 80.7065 133.83 80.7787 133.664 80.7878C133.275 80.8091 132.868 81.0291 132.536 81.2885C132.199 81.5517 131.897 81.8872 131.725 82.1947C131.607 82.4053 131.51 82.6322 131.421 82.8496C131.405 82.8886 131.389 82.9272 131.374 82.9655C131.301 83.1446 131.231 83.3152 131.154 83.4772C131.065 83.6613 131.007 83.8826 130.955 84.0779C130.945 84.1168 130.935 84.1546 130.925 84.1908C130.86 84.4287 130.796 84.6166 130.698 84.7479C130.318 85.2573 129.749 85.672 129.135 86.1127C129.122 86.1221 129.109 86.1314 129.096 86.1408C128.509 86.5628 127.884 87.0116 127.446 87.576C127.387 87.6514 127.376 87.7535 127.418 87.8393C127.46 87.925 127.547 87.9794 127.643 87.9794C127.671 87.9794 127.699 87.982 127.741 87.986C127.758 87.9876 127.777 87.9894 127.799 87.9913C127.87 87.9975 127.958 88.003 128.06 87.9963C128.269 87.9825 128.515 87.9191 128.818 87.7434C128.859 87.7198 128.913 87.6968 128.986 87.6706C129.018 87.6587 129.052 87.6471 129.088 87.6346L129.097 87.6315C129.136 87.618 129.178 87.6036 129.22 87.5882C129.375 87.5311 129.587 87.442 129.72 87.2612C129.719 87.2625 129.72 87.2621 129.722 87.2602C129.732 87.2534 129.766 87.2278 129.85 87.1928C129.943 87.1534 130.064 87.1157 130.195 87.0825C130.46 87.0154 130.732 86.9755 130.845 86.9711C131.28 86.9543 131.747 86.7125 132.051 86.5496C132.166 86.4879 132.275 86.4468 132.398 86.4004C132.442 86.3836 132.489 86.3662 132.538 86.3468C132.714 86.277 132.907 86.1885 133.091 86.0272C133.278 85.8625 133.611 85.6567 133.847 85.5583C134.17 85.424 134.435 85.1805 134.663 84.9704L134.669 84.9648C134.908 84.7449 135.111 84.5578 135.342 84.4483C135.967 84.1525 136.479 83.6484 136.928 83.1212C137.144 82.8668 137.35 82.6016 137.548 82.3472L137.572 82.3164C137.778 82.0507 137.975 81.7983 138.172 81.572C138.305 81.4201 138.404 81.2269 138.487 81.0643L138.495 81.0496C138.587 80.871 138.664 80.7236 138.759 80.6117C138.912 80.433 139.051 80.2806 139.201 80.1157C139.239 80.0734 139.278 80.0303 139.319 79.9858C139.388 79.909 139.438 79.8146 139.475 79.7385C139.495 79.6981 139.51 79.6648 139.525 79.6338C139.543 79.5935 139.56 79.5569 139.582 79.5128C139.659 79.3642 139.709 79.3301 139.746 79.3228C139.801 79.3122 139.847 79.2897 139.885 79.2624C139.949 79.2171 139.991 79.1585 140.016 79.1195C140.063 79.0459 140.099 78.9598 140.126 78.8834C140.161 78.7827 140.188 78.6771 140.207 78.5964C140.217 78.5549 140.224 78.5199 140.229 78.4956C140.229 78.4955 140.229 78.4954 140.229 78.4953L140.23 78.4926ZM139.587 78.8618C139.587 78.8618 139.587 78.8617 139.587 78.8617ZM139.584 78.8655C139.584 78.8655 139.583 78.8655 139.583 78.8654C139.583 78.8653 139.585 78.8639 139.587 78.8618M139.587 78.8617C139.585 78.8642 139.584 78.8653 139.584 78.8655ZM139.584 78.8655C139.583 78.8655 139.583 78.8655 139.583 78.8655Z" fill="black"/>
<g clip-path="url(#clip0)">
<g filter="url(#filter0_d)">
<path d="M107.608 63.3691C104.229 63.3691 102.532 65.6215 102.136 67.2871C101.846 68.5066 102.286 69.9305 102.42 71.488C102.539 72.8704 103.323 74.031 104.128 74.2659C105.285 75.7642 106.515 75.6998 108.58 75.6998C112.612 75.6998 114.123 72.6057 114.123 69.0486C114.123 66.3295 112.255 63.3691 107.608 63.3691Z" fill="#FFE51E"/>
</g>
<g filter="url(#filter1_d)">
<path fill-rule="evenodd" clip-rule="evenodd" d="M111.883 68.7884L102.722 69.9403C102.775 70.5527 103.171 72.6162 103.439 73.0398C103.714 73.4745 104.025 73.7151 104.268 73.786L104.424 73.8316L104.524 73.9603C105.036 74.624 105.536 74.9155 106.13 75.0586C106.723 75.2014 107.411 75.2008 108.356 75.2C108.429 75.1999 108.504 75.1998 108.58 75.1998C110.45 75.1998 111.679 74.4923 112.459 73.415C113.256 72.313 113.623 70.7678 113.623 69.0487M102.622 67.4029C102.974 65.9268 104.495 63.8691 107.608 63.8691C109.82 63.8691 111.311 64.5703 112.249 65.5374C113.194 66.5111 113.623 67.7998 113.623 69.0487M102.622 67.4029C102.499 67.9206 102.526 68.5065 102.615 69.197C102.644 69.4284 102.683 69.6787 102.722 69.9403C103 70 111.177 68.8772 111.883 68.7884M102.136 67.2871C102.532 65.6215 104.229 63.3691 107.608 63.3691C112.255 63.3691 114.123 66.3295 114.123 69.0486C114.123 72.6057 112.612 75.6998 108.58 75.6998C108.497 75.6998 108.415 75.6999 108.335 75.7C106.416 75.7025 105.238 75.704 104.128 74.2659C103.323 74.031 102.539 72.8704 102.42 71.488C102.377 70.9924 102.304 70.5104 102.232 70.0441C102.08 69.0451 101.938 68.1186 102.136 67.2871Z" fill="black"/>
</g>
<g filter="url(#filter2_d)">
<path d="M112.56 69.3392C112.169 68.7845 111.67 68.3383 110.575 68.18C110.985 68.373 111.379 69.0404 111.43 69.4095C111.482 69.7786 111.533 70.0769 111.208 69.7083C109.905 68.2306 108.487 68.8123 107.082 67.9099C106.1 67.2794 105.801 66.5818 105.801 66.5818C105.801 66.5818 105.681 67.5125 104.192 68.4615C103.761 68.7366 103.246 69.3488 102.96 70.253C102.755 70.9027 102.778 71.3055 102.828 71.7631C103.354 74.6784 105.283 76.3239 108 76.3239C110.714 76.3239 112.641 75.0068 113.168 71.9566C113.178 71.8252 113.188 71.6938 113.188 71.5601C113.188 70.4191 113.004 69.9716 112.56 69.3392Z" fill="#F3D2A2"/>
</g>
<g filter="url(#filter3_d)">
<path fill-rule="evenodd" clip-rule="evenodd" d="M112.56 69.3392C112.312 68.9867 112.019 68.6779 111.558 68.4591C111.294 68.3336 110.974 68.2377 110.575 68.18C110.816 68.2934 111.051 68.5705 111.215 68.8547C111.269 68.9492 111.316 69.0445 111.352 69.1347C111.386 69.2218 111.412 69.3041 111.425 69.3767C111.427 69.3879 111.429 69.3988 111.43 69.4095C111.432 69.4215 111.434 69.4334 111.435 69.4453C111.438 69.4642 111.441 69.4828 111.443 69.5011C111.443 69.5011 111.443 69.5011 111.443 69.5011C111.488 69.8242 111.505 70.0458 111.208 69.7083C111.158 69.652 111.109 69.5986 111.059 69.5481C111.033 69.5221 111.007 69.4968 110.981 69.4722C110.961 69.4531 110.941 69.4344 110.921 69.4162C110.248 68.8057 109.547 68.6645 108.835 68.5211C108.255 68.4042 107.667 68.2858 107.082 67.9099C106.651 67.6335 106.352 67.3443 106.152 67.1066C105.895 66.8019 105.801 66.5818 105.801 66.5818C105.801 66.5818 105.772 66.8104 105.561 67.1564C105.346 67.5087 104.944 67.9828 104.192 68.4615C103.761 68.7366 103.246 69.3488 102.96 70.253C102.755 70.9027 102.778 71.3055 102.828 71.7631C103.354 74.6784 105.283 76.3239 108 76.3239C110.714 76.3239 112.641 75.0068 113.168 71.9566L113.169 71.9404C113.179 71.8144 113.188 71.6883 113.188 71.5601C113.188 70.4191 113.004 69.9716 112.56 69.3392ZM111.926 69.3432C112.005 69.4295 112.078 69.5238 112.151 69.6269C112.359 69.9232 112.483 70.1434 112.562 70.4045C112.643 70.6712 112.688 71.0131 112.688 71.5601C112.688 71.6649 112.681 71.7699 112.671 71.8949C112.421 73.3163 111.858 74.2798 111.092 74.8939C110.317 75.5143 109.278 75.8239 108 75.8239C106.746 75.8239 105.706 75.4462 104.921 74.7603C104.138 74.0755 103.572 73.051 103.324 71.6911C103.279 71.2802 103.263 70.9553 103.437 70.404C103.693 69.5933 104.144 69.0854 104.461 68.8831C105.179 68.4257 105.621 67.9598 105.891 67.5661C106.113 67.8066 106.413 68.0749 106.812 68.3306C107.483 68.762 108.176 68.9002 108.758 69.0163C108.868 69.0383 108.975 69.0595 109.076 69.0818C109.721 69.2232 110.282 69.4137 110.833 70.0389M111.926 69.3432C111.927 69.3534 111.929 69.3639 111.93 69.3745C111.941 69.4521 111.954 69.54 111.961 69.6169C111.967 69.6823 111.981 69.8332 111.941 69.9733C111.92 70.0473 111.854 70.2227 111.658 70.3204C111.454 70.4225 111.266 70.3628 111.181 70.3248C111.032 70.2572 110.911 70.1272 110.833 70.0389M110.968 69.76C110.968 69.7637 110.968 69.7635 110.968 69.76C110.968 69.7598 110.968 69.7602 110.968 69.76Z" fill="black"/>
</g>
<path d="M110.092 72.8079C109.92 72.6314 109.679 72.7203 109.468 72.8034C109.257 72.8869 108.778 73.1305 108 73.1305C107.222 73.1305 106.743 72.8869 106.532 72.8034C106.321 72.7199 106.08 72.6314 105.908 72.8079C105.867 72.8503 105.834 72.9005 105.811 72.9559C105.789 73.0112 105.778 73.0706 105.778 73.1305C105.778 73.1904 105.789 73.2497 105.811 73.3051C105.834 73.3604 105.867 73.4107 105.908 73.453C105.967 73.5137 106.768 74.0429 108 74.0429C109.231 74.0429 110.033 73.5137 110.092 73.453C110.133 73.4107 110.166 73.3604 110.188 73.3051C110.211 73.2497 110.222 73.1904 110.222 73.1305C110.222 73.0706 110.211 73.0112 110.188 72.9559C110.166 72.9005 110.133 72.8503 110.092 72.8079ZM108.444 72.218H107.555C107.438 72.218 107.325 72.17 107.241 72.0844C107.158 71.9989 107.111 71.8828 107.111 71.7618C107.111 71.6408 107.158 71.5248 107.241 71.4392C107.325 71.3537 107.438 71.3056 107.555 71.3056H108.444C108.562 71.3056 108.675 71.3537 108.759 71.4392C108.842 71.5248 108.889 71.6408 108.889 71.7618C108.889 71.8828 108.842 71.9989 108.759 72.0844C108.675 72.17 108.562 72.218 108.444 72.218Z" fill="#C1694F"/>
<path d="M106.222 71.3055C106.104 71.3055 105.991 71.2575 105.908 71.1719C105.825 71.0864 105.778 70.9703 105.778 70.8493V70.3931C105.778 70.2721 105.825 70.1561 105.908 70.0705C105.991 69.985 106.104 69.9369 106.222 69.9369C106.34 69.9369 106.453 69.985 106.537 70.0705C106.62 70.1561 106.667 70.2721 106.667 70.3931V70.8493C106.667 70.9703 106.62 71.0864 106.537 71.1719C106.453 71.2575 106.34 71.3055 106.222 71.3055ZM109.778 71.3055C109.66 71.3055 109.547 71.2575 109.464 71.1719C109.38 71.0864 109.333 70.9703 109.333 70.8493V70.3931C109.333 70.2721 109.38 70.1561 109.464 70.0705C109.547 69.985 109.66 69.9369 109.778 69.9369C109.896 69.9369 110.009 69.985 110.092 70.0705C110.175 70.1561 110.222 70.2721 110.222 70.3931V70.8493C110.222 70.9703 110.175 71.0864 110.092 71.1719C110.009 71.2575 109.896 71.3055 109.778 71.3055Z" fill="#662113"/>
</g>
<g clip-path="url(#clip1)">
<g filter="url(#filter4_d)">
<path d="M123.608 58.8069C120.229 58.8069 118.532 61.0593 118.136 62.725C117.846 63.9444 118.286 65.3683 118.42 66.9258C118.539 68.3082 119.323 69.4688 120.128 69.7037C121.285 71.202 122.515 71.1376 124.58 71.1376C128.612 71.1376 130.123 68.0436 130.123 64.4864C130.123 61.7674 128.255 58.8069 123.608 58.8069Z" fill="#60352A"/>
</g>
<g filter="url(#filter5_d)">
<path fill-rule="evenodd" clip-rule="evenodd" d="M128.249 60.9752L118.722 65.3781C118.775 65.9905 119.171 68.054 119.439 68.4776C119.714 68.9123 120.025 69.1529 120.268 69.2238L120.424 69.2694L120.524 69.3981C121.036 70.0618 121.536 70.3533 122.13 70.4964C122.723 70.6392 123.411 70.6386 124.356 70.6378C124.429 70.6377 124.504 70.6376 124.58 70.6376C126.45 70.6376 127.679 69.9301 128.459 68.8528C129.256 67.7508 129.623 66.2056 129.623 64.4865M123.608 59.3069C120.495 59.3069 118.974 61.3646 118.622 62.8407C118.499 63.3584 118.526 63.9443 118.615 64.6348C118.644 64.8662 118.683 65.1165 118.722 65.3781C119.707 64.9229 122.953 63.4227 128.249 60.9752M118.622 62.8407L118.136 62.725ZM123.608 59.3069C125.82 59.3069 127.311 60.0081 128.249 60.9752ZM128.249 60.9752C129.194 61.9489 129.623 63.2376 129.623 64.4865ZM118.136 62.725C118.532 61.0593 120.229 58.8069 123.608 58.8069C128.255 58.8069 130.123 61.7674 130.123 64.4864C130.123 68.0436 128.612 71.1376 124.58 71.1376C124.497 71.1376 124.415 71.1377 124.335 71.1378C122.416 71.1403 121.238 71.1418 120.128 69.7037C119.323 69.4688 118.539 68.3082 118.42 66.9258C118.377 66.4302 118.304 65.9482 118.232 65.4819C118.08 64.4829 117.938 63.5564 118.136 62.725Z" fill="black"/>
</g>
<g filter="url(#filter6_d)">
<path d="M128.56 64.777C128.169 64.2223 127.67 63.7761 126.575 63.6178C126.985 63.8108 127.379 64.4782 127.43 64.8473C127.482 65.2164 127.533 65.5147 127.208 65.1461C125.905 63.6684 124.487 64.2501 123.082 63.3477C122.1 62.7172 121.801 62.0197 121.801 62.0197C121.801 62.0197 121.681 62.9503 120.192 63.8993C119.761 64.1744 119.246 64.7866 118.96 65.6908C118.755 66.3405 118.778 66.7433 118.828 67.2009C119.354 70.1162 121.283 71.7618 124 71.7618C126.714 71.7618 128.641 70.4446 129.168 67.3944C129.178 67.263 129.188 67.1316 129.188 66.9979C129.188 65.8569 129.004 65.4094 128.56 64.777Z" fill="#AF7E57"/>
</g>
<g filter="url(#filter7_d)">
<path fill-rule="evenodd" clip-rule="evenodd" d="M128.56 64.777C128.312 64.4245 128.019 64.1157 127.558 63.8969C127.294 63.7714 126.974 63.6755 126.575 63.6178C126.816 63.7312 127.051 64.0083 127.215 64.2925C127.269 64.387 127.316 64.4823 127.352 64.5725C127.386 64.6596 127.412 64.7419 127.425 64.8146C127.427 64.8257 127.429 64.8366 127.43 64.8473C127.432 64.8593 127.434 64.8712 127.435 64.8831C127.438 64.902 127.441 64.9206 127.443 64.9389C127.443 64.9389 127.443 64.9389 127.443 64.939C127.488 65.262 127.505 65.4836 127.208 65.1461C127.158 65.0898 127.109 65.0364 127.059 64.9859C127.033 64.9599 127.007 64.9346 126.981 64.91C126.961 64.8909 126.941 64.8722 126.921 64.854C126.248 64.2435 125.547 64.1023 124.835 63.9589C124.255 63.842 123.667 63.7236 123.082 63.3477C122.651 63.0713 122.352 62.7821 122.152 62.5444C121.895 62.2397 121.801 62.0197 121.801 62.0197C121.801 62.0197 121.772 62.2482 121.561 62.5942C121.346 62.9465 120.944 63.4206 120.192 63.8993C119.761 64.1744 119.246 64.7866 118.96 65.6908C118.755 66.3405 118.778 66.7433 118.828 67.2009C119.354 70.1162 121.283 71.7618 124 71.7618C126.714 71.7618 128.641 70.4446 129.168 67.3944L129.169 67.3782C129.179 67.2522 129.188 67.1261 129.188 66.9979C129.188 65.8569 129.004 65.4094 128.56 64.777ZM127.926 64.7811C128.005 64.8673 128.078 64.9616 128.151 65.0647L128.56 64.777L128.151 65.0648C128.359 65.3611 128.483 65.5812 128.562 65.8423C128.643 66.109 128.688 66.4509 128.688 66.9979C128.688 67.1027 128.681 67.2077 128.671 67.3327C128.421 68.7541 127.858 69.7176 127.092 70.3317C126.317 70.9521 125.278 71.2618 124 71.2618C122.746 71.2618 121.706 70.884 120.921 70.1981C120.138 69.5133 119.572 68.4888 119.324 67.1289C119.279 66.718 119.263 66.3931 119.437 65.8418L119.437 65.8415C119.693 65.0308 120.144 64.5233 120.461 64.3209M127.926 64.7811C127.927 64.7912 127.929 64.8017 127.93 64.8123C127.941 64.8899 127.954 64.9778 127.961 65.0547L127.961 65.0552C127.967 65.1205 127.981 65.271 127.941 65.4111C127.92 65.4851 127.854 65.6605 127.658 65.7583C127.454 65.8603 127.266 65.8006 127.181 65.7626C127.032 65.695 126.911 65.565 126.833 65.4768C126.282 64.8515 125.721 64.661 125.076 64.5196C124.975 64.4973 124.868 64.4761 124.758 64.4541C124.176 64.338 123.484 64.1998 122.812 63.7684L122.812 63.7684C122.413 63.5127 122.113 63.2445 121.891 63.0039C121.621 63.3976 121.179 63.8636 120.461 64.3209M126.968 65.1978C126.968 65.2013 126.968 65.2009 126.968 65.1972C126.968 65.1974 126.968 65.1976 126.968 65.1978ZM127.65 64.8849C127.65 64.885 127.649 64.8843 127.648 64.8826C127.649 64.8841 127.65 64.8849 127.65 64.8849Z" fill="black"/>
</g>
<path d="M126.092 68.2457C125.92 68.0691 125.679 68.1581 125.468 68.2411C125.257 68.3246 124.778 68.5682 124 68.5682C123.222 68.5682 122.743 68.3246 122.532 68.2411C122.321 68.1576 122.08 68.0691 121.908 68.2457C121.867 68.288 121.834 68.3383 121.811 68.3936C121.789 68.449 121.778 68.5083 121.778 68.5682C121.778 68.6281 121.789 68.6875 121.811 68.7428C121.834 68.7982 121.867 68.8484 121.908 68.8908C121.967 68.9514 122.768 69.4807 124 69.4807C125.231 69.4807 126.033 68.9514 126.092 68.8908C126.133 68.8484 126.166 68.7982 126.188 68.7428C126.211 68.6875 126.222 68.6281 126.222 68.5682C126.222 68.5083 126.211 68.449 126.188 68.3936C126.166 68.3383 126.133 68.288 126.092 68.2457ZM124.444 67.6558H123.555C123.438 67.6558 123.325 67.6077 123.241 67.5222C123.158 67.4366 123.111 67.3206 123.111 67.1996C123.111 67.0786 123.158 66.9625 123.241 66.877C123.325 66.7914 123.438 66.7433 123.555 66.7433H124.444C124.562 66.7433 124.675 66.7914 124.759 66.877C124.842 66.9625 124.889 67.0786 124.889 67.1996C124.889 67.3206 124.842 67.4366 124.759 67.5222C124.675 67.6077 124.562 67.6558 124.444 67.6558Z" fill="#915A34"/>
<path d="M122.222 66.7434C122.104 66.7434 121.991 66.6953 121.908 66.6098C121.825 66.5242 121.778 66.4082 121.778 66.2872V65.831C121.778 65.71 121.825 65.5939 121.908 65.5084C121.991 65.4228 122.104 65.3748 122.222 65.3748C122.34 65.3748 122.453 65.4228 122.537 65.5084C122.62 65.5939 122.667 65.71 122.667 65.831V66.2872C122.667 66.4082 122.62 66.5242 122.537 66.6098C122.453 66.6953 122.34 66.7434 122.222 66.7434ZM125.778 66.7434C125.66 66.7434 125.547 66.6953 125.464 66.6098C125.38 66.5242 125.333 66.4082 125.333 66.2872V65.831C125.333 65.71 125.38 65.5939 125.464 65.5084C125.547 65.4228 125.66 65.3748 125.778 65.3748C125.896 65.3748 126.009 65.4228 126.092 65.5084C126.175 65.5939 126.222 65.71 126.222 65.831V66.2872C126.222 66.4082 126.175 66.5242 126.092 66.6098C126.009 66.6953 125.896 66.7434 125.778 66.7434Z" fill="#662113"/>
</g>
<g clip-path="url(#clip2)">
<g filter="url(#filter8_d)">
<path d="M139.608 63.3691C136.229 63.3691 134.532 65.6215 134.136 67.2871C133.846 68.5066 134.286 69.9305 134.42 71.488C134.539 72.8704 135.324 74.031 136.128 74.2659C137.285 75.7642 138.515 75.6998 140.58 75.6998C144.612 75.6998 146.123 72.6057 146.123 69.0486C146.123 66.3295 144.255 63.3691 139.608 63.3691Z" fill="#0B0200"/>
</g>
<g filter="url(#filter9_d)">
<path fill-rule="evenodd" clip-rule="evenodd" d="M134.918 71.4451L134.918 71.4452C134.971 72.0577 135.171 72.6162 135.439 73.0398C135.714 73.4745 136.026 73.7151 136.268 73.786L136.424 73.8316L136.524 73.9603C137.036 74.624 137.537 74.9155 138.131 75.0586C138.723 75.2014 139.411 75.2008 140.356 75.2C140.429 75.1999 140.504 75.1998 140.58 75.1998C142.45 75.1998 143.679 74.4923 144.459 73.415C145.256 72.313 145.623 70.7678 145.623 69.0487M139.608 63.8691C136.495 63.8691 134.974 65.9268 134.622 67.4029C134.499 67.9206 134.526 68.5065 134.615 69.197C134.645 69.4284 134.683 69.6787 134.723 69.9403C134.796 70.4195 134.874 70.9366 134.918 71.4451M134.622 67.4029L134.136 67.2871ZM139.608 63.8691C141.82 63.8691 143.311 64.5703 144.249 65.5374ZM144.249 65.5374C145.194 66.5111 145.623 67.7997 145.623 69.0486ZM134.136 67.2871C134.532 65.6215 136.229 63.3691 139.608 63.3691C144.255 63.3691 146.123 66.3295 146.123 69.0486C146.123 72.6057 144.612 75.6998 140.58 75.6998C140.497 75.6998 140.415 75.6999 140.335 75.7C138.416 75.7025 137.238 75.704 136.128 74.2659C135.324 74.031 134.539 72.8704 134.42 71.488C134.377 70.9924 134.304 70.5104 134.232 70.0441C134.08 69.0451 133.938 68.1186 134.136 67.2871Z" fill="black"/>
</g>
<g filter="url(#filter10_d)">
<path d="M144.56 69.3392C144.169 68.7845 143.67 68.3383 142.575 68.18C142.985 68.373 143.379 69.0404 143.43 69.4095C143.482 69.7786 143.533 70.0769 143.208 69.7083C141.905 68.2306 140.487 68.8123 139.082 67.9099C138.1 67.2794 137.801 66.5818 137.801 66.5818C137.801 66.5818 137.681 67.5125 136.192 68.4615C135.761 68.7366 135.246 69.3488 134.96 70.253C134.755 70.9027 134.778 71.3055 134.828 71.7631C135.354 74.6784 137.283 76.3239 140 76.3239C142.714 76.3239 144.641 75.0068 145.168 71.9566C145.178 71.8252 145.188 71.6938 145.188 71.5601C145.188 70.4191 145.004 69.9716 144.56 69.3392Z" fill="#7C533E"/>
</g>
<g filter="url(#filter11_d)">
<path fill-rule="evenodd" clip-rule="evenodd" d="M144.56 69.3392C144.312 68.9867 144.019 68.6779 143.558 68.4591C143.294 68.3336 142.974 68.2377 142.575 68.18C142.816 68.2934 143.051 68.5705 143.215 68.8547C143.269 68.9492 143.316 69.0445 143.352 69.1347C143.386 69.2218 143.412 69.3041 143.425 69.3767C143.427 69.3879 143.429 69.3988 143.43 69.4095C143.432 69.4215 143.434 69.4334 143.435 69.4453C143.438 69.4642 143.441 69.4828 143.443 69.5011C143.443 69.5011 143.443 69.5011 143.443 69.5012C143.488 69.8242 143.505 70.0458 143.208 69.7083C143.158 69.652 143.109 69.5986 143.059 69.5481C143.033 69.5221 143.007 69.4968 142.981 69.4722C142.961 69.4531 142.941 69.4344 142.921 69.4162C142.248 68.8057 141.547 68.6645 140.835 68.5211C140.255 68.4042 139.667 68.2858 139.082 67.9099C138.651 67.6335 138.352 67.3443 138.152 67.1066C137.895 66.8019 137.801 66.5818 137.801 66.5818C137.801 66.5818 137.772 66.8104 137.561 67.1564C137.346 67.5087 136.944 67.9828 136.192 68.4615C135.761 68.7366 135.246 69.3488 134.96 70.253C134.755 70.9027 134.778 71.3055 134.828 71.7631C135.354 74.6784 137.283 76.3239 140 76.3239C142.714 76.3239 144.641 75.0068 145.168 71.9566L145.169 71.9404C145.179 71.8144 145.188 71.6883 145.188 71.5601C145.188 70.4191 145.004 69.9716 144.56 69.3392ZM143.926 69.3432C144.005 69.4295 144.078 69.5238 144.151 69.6269L144.56 69.3392L144.151 69.6269C144.359 69.9232 144.483 70.1434 144.562 70.4045C144.643 70.6712 144.688 71.0131 144.688 71.5601C144.688 71.6649 144.681 71.7699 144.671 71.8949C144.421 73.3163 143.858 74.2798 143.092 74.8939C142.317 75.5143 141.278 75.8239 140 75.8239C138.746 75.8239 137.706 75.4462 136.921 74.7603C136.138 74.0755 135.572 73.051 135.324 71.6911C135.279 71.2802 135.263 70.9553 135.437 70.404L135.437 70.4037C135.693 69.593 136.144 69.0854 136.461 68.8831C137.179 68.4257 137.621 67.9598 137.891 67.5661C138.113 67.8066 138.413 68.0749 138.812 68.3306L138.812 68.3306C139.484 68.762 140.176 68.9002 140.758 69.0163C140.868 69.0383 140.975 69.0595 141.076 69.0818C141.721 69.2232 142.282 69.4137 142.833 70.0389M143.926 69.3432C143.927 69.3534 143.929 69.3639 143.93 69.3745C143.941 69.4521 143.954 69.54 143.961 69.6169L143.961 69.6174C143.967 69.6827 143.981 69.8332 143.941 69.9733C143.92 70.0473 143.854 70.2227 143.658 70.3204C143.454 70.4225 143.266 70.3628 143.181 70.3248C143.032 70.2572 142.911 70.1272 142.833 70.039M142.968 69.76C142.968 69.7635 142.968 69.7631 142.968 69.7594C142.968 69.7596 142.968 69.7598 142.968 69.76ZM143.65 69.4471C143.65 69.4472 143.649 69.4465 143.648 69.4448C143.649 69.4463 143.65 69.4471 143.65 69.4471Z" fill="black"/>
</g>
<path d="M142.092 72.8079C141.92 72.6314 141.679 72.7203 141.468 72.8034C141.257 72.8869 140.778 73.1305 140 73.1305C139.222 73.1305 138.743 72.8869 138.532 72.8034C138.321 72.7199 138.08 72.6314 137.908 72.8079C137.867 72.8503 137.834 72.9005 137.812 72.9559C137.789 73.0112 137.778 73.0706 137.778 73.1305C137.778 73.1904 137.789 73.2497 137.812 73.3051C137.834 73.3604 137.867 73.4107 137.908 73.453C137.967 73.5137 138.768 74.0429 140 74.0429C141.232 74.0429 142.033 73.5137 142.092 73.453C142.133 73.4107 142.166 73.3604 142.188 73.3051C142.211 73.2497 142.222 73.1904 142.222 73.1305C142.222 73.0706 142.211 73.0112 142.188 72.9559C142.166 72.9005 142.133 72.8503 142.092 72.8079ZM140.444 72.218H139.556C139.438 72.218 139.325 72.17 139.241 72.0844C139.158 71.9989 139.111 71.8828 139.111 71.7618C139.111 71.6408 139.158 71.5248 139.241 71.4392C139.325 71.3537 139.438 71.3056 139.556 71.3056H140.444C140.562 71.3056 140.675 71.3537 140.759 71.4392C140.842 71.5248 140.889 71.6408 140.889 71.7618C140.889 71.8828 140.842 71.9989 140.759 72.0844C140.675 72.17 140.562 72.218 140.444 72.218Z" fill="#3D2E24"/>
<path d="M138.222 71.3055C138.104 71.3055 137.991 71.2575 137.908 71.1719C137.825 71.0864 137.778 70.9703 137.778 70.8493V70.3931C137.778 70.2721 137.825 70.1561 137.908 70.0705C137.991 69.985 138.104 69.9369 138.222 69.9369C138.34 69.9369 138.453 69.985 138.537 70.0705C138.62 70.1561 138.667 70.2721 138.667 70.3931V70.8493C138.667 70.9703 138.62 71.0864 138.537 71.1719C138.453 71.2575 138.34 71.3055 138.222 71.3055ZM141.778 71.3055C141.66 71.3055 141.547 71.2575 141.464 71.1719C141.38 71.0864 141.333 70.9703 141.333 70.8493V70.3931C141.333 70.2721 141.38 70.1561 141.464 70.0705C141.547 69.985 141.66 69.9369 141.778 69.9369C141.896 69.9369 142.009 69.985 142.092 70.0705C142.175 70.1561 142.222 70.2721 142.222 70.3931V70.8493C142.222 70.9703 142.175 71.0864 142.092 71.1719C142.009 71.2575 141.896 71.3055 141.778 71.3055Z" fill="black"/>
</g>
<path d="M109.5 28.9991C98.9304 25.1051 88.8333 10.1658 87 0.999146C91 9.99915 103.641 22.5706 122.5 21.9991C139 21.4991 145 9.49915 145 3.49915C148 4.99915 143.032 21.9245 138 26.4991C132.5 31.4991 119 32.4991 109.5 28.9991Z" fill="#160E1B" fill-opacity="0.4"/>
<defs>
<filter id="filter0_d" x="101.695" y="63.3691" width="12.7712" height="13.018" filterUnits="userSpaceOnUse" color-interpolation-filters="sRGB">
<feFlood flood-opacity="0" result="BackgroundImageFix"/>
<feColorMatrix in="SourceAlpha" type="matrix" values="0 0 0 0 0 0 0 0 0 0 0 0 0 0 0 0 0 0 127 0"/>
<feOffset dy="0.343478"/>
<feGaussianBlur stdDeviation="0.171739"/>
<feColorMatrix type="matrix" values="0 0 0 0 0 0 0 0 0 0 0 0 0 0 0 0 0 0 0.15 0"/>
<feBlend mode="normal" in2="BackgroundImageFix" result="effect1_dropShadow"/>
<feBlend mode="normal" in="SourceGraphic" in2="effect1_dropShadow" result="shape"/>
</filter>
<filter id="filter1_d" x="101.695" y="63.3691" width="12.7712" height="13.018" filterUnits="userSpaceOnUse" color-interpolation-filters="sRGB">
<feFlood flood-opacity="0" result="BackgroundImageFix"/>
<feColorMatrix in="SourceAlpha" type="matrix" values="0 0 0 0 0 0 0 0 0 0 0 0 0 0 0 0 0 0 127 0"/>
<feOffset dy="0.343478"/>
<feGaussianBlur stdDeviation="0.171739"/>
<feColorMatrix type="matrix" values="0 0 0 0 0 0 0 0 0 0 0 0 0 0 0 0 0 0 0.15 0"/>
<feBlend mode="normal" in2="BackgroundImageFix" result="effect1_dropShadow"/>
<feBlend mode="normal" in="SourceGraphic" in2="effect1_dropShadow" result="shape"/>
</filter>
<filter id="filter2_d" x="102.45" y="66.5818" width="11.0813" height="10.4291" filterUnits="userSpaceOnUse" color-interpolation-filters="sRGB">
<feFlood flood-opacity="0" result="BackgroundImageFix"/>
<feColorMatrix in="SourceAlpha" type="matrix" values="0 0 0 0 0 0 0 0 0 0 0 0 0 0 0 0 0 0 127 0"/>
<feOffset dy="0.343478"/>
<feGaussianBlur stdDeviation="0.171739"/>
<feColorMatrix type="matrix" values="0 0 0 0 0 0 0 0 0 0 0 0 0 0 0 0 0 0 0.15 0"/>
<feBlend mode="normal" in2="BackgroundImageFix" result="effect1_dropShadow"/>
<feBlend mode="normal" in="SourceGraphic" in2="effect1_dropShadow" result="shape"/>
</filter>
<filter id="filter3_d" x="102.45" y="66.5818" width="11.0813" height="10.4291" filterUnits="userSpaceOnUse" color-interpolation-filters="sRGB">
<feFlood flood-opacity="0" result="BackgroundImageFix"/>
<feColorMatrix in="SourceAlpha" type="matrix" values="0 0 0 0 0 0 0 0 0 0 0 0 0 0 0 0 0 0 127 0"/>
<feOffset dy="0.343478"/>
<feGaussianBlur stdDeviation="0.171739"/>
<feColorMatrix type="matrix" values="0 0 0 0 0 0 0 0 0 0 0 0 0 0 0 0 0 0 0.15 0"/>
<feBlend mode="normal" in2="BackgroundImageFix" result="effect1_dropShadow"/>
<feBlend mode="normal" in="SourceGraphic" in2="effect1_dropShadow" result="shape"/>
</filter>
<filter id="filter4_d" x="117.695" y="58.8069" width="12.7712" height="13.018" filterUnits="userSpaceOnUse" color-interpolation-filters="sRGB">
<feFlood flood-opacity="0" result="BackgroundImageFix"/>
<feColorMatrix in="SourceAlpha" type="matrix" values="0 0 0 0 0 0 0 0 0 0 0 0 0 0 0 0 0 0 127 0"/>
<feOffset dy="0.343478"/>
<feGaussianBlur stdDeviation="0.171739"/>
<feColorMatrix type="matrix" values="0 0 0 0 0 0 0 0 0 0 0 0 0 0 0 0 0 0 0.15 0"/>
<feBlend mode="normal" in2="BackgroundImageFix" result="effect1_dropShadow"/>
<feBlend mode="normal" in="SourceGraphic" in2="effect1_dropShadow" result="shape"/>
</filter>
<filter id="filter5_d" x="117.695" y="58.8069" width="12.7712" height="13.018" filterUnits="userSpaceOnUse" color-interpolation-filters="sRGB">
<feFlood flood-opacity="0" result="BackgroundImageFix"/>
<feColorMatrix in="SourceAlpha" type="matrix" values="0 0 0 0 0 0 0 0 0 0 0 0 0 0 0 0 0 0 127 0"/>
<feOffset dy="0.343478"/>
<feGaussianBlur stdDeviation="0.171739"/>
<feColorMatrix type="matrix" values="0 0 0 0 0 0 0 0 0 0 0 0 0 0 0 0 0 0 0.15 0"/>
<feBlend mode="normal" in2="BackgroundImageFix" result="effect1_dropShadow"/>
<feBlend mode="normal" in="SourceGraphic" in2="effect1_dropShadow" result="shape"/>
</filter>
<filter id="filter6_d" x="118.45" y="62.0197" width="11.0813" height="10.4291" filterUnits="userSpaceOnUse" color-interpolation-filters="sRGB">
<feFlood flood-opacity="0" result="BackgroundImageFix"/>
<feColorMatrix in="SourceAlpha" type="matrix" values="0 0 0 0 0 0 0 0 0 0 0 0 0 0 0 0 0 0 127 0"/>
<feOffset dy="0.343478"/>
<feGaussianBlur stdDeviation="0.171739"/>
<feColorMatrix type="matrix" values="0 0 0 0 0 0 0 0 0 0 0 0 0 0 0 0 0 0 0.15 0"/>
<feBlend mode="normal" in2="BackgroundImageFix" result="effect1_dropShadow"/>
<feBlend mode="normal" in="SourceGraphic" in2="effect1_dropShadow" result="shape"/>
</filter>
<filter id="filter7_d" x="118.45" y="62.0197" width="11.0813" height="10.4291" filterUnits="userSpaceOnUse" color-interpolation-filters="sRGB">
<feFlood flood-opacity="0" result="BackgroundImageFix"/>
<feColorMatrix in="SourceAlpha" type="matrix" values="0 0 0 0 0 0 0 0 0 0 0 0 0 0 0 0 0 0 127 0"/>
<feOffset dy="0.343478"/>
<feGaussianBlur stdDeviation="0.171739"/>
<feColorMatrix type="matrix" values="0 0 0 0 0 0 0 0 0 0 0 0 0 0 0 0 0 0 0.15 0"/>
<feBlend mode="normal" in2="BackgroundImageFix" result="effect1_dropShadow"/>
<feBlend mode="normal" in="SourceGraphic" in2="effect1_dropShadow" result="shape"/>
</filter>
<filter id="filter8_d" x="133.695" y="63.3691" width="12.7712" height="13.018" filterUnits="userSpaceOnUse" color-interpolation-filters="sRGB">
<feFlood flood-opacity="0" result="BackgroundImageFix"/>
<feColorMatrix in="SourceAlpha" type="matrix" values="0 0 0 0 0 0 0 0 0 0 0 0 0 0 0 0 0 0 127 0"/>
<feOffset dy="0.343478"/>
<feGaussianBlur stdDeviation="0.171739"/>
<feColorMatrix type="matrix" values="0 0 0 0 0 0 0 0 0 0 0 0 0 0 0 0 0 0 0.15 0"/>
<feBlend mode="normal" in2="BackgroundImageFix" result="effect1_dropShadow"/>
<feBlend mode="normal" in="SourceGraphic" in2="effect1_dropShadow" result="shape"/>
</filter>
<filter id="filter9_d" x="133.695" y="63.3691" width="12.7712" height="13.018" filterUnits="userSpaceOnUse" color-interpolation-filters="sRGB">
<feFlood flood-opacity="0" result="BackgroundImageFix"/>
<feColorMatrix in="SourceAlpha" type="matrix" values="0 0 0 0 0 0 0 0 0 0 0 0 0 0 0 0 0 0 127 0"/>
<feOffset dy="0.343478"/>
<feGaussianBlur stdDeviation="0.171739"/>
<feColorMatrix type="matrix" values="0 0 0 0 0 0 0 0 0 0 0 0 0 0 0 0 0 0 0.15 0"/>
<feBlend mode="normal" in2="BackgroundImageFix" result="effect1_dropShadow"/>
<feBlend mode="normal" in="SourceGraphic" in2="effect1_dropShadow" result="shape"/>
</filter>
<filter id="filter10_d" x="134.45" y="66.5818" width="11.0813" height="10.4291" filterUnits="userSpaceOnUse" color-interpolation-filters="sRGB">
<feFlood flood-opacity="0" result="BackgroundImageFix"/>
<feColorMatrix in="SourceAlpha" type="matrix" values="0 0 0 0 0 0 0 0 0 0 0 0 0 0 0 0 0 0 127 0"/>
<feOffset dy="0.343478"/>
<feGaussianBlur stdDeviation="0.171739"/>
<feColorMatrix type="matrix" values="0 0 0 0 0 0 0 0 0 0 0 0 0 0 0 0 0 0 0.15 0"/>
<feBlend mode="normal" in2="BackgroundImageFix" result="effect1_dropShadow"/>
<feBlend mode="normal" in="SourceGraphic" in2="effect1_dropShadow" result="shape"/>
</filter>
<filter id="filter11_d" x="134.45" y="66.5818" width="11.0813" height="10.4291" filterUnits="userSpaceOnUse" color-interpolation-filters="sRGB">
<feFlood flood-opacity="0" result="BackgroundImageFix"/>
<feColorMatrix in="SourceAlpha" type="matrix" values="0 0 0 0 0 0 0 0 0 0 0 0 0 0 0 0 0 0 127 0"/>
<feOffset dy="0.343478"/>
<feGaussianBlur stdDeviation="0.171739"/>
<feColorMatrix type="matrix" values="0 0 0 0 0 0 0 0 0 0 0 0 0 0 0 0 0 0 0.15 0"/>
<feBlend mode="normal" in2="BackgroundImageFix" result="effect1_dropShadow"/>
<feBlend mode="normal" in="SourceGraphic" in2="effect1_dropShadow" result="shape"/>
</filter>
<clipPath id="clip0">
<rect width="16" height="16.4239" fill="white" transform="translate(100 60.8125)"/>
</clipPath>
<clipPath id="clip1">
<rect width="16" height="16.4239" fill="white" transform="translate(116 56.2503)"/>
</clipPath>
<clipPath id="clip2">
<rect width="16" height="16.4239" fill="white" transform="translate(132 60.8125)"/>
</clipPath>
</defs>
</svg>
