<svg width="190" height="192" viewBox="0 0 190 192" fill="none" xmlns="http://www.w3.org/2000/svg">
<path d="M87.5074 1.26839C74.5074 1.43506 50 -2.88742 36.0073 17.7684C25.5073 33.2684 0.507391 69.2684 1.00739 101.768C10.8407 105.435 32.5074 115.668 40.5074 127.268C40.5074 128.102 39.7074 130.568 36.5074 133.768C33.3074 136.968 39.174 156.768 42.5074 166.268C46.5074 172.768 63.2073 182.868 106.007 189.268C148.807 195.668 171.507 171.268 181.007 157.768C181.007 142.268 177.055 93.9239 165.007 61.2684L170.007 74.2684C168.407 69.4684 181.674 51.9351 188.507 43.7684C189.307 36.9684 177.841 17.6018 172.007 8.76843C163.607 -0.0315695 153.341 0.101724 145.007 2.76839C142.607 18.7684 128.341 22.1017 121.507 21.7684C98.7074 20.9684 89.3407 7.76839 87.5074 1.26839Z" fill="#2CCADF"/>
<path fill-rule="evenodd" clip-rule="evenodd" d="M81.4242 0.152468C83.6598 0.224952 85.708 0.29136 87.4946 0.268456L88.2616 0.258622L88.4698 0.996914C90.183 7.07077 99.1689 19.9839 121.542 20.769L121.556 20.7695L121.556 20.7696C124.814 20.9285 129.888 20.2075 134.411 17.5326C138.893 14.8821 142.866 10.2999 144.018 2.62003L144.111 2.00538L144.703 1.81595C153.251 -0.919381 163.973 -1.09709 172.731 8.07794L172.793 8.14267L172.842 8.21735C175.773 12.6554 180.118 19.7373 183.634 26.5735C185.392 29.9903 186.953 33.3667 188.027 36.3326C189.084 39.2521 189.73 41.9323 189.501 43.8853L189.466 44.1814L189.274 44.4101C185.873 48.4752 180.873 54.8693 176.929 60.8325C174.955 63.8174 173.265 66.6654 172.171 69.0442C171.623 70.2346 171.238 71.2776 171.036 72.1421C170.829 73.0295 170.843 73.612 170.956 73.9522L170.211 74.2196C179.001 105.629 182.007 144.206 182.007 157.768V158.085L181.825 158.344C172.221 171.992 149.195 196.738 105.859 190.257C84.4086 187.05 69.449 182.908 59.3258 178.73C49.2448 174.57 43.8252 170.318 41.6557 166.793L41.5994 166.701L41.5638 166.6C39.8893 161.827 37.5766 154.464 36.0822 147.877C35.336 144.588 34.785 141.456 34.628 138.922C34.5497 137.657 34.5667 136.503 34.7224 135.535C34.8739 134.594 35.1787 133.683 35.8003 133.061C37.3397 131.522 38.2776 130.183 38.8257 129.159C39.2309 128.402 39.4056 127.851 39.4719 127.533C35.5535 122.033 28.4228 116.778 20.9405 112.407C13.3498 107.972 5.52756 104.521 0.658007 102.705L0.0180151 102.467L0.00750801 101.784C-0.246152 85.2958 5.96154 67.999 13.4879 52.9462C20.6433 38.6354 29.0419 26.2553 34.3613 18.414C34.6429 17.999 34.9158 17.5967 35.1794 17.2076C42.3737 6.58745 52.2845 2.39953 61.9714 0.847541C68.8537 -0.255099 75.7439 -0.0317008 81.4242 0.152468ZM41.4904 127.564C41.4208 128.204 41.1351 129.083 40.589 130.103C39.9371 131.321 38.875 132.815 37.2145 134.476C37.036 134.654 36.8242 135.062 36.697 135.853C36.574 136.617 36.5505 137.609 36.6242 138.799C36.7714 141.174 37.2955 144.186 38.0326 147.435C39.494 153.876 41.7587 161.103 43.4145 165.833C45.2881 168.799 50.219 172.808 60.0889 176.882C70.0156 180.979 84.806 185.087 106.155 188.279C148.148 194.559 170.506 170.852 180.007 157.452C179.954 141.677 175.979 93.8951 164.069 61.6145L165.941 60.9094L165.946 60.9223L169.524 70.2264C169.751 69.5843 170.031 68.9083 170.354 68.2083C171.51 65.6943 173.264 62.7486 175.261 59.7293C179.181 53.8016 184.113 47.479 187.539 43.3684C187.621 41.9138 187.131 39.7314 186.147 37.0136C185.113 34.1597 183.594 30.8674 181.856 27.4883C178.4 20.7713 174.124 13.7946 171.223 9.39473C163.384 1.23437 153.877 1.1297 145.896 3.5392C144.528 11.4916 140.264 16.3952 135.429 19.2541C130.514 22.1607 125.041 22.9406 121.466 22.7675C99.0389 21.9782 89.1813 9.37371 86.7732 2.27335C85.0374 2.27531 83.1482 2.21378 81.1414 2.14842C75.5167 1.96523 68.9687 1.75197 62.2878 2.82236C53.5676 4.21947 44.8261 7.7956 38.1678 16.4802C43.7522 15.8553 51.186 15.7507 58.3764 18.0666C66.6606 20.7347 74.5789 26.6065 78.9454 38.4218L77.0694 39.1151C72.9359 27.9303 65.5208 22.4688 57.7633 19.9703C50.1539 17.5195 42.1749 17.9112 36.5871 18.6954C36.4036 18.966 36.216 19.2426 36.0245 19.5249C30.7039 27.3683 22.3711 39.652 15.2768 53.8406C7.9087 68.5768 1.93179 85.2627 2.00059 101.074C6.98904 102.979 14.5732 106.371 21.9493 110.68C29.0779 114.844 36.1257 119.93 40.402 125.435C47.0398 113.772 56.4924 96.5842 64.2144 81.2682C68.2271 73.3095 71.764 65.873 74.1956 59.9866C75.4123 57.0413 76.3433 54.5054 76.9196 52.4972C77.2078 51.4928 77.4018 50.6395 77.5008 49.9447C77.6022 49.233 77.5926 48.7616 77.5312 48.4853L79.4836 48.0514C79.6222 48.6751 79.5949 49.4261 79.4808 50.2268C79.3643 51.0444 79.1449 51.9934 78.842 53.0489C78.236 55.1605 77.2733 57.7746 76.0441 60.7502C73.5841 66.7054 70.021 74.1939 66.0003 82.1686C58.0026 98.0312 48.1608 115.883 41.4904 127.564Z" fill="black"/>
<path d="M78.4765 52.9167C78.6385 51.9158 78.8128 50.9422 79 49.9991C79.2527 50.2519 79.0503 51.2739 78.4765 52.9167C74.7444 75.9745 77.5 113.54 77.5 125.999C77.5 138.999 61 177.999 61 177.999C56.5 176.832 46.7 172.999 43.5 166.999C39.5 159.499 34 139.999 35.5 134.999C37.6667 132.666 41.4001 128.199 41.0001 126.999C52.794 105.304 74.5098 64.2739 78.4765 52.9167Z" fill="#160E1B" fill-opacity="0.4"/>
<path d="M109.5 28.9991C98.9304 25.1051 88.8333 10.1658 87 0.999146C91 9.99915 103.641 22.5706 122.5 21.9991C139 21.4991 145 9.49915 145 3.49915C148 4.99915 143.032 21.9245 138 26.4991C132.5 31.4991 119 32.4991 109.5 28.9991Z" fill="#160E1B" fill-opacity="0.4"/>
<path d="M96.6855 49.8393C96.6855 47.2565 99.6987 46.6108 101.205 46.6108V44.028C98.739 44.028 96.2958 44.7306 95.2482 45.1294C95.2018 45.1473 95.1555 45.1654 95.1093 45.1838C95.9145 46.625 95.6347 48.888 95.3941 49.8393H96.6855Z" fill="#F6E114"/>
<path fill-rule="evenodd" clip-rule="evenodd" d="M101.164 43.3824C101.177 43.3823 101.191 43.3823 101.205 43.3823C109.812 43.3823 112.987 48.8021 113.465 51.6702L113.501 51.8847L107.123 64.0018L116.878 78.3091L108.832 87.0868L101.205 73.7402L93.5562 87.1261L86.1919 78.289L95.9231 64.0166L88.9225 51.9246L88.9393 51.7228C89.2581 47.8973 91.9936 45.7277 94.8693 44.5843C94.9158 44.5656 94.9651 44.5463 95.0172 44.5265C95.0176 44.5263 95.018 44.5262 95.0184 44.526C96.1072 44.1115 98.6092 43.3902 101.164 43.3824ZM94.7719 46.029C92.4399 47.0915 90.5562 48.8438 90.2454 51.6323L97.4478 64.0727L87.808 78.2111L88.3785 78.8957H90.4344C90.0621 78.1051 89.756 77.1706 89.7603 76.3097C89.7636 75.6573 89.9473 74.9774 90.492 74.4688C91.0297 73.9669 91.8148 73.7301 92.8112 73.7301C93.8134 73.7301 94.6049 73.9692 95.1746 74.4454C95.7487 74.9254 96.014 75.5763 96.0989 76.2297C96.2141 77.1159 96.0104 78.0841 95.7223 78.8957H96.7719L101.205 71.1373L108.203 83.3824C108.605 83.3295 108.907 83.2184 109.132 83.0837C109.444 82.8971 109.643 82.6447 109.763 82.3585C110.015 81.757 109.923 80.987 109.668 80.4759L109.599 80.3396V78.5729H114.884L115.235 78.191L105.619 64.0876L112.152 51.6751C111.662 49.3704 109.053 44.9357 101.851 44.6848V45.9877C103.441 46.1022 104.548 46.6409 105.276 47.3631C106.085 48.1661 106.371 49.1425 106.371 49.8393V50.0273L101.205 58.1447L96.331 50.485H94.5647L94.768 49.681C94.8762 49.2532 94.9987 48.503 94.9981 47.6957C94.9977 47.1047 94.9311 46.5246 94.7719 46.029ZM97.3374 49.6611L101.205 55.7393L105.069 49.6673C105.026 49.2847 104.837 48.7468 104.366 48.2799C103.833 47.7508 102.88 47.2565 101.205 47.2565C100.52 47.2565 99.4996 47.407 98.6757 47.8307C97.9251 48.2168 97.3999 48.7866 97.3374 49.6611ZM96.2445 48.6387C96.5837 47.7145 97.303 47.0845 98.0851 46.6823C98.8937 46.2664 99.8071 46.0676 100.56 45.9967V44.6899C98.752 44.7787 97.0183 45.2155 95.9761 45.5576C96.2136 46.2563 96.289 47.0154 96.2895 47.6948C96.2897 48.0216 96.2726 48.3402 96.2445 48.6387ZM113.701 79.8643H110.891V80.0439C111.231 80.8191 111.353 81.9069 110.953 82.8585C110.953 82.8603 110.952 82.862 110.951 82.8637L113.701 79.8643ZM109.667 84.2645C109.43 84.3917 109.167 84.4928 108.879 84.5661L109.075 84.91L109.667 84.2645ZM96.034 80.1871H93.7036L94.1708 79.2527C94.579 78.4362 94.9337 77.2843 94.8183 76.3962C94.7633 75.9734 94.6089 75.6557 94.3463 75.4362C94.0792 75.2129 93.617 75.0215 92.8112 75.0215C91.9998 75.0215 91.5849 75.2152 91.3733 75.4128C91.1687 75.6038 91.0538 75.8924 91.0517 76.3162C91.0472 77.2072 91.5496 78.3708 92.0674 79.1992L92.6848 80.1871H89.4547L93.3577 84.8707L96.034 80.1871Z" fill="black"/>
<path d="M110.245 49.84H112.182L112.828 51.7771L111.537 53.7142L110.245 49.84Z" fill="#27A8CC"/>
<path fill-rule="evenodd" clip-rule="evenodd" d="M109.349 49.1943H112.648L113.54 51.8725L111.341 55.1709L109.349 49.1943ZM111.141 50.4857L111.732 52.2576L112.115 51.6817L111.717 50.4857H111.141Z" fill="black"/>
<path d="M105.725 49.84H107.017C105.08 50.4857 105.209 55.0056 108.308 55.0056C111.91 55.0056 110.891 51.1314 110.245 50.4857V49.84H112.182C110.116 44.6745 104.003 43.8135 101.205 44.0288V46.6116C102.643 46.5308 105.559 47.0634 105.725 49.84Z" fill="#F7583F"/>
<path d="M99.2682 55.0056C97.9768 54.5752 95.394 54.3599 95.394 56.9427C95.394 60.1712 98.6225 59.5255 99.9139 58.8798H100.56V64.6911L97.3311 64.6911L89.5828 51.7771C90.0993 47.6447 93.2417 45.7506 94.7483 45.3202C95.7815 45.3202 96.0397 48.7639 95.394 49.84H96.6854L99.2682 55.0056Z" fill="#F7583F"/>
<path fill-rule="evenodd" clip-rule="evenodd" d="M101.851 44.646V45.9691C102.574 46.0108 103.446 46.1797 104.233 46.5781C105.184 47.0591 106.025 47.8878 106.291 49.1943H107.017L107.221 50.4526C106.966 50.5377 106.726 50.7675 106.562 51.1654C106.399 51.562 106.339 52.0689 106.413 52.5713C106.486 53.0729 106.686 53.5242 106.991 53.8415C107.285 54.1465 107.705 54.3599 108.308 54.3599C109.092 54.3599 109.53 54.1516 109.781 53.9176C110.037 53.6795 110.181 53.3377 110.227 52.9176C110.274 52.4948 110.213 52.0358 110.101 51.6422C110.045 51.4475 109.979 51.2798 109.916 51.1506C109.884 51.0863 109.855 51.0356 109.83 50.9981C109.818 50.9795 109.808 50.9656 109.8 50.9558C109.792 50.9459 109.788 50.942 109.789 50.9423L109.599 50.7532V49.1943H111.162C110.138 47.351 108.49 46.2038 106.733 45.5181C104.985 44.8353 103.165 44.6264 101.851 44.646ZM105.453 50.4857H105.117L105.081 49.8787C105.014 48.7646 104.419 48.119 103.65 47.7304C102.849 47.3251 101.881 47.2203 101.242 47.2562L100.56 47.2945V43.4308L101.156 43.385C102.636 43.2711 104.963 43.4405 107.203 44.3151C109.453 45.1936 111.664 46.8058 112.782 49.6002L113.136 50.4857H111.026C111.155 50.727 111.262 51.0077 111.342 51.2866C111.489 51.801 111.58 52.4316 111.511 53.058C111.442 53.6872 111.207 54.3543 110.661 54.8627C110.11 55.3754 109.325 55.6513 108.308 55.6513C107.361 55.6513 106.603 55.2997 106.061 54.7371C105.531 54.1868 105.239 53.4677 105.135 52.7587C105.031 52.0503 105.108 51.3062 105.368 50.6737C105.394 50.6104 105.423 50.5477 105.453 50.4857ZM94.6579 44.6744H94.7484C95.4119 44.6744 95.7819 45.2204 95.9604 45.6007C96.1613 46.0287 96.2817 46.5697 96.3424 47.1037C96.4038 47.6453 96.4087 48.2241 96.3529 48.7481C96.3372 48.8962 96.316 49.0463 96.2879 49.1943H97.0845L100.543 56.1111L99.0641 55.6182C98.4774 55.4226 97.6485 55.2987 97.0133 55.4681C96.7107 55.5488 96.4829 55.6871 96.3269 55.887C96.1722 56.0854 96.0398 56.4065 96.0398 56.9427C96.0398 57.643 96.2135 58.0459 96.4126 58.2823C96.6117 58.5187 96.8999 58.6645 97.2759 58.7272C98.064 58.8585 99.0522 58.5888 99.6252 58.3023L99.7615 58.2341H101.205V64.0454H107.017V65.3368L96.9656 65.3368L88.9144 51.9182L88.9421 51.697C89.4997 47.2359 92.8934 45.1786 94.571 44.6993L94.6579 44.6744ZM99.914 64.0454V59.5895C99.1735 59.9004 98.0713 60.1689 97.0636 60.001C96.471 59.9022 95.8714 59.6445 95.4248 59.1141C94.9782 58.5838 94.7484 57.8566 94.7484 56.9427C94.7484 56.1875 94.9388 55.567 95.3087 55.0928C95.6774 54.6201 96.176 54.3548 96.6805 54.2203C97.1437 54.0968 97.6358 54.0762 98.1004 54.1137L96.2864 50.4857H94.2536L94.8404 49.5078C94.9294 49.3595 95.0217 49.0542 95.0688 48.6115C95.1139 48.1871 95.1107 47.7032 95.0592 47.2494C95.0068 46.7879 94.9094 46.4007 94.7914 46.1494C94.7611 46.0849 94.7351 46.0397 94.7143 46.0084C93.3356 46.4909 90.7812 48.1735 90.2536 51.6401L97.6968 64.0454L99.914 64.0454ZM94.6594 45.944C94.6594 45.9436 94.6619 45.945 94.6665 45.9491C94.6616 45.9464 94.6593 45.9443 94.6594 45.944Z" fill="black"/>
<path d="M99.2682 55.0056C97.9768 54.5751 95.394 54.3599 95.394 56.9427C95.394 60.1712 98.6225 59.5255 99.9139 58.8798H100.56V64.6911L97.3311 64.6911L89.5828 51.7771C90.0993 47.6446 93.2417 45.7506 94.7483 45.3201C95.7815 45.3201 96.0397 48.7639 95.394 49.84H96.6854L99.2682 55.0056Z" fill="#A8D51A"/>
<path fill-rule="evenodd" clip-rule="evenodd" d="M94.6579 44.6744H94.7484C95.4119 44.6744 95.7819 45.2204 95.9604 45.6007C96.1613 46.0287 96.2817 46.5697 96.3424 47.1037C96.4038 47.6453 96.4087 48.2241 96.3529 48.7481C96.3372 48.8962 96.316 49.0463 96.2879 49.1943H97.0845L100.543 56.1111L99.0641 55.6182C98.4774 55.4226 97.6485 55.2987 97.0133 55.4681C96.7107 55.5488 96.4829 55.6871 96.3269 55.887C96.1722 56.0854 96.0398 56.4065 96.0398 56.9427C96.0398 57.643 96.2135 58.0459 96.4126 58.2823C96.6117 58.5187 96.8999 58.6645 97.2759 58.7272C98.064 58.8585 99.0522 58.5888 99.6252 58.3023L99.7615 58.2341H101.205V65.3368L96.9656 65.3368L88.9144 51.9182L88.9421 51.697C89.4997 47.2359 92.8934 45.1786 94.571 44.6993L94.6579 44.6744ZM94.6594 45.944C94.6594 45.9436 94.6619 45.945 94.6665 45.9491C94.6616 45.9464 94.6593 45.9443 94.6594 45.944ZM94.7143 46.0084C94.7351 46.0397 94.7611 46.0849 94.7914 46.1494C94.9094 46.4007 95.0068 46.7879 95.0592 47.2493C95.1107 47.7032 95.1139 48.1871 95.0688 48.6115C95.0217 49.0542 94.9294 49.3595 94.8404 49.5078L94.2536 50.4857H96.2864L98.1004 54.1137C97.6358 54.0762 97.1437 54.0968 96.6805 54.2203C96.176 54.3548 95.6774 54.6201 95.3087 55.0928C94.9388 55.5669 94.7484 56.1875 94.7484 56.9427C94.7484 57.8566 94.9782 58.5838 95.4248 59.1141C95.8714 59.6445 96.471 59.9022 97.0636 60.001C98.0713 60.1689 99.1735 59.9004 99.914 59.5895V64.0454L97.6968 64.0454L90.2536 51.6401C90.7812 48.1735 93.3356 46.4909 94.7143 46.0084Z" fill="black"/>
<path fill-rule="evenodd" clip-rule="evenodd" d="M99.9139 64.6911H101.205V68.8733C102.004 68.5743 102.951 68.3376 103.814 68.3721C104.443 68.3973 105.102 68.5701 105.606 69.0505C106.119 69.5402 106.371 70.2533 106.371 71.1481C106.371 72.8601 105.765 73.9499 104.872 74.5432C104.019 75.1096 103.025 75.1407 102.37 75.0097L102.623 73.7434C103.045 73.8277 103.665 73.7942 104.157 73.4674C104.609 73.1675 105.08 72.5354 105.08 71.1481C105.08 70.4932 104.901 70.1625 104.715 69.9849C104.519 69.798 104.21 69.6804 103.762 69.6625C102.846 69.6258 101.671 70.0227 100.848 70.4342L99.9139 70.9014V64.6911Z" fill="black"/>
<path d="M105.725 49.84L101.205 56.9427L99.9139 55.0056C98.4073 54.5751 95.394 54.3599 95.394 56.9427C95.394 59.5255 97.3311 60.1712 98.6225 59.5255C99.9139 58.8798 100.56 58.8798 100.56 58.8798V64.6911H105.725L111.463 53.8529C110.816 55.0056 109.842 55.0056 108.308 55.0056C106.266 55.0056 105.08 53.0685 105.725 49.84Z" fill="#27A8CC"/>
<path fill-rule="evenodd" clip-rule="evenodd" d="M101.193 55.7598L105.18 49.4933L106.358 49.9666C106.052 51.4963 106.202 52.6209 106.579 53.3308C106.937 54.0051 107.523 54.3599 108.308 54.3599C109.105 54.3599 109.632 54.3547 110.045 54.2396C110.393 54.1422 110.658 53.9655 110.896 53.5434L110.966 53.4121L112.114 54.003C112.087 54.0572 112.059 54.11 112.03 54.1616L106.114 65.3368H99.9139V59.68C99.656 59.7653 99.3218 59.8977 98.9112 60.103C98.0821 60.5176 97.0344 60.5252 96.1817 59.9923C95.3057 59.4448 94.7483 58.4029 94.7483 56.9427C94.7483 56.1632 94.9797 55.529 95.4108 55.0553C95.8323 54.5921 96.3909 54.3414 96.9451 54.2147C98.0351 53.9655 99.285 54.1544 100.091 54.3847L100.319 54.4499L101.193 55.7598ZM100.56 58.8798V58.2341H101.205V64.0454H105.336L109.81 55.5957C109.355 55.6515 108.865 55.6514 108.37 55.6513C108.349 55.6513 108.329 55.6513 108.308 55.6513C107.051 55.6513 106.023 55.0375 105.438 53.9362C105.183 53.4551 105.018 52.8942 104.946 52.2672L101.218 58.1256L99.5124 55.5674C98.8317 55.4022 97.9449 55.3109 97.2328 55.4736C96.8454 55.5622 96.5565 55.7151 96.3659 55.9244C96.1849 56.1234 96.0397 56.4308 96.0397 56.9427C96.0397 58.0653 96.4508 58.6376 96.8662 58.8972C97.3049 59.1714 97.8715 59.1791 98.3337 58.9479C99.018 58.6058 99.5465 58.4271 99.9187 58.3341C100.105 58.2876 100.251 58.2625 100.358 58.2492C100.412 58.2425 100.455 58.2387 100.489 58.2366C100.506 58.2356 100.52 58.2349 100.532 58.2346L100.548 58.2342L100.554 58.2341L100.557 58.2341L100.558 58.2341L100.56 58.2341C100.56 58.2341 100.56 58.2341 100.56 58.8798Z" fill="black"/>
<path d="M96.6855 64.6911H100.56V69.8567C102.281 68.9958 105.725 68.1779 105.725 71.7938C105.725 73.0852 105.08 74.3766 102.497 74.3766L101.205 72.4395L96.6855 80.1879L94.7484 79.5422C95.6093 77.8203 96.4272 74.3766 92.8113 74.3766C89.1953 74.3766 90.4437 77.8203 91.5199 79.5422H88.2914L87 78.2508L96.6855 64.6911Z" fill="#F6E114"/>
<path fill-rule="evenodd" clip-rule="evenodd" d="M96.3532 64.0454H101.205V68.8828C102.017 68.5947 102.985 68.3909 103.871 68.5061C104.525 68.5911 105.176 68.8563 105.656 69.4304C106.132 70.0001 106.371 70.7916 106.371 71.7938C106.371 72.539 106.184 73.378 105.536 74.026C104.888 74.6741 103.888 75.0223 102.497 75.0223H102.151L101.242 73.6583L96.9789 80.9663L93.8378 79.9193L94.1708 79.2534C94.579 78.4369 94.9337 77.2851 94.8183 76.3969C94.7633 75.9741 94.6089 75.6565 94.3463 75.437C94.0792 75.2137 93.617 75.0223 92.8112 75.0223C91.9997 75.0223 91.5849 75.216 91.3733 75.4136C91.1687 75.6045 91.0538 75.8931 91.0517 76.3169C91.0472 77.208 91.5496 78.3715 92.0674 79.1999L92.6848 80.1879H88.0239L86.1566 78.3206L96.3532 64.0454ZM97.0177 65.3368L90.4989 74.4632C91.0363 73.9657 91.819 73.7309 92.8112 73.7309C93.8134 73.7309 94.6049 73.9699 95.1746 74.4462C95.7487 74.9262 96.014 75.5771 96.0989 76.2304C96.2266 77.2126 95.9625 78.2953 95.6261 79.1541L96.392 79.4094L101.169 71.2206L102.837 73.7223C103.808 73.6713 104.334 73.4014 104.623 73.1129C104.943 72.7924 105.08 72.34 105.079 71.7938C105.079 70.988 104.888 70.5258 104.665 70.2587C104.445 69.9962 104.128 69.8417 103.705 69.7867C102.817 69.6713 101.665 70.026 100.848 70.4342L99.9139 70.9015V65.3368H97.0177ZM89.9849 75.1828L87.8433 78.181L88.5588 78.8965H90.4344C90.0621 78.1058 89.756 77.1713 89.7603 76.3104C89.7622 75.9308 89.8252 75.5418 89.9849 75.1828Z" fill="black"/>
<path d="M88.2914 79.5421L93.457 85.9991L96.6855 80.1878L94.7484 79.5421C95.6093 77.8202 96.4272 74.3765 92.8113 74.3765C89.1954 74.3765 90.4437 77.8202 91.5199 79.5421H88.2914Z" fill="#A8D51A"/>
<path fill-rule="evenodd" clip-rule="evenodd" d="M91.0518 76.3169C91.0474 77.2079 91.5497 78.3715 92.0675 79.1999L92.6849 80.1878H89.6349L93.36 84.8442L95.7432 80.5543L93.838 79.9193L94.1709 79.2534C94.5791 78.4369 94.9339 77.285 94.8184 76.3969C94.7634 75.9741 94.609 75.6564 94.3464 75.4369C94.0793 75.2136 93.6171 75.0222 92.8113 75.0222C91.9999 75.0222 91.585 75.2159 91.3734 75.4135C91.1688 75.6045 91.0539 75.8931 91.0518 76.3169ZM90.4921 74.4695C91.0298 73.9676 91.8149 73.7308 92.8113 73.7308C93.8135 73.7308 94.605 73.9699 95.1747 74.4461C95.7488 74.9261 96.0141 75.577 96.099 76.2304C96.2267 77.2125 95.9626 78.2953 95.6262 79.1541L97.6278 79.8213L93.5541 87.154L86.948 78.8964H90.4345C90.0622 78.1058 89.7561 77.1713 89.7604 76.3104C89.7637 75.658 89.9474 74.9781 90.4921 74.4695Z" fill="black"/>
<path d="M106.371 64.6911H100.56V69.8567C103.788 68.5653 105.725 69.211 105.725 71.7938C105.725 74.3766 103.788 74.3766 102.497 74.3766L108.308 84.062C108.954 84.062 109.728 83.8038 110.245 82.7707C110.762 81.7375 110.245 80.1879 110.245 79.5422H114.765L116.056 78.2508L106.371 64.6911Z" fill="#F7583F"/>
<path fill-rule="evenodd" clip-rule="evenodd" d="M99.9139 64.0454H106.703L116.9 78.3206L115.032 80.1879H110.974C111.01 80.4101 111.052 80.6714 111.081 80.9417C111.148 81.5607 111.169 82.3669 110.823 83.0594C110.514 83.677 110.107 84.1006 109.645 84.3644C109.188 84.6258 108.717 84.7078 108.308 84.7078H107.942L101.356 73.7309H102.497C103.177 73.7309 103.822 73.7187 104.306 73.4762C104.527 73.3661 104.706 73.21 104.838 72.9734C104.973 72.7299 105.08 72.3607 105.08 71.7938C105.08 71.2241 104.972 70.8197 104.812 70.5418C104.659 70.2752 104.439 70.0906 104.132 69.9792C103.475 69.7403 102.374 69.8263 100.799 70.4562L99.9139 70.8104V64.0454ZM101.205 65.3368V68.9393C102.501 68.5308 103.659 68.4329 104.574 68.7656C105.155 68.9771 105.621 69.3575 105.932 69.898C106.236 70.4272 106.371 71.0721 106.371 71.7938C106.371 72.5183 106.235 73.1176 105.967 73.6005C105.695 74.0903 105.309 74.4186 104.884 74.6313C104.479 74.8339 104.032 74.9316 103.611 74.9787L108.652 83.3796C108.772 83.3522 108.891 83.3082 109.005 83.2432C109.221 83.1195 109.46 82.8974 109.668 82.4819C109.838 82.1413 109.859 81.6561 109.797 81.0805C109.77 80.8366 109.733 80.6016 109.696 80.3722C109.69 80.3399 109.685 80.3078 109.68 80.2758C109.642 80.0371 109.599 79.7651 109.599 79.5422V78.8965H114.498L115.213 78.181L106.039 65.3368H101.205Z" fill="black"/>
<path d="M110.245 79.5421C111.278 83.6746 108.954 83.6315 107.662 83.4163L108.954 85.9991L114.765 79.5421H110.245Z" fill="#27A8CC"/>
<path fill-rule="evenodd" clip-rule="evenodd" d="M109.418 78.8964H116.215L108.8 87.1353L106.518 82.5709L107.768 82.7794C108.069 82.8295 108.397 82.8635 108.705 82.8392C109.014 82.8148 109.255 82.7355 109.428 82.6006C109.721 82.3722 110.121 81.7093 109.619 79.6987L109.418 78.8964ZM111.041 80.1878C111.257 81.4565 111.141 82.4097 110.719 83.0724L113.315 80.1878H111.041ZM110.239 83.6057C110.234 83.61 110.228 83.6143 110.223 83.6186C109.782 83.9626 109.265 84.0904 108.807 84.1266C108.785 84.1283 108.763 84.1298 108.742 84.1312L109.108 84.863L110.239 83.6057Z" fill="black"/>
</svg>
